M48
; DRILL file {KiCad (5.99.0-13046-g4fe9f01eb0)} date Wed Dec 22 12:24:46 2021
; FORMAT={3:3/ absolute / metric / suppress leading zeros}
; #@! TF.CreationDate,2021-12-22T12:24:46+01:00
; #@! TF.GenerationSoftware,Kicad,Pcbnew,(5.99.0-13046-g4fe9f01eb0)
; #@! TF.FileFunction,Plated,1,2,PTH
FMAT,2
METRIC,TZ
; #@! TA.AperFunction,Plated,PTH,ViaDrill
T1C0.400
; #@! TA.AperFunction,Plated,PTH,ComponentDrill
T2C0.889
; #@! TA.AperFunction,Plated,PTH,ComponentDrill
T3C1.300
; #@! TA.AperFunction,Plated,PTH,ComponentDrill
T4C3.000
%
G90
G05
T1
X4445Y14224
X6096Y14224
X7874Y14224
X10287Y14224
X13716Y15240
X15240Y15240
X15621Y32639
X15621Y29845
X16637Y15240
X17145Y27686
X17272Y25400
X17399Y23114
X18415Y18542
X18415Y12446
X18898Y8992
X19304Y32766
X19304Y29845
X19304Y27940
X19431Y25400
X19558Y23114
X19685Y14351
X20320Y15494
X20472Y7163
X20523Y3658
X20574Y5334
X20828Y20574
X21082Y8890
X21336Y14224
X21692Y12344
X21717Y15494
X22225Y19812
X22352Y2286
X22479Y9779
X25019Y2286
X25273Y31623
X25654Y10922
X25654Y9652
X26162Y26670
X26162Y25400
X26416Y15113
X26797Y31623
X27686Y26670
X27686Y15113
X27889Y3302
X28321Y25400
X28448Y31623
X28956Y20574
X29616Y5385
X30226Y26416
X30226Y9144
X31344Y10312
X31394Y7976
X31496Y15113
X31623Y16510
X32512Y23368
X32766Y12954
X34036Y12954
X34290Y21971
X35433Y12954
X36068Y21844
X36170Y10770
X36322Y17399
X36474Y15799
X36474Y14173
X37719Y17399
X38100Y21844
X38862Y17399
T2
X16637Y10414
X35179Y29210
X35179Y26670
X35179Y24130
X37719Y29210
X37719Y26670
X37719Y24130
T3
X5414Y22733
X5414Y17653
X10414Y22733
X10414Y17653
T4
X5080Y35560
X5080Y5080
X35560Y35560
X35560Y5080
T0
M30
