%TF.GenerationSoftware,KiCad,Pcbnew,(5.99.0-13046-g4fe9f01eb0)*%
%TF.CreationDate,2021-12-22T12:24:45+01:00*%
%TF.ProjectId,SOLARMINI01B,534f4c41-524d-4494-9e49-3031422e6b69,rev?*%
%TF.SameCoordinates,Original*%
%TF.FileFunction,Copper,L2,Bot*%
%TF.FilePolarity,Positive*%
%FSLAX46Y46*%
G04 Gerber Fmt 4.6, Leading zero omitted, Abs format (unit mm)*
G04 Created by KiCad (PCBNEW (5.99.0-13046-g4fe9f01eb0)) date 2021-12-22 12:24:45*
%MOMM*%
%LPD*%
G01*
G04 APERTURE LIST*
G04 Aperture macros list*
%AMRoundRect*
0 Rectangle with rounded corners*
0 $1 Rounding radius*
0 $2 $3 $4 $5 $6 $7 $8 $9 X,Y pos of 4 corners*
0 Add a 4 corners polygon primitive as box body*
4,1,4,$2,$3,$4,$5,$6,$7,$8,$9,$2,$3,0*
0 Add four circle primitives for the rounded corners*
1,1,$1+$1,$2,$3*
1,1,$1+$1,$4,$5*
1,1,$1+$1,$6,$7*
1,1,$1+$1,$8,$9*
0 Add four rect primitives between the rounded corners*
20,1,$1+$1,$2,$3,$4,$5,0*
20,1,$1+$1,$4,$5,$6,$7,0*
20,1,$1+$1,$6,$7,$8,$9,0*
20,1,$1+$1,$8,$9,$2,$3,0*%
G04 Aperture macros list end*
%ADD10C,0.300000*%
%TA.AperFunction,NonConductor*%
%ADD11C,0.300000*%
%TD*%
%TA.AperFunction,ComponentPad*%
%ADD12R,1.524000X1.524000*%
%TD*%
%TA.AperFunction,ComponentPad*%
%ADD13C,6.000000*%
%TD*%
%TA.AperFunction,ComponentPad*%
%ADD14R,3.810000X3.810000*%
%TD*%
%TA.AperFunction,SMDPad,CuDef*%
%ADD15R,2.550160X2.499360*%
%TD*%
%TA.AperFunction,SMDPad,CuDef*%
%ADD16RoundRect,0.250000X-0.450000X0.262500X-0.450000X-0.262500X0.450000X-0.262500X0.450000X0.262500X0*%
%TD*%
%TA.AperFunction,SMDPad,CuDef*%
%ADD17RoundRect,0.250000X0.475000X-0.250000X0.475000X0.250000X-0.475000X0.250000X-0.475000X-0.250000X0*%
%TD*%
%TA.AperFunction,SMDPad,CuDef*%
%ADD18RoundRect,0.250000X-0.250000X-0.475000X0.250000X-0.475000X0.250000X0.475000X-0.250000X0.475000X0*%
%TD*%
%TA.AperFunction,SMDPad,CuDef*%
%ADD19R,2.499360X2.550160*%
%TD*%
%TA.AperFunction,SMDPad,CuDef*%
%ADD20RoundRect,0.250000X-0.262500X-0.450000X0.262500X-0.450000X0.262500X0.450000X-0.262500X0.450000X0*%
%TD*%
%TA.AperFunction,SMDPad,CuDef*%
%ADD21RoundRect,0.250000X-0.475000X0.250000X-0.475000X-0.250000X0.475000X-0.250000X0.475000X0.250000X0*%
%TD*%
%TA.AperFunction,SMDPad,CuDef*%
%ADD22R,2.500000X1.800000*%
%TD*%
%TA.AperFunction,SMDPad,CuDef*%
%ADD23RoundRect,0.250000X-0.625000X0.312500X-0.625000X-0.312500X0.625000X-0.312500X0.625000X0.312500X0*%
%TD*%
%TA.AperFunction,SMDPad,CuDef*%
%ADD24RoundRect,0.100000X-0.100000X0.637500X-0.100000X-0.637500X0.100000X-0.637500X0.100000X0.637500X0*%
%TD*%
%TA.AperFunction,SMDPad,CuDef*%
%ADD25RoundRect,0.250000X0.450000X-0.262500X0.450000X0.262500X-0.450000X0.262500X-0.450000X-0.262500X0*%
%TD*%
%TA.AperFunction,SMDPad,CuDef*%
%ADD26R,3.000000X5.500000*%
%TD*%
%TA.AperFunction,ViaPad*%
%ADD27C,0.800000*%
%TD*%
%TA.AperFunction,Conductor*%
%ADD28C,0.500000*%
%TD*%
%TA.AperFunction,Conductor*%
%ADD29C,0.300000*%
%TD*%
G04 APERTURE END LIST*
D10*
D11*
X16300171Y4753695D02*
X16238266Y4815600D01*
X16114457Y4877504D01*
X15804933Y4877504D01*
X15681123Y4815600D01*
X15619219Y4753695D01*
X15557314Y4629885D01*
X15557314Y4506076D01*
X15619219Y4320361D01*
X16362076Y3577504D01*
X15557314Y3577504D01*
X14752552Y4877504D02*
X14628742Y4877504D01*
X14504933Y4815600D01*
X14443028Y4753695D01*
X14381123Y4629885D01*
X14319219Y4382266D01*
X14319219Y4072742D01*
X14381123Y3825123D01*
X14443028Y3701314D01*
X14504933Y3639409D01*
X14628742Y3577504D01*
X14752552Y3577504D01*
X14876361Y3639409D01*
X14938266Y3701314D01*
X15000171Y3825123D01*
X15062076Y4072742D01*
X15062076Y4382266D01*
X15000171Y4629885D01*
X14938266Y4753695D01*
X14876361Y4815600D01*
X14752552Y4877504D01*
X13823980Y4753695D02*
X13762076Y4815600D01*
X13638266Y4877504D01*
X13328742Y4877504D01*
X13204933Y4815600D01*
X13143028Y4753695D01*
X13081123Y4629885D01*
X13081123Y4506076D01*
X13143028Y4320361D01*
X13885885Y3577504D01*
X13081123Y3577504D01*
X12585885Y4753695D02*
X12523980Y4815600D01*
X12400171Y4877504D01*
X12090647Y4877504D01*
X11966838Y4815600D01*
X11904933Y4753695D01*
X11843028Y4629885D01*
X11843028Y4506076D01*
X11904933Y4320361D01*
X12647790Y3577504D01*
X11843028Y3577504D01*
D10*
D11*
X17918438Y5609504D02*
X17918438Y6909504D01*
X17485104Y5980933D01*
X17051771Y6909504D01*
X17051771Y5609504D01*
X15813676Y5609504D02*
X16432723Y5609504D01*
X16432723Y6909504D01*
X15442247Y5980933D02*
X14823200Y5980933D01*
X15566057Y5609504D02*
X15132723Y6909504D01*
X14699390Y5609504D01*
X13832723Y6290457D02*
X13647009Y6228552D01*
X13585104Y6166647D01*
X13523200Y6042838D01*
X13523200Y5857123D01*
X13585104Y5733314D01*
X13647009Y5671409D01*
X13770819Y5609504D01*
X14266057Y5609504D01*
X14266057Y6909504D01*
X13832723Y6909504D01*
X13708914Y6847600D01*
X13647009Y6785695D01*
X13585104Y6661885D01*
X13585104Y6538076D01*
X13647009Y6414266D01*
X13708914Y6352361D01*
X13832723Y6290457D01*
X14266057Y6290457D01*
X12966057Y5733314D02*
X12904152Y5671409D01*
X12966057Y5609504D01*
X13027961Y5671409D01*
X12966057Y5733314D01*
X12966057Y5609504D01*
X11604152Y5733314D02*
X11666057Y5671409D01*
X11851771Y5609504D01*
X11975580Y5609504D01*
X12161295Y5671409D01*
X12285104Y5795219D01*
X12347009Y5919028D01*
X12408914Y6166647D01*
X12408914Y6352361D01*
X12347009Y6599980D01*
X12285104Y6723790D01*
X12161295Y6847600D01*
X11975580Y6909504D01*
X11851771Y6909504D01*
X11666057Y6847600D01*
X11604152Y6785695D01*
X11170819Y6909504D02*
X10304152Y6909504D01*
X11170819Y5609504D01*
X10304152Y5609504D01*
D12*
%TO.P,J3,1*%
%TO.N,Net-(J3-Pad1)*%
X16637000Y10414000D03*
%TD*%
D13*
%TO.P,M2,1*%
%TO.N,unconnected-(M2-Pad1)*%
X5080000Y5080000D03*
%TD*%
%TO.P,M1,1*%
%TO.N,unconnected-(M1-Pad1)*%
X5080000Y35560000D03*
%TD*%
%TO.P,M4,1*%
%TO.N,unconnected-(M4-Pad1)*%
X35560000Y5080000D03*
%TD*%
D14*
%TO.P,J2,1,P1*%
%TO.N,GND*%
X5414000Y17653000D03*
X10414000Y17653000D03*
%TD*%
%TO.P,J1,1,P1*%
%TO.N,/PV+*%
X10414000Y22733000D03*
X5414000Y22733000D03*
%TD*%
D13*
%TO.P,M3,1*%
%TO.N,unconnected-(M3-Pad1)*%
X35560000Y35560000D03*
%TD*%
D12*
%TO.P,J4,1*%
%TO.N,GND*%
X37719000Y24130000D03*
%TO.P,J4,2*%
X35179000Y24130000D03*
%TO.P,J4,3*%
%TO.N,Net-(C7-Pad1)*%
X37719000Y26670000D03*
%TO.P,J4,4*%
X35179000Y26670000D03*
%TO.P,J4,5*%
%TO.N,GND*%
X37719000Y29210000D03*
%TO.P,J4,6*%
X35179000Y29210000D03*
%TD*%
D15*
%TO.P,C7,1*%
%TO.N,Net-(C7-Pad1)*%
X31496000Y29083000D03*
%TO.P,C7,2*%
%TO.N,GND*%
X26446480Y29083000D03*
%TD*%
D16*
%TO.P,R1,1*%
%TO.N,/PV+*%
X18542000Y21359500D03*
%TO.P,R1,2*%
%TO.N,Net-(C2-Pad1)*%
X18542000Y19534500D03*
%TD*%
D17*
%TO.P,C8,1*%
%TO.N,Net-(C8-Pad1)*%
X27686000Y11938000D03*
%TO.P,C8,2*%
%TO.N,GND*%
X27686000Y13838000D03*
%TD*%
D18*
%TO.P,C3,1*%
%TO.N,Net-(C3-Pad1)*%
X22992000Y8128000D03*
%TO.P,C3,2*%
%TO.N,Net-(C3-Pad2)*%
X24892000Y8128000D03*
%TD*%
D16*
%TO.P,R8,1*%
%TO.N,GND*%
X30226000Y13763000D03*
%TO.P,R8,2*%
%TO.N,Net-(C8-Pad1)*%
X30226000Y11938000D03*
%TD*%
D19*
%TO.P,C1,1*%
%TO.N,/PV+*%
X14986000Y22844760D03*
%TO.P,C1,2*%
%TO.N,GND*%
X14986000Y17795240D03*
%TD*%
D20*
%TO.P,R7,1*%
%TO.N,Net-(C8-Pad1)*%
X27178000Y9144000D03*
%TO.P,R7,2*%
%TO.N,Net-(C7-Pad1)*%
X29003000Y9144000D03*
%TD*%
D21*
%TO.P,C4,1*%
%TO.N,Net-(C4-Pad1)*%
X27686000Y18283000D03*
%TO.P,C4,2*%
%TO.N,GND*%
X27686000Y16383000D03*
%TD*%
%TO.P,C5,1*%
%TO.N,Net-(C4-Pad1)*%
X30099000Y18222000D03*
%TO.P,C5,2*%
%TO.N,GND*%
X30099000Y16322000D03*
%TD*%
D22*
%TO.P,D2,1,K*%
%TO.N,Net-(C4-Pad1)*%
X33560000Y19939000D03*
%TO.P,D2,2,A*%
%TO.N,GND*%
X37560000Y19939000D03*
%TD*%
D23*
%TO.P,R6,1*%
%TO.N,Net-(C7-Pad1)*%
X30353000Y24896000D03*
%TO.P,R6,2*%
%TO.N,Net-(C4-Pad1)*%
X30353000Y21971000D03*
%TD*%
D22*
%TO.P,D1,1,K*%
%TO.N,Net-(C4-Pad1)*%
X26765000Y22987000D03*
%TO.P,D1,2,A*%
%TO.N,Net-(D1-Pad2)*%
X22765000Y22987000D03*
%TD*%
D16*
%TO.P,R2,1*%
%TO.N,Net-(C2-Pad1)*%
X18542000Y17526000D03*
%TO.P,R2,2*%
%TO.N,GND*%
X18542000Y15701000D03*
%TD*%
D24*
%TO.P,U1,1,MPP-SET*%
%TO.N,Net-(C2-Pad1)*%
X23155000Y18229500D03*
%TO.P,U1,2,GND*%
%TO.N,GND*%
X23805000Y18229500D03*
%TO.P,U1,3,LX*%
%TO.N,Net-(D1-Pad2)*%
X24455000Y18229500D03*
%TO.P,U1,4,VOUT*%
%TO.N,Net-(C4-Pad1)*%
X25105000Y18229500D03*
%TO.P,U1,5,VCTRL*%
%TO.N,Net-(C8-Pad1)*%
X25105000Y12504500D03*
%TO.P,U1,6,ICTRL-*%
%TO.N,Net-(C3-Pad2)*%
X24455000Y12504500D03*
%TO.P,U1,7,ICTRL+*%
%TO.N,Net-(C3-Pad1)*%
X23805000Y12504500D03*
%TO.P,U1,8,XSHUT*%
%TO.N,Net-(J3-Pad1)*%
X23155000Y12504500D03*
%TD*%
D16*
%TO.P,R5,1*%
%TO.N,Net-(C3-Pad2)*%
X25019000Y5992500D03*
%TO.P,R5,2*%
%TO.N,Net-(C7-Pad1)*%
X25019000Y4167500D03*
%TD*%
D25*
%TO.P,R3,1*%
%TO.N,Net-(J3-Pad1)*%
X19939000Y10541000D03*
%TO.P,R3,2*%
%TO.N,Net-(C2-Pad1)*%
X19939000Y12366000D03*
%TD*%
D16*
%TO.P,R4,1*%
%TO.N,Net-(C3-Pad1)*%
X22352000Y5992500D03*
%TO.P,R4,2*%
%TO.N,Net-(C4-Pad1)*%
X22352000Y4167500D03*
%TD*%
D21*
%TO.P,C2,1*%
%TO.N,Net-(C2-Pad1)*%
X20828000Y18984000D03*
%TO.P,C2,2*%
%TO.N,GND*%
X20828000Y17084000D03*
%TD*%
D19*
%TO.P,C6,1*%
%TO.N,Net-(C4-Pad1)*%
X33782000Y15732760D03*
%TO.P,C6,2*%
%TO.N,GND*%
X33782000Y10683240D03*
%TD*%
D26*
%TO.P,L1,1*%
%TO.N,/PV+*%
X12145000Y32512000D03*
%TO.P,L1,2*%
%TO.N,Net-(D1-Pad2)*%
X22145000Y32512000D03*
%TD*%
D27*
%TO.N,GND*%
X36169600Y10769600D03*
X17145000Y27686000D03*
X37719000Y17399000D03*
X15621000Y32639000D03*
X38100000Y21844000D03*
X25273000Y31623000D03*
X17399000Y23114000D03*
X28448000Y31623000D03*
X21336000Y14224000D03*
X13716000Y15240000D03*
X16637000Y15240000D03*
X27686000Y26670000D03*
X32512000Y23368000D03*
X27686000Y15113000D03*
X20472400Y7162800D03*
X19431000Y25400000D03*
X17272000Y25400000D03*
X15621000Y29845000D03*
X34036000Y12954000D03*
X35433000Y12954000D03*
X10287000Y14224000D03*
X21717000Y15494000D03*
X4445000Y14224000D03*
X31343600Y10312400D03*
X19558000Y23114000D03*
X20574000Y5334000D03*
X20320000Y15494000D03*
X26162000Y26670000D03*
X28321000Y25400000D03*
X29616400Y5384800D03*
X31496000Y15113000D03*
X36474400Y14173200D03*
X27889200Y3302000D03*
X19685000Y14351000D03*
X22479000Y9779000D03*
X25654000Y10922000D03*
X34290000Y21971000D03*
X38862000Y17399000D03*
X31394400Y7975600D03*
X32766000Y12954000D03*
X31623000Y16510000D03*
X26416000Y15113000D03*
X18897600Y8991600D03*
X21082000Y8890000D03*
X19304000Y32766000D03*
X15240000Y15240000D03*
X26797000Y31623000D03*
X20828000Y20574000D03*
X19304000Y27940000D03*
X7874000Y14224000D03*
X19304000Y29845000D03*
X26162000Y25400000D03*
X21691600Y12344400D03*
X25654000Y9652000D03*
X20523200Y3657600D03*
X36068000Y21844000D03*
X6096000Y14224000D03*
X22225000Y19812000D03*
X36474400Y15798800D03*
X36322000Y17399000D03*
%TO.N,Net-(C2-Pad1)*%
X18415000Y12446000D03*
X18415000Y18542000D03*
%TO.N,Net-(C4-Pad1)*%
X22352000Y2286000D03*
X28956000Y20574000D03*
%TO.N,Net-(C7-Pad1)*%
X30226000Y9144000D03*
X30226000Y26416000D03*
X25019000Y2286000D03*
%TD*%
D28*
%TO.N,/PV+*%
X18542000Y21359500D02*
X16471260Y21359500D01*
X16471260Y21359500D02*
X14986000Y22844760D01*
%TO.N,Net-(C2-Pad1)*%
X18415000Y18542000D02*
X18415000Y19407500D01*
X20277500Y19534500D02*
X20828000Y18984000D01*
X18415000Y18542000D02*
X18415000Y17653000D01*
D29*
X21902500Y18229500D02*
X23155000Y18229500D01*
D28*
X19939000Y12366000D02*
X18495000Y12366000D01*
X18542000Y19534500D02*
X20277500Y19534500D01*
X18415000Y19407500D02*
X18542000Y19534500D01*
X18415000Y17653000D02*
X18542000Y17526000D01*
X18495000Y12366000D02*
X18415000Y12446000D01*
D29*
X21148000Y18984000D02*
X21902500Y18229500D01*
X20828000Y18984000D02*
X21148000Y18984000D01*
%TO.N,Net-(C3-Pad1)*%
X22992000Y6355000D02*
X22629500Y5992500D01*
X22629500Y5992500D02*
X22352000Y5992500D01*
X23805000Y12504500D02*
X23805000Y8941000D01*
X22992000Y8128000D02*
X22992000Y6355000D01*
X23805000Y8941000D02*
X22992000Y8128000D01*
%TO.N,Net-(C3-Pad2)*%
X24455000Y12504500D02*
X24455000Y8565000D01*
X25019000Y8001000D02*
X24892000Y8128000D01*
X25019000Y5992500D02*
X25019000Y8001000D01*
X24455000Y8565000D02*
X24892000Y8128000D01*
D28*
%TO.N,Net-(C4-Pad1)*%
X26765000Y22987000D02*
X26765000Y22765000D01*
X22352000Y2286000D02*
X22352000Y4167500D01*
X26765000Y22765000D02*
X28956000Y20574000D01*
%TO.N,Net-(C7-Pad1)*%
X25019000Y2286000D02*
X25019000Y4167500D01*
X30353000Y26289000D02*
X30226000Y26416000D01*
X30353000Y24896000D02*
X30353000Y26289000D01*
X29003000Y9144000D02*
X30226000Y9144000D01*
D29*
%TO.N,Net-(C8-Pad1)*%
X26738500Y12504500D02*
X25105000Y12504500D01*
D28*
X27686000Y11938000D02*
X27686000Y9652000D01*
X30226000Y11938000D02*
X27686000Y11938000D01*
D29*
X27686000Y11938000D02*
X27305000Y11938000D01*
X27305000Y11938000D02*
X26738500Y12504500D01*
D28*
X27686000Y9652000D02*
X27178000Y9144000D01*
D29*
%TO.N,Net-(J3-Pad1)*%
X23155000Y12504500D02*
X23155000Y10836000D01*
D28*
X16637000Y10414000D02*
X19812000Y10414000D01*
D29*
X22860000Y10541000D02*
X19939000Y10541000D01*
X23155000Y10836000D02*
X22860000Y10541000D01*
D28*
X19812000Y10414000D02*
X19939000Y10541000D01*
%TD*%
%TA.AperFunction,Conductor*%
%TO.N,GND*%
G36*
X40045191Y40067093D02*
G01*
X40081155Y40017593D01*
X40086000Y39987000D01*
X40086000Y653000D01*
X40067093Y594809D01*
X40017593Y558845D01*
X39987000Y554000D01*
X653000Y554000D01*
X594809Y572907D01*
X558845Y622407D01*
X554000Y653000D01*
X554000Y5135923D01*
X1075065Y5135923D01*
X1088722Y4744843D01*
X1140477Y4356962D01*
X1229834Y3975983D01*
X1355943Y3605542D01*
X1356940Y3603345D01*
X1356942Y3603339D01*
X1426097Y3450888D01*
X1517598Y3249174D01*
X1713258Y2910283D01*
X1714661Y2908323D01*
X1714667Y2908314D01*
X1917976Y2624335D01*
X1941053Y2592101D01*
X2198810Y2297667D01*
X2200570Y2296014D01*
X2200577Y2296007D01*
X2322822Y2181212D01*
X2484069Y2029792D01*
X2485981Y2028320D01*
X2485984Y2028317D01*
X2792189Y1792508D01*
X2794107Y1791031D01*
X2796159Y1789749D01*
X3123915Y1584943D01*
X3123920Y1584940D01*
X3125964Y1583663D01*
X3128128Y1582589D01*
X3128133Y1582586D01*
X3474306Y1410744D01*
X3476472Y1409669D01*
X3842287Y1270710D01*
X4219915Y1168110D01*
X4605754Y1102850D01*
X4608162Y1102682D01*
X4608167Y1102681D01*
X4993714Y1075721D01*
X4993718Y1075721D01*
X4996119Y1075553D01*
X4998525Y1075620D01*
X4998535Y1075620D01*
X5384863Y1086412D01*
X5384870Y1086413D01*
X5387285Y1086480D01*
X5775517Y1135525D01*
X5777870Y1136060D01*
X5777878Y1136061D01*
X6154762Y1221687D01*
X6154768Y1221689D01*
X6157111Y1222221D01*
X6528424Y1345740D01*
X6885911Y1504904D01*
X7226160Y1698192D01*
X7231743Y1702130D01*
X7543949Y1922368D01*
X7545924Y1923761D01*
X7547743Y1925331D01*
X7547748Y1925335D01*
X7840321Y2177877D01*
X7840324Y2177880D01*
X7842150Y2179456D01*
X7843815Y2181204D01*
X7843823Y2181212D01*
X7977080Y2321147D01*
X8112011Y2462838D01*
X8352931Y2771201D01*
X8354225Y2773241D01*
X8354232Y2773250D01*
X8561310Y3099553D01*
X8561313Y3099558D01*
X8562610Y3101602D01*
X8739046Y3450888D01*
X8880557Y3815723D01*
X8985790Y4192626D01*
X8995247Y4246255D01*
X8996101Y4251100D01*
X9518438Y4251100D01*
X10896410Y4251100D01*
X10954601Y4232193D01*
X10990565Y4182693D01*
X10995410Y4152100D01*
X10995410Y2219100D01*
X17147791Y2219100D01*
X17147791Y3862228D01*
X21351500Y3862228D01*
X21362364Y3772453D01*
X21417887Y3632217D01*
X21421967Y3626842D01*
X21421968Y3626840D01*
X21504995Y3517457D01*
X21509078Y3512078D01*
X21514457Y3507995D01*
X21623840Y3424968D01*
X21623842Y3424967D01*
X21629217Y3420887D01*
X21635492Y3418403D01*
X21635493Y3418402D01*
X21738944Y3377443D01*
X21786088Y3338442D01*
X21801500Y3285395D01*
X21801500Y2752336D01*
X21783497Y2695411D01*
X21730113Y2619453D01*
X21668524Y2461487D01*
X21646394Y2293389D01*
X21647049Y2287456D01*
X21647049Y2287452D01*
X21654595Y2219100D01*
X21664999Y2124865D01*
X21723266Y1965644D01*
X21726591Y1960695D01*
X21726592Y1960694D01*
X21739689Y1941204D01*
X21817830Y1824917D01*
X21943233Y1710809D01*
X22092235Y1629908D01*
X22127189Y1620738D01*
X22250464Y1588397D01*
X22250468Y1588396D01*
X22256233Y1586884D01*
X22262194Y1586790D01*
X22262197Y1586790D01*
X22340965Y1585553D01*
X22425760Y1584221D01*
X22431575Y1585553D01*
X22431577Y1585553D01*
X22585206Y1620738D01*
X22585209Y1620739D01*
X22591029Y1622072D01*
X22606610Y1629908D01*
X22737165Y1695571D01*
X22742498Y1698253D01*
X22747035Y1702128D01*
X22747038Y1702130D01*
X22866888Y1804492D01*
X22866891Y1804495D01*
X22871423Y1808366D01*
X22970361Y1946053D01*
X23003432Y2028317D01*
X23031377Y2097833D01*
X23031378Y2097835D01*
X23033601Y2103366D01*
X23037505Y2130796D01*
X23057034Y2268015D01*
X23057034Y2268021D01*
X23057490Y2271222D01*
X23057645Y2286000D01*
X23037276Y2454320D01*
X22977345Y2612923D01*
X22969502Y2624335D01*
X22919912Y2696489D01*
X22902500Y2752563D01*
X22902500Y3285395D01*
X22921407Y3343586D01*
X22965056Y3377443D01*
X23068507Y3418402D01*
X23068508Y3418403D01*
X23074783Y3420887D01*
X23080158Y3424967D01*
X23080160Y3424968D01*
X23189543Y3507995D01*
X23194922Y3512078D01*
X23199005Y3517457D01*
X23282032Y3626840D01*
X23282033Y3626842D01*
X23286113Y3632217D01*
X23341636Y3772453D01*
X23352500Y3862228D01*
X24018500Y3862228D01*
X24029364Y3772453D01*
X24084887Y3632217D01*
X24088967Y3626842D01*
X24088968Y3626840D01*
X24171995Y3517457D01*
X24176078Y3512078D01*
X24181457Y3507995D01*
X24290840Y3424968D01*
X24290842Y3424967D01*
X24296217Y3420887D01*
X24302492Y3418403D01*
X24302493Y3418402D01*
X24405944Y3377443D01*
X24453088Y3338442D01*
X24468500Y3285395D01*
X24468500Y2752336D01*
X24450497Y2695411D01*
X24397113Y2619453D01*
X24335524Y2461487D01*
X24313394Y2293389D01*
X24314049Y2287456D01*
X24314049Y2287452D01*
X24321595Y2219100D01*
X24331999Y2124865D01*
X24390266Y1965644D01*
X24393591Y1960695D01*
X24393592Y1960694D01*
X24406689Y1941204D01*
X24484830Y1824917D01*
X24610233Y1710809D01*
X24759235Y1629908D01*
X24794189Y1620738D01*
X24917464Y1588397D01*
X24917468Y1588396D01*
X24923233Y1586884D01*
X24929194Y1586790D01*
X24929197Y1586790D01*
X25007965Y1585553D01*
X25092760Y1584221D01*
X25098575Y1585553D01*
X25098577Y1585553D01*
X25252206Y1620738D01*
X25252209Y1620739D01*
X25258029Y1622072D01*
X25273610Y1629908D01*
X25404165Y1695571D01*
X25409498Y1698253D01*
X25414035Y1702128D01*
X25414038Y1702130D01*
X25533888Y1804492D01*
X25533891Y1804495D01*
X25538423Y1808366D01*
X25637361Y1946053D01*
X25670432Y2028317D01*
X25698377Y2097833D01*
X25698378Y2097835D01*
X25700601Y2103366D01*
X25704505Y2130796D01*
X25724034Y2268015D01*
X25724034Y2268021D01*
X25724490Y2271222D01*
X25724645Y2286000D01*
X25704276Y2454320D01*
X25644345Y2612923D01*
X25636502Y2624335D01*
X25586912Y2696489D01*
X25569500Y2752563D01*
X25569500Y3285395D01*
X25588407Y3343586D01*
X25632056Y3377443D01*
X25735507Y3418402D01*
X25735508Y3418403D01*
X25741783Y3420887D01*
X25747158Y3424967D01*
X25747160Y3424968D01*
X25856543Y3507995D01*
X25861922Y3512078D01*
X25866005Y3517457D01*
X25949032Y3626840D01*
X25949033Y3626842D01*
X25953113Y3632217D01*
X26008636Y3772453D01*
X26019500Y3862228D01*
X26019500Y4472772D01*
X26008636Y4562547D01*
X25953113Y4702783D01*
X25923006Y4742448D01*
X25866005Y4817543D01*
X25861922Y4822922D01*
X25856543Y4827005D01*
X25747160Y4910032D01*
X25747158Y4910033D01*
X25741783Y4914113D01*
X25601547Y4969636D01*
X25511772Y4980500D01*
X24526228Y4980500D01*
X24436453Y4969636D01*
X24296217Y4914113D01*
X24290842Y4910033D01*
X24290840Y4910032D01*
X24181457Y4827005D01*
X24176078Y4822922D01*
X24171995Y4817543D01*
X24114995Y4742448D01*
X24084887Y4702783D01*
X24029364Y4562547D01*
X24018500Y4472772D01*
X24018500Y3862228D01*
X23352500Y3862228D01*
X23352500Y4472772D01*
X23341636Y4562547D01*
X23286113Y4702783D01*
X23256006Y4742448D01*
X23199005Y4817543D01*
X23194922Y4822922D01*
X23189543Y4827005D01*
X23080160Y4910032D01*
X23080158Y4910033D01*
X23074783Y4914113D01*
X22934547Y4969636D01*
X22844772Y4980500D01*
X21859228Y4980500D01*
X21769453Y4969636D01*
X21629217Y4914113D01*
X21623842Y4910033D01*
X21623840Y4910032D01*
X21514457Y4827005D01*
X21509078Y4822922D01*
X21504995Y4817543D01*
X21447995Y4742448D01*
X21417887Y4702783D01*
X21362364Y4562547D01*
X21351500Y4472772D01*
X21351500Y3862228D01*
X17147791Y3862228D01*
X17147791Y4152100D01*
X17166698Y4210291D01*
X17216198Y4246255D01*
X17246791Y4251100D01*
X18827962Y4251100D01*
X18827962Y5135923D01*
X31555065Y5135923D01*
X31568722Y4744843D01*
X31620477Y4356962D01*
X31709834Y3975983D01*
X31835943Y3605542D01*
X31836940Y3603345D01*
X31836942Y3603339D01*
X31906097Y3450888D01*
X31997598Y3249174D01*
X32193258Y2910283D01*
X32194661Y2908323D01*
X32194667Y2908314D01*
X32397976Y2624335D01*
X32421053Y2592101D01*
X32678810Y2297667D01*
X32680570Y2296014D01*
X32680577Y2296007D01*
X32802822Y2181212D01*
X32964069Y2029792D01*
X32965981Y2028320D01*
X32965984Y2028317D01*
X33272189Y1792508D01*
X33274107Y1791031D01*
X33276159Y1789749D01*
X33603915Y1584943D01*
X33603920Y1584940D01*
X33605964Y1583663D01*
X33608128Y1582589D01*
X33608133Y1582586D01*
X33954306Y1410744D01*
X33956472Y1409669D01*
X34322287Y1270710D01*
X34699915Y1168110D01*
X35085754Y1102850D01*
X35088162Y1102682D01*
X35088167Y1102681D01*
X35473714Y1075721D01*
X35473718Y1075721D01*
X35476119Y1075553D01*
X35478525Y1075620D01*
X35478535Y1075620D01*
X35864863Y1086412D01*
X35864870Y1086413D01*
X35867285Y1086480D01*
X36255517Y1135525D01*
X36257870Y1136060D01*
X36257878Y1136061D01*
X36634762Y1221687D01*
X36634768Y1221689D01*
X36637111Y1222221D01*
X37008424Y1345740D01*
X37365911Y1504904D01*
X37706160Y1698192D01*
X37711743Y1702130D01*
X38023949Y1922368D01*
X38025924Y1923761D01*
X38027743Y1925331D01*
X38027748Y1925335D01*
X38320321Y2177877D01*
X38320324Y2177880D01*
X38322150Y2179456D01*
X38323815Y2181204D01*
X38323823Y2181212D01*
X38457081Y2321147D01*
X38592011Y2462838D01*
X38832931Y2771201D01*
X38834225Y2773241D01*
X38834232Y2773250D01*
X39041310Y3099553D01*
X39041313Y3099558D01*
X39042610Y3101602D01*
X39219046Y3450888D01*
X39360557Y3815723D01*
X39465790Y4192626D01*
X39475247Y4246255D01*
X39533321Y4575611D01*
X39533322Y4575616D01*
X39533742Y4578000D01*
X39563763Y4968165D01*
X39565325Y5080000D01*
X39546209Y5470851D01*
X39537645Y5528845D01*
X39489398Y5855577D01*
X39489397Y5855584D01*
X39489044Y5857972D01*
X39394376Y6237666D01*
X39263107Y6606311D01*
X39262081Y6608492D01*
X39262077Y6608501D01*
X39171929Y6800074D01*
X39096492Y6960386D01*
X38896120Y7296513D01*
X38894692Y7298449D01*
X38894686Y7298459D01*
X38665333Y7609546D01*
X38663905Y7611483D01*
X38662299Y7613267D01*
X38662293Y7613274D01*
X38403679Y7900492D01*
X38402061Y7902289D01*
X38357144Y7943304D01*
X38114878Y8164524D01*
X38114870Y8164530D01*
X38113090Y8166156D01*
X37922708Y8308580D01*
X37801696Y8399109D01*
X37801689Y8399114D01*
X37799749Y8400565D01*
X37664039Y8482754D01*
X37467096Y8602027D01*
X37467093Y8602029D01*
X37465030Y8603278D01*
X37462858Y8604318D01*
X37462850Y8604323D01*
X37114310Y8771316D01*
X37114303Y8771319D01*
X37112126Y8772362D01*
X36744407Y8906200D01*
X36742081Y8906797D01*
X36742072Y8906800D01*
X36367711Y9002919D01*
X36365382Y9003517D01*
X36208149Y9027858D01*
X35981057Y9063014D01*
X35981046Y9063015D01*
X35978670Y9063383D01*
X35976261Y9063518D01*
X35976258Y9063518D01*
X35590381Y9085092D01*
X35590376Y9085092D01*
X35587962Y9085227D01*
X35196987Y9068841D01*
X34809477Y9014380D01*
X34710947Y8990543D01*
X34431485Y8922934D01*
X34431475Y8922931D01*
X34429131Y8922364D01*
X34380348Y8905376D01*
X34061858Y8794467D01*
X34061851Y8794464D01*
X34059579Y8793673D01*
X34057391Y8792662D01*
X33775679Y8662492D01*
X33704349Y8629533D01*
X33537112Y8531416D01*
X33368915Y8432736D01*
X33368910Y8432733D01*
X33366831Y8431513D01*
X33364887Y8430100D01*
X33364880Y8430096D01*
X33173978Y8291397D01*
X33050248Y8201502D01*
X32757621Y7941695D01*
X32755980Y7939923D01*
X32755973Y7939916D01*
X32631995Y7806031D01*
X32491743Y7654573D01*
X32490280Y7652645D01*
X32490272Y7652636D01*
X32394733Y7526767D01*
X32255152Y7342876D01*
X32226629Y7296513D01*
X32058182Y7022705D01*
X32050107Y7009580D01*
X32049055Y7007423D01*
X32049050Y7007414D01*
X31950570Y6805500D01*
X31878564Y6657865D01*
X31877725Y6655609D01*
X31743536Y6294784D01*
X31742162Y6291090D01*
X31642201Y5912754D01*
X31579637Y5526469D01*
X31555065Y5135923D01*
X18827962Y5135923D01*
X18827962Y8144100D01*
X9518438Y8144100D01*
X9518438Y4251100D01*
X8996101Y4251100D01*
X9053321Y4575611D01*
X9053322Y4575616D01*
X9053742Y4578000D01*
X9083763Y4968165D01*
X9085325Y5080000D01*
X9066209Y5470851D01*
X9057645Y5528845D01*
X9009398Y5855577D01*
X9009397Y5855584D01*
X9009044Y5857972D01*
X8914376Y6237666D01*
X8783107Y6606311D01*
X8782081Y6608492D01*
X8782077Y6608501D01*
X8691929Y6800074D01*
X8616492Y6960386D01*
X8416120Y7296513D01*
X8414692Y7298449D01*
X8414686Y7298459D01*
X8185333Y7609546D01*
X8183905Y7611483D01*
X8182299Y7613267D01*
X8182293Y7613274D01*
X7923679Y7900492D01*
X7922061Y7902289D01*
X7877144Y7943304D01*
X7634878Y8164524D01*
X7634870Y8164530D01*
X7633090Y8166156D01*
X7442708Y8308580D01*
X7321696Y8399109D01*
X7321689Y8399114D01*
X7319749Y8400565D01*
X7184039Y8482754D01*
X6987096Y8602027D01*
X6987093Y8602029D01*
X6985030Y8603278D01*
X6982858Y8604318D01*
X6982850Y8604323D01*
X6634310Y8771316D01*
X6634303Y8771319D01*
X6632126Y8772362D01*
X6264407Y8906200D01*
X6262081Y8906797D01*
X6262072Y8906800D01*
X5887711Y9002919D01*
X5885382Y9003517D01*
X5728149Y9027858D01*
X5501057Y9063014D01*
X5501046Y9063015D01*
X5498670Y9063383D01*
X5496261Y9063518D01*
X5496258Y9063518D01*
X5110381Y9085092D01*
X5110376Y9085092D01*
X5107962Y9085227D01*
X4716987Y9068841D01*
X4329477Y9014380D01*
X4230947Y8990543D01*
X3951485Y8922934D01*
X3951475Y8922931D01*
X3949131Y8922364D01*
X3900348Y8905376D01*
X3581858Y8794467D01*
X3581851Y8794464D01*
X3579579Y8793673D01*
X3577391Y8792662D01*
X3295679Y8662492D01*
X3224349Y8629533D01*
X3057112Y8531416D01*
X2888915Y8432736D01*
X2888910Y8432733D01*
X2886831Y8431513D01*
X2884887Y8430100D01*
X2884880Y8430096D01*
X2693978Y8291397D01*
X2570248Y8201502D01*
X2277621Y7941695D01*
X2275980Y7939923D01*
X2275973Y7939916D01*
X2151995Y7806031D01*
X2011743Y7654573D01*
X2010280Y7652645D01*
X2010272Y7652636D01*
X1914733Y7526767D01*
X1775152Y7342876D01*
X1746629Y7296513D01*
X1578182Y7022705D01*
X1570107Y7009580D01*
X1569055Y7007423D01*
X1569050Y7007414D01*
X1470570Y6805500D01*
X1398564Y6657865D01*
X1397725Y6655609D01*
X1263536Y6294784D01*
X1262162Y6291090D01*
X1162201Y5912754D01*
X1099637Y5526469D01*
X1075065Y5135923D01*
X554000Y5135923D01*
X554000Y9607354D01*
X15574500Y9607354D01*
X15577618Y9581154D01*
X15623061Y9478847D01*
X15629529Y9472390D01*
X15629530Y9472389D01*
X15663002Y9438976D01*
X15702287Y9399759D01*
X15710645Y9396064D01*
X15797864Y9357504D01*
X15797866Y9357504D01*
X15804673Y9354494D01*
X15812067Y9353632D01*
X15827378Y9351847D01*
X15830354Y9351500D01*
X17443646Y9351500D01*
X17461561Y9353632D01*
X17462469Y9353740D01*
X17462470Y9353740D01*
X17469846Y9354618D01*
X17572153Y9400061D01*
X17651241Y9479287D01*
X17696506Y9581673D01*
X17699500Y9607354D01*
X17699500Y9764500D01*
X17718407Y9822691D01*
X17767907Y9858655D01*
X17798500Y9863500D01*
X19091847Y9863500D01*
X19151702Y9843356D01*
X19210836Y9798470D01*
X19210843Y9798466D01*
X19216217Y9794387D01*
X19356453Y9738864D01*
X19446228Y9728000D01*
X20431772Y9728000D01*
X20521547Y9738864D01*
X20661783Y9794387D01*
X20667158Y9798467D01*
X20667160Y9798468D01*
X20776543Y9881495D01*
X20781922Y9885578D01*
X20873113Y10005717D01*
X20881913Y10027943D01*
X20920913Y10075088D01*
X20973961Y10090500D01*
X22827373Y10090500D01*
X22839009Y10089814D01*
X22874310Y10085636D01*
X22881586Y10086965D01*
X22881589Y10086965D01*
X22912288Y10092572D01*
X22932430Y10096251D01*
X22935476Y10096758D01*
X22993962Y10105551D01*
X23000475Y10108679D01*
X23007573Y10109975D01*
X23059982Y10137199D01*
X23062762Y10138588D01*
X23109408Y10160987D01*
X23109411Y10160989D01*
X23116079Y10164191D01*
X23120521Y10168297D01*
X23122781Y10169820D01*
X23127788Y10172421D01*
X23132828Y10176725D01*
X23170460Y10214357D01*
X23173263Y10217051D01*
X23188299Y10230950D01*
X23243864Y10256566D01*
X23303874Y10244629D01*
X23345406Y10199699D01*
X23354500Y10158252D01*
X23354500Y9252500D01*
X23335593Y9194309D01*
X23286093Y9158345D01*
X23255500Y9153500D01*
X22699228Y9153500D01*
X22609453Y9142636D01*
X22469217Y9087113D01*
X22463842Y9083033D01*
X22463840Y9083032D01*
X22437954Y9063383D01*
X22349078Y8995922D01*
X22344995Y8990543D01*
X22293677Y8922934D01*
X22257887Y8875783D01*
X22202364Y8735547D01*
X22191500Y8645772D01*
X22191500Y7610228D01*
X22202364Y7520453D01*
X22257887Y7380217D01*
X22261967Y7374842D01*
X22261968Y7374840D01*
X22319945Y7298459D01*
X22349078Y7260078D01*
X22354457Y7255995D01*
X22463840Y7172968D01*
X22463842Y7172967D01*
X22469217Y7168887D01*
X22475493Y7166402D01*
X22475495Y7166401D01*
X22478943Y7165036D01*
X22481133Y7163224D01*
X22481373Y7163089D01*
X22481349Y7163046D01*
X22526088Y7126036D01*
X22541500Y7072988D01*
X22541500Y6904500D01*
X22522593Y6846309D01*
X22473093Y6810345D01*
X22442500Y6805500D01*
X21859228Y6805500D01*
X21769453Y6794636D01*
X21629217Y6739113D01*
X21623842Y6735033D01*
X21623840Y6735032D01*
X21525024Y6660026D01*
X21509078Y6647922D01*
X21504995Y6642543D01*
X21479156Y6608501D01*
X21417887Y6527783D01*
X21362364Y6387547D01*
X21351500Y6297772D01*
X21351500Y5687228D01*
X21362364Y5597453D01*
X21391420Y5524065D01*
X21413442Y5468445D01*
X21417887Y5457217D01*
X21509078Y5337078D01*
X21514457Y5332995D01*
X21623840Y5249968D01*
X21623842Y5249967D01*
X21629217Y5245887D01*
X21769453Y5190364D01*
X21859228Y5179500D01*
X22844772Y5179500D01*
X22934547Y5190364D01*
X23074783Y5245887D01*
X23080158Y5249967D01*
X23080160Y5249968D01*
X23189543Y5332995D01*
X23194922Y5337078D01*
X23286113Y5457217D01*
X23290559Y5468445D01*
X23312580Y5524065D01*
X23341636Y5597453D01*
X23352500Y5687228D01*
X23352500Y6052174D01*
X23371867Y6110992D01*
X23390236Y6135861D01*
X23390237Y6135863D01*
X23394634Y6141816D01*
X23397027Y6148632D01*
X23401131Y6154569D01*
X23418956Y6210929D01*
X23419918Y6213814D01*
X23439519Y6269631D01*
X23439756Y6275673D01*
X23440277Y6278347D01*
X23441980Y6283730D01*
X23442500Y6290337D01*
X23442500Y6343541D01*
X23442576Y6347428D01*
X23444152Y6387547D01*
X23444838Y6404994D01*
X23443041Y6411773D01*
X23442500Y6421593D01*
X23442500Y7072988D01*
X23461407Y7131179D01*
X23505057Y7165036D01*
X23508505Y7166401D01*
X23508507Y7166402D01*
X23514783Y7168887D01*
X23520158Y7172967D01*
X23520160Y7172968D01*
X23629543Y7255995D01*
X23634922Y7260078D01*
X23664055Y7298459D01*
X23722032Y7374840D01*
X23722033Y7374842D01*
X23726113Y7380217D01*
X23781636Y7520453D01*
X23792500Y7610228D01*
X23792500Y8250389D01*
X23811407Y8308580D01*
X23821496Y8320393D01*
X23892366Y8391263D01*
X23946883Y8419040D01*
X24007315Y8409469D01*
X24050223Y8366897D01*
X24051212Y8364993D01*
X24052588Y8362238D01*
X24078191Y8308920D01*
X24076899Y8308300D01*
X24091500Y8260838D01*
X24091500Y7610228D01*
X24102364Y7520453D01*
X24157887Y7380217D01*
X24161967Y7374842D01*
X24161968Y7374840D01*
X24219945Y7298459D01*
X24249078Y7260078D01*
X24254457Y7255995D01*
X24363840Y7172968D01*
X24363842Y7172967D01*
X24369217Y7168887D01*
X24375492Y7166403D01*
X24375493Y7166402D01*
X24505944Y7114753D01*
X24553088Y7075752D01*
X24568500Y7022705D01*
X24568500Y6898357D01*
X24549593Y6840166D01*
X24500093Y6804202D01*
X24481397Y6800075D01*
X24436453Y6794636D01*
X24296217Y6739113D01*
X24290842Y6735033D01*
X24290840Y6735032D01*
X24192024Y6660026D01*
X24176078Y6647922D01*
X24171995Y6642543D01*
X24146156Y6608501D01*
X24084887Y6527783D01*
X24029364Y6387547D01*
X24018500Y6297772D01*
X24018500Y5687228D01*
X24029364Y5597453D01*
X24058420Y5524065D01*
X24080442Y5468445D01*
X24084887Y5457217D01*
X24176078Y5337078D01*
X24181457Y5332995D01*
X24290840Y5249968D01*
X24290842Y5249967D01*
X24296217Y5245887D01*
X24436453Y5190364D01*
X24526228Y5179500D01*
X25511772Y5179500D01*
X25601547Y5190364D01*
X25741783Y5245887D01*
X25747158Y5249967D01*
X25747160Y5249968D01*
X25856543Y5332995D01*
X25861922Y5337078D01*
X25953113Y5457217D01*
X25957559Y5468445D01*
X25979580Y5524065D01*
X26008636Y5597453D01*
X26019500Y5687228D01*
X26019500Y6297772D01*
X26008636Y6387547D01*
X25953113Y6527783D01*
X25891845Y6608501D01*
X25866005Y6642543D01*
X25861922Y6647922D01*
X25845976Y6660026D01*
X25747160Y6735032D01*
X25747158Y6735033D01*
X25741783Y6739113D01*
X25601547Y6794636D01*
X25556606Y6800074D01*
X25501109Y6825835D01*
X25471352Y6879296D01*
X25469500Y6898357D01*
X25469500Y7161277D01*
X25488407Y7219468D01*
X25508640Y7240129D01*
X25534922Y7260078D01*
X25590332Y7333077D01*
X25622032Y7374840D01*
X25622033Y7374842D01*
X25626113Y7380217D01*
X25681636Y7520453D01*
X25692500Y7610228D01*
X25692500Y8645772D01*
X25681636Y8735547D01*
X25626113Y8875783D01*
X25590324Y8922934D01*
X25539005Y8990543D01*
X25534922Y8995922D01*
X25446046Y9063383D01*
X25420160Y9083032D01*
X25420158Y9083033D01*
X25414783Y9087113D01*
X25274547Y9142636D01*
X25184772Y9153500D01*
X25004500Y9153500D01*
X24946309Y9172407D01*
X24910345Y9221907D01*
X24905500Y9252500D01*
X24905500Y11367500D01*
X24924407Y11425691D01*
X24973907Y11461655D01*
X25004500Y11466500D01*
X25207174Y11466501D01*
X25236518Y11466501D01*
X25240361Y11467110D01*
X25240366Y11467110D01*
X25277217Y11472947D01*
X25330304Y11481354D01*
X25386823Y11510152D01*
X25436403Y11535414D01*
X25436405Y11535415D01*
X25443342Y11538950D01*
X25533050Y11628658D01*
X25536647Y11635716D01*
X25587110Y11734756D01*
X25587110Y11734757D01*
X25590646Y11741696D01*
X25600664Y11804944D01*
X25604891Y11831635D01*
X25604891Y11831637D01*
X25605500Y11835481D01*
X25605500Y11955000D01*
X25624407Y12013191D01*
X25673907Y12049155D01*
X25704500Y12054000D01*
X26510889Y12054000D01*
X26569080Y12035093D01*
X26580893Y12025004D01*
X26631504Y11974393D01*
X26659281Y11919876D01*
X26660500Y11904389D01*
X26660500Y11645228D01*
X26671364Y11555453D01*
X26677898Y11538950D01*
X26720268Y11431936D01*
X26726887Y11415217D01*
X26730967Y11409842D01*
X26730968Y11409840D01*
X26813995Y11300457D01*
X26818078Y11295078D01*
X26823457Y11290995D01*
X26932840Y11207968D01*
X26932842Y11207967D01*
X26938217Y11203887D01*
X26944492Y11201403D01*
X26944493Y11201402D01*
X27072944Y11150545D01*
X27120088Y11111544D01*
X27135500Y11058497D01*
X27135500Y10243500D01*
X27116593Y10185309D01*
X27067093Y10149345D01*
X27036500Y10144500D01*
X26872728Y10144500D01*
X26782953Y10133636D01*
X26718686Y10108191D01*
X26672271Y10089814D01*
X26642717Y10078113D01*
X26637342Y10074033D01*
X26637340Y10074032D01*
X26631351Y10069486D01*
X26522578Y9986922D01*
X26431387Y9866783D01*
X26375864Y9726547D01*
X26365000Y9636772D01*
X26365000Y8651228D01*
X26375864Y8561453D01*
X26404982Y8487908D01*
X26427872Y8430096D01*
X26431387Y8421217D01*
X26435467Y8415842D01*
X26435468Y8415840D01*
X26516884Y8308580D01*
X26522578Y8301078D01*
X26527957Y8296995D01*
X26637340Y8213968D01*
X26637342Y8213967D01*
X26642717Y8209887D01*
X26782953Y8154364D01*
X26872728Y8143500D01*
X27483272Y8143500D01*
X27573047Y8154364D01*
X27713283Y8209887D01*
X27718658Y8213967D01*
X27718660Y8213968D01*
X27828043Y8296995D01*
X27833422Y8301078D01*
X27839116Y8308580D01*
X27920532Y8415840D01*
X27920533Y8415842D01*
X27924613Y8421217D01*
X27928129Y8430096D01*
X27951018Y8487908D01*
X27980136Y8561453D01*
X27991000Y8651228D01*
X27991000Y9137467D01*
X28009907Y9195658D01*
X28019996Y9207471D01*
X28020996Y9208471D01*
X28075513Y9236248D01*
X28135945Y9226677D01*
X28179210Y9183412D01*
X28190000Y9138467D01*
X28190000Y8651228D01*
X28200864Y8561453D01*
X28229982Y8487908D01*
X28252872Y8430096D01*
X28256387Y8421217D01*
X28260467Y8415842D01*
X28260468Y8415840D01*
X28341884Y8308580D01*
X28347578Y8301078D01*
X28352957Y8296995D01*
X28462340Y8213968D01*
X28462342Y8213967D01*
X28467717Y8209887D01*
X28607953Y8154364D01*
X28697728Y8143500D01*
X29308272Y8143500D01*
X29398047Y8154364D01*
X29538283Y8209887D01*
X29543658Y8213967D01*
X29543660Y8213968D01*
X29653043Y8296995D01*
X29658422Y8301078D01*
X29664116Y8308580D01*
X29745532Y8415840D01*
X29745533Y8415842D01*
X29749613Y8421217D01*
X29753129Y8430096D01*
X29768553Y8469055D01*
X29807554Y8516199D01*
X29866817Y8531416D01*
X29907839Y8519614D01*
X29942984Y8500532D01*
X29966235Y8487908D01*
X30001189Y8478738D01*
X30124464Y8446397D01*
X30124468Y8446396D01*
X30130233Y8444884D01*
X30136194Y8444790D01*
X30136197Y8444790D01*
X30214965Y8443553D01*
X30299760Y8442221D01*
X30305575Y8443553D01*
X30305577Y8443553D01*
X30459206Y8478738D01*
X30459209Y8478739D01*
X30465029Y8480072D01*
X30480610Y8487908D01*
X30611165Y8553571D01*
X30616498Y8556253D01*
X30621035Y8560128D01*
X30621038Y8560130D01*
X30740888Y8662492D01*
X30740891Y8662495D01*
X30745423Y8666366D01*
X30748904Y8671210D01*
X30840877Y8799204D01*
X30840878Y8799206D01*
X30844361Y8804053D01*
X30885666Y8906800D01*
X30905377Y8955833D01*
X30905378Y8955835D01*
X30907601Y8961366D01*
X30908442Y8967273D01*
X30931034Y9126015D01*
X30931034Y9126021D01*
X30931490Y9129222D01*
X30931645Y9144000D01*
X30918334Y9254000D01*
X30911993Y9306398D01*
X30911992Y9306401D01*
X30911276Y9312320D01*
X30851345Y9470923D01*
X30839853Y9487645D01*
X30758692Y9605733D01*
X30755312Y9610651D01*
X30628721Y9723440D01*
X30478881Y9802776D01*
X30396661Y9823429D01*
X30320231Y9842627D01*
X30320228Y9842627D01*
X30314441Y9844081D01*
X30228841Y9844529D01*
X30150861Y9844938D01*
X30150859Y9844938D01*
X30144895Y9844969D01*
X30139099Y9843577D01*
X30139095Y9843577D01*
X30035683Y9818749D01*
X29980032Y9805388D01*
X29940192Y9784825D01*
X29906085Y9767221D01*
X29845704Y9757333D01*
X29791043Y9784825D01*
X29768631Y9818749D01*
X29752097Y9860509D01*
X29749613Y9866783D01*
X29658422Y9986922D01*
X29549649Y10069486D01*
X29543660Y10074032D01*
X29543658Y10074033D01*
X29538283Y10078113D01*
X29508730Y10089814D01*
X29462314Y10108191D01*
X29398047Y10133636D01*
X29308272Y10144500D01*
X28697728Y10144500D01*
X28607953Y10133636D01*
X28543686Y10108191D01*
X28497271Y10089814D01*
X28467717Y10078113D01*
X28462343Y10074034D01*
X28462336Y10074030D01*
X28395355Y10023188D01*
X28337573Y10003066D01*
X28278999Y10020750D01*
X28242007Y10069486D01*
X28236500Y10102044D01*
X28236500Y11058497D01*
X28255407Y11116688D01*
X28299056Y11150545D01*
X28427507Y11201402D01*
X28427508Y11201403D01*
X28433783Y11203887D01*
X28439158Y11207967D01*
X28439160Y11207968D01*
X28548543Y11290995D01*
X28553922Y11295078D01*
X28588625Y11340797D01*
X28594363Y11348356D01*
X28644606Y11383275D01*
X28673219Y11387500D01*
X29254293Y11387500D01*
X29312484Y11368593D01*
X29333149Y11348356D01*
X29337111Y11343136D01*
X29383078Y11282578D01*
X29388457Y11278495D01*
X29497840Y11195468D01*
X29497842Y11195467D01*
X29503217Y11191387D01*
X29643453Y11135864D01*
X29733228Y11125000D01*
X30718772Y11125000D01*
X30808547Y11135864D01*
X30948783Y11191387D01*
X30954158Y11195467D01*
X30954160Y11195468D01*
X31063543Y11278495D01*
X31068922Y11282578D01*
X31082493Y11300457D01*
X31156032Y11397340D01*
X31156033Y11397342D01*
X31160113Y11402717D01*
X31215636Y11542953D01*
X31226500Y11632728D01*
X31226500Y12243272D01*
X31215636Y12333047D01*
X31160113Y12473283D01*
X31134212Y12507407D01*
X31073005Y12588043D01*
X31068922Y12593422D01*
X30966359Y12671272D01*
X30954160Y12680532D01*
X30954158Y12680533D01*
X30948783Y12684613D01*
X30808547Y12740136D01*
X30718772Y12751000D01*
X29733228Y12751000D01*
X29643453Y12740136D01*
X29503217Y12684613D01*
X29497842Y12680533D01*
X29497840Y12680532D01*
X29485641Y12671272D01*
X29383078Y12593422D01*
X29378995Y12588043D01*
X29333149Y12527644D01*
X29282906Y12492725D01*
X29254293Y12488500D01*
X28673219Y12488500D01*
X28615028Y12507407D01*
X28594363Y12527644D01*
X28558005Y12575543D01*
X28553922Y12580922D01*
X28548543Y12585005D01*
X28439160Y12668032D01*
X28439158Y12668033D01*
X28433783Y12672113D01*
X28293547Y12727636D01*
X28203772Y12738500D01*
X27182611Y12738500D01*
X27124420Y12757407D01*
X27112607Y12767496D01*
X27080119Y12799984D01*
X27072377Y12808697D01*
X27054953Y12830799D01*
X27050372Y12836610D01*
X27001751Y12870214D01*
X26999228Y12872017D01*
X26957639Y12902736D01*
X26957637Y12902737D01*
X26951684Y12907134D01*
X26944868Y12909527D01*
X26938931Y12913631D01*
X26931872Y12915864D01*
X26931871Y12915864D01*
X26894961Y12927537D01*
X26882571Y12931456D01*
X26879686Y12932418D01*
X26823869Y12952019D01*
X26817827Y12952256D01*
X26815153Y12952777D01*
X26809770Y12954480D01*
X26803163Y12955000D01*
X26749959Y12955000D01*
X26746072Y12955076D01*
X26695897Y12957048D01*
X26695894Y12957048D01*
X26688506Y12957338D01*
X26681728Y12955541D01*
X26671903Y12955000D01*
X25704499Y12955000D01*
X25646308Y12973907D01*
X25610344Y13023407D01*
X25605499Y13054000D01*
X25605499Y13173518D01*
X25590646Y13267304D01*
X25533050Y13380342D01*
X25443342Y13470050D01*
X25436405Y13473585D01*
X25436403Y13473586D01*
X25337244Y13524110D01*
X25337243Y13524110D01*
X25330304Y13527646D01*
X25322610Y13528865D01*
X25322609Y13528865D01*
X25240365Y13541891D01*
X25240363Y13541891D01*
X25236519Y13542500D01*
X25105034Y13542500D01*
X24973482Y13542499D01*
X24969639Y13541890D01*
X24969634Y13541890D01*
X24932783Y13536053D01*
X24879696Y13527646D01*
X24842547Y13508718D01*
X24824945Y13499749D01*
X24764513Y13490178D01*
X24735055Y13499749D01*
X24687244Y13524110D01*
X24687243Y13524110D01*
X24680304Y13527646D01*
X24672610Y13528865D01*
X24672609Y13528865D01*
X24590365Y13541891D01*
X24590363Y13541891D01*
X24586519Y13542500D01*
X24455034Y13542500D01*
X24323482Y13542499D01*
X24319639Y13541890D01*
X24319634Y13541890D01*
X24282783Y13536053D01*
X24229696Y13527646D01*
X24192547Y13508718D01*
X24174945Y13499749D01*
X24114513Y13490178D01*
X24085055Y13499749D01*
X24037244Y13524110D01*
X24037243Y13524110D01*
X24030304Y13527646D01*
X24022610Y13528865D01*
X24022609Y13528865D01*
X23940365Y13541891D01*
X23940363Y13541891D01*
X23936519Y13542500D01*
X23805034Y13542500D01*
X23673482Y13542499D01*
X23669639Y13541890D01*
X23669634Y13541890D01*
X23632783Y13536053D01*
X23579696Y13527646D01*
X23542547Y13508718D01*
X23524945Y13499749D01*
X23464513Y13490178D01*
X23435055Y13499749D01*
X23387244Y13524110D01*
X23387243Y13524110D01*
X23380304Y13527646D01*
X23372610Y13528865D01*
X23372609Y13528865D01*
X23290365Y13541891D01*
X23290363Y13541891D01*
X23286519Y13542500D01*
X23155034Y13542500D01*
X23023482Y13542499D01*
X23019639Y13541890D01*
X23019634Y13541890D01*
X22982783Y13536053D01*
X22929696Y13527646D01*
X22874945Y13499749D01*
X22823597Y13473586D01*
X22823595Y13473585D01*
X22816658Y13470050D01*
X22726950Y13380342D01*
X22669354Y13267304D01*
X22654500Y13173519D01*
X22654501Y11835482D01*
X22655110Y11831639D01*
X22655110Y11831634D01*
X22659337Y11804944D01*
X22669354Y11741696D01*
X22687290Y11706495D01*
X22693710Y11693895D01*
X22704500Y11648950D01*
X22704500Y11090500D01*
X22685593Y11032309D01*
X22636093Y10996345D01*
X22605500Y10991500D01*
X20973961Y10991500D01*
X20915770Y11010407D01*
X20881913Y11054057D01*
X20875599Y11070005D01*
X20875598Y11070007D01*
X20873113Y11076283D01*
X20846349Y11111544D01*
X20786005Y11191043D01*
X20781922Y11196422D01*
X20766711Y11207968D01*
X20667160Y11283532D01*
X20667158Y11283533D01*
X20661783Y11287613D01*
X20642929Y11295078D01*
X20622593Y11303130D01*
X20521547Y11343136D01*
X20431772Y11354000D01*
X19446228Y11354000D01*
X19356453Y11343136D01*
X19255407Y11303130D01*
X19235072Y11295078D01*
X19216217Y11287613D01*
X19210842Y11283533D01*
X19210840Y11283532D01*
X19111289Y11207968D01*
X19096078Y11196422D01*
X19091995Y11191043D01*
X19031652Y11111544D01*
X19004887Y11076283D01*
X18987477Y11032309D01*
X18985397Y11027056D01*
X18946396Y10979912D01*
X18893349Y10964500D01*
X17798500Y10964500D01*
X17740309Y10983407D01*
X17704345Y11032907D01*
X17699500Y11063500D01*
X17699500Y11220646D01*
X17696382Y11246846D01*
X17650939Y11349153D01*
X17616758Y11383275D01*
X17602668Y11397340D01*
X17571713Y11428241D01*
X17496133Y11461655D01*
X17476136Y11470496D01*
X17476134Y11470496D01*
X17469327Y11473506D01*
X17455322Y11475139D01*
X17446494Y11476168D01*
X17446493Y11476168D01*
X17443646Y11476500D01*
X15830354Y11476500D01*
X15813951Y11474548D01*
X15811531Y11474260D01*
X15811530Y11474260D01*
X15804154Y11473382D01*
X15701847Y11427939D01*
X15695390Y11421471D01*
X15695389Y11421470D01*
X15682934Y11408993D01*
X15622759Y11348713D01*
X15619064Y11340355D01*
X15591716Y11278495D01*
X15577494Y11246327D01*
X15574500Y11220646D01*
X15574500Y9607354D01*
X554000Y9607354D01*
X554000Y12453389D01*
X17709394Y12453389D01*
X17710049Y12447456D01*
X17710049Y12447452D01*
X17723377Y12326733D01*
X17727999Y12284865D01*
X17786266Y12125644D01*
X17880830Y11984917D01*
X18006233Y11870809D01*
X18155235Y11789908D01*
X18190189Y11780738D01*
X18313464Y11748397D01*
X18313468Y11748396D01*
X18319233Y11746884D01*
X18325194Y11746790D01*
X18325197Y11746790D01*
X18403965Y11745553D01*
X18488760Y11744221D01*
X18494575Y11745553D01*
X18494577Y11745553D01*
X18648206Y11780738D01*
X18648209Y11780739D01*
X18654029Y11782072D01*
X18659358Y11784752D01*
X18659363Y11784754D01*
X18699505Y11804944D01*
X18743988Y11815500D01*
X18967293Y11815500D01*
X19025484Y11796593D01*
X19046149Y11776356D01*
X19068520Y11746884D01*
X19096078Y11710578D01*
X19101457Y11706495D01*
X19210840Y11623468D01*
X19210842Y11623467D01*
X19216217Y11619387D01*
X19356453Y11563864D01*
X19446228Y11553000D01*
X20431772Y11553000D01*
X20521547Y11563864D01*
X20661783Y11619387D01*
X20667158Y11623467D01*
X20667160Y11623468D01*
X20776543Y11706495D01*
X20781922Y11710578D01*
X20809480Y11746884D01*
X20869032Y11825340D01*
X20869033Y11825342D01*
X20873113Y11830717D01*
X20928636Y11970953D01*
X20939500Y12060728D01*
X20939500Y12671272D01*
X20928636Y12761047D01*
X20873113Y12901283D01*
X20868201Y12907755D01*
X20786005Y13016043D01*
X20781922Y13021422D01*
X20767507Y13032364D01*
X20667160Y13108532D01*
X20667158Y13108533D01*
X20661783Y13112613D01*
X20521547Y13168136D01*
X20431772Y13179000D01*
X19446228Y13179000D01*
X19356453Y13168136D01*
X19216217Y13112613D01*
X19210842Y13108533D01*
X19210840Y13108532D01*
X19110493Y13032364D01*
X19096078Y13021422D01*
X19091995Y13016043D01*
X19050347Y12961174D01*
X19000105Y12926255D01*
X18938933Y12927537D01*
X18905633Y12947113D01*
X18875560Y12973907D01*
X18817721Y13025440D01*
X18667881Y13104776D01*
X18585661Y13125429D01*
X18509231Y13144627D01*
X18509228Y13144627D01*
X18503441Y13146081D01*
X18417841Y13146529D01*
X18339861Y13146938D01*
X18339859Y13146938D01*
X18333895Y13146969D01*
X18328099Y13145577D01*
X18328095Y13145577D01*
X18220703Y13119793D01*
X18169032Y13107388D01*
X18093701Y13068507D01*
X18023675Y13032364D01*
X18023673Y13032362D01*
X18018369Y13029625D01*
X17932824Y12955000D01*
X17905830Y12931451D01*
X17890604Y12918169D01*
X17887173Y12913287D01*
X17887172Y12913286D01*
X17829199Y12830799D01*
X17793113Y12779453D01*
X17790945Y12773892D01*
X17750935Y12671272D01*
X17731524Y12621487D01*
X17709394Y12453389D01*
X554000Y12453389D01*
X554000Y17220728D01*
X17541500Y17220728D01*
X17552364Y17130953D01*
X17607887Y16990717D01*
X17699078Y16870578D01*
X17704457Y16866495D01*
X17813840Y16783468D01*
X17813842Y16783467D01*
X17819217Y16779387D01*
X17959453Y16723864D01*
X18049228Y16713000D01*
X19034772Y16713000D01*
X19124547Y16723864D01*
X19264783Y16779387D01*
X19270158Y16783467D01*
X19270160Y16783468D01*
X19379543Y16866495D01*
X19384922Y16870578D01*
X19476113Y16990717D01*
X19531636Y17130953D01*
X19542500Y17220728D01*
X19542500Y17831272D01*
X19531636Y17921047D01*
X19476113Y18061283D01*
X19384922Y18181422D01*
X19297997Y18247402D01*
X19270160Y18268532D01*
X19270158Y18268533D01*
X19264783Y18272613D01*
X19166449Y18311546D01*
X19119305Y18350547D01*
X19104088Y18409810D01*
X19104881Y18417543D01*
X19120034Y18524015D01*
X19120034Y18524021D01*
X19120490Y18527222D01*
X19120645Y18542000D01*
X19108016Y18646362D01*
X19119796Y18706402D01*
X19169854Y18750302D01*
X19264783Y18787887D01*
X19270158Y18791967D01*
X19270160Y18791968D01*
X19379543Y18874995D01*
X19384922Y18879078D01*
X19434850Y18944856D01*
X19485094Y18979775D01*
X19513707Y18984000D01*
X19703500Y18984000D01*
X19761691Y18965093D01*
X19797655Y18915593D01*
X19802500Y18885000D01*
X19802500Y18691228D01*
X19813364Y18601453D01*
X19868887Y18461217D01*
X19872967Y18455842D01*
X19872968Y18455840D01*
X19955995Y18346457D01*
X19960078Y18341078D01*
X19965457Y18336995D01*
X20074840Y18253968D01*
X20074842Y18253967D01*
X20080217Y18249887D01*
X20220453Y18194364D01*
X20310228Y18183500D01*
X21270389Y18183500D01*
X21328580Y18164593D01*
X21340393Y18154504D01*
X21560881Y17934016D01*
X21568622Y17925304D01*
X21590628Y17897390D01*
X21596715Y17893183D01*
X21639241Y17863792D01*
X21641772Y17861983D01*
X21683361Y17831264D01*
X21683363Y17831263D01*
X21689316Y17826866D01*
X21696132Y17824473D01*
X21702069Y17820369D01*
X21709128Y17818136D01*
X21709129Y17818136D01*
X21729473Y17811702D01*
X21758429Y17802544D01*
X21761314Y17801582D01*
X21817131Y17781981D01*
X21823173Y17781744D01*
X21825847Y17781223D01*
X21831230Y17779520D01*
X21837837Y17779000D01*
X21891041Y17779000D01*
X21894928Y17778924D01*
X21945103Y17776952D01*
X21945106Y17776952D01*
X21952494Y17776662D01*
X21959272Y17778459D01*
X21969097Y17779000D01*
X22555501Y17779000D01*
X22613692Y17760093D01*
X22649656Y17710593D01*
X22654501Y17680000D01*
X22654501Y17560482D01*
X22669354Y17466696D01*
X22726950Y17353658D01*
X22816658Y17263950D01*
X22823595Y17260415D01*
X22823597Y17260414D01*
X22922756Y17209890D01*
X22929696Y17206354D01*
X22937390Y17205135D01*
X22937391Y17205135D01*
X23019635Y17192109D01*
X23019637Y17192109D01*
X23023481Y17191500D01*
X23154966Y17191500D01*
X23286518Y17191501D01*
X23290361Y17192110D01*
X23290366Y17192110D01*
X23327217Y17197947D01*
X23380304Y17206354D01*
X23453839Y17243822D01*
X23486403Y17260414D01*
X23486405Y17260415D01*
X23493342Y17263950D01*
X23583050Y17353658D01*
X23640646Y17466696D01*
X23655500Y17560481D01*
X23655499Y18898518D01*
X23640646Y18992304D01*
X23596360Y19079220D01*
X23586586Y19098403D01*
X23586585Y19098405D01*
X23583050Y19105342D01*
X23493342Y19195050D01*
X23486405Y19198585D01*
X23486403Y19198586D01*
X23387244Y19249110D01*
X23387243Y19249110D01*
X23380304Y19252646D01*
X23372610Y19253865D01*
X23372609Y19253865D01*
X23290365Y19266891D01*
X23290363Y19266891D01*
X23286519Y19267500D01*
X23155034Y19267500D01*
X23023482Y19267499D01*
X23019639Y19266890D01*
X23019634Y19266890D01*
X22982783Y19261053D01*
X22929696Y19252646D01*
X22889600Y19232216D01*
X22823597Y19198586D01*
X22823595Y19198585D01*
X22816658Y19195050D01*
X22726950Y19105342D01*
X22723415Y19098405D01*
X22723414Y19098403D01*
X22713640Y19079220D01*
X22669354Y18992304D01*
X22668135Y18984610D01*
X22668135Y18984609D01*
X22666576Y18974763D01*
X22654500Y18898519D01*
X22654500Y18779000D01*
X22635593Y18720809D01*
X22586093Y18684845D01*
X22555500Y18680000D01*
X22130111Y18680000D01*
X22071920Y18698907D01*
X22060107Y18708996D01*
X21882496Y18886607D01*
X21854719Y18941124D01*
X21853500Y18956611D01*
X21853500Y19276772D01*
X21842636Y19366547D01*
X21787113Y19506783D01*
X21758008Y19545128D01*
X21700005Y19621543D01*
X21695922Y19626922D01*
X21605858Y19695285D01*
X21581160Y19714032D01*
X21581158Y19714033D01*
X21575783Y19718113D01*
X21435547Y19773636D01*
X21345772Y19784500D01*
X20847032Y19784500D01*
X20788841Y19803407D01*
X20777028Y19813496D01*
X20676975Y19913549D01*
X20674105Y19916542D01*
X20636269Y19957688D01*
X20631701Y19962656D01*
X20593634Y19986258D01*
X20585949Y19991541D01*
X20555666Y20014527D01*
X20555661Y20014530D01*
X20550283Y20018612D01*
X20534066Y20025033D01*
X20518345Y20032940D01*
X20509252Y20038578D01*
X20509247Y20038580D01*
X20503514Y20042135D01*
X20460510Y20054629D01*
X20451687Y20057650D01*
X20416326Y20071651D01*
X20416319Y20071653D01*
X20410047Y20074136D01*
X20392694Y20075960D01*
X20375432Y20079347D01*
X20358675Y20084215D01*
X20353502Y20084595D01*
X20353501Y20084595D01*
X20349786Y20084868D01*
X20349779Y20084868D01*
X20347985Y20085000D01*
X20311869Y20085000D01*
X20301521Y20085542D01*
X20266755Y20089196D01*
X20266754Y20089196D01*
X20260046Y20089901D01*
X20239264Y20086386D01*
X20222754Y20085000D01*
X19513707Y20085000D01*
X19455516Y20103907D01*
X19434851Y20124144D01*
X19389005Y20184543D01*
X19384922Y20189922D01*
X19379543Y20194005D01*
X19270160Y20277032D01*
X19270158Y20277033D01*
X19264783Y20281113D01*
X19124547Y20336636D01*
X19034772Y20347500D01*
X18049228Y20347500D01*
X17959453Y20336636D01*
X17819217Y20281113D01*
X17813842Y20277033D01*
X17813840Y20277032D01*
X17704457Y20194005D01*
X17699078Y20189922D01*
X17694995Y20184543D01*
X17612576Y20075960D01*
X17607887Y20069783D01*
X17552364Y19929547D01*
X17541500Y19839772D01*
X17541500Y19229228D01*
X17552364Y19139453D01*
X17607887Y18999217D01*
X17611967Y18993842D01*
X17611968Y18993840D01*
X17633789Y18965093D01*
X17699078Y18879078D01*
X17712634Y18868788D01*
X17713201Y18868358D01*
X17748119Y18818115D01*
X17745581Y18753541D01*
X17731524Y18717487D01*
X17730745Y18711572D01*
X17730745Y18711571D01*
X17727227Y18684845D01*
X17709394Y18549389D01*
X17710049Y18543456D01*
X17710049Y18543452D01*
X17724803Y18409810D01*
X17727999Y18380865D01*
X17730048Y18375265D01*
X17730050Y18375258D01*
X17753702Y18310627D01*
X17755944Y18249483D01*
X17720587Y18197749D01*
X17704460Y18185508D01*
X17704457Y18185505D01*
X17699078Y18181422D01*
X17607887Y18061283D01*
X17552364Y17921047D01*
X17541500Y17831272D01*
X17541500Y17220728D01*
X554000Y17220728D01*
X554000Y20783354D01*
X3208500Y20783354D01*
X3211618Y20757154D01*
X3257061Y20654847D01*
X3336287Y20575759D01*
X3344645Y20572064D01*
X3431864Y20533504D01*
X3431866Y20533504D01*
X3438673Y20530494D01*
X3446067Y20529632D01*
X3461378Y20527847D01*
X3464354Y20527500D01*
X7363646Y20527500D01*
X7381561Y20529632D01*
X7382469Y20529740D01*
X7382470Y20529740D01*
X7389846Y20530618D01*
X7479129Y20570276D01*
X7519317Y20578800D01*
X8308501Y20578800D01*
X8348530Y20570346D01*
X8438673Y20530494D01*
X8446067Y20529632D01*
X8461378Y20527847D01*
X8464354Y20527500D01*
X12363646Y20527500D01*
X12381561Y20529632D01*
X12382469Y20529740D01*
X12382470Y20529740D01*
X12389846Y20530618D01*
X12479129Y20570276D01*
X12519317Y20578800D01*
X13714610Y20578800D01*
X13715911Y20578870D01*
X13715922Y20578870D01*
X13745357Y20580447D01*
X13745375Y20580448D01*
X13746673Y20580518D01*
X13747965Y20580657D01*
X13747979Y20580658D01*
X13762540Y20582224D01*
X13773456Y20583397D01*
X13778097Y20584850D01*
X13778101Y20584851D01*
X13825971Y20599840D01*
X13885171Y20618377D01*
X13889438Y20620707D01*
X13944385Y20650711D01*
X13944388Y20650713D01*
X13947483Y20652403D01*
X14015837Y20703573D01*
X14552448Y21240184D01*
X14606965Y21267961D01*
X14622452Y21269180D01*
X15742048Y21269180D01*
X15800239Y21250273D01*
X15812052Y21240184D01*
X16071784Y20980452D01*
X16074654Y20977459D01*
X16117059Y20931344D01*
X16140783Y20916635D01*
X16155124Y20907743D01*
X16162811Y20902459D01*
X16193094Y20879473D01*
X16193099Y20879470D01*
X16198477Y20875388D01*
X16214694Y20868967D01*
X16230415Y20861060D01*
X16239508Y20855422D01*
X16239513Y20855420D01*
X16245246Y20851865D01*
X16251724Y20849983D01*
X16288248Y20839372D01*
X16297073Y20836350D01*
X16332434Y20822349D01*
X16332441Y20822347D01*
X16338713Y20819864D01*
X16356066Y20818040D01*
X16373328Y20814653D01*
X16390085Y20809785D01*
X16395258Y20809405D01*
X16395259Y20809405D01*
X16398974Y20809132D01*
X16398981Y20809132D01*
X16400775Y20809000D01*
X16436891Y20809000D01*
X16447239Y20808458D01*
X16482005Y20804804D01*
X16482006Y20804804D01*
X16488714Y20804099D01*
X16509497Y20807614D01*
X16526006Y20809000D01*
X17570293Y20809000D01*
X17628484Y20790093D01*
X17649149Y20769856D01*
X17663944Y20750365D01*
X17699078Y20704078D01*
X17704457Y20699995D01*
X17813840Y20616968D01*
X17813842Y20616967D01*
X17819217Y20612887D01*
X17959453Y20557364D01*
X18049228Y20546500D01*
X19034772Y20546500D01*
X19124547Y20557364D01*
X19264783Y20612887D01*
X19270158Y20616967D01*
X19270160Y20616968D01*
X19379543Y20699995D01*
X19384922Y20704078D01*
X19447320Y20786284D01*
X19472032Y20818840D01*
X19472033Y20818842D01*
X19476113Y20824217D01*
X19531636Y20964453D01*
X19542500Y21054228D01*
X19542500Y21664772D01*
X19531636Y21754547D01*
X19476113Y21894783D01*
X19450212Y21928907D01*
X19389005Y22009543D01*
X19384922Y22014922D01*
X19346470Y22044109D01*
X19270160Y22102032D01*
X19270158Y22102033D01*
X19264783Y22106113D01*
X19124547Y22161636D01*
X19034772Y22172500D01*
X18049228Y22172500D01*
X17959453Y22161636D01*
X17819217Y22106113D01*
X17813842Y22102033D01*
X17813840Y22102032D01*
X17737530Y22044109D01*
X17699078Y22014922D01*
X17694995Y22009543D01*
X17649149Y21949144D01*
X17598906Y21914225D01*
X17570293Y21910000D01*
X16740293Y21910000D01*
X16682102Y21928907D01*
X16670289Y21938996D01*
X16565176Y22044109D01*
X16537399Y22098626D01*
X16536180Y22114113D01*
X16536180Y24164486D01*
X16533062Y24190686D01*
X16487619Y24292993D01*
X16481151Y24299449D01*
X16475973Y24306984D01*
X16477795Y24308236D01*
X16455632Y24351643D01*
X16454400Y24367212D01*
X16454400Y27278210D01*
X16452682Y27310273D01*
X16449803Y27337056D01*
X16414823Y27448771D01*
X16399602Y27476646D01*
X16382489Y27507985D01*
X16382487Y27507988D01*
X16380797Y27511083D01*
X16329627Y27579437D01*
X14191710Y29717354D01*
X20344500Y29717354D01*
X20347618Y29691154D01*
X20379372Y29619666D01*
X20392476Y29590164D01*
X20401000Y29549976D01*
X20401000Y21898049D01*
X20406150Y21842700D01*
X20412890Y21806795D01*
X20422566Y21769000D01*
X20425535Y21763572D01*
X20425536Y21763569D01*
X20447971Y21722552D01*
X20475471Y21672273D01*
X20514195Y21624902D01*
X20517101Y21622310D01*
X20581334Y21565008D01*
X20581339Y21565004D01*
X20584237Y21562419D01*
X23911536Y19423441D01*
X23950260Y19376070D01*
X23957000Y19340165D01*
X23957000Y19082106D01*
X23965290Y19012068D01*
X23965973Y19009222D01*
X23966252Y19007662D01*
X23966576Y18974764D01*
X23954500Y18898519D01*
X23954501Y17560482D01*
X23969354Y17466696D01*
X24026950Y17353658D01*
X24116658Y17263950D01*
X24123595Y17260415D01*
X24123597Y17260414D01*
X24222756Y17209890D01*
X24229696Y17206354D01*
X24237390Y17205135D01*
X24237391Y17205135D01*
X24319635Y17192109D01*
X24319637Y17192109D01*
X24323481Y17191500D01*
X24454966Y17191500D01*
X24586518Y17191501D01*
X24590361Y17192110D01*
X24590366Y17192110D01*
X24627217Y17197947D01*
X24680304Y17206354D01*
X24735054Y17234251D01*
X24795487Y17243822D01*
X24824945Y17234251D01*
X24872756Y17209890D01*
X24879696Y17206354D01*
X24887390Y17205135D01*
X24887391Y17205135D01*
X24969635Y17192109D01*
X24969637Y17192109D01*
X24973481Y17191500D01*
X25104966Y17191500D01*
X25236518Y17191501D01*
X25240361Y17192110D01*
X25240366Y17192110D01*
X25277217Y17197947D01*
X25330304Y17206354D01*
X25403839Y17243822D01*
X25436403Y17260414D01*
X25436405Y17260415D01*
X25443342Y17263950D01*
X25503396Y17324004D01*
X25557913Y17351781D01*
X25573400Y17353000D01*
X31598846Y17353000D01*
X31657037Y17334093D01*
X31664441Y17328151D01*
X32186314Y16866495D01*
X32198415Y16855790D01*
X32229472Y16803073D01*
X32231820Y16781639D01*
X32231820Y14413034D01*
X32234938Y14386834D01*
X32280381Y14284527D01*
X32359607Y14205439D01*
X32367965Y14201744D01*
X32455184Y14163184D01*
X32455186Y14163184D01*
X32461993Y14160174D01*
X32469387Y14159312D01*
X32484698Y14157527D01*
X32487674Y14157180D01*
X35076326Y14157180D01*
X35094241Y14159312D01*
X35095149Y14159420D01*
X35095150Y14159420D01*
X35102526Y14160298D01*
X35204833Y14205741D01*
X35283921Y14284967D01*
X35329186Y14387353D01*
X35332180Y14413034D01*
X35332180Y14827556D01*
X35335953Y14851385D01*
X35335207Y14851564D01*
X35336117Y14855353D01*
X35337318Y14859051D01*
X35352000Y14951754D01*
X35352000Y19262992D01*
X35351075Y19286533D01*
X35349856Y19302020D01*
X35318085Y19414673D01*
X35290308Y19469190D01*
X35235136Y19545128D01*
X35139496Y19640768D01*
X35111719Y19695285D01*
X35110500Y19710772D01*
X35110500Y20883646D01*
X35107382Y20909846D01*
X35061939Y21012153D01*
X34982713Y21091241D01*
X34953591Y21104116D01*
X34887136Y21133496D01*
X34887134Y21133496D01*
X34880327Y21136506D01*
X34854646Y21139500D01*
X33681772Y21139500D01*
X33623581Y21158407D01*
X33611768Y21168496D01*
X31864128Y22916136D01*
X31863422Y22916789D01*
X31863406Y22916804D01*
X31847549Y22931462D01*
X31847535Y22931474D01*
X31846828Y22932128D01*
X31846079Y22932768D01*
X31838719Y22939054D01*
X31838716Y22939056D01*
X31835015Y22942217D01*
X31732886Y22999411D01*
X31674695Y23018318D01*
X31670851Y23018927D01*
X31670846Y23018928D01*
X31585840Y23032391D01*
X31585835Y23032391D01*
X31581992Y23033000D01*
X28414500Y23033000D01*
X28356309Y23051907D01*
X28320345Y23101407D01*
X28315500Y23132000D01*
X28315500Y23931646D01*
X28312382Y23957846D01*
X28266939Y24060153D01*
X28243051Y24084000D01*
X28210822Y24116172D01*
X28187713Y24139241D01*
X28117358Y24170345D01*
X28092136Y24181496D01*
X28092134Y24181496D01*
X28085327Y24184506D01*
X28071322Y24186139D01*
X28062494Y24187168D01*
X28062493Y24187168D01*
X28059646Y24187500D01*
X25470354Y24187500D01*
X25453951Y24185548D01*
X25451531Y24185260D01*
X25451530Y24185260D01*
X25444154Y24184382D01*
X25341847Y24138939D01*
X25335390Y24132471D01*
X25335389Y24132470D01*
X25320534Y24117589D01*
X25262759Y24059713D01*
X25259064Y24051355D01*
X25227062Y23978968D01*
X25217494Y23957327D01*
X25214500Y23931646D01*
X25214500Y22250772D01*
X25195593Y22192581D01*
X25185504Y22180768D01*
X24835004Y21830268D01*
X24780487Y21802491D01*
X24720055Y21812062D01*
X24694996Y21830268D01*
X24344496Y22180768D01*
X24316719Y22235285D01*
X24315500Y22250772D01*
X24315500Y23931646D01*
X24312382Y23957846D01*
X24309367Y23964635D01*
X24307398Y23971797D01*
X24308887Y23972206D01*
X24303000Y23999966D01*
X24303000Y24483000D01*
X29164000Y24483000D01*
X29167693Y24436074D01*
X29172538Y24405481D01*
X29178830Y24375654D01*
X29181334Y24370384D01*
X29181334Y24370383D01*
X29208851Y24312462D01*
X29226140Y24276071D01*
X29262104Y24226571D01*
X29264302Y24224248D01*
X29304871Y24181366D01*
X29315297Y24170345D01*
X29331425Y24161556D01*
X29408088Y24119778D01*
X29408093Y24119776D01*
X29412106Y24117589D01*
X29416454Y24116176D01*
X29416464Y24116172D01*
X29432644Y24110915D01*
X29450157Y24103228D01*
X29455217Y24099387D01*
X29595453Y24043864D01*
X29685228Y24033000D01*
X31020772Y24033000D01*
X31110547Y24043864D01*
X31194361Y24077048D01*
X31230805Y24084000D01*
X32851992Y24084000D01*
X32852922Y24084037D01*
X32852946Y24084037D01*
X32866508Y24084570D01*
X32875533Y24084925D01*
X32881124Y24085365D01*
X32886171Y24085762D01*
X32886174Y24085763D01*
X32891020Y24086144D01*
X33003673Y24117915D01*
X33058190Y24145692D01*
X33099915Y24176007D01*
X33130989Y24198583D01*
X33130992Y24198586D01*
X33134128Y24200864D01*
X34511768Y25578504D01*
X34566285Y25606281D01*
X34581772Y25607500D01*
X35985646Y25607500D01*
X35988442Y25607833D01*
X35994075Y25608000D01*
X36903747Y25608000D01*
X36909488Y25607833D01*
X36909507Y25607832D01*
X36912354Y25607500D01*
X38525646Y25607500D01*
X38542049Y25609452D01*
X38544469Y25609740D01*
X38544470Y25609740D01*
X38551846Y25610618D01*
X38654153Y25656061D01*
X38733241Y25735287D01*
X38778506Y25837673D01*
X38781500Y25863354D01*
X38781500Y27476646D01*
X38778382Y27502846D01*
X38732939Y27605153D01*
X38653713Y27684241D01*
X38624591Y27697116D01*
X38558136Y27726496D01*
X38558134Y27726496D01*
X38551327Y27729506D01*
X38529935Y27732000D01*
X38528494Y27732168D01*
X38528493Y27732168D01*
X38525646Y27732500D01*
X36912354Y27732500D01*
X36909558Y27732167D01*
X36903925Y27732000D01*
X35994253Y27732000D01*
X35988512Y27732167D01*
X35988493Y27732168D01*
X35985646Y27732500D01*
X34581772Y27732500D01*
X34523581Y27751407D01*
X34511768Y27761496D01*
X33100576Y29172688D01*
X33072799Y29227205D01*
X33071580Y29242692D01*
X33071580Y30377326D01*
X33068462Y30403526D01*
X33023019Y30505833D01*
X32943793Y30584921D01*
X32914671Y30597796D01*
X32848216Y30627176D01*
X32848214Y30627176D01*
X32841407Y30630186D01*
X32827402Y30631819D01*
X32818574Y30632848D01*
X32818573Y30632848D01*
X32815726Y30633180D01*
X30176274Y30633180D01*
X30159871Y30631228D01*
X30157451Y30630940D01*
X30157450Y30630940D01*
X30150074Y30630062D01*
X30047767Y30584619D01*
X29968679Y30505393D01*
X29923414Y30403007D01*
X29920420Y30377326D01*
X29920420Y29736000D01*
X29901513Y29677809D01*
X29852013Y29641845D01*
X29821420Y29637000D01*
X29563000Y29637000D01*
X29516074Y29633307D01*
X29485481Y29628462D01*
X29484237Y29628200D01*
X29484223Y29628197D01*
X29468092Y29624794D01*
X29455654Y29622170D01*
X29356071Y29574860D01*
X29306571Y29538896D01*
X29250345Y29485703D01*
X29246616Y29478860D01*
X29199778Y29392912D01*
X29199776Y29392907D01*
X29197589Y29388894D01*
X29178682Y29330703D01*
X29164000Y29238000D01*
X29164000Y24483000D01*
X24303000Y24483000D01*
X24303000Y34629992D01*
X24302075Y34653533D01*
X24300856Y34669020D01*
X24269085Y34781673D01*
X24241308Y34836190D01*
X24186136Y34912128D01*
X23974496Y35123768D01*
X23946719Y35178285D01*
X23945500Y35193772D01*
X23945500Y35306646D01*
X23942382Y35332846D01*
X23896939Y35435153D01*
X23883905Y35448165D01*
X23824179Y35507786D01*
X23817713Y35514241D01*
X23788591Y35527116D01*
X23722136Y35556496D01*
X23722134Y35556496D01*
X23715327Y35559506D01*
X23697803Y35561549D01*
X23692494Y35562168D01*
X23692493Y35562168D01*
X23689646Y35562500D01*
X20600354Y35562500D01*
X20583951Y35560548D01*
X20581531Y35560260D01*
X20581530Y35560260D01*
X20574154Y35559382D01*
X20471847Y35513939D01*
X20392759Y35434713D01*
X20347494Y35332327D01*
X20344500Y35306646D01*
X20344500Y29717354D01*
X14191710Y29717354D01*
X13974496Y29934568D01*
X13946719Y29989085D01*
X13945500Y30004572D01*
X13945500Y35306646D01*
X13942382Y35332846D01*
X13896939Y35435153D01*
X13883905Y35448165D01*
X13824179Y35507786D01*
X13817713Y35514241D01*
X13788591Y35527116D01*
X13722136Y35556496D01*
X13722134Y35556496D01*
X13715327Y35559506D01*
X13697803Y35561549D01*
X13692494Y35562168D01*
X13692493Y35562168D01*
X13689646Y35562500D01*
X10600354Y35562500D01*
X10583951Y35560548D01*
X10581531Y35560260D01*
X10581530Y35560260D01*
X10574154Y35559382D01*
X10471847Y35513939D01*
X10392759Y35434713D01*
X10347494Y35332327D01*
X10344500Y35306646D01*
X10344500Y30269400D01*
X10325593Y30211209D01*
X10276093Y30175245D01*
X10245500Y30170400D01*
X8586590Y30170400D01*
X8585289Y30170330D01*
X8585278Y30170330D01*
X8555843Y30168753D01*
X8555825Y30168752D01*
X8554527Y30168682D01*
X8553235Y30168543D01*
X8553221Y30168542D01*
X8538660Y30166976D01*
X8527744Y30165803D01*
X8523103Y30164350D01*
X8523099Y30164349D01*
X8475229Y30149360D01*
X8416029Y30130823D01*
X8411762Y30128493D01*
X8356815Y30098489D01*
X8356812Y30098487D01*
X8353717Y30096797D01*
X8285363Y30045627D01*
X3380773Y25141037D01*
X3359318Y25117153D01*
X3342415Y25096179D01*
X3288154Y24992450D01*
X3268152Y24924329D01*
X3256000Y24839810D01*
X3256000Y24829905D01*
X3247546Y24789875D01*
X3214504Y24715136D01*
X3211494Y24708327D01*
X3208500Y24682646D01*
X3208500Y20783354D01*
X554000Y20783354D01*
X554000Y35615923D01*
X1075065Y35615923D01*
X1088722Y35224843D01*
X1140477Y34836962D01*
X1229834Y34455983D01*
X1355943Y34085542D01*
X1356940Y34083345D01*
X1356942Y34083339D01*
X1426097Y33930888D01*
X1517598Y33729174D01*
X1713258Y33390283D01*
X1714661Y33388323D01*
X1714667Y33388314D01*
X1939639Y33074076D01*
X1941053Y33072101D01*
X2198810Y32777667D01*
X2200570Y32776014D01*
X2200577Y32776007D01*
X2322822Y32661212D01*
X2484069Y32509792D01*
X2794107Y32271031D01*
X2796159Y32269749D01*
X3123915Y32064943D01*
X3123920Y32064940D01*
X3125964Y32063663D01*
X3128128Y32062589D01*
X3128133Y32062586D01*
X3474306Y31890744D01*
X3476472Y31889669D01*
X3842287Y31750710D01*
X4219915Y31648110D01*
X4605754Y31582850D01*
X4608162Y31582682D01*
X4608167Y31582681D01*
X4993714Y31555721D01*
X4993718Y31555721D01*
X4996119Y31555553D01*
X4998525Y31555620D01*
X4998535Y31555620D01*
X5384863Y31566412D01*
X5384870Y31566413D01*
X5387285Y31566480D01*
X5775517Y31615525D01*
X5777870Y31616060D01*
X5777878Y31616061D01*
X6154762Y31701687D01*
X6154768Y31701689D01*
X6157111Y31702221D01*
X6528424Y31825740D01*
X6885911Y31984904D01*
X7226160Y32178192D01*
X7357768Y32271031D01*
X7543949Y32402368D01*
X7545924Y32403761D01*
X7547743Y32405331D01*
X7547748Y32405335D01*
X7840321Y32657877D01*
X7840324Y32657880D01*
X7842150Y32659456D01*
X7843815Y32661204D01*
X7843823Y32661212D01*
X7977081Y32801147D01*
X8112011Y32942838D01*
X8352931Y33251201D01*
X8354225Y33253241D01*
X8354232Y33253250D01*
X8561310Y33579553D01*
X8561313Y33579558D01*
X8562610Y33581602D01*
X8739046Y33930888D01*
X8880557Y34295723D01*
X8985790Y34672626D01*
X9027468Y34908989D01*
X9053321Y35055611D01*
X9053322Y35055616D01*
X9053742Y35058000D01*
X9083763Y35448165D01*
X9085325Y35560000D01*
X9082590Y35615923D01*
X31555065Y35615923D01*
X31568722Y35224843D01*
X31620477Y34836962D01*
X31709834Y34455983D01*
X31835943Y34085542D01*
X31836940Y34083345D01*
X31836942Y34083339D01*
X31906097Y33930888D01*
X31997598Y33729174D01*
X32193258Y33390283D01*
X32194661Y33388323D01*
X32194667Y33388314D01*
X32419639Y33074076D01*
X32421053Y33072101D01*
X32678810Y32777667D01*
X32680570Y32776014D01*
X32680577Y32776007D01*
X32802822Y32661212D01*
X32964069Y32509792D01*
X33274107Y32271031D01*
X33276159Y32269749D01*
X33603915Y32064943D01*
X33603920Y32064940D01*
X33605964Y32063663D01*
X33608128Y32062589D01*
X33608133Y32062586D01*
X33954306Y31890744D01*
X33956472Y31889669D01*
X34322287Y31750710D01*
X34699915Y31648110D01*
X35085754Y31582850D01*
X35088162Y31582682D01*
X35088167Y31582681D01*
X35473714Y31555721D01*
X35473718Y31555721D01*
X35476119Y31555553D01*
X35478525Y31555620D01*
X35478535Y31555620D01*
X35864863Y31566412D01*
X35864870Y31566413D01*
X35867285Y31566480D01*
X36255517Y31615525D01*
X36257870Y31616060D01*
X36257878Y31616061D01*
X36634762Y31701687D01*
X36634768Y31701689D01*
X36637111Y31702221D01*
X37008424Y31825740D01*
X37365911Y31984904D01*
X37706160Y32178192D01*
X37837768Y32271031D01*
X38023949Y32402368D01*
X38025924Y32403761D01*
X38027743Y32405331D01*
X38027748Y32405335D01*
X38320321Y32657877D01*
X38320324Y32657880D01*
X38322150Y32659456D01*
X38323815Y32661204D01*
X38323823Y32661212D01*
X38457081Y32801147D01*
X38592011Y32942838D01*
X38832931Y33251201D01*
X38834225Y33253241D01*
X38834232Y33253250D01*
X39041310Y33579553D01*
X39041313Y33579558D01*
X39042610Y33581602D01*
X39219046Y33930888D01*
X39360557Y34295723D01*
X39465790Y34672626D01*
X39507468Y34908989D01*
X39533321Y35055611D01*
X39533322Y35055616D01*
X39533742Y35058000D01*
X39563763Y35448165D01*
X39565325Y35560000D01*
X39546209Y35950851D01*
X39489044Y36337972D01*
X39394376Y36717666D01*
X39263107Y37086311D01*
X39262081Y37088492D01*
X39262077Y37088501D01*
X39184086Y37254239D01*
X39096492Y37440386D01*
X38896120Y37776513D01*
X38894692Y37778449D01*
X38894686Y37778459D01*
X38665333Y38089546D01*
X38663905Y38091483D01*
X38662299Y38093267D01*
X38662293Y38093274D01*
X38403679Y38380492D01*
X38402061Y38382289D01*
X38357144Y38423304D01*
X38114878Y38644524D01*
X38114870Y38644530D01*
X38113090Y38646156D01*
X37955342Y38764167D01*
X37801696Y38879109D01*
X37801689Y38879114D01*
X37799749Y38880565D01*
X37465030Y39083278D01*
X37462858Y39084318D01*
X37462850Y39084323D01*
X37114310Y39251316D01*
X37114303Y39251319D01*
X37112126Y39252362D01*
X36744407Y39386200D01*
X36742081Y39386797D01*
X36742072Y39386800D01*
X36367711Y39482919D01*
X36365382Y39483517D01*
X36208149Y39507858D01*
X35981057Y39543014D01*
X35981046Y39543015D01*
X35978670Y39543383D01*
X35976261Y39543518D01*
X35976258Y39543518D01*
X35590381Y39565092D01*
X35590376Y39565092D01*
X35587962Y39565227D01*
X35196987Y39548841D01*
X34809477Y39494380D01*
X34701460Y39468248D01*
X34431485Y39402934D01*
X34431475Y39402931D01*
X34429131Y39402364D01*
X34380348Y39385376D01*
X34061858Y39274467D01*
X34061851Y39274464D01*
X34059579Y39273673D01*
X33704349Y39109533D01*
X33500778Y38990099D01*
X33368915Y38912736D01*
X33368910Y38912733D01*
X33366831Y38911513D01*
X33364887Y38910100D01*
X33364880Y38910096D01*
X33113078Y38727151D01*
X33050248Y38681502D01*
X32757621Y38421695D01*
X32755980Y38419923D01*
X32755973Y38419916D01*
X32631995Y38286031D01*
X32491743Y38134573D01*
X32490280Y38132645D01*
X32490272Y38132636D01*
X32302953Y37885851D01*
X32255152Y37822876D01*
X32050107Y37489580D01*
X32049055Y37487423D01*
X32049050Y37487414D01*
X32026113Y37440386D01*
X31878564Y37137865D01*
X31742162Y36771090D01*
X31642201Y36392754D01*
X31579637Y36006469D01*
X31555065Y35615923D01*
X9082590Y35615923D01*
X9066209Y35950851D01*
X9009044Y36337972D01*
X8914376Y36717666D01*
X8783107Y37086311D01*
X8782081Y37088492D01*
X8782077Y37088501D01*
X8704086Y37254239D01*
X8616492Y37440386D01*
X8416120Y37776513D01*
X8414692Y37778449D01*
X8414686Y37778459D01*
X8185333Y38089546D01*
X8183905Y38091483D01*
X8182299Y38093267D01*
X8182293Y38093274D01*
X7923679Y38380492D01*
X7922061Y38382289D01*
X7877144Y38423304D01*
X7634878Y38644524D01*
X7634870Y38644530D01*
X7633090Y38646156D01*
X7475342Y38764167D01*
X7321696Y38879109D01*
X7321689Y38879114D01*
X7319749Y38880565D01*
X6985030Y39083278D01*
X6982858Y39084318D01*
X6982850Y39084323D01*
X6634310Y39251316D01*
X6634303Y39251319D01*
X6632126Y39252362D01*
X6264407Y39386200D01*
X6262081Y39386797D01*
X6262072Y39386800D01*
X5887711Y39482919D01*
X5885382Y39483517D01*
X5728149Y39507858D01*
X5501057Y39543014D01*
X5501046Y39543015D01*
X5498670Y39543383D01*
X5496261Y39543518D01*
X5496258Y39543518D01*
X5110381Y39565092D01*
X5110376Y39565092D01*
X5107962Y39565227D01*
X4716987Y39548841D01*
X4329477Y39494380D01*
X4221460Y39468248D01*
X3951485Y39402934D01*
X3951475Y39402931D01*
X3949131Y39402364D01*
X3900348Y39385376D01*
X3581858Y39274467D01*
X3581851Y39274464D01*
X3579579Y39273673D01*
X3224349Y39109533D01*
X3020778Y38990099D01*
X2888915Y38912736D01*
X2888910Y38912733D01*
X2886831Y38911513D01*
X2884887Y38910100D01*
X2884880Y38910096D01*
X2633078Y38727151D01*
X2570248Y38681502D01*
X2277621Y38421695D01*
X2275980Y38419923D01*
X2275973Y38419916D01*
X2151995Y38286031D01*
X2011743Y38134573D01*
X2010280Y38132645D01*
X2010272Y38132636D01*
X1822953Y37885851D01*
X1775152Y37822876D01*
X1570107Y37489580D01*
X1569055Y37487423D01*
X1569050Y37487414D01*
X1546113Y37440386D01*
X1398564Y37137865D01*
X1262162Y36771090D01*
X1162201Y36392754D01*
X1099637Y36006469D01*
X1075065Y35615923D01*
X554000Y35615923D01*
X554000Y39987000D01*
X572907Y40045191D01*
X622407Y40081155D01*
X653000Y40086000D01*
X39987000Y40086000D01*
X40045191Y40067093D01*
G37*
%TD.AperFunction*%
%TD*%
%TA.AperFunction,Conductor*%
%TO.N,Net-(C7-Pad1)*%
G36*
X32529183Y29318093D02*
G01*
X32540996Y29308004D01*
X34417000Y27432000D01*
X38382000Y27432000D01*
X38440191Y27413093D01*
X38476155Y27363593D01*
X38481000Y27333000D01*
X38481000Y26007000D01*
X38462093Y25948809D01*
X38412593Y25912845D01*
X38382000Y25908000D01*
X34417000Y25908000D01*
X32921996Y24412996D01*
X32867479Y24385219D01*
X32851992Y24384000D01*
X29563000Y24384000D01*
X29504809Y24402907D01*
X29468845Y24452407D01*
X29464000Y24483000D01*
X29464000Y29238000D01*
X29482907Y29296191D01*
X29532407Y29332155D01*
X29563000Y29337000D01*
X32470992Y29337000D01*
X32529183Y29318093D01*
G37*
%TD.AperFunction*%
%TD*%
%TA.AperFunction,Conductor*%
%TO.N,Net-(C4-Pad1)*%
G36*
X31640183Y22714093D02*
G01*
X31651996Y22704004D01*
X35023004Y19332996D01*
X35050781Y19278479D01*
X35052000Y19262992D01*
X35052000Y14951754D01*
X35033093Y14893563D01*
X34983593Y14857599D01*
X34922407Y14857599D01*
X34887405Y14877603D01*
X34869364Y14893563D01*
X31750000Y17653000D01*
X25003501Y17653000D01*
X24945310Y17671907D01*
X24909346Y17721407D01*
X24904501Y17752000D01*
X24904501Y18249887D01*
X24904500Y18867117D01*
X24905719Y18882603D01*
X24909550Y18906792D01*
X24914451Y18925574D01*
X24917908Y18934945D01*
X24918919Y18937685D01*
X24929710Y18982631D01*
X24938000Y19052667D01*
X24938000Y21421992D01*
X24937075Y21445533D01*
X24936093Y21458013D01*
X24950377Y21517508D01*
X24964784Y21535784D01*
X26133004Y22704004D01*
X26187521Y22731781D01*
X26203008Y22733000D01*
X31581992Y22733000D01*
X31640183Y22714093D01*
G37*
%TD.AperFunction*%
%TD*%
%TA.AperFunction,Conductor*%
%TO.N,/PV+*%
G36*
X12388432Y31080266D02*
G01*
X12433495Y31051305D01*
X16117495Y27367305D01*
X16151521Y27304993D01*
X16154400Y27278210D01*
X16154400Y23318590D01*
X16134398Y23250469D01*
X16117495Y23229495D01*
X13803705Y20915705D01*
X13741393Y20881679D01*
X13714610Y20878800D01*
X3682000Y20878800D01*
X3613879Y20898802D01*
X3567386Y20952458D01*
X3556000Y21004800D01*
X3556000Y24839810D01*
X3576002Y24907931D01*
X3592905Y24928905D01*
X8497495Y29833495D01*
X8559807Y29867521D01*
X8586590Y29870400D01*
X11074400Y29870400D01*
X12255305Y31051305D01*
X12317617Y31085331D01*
X12388432Y31080266D01*
G37*
%TD.AperFunction*%
%TD*%
%TA.AperFunction,Conductor*%
%TO.N,Net-(D1-Pad2)*%
G36*
X23512183Y35160093D02*
G01*
X23523996Y35150004D01*
X23974004Y34699996D01*
X24001781Y34645479D01*
X24003000Y34629992D01*
X24003000Y22098000D01*
X24609004Y21491996D01*
X24636781Y21437479D01*
X24638000Y21421992D01*
X24638000Y19052667D01*
X24627209Y19007721D01*
X24622891Y18999247D01*
X24622890Y18999243D01*
X24619354Y18992304D01*
X24604500Y18898519D01*
X24604501Y18249887D01*
X24604501Y17752000D01*
X24585594Y17693809D01*
X24536094Y17657845D01*
X24505501Y17653000D01*
X24404500Y17653000D01*
X24346309Y17671907D01*
X24310345Y17721407D01*
X24305500Y17752000D01*
X24305499Y18894624D01*
X24305499Y18898518D01*
X24290646Y18992304D01*
X24287111Y18999242D01*
X24287109Y18999248D01*
X24267791Y19037161D01*
X24257000Y19082106D01*
X24257000Y19558000D01*
X20746464Y21814773D01*
X20707740Y21862144D01*
X20701000Y21898049D01*
X20701000Y35080000D01*
X20719907Y35138191D01*
X20769407Y35174155D01*
X20800000Y35179000D01*
X23453992Y35179000D01*
X23512183Y35160093D01*
G37*
%TD.AperFunction*%
%TD*%
M02*
