%TF.GenerationSoftware,KiCad,Pcbnew,6.0.4-6f826c9f35~116~ubuntu20.04.1*%
%TF.CreationDate,2022-04-06T12:52:50+00:00*%
%TF.ProjectId,SOLARMINI01B,534f4c41-524d-4494-9e49-3031422e6b69,rev?*%
%TF.SameCoordinates,Original*%
%TF.FileFunction,Legend,Top*%
%TF.FilePolarity,Positive*%
%FSLAX46Y46*%
G04 Gerber Fmt 4.6, Leading zero omitted, Abs format (unit mm)*
G04 Created by KiCad (PCBNEW 6.0.4-6f826c9f35~116~ubuntu20.04.1) date 2022-04-06 12:52:50*
%MOMM*%
%LPD*%
G01*
G04 APERTURE LIST*
%ADD10C,0.300000*%
%ADD11C,0.304800*%
%ADD12C,0.050000*%
%ADD13C,0.150000*%
%ADD14R,3.810000X3.810000*%
G04 APERTURE END LIST*
D10*
X28872714Y27491428D02*
X29372714Y25991428D01*
X29872714Y27491428D01*
X30587000Y25991428D02*
X30444142Y26062857D01*
X30372714Y26134285D01*
X30301285Y26277142D01*
X30301285Y26705714D01*
X30372714Y26848571D01*
X30444142Y26920000D01*
X30587000Y26991428D01*
X30801285Y26991428D01*
X30944142Y26920000D01*
X31015571Y26848571D01*
X31087000Y26705714D01*
X31087000Y26277142D01*
X31015571Y26134285D01*
X30944142Y26062857D01*
X30801285Y25991428D01*
X30587000Y25991428D01*
X32372714Y26991428D02*
X32372714Y25991428D01*
X31729857Y26991428D02*
X31729857Y26205714D01*
X31801285Y26062857D01*
X31944142Y25991428D01*
X32158428Y25991428D01*
X32301285Y26062857D01*
X32372714Y26134285D01*
X32872714Y26991428D02*
X33444142Y26991428D01*
X33087000Y27491428D02*
X33087000Y26205714D01*
X33158428Y26062857D01*
X33301285Y25991428D01*
X33444142Y25991428D01*
X30158428Y29960000D02*
X30015571Y30031428D01*
X29801285Y30031428D01*
X29587000Y29960000D01*
X29444142Y29817142D01*
X29372714Y29674285D01*
X29301285Y29388571D01*
X29301285Y29174285D01*
X29372714Y28888571D01*
X29444142Y28745714D01*
X29587000Y28602857D01*
X29801285Y28531428D01*
X29944142Y28531428D01*
X30158428Y28602857D01*
X30229857Y28674285D01*
X30229857Y29174285D01*
X29944142Y29174285D01*
X30872714Y28531428D02*
X30872714Y30031428D01*
X31729857Y28531428D01*
X31729857Y30031428D01*
X32444142Y28531428D02*
X32444142Y30031428D01*
X32801285Y30031428D01*
X33015571Y29960000D01*
X33158428Y29817142D01*
X33229857Y29674285D01*
X33301285Y29388571D01*
X33301285Y29174285D01*
X33229857Y28888571D01*
X33158428Y28745714D01*
X33015571Y28602857D01*
X32801285Y28531428D01*
X32444142Y28531428D01*
X15871571Y34170228D02*
X15871571Y35670228D01*
X16371571Y34598800D01*
X16871571Y35670228D01*
X16871571Y34170228D01*
X18300142Y34170228D02*
X17585857Y34170228D01*
X17585857Y35670228D01*
X18728714Y34598800D02*
X19443000Y34598800D01*
X18585857Y34170228D02*
X19085857Y35670228D01*
X19585857Y34170228D01*
X20585857Y34955942D02*
X20800142Y34884514D01*
X20871571Y34813085D01*
X20943000Y34670228D01*
X20943000Y34455942D01*
X20871571Y34313085D01*
X20800142Y34241657D01*
X20657285Y34170228D01*
X20085857Y34170228D01*
X20085857Y35670228D01*
X20585857Y35670228D01*
X20728714Y35598800D01*
X20800142Y35527371D01*
X20871571Y35384514D01*
X20871571Y35241657D01*
X20800142Y35098800D01*
X20728714Y35027371D01*
X20585857Y34955942D01*
X20085857Y34955942D01*
X21585857Y34313085D02*
X21657285Y34241657D01*
X21585857Y34170228D01*
X21514428Y34241657D01*
X21585857Y34313085D01*
X21585857Y34170228D01*
X23157285Y34313085D02*
X23085857Y34241657D01*
X22871571Y34170228D01*
X22728714Y34170228D01*
X22514428Y34241657D01*
X22371571Y34384514D01*
X22300142Y34527371D01*
X22228714Y34813085D01*
X22228714Y35027371D01*
X22300142Y35313085D01*
X22371571Y35455942D01*
X22514428Y35598800D01*
X22728714Y35670228D01*
X22871571Y35670228D01*
X23085857Y35598800D01*
X23157285Y35527371D01*
X23657285Y35670228D02*
X24657285Y35670228D01*
X23657285Y34170228D01*
X24657285Y34170228D01*
X11771428Y3382095D02*
X11833333Y3444000D01*
X11957142Y3505904D01*
X12266666Y3505904D01*
X12390476Y3444000D01*
X12452380Y3382095D01*
X12514285Y3258285D01*
X12514285Y3134476D01*
X12452380Y2948761D01*
X11709523Y2205904D01*
X12514285Y2205904D01*
X13319047Y3505904D02*
X13442857Y3505904D01*
X13566666Y3444000D01*
X13628571Y3382095D01*
X13690476Y3258285D01*
X13752380Y3010666D01*
X13752380Y2701142D01*
X13690476Y2453523D01*
X13628571Y2329714D01*
X13566666Y2267809D01*
X13442857Y2205904D01*
X13319047Y2205904D01*
X13195238Y2267809D01*
X13133333Y2329714D01*
X13071428Y2453523D01*
X13009523Y2701142D01*
X13009523Y3010666D01*
X13071428Y3258285D01*
X13133333Y3382095D01*
X13195238Y3444000D01*
X13319047Y3505904D01*
X14247619Y3382095D02*
X14309523Y3444000D01*
X14433333Y3505904D01*
X14742857Y3505904D01*
X14866666Y3444000D01*
X14928571Y3382095D01*
X14990476Y3258285D01*
X14990476Y3134476D01*
X14928571Y2948761D01*
X14185714Y2205904D01*
X14990476Y2205904D01*
X15485714Y3382095D02*
X15547619Y3444000D01*
X15671428Y3505904D01*
X15980952Y3505904D01*
X16104761Y3444000D01*
X16166666Y3382095D01*
X16228571Y3258285D01*
X16228571Y3134476D01*
X16166666Y2948761D01*
X15423809Y2205904D01*
X16228571Y2205904D01*
X1352142Y26245428D02*
X1352142Y27745428D01*
X1923571Y27745428D01*
X2066428Y27674000D01*
X2137857Y27602571D01*
X2209285Y27459714D01*
X2209285Y27245428D01*
X2137857Y27102571D01*
X2066428Y27031142D01*
X1923571Y26959714D01*
X1352142Y26959714D01*
X2637857Y27745428D02*
X3137857Y26245428D01*
X3637857Y27745428D01*
X4137857Y26816857D02*
X5280714Y26816857D01*
X4709285Y26245428D02*
X4709285Y27388285D01*
X12443000Y36476857D02*
X12657285Y36405428D01*
X13014428Y36405428D01*
X13157285Y36476857D01*
X13228714Y36548285D01*
X13300142Y36691142D01*
X13300142Y36834000D01*
X13228714Y36976857D01*
X13157285Y37048285D01*
X13014428Y37119714D01*
X12728714Y37191142D01*
X12585857Y37262571D01*
X12514428Y37334000D01*
X12443000Y37476857D01*
X12443000Y37619714D01*
X12514428Y37762571D01*
X12585857Y37834000D01*
X12728714Y37905428D01*
X13085857Y37905428D01*
X13300142Y37834000D01*
X14228714Y37905428D02*
X14514428Y37905428D01*
X14657285Y37834000D01*
X14800142Y37691142D01*
X14871571Y37405428D01*
X14871571Y36905428D01*
X14800142Y36619714D01*
X14657285Y36476857D01*
X14514428Y36405428D01*
X14228714Y36405428D01*
X14085857Y36476857D01*
X13943000Y36619714D01*
X13871571Y36905428D01*
X13871571Y37405428D01*
X13943000Y37691142D01*
X14085857Y37834000D01*
X14228714Y37905428D01*
X16228714Y36405428D02*
X15514428Y36405428D01*
X15514428Y37905428D01*
X16657285Y36834000D02*
X17371571Y36834000D01*
X16514428Y36405428D02*
X17014428Y37905428D01*
X17514428Y36405428D01*
X18871571Y36405428D02*
X18371571Y37119714D01*
X18014428Y36405428D02*
X18014428Y37905428D01*
X18585857Y37905428D01*
X18728714Y37834000D01*
X18800142Y37762571D01*
X18871571Y37619714D01*
X18871571Y37405428D01*
X18800142Y37262571D01*
X18728714Y37191142D01*
X18585857Y37119714D01*
X18014428Y37119714D01*
X19514428Y36405428D02*
X19514428Y37905428D01*
X20014428Y36834000D01*
X20514428Y37905428D01*
X20514428Y36405428D01*
X21228714Y36405428D02*
X21228714Y37905428D01*
X21943000Y36405428D02*
X21943000Y37905428D01*
X22800142Y36405428D01*
X22800142Y37905428D01*
X23514428Y36405428D02*
X23514428Y37905428D01*
X24514428Y37905428D02*
X24657285Y37905428D01*
X24800142Y37834000D01*
X24871571Y37762571D01*
X24943000Y37619714D01*
X25014428Y37334000D01*
X25014428Y36976857D01*
X24943000Y36691142D01*
X24871571Y36548285D01*
X24800142Y36476857D01*
X24657285Y36405428D01*
X24514428Y36405428D01*
X24371571Y36476857D01*
X24300142Y36548285D01*
X24228714Y36691142D01*
X24157285Y36976857D01*
X24157285Y37334000D01*
X24228714Y37619714D01*
X24300142Y37762571D01*
X24371571Y37834000D01*
X24514428Y37905428D01*
X26443000Y36405428D02*
X25585857Y36405428D01*
X26014428Y36405428D02*
X26014428Y37905428D01*
X25871571Y37691142D01*
X25728714Y37548285D01*
X25585857Y37476857D01*
X27585857Y37191142D02*
X27800142Y37119714D01*
X27871571Y37048285D01*
X27943000Y36905428D01*
X27943000Y36691142D01*
X27871571Y36548285D01*
X27800142Y36476857D01*
X27657285Y36405428D01*
X27085857Y36405428D01*
X27085857Y37905428D01*
X27585857Y37905428D01*
X27728714Y37834000D01*
X27800142Y37762571D01*
X27871571Y37619714D01*
X27871571Y37476857D01*
X27800142Y37334000D01*
X27728714Y37262571D01*
X27585857Y37191142D01*
X27085857Y37191142D01*
X11616666Y6045904D02*
X11616666Y5117333D01*
X11554761Y4931619D01*
X11430952Y4807809D01*
X11245238Y4745904D01*
X11121428Y4745904D01*
X12173809Y5117333D02*
X12792857Y5117333D01*
X12050000Y4745904D02*
X12483333Y6045904D01*
X12916666Y4745904D01*
X14092857Y4869714D02*
X14030952Y4807809D01*
X13845238Y4745904D01*
X13721428Y4745904D01*
X13535714Y4807809D01*
X13411904Y4931619D01*
X13350000Y5055428D01*
X13288095Y5303047D01*
X13288095Y5488761D01*
X13350000Y5736380D01*
X13411904Y5860190D01*
X13535714Y5984000D01*
X13721428Y6045904D01*
X13845238Y6045904D01*
X14030952Y5984000D01*
X14092857Y5922095D01*
X14650000Y4745904D02*
X14650000Y6045904D01*
X14650000Y5426857D02*
X15392857Y5426857D01*
X15392857Y4745904D02*
X15392857Y6045904D01*
X16259523Y6045904D02*
X16507142Y6045904D01*
X16630952Y5984000D01*
X16754761Y5860190D01*
X16816666Y5612571D01*
X16816666Y5179238D01*
X16754761Y4931619D01*
X16630952Y4807809D01*
X16507142Y4745904D01*
X16259523Y4745904D01*
X16135714Y4807809D01*
X16011904Y4931619D01*
X15950000Y5179238D01*
X15950000Y5612571D01*
X16011904Y5860190D01*
X16135714Y5984000D01*
X16259523Y6045904D01*
X1352142Y12783428D02*
X1352142Y14283428D01*
X1923571Y14283428D01*
X2066428Y14212000D01*
X2137857Y14140571D01*
X2209285Y13997714D01*
X2209285Y13783428D01*
X2137857Y13640571D01*
X2066428Y13569142D01*
X1923571Y13497714D01*
X1352142Y13497714D01*
X2637857Y14283428D02*
X3137857Y12783428D01*
X3637857Y14283428D01*
X4137857Y13354857D02*
X5280714Y13354857D01*
X30158428Y24880000D02*
X30015571Y24951428D01*
X29801285Y24951428D01*
X29587000Y24880000D01*
X29444142Y24737142D01*
X29372714Y24594285D01*
X29301285Y24308571D01*
X29301285Y24094285D01*
X29372714Y23808571D01*
X29444142Y23665714D01*
X29587000Y23522857D01*
X29801285Y23451428D01*
X29944142Y23451428D01*
X30158428Y23522857D01*
X30229857Y23594285D01*
X30229857Y24094285D01*
X29944142Y24094285D01*
X30872714Y23451428D02*
X30872714Y24951428D01*
X31729857Y23451428D01*
X31729857Y24951428D01*
X32444142Y23451428D02*
X32444142Y24951428D01*
X32801285Y24951428D01*
X33015571Y24880000D01*
X33158428Y24737142D01*
X33229857Y24594285D01*
X33301285Y24308571D01*
X33301285Y24094285D01*
X33229857Y23808571D01*
X33158428Y23665714D01*
X33015571Y23522857D01*
X32801285Y23451428D01*
X32444142Y23451428D01*
D11*
%TO.C,J2*%
X1197428Y17145000D02*
X2286000Y17145000D01*
X2503714Y17072428D01*
X2648857Y16927285D01*
X2721428Y16709571D01*
X2721428Y16564428D01*
X1342571Y17798142D02*
X1270000Y17870714D01*
X1197428Y18015857D01*
X1197428Y18378714D01*
X1270000Y18523857D01*
X1342571Y18596428D01*
X1487714Y18669000D01*
X1632857Y18669000D01*
X1850571Y18596428D01*
X2721428Y17725571D01*
X2721428Y18669000D01*
%TO.C,J1*%
X1197428Y22225000D02*
X2286000Y22225000D01*
X2503714Y22152428D01*
X2648857Y22007285D01*
X2721428Y21789571D01*
X2721428Y21644428D01*
X2721428Y23749000D02*
X2721428Y22878142D01*
X2721428Y23313571D02*
X1197428Y23313571D01*
X1415142Y23168428D01*
X1560285Y23023285D01*
X1632857Y22878142D01*
D12*
%TO.C,J4*%
X39512857Y23903809D02*
X39227142Y23903809D01*
X39370000Y23903809D02*
X39370000Y24403809D01*
X39322380Y24332380D01*
X39274761Y24284761D01*
X39227142Y24260952D01*
D13*
%TO.C,J3*%
X15494000Y11684000D02*
X17780000Y11684000D01*
X15367000Y9271000D02*
X15367000Y11557000D01*
%TO.C,J2*%
X9414000Y15152900D02*
X9414000Y20153100D01*
X17414000Y16152000D02*
X17414000Y19154000D01*
X15414000Y15153000D02*
X15414000Y15653000D01*
X14414000Y15653000D02*
X17914100Y15653000D01*
X17914100Y19653000D02*
X17914100Y15653000D01*
X11414000Y16153000D02*
X14414000Y16153000D01*
X15414000Y19653000D02*
X15414000Y20153000D01*
X14414000Y19653000D02*
X17915000Y19653000D01*
X414000Y20153000D02*
X9414000Y20153000D01*
X14914100Y19153000D02*
X17414000Y19153000D01*
X414000Y15152900D02*
X414000Y20153100D01*
X913900Y19653000D02*
X8913900Y19653000D01*
X8913900Y18653000D02*
X9414000Y18653000D01*
X9414000Y20153000D02*
X15414000Y20153000D01*
X913900Y15653000D02*
X8913900Y15653000D01*
X11414000Y16152900D02*
X11414000Y19153100D01*
X8913900Y19653000D02*
X8913900Y15653000D01*
X14914100Y16152000D02*
X14914100Y19154000D01*
X11414000Y19153000D02*
X14414000Y19153000D01*
X14914100Y16153000D02*
X17414000Y16153000D01*
X9414000Y15153000D02*
X15414000Y15153000D01*
X8913900Y16653000D02*
X9414000Y16653000D01*
X14414000Y19653000D02*
X14414000Y15653000D01*
X9414000Y15153000D02*
X414000Y15153000D01*
X913900Y15653000D02*
X913900Y19653000D01*
%TO.C,J1*%
X9414000Y25233000D02*
X15414000Y25233000D01*
X8913900Y24733000D02*
X8913900Y20733000D01*
X14914100Y24233000D02*
X17414000Y24233000D01*
X14914100Y21233000D02*
X17414000Y21233000D01*
X15414000Y24733000D02*
X15414000Y25233000D01*
X9414000Y20233000D02*
X15414000Y20233000D01*
X11414000Y21232900D02*
X11414000Y24233100D01*
X414000Y20232900D02*
X414000Y25233100D01*
X9414000Y20232900D02*
X9414000Y25233100D01*
X414000Y25233000D02*
X9414000Y25233000D01*
X14914100Y21232000D02*
X14914100Y24234000D01*
X11414000Y21233000D02*
X14414000Y21233000D01*
X8913900Y23733000D02*
X9414000Y23733000D01*
X913900Y24733000D02*
X8913900Y24733000D01*
X14414000Y20733000D02*
X17914100Y20733000D01*
X15414000Y20233000D02*
X15414000Y20733000D01*
X17414000Y21232000D02*
X17414000Y24234000D01*
X17914100Y24733000D02*
X17914100Y20733000D01*
X913900Y20733000D02*
X913900Y24733000D01*
X8913900Y21733000D02*
X9414000Y21733000D01*
X913900Y20733000D02*
X8913900Y20733000D01*
X9414000Y20233000D02*
X414000Y20233000D01*
X14414000Y24733000D02*
X17915000Y24733000D01*
X14414000Y24733000D02*
X14414000Y20733000D01*
X11414000Y24233000D02*
X14414000Y24233000D01*
%TO.C,J4*%
X33909000Y22860000D02*
X33909000Y30480000D01*
X33909000Y30480000D02*
X38989000Y30480000D01*
X38989000Y30480000D02*
X38989000Y22860000D01*
X38989000Y22860000D02*
X33909000Y22860000D01*
%TD*%
D14*
%TO.C,J2*%
X5414000Y17653000D03*
X10414000Y17653000D03*
%TD*%
%TO.C,J1*%
X10414000Y22733000D03*
X5414000Y22733000D03*
%TD*%
M02*
