M48
; DRILL file {KiCad 6.0.4-6f826c9f35~116~ubuntu20.04.1} date Wed Apr  6 12:52:50 2022
; FORMAT={-:-/ absolute / metric / decimal}
; #@! TF.CreationDate,2022-04-06T12:52:50+00:00
; #@! TF.GenerationSoftware,Kicad,Pcbnew,6.0.4-6f826c9f35~116~ubuntu20.04.1
; #@! TF.FileFunction,Plated,1,2,PTH
FMAT,2
METRIC
; #@! TA.AperFunction,Plated,PTH,ViaDrill
T1C0.400
; #@! TA.AperFunction,Plated,PTH,ComponentDrill
T2C0.889
; #@! TA.AperFunction,Plated,PTH,ComponentDrill
T3C1.300
; #@! TA.AperFunction,Plated,PTH,ComponentDrill
T4C3.000
%
G90
G05
T1
X4.445Y14.224
X6.096Y14.224
X7.874Y14.224
X10.287Y14.224
X13.716Y15.24
X15.24Y15.24
X15.621Y32.639
X15.621Y29.845
X16.637Y15.24
X17.145Y27.686
X17.272Y25.4
X17.399Y23.114
X18.415Y18.542
X18.415Y12.446
X18.898Y8.992
X19.304Y32.766
X19.304Y29.845
X19.304Y27.94
X19.431Y25.4
X19.558Y23.114
X19.685Y14.351
X20.32Y15.494
X20.472Y7.163
X20.523Y3.658
X20.574Y5.334
X20.828Y20.574
X21.082Y8.89
X21.336Y14.224
X21.692Y12.344
X21.717Y15.494
X22.225Y19.812
X22.352Y2.286
X22.479Y9.779
X25.019Y2.286
X25.273Y31.623
X25.654Y10.922
X25.654Y9.652
X26.162Y26.67
X26.162Y25.4
X26.416Y15.113
X26.797Y31.623
X27.686Y26.67
X27.686Y15.113
X27.889Y3.302
X28.321Y25.4
X28.448Y31.623
X28.956Y20.574
X29.616Y5.385
X30.226Y26.416
X30.226Y9.144
X31.344Y10.312
X31.394Y7.976
X31.496Y15.113
X31.623Y16.51
X32.512Y23.368
X32.766Y12.954
X34.036Y12.954
X34.29Y21.971
X35.433Y12.954
X36.068Y21.844
X36.17Y10.77
X36.322Y17.399
X36.474Y15.799
X36.474Y14.173
X37.719Y17.399
X38.1Y21.844
X38.862Y17.399
T2
X16.637Y10.414
X35.179Y29.21
X35.179Y26.67
X35.179Y24.13
X37.719Y29.21
X37.719Y26.67
X37.719Y24.13
T3
X5.414Y22.733
X5.414Y17.653
X10.414Y22.733
X10.414Y17.653
T4
X5.08Y35.56
X5.08Y5.08
X35.56Y35.56
X35.56Y5.08
T0
M30
