  0
SECTION
  2
HEADER
  9
$ANGBASE
  50
0.0
  9
$ANGDIR
  70
1
  9
$MEASUREMENT
  70
0
  0
ENDSEC
  0
SECTION
  2
TABLES
  0
TABLE
  2
LTYPE
  70
4
  0
LTYPE
  5
40F
  2
CONTINUOUS
  70
0
  3
Solid line
  72
65
  73
0
  40
0.0
  0
LTYPE
  5
410
  2
DASHDOT
 70
0
  3
Dash Dot ____ _ ____ _
 72
65
 73
4
 40
2.0
 49
1.25
 49
-0.25
 49
0.25
 49
-0.25
  0
LTYPE
  5
411
  2
DASHED
 70
0
  3
Dashed __ __ __ __ __
 72
65
 73
2
 40
0.75
 49
0.5
 49
-0.25
  0
LTYPE
  5
43B
  2
DOTTED
 70
0
  3
Dotted .  .  .  .
 72
65
 73
2
 40
0.2
 49
0.0
 49
-0.2
  0
ENDTAB
  0
TABLE
  2
STYLE
  70
4
  0
STYLE
  2
KICAD
  70
0
  40
0
  41
1
  42
1
  50
0
  71
0
  3
isocp.shx
  0
STYLE
  2
KICADB
  70
0
  40
0
  41
1
  42
1
  50
0
  71
0
  3
isocp.shx
  0
STYLE
  2
KICADI
  70
0
  40
0
  41
1
  42
1
  50
15
  71
0
  3
isocp.shx
  0
STYLE
  2
KICADBI
  70
0
  40
0
  41
1
  42
1
  50
15
  71
0
  3
isocp.shx
  0
ENDTAB
  0
TABLE
  2
LAYER
  70
1
  0
LAYER
  2
BLACK
  70
0
  62
7
  6
CONTINUOUS
  0
ENDTAB
  0
ENDSEC
  0
SECTION
  2
ENTITIES
0
LINE
8
BLACK
6
CONTINUOUS
10
0.0225554
20
1.57658
11
0.0245042
21
1.578
0
LINE
8
BLACK
6
CONTINUOUS
10
0.0245042
20
1.578
11
0.0257087
21
1.57819
0
LINE
8
BLACK
6
CONTINUOUS
10
0.0257087
20
1.57819
11
1.57429
21
1.57819
0
LINE
8
BLACK
6
CONTINUOUS
10
1.57429
20
1.57819
11
1.57658
21
1.57744
0
LINE
8
BLACK
6
CONTINUOUS
10
1.57658
20
1.57744
11
1.578
21
1.5755
0
LINE
8
BLACK
6
CONTINUOUS
10
1.578
20
1.5755
11
1.57819
21
1.57429
0
LINE
8
BLACK
6
CONTINUOUS
10
1.57819
20
1.57429
11
1.57819
21
0.0257087
0
LINE
8
BLACK
6
CONTINUOUS
10
1.57819
20
0.0257087
11
1.57744
21
0.0234177
0
LINE
8
BLACK
6
CONTINUOUS
10
1.57744
20
0.0234177
11
1.5755
21
0.0220018
0
LINE
8
BLACK
6
CONTINUOUS
10
1.5755
20
0.0220018
11
1.57429
21
0.021811
0
LINE
8
BLACK
6
CONTINUOUS
10
1.57429
20
0.021811
11
0.0257087
21
0.021811
0
LINE
8
BLACK
6
CONTINUOUS
10
0.0257087
20
0.021811
11
0.0234177
21
0.0225554
0
LINE
8
BLACK
6
CONTINUOUS
10
0.0234177
20
0.0225554
11
0.0220018
21
0.0245042
0
LINE
8
BLACK
6
CONTINUOUS
10
0.0220018
20
0.0245042
11
0.021811
21
0.0257087
0
LINE
8
BLACK
6
CONTINUOUS
10
0.021811
20
0.0257087
11
0.021811
21
1.57429
0
LINE
8
BLACK
6
CONTINUOUS
10
0.021811
20
1.57429
11
0.0225554
21
1.57658
0
LINE
8
BLACK
6
CONTINUOUS
10
1.44508
20
1.01318
11
1.4482
21
1.01007
0
LINE
8
BLACK
6
CONTINUOUS
10
1.4482
20
1.01007
11
1.44853
21
1.00992
0
LINE
8
BLACK
6
CONTINUOUS
10
1.44853
20
1.00992
11
1.45196
21
1.00841
0
LINE
8
BLACK
6
CONTINUOUS
10
1.45196
20
1.00841
11
1.45196
21
1.00841
0
LINE
8
BLACK
6
CONTINUOUS
10
1.45196
20
1.00841
11
1.45223
21
1.00829
0
LINE
8
BLACK
6
CONTINUOUS
10
1.45223
20
1.00829
11
1.45252
21
1.00825
0
LINE
8
BLACK
6
CONTINUOUS
10
1.45252
20
1.00825
11
1.45313
21
1.00818
0
LINE
8
BLACK
6
CONTINUOUS
10
1.45313
20
1.00818
11
1.45324
21
1.00817
0
LINE
8
BLACK
6
CONTINUOUS
10
1.45324
20
1.00817
11
1.51676
21
1.00817
0
LINE
8
BLACK
6
CONTINUOUS
10
1.51676
20
1.00817
11
1.51746
21
1.00825
0
LINE
8
BLACK
6
CONTINUOUS
10
1.51746
20
1.00825
11
1.5175
21
1.00826
0
LINE
8
BLACK
6
CONTINUOUS
10
1.5175
20
1.00826
11
1.5175
21
1.00826
0
LINE
8
BLACK
6
CONTINUOUS
10
1.5175
20
1.00826
11
1.51779
21
1.00829
0
LINE
8
BLACK
6
CONTINUOUS
10
1.51779
20
1.00829
11
1.52182
21
1.01008
0
LINE
8
BLACK
6
CONTINUOUS
10
1.52182
20
1.01008
11
1.52493
21
1.0132
0
LINE
8
BLACK
6
CONTINUOUS
10
1.52493
20
1.0132
11
1.52671
21
1.01723
0
LINE
8
BLACK
6
CONTINUOUS
10
1.52671
20
1.01723
11
1.52683
21
1.01824
0
LINE
8
BLACK
6
CONTINUOUS
10
1.52683
20
1.01824
11
1.52683
21
1.08176
0
LINE
8
BLACK
6
CONTINUOUS
10
1.52683
20
1.08176
11
1.52671
21
1.08279
0
LINE
8
BLACK
6
CONTINUOUS
10
1.52671
20
1.08279
11
1.52492
21
1.08682
0
LINE
8
BLACK
6
CONTINUOUS
10
1.52492
20
1.08682
11
1.5218
21
1.08993
0
LINE
8
BLACK
6
CONTINUOUS
10
1.5218
20
1.08993
11
1.52065
21
1.09044
0
LINE
8
BLACK
6
CONTINUOUS
10
1.52065
20
1.09044
11
1.51804
21
1.09159
0
LINE
8
BLACK
6
CONTINUOUS
10
1.51804
20
1.09159
11
1.51804
21
1.09159
0
LINE
8
BLACK
6
CONTINUOUS
10
1.51804
20
1.09159
11
1.51777
21
1.09171
0
LINE
8
BLACK
6
CONTINUOUS
10
1.51777
20
1.09171
11
1.51722
21
1.09178
0
LINE
8
BLACK
6
CONTINUOUS
10
1.51722
20
1.09178
11
1.51687
21
1.09182
0
LINE
8
BLACK
6
CONTINUOUS
10
1.51687
20
1.09182
11
1.51687
21
1.09182
0
LINE
8
BLACK
6
CONTINUOUS
10
1.51687
20
1.09182
11
1.51676
21
1.09183
0
LINE
8
BLACK
6
CONTINUOUS
10
1.51676
20
1.09183
11
1.45324
21
1.09183
0
LINE
8
BLACK
6
CONTINUOUS
10
1.45324
20
1.09183
11
1.4526
21
1.09175
0
LINE
8
BLACK
6
CONTINUOUS
10
1.4526
20
1.09175
11
1.4525
21
1.09174
0
LINE
8
BLACK
6
CONTINUOUS
10
1.4525
20
1.09174
11
1.4525
21
1.09174
0
LINE
8
BLACK
6
CONTINUOUS
10
1.4525
20
1.09174
11
1.45221
21
1.09171
0
LINE
8
BLACK
6
CONTINUOUS
10
1.45221
20
1.09171
11
1.44818
21
1.08992
0
LINE
8
BLACK
6
CONTINUOUS
10
1.44818
20
1.08992
11
1.44507
21
1.0868
0
LINE
8
BLACK
6
CONTINUOUS
10
1.44507
20
1.0868
11
1.44329
21
1.08277
0
LINE
8
BLACK
6
CONTINUOUS
10
1.44329
20
1.08277
11
1.44317
21
1.08176
0
LINE
8
BLACK
6
CONTINUOUS
10
1.44317
20
1.08176
11
1.44317
21
1.01824
0
LINE
8
BLACK
6
CONTINUOUS
10
1.44317
20
1.01824
11
1.44329
21
1.01721
0
LINE
8
BLACK
6
CONTINUOUS
10
1.44329
20
1.01721
11
1.44508
21
1.01318
0
LINE
8
BLACK
6
CONTINUOUS
10
1.2449
20
0.171534
11
1.24842
21
0.156535
0
LINE
8
BLACK
6
CONTINUOUS
10
1.24842
20
0.156535
11
1.25338
21
0.14195
0
LINE
8
BLACK
6
CONTINUOUS
10
1.25338
20
0.14195
11
1.25342
21
0.141864
0
LINE
8
BLACK
6
CONTINUOUS
10
1.25342
20
0.141864
11
1.25342
21
0.141864
0
LINE
8
BLACK
6
CONTINUOUS
10
1.25342
20
0.141864
11
1.25615
21
0.135862
0
LINE
8
BLACK
6
CONTINUOUS
10
1.25615
20
0.135862
11
1.25975
21
0.12792
0
LINE
8
BLACK
6
CONTINUOUS
10
1.25975
20
0.12792
11
1.26745
21
0.114578
0
LINE
8
BLACK
6
CONTINUOUS
10
1.26745
20
0.114578
11
1.26751
21
0.114501
0
LINE
8
BLACK
6
CONTINUOUS
10
1.26751
20
0.114501
11
1.26751
21
0.114501
0
LINE
8
BLACK
6
CONTINUOUS
10
1.26751
20
0.114501
11
1.27163
21
0.108744
0
LINE
8
BLACK
6
CONTINUOUS
10
1.27163
20
0.108744
11
1.27642
21
0.102051
0
LINE
8
BLACK
6
CONTINUOUS
10
1.27642
20
0.102051
11
1.28657
21
0.0904593
0
LINE
8
BLACK
6
CONTINUOUS
10
1.28657
20
0.0904593
11
1.28664
21
0.0903943
0
LINE
8
BLACK
6
CONTINUOUS
10
1.28664
20
0.0903943
11
1.28664
21
0.090394
0
LINE
8
BLACK
6
CONTINUOUS
10
1.28664
20
0.090394
11
1.29052
21
0.086744
0
LINE
8
BLACK
6
CONTINUOUS
10
1.29052
20
0.086744
11
1.2978
21
0.0799131
0
LINE
8
BLACK
6
CONTINUOUS
10
1.2978
20
0.0799131
11
1.29787
21
0.0798551
0
LINE
8
BLACK
6
CONTINUOUS
10
1.29787
20
0.0798551
11
1.29787
21
0.079855
0
LINE
8
BLACK
6
CONTINUOUS
10
1.29787
20
0.079855
11
1.30993
21
0.0705712
0
LINE
8
BLACK
6
CONTINUOUS
10
1.30993
20
0.0705712
11
1.31
21
0.070513
0
LINE
8
BLACK
6
CONTINUOUS
10
1.31
20
0.070513
11
1.31008
21
0.0704626
0
LINE
8
BLACK
6
CONTINUOUS
10
1.31008
20
0.0704626
11
1.32299
21
0.0623993
0
LINE
8
BLACK
6
CONTINUOUS
10
1.32299
20
0.0623993
11
1.32299
21
0.0623992
0
LINE
8
BLACK
6
CONTINUOUS
10
1.32299
20
0.0623992
11
1.32307
21
0.0623489
0
LINE
8
BLACK
6
CONTINUOUS
10
1.32307
20
0.0623489
11
1.32315
21
0.0623067
0
LINE
8
BLACK
6
CONTINUOUS
10
1.32315
20
0.0623067
11
1.32315
21
0.0623065
0
LINE
8
BLACK
6
CONTINUOUS
10
1.32315
20
0.0623065
11
1.33678
21
0.0555411
0
LINE
8
BLACK
6
CONTINUOUS
10
1.33678
20
0.0555411
11
1.33687
21
0.0554988
0
LINE
8
BLACK
6
CONTINUOUS
10
1.33687
20
0.0554988
11
1.35127
21
0.050028
0
LINE
8
BLACK
6
CONTINUOUS
10
1.35127
20
0.050028
11
1.36614
21
0.0459886
0
LINE
8
BLACK
6
CONTINUOUS
10
1.36614
20
0.0459886
11
1.38133
21
0.0434193
0
LINE
8
BLACK
6
CONTINUOUS
10
1.38133
20
0.0434193
11
1.38142
21
0.0434127
0
LINE
8
BLACK
6
CONTINUOUS
10
1.38142
20
0.0434127
11
1.38142
21
0.0434126
0
LINE
8
BLACK
6
CONTINUOUS
10
1.38142
20
0.0434126
11
1.3966
21
0.0423512
0
LINE
8
BLACK
6
CONTINUOUS
10
1.3966
20
0.0423512
11
1.3966
21
0.0423512
0
LINE
8
BLACK
6
CONTINUOUS
10
1.3966
20
0.0423512
11
1.3967
21
0.0423446
0
LINE
8
BLACK
6
CONTINUOUS
10
1.3967
20
0.0423446
11
1.39679
21
0.0423472
0
LINE
8
BLACK
6
CONTINUOUS
10
1.39679
20
0.0423472
11
1.39679
21
0.0423472
0
LINE
8
BLACK
6
CONTINUOUS
10
1.39679
20
0.0423472
11
1.412
21
0.0427721
0
LINE
8
BLACK
6
CONTINUOUS
10
1.412
20
0.0427721
11
1.412
21
0.0427722
0
LINE
8
BLACK
6
CONTINUOUS
10
1.412
20
0.0427722
11
1.4121
21
0.0427748
0
LINE
8
BLACK
6
CONTINUOUS
10
1.4121
20
0.0427748
11
1.42738
21
0.0447057
0
LINE
8
BLACK
6
CONTINUOUS
10
1.42738
20
0.0447057
11
1.42748
21
0.0447268
0
LINE
8
BLACK
6
CONTINUOUS
10
1.42748
20
0.0447268
11
1.42748
21
0.0447268
0
LINE
8
BLACK
6
CONTINUOUS
10
1.42748
20
0.0447268
11
1.44231
21
0.0480979
0
LINE
8
BLACK
6
CONTINUOUS
10
1.44231
20
0.0480979
11
1.44231
21
0.048098
0
LINE
8
BLACK
6
CONTINUOUS
10
1.44231
20
0.048098
11
1.44241
21
0.0481189
0
LINE
8
BLACK
6
CONTINUOUS
10
1.44241
20
0.0481189
11
1.45702
21
0.0529819
0
LINE
8
BLACK
6
CONTINUOUS
10
1.45702
20
0.0529819
11
1.4711
21
0.0592482
0
LINE
8
BLACK
6
CONTINUOUS
10
1.4711
20
0.0592482
11
1.48449
21
0.066858
0
LINE
8
BLACK
6
CONTINUOUS
10
1.48449
20
0.066858
11
1.48471
21
0.067013
0
LINE
8
BLACK
6
CONTINUOUS
10
1.48471
20
0.067013
11
1.49701
21
0.0756838
0
LINE
8
BLACK
6
CONTINUOUS
10
1.49701
20
0.0756838
11
1.49708
21
0.0757386
0
LINE
8
BLACK
6
CONTINUOUS
10
1.49708
20
0.0757386
11
1.49716
21
0.0758004
0
LINE
8
BLACK
6
CONTINUOUS
10
1.49716
20
0.0758004
11
1.49716
21
0.0758006
0
LINE
8
BLACK
6
CONTINUOUS
10
1.49716
20
0.0758006
11
1.50867
21
0.0857432
0
LINE
8
BLACK
6
CONTINUOUS
10
1.50867
20
0.0857432
11
1.50867
21
0.0857433
0
LINE
8
BLACK
6
CONTINUOUS
10
1.50867
20
0.0857433
11
1.50875
21
0.0858054
0
LINE
8
BLACK
6
CONTINUOUS
10
1.50875
20
0.0858054
11
1.50881
21
0.0858742
0
LINE
8
BLACK
6
CONTINUOUS
10
1.50881
20
0.0858742
11
1.50881
21
0.0858745
0
LINE
8
BLACK
6
CONTINUOUS
10
1.50881
20
0.0858745
11
1.51406
21
0.0913837
0
LINE
8
BLACK
6
CONTINUOUS
10
1.51406
20
0.0913837
11
1.51937
21
0.0969621
0
LINE
8
BLACK
6
CONTINUOUS
10
1.51937
20
0.0969621
11
1.52886
21
0.109102
0
LINE
8
BLACK
6
CONTINUOUS
10
1.52886
20
0.109102
11
1.52891
21
0.109183
0
LINE
8
BLACK
6
CONTINUOUS
10
1.52891
20
0.109183
11
1.52891
21
0.109183
0
LINE
8
BLACK
6
CONTINUOUS
10
1.52891
20
0.109183
11
1.53706
21
0.12203
0
LINE
8
BLACK
6
CONTINUOUS
10
1.53706
20
0.12203
11
1.53706
21
0.12203
0
LINE
8
BLACK
6
CONTINUOUS
10
1.53706
20
0.12203
11
1.53711
21
0.12211
0
LINE
8
BLACK
6
CONTINUOUS
10
1.53711
20
0.12211
11
1.54406
21
0.135862
0
LINE
8
BLACK
6
CONTINUOUS
10
1.54406
20
0.135862
11
1.54963
21
0.150225
0
LINE
8
BLACK
6
CONTINUOUS
10
1.54963
20
0.150225
11
1.55377
21
0.165064
0
LINE
8
BLACK
6
CONTINUOUS
10
1.55377
20
0.165064
11
1.55645
21
0.180236
0
LINE
8
BLACK
6
CONTINUOUS
10
1.55645
20
0.180236
11
1.55763
21
0.195597
0
LINE
8
BLACK
6
CONTINUOUS
10
1.55763
20
0.195597
11
1.55769
21
0.2
0
LINE
8
BLACK
6
CONTINUOUS
10
1.55769
20
0.2
11
1.55694
21
0.215388
0
LINE
8
BLACK
6
CONTINUOUS
10
1.55694
20
0.215388
11
1.55469
21
0.230629
0
LINE
8
BLACK
6
CONTINUOUS
10
1.55469
20
0.230629
11
1.55096
21
0.245577
0
LINE
8
BLACK
6
CONTINUOUS
10
1.55096
20
0.245577
11
1.54579
21
0.260091
0
LINE
8
BLACK
6
CONTINUOUS
10
1.54579
20
0.260091
11
1.54575
21
0.260177
0
LINE
8
BLACK
6
CONTINUOUS
10
1.54575
20
0.260177
11
1.54575
21
0.260177
0
LINE
8
BLACK
6
CONTINUOUS
10
1.54575
20
0.260177
11
1.54268
21
0.266702
0
LINE
8
BLACK
6
CONTINUOUS
10
1.54268
20
0.266702
11
1.53923
21
0.274031
0
LINE
8
BLACK
6
CONTINUOUS
10
1.53923
20
0.274031
11
1.53134
21
0.287264
0
LINE
8
BLACK
6
CONTINUOUS
10
1.53134
20
0.287264
11
1.53129
21
0.287341
0
LINE
8
BLACK
6
CONTINUOUS
10
1.53129
20
0.287341
11
1.53129
21
0.287341
0
LINE
8
BLACK
6
CONTINUOUS
10
1.53129
20
0.287341
11
1.52226
21
0.299588
0
LINE
8
BLACK
6
CONTINUOUS
10
1.52226
20
0.299588
11
1.5222
21
0.299665
0
LINE
8
BLACK
6
CONTINUOUS
10
1.5222
20
0.299665
11
1.52214
21
0.299735
0
LINE
8
BLACK
6
CONTINUOUS
10
1.52214
20
0.299735
11
1.52214
21
0.299735
0
LINE
8
BLACK
6
CONTINUOUS
10
1.52214
20
0.299735
11
1.51196
21
0.311043
0
LINE
8
BLACK
6
CONTINUOUS
10
1.51196
20
0.311043
11
1.51189
21
0.311114
0
LINE
8
BLACK
6
CONTINUOUS
10
1.51189
20
0.311114
11
1.51012
21
0.312729
0
LINE
8
BLACK
6
CONTINUOUS
10
1.51012
20
0.312729
11
1.50059
21
0.321438
0
LINE
8
BLACK
6
CONTINUOUS
10
1.50059
20
0.321438
11
1.50059
21
0.321438
0
LINE
8
BLACK
6
CONTINUOUS
10
1.50059
20
0.321438
11
1.50052
21
0.321502
0
LINE
8
BLACK
6
CONTINUOUS
10
1.50052
20
0.321502
11
1.4943
21
0.326148
0
LINE
8
BLACK
6
CONTINUOUS
10
1.4943
20
0.326148
11
1.48826
21
0.330674
0
LINE
8
BLACK
6
CONTINUOUS
10
1.48826
20
0.330674
11
1.48826
21
0.330674
0
LINE
8
BLACK
6
CONTINUOUS
10
1.48826
20
0.330674
11
1.48818
21
0.330731
0
LINE
8
BLACK
6
CONTINUOUS
10
1.48818
20
0.330731
11
1.475
21
0.338712
0
LINE
8
BLACK
6
CONTINUOUS
10
1.475
20
0.338712
11
1.47492
21
0.338753
0
LINE
8
BLACK
6
CONTINUOUS
10
1.47492
20
0.338753
11
1.47492
21
0.338753
0
LINE
8
BLACK
6
CONTINUOUS
10
1.47492
20
0.338753
11
1.46119
21
0.345327
0
LINE
8
BLACK
6
CONTINUOUS
10
1.46119
20
0.345327
11
1.46119
21
0.345328
0
LINE
8
BLACK
6
CONTINUOUS
10
1.46119
20
0.345328
11
1.46111
21
0.345369
0
LINE
8
BLACK
6
CONTINUOUS
10
1.46111
20
0.345369
11
1.44663
21
0.350638
0
LINE
8
BLACK
6
CONTINUOUS
10
1.44663
20
0.350638
11
1.44654
21
0.350661
0
LINE
8
BLACK
6
CONTINUOUS
10
1.44654
20
0.350661
11
1.44654
21
0.350661
0
LINE
8
BLACK
6
CONTINUOUS
10
1.44654
20
0.350661
11
1.4318
21
0.354446
0
LINE
8
BLACK
6
CONTINUOUS
10
1.4318
20
0.354446
11
1.43171
21
0.354469
0
LINE
8
BLACK
6
CONTINUOUS
10
1.43171
20
0.354469
11
1.42552
21
0.355427
0
LINE
8
BLACK
6
CONTINUOUS
10
1.42552
20
0.355427
11
1.41658
21
0.356812
0
LINE
8
BLACK
6
CONTINUOUS
10
1.41658
20
0.356812
11
1.41658
21
0.356812
0
LINE
8
BLACK
6
CONTINUOUS
10
1.41658
20
0.356812
11
1.41648
21
0.356826
0
LINE
8
BLACK
6
CONTINUOUS
10
1.41648
20
0.356826
11
1.41639
21
0.356831
0
LINE
8
BLACK
6
CONTINUOUS
10
1.41639
20
0.356831
11
1.41639
21
0.356831
0
LINE
8
BLACK
6
CONTINUOUS
10
1.41639
20
0.356831
11
1.4012
21
0.357681
0
LINE
8
BLACK
6
CONTINUOUS
10
1.4012
20
0.357681
11
1.4012
21
0.357681
0
LINE
8
BLACK
6
CONTINUOUS
10
1.4012
20
0.357681
11
1.4011
21
0.357686
0
LINE
8
BLACK
6
CONTINUOUS
10
1.4011
20
0.357686
11
1.38571
21
0.357041
0
LINE
8
BLACK
6
CONTINUOUS
10
1.38571
20
0.357041
11
1.37045
21
0.354897
0
LINE
8
BLACK
6
CONTINUOUS
10
1.37045
20
0.354897
11
1.3662
21
0.353868
0
LINE
8
BLACK
6
CONTINUOUS
10
1.3662
20
0.353868
11
1.35557
21
0.351297
0
LINE
8
BLACK
6
CONTINUOUS
10
1.35557
20
0.351297
11
1.35557
21
0.351296
0
LINE
8
BLACK
6
CONTINUOUS
10
1.35557
20
0.351296
11
1.35548
21
0.351274
0
LINE
8
BLACK
6
CONTINUOUS
10
1.35548
20
0.351274
11
1.35356
21
0.350605
0
LINE
8
BLACK
6
CONTINUOUS
10
1.35356
20
0.350605
11
1.34102
21
0.346239
0
LINE
8
BLACK
6
CONTINUOUS
10
1.34102
20
0.346239
11
1.34102
21
0.346239
0
LINE
8
BLACK
6
CONTINUOUS
10
1.34102
20
0.346239
11
1.34093
21
0.346208
0
LINE
8
BLACK
6
CONTINUOUS
10
1.34093
20
0.346208
11
1.34084
21
0.346168
0
LINE
8
BLACK
6
CONTINUOUS
10
1.34084
20
0.346168
11
1.33619
21
0.344019
0
LINE
8
BLACK
6
CONTINUOUS
10
1.33619
20
0.344019
11
1.32694
21
0.339745
0
LINE
8
BLACK
6
CONTINUOUS
10
1.32694
20
0.339745
11
1.32104
21
0.336281
0
LINE
8
BLACK
6
CONTINUOUS
10
1.32104
20
0.336281
11
1.31374
21
0.331997
0
LINE
8
BLACK
6
CONTINUOUS
10
1.31374
20
0.331997
11
1.31374
21
0.331997
0
LINE
8
BLACK
6
CONTINUOUS
10
1.31374
20
0.331997
11
1.31365
21
0.331949
0
LINE
8
BLACK
6
CONTINUOUS
10
1.31365
20
0.331949
11
1.31358
21
0.331894
0
LINE
8
BLACK
6
CONTINUOUS
10
1.31358
20
0.331894
11
1.31358
21
0.331894
0
LINE
8
BLACK
6
CONTINUOUS
10
1.31358
20
0.331894
11
1.30366
21
0.324691
0
LINE
8
BLACK
6
CONTINUOUS
10
1.30366
20
0.324691
11
1.30119
21
0.322894
0
LINE
8
BLACK
6
CONTINUOUS
10
1.30119
20
0.322894
11
1.28967
21
0.312665
0
LINE
8
BLACK
6
CONTINUOUS
10
1.28967
20
0.312665
11
1.28961
21
0.312595
0
LINE
8
BLACK
6
CONTINUOUS
10
1.28961
20
0.312595
11
1.28961
21
0.312595
0
LINE
8
BLACK
6
CONTINUOUS
10
1.28961
20
0.312595
11
1.28472
21
0.307324
0
LINE
8
BLACK
6
CONTINUOUS
10
1.28472
20
0.307324
11
1.2792
21
0.301361
0
LINE
8
BLACK
6
CONTINUOUS
10
1.2792
20
0.301361
11
1.27914
21
0.301285
0
LINE
8
BLACK
6
CONTINUOUS
10
1.27914
20
0.301285
11
1.27914
21
0.301285
0
LINE
8
BLACK
6
CONTINUOUS
10
1.27914
20
0.301285
11
1.2747
21
0.295423
0
LINE
8
BLACK
6
CONTINUOUS
10
1.2747
20
0.295423
11
1.26989
21
0.28909
0
LINE
8
BLACK
6
CONTINUOUS
10
1.26989
20
0.28909
11
1.26876
21
0.287264
0
LINE
8
BLACK
6
CONTINUOUS
10
1.26876
20
0.287264
11
1.26596
21
0.28271
0
LINE
8
BLACK
6
CONTINUOUS
10
1.26596
20
0.28271
11
1.26182
21
0.275968
0
LINE
8
BLACK
6
CONTINUOUS
10
1.26182
20
0.275968
11
1.26177
21
0.275883
0
LINE
8
BLACK
6
CONTINUOUS
10
1.26177
20
0.275883
11
1.26177
21
0.275882
0
LINE
8
BLACK
6
CONTINUOUS
10
1.26177
20
0.275882
11
1.26087
21
0.274031
0
LINE
8
BLACK
6
CONTINUOUS
10
1.26087
20
0.274031
11
1.25506
21
0.262121
0
LINE
8
BLACK
6
CONTINUOUS
10
1.25506
20
0.262121
11
1.24969
21
0.247681
0
LINE
8
BLACK
6
CONTINUOUS
10
1.24969
20
0.247681
11
1.24576
21
0.232786
0
LINE
8
BLACK
6
CONTINUOUS
10
1.24576
20
0.232786
11
1.24329
21
0.217578
0
LINE
8
BLACK
6
CONTINUOUS
10
1.24329
20
0.217578
11
1.24233
21
0.202202
0
LINE
8
BLACK
6
CONTINUOUS
10
1.24233
20
0.202202
11
1.24286
21
0.186805
0
LINE
8
BLACK
6
CONTINUOUS
10
1.24286
20
0.186805
11
1.2449
21
0.171534
0
LINE
8
BLACK
6
CONTINUOUS
10
0.319371
20
0.0969621
11
0.328856
21
0.109102
0
LINE
8
BLACK
6
CONTINUOUS
10
0.328856
20
0.109102
11
0.328906
21
0.109183
0
LINE
8
BLACK
6
CONTINUOUS
10
0.328906
20
0.109183
11
0.328907
21
0.109183
0
LINE
8
BLACK
6
CONTINUOUS
10
0.328907
20
0.109183
11
0.337059
21
0.12203
0
LINE
8
BLACK
6
CONTINUOUS
10
0.337059
20
0.12203
11
0.33706
21
0.12203
0
LINE
8
BLACK
6
CONTINUOUS
10
0.33706
20
0.12203
11
0.337111
21
0.12211
0
LINE
8
BLACK
6
CONTINUOUS
10
0.337111
20
0.12211
11
0.344057
21
0.135862
0
LINE
8
BLACK
6
CONTINUOUS
10
0.344057
20
0.135862
11
0.349628
21
0.150225
0
LINE
8
BLACK
6
CONTINUOUS
10
0.349628
20
0.150225
11
0.353771
21
0.165064
0
LINE
8
BLACK
6
CONTINUOUS
10
0.353771
20
0.165064
11
0.356447
21
0.180236
0
LINE
8
BLACK
6
CONTINUOUS
10
0.356447
20
0.180236
11
0.357628
21
0.195597
0
LINE
8
BLACK
6
CONTINUOUS
10
0.357628
20
0.195597
11
0.35769
21
0.2
0
LINE
8
BLACK
6
CONTINUOUS
10
0.35769
20
0.2
11
0.356937
21
0.215388
0
LINE
8
BLACK
6
CONTINUOUS
10
0.356937
20
0.215388
11
0.354687
21
0.230629
0
LINE
8
BLACK
6
CONTINUOUS
10
0.354687
20
0.230629
11
0.35096
21
0.245577
0
LINE
8
BLACK
6
CONTINUOUS
10
0.35096
20
0.245577
11
0.345792
21
0.260091
0
LINE
8
BLACK
6
CONTINUOUS
10
0.345792
20
0.260091
11
0.345751
21
0.260177
0
LINE
8
BLACK
6
CONTINUOUS
10
0.345751
20
0.260177
11
0.345751
21
0.260177
0
LINE
8
BLACK
6
CONTINUOUS
10
0.345751
20
0.260177
11
0.342681
21
0.266702
0
LINE
8
BLACK
6
CONTINUOUS
10
0.342681
20
0.266702
11
0.339232
21
0.274031
0
LINE
8
BLACK
6
CONTINUOUS
10
0.339232
20
0.274031
11
0.331343
21
0.287264
0
LINE
8
BLACK
6
CONTINUOUS
10
0.331343
20
0.287264
11
0.331287
21
0.287341
0
LINE
8
BLACK
6
CONTINUOUS
10
0.331287
20
0.287341
11
0.331287
21
0.287341
0
LINE
8
BLACK
6
CONTINUOUS
10
0.331287
20
0.287341
11
0.322257
21
0.299588
0
LINE
8
BLACK
6
CONTINUOUS
10
0.322257
20
0.299588
11
0.322201
21
0.299665
0
LINE
8
BLACK
6
CONTINUOUS
10
0.322201
20
0.299665
11
0.322138
21
0.299735
0
LINE
8
BLACK
6
CONTINUOUS
10
0.322138
20
0.299735
11
0.322138
21
0.299735
0
LINE
8
BLACK
6
CONTINUOUS
10
0.322138
20
0.299735
11
0.311956
21
0.311043
0
LINE
8
BLACK
6
CONTINUOUS
10
0.311956
20
0.311043
11
0.311892
21
0.311114
0
LINE
8
BLACK
6
CONTINUOUS
10
0.311892
20
0.311114
11
0.310124
21
0.312729
0
LINE
8
BLACK
6
CONTINUOUS
10
0.310124
20
0.312729
11
0.300586
21
0.321438
0
LINE
8
BLACK
6
CONTINUOUS
10
0.300586
20
0.321438
11
0.300585
21
0.321438
0
LINE
8
BLACK
6
CONTINUOUS
10
0.300585
20
0.321438
11
0.300515
21
0.321502
0
LINE
8
BLACK
6
CONTINUOUS
10
0.300515
20
0.321502
11
0.294305
21
0.326148
0
LINE
8
BLACK
6
CONTINUOUS
10
0.294305
20
0.326148
11
0.288256
21
0.330674
0
LINE
8
BLACK
6
CONTINUOUS
10
0.288256
20
0.330674
11
0.288255
21
0.330674
0
LINE
8
BLACK
6
CONTINUOUS
10
0.288255
20
0.330674
11
0.288179
21
0.330731
0
LINE
8
BLACK
6
CONTINUOUS
10
0.288179
20
0.330731
11
0.275001
21
0.338712
0
LINE
8
BLACK
6
CONTINUOUS
10
0.275001
20
0.338712
11
0.274916
21
0.338753
0
LINE
8
BLACK
6
CONTINUOUS
10
0.274916
20
0.338753
11
0.274915
21
0.338753
0
LINE
8
BLACK
6
CONTINUOUS
10
0.274915
20
0.338753
11
0.261193
21
0.345327
0
LINE
8
BLACK
6
CONTINUOUS
10
0.261193
20
0.345327
11
0.261193
21
0.345328
0
LINE
8
BLACK
6
CONTINUOUS
10
0.261193
20
0.345328
11
0.261107
21
0.345369
0
LINE
8
BLACK
6
CONTINUOUS
10
0.261107
20
0.345369
11
0.24663
21
0.350638
0
LINE
8
BLACK
6
CONTINUOUS
10
0.24663
20
0.350638
11
0.246539
21
0.350661
0
LINE
8
BLACK
6
CONTINUOUS
10
0.246539
20
0.350661
11
0.246538
21
0.350661
0
LINE
8
BLACK
6
CONTINUOUS
10
0.246538
20
0.350661
11
0.2318
21
0.354446
0
LINE
8
BLACK
6
CONTINUOUS
10
0.2318
20
0.354446
11
0.231708
21
0.354469
0
LINE
8
BLACK
6
CONTINUOUS
10
0.231708
20
0.354469
11
0.225518
21
0.355427
0
LINE
8
BLACK
6
CONTINUOUS
10
0.225518
20
0.355427
11
0.216577
21
0.356812
0
LINE
8
BLACK
6
CONTINUOUS
10
0.216577
20
0.356812
11
0.216577
21
0.356812
0
LINE
8
BLACK
6
CONTINUOUS
10
0.216577
20
0.356812
11
0.216483
21
0.356826
0
LINE
8
BLACK
6
CONTINUOUS
10
0.216483
20
0.356826
11
0.216388
21
0.356831
0
LINE
8
BLACK
6
CONTINUOUS
10
0.216388
20
0.356831
11
0.216388
21
0.356831
0
LINE
8
BLACK
6
CONTINUOUS
10
0.216388
20
0.356831
11
0.201196
21
0.357681
0
LINE
8
BLACK
6
CONTINUOUS
10
0.201196
20
0.357681
11
0.201196
21
0.357681
0
LINE
8
BLACK
6
CONTINUOUS
10
0.201196
20
0.357681
11
0.201101
21
0.357686
0
LINE
8
BLACK
6
CONTINUOUS
10
0.201101
20
0.357686
11
0.185708
21
0.357041
0
LINE
8
BLACK
6
CONTINUOUS
10
0.185708
20
0.357041
11
0.170452
21
0.354897
0
LINE
8
BLACK
6
CONTINUOUS
10
0.170452
20
0.354897
11
0.166199
21
0.353868
0
LINE
8
BLACK
6
CONTINUOUS
10
0.166199
20
0.353868
11
0.15557
21
0.351297
0
LINE
8
BLACK
6
CONTINUOUS
10
0.15557
20
0.351297
11
0.15557
21
0.351296
0
LINE
8
BLACK
6
CONTINUOUS
10
0.15557
20
0.351296
11
0.155478
21
0.351274
0
LINE
8
BLACK
6
CONTINUOUS
10
0.155478
20
0.351274
11
0.153557
21
0.350605
0
LINE
8
BLACK
6
CONTINUOUS
10
0.153557
20
0.350605
11
0.141018
21
0.346239
0
LINE
8
BLACK
6
CONTINUOUS
10
0.141018
20
0.346239
11
0.141018
21
0.346239
0
LINE
8
BLACK
6
CONTINUOUS
10
0.141018
20
0.346239
11
0.140928
21
0.346208
0
LINE
8
BLACK
6
CONTINUOUS
10
0.140928
20
0.346208
11
0.140842
21
0.346168
0
LINE
8
BLACK
6
CONTINUOUS
10
0.140842
20
0.346168
11
0.136192
21
0.344019
0
LINE
8
BLACK
6
CONTINUOUS
10
0.136192
20
0.344019
11
0.126943
21
0.339745
0
LINE
8
BLACK
6
CONTINUOUS
10
0.126943
20
0.339745
11
0.121038
21
0.336281
0
LINE
8
BLACK
6
CONTINUOUS
10
0.121038
20
0.336281
11
0.113737
21
0.331997
0
LINE
8
BLACK
6
CONTINUOUS
10
0.113737
20
0.331997
11
0.113737
21
0.331997
0
LINE
8
BLACK
6
CONTINUOUS
10
0.113737
20
0.331997
11
0.113655
21
0.331949
0
LINE
8
BLACK
6
CONTINUOUS
10
0.113655
20
0.331949
11
0.113578
21
0.331894
0
LINE
8
BLACK
6
CONTINUOUS
10
0.113578
20
0.331894
11
0.113578
21
0.331894
0
LINE
8
BLACK
6
CONTINUOUS
10
0.113578
20
0.331894
11
0.103664
21
0.324691
0
LINE
8
BLACK
6
CONTINUOUS
10
0.103664
20
0.324691
11
0.101191
21
0.322894
0
LINE
8
BLACK
6
CONTINUOUS
10
0.101191
20
0.322894
11
0.0896701
21
0.312665
0
LINE
8
BLACK
6
CONTINUOUS
10
0.0896701
20
0.312665
11
0.0896055
21
0.312595
0
LINE
8
BLACK
6
CONTINUOUS
10
0.0896055
20
0.312595
11
0.0896052
21
0.312595
0
LINE
8
BLACK
6
CONTINUOUS
10
0.0896052
20
0.312595
11
0.0847242
21
0.307324
0
LINE
8
BLACK
6
CONTINUOUS
10
0.0847242
20
0.307324
11
0.0792025
21
0.301361
0
LINE
8
BLACK
6
CONTINUOUS
10
0.0792025
20
0.301361
11
0.0791449
21
0.301285
0
LINE
8
BLACK
6
CONTINUOUS
10
0.0791449
20
0.301285
11
0.0791446
21
0.301285
0
LINE
8
BLACK
6
CONTINUOUS
10
0.0791446
20
0.301285
11
0.0746952
21
0.295423
0
LINE
8
BLACK
6
CONTINUOUS
10
0.0746952
20
0.295423
11
0.0698879
21
0.28909
0
LINE
8
BLACK
6
CONTINUOUS
10
0.0698879
20
0.28909
11
0.0687649
21
0.287264
0
LINE
8
BLACK
6
CONTINUOUS
10
0.0687649
20
0.287264
11
0.0659631
21
0.28271
0
LINE
8
BLACK
6
CONTINUOUS
10
0.0659631
20
0.28271
11
0.0618152
21
0.275968
0
LINE
8
BLACK
6
CONTINUOUS
10
0.0618152
20
0.275968
11
0.0617738
21
0.275883
0
LINE
8
BLACK
6
CONTINUOUS
10
0.0617738
20
0.275883
11
0.0617736
21
0.275882
0
LINE
8
BLACK
6
CONTINUOUS
10
0.0617736
20
0.275882
11
0.0608706
21
0.274031
0
LINE
8
BLACK
6
CONTINUOUS
10
0.0608706
20
0.274031
11
0.0550616
21
0.262121
0
LINE
8
BLACK
6
CONTINUOUS
10
0.0550616
20
0.262121
11
0.0496914
21
0.247681
0
LINE
8
BLACK
6
CONTINUOUS
10
0.0496914
20
0.247681
11
0.0457559
21
0.232786
0
LINE
8
BLACK
6
CONTINUOUS
10
0.0457559
20
0.232786
11
0.0432928
21
0.217578
0
LINE
8
BLACK
6
CONTINUOUS
10
0.0432928
20
0.217578
11
0.0423254
21
0.202202
0
LINE
8
BLACK
6
CONTINUOUS
10
0.0423254
20
0.202202
11
0.0428631
21
0.186805
0
LINE
8
BLACK
6
CONTINUOUS
10
0.0428631
20
0.186805
11
0.0449007
21
0.171534
0
LINE
8
BLACK
6
CONTINUOUS
10
0.0449007
20
0.171534
11
0.0484187
21
0.156535
0
LINE
8
BLACK
6
CONTINUOUS
10
0.0484187
20
0.156535
11
0.0533836
21
0.14195
0
LINE
8
BLACK
6
CONTINUOUS
10
0.0533836
20
0.14195
11
0.0534228
21
0.141864
0
LINE
8
BLACK
6
CONTINUOUS
10
0.0534228
20
0.141864
11
0.0534229
21
0.141864
0
LINE
8
BLACK
6
CONTINUOUS
10
0.0534229
20
0.141864
11
0.0561456
21
0.135862
0
LINE
8
BLACK
6
CONTINUOUS
10
0.0561456
20
0.135862
11
0.059748
21
0.12792
0
LINE
8
BLACK
6
CONTINUOUS
10
0.059748
20
0.12792
11
0.0674511
21
0.114578
0
LINE
8
BLACK
6
CONTINUOUS
10
0.0674511
20
0.114578
11
0.0675063
21
0.114501
0
LINE
8
BLACK
6
CONTINUOUS
10
0.0675063
20
0.114501
11
0.0675066
21
0.114501
0
LINE
8
BLACK
6
CONTINUOUS
10
0.0675066
20
0.114501
11
0.071628
21
0.108744
0
LINE
8
BLACK
6
CONTINUOUS
10
0.071628
20
0.108744
11
0.0764194
21
0.102051
0
LINE
8
BLACK
6
CONTINUOUS
10
0.0764194
20
0.102051
11
0.0865673
21
0.0904593
0
LINE
8
BLACK
6
CONTINUOUS
10
0.0865673
20
0.0904593
11
0.0866366
21
0.0903943
0
LINE
8
BLACK
6
CONTINUOUS
10
0.0866366
20
0.0903943
11
0.0866369
21
0.090394
0
LINE
8
BLACK
6
CONTINUOUS
10
0.0866369
20
0.090394
11
0.0905237
21
0.086744
0
LINE
8
BLACK
6
CONTINUOUS
10
0.0905237
20
0.086744
11
0.097798
21
0.0799131
0
LINE
8
BLACK
6
CONTINUOUS
10
0.097798
20
0.0799131
11
0.0978733
21
0.0798551
0
LINE
8
BLACK
6
CONTINUOUS
10
0.0978733
20
0.0798551
11
0.0978734
21
0.079855
0
LINE
8
BLACK
6
CONTINUOUS
10
0.0978734
20
0.079855
11
0.109929
21
0.0705712
0
LINE
8
BLACK
6
CONTINUOUS
10
0.109929
20
0.0705712
11
0.110004
21
0.070513
0
LINE
8
BLACK
6
CONTINUOUS
10
0.110004
20
0.070513
11
0.110085
21
0.0704626
0
LINE
8
BLACK
6
CONTINUOUS
10
0.110085
20
0.0704626
11
0.122989
21
0.0623993
0
LINE
8
BLACK
6
CONTINUOUS
10
0.122989
20
0.0623993
11
0.122989
21
0.0623992
0
LINE
8
BLACK
6
CONTINUOUS
10
0.122989
20
0.0623992
11
0.123069
21
0.0623489
0
LINE
8
BLACK
6
CONTINUOUS
10
0.123069
20
0.0623489
11
0.123155
21
0.0623067
0
LINE
8
BLACK
6
CONTINUOUS
10
0.123155
20
0.0623067
11
0.123155
21
0.0623065
0
LINE
8
BLACK
6
CONTINUOUS
10
0.123155
20
0.0623065
11
0.136784
21
0.0555411
0
LINE
8
BLACK
6
CONTINUOUS
10
0.136784
20
0.0555411
11
0.136869
21
0.0554988
0
LINE
8
BLACK
6
CONTINUOUS
10
0.136869
20
0.0554988
11
0.151271
21
0.050028
0
LINE
8
BLACK
6
CONTINUOUS
10
0.151271
20
0.050028
11
0.166138
21
0.0459886
0
LINE
8
BLACK
6
CONTINUOUS
10
0.166138
20
0.0459886
11
0.181329
21
0.0434193
0
LINE
8
BLACK
6
CONTINUOUS
10
0.181329
20
0.0434193
11
0.181424
21
0.0434127
0
LINE
8
BLACK
6
CONTINUOUS
10
0.181424
20
0.0434127
11
0.181424
21
0.0434126
0
LINE
8
BLACK
6
CONTINUOUS
10
0.181424
20
0.0434126
11
0.196603
21
0.0423512
0
LINE
8
BLACK
6
CONTINUOUS
10
0.196603
20
0.0423512
11
0.196603
21
0.0423512
0
LINE
8
BLACK
6
CONTINUOUS
10
0.196603
20
0.0423512
11
0.196698
21
0.0423446
0
LINE
8
BLACK
6
CONTINUOUS
10
0.196698
20
0.0423446
11
0.196792
21
0.0423472
0
LINE
8
BLACK
6
CONTINUOUS
10
0.196792
20
0.0423472
11
0.196793
21
0.0423472
0
LINE
8
BLACK
6
CONTINUOUS
10
0.196793
20
0.0423472
11
0.212002
21
0.0427721
0
LINE
8
BLACK
6
CONTINUOUS
10
0.212002
20
0.0427721
11
0.212003
21
0.0427722
0
LINE
8
BLACK
6
CONTINUOUS
10
0.212003
20
0.0427722
11
0.212098
21
0.0427748
0
LINE
8
BLACK
6
CONTINUOUS
10
0.212098
20
0.0427748
11
0.227383
21
0.0447057
0
LINE
8
BLACK
6
CONTINUOUS
10
0.227383
20
0.0447057
11
0.227475
21
0.0447268
0
LINE
8
BLACK
6
CONTINUOUS
10
0.227475
20
0.0447268
11
0.227476
21
0.0447268
0
LINE
8
BLACK
6
CONTINUOUS
10
0.227476
20
0.0447268
11
0.242313
21
0.0480979
0
LINE
8
BLACK
6
CONTINUOUS
10
0.242313
20
0.0480979
11
0.242314
21
0.048098
0
LINE
8
BLACK
6
CONTINUOUS
10
0.242314
20
0.048098
11
0.242406
21
0.0481189
0
LINE
8
BLACK
6
CONTINUOUS
10
0.242406
20
0.0481189
11
0.257025
21
0.0529819
0
LINE
8
BLACK
6
CONTINUOUS
10
0.257025
20
0.0529819
11
0.271099
21
0.0592482
0
LINE
8
BLACK
6
CONTINUOUS
10
0.271099
20
0.0592482
11
0.284494
21
0.066858
0
LINE
8
BLACK
6
CONTINUOUS
10
0.284494
20
0.066858
11
0.284714
21
0.067013
0
LINE
8
BLACK
6
CONTINUOUS
10
0.284714
20
0.067013
11
0.297006
21
0.0756838
0
LINE
8
BLACK
6
CONTINUOUS
10
0.297006
20
0.0756838
11
0.297084
21
0.0757386
0
LINE
8
BLACK
6
CONTINUOUS
10
0.297084
20
0.0757386
11
0.297155
21
0.0758004
0
LINE
8
BLACK
6
CONTINUOUS
10
0.297155
20
0.0758004
11
0.297155
21
0.0758006
0
LINE
8
BLACK
6
CONTINUOUS
10
0.297155
20
0.0758006
11
0.308674
21
0.0857432
0
LINE
8
BLACK
6
CONTINUOUS
10
0.308674
20
0.0857432
11
0.308674
21
0.0857433
0
LINE
8
BLACK
6
CONTINUOUS
10
0.308674
20
0.0857433
11
0.308746
21
0.0858054
0
LINE
8
BLACK
6
CONTINUOUS
10
0.308746
20
0.0858054
11
0.308812
21
0.0858742
0
LINE
8
BLACK
6
CONTINUOUS
10
0.308812
20
0.0858742
11
0.308812
21
0.0858745
0
LINE
8
BLACK
6
CONTINUOUS
10
0.308812
20
0.0858745
11
0.313018
21
0.0902909
0
LINE
8
BLACK
6
CONTINUOUS
10
0.313018
20
0.0902909
11
0.314058
21
0.0913837
0
LINE
8
BLACK
6
CONTINUOUS
10
0.314058
20
0.0913837
11
0.319371
21
0.0969621
0
LINE
8
BLACK
6
CONTINUOUS
10
0.615081
20
0.373183
11
0.615336
21
0.372929
0
LINE
8
BLACK
6
CONTINUOUS
10
0.615336
20
0.372929
11
0.615336
21
0.372929
0
LINE
8
BLACK
6
CONTINUOUS
10
0.615336
20
0.372929
11
0.616654
21
0.371613
0
LINE
8
BLACK
6
CONTINUOUS
10
0.616654
20
0.371613
11
0.6182
21
0.370069
0
LINE
8
BLACK
6
CONTINUOUS
10
0.6182
20
0.370069
11
0.618529
21
0.369924
0
LINE
8
BLACK
6
CONTINUOUS
10
0.618529
20
0.369924
11
0.621963
21
0.368406
0
LINE
8
BLACK
6
CONTINUOUS
10
0.621963
20
0.368406
11
0.621963
21
0.368406
0
LINE
8
BLACK
6
CONTINUOUS
10
0.621963
20
0.368406
11
0.622231
21
0.368287
0
LINE
8
BLACK
6
CONTINUOUS
10
0.622231
20
0.368287
11
0.622522
21
0.368253
0
LINE
8
BLACK
6
CONTINUOUS
10
0.622522
20
0.368253
11
0.623125
21
0.368183
0
LINE
8
BLACK
6
CONTINUOUS
10
0.623125
20
0.368183
11
0.623242
21
0.368169
0
LINE
8
BLACK
6
CONTINUOUS
10
0.623242
20
0.368169
11
0.686758
21
0.368169
0
LINE
8
BLACK
6
CONTINUOUS
10
0.686758
20
0.368169
11
0.687463
21
0.368253
0
LINE
8
BLACK
6
CONTINUOUS
10
0.687463
20
0.368253
11
0.687499
21
0.368257
0
LINE
8
BLACK
6
CONTINUOUS
10
0.687499
20
0.368257
11
0.687499
21
0.368257
0
LINE
8
BLACK
6
CONTINUOUS
10
0.687499
20
0.368257
11
0.687789
21
0.368292
0
LINE
8
BLACK
6
CONTINUOUS
10
0.687789
20
0.368292
11
0.691817
21
0.370081
0
LINE
8
BLACK
6
CONTINUOUS
10
0.691817
20
0.370081
11
0.694931
21
0.3732
0
LINE
8
BLACK
6
CONTINUOUS
10
0.694931
20
0.3732
11
0.696713
21
0.377231
0
LINE
8
BLACK
6
CONTINUOUS
10
0.696713
20
0.377231
11
0.696831
21
0.378242
0
LINE
8
BLACK
6
CONTINUOUS
10
0.696831
20
0.378242
11
0.696831
21
0.441758
0
LINE
8
BLACK
6
CONTINUOUS
10
0.696831
20
0.441758
11
0.696708
21
0.442789
0
LINE
8
BLACK
6
CONTINUOUS
10
0.696708
20
0.442789
11
0.694919
21
0.446817
0
LINE
8
BLACK
6
CONTINUOUS
10
0.694919
20
0.446817
11
0.6918
21
0.449931
0
LINE
8
BLACK
6
CONTINUOUS
10
0.6918
20
0.449931
11
0.690653
21
0.450438
0
LINE
8
BLACK
6
CONTINUOUS
10
0.690653
20
0.450438
11
0.688037
21
0.451594
0
LINE
8
BLACK
6
CONTINUOUS
10
0.688037
20
0.451594
11
0.688037
21
0.451594
0
LINE
8
BLACK
6
CONTINUOUS
10
0.688037
20
0.451594
11
0.687769
21
0.451713
0
LINE
8
BLACK
6
CONTINUOUS
10
0.687769
20
0.451713
11
0.687217
21
0.451777
0
LINE
8
BLACK
6
CONTINUOUS
10
0.687217
20
0.451777
11
0.68687
21
0.451818
0
LINE
8
BLACK
6
CONTINUOUS
10
0.68687
20
0.451818
11
0.68687
21
0.451818
0
LINE
8
BLACK
6
CONTINUOUS
10
0.68687
20
0.451818
11
0.686758
21
0.451831
0
LINE
8
BLACK
6
CONTINUOUS
10
0.686758
20
0.451831
11
0.623242
21
0.451831
0
LINE
8
BLACK
6
CONTINUOUS
10
0.623242
20
0.451831
11
0.622596
21
0.451754
0
LINE
8
BLACK
6
CONTINUOUS
10
0.622596
20
0.451754
11
0.622501
21
0.451743
0
LINE
8
BLACK
6
CONTINUOUS
10
0.622501
20
0.451743
11
0.622501
21
0.451743
0
LINE
8
BLACK
6
CONTINUOUS
10
0.622501
20
0.451743
11
0.622211
21
0.451708
0
LINE
8
BLACK
6
CONTINUOUS
10
0.622211
20
0.451708
11
0.618183
21
0.449919
0
LINE
8
BLACK
6
CONTINUOUS
10
0.618183
20
0.449919
11
0.615069
21
0.4468
0
LINE
8
BLACK
6
CONTINUOUS
10
0.615069
20
0.4468
11
0.613287
21
0.442769
0
LINE
8
BLACK
6
CONTINUOUS
10
0.613287
20
0.442769
11
0.613169
21
0.441758
0
LINE
8
BLACK
6
CONTINUOUS
10
0.613169
20
0.441758
11
0.613169
21
0.378242
0
LINE
8
BLACK
6
CONTINUOUS
10
0.613169
20
0.378242
11
0.613292
21
0.377211
0
LINE
8
BLACK
6
CONTINUOUS
10
0.613292
20
0.377211
11
0.615081
21
0.373183
0
LINE
8
BLACK
6
CONTINUOUS
10
0.697246
20
0.490057
11
0.697266
21
0.489873
0
LINE
8
BLACK
6
CONTINUOUS
10
0.697266
20
0.489873
11
0.697953
21
0.483656
0
LINE
8
BLACK
6
CONTINUOUS
10
0.697953
20
0.483656
11
0.700247
21
0.477388
0
LINE
8
BLACK
6
CONTINUOUS
10
0.700247
20
0.477388
11
0.700378
21
0.477193
0
LINE
8
BLACK
6
CONTINUOUS
10
0.700378
20
0.477193
11
0.700378
21
0.477193
0
LINE
8
BLACK
6
CONTINUOUS
10
0.700378
20
0.477193
11
0.700893
21
0.476425
0
LINE
8
BLACK
6
CONTINUOUS
10
0.700893
20
0.476425
11
0.70397
21
0.471847
0
LINE
8
BLACK
6
CONTINUOUS
10
0.70397
20
0.471847
11
0.708907
21
0.467355
0
LINE
8
BLACK
6
CONTINUOUS
10
0.708907
20
0.467355
11
0.714773
21
0.46417
0
LINE
8
BLACK
6
CONTINUOUS
10
0.714773
20
0.46417
11
0.716149
21
0.463809
0
LINE
8
BLACK
6
CONTINUOUS
10
0.716149
20
0.463809
11
0.721003
21
0.462535
0
LINE
8
BLACK
6
CONTINUOUS
10
0.721003
20
0.462535
11
0.721003
21
0.462535
0
LINE
8
BLACK
6
CONTINUOUS
10
0.721003
20
0.462535
11
0.72123
21
0.462476
0
LINE
8
BLACK
6
CONTINUOUS
10
0.72123
20
0.462476
11
0.721464
21
0.462472
0
LINE
8
BLACK
6
CONTINUOUS
10
0.721464
20
0.462472
11
0.721464
21
0.462472
0
LINE
8
BLACK
6
CONTINUOUS
10
0.721464
20
0.462472
11
0.724566
21
0.462423
0
LINE
8
BLACK
6
CONTINUOUS
10
0.724566
20
0.462423
11
0.727904
21
0.462371
0
LINE
8
BLACK
6
CONTINUOUS
10
0.727904
20
0.462371
11
0.728133
21
0.462423
0
LINE
8
BLACK
6
CONTINUOUS
10
0.728133
20
0.462423
11
0.728133
21
0.462423
0
LINE
8
BLACK
6
CONTINUOUS
10
0.728133
20
0.462423
11
0.734181
21
0.463809
0
LINE
8
BLACK
6
CONTINUOUS
10
0.734181
20
0.463809
11
0.734181
21
0.463809
0
LINE
8
BLACK
6
CONTINUOUS
10
0.734181
20
0.463809
11
0.734411
21
0.463861
0
LINE
8
BLACK
6
CONTINUOUS
10
0.734411
20
0.463861
11
0.735024
21
0.46417
0
LINE
8
BLACK
6
CONTINUOUS
10
0.735024
20
0.46417
11
0.740164
21
0.466755
0
LINE
8
BLACK
6
CONTINUOUS
10
0.740164
20
0.466755
11
0.740374
21
0.46686
0
LINE
8
BLACK
6
CONTINUOUS
10
0.740374
20
0.46686
11
0.740553
21
0.467013
0
LINE
8
BLACK
6
CONTINUOUS
10
0.740553
20
0.467013
11
0.740553
21
0.467013
0
LINE
8
BLACK
6
CONTINUOUS
10
0.740553
20
0.467013
11
0.745271
21
0.471043
0
LINE
8
BLACK
6
CONTINUOUS
10
0.745271
20
0.471043
11
0.745271
21
0.471043
0
LINE
8
BLACK
6
CONTINUOUS
10
0.745271
20
0.471043
11
0.74545
21
0.471196
0
LINE
8
BLACK
6
CONTINUOUS
10
0.74545
20
0.471196
11
0.749345
21
0.476616
0
LINE
8
BLACK
6
CONTINUOUS
10
0.749345
20
0.476616
11
0.751835
21
0.48281
0
LINE
8
BLACK
6
CONTINUOUS
10
0.751835
20
0.48281
11
0.752775
21
0.489418
0
LINE
8
BLACK
6
CONTINUOUS
10
0.752775
20
0.489418
11
0.752781
21
0.49
0
LINE
8
BLACK
6
CONTINUOUS
10
0.752781
20
0.49
11
0.751979
21
0.496627
0
LINE
8
BLACK
6
CONTINUOUS
10
0.751979
20
0.496627
11
0.74962
21
0.502871
0
LINE
8
BLACK
6
CONTINUOUS
10
0.74962
20
0.502871
11
0.749311
21
0.50332
0
LINE
8
BLACK
6
CONTINUOUS
10
0.749311
20
0.50332
11
0.747359
21
0.506161
0
LINE
8
BLACK
6
CONTINUOUS
10
0.747359
20
0.506161
11
0.746673
21
0.508369
0
LINE
8
BLACK
6
CONTINUOUS
10
0.746673
20
0.508369
11
0.746673
21
0.711643
0
LINE
8
BLACK
6
CONTINUOUS
10
0.746673
20
0.711643
11
0.747406
21
0.713917
0
LINE
8
BLACK
6
CONTINUOUS
10
0.747406
20
0.713917
11
0.749345
21
0.716616
0
LINE
8
BLACK
6
CONTINUOUS
10
0.749345
20
0.716616
11
0.751835
21
0.72281
0
LINE
8
BLACK
6
CONTINUOUS
10
0.751835
20
0.72281
11
0.752775
21
0.729418
0
LINE
8
BLACK
6
CONTINUOUS
10
0.752775
20
0.729418
11
0.752781
21
0.73
0
LINE
8
BLACK
6
CONTINUOUS
10
0.752781
20
0.73
11
0.751979
21
0.736627
0
LINE
8
BLACK
6
CONTINUOUS
10
0.751979
20
0.736627
11
0.74962
21
0.742871
0
LINE
8
BLACK
6
CONTINUOUS
10
0.74962
20
0.742871
11
0.745839
21
0.748372
0
LINE
8
BLACK
6
CONTINUOUS
10
0.745839
20
0.748372
11
0.740855
21
0.752813
0
LINE
8
BLACK
6
CONTINUOUS
10
0.740855
20
0.752813
11
0.734956
21
0.755936
0
LINE
8
BLACK
6
CONTINUOUS
10
0.734956
20
0.755936
11
0.731719
21
0.756749
0
LINE
8
BLACK
6
CONTINUOUS
10
0.731719
20
0.756749
11
0.72871
21
0.757505
0
LINE
8
BLACK
6
CONTINUOUS
10
0.72871
20
0.757505
11
0.72871
21
0.757505
0
LINE
8
BLACK
6
CONTINUOUS
10
0.72871
20
0.757505
11
0.728482
21
0.757562
0
LINE
8
BLACK
6
CONTINUOUS
10
0.728482
20
0.757562
11
0.725112
21
0.75758
0
LINE
8
BLACK
6
CONTINUOUS
10
0.725112
20
0.75758
11
0.722042
21
0.757596
0
LINE
8
BLACK
6
CONTINUOUS
10
0.722042
20
0.757596
11
0.722042
21
0.757596
0
LINE
8
BLACK
6
CONTINUOUS
10
0.722042
20
0.757596
11
0.721807
21
0.757597
0
LINE
8
BLACK
6
CONTINUOUS
10
0.721807
20
0.757597
11
0.721579
21
0.757542
0
LINE
8
BLACK
6
CONTINUOUS
10
0.721579
20
0.757542
11
0.721579
21
0.757542
0
LINE
8
BLACK
6
CONTINUOUS
10
0.721579
20
0.757542
11
0.717351
21
0.756527
0
LINE
8
BLACK
6
CONTINUOUS
10
0.717351
20
0.756527
11
0.715316
21
0.756039
0
LINE
8
BLACK
6
CONTINUOUS
10
0.715316
20
0.756039
11
0.71235
21
0.754508
0
LINE
8
BLACK
6
CONTINUOUS
10
0.71235
20
0.754508
11
0.709594
21
0.753085
0
LINE
8
BLACK
6
CONTINUOUS
10
0.709594
20
0.753085
11
0.709593
21
0.753085
0
LINE
8
BLACK
6
CONTINUOUS
10
0.709593
20
0.753085
11
0.709385
21
0.752977
0
LINE
8
BLACK
6
CONTINUOUS
10
0.709385
20
0.752977
11
0.704354
21
0.748589
0
LINE
8
BLACK
6
CONTINUOUS
10
0.704354
20
0.748589
11
0.700516
21
0.743128
0
LINE
8
BLACK
6
CONTINUOUS
10
0.700516
20
0.743128
11
0.698091
21
0.736909
0
LINE
8
BLACK
6
CONTINUOUS
10
0.698091
20
0.736909
11
0.69722
21
0.730291
0
LINE
8
BLACK
6
CONTINUOUS
10
0.69722
20
0.730291
11
0.697246
21
0.730057
0
LINE
8
BLACK
6
CONTINUOUS
10
0.697246
20
0.730057
11
0.697246
21
0.730057
0
LINE
8
BLACK
6
CONTINUOUS
10
0.697246
20
0.730057
11
0.697266
21
0.729873
0
LINE
8
BLACK
6
CONTINUOUS
10
0.697266
20
0.729873
11
0.697953
21
0.723656
0
LINE
8
BLACK
6
CONTINUOUS
10
0.697953
20
0.723656
11
0.700247
21
0.717388
0
LINE
8
BLACK
6
CONTINUOUS
10
0.700247
20
0.717388
11
0.700378
21
0.717193
0
LINE
8
BLACK
6
CONTINUOUS
10
0.700378
20
0.717193
11
0.702664
21
0.71379
0
LINE
8
BLACK
6
CONTINUOUS
10
0.702664
20
0.71379
11
0.703327
21
0.711616
0
LINE
8
BLACK
6
CONTINUOUS
10
0.703327
20
0.711616
11
0.703327
21
0.50836
0
LINE
8
BLACK
6
CONTINUOUS
10
0.703327
20
0.50836
11
0.702618
21
0.506119
0
LINE
8
BLACK
6
CONTINUOUS
10
0.702618
20
0.506119
11
0.700516
21
0.503128
0
LINE
8
BLACK
6
CONTINUOUS
10
0.700516
20
0.503128
11
0.698091
21
0.496909
0
LINE
8
BLACK
6
CONTINUOUS
10
0.698091
20
0.496909
11
0.69722
21
0.490291
0
LINE
8
BLACK
6
CONTINUOUS
10
0.69722
20
0.490291
11
0.697246
21
0.490057
0
LINE
8
BLACK
6
CONTINUOUS
10
0.697246
20
0.490057
11
0.697246
21
0.490057
0
LINE
8
BLACK
6
CONTINUOUS
10
0.325081
20
0.813183
11
0.3282
21
0.810069
0
LINE
8
BLACK
6
CONTINUOUS
10
0.3282
20
0.810069
11
0.328529
21
0.809924
0
LINE
8
BLACK
6
CONTINUOUS
10
0.328529
20
0.809924
11
0.331963
21
0.808406
0
LINE
8
BLACK
6
CONTINUOUS
10
0.331963
20
0.808406
11
0.331963
21
0.808406
0
LINE
8
BLACK
6
CONTINUOUS
10
0.331963
20
0.808406
11
0.332231
21
0.808287
0
LINE
8
BLACK
6
CONTINUOUS
10
0.332231
20
0.808287
11
0.332522
21
0.808253
0
LINE
8
BLACK
6
CONTINUOUS
10
0.332522
20
0.808253
11
0.333125
21
0.808183
0
LINE
8
BLACK
6
CONTINUOUS
10
0.333125
20
0.808183
11
0.333242
21
0.808169
0
LINE
8
BLACK
6
CONTINUOUS
10
0.333242
20
0.808169
11
0.486758
21
0.808169
0
LINE
8
BLACK
6
CONTINUOUS
10
0.486758
20
0.808169
11
0.487463
21
0.808253
0
LINE
8
BLACK
6
CONTINUOUS
10
0.487463
20
0.808253
11
0.487499
21
0.808257
0
LINE
8
BLACK
6
CONTINUOUS
10
0.487499
20
0.808257
11
0.487499
21
0.808257
0
LINE
8
BLACK
6
CONTINUOUS
10
0.487499
20
0.808257
11
0.487789
21
0.808292
0
LINE
8
BLACK
6
CONTINUOUS
10
0.487789
20
0.808292
11
0.491817
21
0.810081
0
LINE
8
BLACK
6
CONTINUOUS
10
0.491817
20
0.810081
11
0.492259
21
0.810524
0
LINE
8
BLACK
6
CONTINUOUS
10
0.492259
20
0.810524
11
0.494677
21
0.812946
0
LINE
8
BLACK
6
CONTINUOUS
10
0.494677
20
0.812946
11
0.494931
21
0.8132
0
LINE
8
BLACK
6
CONTINUOUS
10
0.494931
20
0.8132
11
0.495438
21
0.814347
0
LINE
8
BLACK
6
CONTINUOUS
10
0.495438
20
0.814347
11
0.496594
21
0.816963
0
LINE
8
BLACK
6
CONTINUOUS
10
0.496594
20
0.816963
11
0.496594
21
0.816963
0
LINE
8
BLACK
6
CONTINUOUS
10
0.496594
20
0.816963
11
0.496713
21
0.817231
0
LINE
8
BLACK
6
CONTINUOUS
10
0.496713
20
0.817231
11
0.496831
21
0.818242
0
LINE
8
BLACK
6
CONTINUOUS
10
0.496831
20
0.818242
11
0.496831
21
0.971758
0
LINE
8
BLACK
6
CONTINUOUS
10
0.496831
20
0.971758
11
0.496708
21
0.972789
0
LINE
8
BLACK
6
CONTINUOUS
10
0.496708
20
0.972789
11
0.494919
21
0.976817
0
LINE
8
BLACK
6
CONTINUOUS
10
0.494919
20
0.976817
11
0.4918
21
0.979931
0
LINE
8
BLACK
6
CONTINUOUS
10
0.4918
20
0.979931
11
0.490653
21
0.980438
0
LINE
8
BLACK
6
CONTINUOUS
10
0.490653
20
0.980438
11
0.488037
21
0.981594
0
LINE
8
BLACK
6
CONTINUOUS
10
0.488037
20
0.981594
11
0.488037
21
0.981594
0
LINE
8
BLACK
6
CONTINUOUS
10
0.488037
20
0.981594
11
0.487769
21
0.981713
0
LINE
8
BLACK
6
CONTINUOUS
10
0.487769
20
0.981713
11
0.487217
21
0.981777
0
LINE
8
BLACK
6
CONTINUOUS
10
0.487217
20
0.981777
11
0.48687
21
0.981818
0
LINE
8
BLACK
6
CONTINUOUS
10
0.48687
20
0.981818
11
0.48687
21
0.981818
0
LINE
8
BLACK
6
CONTINUOUS
10
0.48687
20
0.981818
11
0.486758
21
0.981831
0
LINE
8
BLACK
6
CONTINUOUS
10
0.486758
20
0.981831
11
0.333242
21
0.981831
0
LINE
8
BLACK
6
CONTINUOUS
10
0.333242
20
0.981831
11
0.332596
21
0.981754
0
LINE
8
BLACK
6
CONTINUOUS
10
0.332596
20
0.981754
11
0.332501
21
0.981743
0
LINE
8
BLACK
6
CONTINUOUS
10
0.332501
20
0.981743
11
0.332501
21
0.981743
0
LINE
8
BLACK
6
CONTINUOUS
10
0.332501
20
0.981743
11
0.332211
21
0.981708
0
LINE
8
BLACK
6
CONTINUOUS
10
0.332211
20
0.981708
11
0.328183
21
0.979919
0
LINE
8
BLACK
6
CONTINUOUS
10
0.328183
20
0.979919
11
0.325069
21
0.9768
0
LINE
8
BLACK
6
CONTINUOUS
10
0.325069
20
0.9768
11
0.323287
21
0.972769
0
LINE
8
BLACK
6
CONTINUOUS
10
0.323287
20
0.972769
11
0.323169
21
0.971758
0
LINE
8
BLACK
6
CONTINUOUS
10
0.323169
20
0.971758
11
0.323169
21
0.818242
0
LINE
8
BLACK
6
CONTINUOUS
10
0.323169
20
0.818242
11
0.323292
21
0.817211
0
LINE
8
BLACK
6
CONTINUOUS
10
0.323292
20
0.817211
11
0.325081
21
0.813183
0
LINE
8
BLACK
6
CONTINUOUS
10
0.299858
20
0.972789
11
0.298068
21
0.976817
0
LINE
8
BLACK
6
CONTINUOUS
10
0.298068
20
0.976817
11
0.294949
21
0.979931
0
LINE
8
BLACK
6
CONTINUOUS
10
0.294949
20
0.979931
11
0.293803
21
0.980438
0
LINE
8
BLACK
6
CONTINUOUS
10
0.293803
20
0.980438
11
0.291186
21
0.981594
0
LINE
8
BLACK
6
CONTINUOUS
10
0.291186
20
0.981594
11
0.291186
21
0.981594
0
LINE
8
BLACK
6
CONTINUOUS
10
0.291186
20
0.981594
11
0.290918
21
0.981713
0
LINE
8
BLACK
6
CONTINUOUS
10
0.290918
20
0.981713
11
0.290367
21
0.981777
0
LINE
8
BLACK
6
CONTINUOUS
10
0.290367
20
0.981777
11
0.290019
21
0.981818
0
LINE
8
BLACK
6
CONTINUOUS
10
0.290019
20
0.981818
11
0.290019
21
0.981818
0
LINE
8
BLACK
6
CONTINUOUS
10
0.290019
20
0.981818
11
0.289907
21
0.981831
0
LINE
8
BLACK
6
CONTINUOUS
10
0.289907
20
0.981831
11
0.136392
21
0.981831
0
LINE
8
BLACK
6
CONTINUOUS
10
0.136392
20
0.981831
11
0.135746
21
0.981754
0
LINE
8
BLACK
6
CONTINUOUS
10
0.135746
20
0.981754
11
0.135651
21
0.981743
0
LINE
8
BLACK
6
CONTINUOUS
10
0.135651
20
0.981743
11
0.135651
21
0.981743
0
LINE
8
BLACK
6
CONTINUOUS
10
0.135651
20
0.981743
11
0.13536
21
0.981708
0
LINE
8
BLACK
6
CONTINUOUS
10
0.13536
20
0.981708
11
0.131333
21
0.979919
0
LINE
8
BLACK
6
CONTINUOUS
10
0.131333
20
0.979919
11
0.128219
21
0.9768
0
LINE
8
BLACK
6
CONTINUOUS
10
0.128219
20
0.9768
11
0.126437
21
0.972769
0
LINE
8
BLACK
6
CONTINUOUS
10
0.126437
20
0.972769
11
0.126319
21
0.971758
0
LINE
8
BLACK
6
CONTINUOUS
10
0.126319
20
0.971758
11
0.126319
21
0.818242
0
LINE
8
BLACK
6
CONTINUOUS
10
0.126319
20
0.818242
11
0.126442
21
0.817211
0
LINE
8
BLACK
6
CONTINUOUS
10
0.126442
20
0.817211
11
0.128231
21
0.813183
0
LINE
8
BLACK
6
CONTINUOUS
10
0.128231
20
0.813183
11
0.13135
21
0.810069
0
LINE
8
BLACK
6
CONTINUOUS
10
0.13135
20
0.810069
11
0.131679
21
0.809924
0
LINE
8
BLACK
6
CONTINUOUS
10
0.131679
20
0.809924
11
0.135113
21
0.808406
0
LINE
8
BLACK
6
CONTINUOUS
10
0.135113
20
0.808406
11
0.135113
21
0.808406
0
LINE
8
BLACK
6
CONTINUOUS
10
0.135113
20
0.808406
11
0.135381
21
0.808287
0
LINE
8
BLACK
6
CONTINUOUS
10
0.135381
20
0.808287
11
0.135672
21
0.808253
0
LINE
8
BLACK
6
CONTINUOUS
10
0.135672
20
0.808253
11
0.136275
21
0.808183
0
LINE
8
BLACK
6
CONTINUOUS
10
0.136275
20
0.808183
11
0.136392
21
0.808169
0
LINE
8
BLACK
6
CONTINUOUS
10
0.136392
20
0.808169
11
0.289907
21
0.808169
0
LINE
8
BLACK
6
CONTINUOUS
10
0.289907
20
0.808169
11
0.290613
21
0.808253
0
LINE
8
BLACK
6
CONTINUOUS
10
0.290613
20
0.808253
11
0.290648
21
0.808257
0
LINE
8
BLACK
6
CONTINUOUS
10
0.290648
20
0.808257
11
0.290648
21
0.808257
0
LINE
8
BLACK
6
CONTINUOUS
10
0.290648
20
0.808257
11
0.290939
21
0.808292
0
LINE
8
BLACK
6
CONTINUOUS
10
0.290939
20
0.808292
11
0.294967
21
0.810081
0
LINE
8
BLACK
6
CONTINUOUS
10
0.294967
20
0.810081
11
0.295409
21
0.810524
0
LINE
8
BLACK
6
CONTINUOUS
10
0.295409
20
0.810524
11
0.297826
21
0.812946
0
LINE
8
BLACK
6
CONTINUOUS
10
0.297826
20
0.812946
11
0.29808
21
0.8132
0
LINE
8
BLACK
6
CONTINUOUS
10
0.29808
20
0.8132
11
0.298587
21
0.814347
0
LINE
8
BLACK
6
CONTINUOUS
10
0.298587
20
0.814347
11
0.299744
21
0.816963
0
LINE
8
BLACK
6
CONTINUOUS
10
0.299744
20
0.816963
11
0.299744
21
0.816963
0
LINE
8
BLACK
6
CONTINUOUS
10
0.299744
20
0.816963
11
0.299862
21
0.817231
0
LINE
8
BLACK
6
CONTINUOUS
10
0.299862
20
0.817231
11
0.29998
21
0.818242
0
LINE
8
BLACK
6
CONTINUOUS
10
0.29998
20
0.818242
11
0.29998
21
0.971758
0
LINE
8
BLACK
6
CONTINUOUS
10
0.29998
20
0.971758
11
0.299858
21
0.972789
0
LINE
8
BLACK
6
CONTINUOUS
10
1.2449
20
1.37153
11
1.24842
21
1.35653
0
LINE
8
BLACK
6
CONTINUOUS
10
1.24842
20
1.35653
11
1.25338
21
1.34195
0
LINE
8
BLACK
6
CONTINUOUS
10
1.25338
20
1.34195
11
1.25342
21
1.34186
0
LINE
8
BLACK
6
CONTINUOUS
10
1.25342
20
1.34186
11
1.25342
21
1.34186
0
LINE
8
BLACK
6
CONTINUOUS
10
1.25342
20
1.34186
11
1.25615
21
1.33586
0
LINE
8
BLACK
6
CONTINUOUS
10
1.25615
20
1.33586
11
1.25975
21
1.32792
0
LINE
8
BLACK
6
CONTINUOUS
10
1.25975
20
1.32792
11
1.26745
21
1.31458
0
LINE
8
BLACK
6
CONTINUOUS
10
1.26745
20
1.31458
11
1.26751
21
1.3145
0
LINE
8
BLACK
6
CONTINUOUS
10
1.26751
20
1.3145
11
1.26751
21
1.3145
0
LINE
8
BLACK
6
CONTINUOUS
10
1.26751
20
1.3145
11
1.27636
21
1.30213
0
LINE
8
BLACK
6
CONTINUOUS
10
1.27636
20
1.30213
11
1.27642
21
1.30205
0
LINE
8
BLACK
6
CONTINUOUS
10
1.27642
20
1.30205
11
1.28657
21
1.29046
0
LINE
8
BLACK
6
CONTINUOUS
10
1.28657
20
1.29046
11
1.28664
21
1.29039
0
LINE
8
BLACK
6
CONTINUOUS
10
1.28664
20
1.29039
11
1.28664
21
1.29039
0
LINE
8
BLACK
6
CONTINUOUS
10
1.28664
20
1.29039
11
1.29145
21
1.28587
0
LINE
8
BLACK
6
CONTINUOUS
10
1.29145
20
1.28587
11
1.2978
21
1.27991
0
LINE
8
BLACK
6
CONTINUOUS
10
1.2978
20
1.27991
11
1.31
21
1.27051
0
LINE
8
BLACK
6
CONTINUOUS
10
1.31
20
1.27051
11
1.31008
21
1.27046
0
LINE
8
BLACK
6
CONTINUOUS
10
1.31008
20
1.27046
11
1.32299
21
1.2624
0
LINE
8
BLACK
6
CONTINUOUS
10
1.32299
20
1.2624
11
1.32299
21
1.2624
0
LINE
8
BLACK
6
CONTINUOUS
10
1.32299
20
1.2624
11
1.32307
21
1.26235
0
LINE
8
BLACK
6
CONTINUOUS
10
1.32307
20
1.26235
11
1.32315
21
1.26231
0
LINE
8
BLACK
6
CONTINUOUS
10
1.32315
20
1.26231
11
1.32315
21
1.26231
0
LINE
8
BLACK
6
CONTINUOUS
10
1.32315
20
1.26231
11
1.33678
21
1.25554
0
LINE
8
BLACK
6
CONTINUOUS
10
1.33678
20
1.25554
11
1.33687
21
1.2555
0
LINE
8
BLACK
6
CONTINUOUS
10
1.33687
20
1.2555
11
1.35127
21
1.25003
0
LINE
8
BLACK
6
CONTINUOUS
10
1.35127
20
1.25003
11
1.36614
21
1.24599
0
LINE
8
BLACK
6
CONTINUOUS
10
1.36614
20
1.24599
11
1.38133
21
1.24342
0
LINE
8
BLACK
6
CONTINUOUS
10
1.38133
20
1.24342
11
1.38142
21
1.24341
0
LINE
8
BLACK
6
CONTINUOUS
10
1.38142
20
1.24341
11
1.38142
21
1.24341
0
LINE
8
BLACK
6
CONTINUOUS
10
1.38142
20
1.24341
11
1.3966
21
1.24235
0
LINE
8
BLACK
6
CONTINUOUS
10
1.3966
20
1.24235
11
1.3966
21
1.24235
0
LINE
8
BLACK
6
CONTINUOUS
10
1.3966
20
1.24235
11
1.3967
21
1.24234
0
LINE
8
BLACK
6
CONTINUOUS
10
1.3967
20
1.24234
11
1.39679
21
1.24235
0
LINE
8
BLACK
6
CONTINUOUS
10
1.39679
20
1.24235
11
1.39679
21
1.24235
0
LINE
8
BLACK
6
CONTINUOUS
10
1.39679
20
1.24235
11
1.412
21
1.24277
0
LINE
8
BLACK
6
CONTINUOUS
10
1.412
20
1.24277
11
1.412
21
1.24277
0
LINE
8
BLACK
6
CONTINUOUS
10
1.412
20
1.24277
11
1.4121
21
1.24277
0
LINE
8
BLACK
6
CONTINUOUS
10
1.4121
20
1.24277
11
1.42738
21
1.24471
0
LINE
8
BLACK
6
CONTINUOUS
10
1.42738
20
1.24471
11
1.42748
21
1.24473
0
LINE
8
BLACK
6
CONTINUOUS
10
1.42748
20
1.24473
11
1.42748
21
1.24473
0
LINE
8
BLACK
6
CONTINUOUS
10
1.42748
20
1.24473
11
1.44231
21
1.2481
0
LINE
8
BLACK
6
CONTINUOUS
10
1.44231
20
1.2481
11
1.44231
21
1.2481
0
LINE
8
BLACK
6
CONTINUOUS
10
1.44231
20
1.2481
11
1.44241
21
1.24812
0
LINE
8
BLACK
6
CONTINUOUS
10
1.44241
20
1.24812
11
1.45702
21
1.25298
0
LINE
8
BLACK
6
CONTINUOUS
10
1.45702
20
1.25298
11
1.4711
21
1.25925
0
LINE
8
BLACK
6
CONTINUOUS
10
1.4711
20
1.25925
11
1.48449
21
1.26686
0
LINE
8
BLACK
6
CONTINUOUS
10
1.48449
20
1.26686
11
1.48968
21
1.27051
0
LINE
8
BLACK
6
CONTINUOUS
10
1.48968
20
1.27051
11
1.49701
21
1.27568
0
LINE
8
BLACK
6
CONTINUOUS
10
1.49701
20
1.27568
11
1.49708
21
1.27574
0
LINE
8
BLACK
6
CONTINUOUS
10
1.49708
20
1.27574
11
1.49716
21
1.2758
0
LINE
8
BLACK
6
CONTINUOUS
10
1.49716
20
1.2758
11
1.49716
21
1.2758
0
LINE
8
BLACK
6
CONTINUOUS
10
1.49716
20
1.2758
11
1.50867
21
1.28574
0
LINE
8
BLACK
6
CONTINUOUS
10
1.50867
20
1.28574
11
1.50867
21
1.28574
0
LINE
8
BLACK
6
CONTINUOUS
10
1.50867
20
1.28574
11
1.50875
21
1.28581
0
LINE
8
BLACK
6
CONTINUOUS
10
1.50875
20
1.28581
11
1.50881
21
1.28587
0
LINE
8
BLACK
6
CONTINUOUS
10
1.50881
20
1.28587
11
1.50881
21
1.28587
0
LINE
8
BLACK
6
CONTINUOUS
10
1.50881
20
1.28587
11
1.51406
21
1.29138
0
LINE
8
BLACK
6
CONTINUOUS
10
1.51406
20
1.29138
11
1.51937
21
1.29696
0
LINE
8
BLACK
6
CONTINUOUS
10
1.51937
20
1.29696
11
1.52886
21
1.3091
0
LINE
8
BLACK
6
CONTINUOUS
10
1.52886
20
1.3091
11
1.52891
21
1.30918
0
LINE
8
BLACK
6
CONTINUOUS
10
1.52891
20
1.30918
11
1.52891
21
1.30918
0
LINE
8
BLACK
6
CONTINUOUS
10
1.52891
20
1.30918
11
1.53706
21
1.32203
0
LINE
8
BLACK
6
CONTINUOUS
10
1.53706
20
1.32203
11
1.53706
21
1.32203
0
LINE
8
BLACK
6
CONTINUOUS
10
1.53706
20
1.32203
11
1.53711
21
1.32211
0
LINE
8
BLACK
6
CONTINUOUS
10
1.53711
20
1.32211
11
1.54406
21
1.33586
0
LINE
8
BLACK
6
CONTINUOUS
10
1.54406
20
1.33586
11
1.54963
21
1.35023
0
LINE
8
BLACK
6
CONTINUOUS
10
1.54963
20
1.35023
11
1.55377
21
1.36506
0
LINE
8
BLACK
6
CONTINUOUS
10
1.55377
20
1.36506
11
1.55645
21
1.38024
0
LINE
8
BLACK
6
CONTINUOUS
10
1.55645
20
1.38024
11
1.55763
21
1.3956
0
LINE
8
BLACK
6
CONTINUOUS
10
1.55763
20
1.3956
11
1.55769
21
1.4
0
LINE
8
BLACK
6
CONTINUOUS
10
1.55769
20
1.4
11
1.55694
21
1.41539
0
LINE
8
BLACK
6
CONTINUOUS
10
1.55694
20
1.41539
11
1.55469
21
1.43063
0
LINE
8
BLACK
6
CONTINUOUS
10
1.55469
20
1.43063
11
1.55096
21
1.44558
0
LINE
8
BLACK
6
CONTINUOUS
10
1.55096
20
1.44558
11
1.54579
21
1.46009
0
LINE
8
BLACK
6
CONTINUOUS
10
1.54579
20
1.46009
11
1.54575
21
1.46018
0
LINE
8
BLACK
6
CONTINUOUS
10
1.54575
20
1.46018
11
1.54575
21
1.46018
0
LINE
8
BLACK
6
CONTINUOUS
10
1.54575
20
1.46018
11
1.54268
21
1.4667
0
LINE
8
BLACK
6
CONTINUOUS
10
1.54268
20
1.4667
11
1.53923
21
1.47403
0
LINE
8
BLACK
6
CONTINUOUS
10
1.53923
20
1.47403
11
1.53134
21
1.48726
0
LINE
8
BLACK
6
CONTINUOUS
10
1.53134
20
1.48726
11
1.53129
21
1.48734
0
LINE
8
BLACK
6
CONTINUOUS
10
1.53129
20
1.48734
11
1.53129
21
1.48734
0
LINE
8
BLACK
6
CONTINUOUS
10
1.53129
20
1.48734
11
1.52226
21
1.49959
0
LINE
8
BLACK
6
CONTINUOUS
10
1.52226
20
1.49959
11
1.5222
21
1.49966
0
LINE
8
BLACK
6
CONTINUOUS
10
1.5222
20
1.49966
11
1.52214
21
1.49973
0
LINE
8
BLACK
6
CONTINUOUS
10
1.52214
20
1.49973
11
1.52214
21
1.49974
0
LINE
8
BLACK
6
CONTINUOUS
10
1.52214
20
1.49974
11
1.51196
21
1.51104
0
LINE
8
BLACK
6
CONTINUOUS
10
1.51196
20
1.51104
11
1.51189
21
1.51111
0
LINE
8
BLACK
6
CONTINUOUS
10
1.51189
20
1.51111
11
1.51012
21
1.51273
0
LINE
8
BLACK
6
CONTINUOUS
10
1.51012
20
1.51273
11
1.50059
21
1.52144
0
LINE
8
BLACK
6
CONTINUOUS
10
1.50059
20
1.52144
11
1.50059
21
1.52144
0
LINE
8
BLACK
6
CONTINUOUS
10
1.50059
20
1.52144
11
1.50052
21
1.5215
0
LINE
8
BLACK
6
CONTINUOUS
10
1.50052
20
1.5215
11
1.4943
21
1.52615
0
LINE
8
BLACK
6
CONTINUOUS
10
1.4943
20
1.52615
11
1.48826
21
1.53067
0
LINE
8
BLACK
6
CONTINUOUS
10
1.48826
20
1.53067
11
1.48826
21
1.53067
0
LINE
8
BLACK
6
CONTINUOUS
10
1.48826
20
1.53067
11
1.48818
21
1.53073
0
LINE
8
BLACK
6
CONTINUOUS
10
1.48818
20
1.53073
11
1.475
21
1.53871
0
LINE
8
BLACK
6
CONTINUOUS
10
1.475
20
1.53871
11
1.47492
21
1.53875
0
LINE
8
BLACK
6
CONTINUOUS
10
1.47492
20
1.53875
11
1.47492
21
1.53875
0
LINE
8
BLACK
6
CONTINUOUS
10
1.47492
20
1.53875
11
1.46119
21
1.54533
0
LINE
8
BLACK
6
CONTINUOUS
10
1.46119
20
1.54533
11
1.46119
21
1.54533
0
LINE
8
BLACK
6
CONTINUOUS
10
1.46119
20
1.54533
11
1.46111
21
1.54537
0
LINE
8
BLACK
6
CONTINUOUS
10
1.46111
20
1.54537
11
1.44663
21
1.55064
0
LINE
8
BLACK
6
CONTINUOUS
10
1.44663
20
1.55064
11
1.44654
21
1.55066
0
LINE
8
BLACK
6
CONTINUOUS
10
1.44654
20
1.55066
11
1.44654
21
1.55066
0
LINE
8
BLACK
6
CONTINUOUS
10
1.44654
20
1.55066
11
1.4318
21
1.55445
0
LINE
8
BLACK
6
CONTINUOUS
10
1.4318
20
1.55445
11
1.43171
21
1.55447
0
LINE
8
BLACK
6
CONTINUOUS
10
1.43171
20
1.55447
11
1.42552
21
1.55543
0
LINE
8
BLACK
6
CONTINUOUS
10
1.42552
20
1.55543
11
1.41658
21
1.55681
0
LINE
8
BLACK
6
CONTINUOUS
10
1.41658
20
1.55681
11
1.41658
21
1.55681
0
LINE
8
BLACK
6
CONTINUOUS
10
1.41658
20
1.55681
11
1.41648
21
1.55683
0
LINE
8
BLACK
6
CONTINUOUS
10
1.41648
20
1.55683
11
1.41639
21
1.55683
0
LINE
8
BLACK
6
CONTINUOUS
10
1.41639
20
1.55683
11
1.41639
21
1.55683
0
LINE
8
BLACK
6
CONTINUOUS
10
1.41639
20
1.55683
11
1.4012
21
1.55768
0
LINE
8
BLACK
6
CONTINUOUS
10
1.4012
20
1.55768
11
1.4012
21
1.55768
0
LINE
8
BLACK
6
CONTINUOUS
10
1.4012
20
1.55768
11
1.4011
21
1.55769
0
LINE
8
BLACK
6
CONTINUOUS
10
1.4011
20
1.55769
11
1.38571
21
1.55704
0
LINE
8
BLACK
6
CONTINUOUS
10
1.38571
20
1.55704
11
1.37045
21
1.5549
0
LINE
8
BLACK
6
CONTINUOUS
10
1.37045
20
1.5549
11
1.3662
21
1.55387
0
LINE
8
BLACK
6
CONTINUOUS
10
1.3662
20
1.55387
11
1.35557
21
1.5513
0
LINE
8
BLACK
6
CONTINUOUS
10
1.35557
20
1.5513
11
1.35557
21
1.5513
0
LINE
8
BLACK
6
CONTINUOUS
10
1.35557
20
1.5513
11
1.35548
21
1.55127
0
LINE
8
BLACK
6
CONTINUOUS
10
1.35548
20
1.55127
11
1.35356
21
1.55061
0
LINE
8
BLACK
6
CONTINUOUS
10
1.35356
20
1.55061
11
1.34102
21
1.54624
0
LINE
8
BLACK
6
CONTINUOUS
10
1.34102
20
1.54624
11
1.34102
21
1.54624
0
LINE
8
BLACK
6
CONTINUOUS
10
1.34102
20
1.54624
11
1.34093
21
1.54621
0
LINE
8
BLACK
6
CONTINUOUS
10
1.34093
20
1.54621
11
1.32694
21
1.53975
0
LINE
8
BLACK
6
CONTINUOUS
10
1.32694
20
1.53975
11
1.31893
21
1.53504
0
LINE
8
BLACK
6
CONTINUOUS
10
1.31893
20
1.53504
11
1.31374
21
1.532
0
LINE
8
BLACK
6
CONTINUOUS
10
1.31374
20
1.532
11
1.31374
21
1.532
0
LINE
8
BLACK
6
CONTINUOUS
10
1.31374
20
1.532
11
1.31365
21
1.53195
0
LINE
8
BLACK
6
CONTINUOUS
10
1.31365
20
1.53195
11
1.31358
21
1.53189
0
LINE
8
BLACK
6
CONTINUOUS
10
1.31358
20
1.53189
11
1.31358
21
1.53189
0
LINE
8
BLACK
6
CONTINUOUS
10
1.31358
20
1.53189
11
1.30366
21
1.52469
0
LINE
8
BLACK
6
CONTINUOUS
10
1.30366
20
1.52469
11
1.30119
21
1.52289
0
LINE
8
BLACK
6
CONTINUOUS
10
1.30119
20
1.52289
11
1.28967
21
1.51267
0
LINE
8
BLACK
6
CONTINUOUS
10
1.28967
20
1.51267
11
1.28961
21
1.5126
0
LINE
8
BLACK
6
CONTINUOUS
10
1.28961
20
1.5126
11
1.28961
21
1.5126
0
LINE
8
BLACK
6
CONTINUOUS
10
1.28961
20
1.5126
11
1.28472
21
1.50732
0
LINE
8
BLACK
6
CONTINUOUS
10
1.28472
20
1.50732
11
1.2792
21
1.50136
0
LINE
8
BLACK
6
CONTINUOUS
10
1.2792
20
1.50136
11
1.27914
21
1.50129
0
LINE
8
BLACK
6
CONTINUOUS
10
1.27914
20
1.50129
11
1.27914
21
1.50128
0
LINE
8
BLACK
6
CONTINUOUS
10
1.27914
20
1.50128
11
1.27177
21
1.49157
0
LINE
8
BLACK
6
CONTINUOUS
10
1.27177
20
1.49157
11
1.26989
21
1.48909
0
LINE
8
BLACK
6
CONTINUOUS
10
1.26989
20
1.48909
11
1.26182
21
1.47597
0
LINE
8
BLACK
6
CONTINUOUS
10
1.26182
20
1.47597
11
1.26177
21
1.47588
0
LINE
8
BLACK
6
CONTINUOUS
10
1.26177
20
1.47588
11
1.26177
21
1.47588
0
LINE
8
BLACK
6
CONTINUOUS
10
1.26177
20
1.47588
11
1.26087
21
1.47403
0
LINE
8
BLACK
6
CONTINUOUS
10
1.26087
20
1.47403
11
1.25506
21
1.46212
0
LINE
8
BLACK
6
CONTINUOUS
10
1.25506
20
1.46212
11
1.24969
21
1.44768
0
LINE
8
BLACK
6
CONTINUOUS
10
1.24969
20
1.44768
11
1.24576
21
1.43279
0
LINE
8
BLACK
6
CONTINUOUS
10
1.24576
20
1.43279
11
1.24329
21
1.41758
0
LINE
8
BLACK
6
CONTINUOUS
10
1.24329
20
1.41758
11
1.24233
21
1.4022
0
LINE
8
BLACK
6
CONTINUOUS
10
1.24233
20
1.4022
11
1.24286
21
1.3868
0
LINE
8
BLACK
6
CONTINUOUS
10
1.24286
20
1.3868
11
1.2449
21
1.37153
0
LINE
8
BLACK
6
CONTINUOUS
10
1.42671
20
1.08279
11
1.42492
21
1.08682
0
LINE
8
BLACK
6
CONTINUOUS
10
1.42492
20
1.08682
11
1.4218
21
1.08993
0
LINE
8
BLACK
6
CONTINUOUS
10
1.4218
20
1.08993
11
1.42065
21
1.09044
0
LINE
8
BLACK
6
CONTINUOUS
10
1.42065
20
1.09044
11
1.41804
21
1.09159
0
LINE
8
BLACK
6
CONTINUOUS
10
1.41804
20
1.09159
11
1.41804
21
1.09159
0
LINE
8
BLACK
6
CONTINUOUS
10
1.41804
20
1.09159
11
1.41777
21
1.09171
0
LINE
8
BLACK
6
CONTINUOUS
10
1.41777
20
1.09171
11
1.41722
21
1.09178
0
LINE
8
BLACK
6
CONTINUOUS
10
1.41722
20
1.09178
11
1.41687
21
1.09182
0
LINE
8
BLACK
6
CONTINUOUS
10
1.41687
20
1.09182
11
1.41687
21
1.09182
0
LINE
8
BLACK
6
CONTINUOUS
10
1.41687
20
1.09182
11
1.41676
21
1.09183
0
LINE
8
BLACK
6
CONTINUOUS
10
1.41676
20
1.09183
11
1.35324
21
1.09183
0
LINE
8
BLACK
6
CONTINUOUS
10
1.35324
20
1.09183
11
1.3526
21
1.09175
0
LINE
8
BLACK
6
CONTINUOUS
10
1.3526
20
1.09175
11
1.3525
21
1.09174
0
LINE
8
BLACK
6
CONTINUOUS
10
1.3525
20
1.09174
11
1.3525
21
1.09174
0
LINE
8
BLACK
6
CONTINUOUS
10
1.3525
20
1.09174
11
1.35221
21
1.09171
0
LINE
8
BLACK
6
CONTINUOUS
10
1.35221
20
1.09171
11
1.34818
21
1.08992
0
LINE
8
BLACK
6
CONTINUOUS
10
1.34818
20
1.08992
11
1.34507
21
1.0868
0
LINE
8
BLACK
6
CONTINUOUS
10
1.34507
20
1.0868
11
1.34329
21
1.08277
0
LINE
8
BLACK
6
CONTINUOUS
10
1.34329
20
1.08277
11
1.34317
21
1.08176
0
LINE
8
BLACK
6
CONTINUOUS
10
1.34317
20
1.08176
11
1.34317
21
1.01824
0
LINE
8
BLACK
6
CONTINUOUS
10
1.34317
20
1.01824
11
1.34329
21
1.01721
0
LINE
8
BLACK
6
CONTINUOUS
10
1.34329
20
1.01721
11
1.34508
21
1.01318
0
LINE
8
BLACK
6
CONTINUOUS
10
1.34508
20
1.01318
11
1.3482
21
1.01007
0
LINE
8
BLACK
6
CONTINUOUS
10
1.3482
20
1.01007
11
1.34853
21
1.00992
0
LINE
8
BLACK
6
CONTINUOUS
10
1.34853
20
1.00992
11
1.35196
21
1.00841
0
LINE
8
BLACK
6
CONTINUOUS
10
1.35196
20
1.00841
11
1.35196
21
1.00841
0
LINE
8
BLACK
6
CONTINUOUS
10
1.35196
20
1.00841
11
1.35223
21
1.00829
0
LINE
8
BLACK
6
CONTINUOUS
10
1.35223
20
1.00829
11
1.35252
21
1.00825
0
LINE
8
BLACK
6
CONTINUOUS
10
1.35252
20
1.00825
11
1.35313
21
1.00818
0
LINE
8
BLACK
6
CONTINUOUS
10
1.35313
20
1.00818
11
1.35324
21
1.00817
0
LINE
8
BLACK
6
CONTINUOUS
10
1.35324
20
1.00817
11
1.41676
21
1.00817
0
LINE
8
BLACK
6
CONTINUOUS
10
1.41676
20
1.00817
11
1.41746
21
1.00825
0
LINE
8
BLACK
6
CONTINUOUS
10
1.41746
20
1.00825
11
1.4175
21
1.00826
0
LINE
8
BLACK
6
CONTINUOUS
10
1.4175
20
1.00826
11
1.4175
21
1.00826
0
LINE
8
BLACK
6
CONTINUOUS
10
1.4175
20
1.00826
11
1.41779
21
1.00829
0
LINE
8
BLACK
6
CONTINUOUS
10
1.41779
20
1.00829
11
1.42182
21
1.01008
0
LINE
8
BLACK
6
CONTINUOUS
10
1.42182
20
1.01008
11
1.42493
21
1.0132
0
LINE
8
BLACK
6
CONTINUOUS
10
1.42493
20
1.0132
11
1.42671
21
1.01723
0
LINE
8
BLACK
6
CONTINUOUS
10
1.42671
20
1.01723
11
1.42683
21
1.01824
0
LINE
8
BLACK
6
CONTINUOUS
10
1.42683
20
1.01824
11
1.42683
21
1.08176
0
LINE
8
BLACK
6
CONTINUOUS
10
1.42683
20
1.08176
11
1.42671
21
1.08279
0
LINE
8
BLACK
6
CONTINUOUS
10
0.852246
20
0.0900572
11
0.852612
21
0.086744
0
LINE
8
BLACK
6
CONTINUOUS
10
0.852612
20
0.086744
11
0.852953
21
0.0836561
0
LINE
8
BLACK
6
CONTINUOUS
10
0.852953
20
0.0836561
11
0.855247
21
0.0773876
0
LINE
8
BLACK
6
CONTINUOUS
10
0.855247
20
0.0773876
11
0.855378
21
0.0771927
0
LINE
8
BLACK
6
CONTINUOUS
10
0.855378
20
0.0771927
11
0.855378
21
0.0771927
0
LINE
8
BLACK
6
CONTINUOUS
10
0.855378
20
0.0771927
11
0.855893
21
0.0764254
0
LINE
8
BLACK
6
CONTINUOUS
10
0.855893
20
0.0764254
11
0.85897
21
0.0718471
0
LINE
8
BLACK
6
CONTINUOUS
10
0.85897
20
0.0718471
11
0.863907
21
0.0673547
0
LINE
8
BLACK
6
CONTINUOUS
10
0.863907
20
0.0673547
11
0.869773
21
0.0641696
0
LINE
8
BLACK
6
CONTINUOUS
10
0.869773
20
0.0641696
11
0.871149
21
0.0638086
0
LINE
8
BLACK
6
CONTINUOUS
10
0.871149
20
0.0638086
11
0.876003
21
0.0625353
0
LINE
8
BLACK
6
CONTINUOUS
10
0.876003
20
0.0625353
11
0.876003
21
0.0625353
0
LINE
8
BLACK
6
CONTINUOUS
10
0.876003
20
0.0625353
11
0.87623
21
0.0624757
0
LINE
8
BLACK
6
CONTINUOUS
10
0.87623
20
0.0624757
11
0.876464
21
0.062472
0
LINE
8
BLACK
6
CONTINUOUS
10
0.876464
20
0.062472
11
0.876464
21
0.062472
0
LINE
8
BLACK
6
CONTINUOUS
10
0.876464
20
0.062472
11
0.879566
21
0.0624233
0
LINE
8
BLACK
6
CONTINUOUS
10
0.879566
20
0.0624233
11
0.882904
21
0.0623709
0
LINE
8
BLACK
6
CONTINUOUS
10
0.882904
20
0.0623709
11
0.883133
21
0.0624233
0
LINE
8
BLACK
6
CONTINUOUS
10
0.883133
20
0.0624233
11
0.883133
21
0.0624233
0
LINE
8
BLACK
6
CONTINUOUS
10
0.883133
20
0.0624233
11
0.889181
21
0.0638086
0
LINE
8
BLACK
6
CONTINUOUS
10
0.889181
20
0.0638086
11
0.889181
21
0.0638086
0
LINE
8
BLACK
6
CONTINUOUS
10
0.889181
20
0.0638086
11
0.889411
21
0.0638611
0
LINE
8
BLACK
6
CONTINUOUS
10
0.889411
20
0.0638611
11
0.890024
21
0.0641696
0
LINE
8
BLACK
6
CONTINUOUS
10
0.890024
20
0.0641696
11
0.895164
21
0.0667548
0
LINE
8
BLACK
6
CONTINUOUS
10
0.895164
20
0.0667548
11
0.895374
21
0.0668604
0
LINE
8
BLACK
6
CONTINUOUS
10
0.895374
20
0.0668604
11
0.895553
21
0.0670129
0
LINE
8
BLACK
6
CONTINUOUS
10
0.895553
20
0.0670129
11
0.895553
21
0.067013
0
LINE
8
BLACK
6
CONTINUOUS
10
0.895553
20
0.067013
11
0.900271
21
0.071043
0
LINE
8
BLACK
6
CONTINUOUS
10
0.900271
20
0.071043
11
0.900271
21
0.0710431
0
LINE
8
BLACK
6
CONTINUOUS
10
0.900271
20
0.0710431
11
0.90045
21
0.0711955
0
LINE
8
BLACK
6
CONTINUOUS
10
0.90045
20
0.0711955
11
0.904345
21
0.0766163
0
LINE
8
BLACK
6
CONTINUOUS
10
0.904345
20
0.0766163
11
0.905647
21
0.079855
0
LINE
8
BLACK
6
CONTINUOUS
10
0.905647
20
0.079855
11
0.906747
21
0.0825919
0
LINE
8
BLACK
6
CONTINUOUS
10
0.906747
20
0.0825919
11
0.906747
21
0.0825919
0
LINE
8
BLACK
6
CONTINUOUS
10
0.906747
20
0.0825919
11
0.906835
21
0.0828097
0
LINE
8
BLACK
6
CONTINUOUS
10
0.906835
20
0.0828097
11
0.907211
21
0.0854566
0
LINE
8
BLACK
6
CONTINUOUS
10
0.907211
20
0.0854566
11
0.908314
21
0.0876635
0
LINE
8
BLACK
6
CONTINUOUS
10
0.908314
20
0.0876635
11
1.15492
21
0.334273
0
LINE
8
BLACK
6
CONTINUOUS
10
1.15492
20
0.334273
11
1.15504
21
0.334386
0
LINE
8
BLACK
6
CONTINUOUS
10
1.15504
20
0.334386
11
1.15666
21
0.335875
0
LINE
8
BLACK
6
CONTINUOUS
10
1.15666
20
0.335875
11
1.15686
21
0.336055
0
LINE
8
BLACK
6
CONTINUOUS
10
1.15686
20
0.336055
11
1.15779
21
0.337553
0
LINE
8
BLACK
6
CONTINUOUS
10
1.15779
20
0.337553
11
1.15799
21
0.337856
0
LINE
8
BLACK
6
CONTINUOUS
10
1.15799
20
0.337856
11
1.1589
21
0.339049
0
LINE
8
BLACK
6
CONTINUOUS
10
1.1589
20
0.339049
11
1.1589
21
0.339049
0
LINE
8
BLACK
6
CONTINUOUS
10
1.1589
20
0.339049
11
1.15906
21
0.33926
0
LINE
8
BLACK
6
CONTINUOUS
10
1.15906
20
0.33926
11
1.15931
21
0.339899
0
LINE
8
BLACK
6
CONTINUOUS
10
1.15931
20
0.339899
11
1.15962
21
0.340518
0
LINE
8
BLACK
6
CONTINUOUS
10
1.15962
20
0.340518
11
1.15999
21
0.341102
0
LINE
8
BLACK
6
CONTINUOUS
10
1.15999
20
0.341102
11
1.16048
21
0.342795
0
LINE
8
BLACK
6
CONTINUOUS
10
1.16048
20
0.342795
11
1.1606
21
0.343142
0
LINE
8
BLACK
6
CONTINUOUS
10
1.1606
20
0.343142
11
1.16065
21
0.34328
0
LINE
8
BLACK
6
CONTINUOUS
10
1.16065
20
0.34328
11
1.16219
21
0.345136
0
LINE
8
BLACK
6
CONTINUOUS
10
1.16219
20
0.345136
11
1.16452
21
0.345735
0
LINE
8
BLACK
6
CONTINUOUS
10
1.16452
20
0.345735
11
1.16676
21
0.344849
0
LINE
8
BLACK
6
CONTINUOUS
10
1.16676
20
0.344849
11
1.16751
21
0.344019
0
LINE
8
BLACK
6
CONTINUOUS
10
1.16751
20
0.344019
11
1.16766
21
0.34379
0
LINE
8
BLACK
6
CONTINUOUS
10
1.16766
20
0.34379
11
1.16833
21
0.341616
0
LINE
8
BLACK
6
CONTINUOUS
10
1.16833
20
0.341616
11
1.16833
21
0.305592
0
LINE
8
BLACK
6
CONTINUOUS
10
1.16833
20
0.305592
11
1.16758
21
0.303301
0
LINE
8
BLACK
6
CONTINUOUS
10
1.16758
20
0.303301
11
1.16719
21
0.302836
0
LINE
8
BLACK
6
CONTINUOUS
10
1.16719
20
0.302836
11
0.982768
21
0.118419
0
LINE
8
BLACK
6
CONTINUOUS
10
0.982768
20
0.118419
11
0.980922
21
0.117385
0
LINE
8
BLACK
6
CONTINUOUS
10
0.980922
20
0.117385
11
0.975545
21
0.116094
0
LINE
8
BLACK
6
CONTINUOUS
10
0.975545
20
0.116094
11
0.975545
21
0.116094
0
LINE
8
BLACK
6
CONTINUOUS
10
0.975545
20
0.116094
11
0.975316
21
0.116039
0
LINE
8
BLACK
6
CONTINUOUS
10
0.975316
20
0.116039
11
0.972646
21
0.114661
0
LINE
8
BLACK
6
CONTINUOUS
10
0.972646
20
0.114661
11
0.969594
21
0.113085
0
LINE
8
BLACK
6
CONTINUOUS
10
0.969594
20
0.113085
11
0.969593
21
0.113085
0
LINE
8
BLACK
6
CONTINUOUS
10
0.969593
20
0.113085
11
0.969385
21
0.112977
0
LINE
8
BLACK
6
CONTINUOUS
10
0.969385
20
0.112977
11
0.964354
21
0.108589
0
LINE
8
BLACK
6
CONTINUOUS
10
0.964354
20
0.108589
11
0.960516
21
0.103128
0
LINE
8
BLACK
6
CONTINUOUS
10
0.960516
20
0.103128
11
0.958091
21
0.0969089
0
LINE
8
BLACK
6
CONTINUOUS
10
0.958091
20
0.0969089
11
0.95722
21
0.0902909
0
LINE
8
BLACK
6
CONTINUOUS
10
0.95722
20
0.0902909
11
0.957246
21
0.0900573
0
LINE
8
BLACK
6
CONTINUOUS
10
0.957246
20
0.0900573
11
0.957246
21
0.0900572
0
LINE
8
BLACK
6
CONTINUOUS
10
0.957246
20
0.0900572
11
0.957612
21
0.086744
0
LINE
8
BLACK
6
CONTINUOUS
10
0.957612
20
0.086744
11
0.957953
21
0.0836561
0
LINE
8
BLACK
6
CONTINUOUS
10
0.957953
20
0.0836561
11
0.960247
21
0.0773876
0
LINE
8
BLACK
6
CONTINUOUS
10
0.960247
20
0.0773876
11
0.960378
21
0.0771927
0
LINE
8
BLACK
6
CONTINUOUS
10
0.960378
20
0.0771927
11
0.960378
21
0.0771927
0
LINE
8
BLACK
6
CONTINUOUS
10
0.960378
20
0.0771927
11
0.960893
21
0.0764254
0
LINE
8
BLACK
6
CONTINUOUS
10
0.960893
20
0.0764254
11
0.96397
21
0.0718471
0
LINE
8
BLACK
6
CONTINUOUS
10
0.96397
20
0.0718471
11
0.968907
21
0.0673547
0
LINE
8
BLACK
6
CONTINUOUS
10
0.968907
20
0.0673547
11
0.974773
21
0.0641696
0
LINE
8
BLACK
6
CONTINUOUS
10
0.974773
20
0.0641696
11
0.976149
21
0.0638086
0
LINE
8
BLACK
6
CONTINUOUS
10
0.976149
20
0.0638086
11
0.981003
21
0.0625353
0
LINE
8
BLACK
6
CONTINUOUS
10
0.981003
20
0.0625353
11
0.981003
21
0.0625353
0
LINE
8
BLACK
6
CONTINUOUS
10
0.981003
20
0.0625353
11
0.98123
21
0.0624757
0
LINE
8
BLACK
6
CONTINUOUS
10
0.98123
20
0.0624757
11
0.981464
21
0.062472
0
LINE
8
BLACK
6
CONTINUOUS
10
0.981464
20
0.062472
11
0.981464
21
0.062472
0
LINE
8
BLACK
6
CONTINUOUS
10
0.981464
20
0.062472
11
0.984566
21
0.0624233
0
LINE
8
BLACK
6
CONTINUOUS
10
0.984566
20
0.0624233
11
0.987904
21
0.0623709
0
LINE
8
BLACK
6
CONTINUOUS
10
0.987904
20
0.0623709
11
0.988133
21
0.0624233
0
LINE
8
BLACK
6
CONTINUOUS
10
0.988133
20
0.0624233
11
0.988133
21
0.0624233
0
LINE
8
BLACK
6
CONTINUOUS
10
0.988133
20
0.0624233
11
0.994181
21
0.0638086
0
LINE
8
BLACK
6
CONTINUOUS
10
0.994181
20
0.0638086
11
0.994181
21
0.0638086
0
LINE
8
BLACK
6
CONTINUOUS
10
0.994181
20
0.0638086
11
0.994411
21
0.0638611
0
LINE
8
BLACK
6
CONTINUOUS
10
0.994411
20
0.0638611
11
0.995024
21
0.0641696
0
LINE
8
BLACK
6
CONTINUOUS
10
0.995024
20
0.0641696
11
1.00016
21
0.0667548
0
LINE
8
BLACK
6
CONTINUOUS
10
1.00016
20
0.0667548
11
1.00037
21
0.0668604
0
LINE
8
BLACK
6
CONTINUOUS
10
1.00037
20
0.0668604
11
1.00055
21
0.0670129
0
LINE
8
BLACK
6
CONTINUOUS
10
1.00055
20
0.0670129
11
1.00055
21
0.067013
0
LINE
8
BLACK
6
CONTINUOUS
10
1.00055
20
0.067013
11
1.00527
21
0.071043
0
LINE
8
BLACK
6
CONTINUOUS
10
1.00527
20
0.071043
11
1.00527
21
0.0710431
0
LINE
8
BLACK
6
CONTINUOUS
10
1.00527
20
0.0710431
11
1.00545
21
0.0711955
0
LINE
8
BLACK
6
CONTINUOUS
10
1.00545
20
0.0711955
11
1.00934
21
0.0766163
0
LINE
8
BLACK
6
CONTINUOUS
10
1.00934
20
0.0766163
11
1.01065
21
0.079855
0
LINE
8
BLACK
6
CONTINUOUS
10
1.01065
20
0.079855
11
1.01175
21
0.0825919
0
LINE
8
BLACK
6
CONTINUOUS
10
1.01175
20
0.0825919
11
1.01175
21
0.0825919
0
LINE
8
BLACK
6
CONTINUOUS
10
1.01175
20
0.0825919
11
1.01183
21
0.0828097
0
LINE
8
BLACK
6
CONTINUOUS
10
1.01183
20
0.0828097
11
1.01221
21
0.0854566
0
LINE
8
BLACK
6
CONTINUOUS
10
1.01221
20
0.0854566
11
1.01331
21
0.0876635
0
LINE
8
BLACK
6
CONTINUOUS
10
1.01331
20
0.0876635
11
1.12785
21
0.202202
0
LINE
8
BLACK
6
CONTINUOUS
10
1.12785
20
0.202202
11
1.20492
21
0.279273
0
LINE
8
BLACK
6
CONTINUOUS
10
1.20492
20
0.279273
11
1.20504
21
0.279386
0
LINE
8
BLACK
6
CONTINUOUS
10
1.20504
20
0.279386
11
1.20666
21
0.280875
0
LINE
8
BLACK
6
CONTINUOUS
10
1.20666
20
0.280875
11
1.20686
21
0.281055
0
LINE
8
BLACK
6
CONTINUOUS
10
1.20686
20
0.281055
11
1.20779
21
0.282554
0
LINE
8
BLACK
6
CONTINUOUS
10
1.20779
20
0.282554
11
1.20799
21
0.282856
0
LINE
8
BLACK
6
CONTINUOUS
10
1.20799
20
0.282856
11
1.2089
21
0.284049
0
LINE
8
BLACK
6
CONTINUOUS
10
1.2089
20
0.284049
11
1.2089
21
0.284049
0
LINE
8
BLACK
6
CONTINUOUS
10
1.2089
20
0.284049
11
1.20906
21
0.284261
0
LINE
8
BLACK
6
CONTINUOUS
10
1.20906
20
0.284261
11
1.20931
21
0.284899
0
LINE
8
BLACK
6
CONTINUOUS
10
1.20931
20
0.284899
11
1.20962
21
0.285518
0
LINE
8
BLACK
6
CONTINUOUS
10
1.20962
20
0.285518
11
1.20985
21
0.285876
0
LINE
8
BLACK
6
CONTINUOUS
10
1.20985
20
0.285876
11
1.20985
21
0.285876
0
LINE
8
BLACK
6
CONTINUOUS
10
1.20985
20
0.285876
11
1.20999
21
0.286102
0
LINE
8
BLACK
6
CONTINUOUS
10
1.20999
20
0.286102
11
1.21048
21
0.287795
0
LINE
8
BLACK
6
CONTINUOUS
10
1.21048
20
0.287795
11
1.2106
21
0.288142
0
LINE
8
BLACK
6
CONTINUOUS
10
1.2106
20
0.288142
11
1.21115
21
0.289534
0
LINE
8
BLACK
6
CONTINUOUS
10
1.21115
20
0.289534
11
1.21115
21
0.289535
0
LINE
8
BLACK
6
CONTINUOUS
10
1.21115
20
0.289535
11
1.21125
21
0.289782
0
LINE
8
BLACK
6
CONTINUOUS
10
1.21125
20
0.289782
11
1.21132
21
0.290465
0
LINE
8
BLACK
6
CONTINUOUS
10
1.21132
20
0.290465
11
1.21145
21
0.291144
0
LINE
8
BLACK
6
CONTINUOUS
10
1.21145
20
0.291144
11
1.21164
21
0.291804
0
LINE
8
BLACK
6
CONTINUOUS
10
1.21164
20
0.291804
11
1.21167
21
0.292225
0
LINE
8
BLACK
6
CONTINUOUS
10
1.21167
20
0.292225
11
1.21167
21
0.293647
0
LINE
8
BLACK
6
CONTINUOUS
10
1.21167
20
0.293647
11
1.21169
21
0.294054
0
LINE
8
BLACK
6
CONTINUOUS
10
1.21169
20
0.294054
11
1.21184
21
0.295423
0
LINE
8
BLACK
6
CONTINUOUS
10
1.21184
20
0.295423
11
1.21184
21
0.295423
0
LINE
8
BLACK
6
CONTINUOUS
10
1.21184
20
0.295423
11
1.21187
21
0.295687
0
LINE
8
BLACK
6
CONTINUOUS
10
1.21187
20
0.295687
11
1.21173
21
0.296505
0
LINE
8
BLACK
6
CONTINUOUS
10
1.21173
20
0.296505
11
1.21167
21
0.297155
0
LINE
8
BLACK
6
CONTINUOUS
10
1.21167
20
0.297155
11
1.21167
21
0.341643
0
LINE
8
BLACK
6
CONTINUOUS
10
1.21167
20
0.341643
11
1.21241
21
0.343917
0
LINE
8
BLACK
6
CONTINUOUS
10
1.21241
20
0.343917
11
1.21434
21
0.346616
0
LINE
8
BLACK
6
CONTINUOUS
10
1.21434
20
0.346616
11
1.21683
21
0.35281
0
LINE
8
BLACK
6
CONTINUOUS
10
1.21683
20
0.35281
11
1.21713
21
0.35491
0
LINE
8
BLACK
6
CONTINUOUS
10
1.21713
20
0.35491
11
1.21776
21
0.359292
0
LINE
8
BLACK
6
CONTINUOUS
10
1.21776
20
0.359292
11
1.21776
21
0.359292
0
LINE
8
BLACK
6
CONTINUOUS
10
1.21776
20
0.359292
11
1.21778
21
0.359418
0
LINE
8
BLACK
6
CONTINUOUS
10
1.21778
20
0.359418
11
1.21778
21
0.36
0
LINE
8
BLACK
6
CONTINUOUS
10
1.21778
20
0.36
11
1.21698
21
0.366627
0
LINE
8
BLACK
6
CONTINUOUS
10
1.21698
20
0.366627
11
1.21462
21
0.372871
0
LINE
8
BLACK
6
CONTINUOUS
10
1.21462
20
0.372871
11
1.21417
21
0.373529
0
LINE
8
BLACK
6
CONTINUOUS
10
1.21417
20
0.373529
11
1.21236
21
0.376161
0
LINE
8
BLACK
6
CONTINUOUS
10
1.21236
20
0.376161
11
1.21167
21
0.378369
0
LINE
8
BLACK
6
CONTINUOUS
10
1.21167
20
0.378369
11
1.21167
21
1.02164
0
LINE
8
BLACK
6
CONTINUOUS
10
1.21167
20
1.02164
11
1.21241
21
1.02392
0
LINE
8
BLACK
6
CONTINUOUS
10
1.21241
20
1.02392
11
1.21434
21
1.02662
0
LINE
8
BLACK
6
CONTINUOUS
10
1.21434
20
1.02662
11
1.21683
21
1.03281
0
LINE
8
BLACK
6
CONTINUOUS
10
1.21683
20
1.03281
11
1.21778
21
1.03942
0
LINE
8
BLACK
6
CONTINUOUS
10
1.21778
20
1.03942
11
1.21778
21
1.04
0
LINE
8
BLACK
6
CONTINUOUS
10
1.21778
20
1.04
11
1.21698
21
1.04663
0
LINE
8
BLACK
6
CONTINUOUS
10
1.21698
20
1.04663
11
1.21462
21
1.05287
0
LINE
8
BLACK
6
CONTINUOUS
10
1.21462
20
1.05287
11
1.21084
21
1.05837
0
LINE
8
BLACK
6
CONTINUOUS
10
1.21084
20
1.05837
11
1.20586
21
1.06281
0
LINE
8
BLACK
6
CONTINUOUS
10
1.20586
20
1.06281
11
1.19996
21
1.06594
0
LINE
8
BLACK
6
CONTINUOUS
10
1.19996
20
1.06594
11
1.19672
21
1.06675
0
LINE
8
BLACK
6
CONTINUOUS
10
1.19672
20
1.06675
11
1.19371
21
1.0675
0
LINE
8
BLACK
6
CONTINUOUS
10
1.19371
20
1.0675
11
1.19371
21
1.0675
0
LINE
8
BLACK
6
CONTINUOUS
10
1.19371
20
1.0675
11
1.19348
21
1.06756
0
LINE
8
BLACK
6
CONTINUOUS
10
1.19348
20
1.06756
11
1.19011
21
1.06758
0
LINE
8
BLACK
6
CONTINUOUS
10
1.19011
20
1.06758
11
1.18704
21
1.0676
0
LINE
8
BLACK
6
CONTINUOUS
10
1.18704
20
1.0676
11
1.18704
21
1.0676
0
LINE
8
BLACK
6
CONTINUOUS
10
1.18704
20
1.0676
11
1.18681
21
1.0676
0
LINE
8
BLACK
6
CONTINUOUS
10
1.18681
20
1.0676
11
1.18658
21
1.06754
0
LINE
8
BLACK
6
CONTINUOUS
10
1.18658
20
1.06754
11
1.18658
21
1.06754
0
LINE
8
BLACK
6
CONTINUOUS
10
1.18658
20
1.06754
11
1.18235
21
1.06653
0
LINE
8
BLACK
6
CONTINUOUS
10
1.18235
20
1.06653
11
1.18032
21
1.06604
0
LINE
8
BLACK
6
CONTINUOUS
10
1.18032
20
1.06604
11
1.17735
21
1.06451
0
LINE
8
BLACK
6
CONTINUOUS
10
1.17735
20
1.06451
11
1.17459
21
1.06309
0
LINE
8
BLACK
6
CONTINUOUS
10
1.17459
20
1.06309
11
1.17459
21
1.06309
0
LINE
8
BLACK
6
CONTINUOUS
10
1.17459
20
1.06309
11
1.17438
21
1.06298
0
LINE
8
BLACK
6
CONTINUOUS
10
1.17438
20
1.06298
11
1.16935
21
1.05859
0
LINE
8
BLACK
6
CONTINUOUS
10
1.16935
20
1.05859
11
1.16552
21
1.05313
0
LINE
8
BLACK
6
CONTINUOUS
10
1.16552
20
1.05313
11
1.16309
21
1.04691
0
LINE
8
BLACK
6
CONTINUOUS
10
1.16309
20
1.04691
11
1.16222
21
1.04029
0
LINE
8
BLACK
6
CONTINUOUS
10
1.16222
20
1.04029
11
1.16225
21
1.04006
0
LINE
8
BLACK
6
CONTINUOUS
10
1.16225
20
1.04006
11
1.16225
21
1.04006
0
LINE
8
BLACK
6
CONTINUOUS
10
1.16225
20
1.04006
11
1.16227
21
1.03987
0
LINE
8
BLACK
6
CONTINUOUS
10
1.16227
20
1.03987
11
1.16295
21
1.03366
0
LINE
8
BLACK
6
CONTINUOUS
10
1.16295
20
1.03366
11
1.16525
21
1.02739
0
LINE
8
BLACK
6
CONTINUOUS
10
1.16525
20
1.02739
11
1.16538
21
1.02719
0
LINE
8
BLACK
6
CONTINUOUS
10
1.16538
20
1.02719
11
1.16766
21
1.02379
0
LINE
8
BLACK
6
CONTINUOUS
10
1.16766
20
1.02379
11
1.16833
21
1.02162
0
LINE
8
BLACK
6
CONTINUOUS
10
1.16833
20
1.02162
11
1.16833
21
0.83003
0
LINE
8
BLACK
6
CONTINUOUS
10
1.16833
20
0.83003
11
1.16758
21
0.827739
0
LINE
8
BLACK
6
CONTINUOUS
10
1.16758
20
0.827739
11
1.16563
21
0.826323
0
LINE
8
BLACK
6
CONTINUOUS
10
1.16563
20
0.826323
11
1.16322
21
0.826323
0
LINE
8
BLACK
6
CONTINUOUS
10
1.16322
20
0.826323
11
1.16122
21
0.827822
0
LINE
8
BLACK
6
CONTINUOUS
10
1.16122
20
0.827822
11
1.16097
21
0.828178
0
LINE
8
BLACK
6
CONTINUOUS
10
1.16097
20
0.828178
11
1.16084
21
0.828372
0
LINE
8
BLACK
6
CONTINUOUS
10
1.16084
20
0.828372
11
1.15586
21
0.832813
0
LINE
8
BLACK
6
CONTINUOUS
10
1.15586
20
0.832813
11
1.14996
21
0.835936
0
LINE
8
BLACK
6
CONTINUOUS
10
1.14996
20
0.835936
11
1.14672
21
0.836749
0
LINE
8
BLACK
6
CONTINUOUS
10
1.14672
20
0.836749
11
1.14371
21
0.837505
0
LINE
8
BLACK
6
CONTINUOUS
10
1.14371
20
0.837505
11
1.14371
21
0.837505
0
LINE
8
BLACK
6
CONTINUOUS
10
1.14371
20
0.837505
11
1.14348
21
0.837562
0
LINE
8
BLACK
6
CONTINUOUS
10
1.14348
20
0.837562
11
1.14011
21
0.83758
0
LINE
8
BLACK
6
CONTINUOUS
10
1.14011
20
0.83758
11
1.13704
21
0.837596
0
LINE
8
BLACK
6
CONTINUOUS
10
1.13704
20
0.837596
11
1.13704
21
0.837596
0
LINE
8
BLACK
6
CONTINUOUS
10
1.13704
20
0.837596
11
1.13681
21
0.837597
0
LINE
8
BLACK
6
CONTINUOUS
10
1.13681
20
0.837597
11
1.13658
21
0.837542
0
LINE
8
BLACK
6
CONTINUOUS
10
1.13658
20
0.837542
11
1.13658
21
0.837542
0
LINE
8
BLACK
6
CONTINUOUS
10
1.13658
20
0.837542
11
1.13235
21
0.836527
0
LINE
8
BLACK
6
CONTINUOUS
10
1.13235
20
0.836527
11
1.13032
21
0.836039
0
LINE
8
BLACK
6
CONTINUOUS
10
1.13032
20
0.836039
11
1.12735
21
0.834508
0
LINE
8
BLACK
6
CONTINUOUS
10
1.12735
20
0.834508
11
1.12459
21
0.833085
0
LINE
8
BLACK
6
CONTINUOUS
10
1.12459
20
0.833085
11
1.12459
21
0.833085
0
LINE
8
BLACK
6
CONTINUOUS
10
1.12459
20
0.833085
11
1.12438
21
0.832977
0
LINE
8
BLACK
6
CONTINUOUS
10
1.12438
20
0.832977
11
1.11935
21
0.828589
0
LINE
8
BLACK
6
CONTINUOUS
10
1.11935
20
0.828589
11
1.11552
21
0.823128
0
LINE
8
BLACK
6
CONTINUOUS
10
1.11552
20
0.823128
11
1.11543
21
0.822909
0
LINE
8
BLACK
6
CONTINUOUS
10
1.11543
20
0.822909
11
1.11322
21
0.817231
0
LINE
8
BLACK
6
CONTINUOUS
10
1.11322
20
0.817231
11
1.11309
21
0.816909
0
LINE
8
BLACK
6
CONTINUOUS
10
1.11309
20
0.816909
11
1.11222
21
0.810291
0
LINE
8
BLACK
6
CONTINUOUS
10
1.11222
20
0.810291
11
1.11225
21
0.810057
0
LINE
8
BLACK
6
CONTINUOUS
10
1.11225
20
0.810057
11
1.11225
21
0.810057
0
LINE
8
BLACK
6
CONTINUOUS
10
1.11225
20
0.810057
11
1.11245
21
0.808169
0
LINE
8
BLACK
6
CONTINUOUS
10
1.11245
20
0.808169
11
1.11295
21
0.803656
0
LINE
8
BLACK
6
CONTINUOUS
10
1.11295
20
0.803656
11
1.11525
21
0.797388
0
LINE
8
BLACK
6
CONTINUOUS
10
1.11525
20
0.797388
11
1.11538
21
0.797193
0
LINE
8
BLACK
6
CONTINUOUS
10
1.11538
20
0.797193
11
1.11766
21
0.79379
0
LINE
8
BLACK
6
CONTINUOUS
10
1.11766
20
0.79379
11
1.11833
21
0.791616
0
LINE
8
BLACK
6
CONTINUOUS
10
1.11833
20
0.791616
11
1.11833
21
0.360592
0
LINE
8
BLACK
6
CONTINUOUS
10
1.11833
20
0.360592
11
1.11758
21
0.358301
0
LINE
8
BLACK
6
CONTINUOUS
10
1.11758
20
0.358301
11
1.11719
21
0.357836
0
LINE
8
BLACK
6
CONTINUOUS
10
1.11719
20
0.357836
11
0.877768
21
0.118419
0
LINE
8
BLACK
6
CONTINUOUS
10
0.877768
20
0.118419
11
0.875922
21
0.117385
0
LINE
8
BLACK
6
CONTINUOUS
10
0.875922
20
0.117385
11
0.870545
21
0.116094
0
LINE
8
BLACK
6
CONTINUOUS
10
0.870545
20
0.116094
11
0.870545
21
0.116094
0
LINE
8
BLACK
6
CONTINUOUS
10
0.870545
20
0.116094
11
0.870316
21
0.116039
0
LINE
8
BLACK
6
CONTINUOUS
10
0.870316
20
0.116039
11
0.867646
21
0.114661
0
LINE
8
BLACK
6
CONTINUOUS
10
0.867646
20
0.114661
11
0.864594
21
0.113085
0
LINE
8
BLACK
6
CONTINUOUS
10
0.864594
20
0.113085
11
0.864593
21
0.113085
0
LINE
8
BLACK
6
CONTINUOUS
10
0.864593
20
0.113085
11
0.864385
21
0.112977
0
LINE
8
BLACK
6
CONTINUOUS
10
0.864385
20
0.112977
11
0.859354
21
0.108589
0
LINE
8
BLACK
6
CONTINUOUS
10
0.859354
20
0.108589
11
0.855516
21
0.103128
0
LINE
8
BLACK
6
CONTINUOUS
10
0.855516
20
0.103128
11
0.853091
21
0.0969089
0
LINE
8
BLACK
6
CONTINUOUS
10
0.853091
20
0.0969089
11
0.85222
21
0.0902909
0
LINE
8
BLACK
6
CONTINUOUS
10
0.85222
20
0.0902909
11
0.852246
21
0.0900573
0
LINE
8
BLACK
6
CONTINUOUS
10
0.852246
20
0.0900573
11
0.852246
21
0.0900572
0
LINE
8
BLACK
6
CONTINUOUS
10
0.354687
20
1.43063
11
0.35096
21
1.44558
0
LINE
8
BLACK
6
CONTINUOUS
10
0.35096
20
1.44558
11
0.345792
21
1.46009
0
LINE
8
BLACK
6
CONTINUOUS
10
0.345792
20
1.46009
11
0.345751
21
1.46018
0
LINE
8
BLACK
6
CONTINUOUS
10
0.345751
20
1.46018
11
0.345751
21
1.46018
0
LINE
8
BLACK
6
CONTINUOUS
10
0.345751
20
1.46018
11
0.342681
21
1.4667
0
LINE
8
BLACK
6
CONTINUOUS
10
0.342681
20
1.4667
11
0.339232
21
1.47403
0
LINE
8
BLACK
6
CONTINUOUS
10
0.339232
20
1.47403
11
0.331343
21
1.48726
0
LINE
8
BLACK
6
CONTINUOUS
10
0.331343
20
1.48726
11
0.331287
21
1.48734
0
LINE
8
BLACK
6
CONTINUOUS
10
0.331287
20
1.48734
11
0.331287
21
1.48734
0
LINE
8
BLACK
6
CONTINUOUS
10
0.331287
20
1.48734
11
0.322257
21
1.49959
0
LINE
8
BLACK
6
CONTINUOUS
10
0.322257
20
1.49959
11
0.322201
21
1.49966
0
LINE
8
BLACK
6
CONTINUOUS
10
0.322201
20
1.49966
11
0.322138
21
1.49973
0
LINE
8
BLACK
6
CONTINUOUS
10
0.322138
20
1.49973
11
0.322138
21
1.49974
0
LINE
8
BLACK
6
CONTINUOUS
10
0.322138
20
1.49974
11
0.311956
21
1.51104
0
LINE
8
BLACK
6
CONTINUOUS
10
0.311956
20
1.51104
11
0.311892
21
1.51111
0
LINE
8
BLACK
6
CONTINUOUS
10
0.311892
20
1.51111
11
0.310124
21
1.51273
0
LINE
8
BLACK
6
CONTINUOUS
10
0.310124
20
1.51273
11
0.300586
21
1.52144
0
LINE
8
BLACK
6
CONTINUOUS
10
0.300586
20
1.52144
11
0.300585
21
1.52144
0
LINE
8
BLACK
6
CONTINUOUS
10
0.300585
20
1.52144
11
0.300515
21
1.5215
0
LINE
8
BLACK
6
CONTINUOUS
10
0.300515
20
1.5215
11
0.294305
21
1.52615
0
LINE
8
BLACK
6
CONTINUOUS
10
0.294305
20
1.52615
11
0.288256
21
1.53067
0
LINE
8
BLACK
6
CONTINUOUS
10
0.288256
20
1.53067
11
0.288255
21
1.53067
0
LINE
8
BLACK
6
CONTINUOUS
10
0.288255
20
1.53067
11
0.288179
21
1.53073
0
LINE
8
BLACK
6
CONTINUOUS
10
0.288179
20
1.53073
11
0.275001
21
1.53871
0
LINE
8
BLACK
6
CONTINUOUS
10
0.275001
20
1.53871
11
0.274916
21
1.53875
0
LINE
8
BLACK
6
CONTINUOUS
10
0.274916
20
1.53875
11
0.274915
21
1.53875
0
LINE
8
BLACK
6
CONTINUOUS
10
0.274915
20
1.53875
11
0.261193
21
1.54533
0
LINE
8
BLACK
6
CONTINUOUS
10
0.261193
20
1.54533
11
0.261193
21
1.54533
0
LINE
8
BLACK
6
CONTINUOUS
10
0.261193
20
1.54533
11
0.261107
21
1.54537
0
LINE
8
BLACK
6
CONTINUOUS
10
0.261107
20
1.54537
11
0.24663
21
1.55064
0
LINE
8
BLACK
6
CONTINUOUS
10
0.24663
20
1.55064
11
0.246539
21
1.55066
0
LINE
8
BLACK
6
CONTINUOUS
10
0.246539
20
1.55066
11
0.246538
21
1.55066
0
LINE
8
BLACK
6
CONTINUOUS
10
0.246538
20
1.55066
11
0.2318
21
1.55445
0
LINE
8
BLACK
6
CONTINUOUS
10
0.2318
20
1.55445
11
0.231708
21
1.55447
0
LINE
8
BLACK
6
CONTINUOUS
10
0.231708
20
1.55447
11
0.225518
21
1.55543
0
LINE
8
BLACK
6
CONTINUOUS
10
0.225518
20
1.55543
11
0.216577
21
1.55681
0
LINE
8
BLACK
6
CONTINUOUS
10
0.216577
20
1.55681
11
0.216577
21
1.55681
0
LINE
8
BLACK
6
CONTINUOUS
10
0.216577
20
1.55681
11
0.216483
21
1.55683
0
LINE
8
BLACK
6
CONTINUOUS
10
0.216483
20
1.55683
11
0.216388
21
1.55683
0
LINE
8
BLACK
6
CONTINUOUS
10
0.216388
20
1.55683
11
0.216388
21
1.55683
0
LINE
8
BLACK
6
CONTINUOUS
10
0.216388
20
1.55683
11
0.201196
21
1.55768
0
LINE
8
BLACK
6
CONTINUOUS
10
0.201196
20
1.55768
11
0.201196
21
1.55768
0
LINE
8
BLACK
6
CONTINUOUS
10
0.201196
20
1.55768
11
0.201101
21
1.55769
0
LINE
8
BLACK
6
CONTINUOUS
10
0.201101
20
1.55769
11
0.185708
21
1.55704
0
LINE
8
BLACK
6
CONTINUOUS
10
0.185708
20
1.55704
11
0.170452
21
1.5549
0
LINE
8
BLACK
6
CONTINUOUS
10
0.170452
20
1.5549
11
0.166199
21
1.55387
0
LINE
8
BLACK
6
CONTINUOUS
10
0.166199
20
1.55387
11
0.15557
21
1.5513
0
LINE
8
BLACK
6
CONTINUOUS
10
0.15557
20
1.5513
11
0.15557
21
1.5513
0
LINE
8
BLACK
6
CONTINUOUS
10
0.15557
20
1.5513
11
0.155478
21
1.55127
0
LINE
8
BLACK
6
CONTINUOUS
10
0.155478
20
1.55127
11
0.153557
21
1.55061
0
LINE
8
BLACK
6
CONTINUOUS
10
0.153557
20
1.55061
11
0.141018
21
1.54624
0
LINE
8
BLACK
6
CONTINUOUS
10
0.141018
20
1.54624
11
0.141018
21
1.54624
0
LINE
8
BLACK
6
CONTINUOUS
10
0.141018
20
1.54624
11
0.140928
21
1.54621
0
LINE
8
BLACK
6
CONTINUOUS
10
0.140928
20
1.54621
11
0.126943
21
1.53975
0
LINE
8
BLACK
6
CONTINUOUS
10
0.126943
20
1.53975
11
0.118928
21
1.53504
0
LINE
8
BLACK
6
CONTINUOUS
10
0.118928
20
1.53504
11
0.113737
21
1.532
0
LINE
8
BLACK
6
CONTINUOUS
10
0.113737
20
1.532
11
0.113737
21
1.532
0
LINE
8
BLACK
6
CONTINUOUS
10
0.113737
20
1.532
11
0.113655
21
1.53195
0
LINE
8
BLACK
6
CONTINUOUS
10
0.113655
20
1.53195
11
0.113578
21
1.53189
0
LINE
8
BLACK
6
CONTINUOUS
10
0.113578
20
1.53189
11
0.113578
21
1.53189
0
LINE
8
BLACK
6
CONTINUOUS
10
0.113578
20
1.53189
11
0.103664
21
1.52469
0
LINE
8
BLACK
6
CONTINUOUS
10
0.103664
20
1.52469
11
0.101191
21
1.52289
0
LINE
8
BLACK
6
CONTINUOUS
10
0.101191
20
1.52289
11
0.0896701
21
1.51267
0
LINE
8
BLACK
6
CONTINUOUS
10
0.0896701
20
1.51267
11
0.0896055
21
1.5126
0
LINE
8
BLACK
6
CONTINUOUS
10
0.0896055
20
1.5126
11
0.0896052
21
1.5126
0
LINE
8
BLACK
6
CONTINUOUS
10
0.0896052
20
1.5126
11
0.0847242
21
1.50732
0
LINE
8
BLACK
6
CONTINUOUS
10
0.0847242
20
1.50732
11
0.0792025
21
1.50136
0
LINE
8
BLACK
6
CONTINUOUS
10
0.0792025
20
1.50136
11
0.0791449
21
1.50129
0
LINE
8
BLACK
6
CONTINUOUS
10
0.0791449
20
1.50129
11
0.0791446
21
1.50128
0
LINE
8
BLACK
6
CONTINUOUS
10
0.0791446
20
1.50128
11
0.0717698
21
1.49157
0
LINE
8
BLACK
6
CONTINUOUS
10
0.0717698
20
1.49157
11
0.0698879
21
1.48909
0
LINE
8
BLACK
6
CONTINUOUS
10
0.0698879
20
1.48909
11
0.0618152
21
1.47597
0
LINE
8
BLACK
6
CONTINUOUS
10
0.0618152
20
1.47597
11
0.0617738
21
1.47588
0
LINE
8
BLACK
6
CONTINUOUS
10
0.0617738
20
1.47588
11
0.0617736
21
1.47588
0
LINE
8
BLACK
6
CONTINUOUS
10
0.0617736
20
1.47588
11
0.0608706
21
1.47403
0
LINE
8
BLACK
6
CONTINUOUS
10
0.0608706
20
1.47403
11
0.0550616
21
1.46212
0
LINE
8
BLACK
6
CONTINUOUS
10
0.0550616
20
1.46212
11
0.0496914
21
1.44768
0
LINE
8
BLACK
6
CONTINUOUS
10
0.0496914
20
1.44768
11
0.0457559
21
1.43279
0
LINE
8
BLACK
6
CONTINUOUS
10
0.0457559
20
1.43279
11
0.0432928
21
1.41758
0
LINE
8
BLACK
6
CONTINUOUS
10
0.0432928
20
1.41758
11
0.0423254
21
1.4022
0
LINE
8
BLACK
6
CONTINUOUS
10
0.0423254
20
1.4022
11
0.0428631
21
1.3868
0
LINE
8
BLACK
6
CONTINUOUS
10
0.0428631
20
1.3868
11
0.0449007
21
1.37153
0
LINE
8
BLACK
6
CONTINUOUS
10
0.0449007
20
1.37153
11
0.0484187
21
1.35653
0
LINE
8
BLACK
6
CONTINUOUS
10
0.0484187
20
1.35653
11
0.0533836
21
1.34195
0
LINE
8
BLACK
6
CONTINUOUS
10
0.0533836
20
1.34195
11
0.0534228
21
1.34186
0
LINE
8
BLACK
6
CONTINUOUS
10
0.0534228
20
1.34186
11
0.0534229
21
1.34186
0
LINE
8
BLACK
6
CONTINUOUS
10
0.0534229
20
1.34186
11
0.0561456
21
1.33586
0
LINE
8
BLACK
6
CONTINUOUS
10
0.0561456
20
1.33586
11
0.059748
21
1.32792
0
LINE
8
BLACK
6
CONTINUOUS
10
0.059748
20
1.32792
11
0.0674511
21
1.31458
0
LINE
8
BLACK
6
CONTINUOUS
10
0.0674511
20
1.31458
11
0.0675063
21
1.3145
0
LINE
8
BLACK
6
CONTINUOUS
10
0.0675063
20
1.3145
11
0.0675066
21
1.3145
0
LINE
8
BLACK
6
CONTINUOUS
10
0.0675066
20
1.3145
11
0.0763637
21
1.30213
0
LINE
8
BLACK
6
CONTINUOUS
10
0.0763637
20
1.30213
11
0.0764194
21
1.30205
0
LINE
8
BLACK
6
CONTINUOUS
10
0.0764194
20
1.30205
11
0.0865673
21
1.29046
0
LINE
8
BLACK
6
CONTINUOUS
10
0.0865673
20
1.29046
11
0.0866366
21
1.29039
0
LINE
8
BLACK
6
CONTINUOUS
10
0.0866366
20
1.29039
11
0.0866369
21
1.29039
0
LINE
8
BLACK
6
CONTINUOUS
10
0.0866369
20
1.29039
11
0.0914497
21
1.28587
0
LINE
8
BLACK
6
CONTINUOUS
10
0.0914497
20
1.28587
11
0.097798
21
1.27991
0
LINE
8
BLACK
6
CONTINUOUS
10
0.097798
20
1.27991
11
0.110004
21
1.27051
0
LINE
8
BLACK
6
CONTINUOUS
10
0.110004
20
1.27051
11
0.110085
21
1.27046
0
LINE
8
BLACK
6
CONTINUOUS
10
0.110085
20
1.27046
11
0.122989
21
1.2624
0
LINE
8
BLACK
6
CONTINUOUS
10
0.122989
20
1.2624
11
0.122989
21
1.2624
0
LINE
8
BLACK
6
CONTINUOUS
10
0.122989
20
1.2624
11
0.123069
21
1.26235
0
LINE
8
BLACK
6
CONTINUOUS
10
0.123069
20
1.26235
11
0.123155
21
1.26231
0
LINE
8
BLACK
6
CONTINUOUS
10
0.123155
20
1.26231
11
0.123155
21
1.26231
0
LINE
8
BLACK
6
CONTINUOUS
10
0.123155
20
1.26231
11
0.136784
21
1.25554
0
LINE
8
BLACK
6
CONTINUOUS
10
0.136784
20
1.25554
11
0.136869
21
1.2555
0
LINE
8
BLACK
6
CONTINUOUS
10
0.136869
20
1.2555
11
0.151271
21
1.25003
0
LINE
8
BLACK
6
CONTINUOUS
10
0.151271
20
1.25003
11
0.166138
21
1.24599
0
LINE
8
BLACK
6
CONTINUOUS
10
0.166138
20
1.24599
11
0.181329
21
1.24342
0
LINE
8
BLACK
6
CONTINUOUS
10
0.181329
20
1.24342
11
0.181424
21
1.24341
0
LINE
8
BLACK
6
CONTINUOUS
10
0.181424
20
1.24341
11
0.181424
21
1.24341
0
LINE
8
BLACK
6
CONTINUOUS
10
0.181424
20
1.24341
11
0.196603
21
1.24235
0
LINE
8
BLACK
6
CONTINUOUS
10
0.196603
20
1.24235
11
0.196603
21
1.24235
0
LINE
8
BLACK
6
CONTINUOUS
10
0.196603
20
1.24235
11
0.196698
21
1.24234
0
LINE
8
BLACK
6
CONTINUOUS
10
0.196698
20
1.24234
11
0.196792
21
1.24235
0
LINE
8
BLACK
6
CONTINUOUS
10
0.196792
20
1.24235
11
0.196793
21
1.24235
0
LINE
8
BLACK
6
CONTINUOUS
10
0.196793
20
1.24235
11
0.212002
21
1.24277
0
LINE
8
BLACK
6
CONTINUOUS
10
0.212002
20
1.24277
11
0.212003
21
1.24277
0
LINE
8
BLACK
6
CONTINUOUS
10
0.212003
20
1.24277
11
0.212098
21
1.24277
0
LINE
8
BLACK
6
CONTINUOUS
10
0.212098
20
1.24277
11
0.227383
21
1.24471
0
LINE
8
BLACK
6
CONTINUOUS
10
0.227383
20
1.24471
11
0.227475
21
1.24473
0
LINE
8
BLACK
6
CONTINUOUS
10
0.227475
20
1.24473
11
0.227476
21
1.24473
0
LINE
8
BLACK
6
CONTINUOUS
10
0.227476
20
1.24473
11
0.242313
21
1.2481
0
LINE
8
BLACK
6
CONTINUOUS
10
0.242313
20
1.2481
11
0.242314
21
1.2481
0
LINE
8
BLACK
6
CONTINUOUS
10
0.242314
20
1.2481
11
0.242406
21
1.24812
0
LINE
8
BLACK
6
CONTINUOUS
10
0.242406
20
1.24812
11
0.257025
21
1.25298
0
LINE
8
BLACK
6
CONTINUOUS
10
0.257025
20
1.25298
11
0.271099
21
1.25925
0
LINE
8
BLACK
6
CONTINUOUS
10
0.271099
20
1.25925
11
0.284494
21
1.26686
0
LINE
8
BLACK
6
CONTINUOUS
10
0.284494
20
1.26686
11
0.289676
21
1.27051
0
LINE
8
BLACK
6
CONTINUOUS
10
0.289676
20
1.27051
11
0.297006
21
1.27568
0
LINE
8
BLACK
6
CONTINUOUS
10
0.297006
20
1.27568
11
0.297084
21
1.27574
0
LINE
8
BLACK
6
CONTINUOUS
10
0.297084
20
1.27574
11
0.297155
21
1.2758
0
LINE
8
BLACK
6
CONTINUOUS
10
0.297155
20
1.2758
11
0.297155
21
1.2758
0
LINE
8
BLACK
6
CONTINUOUS
10
0.297155
20
1.2758
11
0.308674
21
1.28574
0
LINE
8
BLACK
6
CONTINUOUS
10
0.308674
20
1.28574
11
0.308674
21
1.28574
0
LINE
8
BLACK
6
CONTINUOUS
10
0.308674
20
1.28574
11
0.308746
21
1.28581
0
LINE
8
BLACK
6
CONTINUOUS
10
0.308746
20
1.28581
11
0.308812
21
1.28587
0
LINE
8
BLACK
6
CONTINUOUS
10
0.308812
20
1.28587
11
0.308812
21
1.28587
0
LINE
8
BLACK
6
CONTINUOUS
10
0.308812
20
1.28587
11
0.314058
21
1.29138
0
LINE
8
BLACK
6
CONTINUOUS
10
0.314058
20
1.29138
11
0.319371
21
1.29696
0
LINE
8
BLACK
6
CONTINUOUS
10
0.319371
20
1.29696
11
0.328856
21
1.3091
0
LINE
8
BLACK
6
CONTINUOUS
10
0.328856
20
1.3091
11
0.328906
21
1.30918
0
LINE
8
BLACK
6
CONTINUOUS
10
0.328906
20
1.30918
11
0.328907
21
1.30918
0
LINE
8
BLACK
6
CONTINUOUS
10
0.328907
20
1.30918
11
0.337059
21
1.32203
0
LINE
8
BLACK
6
CONTINUOUS
10
0.337059
20
1.32203
11
0.33706
21
1.32203
0
LINE
8
BLACK
6
CONTINUOUS
10
0.33706
20
1.32203
11
0.337111
21
1.32211
0
LINE
8
BLACK
6
CONTINUOUS
10
0.337111
20
1.32211
11
0.344057
21
1.33586
0
LINE
8
BLACK
6
CONTINUOUS
10
0.344057
20
1.33586
11
0.349628
21
1.35023
0
LINE
8
BLACK
6
CONTINUOUS
10
0.349628
20
1.35023
11
0.353771
21
1.36506
0
LINE
8
BLACK
6
CONTINUOUS
10
0.353771
20
1.36506
11
0.356447
21
1.38024
0
LINE
8
BLACK
6
CONTINUOUS
10
0.356447
20
1.38024
11
0.357628
21
1.3956
0
LINE
8
BLACK
6
CONTINUOUS
10
0.357628
20
1.3956
11
0.35769
21
1.4
0
LINE
8
BLACK
6
CONTINUOUS
10
0.35769
20
1.4
11
0.357582
21
1.4022
0
LINE
8
BLACK
6
CONTINUOUS
10
0.357582
20
1.4022
11
0.356937
21
1.41539
0
LINE
8
BLACK
6
CONTINUOUS
10
0.356937
20
1.41539
11
0.354687
21
1.43063
0
LINE
8
BLACK
6
CONTINUOUS
10
0.20865
20
0.317793
11
0.222132
21
0.316018
0
LINE
8
BLACK
6
CONTINUOUS
10
0.222132
20
0.316018
11
0.23532
21
0.312706
0
LINE
8
BLACK
6
CONTINUOUS
10
0.23532
20
0.312706
11
0.24804
21
0.307899
0
LINE
8
BLACK
6
CONTINUOUS
10
0.24804
20
0.307899
11
0.260123
21
0.301662
0
LINE
8
BLACK
6
CONTINUOUS
10
0.260123
20
0.301662
11
0.271409
21
0.294078
0
LINE
8
BLACK
6
CONTINUOUS
10
0.271409
20
0.294078
11
0.281749
21
0.285247
0
LINE
8
BLACK
6
CONTINUOUS
10
0.281749
20
0.285247
11
0.291006
21
0.275286
0
LINE
8
BLACK
6
CONTINUOUS
10
0.291006
20
0.275286
11
0.299056
21
0.264327
0
LINE
8
BLACK
6
CONTINUOUS
10
0.299056
20
0.264327
11
0.305793
21
0.252516
0
LINE
8
BLACK
6
CONTINUOUS
10
0.305793
20
0.252516
11
0.311128
21
0.240008
0
LINE
8
BLACK
6
CONTINUOUS
10
0.311128
20
0.240008
11
0.31499
21
0.226971
0
LINE
8
BLACK
6
CONTINUOUS
10
0.31499
20
0.226971
11
0.317327
21
0.213575
0
LINE
8
BLACK
6
CONTINUOUS
10
0.317327
20
0.213575
11
0.31811
21
0.2
0
LINE
8
BLACK
6
CONTINUOUS
10
0.31811
20
0.2
11
0.317877
21
0.192584
0
LINE
8
BLACK
6
CONTINUOUS
10
0.317877
20
0.192584
11
0.316244
21
0.179084
0
LINE
8
BLACK
6
CONTINUOUS
10
0.316244
20
0.179084
11
0.313069
21
0.165862
0
LINE
8
BLACK
6
CONTINUOUS
10
0.313069
20
0.165862
11
0.308396
21
0.153093
0
LINE
8
BLACK
6
CONTINUOUS
10
0.308396
20
0.153093
11
0.302286
21
0.140945
0
LINE
8
BLACK
6
CONTINUOUS
10
0.302286
20
0.140945
11
0.294821
21
0.12958
0
LINE
8
BLACK
6
CONTINUOUS
10
0.294821
20
0.12958
11
0.286099
21
0.119148
0
LINE
8
BLACK
6
CONTINUOUS
10
0.286099
20
0.119148
11
0.276235
21
0.109788
0
LINE
8
BLACK
6
CONTINUOUS
10
0.276235
20
0.109788
11
0.265361
21
0.101623
0
LINE
8
BLACK
6
CONTINUOUS
10
0.265361
20
0.101623
11
0.253621
21
0.094763
0
LINE
8
BLACK
6
CONTINUOUS
10
0.253621
20
0.094763
11
0.24117
21
0.0892974
0
LINE
8
BLACK
6
CONTINUOUS
10
0.24117
20
0.0892974
11
0.228173
21
0.0852991
0
LINE
8
BLACK
6
CONTINUOUS
10
0.228173
20
0.0852991
11
0.214803
21
0.0828211
0
LINE
8
BLACK
6
CONTINUOUS
10
0.214803
20
0.0828211
11
0.201237
21
0.0818962
0
LINE
8
BLACK
6
CONTINUOUS
10
0.201237
20
0.0818962
11
0.187654
21
0.0825368
0
LINE
8
BLACK
6
CONTINUOUS
10
0.187654
20
0.0825368
11
0.174235
21
0.0847343
0
LINE
8
BLACK
6
CONTINUOUS
10
0.174235
20
0.0847343
11
0.161157
21
0.0884595
0
LINE
8
BLACK
6
CONTINUOUS
10
0.161157
20
0.0884595
11
0.148595
21
0.0936631
0
LINE
8
BLACK
6
CONTINUOUS
10
0.148595
20
0.0936631
11
0.136713
21
0.100276
0
LINE
8
BLACK
6
CONTINUOUS
10
0.136713
20
0.100276
11
0.125671
21
0.108211
0
LINE
8
BLACK
6
CONTINUOUS
10
0.125671
20
0.108211
11
0.115613
21
0.117363
0
LINE
8
BLACK
6
CONTINUOUS
10
0.115613
20
0.117363
11
0.106675
21
0.127609
0
LINE
8
BLACK
6
CONTINUOUS
10
0.106675
20
0.127609
11
0.0989727
21
0.138816
0
LINE
8
BLACK
6
CONTINUOUS
10
0.0989727
20
0.138816
11
0.0926099
21
0.150833
0
LINE
8
BLACK
6
CONTINUOUS
10
0.0926099
20
0.150833
11
0.0876705
21
0.163502
0
LINE
8
BLACK
6
CONTINUOUS
10
0.0876705
20
0.163502
11
0.0842199
21
0.176655
0
LINE
8
BLACK
6
CONTINUOUS
10
0.0842199
20
0.176655
11
0.082304
21
0.190117
0
LINE
8
BLACK
6
CONTINUOUS
10
0.082304
20
0.190117
11
0.081948
21
0.20371
0
LINE
8
BLACK
6
CONTINUOUS
10
0.081948
20
0.20371
11
0.0831568
21
0.217254
0
LINE
8
BLACK
6
CONTINUOUS
10
0.0831568
20
0.217254
11
0.0859143
21
0.230569
0
LINE
8
BLACK
6
CONTINUOUS
10
0.0859143
20
0.230569
11
0.0901839
21
0.243479
0
LINE
8
BLACK
6
CONTINUOUS
10
0.0901839
20
0.243479
11
0.0959091
21
0.255813
0
LINE
8
BLACK
6
CONTINUOUS
10
0.0959091
20
0.255813
11
0.103014
21
0.267407
0
LINE
8
BLACK
6
CONTINUOUS
10
0.103014
20
0.267407
11
0.111404
21
0.278108
0
LINE
8
BLACK
6
CONTINUOUS
10
0.111404
20
0.278108
11
0.120969
21
0.287773
0
LINE
8
BLACK
6
CONTINUOUS
10
0.120969
20
0.287773
11
0.131581
21
0.296275
0
LINE
8
BLACK
6
CONTINUOUS
10
0.131581
20
0.296275
11
0.1431
21
0.303501
0
LINE
8
BLACK
6
CONTINUOUS
10
0.1431
20
0.303501
11
0.155373
21
0.309355
0
LINE
8
BLACK
6
CONTINUOUS
10
0.155373
20
0.309355
11
0.168238
21
0.313759
0
LINE
8
BLACK
6
CONTINUOUS
10
0.168238
20
0.313759
11
0.181524
21
0.316656
0
LINE
8
BLACK
6
CONTINUOUS
10
0.181524
20
0.316656
11
0.195054
21
0.318007
0
LINE
8
BLACK
6
CONTINUOUS
10
0.195054
20
0.318007
11
0.20865
21
0.317793
0
LINE
8
BLACK
6
CONTINUOUS
10
0.729866
20
0.744977
11
0.734256
21
0.74274
0
LINE
8
BLACK
6
CONTINUOUS
10
0.734256
20
0.74274
11
0.73774
21
0.739256
0
LINE
8
BLACK
6
CONTINUOUS
10
0.73774
20
0.739256
11
0.739977
21
0.734866
0
LINE
8
BLACK
6
CONTINUOUS
10
0.739977
20
0.734866
11
0.740748
21
0.73
0
LINE
8
BLACK
6
CONTINUOUS
10
0.740748
20
0.73
11
0.739977
21
0.725134
0
LINE
8
BLACK
6
CONTINUOUS
10
0.739977
20
0.725134
11
0.73774
21
0.720744
0
LINE
8
BLACK
6
CONTINUOUS
10
0.73774
20
0.720744
11
0.734843
21
0.717846
0
LINE
8
BLACK
6
CONTINUOUS
10
0.734843
20
0.717846
11
0.734843
21
0.502154
0
LINE
8
BLACK
6
CONTINUOUS
10
0.734843
20
0.502154
11
0.73774
21
0.499256
0
LINE
8
BLACK
6
CONTINUOUS
10
0.73774
20
0.499256
11
0.739977
21
0.494866
0
LINE
8
BLACK
6
CONTINUOUS
10
0.739977
20
0.494866
11
0.740748
21
0.49
0
LINE
8
BLACK
6
CONTINUOUS
10
0.740748
20
0.49
11
0.739977
21
0.485134
0
LINE
8
BLACK
6
CONTINUOUS
10
0.739977
20
0.485134
11
0.73774
21
0.480744
0
LINE
8
BLACK
6
CONTINUOUS
10
0.73774
20
0.480744
11
0.734256
21
0.47726
0
LINE
8
BLACK
6
CONTINUOUS
10
0.734256
20
0.47726
11
0.729866
21
0.475023
0
LINE
8
BLACK
6
CONTINUOUS
10
0.729866
20
0.475023
11
0.725
21
0.474252
0
LINE
8
BLACK
6
CONTINUOUS
10
0.725
20
0.474252
11
0.720134
21
0.475023
0
LINE
8
BLACK
6
CONTINUOUS
10
0.720134
20
0.475023
11
0.715744
21
0.47726
0
LINE
8
BLACK
6
CONTINUOUS
10
0.715744
20
0.47726
11
0.71226
21
0.480744
0
LINE
8
BLACK
6
CONTINUOUS
10
0.71226
20
0.480744
11
0.710023
21
0.485134
0
LINE
8
BLACK
6
CONTINUOUS
10
0.710023
20
0.485134
11
0.709252
21
0.49
0
LINE
8
BLACK
6
CONTINUOUS
10
0.709252
20
0.49
11
0.710023
21
0.494866
0
LINE
8
BLACK
6
CONTINUOUS
10
0.710023
20
0.494866
11
0.71226
21
0.499256
0
LINE
8
BLACK
6
CONTINUOUS
10
0.71226
20
0.499256
11
0.715157
21
0.502154
0
LINE
8
BLACK
6
CONTINUOUS
10
0.715157
20
0.502154
11
0.715157
21
0.717846
0
LINE
8
BLACK
6
CONTINUOUS
10
0.715157
20
0.717846
11
0.71226
21
0.720744
0
LINE
8
BLACK
6
CONTINUOUS
10
0.71226
20
0.720744
11
0.710023
21
0.725134
0
LINE
8
BLACK
6
CONTINUOUS
10
0.710023
20
0.725134
11
0.709252
21
0.73
0
LINE
8
BLACK
6
CONTINUOUS
10
0.709252
20
0.73
11
0.710023
21
0.734866
0
LINE
8
BLACK
6
CONTINUOUS
10
0.710023
20
0.734866
11
0.71226
21
0.739256
0
LINE
8
BLACK
6
CONTINUOUS
10
0.71226
20
0.739256
11
0.715744
21
0.74274
0
LINE
8
BLACK
6
CONTINUOUS
10
0.715744
20
0.74274
11
0.720134
21
0.744977
0
LINE
8
BLACK
6
CONTINUOUS
10
0.720134
20
0.744977
11
0.725
21
0.745748
0
LINE
8
BLACK
6
CONTINUOUS
10
0.725
20
0.745748
11
0.729866
21
0.744977
0
LINE
8
BLACK
6
CONTINUOUS
10
1.515
20
1.02
11
1.455
21
1.02
0
LINE
8
BLACK
6
CONTINUOUS
10
1.455
20
1.02
11
1.455
21
1.08
0
LINE
8
BLACK
6
CONTINUOUS
10
1.455
20
1.08
11
1.515
21
1.08
0
LINE
8
BLACK
6
CONTINUOUS
10
1.515
20
1.08
11
1.515
21
1.02
0
LINE
8
BLACK
6
CONTINUOUS
10
1.40865
20
1.51779
11
1.42213
21
1.51602
0
LINE
8
BLACK
6
CONTINUOUS
10
1.42213
20
1.51602
11
1.43532
21
1.51271
0
LINE
8
BLACK
6
CONTINUOUS
10
1.43532
20
1.51271
11
1.44804
21
1.5079
0
LINE
8
BLACK
6
CONTINUOUS
10
1.44804
20
1.5079
11
1.46012
21
1.50166
0
LINE
8
BLACK
6
CONTINUOUS
10
1.46012
20
1.50166
11
1.47141
21
1.49408
0
LINE
8
BLACK
6
CONTINUOUS
10
1.47141
20
1.49408
11
1.48175
21
1.48525
0
LINE
8
BLACK
6
CONTINUOUS
10
1.48175
20
1.48525
11
1.49101
21
1.47529
0
LINE
8
BLACK
6
CONTINUOUS
10
1.49101
20
1.47529
11
1.49906
21
1.46433
0
LINE
8
BLACK
6
CONTINUOUS
10
1.49906
20
1.46433
11
1.50579
21
1.45252
0
LINE
8
BLACK
6
CONTINUOUS
10
1.50579
20
1.45252
11
1.51113
21
1.44001
0
LINE
8
BLACK
6
CONTINUOUS
10
1.51113
20
1.44001
11
1.51499
21
1.42697
0
LINE
8
BLACK
6
CONTINUOUS
10
1.51499
20
1.42697
11
1.51733
21
1.41358
0
LINE
8
BLACK
6
CONTINUOUS
10
1.51733
20
1.41358
11
1.51811
21
1.4
0
LINE
8
BLACK
6
CONTINUOUS
10
1.51811
20
1.4
11
1.51788
21
1.39258
0
LINE
8
BLACK
6
CONTINUOUS
10
1.51788
20
1.39258
11
1.51624
21
1.37908
0
LINE
8
BLACK
6
CONTINUOUS
10
1.51624
20
1.37908
11
1.51307
21
1.36586
0
LINE
8
BLACK
6
CONTINUOUS
10
1.51307
20
1.36586
11
1.5084
21
1.35309
0
LINE
8
BLACK
6
CONTINUOUS
10
1.5084
20
1.35309
11
1.50229
21
1.34094
0
LINE
8
BLACK
6
CONTINUOUS
10
1.50229
20
1.34094
11
1.49482
21
1.32958
0
LINE
8
BLACK
6
CONTINUOUS
10
1.49482
20
1.32958
11
1.4861
21
1.31915
0
LINE
8
BLACK
6
CONTINUOUS
10
1.4861
20
1.31915
11
1.47624
21
1.30979
0
LINE
8
BLACK
6
CONTINUOUS
10
1.47624
20
1.30979
11
1.46536
21
1.30162
0
LINE
8
BLACK
6
CONTINUOUS
10
1.46536
20
1.30162
11
1.45362
21
1.29476
0
LINE
8
BLACK
6
CONTINUOUS
10
1.45362
20
1.29476
11
1.44117
21
1.2893
0
LINE
8
BLACK
6
CONTINUOUS
10
1.44117
20
1.2893
11
1.42817
21
1.2853
0
LINE
8
BLACK
6
CONTINUOUS
10
1.42817
20
1.2853
11
1.4148
21
1.28282
0
LINE
8
BLACK
6
CONTINUOUS
10
1.4148
20
1.28282
11
1.40124
21
1.2819
0
LINE
8
BLACK
6
CONTINUOUS
10
1.40124
20
1.2819
11
1.38765
21
1.28254
0
LINE
8
BLACK
6
CONTINUOUS
10
1.38765
20
1.28254
11
1.37424
21
1.28473
0
LINE
8
BLACK
6
CONTINUOUS
10
1.37424
20
1.28473
11
1.36116
21
1.28846
0
LINE
8
BLACK
6
CONTINUOUS
10
1.36116
20
1.28846
11
1.34859
21
1.29366
0
LINE
8
BLACK
6
CONTINUOUS
10
1.34859
20
1.29366
11
1.33671
21
1.30028
0
LINE
8
BLACK
6
CONTINUOUS
10
1.33671
20
1.30028
11
1.32567
21
1.30821
0
LINE
8
BLACK
6
CONTINUOUS
10
1.32567
20
1.30821
11
1.31561
21
1.31736
0
LINE
8
BLACK
6
CONTINUOUS
10
1.31561
20
1.31736
11
1.30667
21
1.32761
0
LINE
8
BLACK
6
CONTINUOUS
10
1.30667
20
1.32761
11
1.29897
21
1.33882
0
LINE
8
BLACK
6
CONTINUOUS
10
1.29897
20
1.33882
11
1.29261
21
1.35083
0
LINE
8
BLACK
6
CONTINUOUS
10
1.29261
20
1.35083
11
1.28767
21
1.3635
0
LINE
8
BLACK
6
CONTINUOUS
10
1.28767
20
1.3635
11
1.28422
21
1.37665
0
LINE
8
BLACK
6
CONTINUOUS
10
1.28422
20
1.37665
11
1.2823
21
1.39012
0
LINE
8
BLACK
6
CONTINUOUS
10
1.2823
20
1.39012
11
1.28195
21
1.40371
0
LINE
8
BLACK
6
CONTINUOUS
10
1.28195
20
1.40371
11
1.28316
21
1.41725
0
LINE
8
BLACK
6
CONTINUOUS
10
1.28316
20
1.41725
11
1.28591
21
1.43057
0
LINE
8
BLACK
6
CONTINUOUS
10
1.28591
20
1.43057
11
1.29018
21
1.44348
0
LINE
8
BLACK
6
CONTINUOUS
10
1.29018
20
1.44348
11
1.29591
21
1.45581
0
LINE
8
BLACK
6
CONTINUOUS
10
1.29591
20
1.45581
11
1.30301
21
1.46741
0
LINE
8
BLACK
6
CONTINUOUS
10
1.30301
20
1.46741
11
1.3114
21
1.47811
0
LINE
8
BLACK
6
CONTINUOUS
10
1.3114
20
1.47811
11
1.32097
21
1.48777
0
LINE
8
BLACK
6
CONTINUOUS
10
1.32097
20
1.48777
11
1.33158
21
1.49627
0
LINE
8
BLACK
6
CONTINUOUS
10
1.33158
20
1.49627
11
1.3431
21
1.5035
0
LINE
8
BLACK
6
CONTINUOUS
10
1.3431
20
1.5035
11
1.35537
21
1.50935
0
LINE
8
BLACK
6
CONTINUOUS
10
1.35537
20
1.50935
11
1.36824
21
1.51376
0
LINE
8
BLACK
6
CONTINUOUS
10
1.36824
20
1.51376
11
1.38152
21
1.51666
0
LINE
8
BLACK
6
CONTINUOUS
10
1.38152
20
1.51666
11
1.39505
21
1.51801
0
LINE
8
BLACK
6
CONTINUOUS
10
1.39505
20
1.51801
11
1.40865
21
1.51779
0
LINE
8
BLACK
6
CONTINUOUS
10
0.20865
20
1.51779
11
0.222132
21
1.51602
0
LINE
8
BLACK
6
CONTINUOUS
10
0.222132
20
1.51602
11
0.23532
21
1.51271
0
LINE
8
BLACK
6
CONTINUOUS
10
0.23532
20
1.51271
11
0.24804
21
1.5079
0
LINE
8
BLACK
6
CONTINUOUS
10
0.24804
20
1.5079
11
0.260123
21
1.50166
0
LINE
8
BLACK
6
CONTINUOUS
10
0.260123
20
1.50166
11
0.271409
21
1.49408
0
LINE
8
BLACK
6
CONTINUOUS
10
0.271409
20
1.49408
11
0.281749
21
1.48525
0
LINE
8
BLACK
6
CONTINUOUS
10
0.281749
20
1.48525
11
0.291006
21
1.47529
0
LINE
8
BLACK
6
CONTINUOUS
10
0.291006
20
1.47529
11
0.299056
21
1.46433
0
LINE
8
BLACK
6
CONTINUOUS
10
0.299056
20
1.46433
11
0.305793
21
1.45252
0
LINE
8
BLACK
6
CONTINUOUS
10
0.305793
20
1.45252
11
0.311128
21
1.44001
0
LINE
8
BLACK
6
CONTINUOUS
10
0.311128
20
1.44001
11
0.31499
21
1.42697
0
LINE
8
BLACK
6
CONTINUOUS
10
0.31499
20
1.42697
11
0.317327
21
1.41358
0
LINE
8
BLACK
6
CONTINUOUS
10
0.317327
20
1.41358
11
0.31811
21
1.4
0
LINE
8
BLACK
6
CONTINUOUS
10
0.31811
20
1.4
11
0.317877
21
1.39258
0
LINE
8
BLACK
6
CONTINUOUS
10
0.317877
20
1.39258
11
0.316244
21
1.37908
0
LINE
8
BLACK
6
CONTINUOUS
10
0.316244
20
1.37908
11
0.313069
21
1.36586
0
LINE
8
BLACK
6
CONTINUOUS
10
0.313069
20
1.36586
11
0.308396
21
1.35309
0
LINE
8
BLACK
6
CONTINUOUS
10
0.308396
20
1.35309
11
0.302286
21
1.34094
0
LINE
8
BLACK
6
CONTINUOUS
10
0.302286
20
1.34094
11
0.294821
21
1.32958
0
LINE
8
BLACK
6
CONTINUOUS
10
0.294821
20
1.32958
11
0.286099
21
1.31915
0
LINE
8
BLACK
6
CONTINUOUS
10
0.286099
20
1.31915
11
0.276235
21
1.30979
0
LINE
8
BLACK
6
CONTINUOUS
10
0.276235
20
1.30979
11
0.265361
21
1.30162
0
LINE
8
BLACK
6
CONTINUOUS
10
0.265361
20
1.30162
11
0.253621
21
1.29476
0
LINE
8
BLACK
6
CONTINUOUS
10
0.253621
20
1.29476
11
0.24117
21
1.2893
0
LINE
8
BLACK
6
CONTINUOUS
10
0.24117
20
1.2893
11
0.228173
21
1.2853
0
LINE
8
BLACK
6
CONTINUOUS
10
0.228173
20
1.2853
11
0.214803
21
1.28282
0
LINE
8
BLACK
6
CONTINUOUS
10
0.214803
20
1.28282
11
0.201237
21
1.2819
0
LINE
8
BLACK
6
CONTINUOUS
10
0.201237
20
1.2819
11
0.187654
21
1.28254
0
LINE
8
BLACK
6
CONTINUOUS
10
0.187654
20
1.28254
11
0.174235
21
1.28473
0
LINE
8
BLACK
6
CONTINUOUS
10
0.174235
20
1.28473
11
0.161157
21
1.28846
0
LINE
8
BLACK
6
CONTINUOUS
10
0.161157
20
1.28846
11
0.148595
21
1.29366
0
LINE
8
BLACK
6
CONTINUOUS
10
0.148595
20
1.29366
11
0.136713
21
1.30028
0
LINE
8
BLACK
6
CONTINUOUS
10
0.136713
20
1.30028
11
0.125671
21
1.30821
0
LINE
8
BLACK
6
CONTINUOUS
10
0.125671
20
1.30821
11
0.115613
21
1.31736
0
LINE
8
BLACK
6
CONTINUOUS
10
0.115613
20
1.31736
11
0.106675
21
1.32761
0
LINE
8
BLACK
6
CONTINUOUS
10
0.106675
20
1.32761
11
0.0989727
21
1.33882
0
LINE
8
BLACK
6
CONTINUOUS
10
0.0989727
20
1.33882
11
0.0926099
21
1.35083
0
LINE
8
BLACK
6
CONTINUOUS
10
0.0926099
20
1.35083
11
0.0876705
21
1.3635
0
LINE
8
BLACK
6
CONTINUOUS
10
0.0876705
20
1.3635
11
0.0842199
21
1.37665
0
LINE
8
BLACK
6
CONTINUOUS
10
0.0842199
20
1.37665
11
0.082304
21
1.39012
0
LINE
8
BLACK
6
CONTINUOUS
10
0.082304
20
1.39012
11
0.081948
21
1.40371
0
LINE
8
BLACK
6
CONTINUOUS
10
0.081948
20
1.40371
11
0.0831568
21
1.41725
0
LINE
8
BLACK
6
CONTINUOUS
10
0.0831568
20
1.41725
11
0.0859143
21
1.43057
0
LINE
8
BLACK
6
CONTINUOUS
10
0.0859143
20
1.43057
11
0.0901839
21
1.44348
0
LINE
8
BLACK
6
CONTINUOUS
10
0.0901839
20
1.44348
11
0.0959091
21
1.45581
0
LINE
8
BLACK
6
CONTINUOUS
10
0.0959091
20
1.45581
11
0.103014
21
1.46741
0
LINE
8
BLACK
6
CONTINUOUS
10
0.103014
20
1.46741
11
0.111404
21
1.47811
0
LINE
8
BLACK
6
CONTINUOUS
10
0.111404
20
1.47811
11
0.120969
21
1.48777
0
LINE
8
BLACK
6
CONTINUOUS
10
0.120969
20
1.48777
11
0.131581
21
1.49627
0
LINE
8
BLACK
6
CONTINUOUS
10
0.131581
20
1.49627
11
0.1431
21
1.5035
0
LINE
8
BLACK
6
CONTINUOUS
10
0.1431
20
1.5035
11
0.155373
21
1.50935
0
LINE
8
BLACK
6
CONTINUOUS
10
0.155373
20
1.50935
11
0.168238
21
1.51376
0
LINE
8
BLACK
6
CONTINUOUS
10
0.168238
20
1.51376
11
0.181524
21
1.51666
0
LINE
8
BLACK
6
CONTINUOUS
10
0.181524
20
1.51666
11
0.195054
21
1.51801
0
LINE
8
BLACK
6
CONTINUOUS
10
0.195054
20
1.51801
11
0.20865
21
1.51779
0
LINE
8
BLACK
6
CONTINUOUS
10
1.40865
20
0.317793
11
1.42213
21
0.316018
0
LINE
8
BLACK
6
CONTINUOUS
10
1.42213
20
0.316018
11
1.43532
21
0.312706
0
LINE
8
BLACK
6
CONTINUOUS
10
1.43532
20
0.312706
11
1.44804
21
0.307899
0
LINE
8
BLACK
6
CONTINUOUS
10
1.44804
20
0.307899
11
1.46012
21
0.301662
0
LINE
8
BLACK
6
CONTINUOUS
10
1.46012
20
0.301662
11
1.47141
21
0.294078
0
LINE
8
BLACK
6
CONTINUOUS
10
1.47141
20
0.294078
11
1.48175
21
0.285247
0
LINE
8
BLACK
6
CONTINUOUS
10
1.48175
20
0.285247
11
1.49101
21
0.275286
0
LINE
8
BLACK
6
CONTINUOUS
10
1.49101
20
0.275286
11
1.49906
21
0.264327
0
LINE
8
BLACK
6
CONTINUOUS
10
1.49906
20
0.264327
11
1.50579
21
0.252516
0
LINE
8
BLACK
6
CONTINUOUS
10
1.50579
20
0.252516
11
1.51113
21
0.240008
0
LINE
8
BLACK
6
CONTINUOUS
10
1.51113
20
0.240008
11
1.51499
21
0.226971
0
LINE
8
BLACK
6
CONTINUOUS
10
1.51499
20
0.226971
11
1.51733
21
0.213575
0
LINE
8
BLACK
6
CONTINUOUS
10
1.51733
20
0.213575
11
1.51811
21
0.2
0
LINE
8
BLACK
6
CONTINUOUS
10
1.51811
20
0.2
11
1.51788
21
0.192584
0
LINE
8
BLACK
6
CONTINUOUS
10
1.51788
20
0.192584
11
1.51624
21
0.179084
0
LINE
8
BLACK
6
CONTINUOUS
10
1.51624
20
0.179084
11
1.51307
21
0.165862
0
LINE
8
BLACK
6
CONTINUOUS
10
1.51307
20
0.165862
11
1.5084
21
0.153093
0
LINE
8
BLACK
6
CONTINUOUS
10
1.5084
20
0.153093
11
1.50229
21
0.140945
0
LINE
8
BLACK
6
CONTINUOUS
10
1.50229
20
0.140945
11
1.49482
21
0.12958
0
LINE
8
BLACK
6
CONTINUOUS
10
1.49482
20
0.12958
11
1.4861
21
0.119148
0
LINE
8
BLACK
6
CONTINUOUS
10
1.4861
20
0.119148
11
1.47624
21
0.109788
0
LINE
8
BLACK
6
CONTINUOUS
10
1.47624
20
0.109788
11
1.46536
21
0.101623
0
LINE
8
BLACK
6
CONTINUOUS
10
1.46536
20
0.101623
11
1.45362
21
0.094763
0
LINE
8
BLACK
6
CONTINUOUS
10
1.45362
20
0.094763
11
1.44117
21
0.0892974
0
LINE
8
BLACK
6
CONTINUOUS
10
1.44117
20
0.0892974
11
1.42817
21
0.0852991
0
LINE
8
BLACK
6
CONTINUOUS
10
1.42817
20
0.0852991
11
1.4148
21
0.0828211
0
LINE
8
BLACK
6
CONTINUOUS
10
1.4148
20
0.0828211
11
1.40124
21
0.0818962
0
LINE
8
BLACK
6
CONTINUOUS
10
1.40124
20
0.0818962
11
1.38765
21
0.0825368
0
LINE
8
BLACK
6
CONTINUOUS
10
1.38765
20
0.0825368
11
1.37424
21
0.0847343
0
LINE
8
BLACK
6
CONTINUOUS
10
1.37424
20
0.0847343
11
1.36116
21
0.0884595
0
LINE
8
BLACK
6
CONTINUOUS
10
1.36116
20
0.0884595
11
1.34859
21
0.0936631
0
LINE
8
BLACK
6
CONTINUOUS
10
1.34859
20
0.0936631
11
1.33671
21
0.100276
0
LINE
8
BLACK
6
CONTINUOUS
10
1.33671
20
0.100276
11
1.32567
21
0.108211
0
LINE
8
BLACK
6
CONTINUOUS
10
1.32567
20
0.108211
11
1.31561
21
0.117363
0
LINE
8
BLACK
6
CONTINUOUS
10
1.31561
20
0.117363
11
1.30667
21
0.127609
0
LINE
8
BLACK
6
CONTINUOUS
10
1.30667
20
0.127609
11
1.29897
21
0.138816
0
LINE
8
BLACK
6
CONTINUOUS
10
1.29897
20
0.138816
11
1.29261
21
0.150833
0
LINE
8
BLACK
6
CONTINUOUS
10
1.29261
20
0.150833
11
1.28767
21
0.163502
0
LINE
8
BLACK
6
CONTINUOUS
10
1.28767
20
0.163502
11
1.28422
21
0.176655
0
LINE
8
BLACK
6
CONTINUOUS
10
1.28422
20
0.176655
11
1.2823
21
0.190117
0
LINE
8
BLACK
6
CONTINUOUS
10
1.2823
20
0.190117
11
1.28195
21
0.20371
0
LINE
8
BLACK
6
CONTINUOUS
10
1.28195
20
0.20371
11
1.28316
21
0.217254
0
LINE
8
BLACK
6
CONTINUOUS
10
1.28316
20
0.217254
11
1.28591
21
0.230569
0
LINE
8
BLACK
6
CONTINUOUS
10
1.28591
20
0.230569
11
1.29018
21
0.243479
0
LINE
8
BLACK
6
CONTINUOUS
10
1.29018
20
0.243479
11
1.29591
21
0.255813
0
LINE
8
BLACK
6
CONTINUOUS
10
1.29591
20
0.255813
11
1.30301
21
0.267407
0
LINE
8
BLACK
6
CONTINUOUS
10
1.30301
20
0.267407
11
1.3114
21
0.278108
0
LINE
8
BLACK
6
CONTINUOUS
10
1.3114
20
0.278108
11
1.32097
21
0.287773
0
LINE
8
BLACK
6
CONTINUOUS
10
1.32097
20
0.287773
11
1.33158
21
0.296275
0
LINE
8
BLACK
6
CONTINUOUS
10
1.33158
20
0.296275
11
1.3431
21
0.303501
0
LINE
8
BLACK
6
CONTINUOUS
10
1.3431
20
0.303501
11
1.35537
21
0.309355
0
LINE
8
BLACK
6
CONTINUOUS
10
1.35537
20
0.309355
11
1.36824
21
0.313759
0
LINE
8
BLACK
6
CONTINUOUS
10
1.36824
20
0.313759
11
1.38152
21
0.316656
0
LINE
8
BLACK
6
CONTINUOUS
10
1.38152
20
0.316656
11
1.39505
21
0.318007
0
LINE
8
BLACK
6
CONTINUOUS
10
1.39505
20
0.318007
11
1.40865
21
0.317793
0
LINE
8
BLACK
6
CONTINUOUS
10
0.685
20
0.38
11
0.625
21
0.38
0
LINE
8
BLACK
6
CONTINUOUS
10
0.625
20
0.38
11
0.625
21
0.44
0
LINE
8
BLACK
6
CONTINUOUS
10
0.625
20
0.44
11
0.685
21
0.44
0
LINE
8
BLACK
6
CONTINUOUS
10
0.685
20
0.44
11
0.685
21
0.38
0
LINE
8
BLACK
6
CONTINUOUS
10
0.485
20
0.82
11
0.335
21
0.82
0
LINE
8
BLACK
6
CONTINUOUS
10
0.335
20
0.82
11
0.335
21
0.97
0
LINE
8
BLACK
6
CONTINUOUS
10
0.335
20
0.97
11
0.485
21
0.97
0
LINE
8
BLACK
6
CONTINUOUS
10
0.485
20
0.97
11
0.485
21
0.82
0
LINE
8
BLACK
6
CONTINUOUS
10
0.28815
20
0.82
11
0.13815
21
0.82
0
LINE
8
BLACK
6
CONTINUOUS
10
0.13815
20
0.82
11
0.13815
21
0.97
0
LINE
8
BLACK
6
CONTINUOUS
10
0.13815
20
0.97
11
0.28815
21
0.97
0
LINE
8
BLACK
6
CONTINUOUS
10
0.28815
20
0.97
11
0.28815
21
0.82
0
LINE
8
BLACK
6
CONTINUOUS
10
1.415
20
1.02
11
1.355
21
1.02
0
LINE
8
BLACK
6
CONTINUOUS
10
1.355
20
1.02
11
1.355
21
1.08
0
LINE
8
BLACK
6
CONTINUOUS
10
1.355
20
1.08
11
1.415
21
1.08
0
LINE
8
BLACK
6
CONTINUOUS
10
1.415
20
1.08
11
1.415
21
1.02
0
LINE
8
BLACK
6
CONTINUOUS
10
1.14487
20
0.824977
11
1.14926
21
0.82274
0
LINE
8
BLACK
6
CONTINUOUS
10
1.14926
20
0.82274
11
1.15274
21
0.819256
0
LINE
8
BLACK
6
CONTINUOUS
10
1.15274
20
0.819256
11
1.15498
21
0.814866
0
LINE
8
BLACK
6
CONTINUOUS
10
1.15498
20
0.814866
11
1.15575
21
0.81
0
LINE
8
BLACK
6
CONTINUOUS
10
1.15575
20
0.81
11
1.15498
21
0.805134
0
LINE
8
BLACK
6
CONTINUOUS
10
1.15498
20
0.805134
11
1.15274
21
0.800744
0
LINE
8
BLACK
6
CONTINUOUS
10
1.15274
20
0.800744
11
1.14984
21
0.797846
0
LINE
8
BLACK
6
CONTINUOUS
10
1.14984
20
0.797846
11
1.14984
21
0.35
0
LINE
8
BLACK
6
CONTINUOUS
10
1.14984
20
0.35
11
1.14909
21
0.346233
0
LINE
8
BLACK
6
CONTINUOUS
10
1.14909
20
0.346233
11
1.14696
21
0.34304
0
LINE
8
BLACK
6
CONTINUOUS
10
1.14696
20
0.34304
11
1.14696
21
0.34304
0
LINE
8
BLACK
6
CONTINUOUS
10
1.14696
20
0.34304
11
0.895498
21
0.0915786
0
LINE
8
BLACK
6
CONTINUOUS
10
0.895498
20
0.0915786
11
0.895748
21
0.09
0
LINE
8
BLACK
6
CONTINUOUS
10
0.895748
20
0.09
11
0.894977
21
0.0851336
0
LINE
8
BLACK
6
CONTINUOUS
10
0.894977
20
0.0851336
11
0.89274
21
0.0807435
0
LINE
8
BLACK
6
CONTINUOUS
10
0.89274
20
0.0807435
11
0.889256
21
0.0772596
0
LINE
8
BLACK
6
CONTINUOUS
10
0.889256
20
0.0772596
11
0.884866
21
0.0750227
0
LINE
8
BLACK
6
CONTINUOUS
10
0.884866
20
0.0750227
11
0.88
21
0.074252
0
LINE
8
BLACK
6
CONTINUOUS
10
0.88
20
0.074252
11
0.875134
21
0.0750227
0
LINE
8
BLACK
6
CONTINUOUS
10
0.875134
20
0.0750227
11
0.870744
21
0.0772596
0
LINE
8
BLACK
6
CONTINUOUS
10
0.870744
20
0.0772596
11
0.86726
21
0.0807435
0
LINE
8
BLACK
6
CONTINUOUS
10
0.86726
20
0.0807435
11
0.865023
21
0.0851336
0
LINE
8
BLACK
6
CONTINUOUS
10
0.865023
20
0.0851336
11
0.864252
21
0.09
0
LINE
8
BLACK
6
CONTINUOUS
10
0.864252
20
0.09
11
0.865023
21
0.0948664
0
LINE
8
BLACK
6
CONTINUOUS
10
0.865023
20
0.0948664
11
0.86726
21
0.0992565
0
LINE
8
BLACK
6
CONTINUOUS
10
0.86726
20
0.0992565
11
0.870744
21
0.10274
0
LINE
8
BLACK
6
CONTINUOUS
10
0.870744
20
0.10274
11
0.875134
21
0.104977
0
LINE
8
BLACK
6
CONTINUOUS
10
0.875134
20
0.104977
11
0.88
21
0.105748
0
LINE
8
BLACK
6
CONTINUOUS
10
0.88
20
0.105748
11
0.881579
21
0.105498
0
LINE
8
BLACK
6
CONTINUOUS
10
0.881579
20
0.105498
11
1.13016
21
0.354077
0
LINE
8
BLACK
6
CONTINUOUS
10
1.13016
20
0.354077
11
1.13016
21
0.797846
0
LINE
8
BLACK
6
CONTINUOUS
10
1.13016
20
0.797846
11
1.12726
21
0.800744
0
LINE
8
BLACK
6
CONTINUOUS
10
1.12726
20
0.800744
11
1.12502
21
0.805134
0
LINE
8
BLACK
6
CONTINUOUS
10
1.12502
20
0.805134
11
1.12425
21
0.81
0
LINE
8
BLACK
6
CONTINUOUS
10
1.12425
20
0.81
11
1.12502
21
0.814866
0
LINE
8
BLACK
6
CONTINUOUS
10
1.12502
20
0.814866
11
1.12726
21
0.819256
0
LINE
8
BLACK
6
CONTINUOUS
10
1.12726
20
0.819256
11
1.13074
21
0.82274
0
LINE
8
BLACK
6
CONTINUOUS
10
1.13074
20
0.82274
11
1.13513
21
0.824977
0
LINE
8
BLACK
6
CONTINUOUS
10
1.13513
20
0.824977
11
1.14
21
0.825748
0
LINE
8
BLACK
6
CONTINUOUS
10
1.14
20
0.825748
11
1.14487
21
0.824977
0
LINE
8
BLACK
6
CONTINUOUS
10
1.19909
20
0.291233
11
1.19696
21
0.28804
0
LINE
8
BLACK
6
CONTINUOUS
10
1.19696
20
0.28804
11
1.0005
21
0.0915786
0
LINE
8
BLACK
6
CONTINUOUS
10
1.0005
20
0.0915786
11
1.00075
21
0.09
0
LINE
8
BLACK
6
CONTINUOUS
10
1.00075
20
0.09
11
0.999977
21
0.0851336
0
LINE
8
BLACK
6
CONTINUOUS
10
0.999977
20
0.0851336
11
0.99774
21
0.0807435
0
LINE
8
BLACK
6
CONTINUOUS
10
0.99774
20
0.0807435
11
0.994256
21
0.0772596
0
LINE
8
BLACK
6
CONTINUOUS
10
0.994256
20
0.0772596
11
0.989866
21
0.0750227
0
LINE
8
BLACK
6
CONTINUOUS
10
0.989866
20
0.0750227
11
0.985
21
0.074252
0
LINE
8
BLACK
6
CONTINUOUS
10
0.985
20
0.074252
11
0.980134
21
0.0750227
0
LINE
8
BLACK
6
CONTINUOUS
10
0.980134
20
0.0750227
11
0.975744
21
0.0772596
0
LINE
8
BLACK
6
CONTINUOUS
10
0.975744
20
0.0772596
11
0.97226
21
0.0807435
0
LINE
8
BLACK
6
CONTINUOUS
10
0.97226
20
0.0807435
11
0.970023
21
0.0851336
0
LINE
8
BLACK
6
CONTINUOUS
10
0.970023
20
0.0851336
11
0.969252
21
0.09
0
LINE
8
BLACK
6
CONTINUOUS
10
0.969252
20
0.09
11
0.970023
21
0.0948664
0
LINE
8
BLACK
6
CONTINUOUS
10
0.970023
20
0.0948664
11
0.97226
21
0.0992565
0
LINE
8
BLACK
6
CONTINUOUS
10
0.97226
20
0.0992565
11
0.975744
21
0.10274
0
LINE
8
BLACK
6
CONTINUOUS
10
0.975744
20
0.10274
11
0.980134
21
0.104977
0
LINE
8
BLACK
6
CONTINUOUS
10
0.980134
20
0.104977
11
0.985
21
0.105748
0
LINE
8
BLACK
6
CONTINUOUS
10
0.985
20
0.105748
11
0.986579
21
0.105498
0
LINE
8
BLACK
6
CONTINUOUS
10
0.986579
20
0.105498
11
1.18016
21
0.299077
0
LINE
8
BLACK
6
CONTINUOUS
10
1.18016
20
0.299077
11
1.18016
21
0.347846
0
LINE
8
BLACK
6
CONTINUOUS
10
1.18016
20
0.347846
11
1.17726
21
0.350744
0
LINE
8
BLACK
6
CONTINUOUS
10
1.17726
20
0.350744
11
1.17502
21
0.355134
0
LINE
8
BLACK
6
CONTINUOUS
10
1.17502
20
0.355134
11
1.17425
21
0.36
0
LINE
8
BLACK
6
CONTINUOUS
10
1.17425
20
0.36
11
1.17502
21
0.364866
0
LINE
8
BLACK
6
CONTINUOUS
10
1.17502
20
0.364866
11
1.17726
21
0.369256
0
LINE
8
BLACK
6
CONTINUOUS
10
1.17726
20
0.369256
11
1.18016
21
0.372154
0
LINE
8
BLACK
6
CONTINUOUS
10
1.18016
20
0.372154
11
1.18016
21
1.02785
0
LINE
8
BLACK
6
CONTINUOUS
10
1.18016
20
1.02785
11
1.17726
21
1.03074
0
LINE
8
BLACK
6
CONTINUOUS
10
1.17726
20
1.03074
11
1.17502
21
1.03513
0
LINE
8
BLACK
6
CONTINUOUS
10
1.17502
20
1.03513
11
1.17425
21
1.04
0
LINE
8
BLACK
6
CONTINUOUS
10
1.17425
20
1.04
11
1.17502
21
1.04487
0
LINE
8
BLACK
6
CONTINUOUS
10
1.17502
20
1.04487
11
1.17726
21
1.04926
0
LINE
8
BLACK
6
CONTINUOUS
10
1.17726
20
1.04926
11
1.18074
21
1.05274
0
LINE
8
BLACK
6
CONTINUOUS
10
1.18074
20
1.05274
11
1.18513
21
1.05498
0
LINE
8
BLACK
6
CONTINUOUS
10
1.18513
20
1.05498
11
1.19
21
1.05575
0
LINE
8
BLACK
6
CONTINUOUS
10
1.19
20
1.05575
11
1.19487
21
1.05498
0
LINE
8
BLACK
6
CONTINUOUS
10
1.19487
20
1.05498
11
1.19926
21
1.05274
0
LINE
8
BLACK
6
CONTINUOUS
10
1.19926
20
1.05274
11
1.20274
21
1.04926
0
LINE
8
BLACK
6
CONTINUOUS
10
1.20274
20
1.04926
11
1.20498
21
1.04487
0
LINE
8
BLACK
6
CONTINUOUS
10
1.20498
20
1.04487
11
1.20575
21
1.04
0
LINE
8
BLACK
6
CONTINUOUS
10
1.20575
20
1.04
11
1.20498
21
1.03513
0
LINE
8
BLACK
6
CONTINUOUS
10
1.20498
20
1.03513
11
1.20274
21
1.03074
0
LINE
8
BLACK
6
CONTINUOUS
10
1.20274
20
1.03074
11
1.19984
21
1.02785
0
LINE
8
BLACK
6
CONTINUOUS
10
1.19984
20
1.02785
11
1.19984
21
0.372154
0
LINE
8
BLACK
6
CONTINUOUS
10
1.19984
20
0.372154
11
1.20274
21
0.369256
0
LINE
8
BLACK
6
CONTINUOUS
10
1.20274
20
0.369256
11
1.20498
21
0.364866
0
LINE
8
BLACK
6
CONTINUOUS
10
1.20498
20
0.364866
11
1.20575
21
0.36
0
LINE
8
BLACK
6
CONTINUOUS
10
1.20575
20
0.36
11
1.20498
21
0.355134
0
LINE
8
BLACK
6
CONTINUOUS
10
1.20498
20
0.355134
11
1.20274
21
0.350744
0
LINE
8
BLACK
6
CONTINUOUS
10
1.20274
20
0.350744
11
1.19984
21
0.347846
0
LINE
8
BLACK
6
CONTINUOUS
10
1.19984
20
0.347846
11
1.19984
21
0.295
0
LINE
8
BLACK
6
CONTINUOUS
10
1.19984
20
0.295
11
1.19909
21
0.291233
0
CIRCLE
8
BLACK
10
1.424
20
0.424
40
0.00787402
0
CIRCLE
8
BLACK
10
0.675
20
1.09
40
0.00787402
0
CIRCLE
8
BLACK
10
1.485
20
0.685
40
0.00787402
0
CIRCLE
8
BLACK
10
0.615
20
1.285
40
0.00787402
0
CIRCLE
8
BLACK
10
1.5
20
0.86
40
0.00787402
0
CIRCLE
8
BLACK
10
0.995
20
1.245
40
0.00787402
0
CIRCLE
8
BLACK
10
0.685
20
0.91
40
0.00787402
0
CIRCLE
8
BLACK
10
1.12
20
1.245
40
0.00787402
0
CIRCLE
8
BLACK
10
0.84
20
0.56
40
0.00787402
0
CIRCLE
8
BLACK
10
0.54
20
0.6
40
0.00787402
0
CIRCLE
8
BLACK
10
0.655
20
0.6
40
0.00787402
0
CIRCLE
8
BLACK
10
1.09
20
1.05
40
0.00787402
0
CIRCLE
8
BLACK
10
1.28
20
0.92
40
0.00787402
0
CIRCLE
8
BLACK
10
1.09
20
0.595
40
0.00787402
0
CIRCLE
8
BLACK
10
0.806
20
0.282
40
0.00787402
0
CIRCLE
8
BLACK
10
0.765
20
1
40
0.00787402
0
CIRCLE
8
BLACK
10
0.68
20
1
40
0.00787402
0
CIRCLE
8
BLACK
10
0.615
20
1.175
40
0.00787402
0
CIRCLE
8
BLACK
10
1.34
20
0.51
40
0.00787402
0
CIRCLE
8
BLACK
10
1.395
20
0.51
40
0.00787402
0
CIRCLE
8
BLACK
10
0.405
20
0.56
40
0.00787402
0
CIRCLE
8
BLACK
10
0.855
20
0.61
40
0.00787402
0
CIRCLE
8
BLACK
10
0.175
20
0.56
40
0.00787402
0
CIRCLE
8
BLACK
10
1.234
20
0.406
40
0.00787402
0
CIRCLE
8
BLACK
10
0.77
20
0.91
40
0.00787402
0
CIRCLE
8
BLACK
10
0.81
20
0.21
40
0.00787402
0
CIRCLE
8
BLACK
10
0.8
20
0.61
40
0.00787402
0
CIRCLE
8
BLACK
10
1.03
20
1.05
40
0.00787402
0
CIRCLE
8
BLACK
10
1.115
20
1
40
0.00787402
0
CIRCLE
8
BLACK
10
1.166
20
0.212
40
0.00787402
0
CIRCLE
8
BLACK
10
1.24
20
0.595
40
0.00787402
0
CIRCLE
8
BLACK
10
1.436
20
0.558
40
0.00787402
0
CIRCLE
8
BLACK
10
1.098
20
0.13
40
0.00787402
0
CIRCLE
8
BLACK
10
0.775
20
0.565
40
0.00787402
0
CIRCLE
8
BLACK
10
0.885
20
0.385
40
0.00787402
0
CIRCLE
8
BLACK
10
1.01
20
0.43
40
0.00787402
0
CIRCLE
8
BLACK
10
1.35
20
0.865
40
0.00787402
0
CIRCLE
8
BLACK
10
1.53
20
0.685
40
0.00787402
0
CIRCLE
8
BLACK
10
1.236
20
0.314
40
0.00787402
0
CIRCLE
8
BLACK
10
1.29
20
0.51
40
0.00787402
0
CIRCLE
8
BLACK
10
1.245
20
0.65
40
0.00787402
0
CIRCLE
8
BLACK
10
1.04
20
0.595
40
0.00787402
0
CIRCLE
8
BLACK
10
0.744
20
0.354
40
0.00787402
0
CIRCLE
8
BLACK
10
0.83
20
0.35
40
0.00787402
0
CIRCLE
8
BLACK
10
0.76
20
1.29
40
0.00787402
0
CIRCLE
8
BLACK
10
0.6
20
0.6
40
0.00787402
0
CIRCLE
8
BLACK
10
1.055
20
1.245
40
0.00787402
0
CIRCLE
8
BLACK
10
0.82
20
0.81
40
0.00787402
0
CIRCLE
8
BLACK
10
0.76
20
1.1
40
0.00787402
0
CIRCLE
8
BLACK
10
0.31
20
0.56
40
0.00787402
0
CIRCLE
8
BLACK
10
0.76
20
1.175
40
0.00787402
0
CIRCLE
8
BLACK
10
1.03
20
1
40
0.00787402
0
CIRCLE
8
BLACK
10
0.854
20
0.486
40
0.00787402
0
CIRCLE
8
BLACK
10
1.01
20
0.38
40
0.00787402
0
CIRCLE
8
BLACK
10
0.808
20
0.144
40
0.00787402
0
CIRCLE
8
BLACK
10
1.42
20
0.86
40
0.00787402
0
CIRCLE
8
BLACK
10
0.24
20
0.56
40
0.00787402
0
CIRCLE
8
BLACK
10
0.875
20
0.78
40
0.00787402
0
CIRCLE
8
BLACK
10
1.436
20
0.622
40
0.00787402
0
CIRCLE
8
BLACK
10
1.43
20
0.685
40
0.00787402
0
CIRCLE
8
BLACK
10
0.725
20
0.49
40
0.00787402
0
CIRCLE
8
BLACK
10
0.725
20
0.73
40
0.00787402
0
CIRCLE
8
BLACK
10
0.88
20
0.09
40
0.00787402
0
CIRCLE
8
BLACK
10
1.14
20
0.81
40
0.00787402
0
CIRCLE
8
BLACK
10
1.19
20
0.36
40
0.00787402
0
CIRCLE
8
BLACK
10
1.19
20
1.04
40
0.00787402
0
CIRCLE
8
BLACK
10
0.985
20
0.09
40
0.00787402
  0
ENDSEC
  0
EOF
