  0
SECTION
  2
HEADER
  9
$ANGBASE
  50
0.0
  9
$ANGDIR
  70
1
  9
$MEASUREMENT
  70
0
  0
ENDSEC
  0
SECTION
  2
TABLES
  0
TABLE
  2
LTYPE
  70
4
  0
LTYPE
  5
40F
  2
CONTINUOUS
  70
0
  3
Solid line
  72
65
  73
0
  40
0.0
  0
LTYPE
  5
410
  2
DASHDOT
 70
0
  3
Dash Dot ____ _ ____ _
 72
65
 73
4
 40
2.0
 49
1.25
 49
-0.25
 49
0.25
 49
-0.25
  0
LTYPE
  5
411
  2
DASHED
 70
0
  3
Dashed __ __ __ __ __
 72
65
 73
2
 40
0.75
 49
0.5
 49
-0.25
  0
LTYPE
  5
43B
  2
DOTTED
 70
0
  3
Dotted .  .  .  .
 72
65
 73
2
 40
0.2
 49
0.0
 49
-0.2
  0
ENDTAB
  0
TABLE
  2
STYLE
  70
4
  0
STYLE
  2
KICAD
  70
0
  40
0
  41
1
  42
1
  50
0
  71
0
  3
isocp.shx
  0
STYLE
  2
KICADB
  70
0
  40
0
  41
1
  42
1
  50
0
  71
0
  3
isocp.shx
  0
STYLE
  2
KICADI
  70
0
  40
0
  41
1
  42
1
  50
15
  71
0
  3
isocp.shx
  0
STYLE
  2
KICADBI
  70
0
  40
0
  41
1
  42
1
  50
15
  71
0
  3
isocp.shx
  0
ENDTAB
  0
TABLE
  2
LAYER
  70
1
  0
LAYER
  2
BLACK
  70
0
  62
7
  6
CONTINUOUS
  0
ENDTAB
  0
ENDSEC
  0
SECTION
  2
ENTITIES
0
LINE
8
BLACK
6
CONTINUOUS
10
0.214684
20
0.323143
11
0.228319
21
0.320739
0
LINE
8
BLACK
6
CONTINUOUS
10
0.228319
20
0.320739
11
0.241601
21
0.31683
0
LINE
8
BLACK
6
CONTINUOUS
10
0.241601
20
0.31683
11
0.254365
21
0.311465
0
LINE
8
BLACK
6
CONTINUOUS
10
0.254365
20
0.311465
11
0.266451
21
0.30471
0
LINE
8
BLACK
6
CONTINUOUS
10
0.266451
20
0.30471
11
0.277709
21
0.29665
0
LINE
8
BLACK
6
CONTINUOUS
10
0.277709
20
0.29665
11
0.287998
21
0.287386
0
LINE
8
BLACK
6
CONTINUOUS
10
0.287998
20
0.287386
11
0.29719
21
0.277032
0
LINE
8
BLACK
6
CONTINUOUS
10
0.29719
20
0.277032
11
0.305171
21
0.265718
0
LINE
8
BLACK
6
CONTINUOUS
10
0.305171
20
0.265718
11
0.311841
21
0.253585
0
LINE
8
BLACK
6
CONTINUOUS
10
0.311841
20
0.253585
11
0.317118
21
0.240785
0
LINE
8
BLACK
6
CONTINUOUS
10
0.317118
20
0.240785
11
0.320934
21
0.227476
0
LINE
8
BLACK
6
CONTINUOUS
10
0.320934
20
0.227476
11
0.323243
21
0.213824
0
LINE
8
BLACK
6
CONTINUOUS
10
0.323243
20
0.213824
11
0.324016
21
0.2
0
LINE
8
BLACK
6
CONTINUOUS
10
0.324016
20
0.2
11
0.323967
21
0.196537
0
LINE
8
BLACK
6
CONTINUOUS
10
0.323967
20
0.196537
11
0.322809
21
0.18274
0
LINE
8
BLACK
6
CONTINUOUS
10
0.322809
20
0.18274
11
0.32012
21
0.169159
0
LINE
8
BLACK
6
CONTINUOUS
10
0.32012
20
0.169159
11
0.315933
21
0.155961
0
LINE
8
BLACK
6
CONTINUOUS
10
0.315933
20
0.155961
11
0.310302
21
0.143313
0
LINE
8
BLACK
6
CONTINUOUS
10
0.310302
20
0.143313
11
0.303295
21
0.131371
0
LINE
8
BLACK
6
CONTINUOUS
10
0.303295
20
0.131371
11
0.295002
21
0.120284
0
LINE
8
BLACK
6
CONTINUOUS
10
0.295002
20
0.120284
11
0.285524
21
0.110191
0
LINE
8
BLACK
6
CONTINUOUS
10
0.285524
20
0.110191
11
0.27498
21
0.101218
0
LINE
8
BLACK
6
CONTINUOUS
10
0.27498
20
0.101218
11
0.263501
21
0.0934754
0
LINE
8
BLACK
6
CONTINUOUS
10
0.263501
20
0.0934754
11
0.251231
21
0.0870609
0
LINE
8
BLACK
6
CONTINUOUS
10
0.251231
20
0.0870609
11
0.238323
21
0.082054
0
LINE
8
BLACK
6
CONTINUOUS
10
0.238323
20
0.082054
11
0.224937
21
0.0785172
0
LINE
8
BLACK
6
CONTINUOUS
10
0.224937
20
0.0785172
11
0.21124
21
0.0764946
0
LINE
8
BLACK
6
CONTINUOUS
10
0.21124
20
0.0764946
11
0.197403
21
0.0760115
0
LINE
8
BLACK
6
CONTINUOUS
10
0.197403
20
0.0760115
11
0.183598
21
0.0770737
0
LINE
8
BLACK
6
CONTINUOUS
10
0.183598
20
0.0770737
11
0.169998
21
0.079668
0
LINE
8
BLACK
6
CONTINUOUS
10
0.169998
20
0.079668
11
0.156772
21
0.0837623
0
LINE
8
BLACK
6
CONTINUOUS
10
0.156772
20
0.0837623
11
0.144084
21
0.0893053
0
LINE
8
BLACK
6
CONTINUOUS
10
0.144084
20
0.0893053
11
0.132094
21
0.096228
0
LINE
8
BLACK
6
CONTINUOUS
10
0.132094
20
0.096228
11
0.120949
21
0.104444
0
LINE
8
BLACK
6
CONTINUOUS
10
0.120949
20
0.104444
11
0.110791
21
0.113851
0
LINE
8
BLACK
6
CONTINUOUS
10
0.110791
20
0.113851
11
0.101744
21
0.124332
0
LINE
8
BLACK
6
CONTINUOUS
10
0.101744
20
0.124332
11
0.0939214
21
0.135756
0
LINE
8
BLACK
6
CONTINUOUS
10
0.0939214
20
0.135756
11
0.0874213
21
0.147981
0
LINE
8
BLACK
6
CONTINUOUS
10
0.0874213
20
0.147981
11
0.0823244
21
0.160855
0
LINE
8
BLACK
6
CONTINUOUS
10
0.0823244
20
0.160855
11
0.0786943
21
0.174216
0
LINE
8
BLACK
6
CONTINUOUS
10
0.0786943
20
0.174216
11
0.0765761
21
0.187898
0
LINE
8
BLACK
6
CONTINUOUS
10
0.0765761
20
0.187898
11
0.0759963
21
0.201732
0
LINE
8
BLACK
6
CONTINUOUS
10
0.0759963
20
0.201732
11
0.0769622
21
0.215543
0
LINE
8
BLACK
6
CONTINUOUS
10
0.0769622
20
0.215543
11
0.0794615
21
0.229161
0
LINE
8
BLACK
6
CONTINUOUS
10
0.0794615
20
0.229161
11
0.0834633
21
0.242416
0
LINE
8
BLACK
6
CONTINUOUS
10
0.0834633
20
0.242416
11
0.0889176
21
0.255142
0
LINE
8
BLACK
6
CONTINUOUS
10
0.0889176
20
0.255142
11
0.0957565
21
0.26718
0
LINE
8
BLACK
6
CONTINUOUS
10
0.0957565
20
0.26718
11
0.103895
21
0.278382
0
LINE
8
BLACK
6
CONTINUOUS
10
0.103895
20
0.278382
11
0.113231
21
0.288606
0
LINE
8
BLACK
6
CONTINUOUS
10
0.113231
20
0.288606
11
0.123648
21
0.297726
0
LINE
8
BLACK
6
CONTINUOUS
10
0.123648
20
0.297726
11
0.135017
21
0.305628
0
LINE
8
BLACK
6
CONTINUOUS
10
0.135017
20
0.305628
11
0.147197
21
0.312213
0
LINE
8
BLACK
6
CONTINUOUS
10
0.147197
20
0.312213
11
0.160034
21
0.317399
0
LINE
8
BLACK
6
CONTINUOUS
10
0.160034
20
0.317399
11
0.173369
21
0.321123
0
LINE
8
BLACK
6
CONTINUOUS
10
0.173369
20
0.321123
11
0.187037
21
0.323336
0
LINE
8
BLACK
6
CONTINUOUS
10
0.187037
20
0.323336
11
0.200866
21
0.324013
0
LINE
8
BLACK
6
CONTINUOUS
10
0.200866
20
0.324013
11
0.214684
21
0.323143
0
LINE
8
BLACK
6
CONTINUOUS
10
1.41468
20
0.323143
11
1.42832
21
0.320739
0
LINE
8
BLACK
6
CONTINUOUS
10
1.42832
20
0.320739
11
1.4416
21
0.31683
0
LINE
8
BLACK
6
CONTINUOUS
10
1.4416
20
0.31683
11
1.45436
21
0.311465
0
LINE
8
BLACK
6
CONTINUOUS
10
1.45436
20
0.311465
11
1.46645
21
0.30471
0
LINE
8
BLACK
6
CONTINUOUS
10
1.46645
20
0.30471
11
1.47771
21
0.29665
0
LINE
8
BLACK
6
CONTINUOUS
10
1.47771
20
0.29665
11
1.488
21
0.287386
0
LINE
8
BLACK
6
CONTINUOUS
10
1.488
20
0.287386
11
1.49719
21
0.277032
0
LINE
8
BLACK
6
CONTINUOUS
10
1.49719
20
0.277032
11
1.50517
21
0.265718
0
LINE
8
BLACK
6
CONTINUOUS
10
1.50517
20
0.265718
11
1.51184
21
0.253585
0
LINE
8
BLACK
6
CONTINUOUS
10
1.51184
20
0.253585
11
1.51712
21
0.240785
0
LINE
8
BLACK
6
CONTINUOUS
10
1.51712
20
0.240785
11
1.52093
21
0.227476
0
LINE
8
BLACK
6
CONTINUOUS
10
1.52093
20
0.227476
11
1.52324
21
0.213824
0
LINE
8
BLACK
6
CONTINUOUS
10
1.52324
20
0.213824
11
1.52402
21
0.2
0
LINE
8
BLACK
6
CONTINUOUS
10
1.52402
20
0.2
11
1.52397
21
0.196537
0
LINE
8
BLACK
6
CONTINUOUS
10
1.52397
20
0.196537
11
1.52281
21
0.18274
0
LINE
8
BLACK
6
CONTINUOUS
10
1.52281
20
0.18274
11
1.52012
21
0.169159
0
LINE
8
BLACK
6
CONTINUOUS
10
1.52012
20
0.169159
11
1.51593
21
0.155961
0
LINE
8
BLACK
6
CONTINUOUS
10
1.51593
20
0.155961
11
1.5103
21
0.143313
0
LINE
8
BLACK
6
CONTINUOUS
10
1.5103
20
0.143313
11
1.5033
21
0.131371
0
LINE
8
BLACK
6
CONTINUOUS
10
1.5033
20
0.131371
11
1.495
21
0.120284
0
LINE
8
BLACK
6
CONTINUOUS
10
1.495
20
0.120284
11
1.48552
21
0.110191
0
LINE
8
BLACK
6
CONTINUOUS
10
1.48552
20
0.110191
11
1.47498
21
0.101218
0
LINE
8
BLACK
6
CONTINUOUS
10
1.47498
20
0.101218
11
1.4635
21
0.0934754
0
LINE
8
BLACK
6
CONTINUOUS
10
1.4635
20
0.0934754
11
1.45123
21
0.0870609
0
LINE
8
BLACK
6
CONTINUOUS
10
1.45123
20
0.0870609
11
1.43832
21
0.082054
0
LINE
8
BLACK
6
CONTINUOUS
10
1.43832
20
0.082054
11
1.42494
21
0.0785172
0
LINE
8
BLACK
6
CONTINUOUS
10
1.42494
20
0.0785172
11
1.41124
21
0.0764946
0
LINE
8
BLACK
6
CONTINUOUS
10
1.41124
20
0.0764946
11
1.3974
21
0.0760115
0
LINE
8
BLACK
6
CONTINUOUS
10
1.3974
20
0.0760115
11
1.3836
21
0.0770737
0
LINE
8
BLACK
6
CONTINUOUS
10
1.3836
20
0.0770737
11
1.37
21
0.079668
0
LINE
8
BLACK
6
CONTINUOUS
10
1.37
20
0.079668
11
1.35677
21
0.0837623
0
LINE
8
BLACK
6
CONTINUOUS
10
1.35677
20
0.0837623
11
1.34408
21
0.0893053
0
LINE
8
BLACK
6
CONTINUOUS
10
1.34408
20
0.0893053
11
1.33209
21
0.096228
0
LINE
8
BLACK
6
CONTINUOUS
10
1.33209
20
0.096228
11
1.32095
21
0.104444
0
LINE
8
BLACK
6
CONTINUOUS
10
1.32095
20
0.104444
11
1.31079
21
0.113851
0
LINE
8
BLACK
6
CONTINUOUS
10
1.31079
20
0.113851
11
1.30174
21
0.124332
0
LINE
8
BLACK
6
CONTINUOUS
10
1.30174
20
0.124332
11
1.29392
21
0.135756
0
LINE
8
BLACK
6
CONTINUOUS
10
1.29392
20
0.135756
11
1.28742
21
0.147981
0
LINE
8
BLACK
6
CONTINUOUS
10
1.28742
20
0.147981
11
1.28232
21
0.160855
0
LINE
8
BLACK
6
CONTINUOUS
10
1.28232
20
0.160855
11
1.27869
21
0.174216
0
LINE
8
BLACK
6
CONTINUOUS
10
1.27869
20
0.174216
11
1.27658
21
0.187898
0
LINE
8
BLACK
6
CONTINUOUS
10
1.27658
20
0.187898
11
1.276
21
0.201732
0
LINE
8
BLACK
6
CONTINUOUS
10
1.276
20
0.201732
11
1.27696
21
0.215543
0
LINE
8
BLACK
6
CONTINUOUS
10
1.27696
20
0.215543
11
1.27946
21
0.229161
0
LINE
8
BLACK
6
CONTINUOUS
10
1.27946
20
0.229161
11
1.28346
21
0.242416
0
LINE
8
BLACK
6
CONTINUOUS
10
1.28346
20
0.242416
11
1.28892
21
0.255142
0
LINE
8
BLACK
6
CONTINUOUS
10
1.28892
20
0.255142
11
1.29576
21
0.26718
0
LINE
8
BLACK
6
CONTINUOUS
10
1.29576
20
0.26718
11
1.30389
21
0.278382
0
LINE
8
BLACK
6
CONTINUOUS
10
1.30389
20
0.278382
11
1.31323
21
0.288606
0
LINE
8
BLACK
6
CONTINUOUS
10
1.31323
20
0.288606
11
1.32365
21
0.297726
0
LINE
8
BLACK
6
CONTINUOUS
10
1.32365
20
0.297726
11
1.33502
21
0.305628
0
LINE
8
BLACK
6
CONTINUOUS
10
1.33502
20
0.305628
11
1.3472
21
0.312213
0
LINE
8
BLACK
6
CONTINUOUS
10
1.3472
20
0.312213
11
1.36003
21
0.317399
0
LINE
8
BLACK
6
CONTINUOUS
10
1.36003
20
0.317399
11
1.37337
21
0.321123
0
LINE
8
BLACK
6
CONTINUOUS
10
1.37337
20
0.321123
11
1.38704
21
0.323336
0
LINE
8
BLACK
6
CONTINUOUS
10
1.38704
20
0.323336
11
1.40087
21
0.324013
0
LINE
8
BLACK
6
CONTINUOUS
10
1.40087
20
0.324013
11
1.41468
21
0.323143
0
LINE
8
BLACK
6
CONTINUOUS
10
0.68726
20
0.445456
11
0.689176
21
0.444176
0
LINE
8
BLACK
6
CONTINUOUS
10
0.689176
20
0.444176
11
0.690456
21
0.44226
0
LINE
8
BLACK
6
CONTINUOUS
10
0.690456
20
0.44226
11
0.690906
21
0.44
0
LINE
8
BLACK
6
CONTINUOUS
10
0.690906
20
0.44
11
0.690906
21
0.38
0
LINE
8
BLACK
6
CONTINUOUS
10
0.690906
20
0.38
11
0.690456
21
0.37774
0
LINE
8
BLACK
6
CONTINUOUS
10
0.690456
20
0.37774
11
0.689176
21
0.375824
0
LINE
8
BLACK
6
CONTINUOUS
10
0.689176
20
0.375824
11
0.68726
21
0.374544
0
LINE
8
BLACK
6
CONTINUOUS
10
0.68726
20
0.374544
11
0.685
21
0.374094
0
LINE
8
BLACK
6
CONTINUOUS
10
0.685
20
0.374094
11
0.625
21
0.374094
0
LINE
8
BLACK
6
CONTINUOUS
10
0.625
20
0.374094
11
0.62274
21
0.374544
0
LINE
8
BLACK
6
CONTINUOUS
10
0.62274
20
0.374544
11
0.620824
21
0.375824
0
LINE
8
BLACK
6
CONTINUOUS
10
0.620824
20
0.375824
11
0.619544
21
0.37774
0
LINE
8
BLACK
6
CONTINUOUS
10
0.619544
20
0.37774
11
0.619094
21
0.38
0
LINE
8
BLACK
6
CONTINUOUS
10
0.619094
20
0.38
11
0.619094
21
0.44
0
LINE
8
BLACK
6
CONTINUOUS
10
0.619094
20
0.44
11
0.619544
21
0.44226
0
LINE
8
BLACK
6
CONTINUOUS
10
0.619544
20
0.44226
11
0.620824
21
0.444176
0
LINE
8
BLACK
6
CONTINUOUS
10
0.620824
20
0.444176
11
0.62274
21
0.445456
0
LINE
8
BLACK
6
CONTINUOUS
10
0.62274
20
0.445456
11
0.625
21
0.445906
0
LINE
8
BLACK
6
CONTINUOUS
10
0.625
20
0.445906
11
0.685
21
0.445906
0
LINE
8
BLACK
6
CONTINUOUS
10
0.685
20
0.445906
11
0.68726
21
0.445456
0
LINE
8
BLACK
6
CONTINUOUS
10
0.29041
20
0.775456
11
0.292325
21
0.774176
0
LINE
8
BLACK
6
CONTINUOUS
10
0.292325
20
0.774176
11
0.293606
21
0.77226
0
LINE
8
BLACK
6
CONTINUOUS
10
0.293606
20
0.77226
11
0.294055
21
0.77
0
LINE
8
BLACK
6
CONTINUOUS
10
0.294055
20
0.77
11
0.294055
21
0.62
0
LINE
8
BLACK
6
CONTINUOUS
10
0.294055
20
0.62
11
0.293606
21
0.61774
0
LINE
8
BLACK
6
CONTINUOUS
10
0.293606
20
0.61774
11
0.292325
21
0.615824
0
LINE
8
BLACK
6
CONTINUOUS
10
0.292325
20
0.615824
11
0.29041
21
0.614544
0
LINE
8
BLACK
6
CONTINUOUS
10
0.29041
20
0.614544
11
0.28815
21
0.614094
0
LINE
8
BLACK
6
CONTINUOUS
10
0.28815
20
0.614094
11
0.13815
21
0.614094
0
LINE
8
BLACK
6
CONTINUOUS
10
0.13815
20
0.614094
11
0.13589
21
0.614544
0
LINE
8
BLACK
6
CONTINUOUS
10
0.13589
20
0.614544
11
0.133974
21
0.615824
0
LINE
8
BLACK
6
CONTINUOUS
10
0.133974
20
0.615824
11
0.132694
21
0.61774
0
LINE
8
BLACK
6
CONTINUOUS
10
0.132694
20
0.61774
11
0.132244
21
0.62
0
LINE
8
BLACK
6
CONTINUOUS
10
0.132244
20
0.62
11
0.132244
21
0.77
0
LINE
8
BLACK
6
CONTINUOUS
10
0.132244
20
0.77
11
0.132694
21
0.77226
0
LINE
8
BLACK
6
CONTINUOUS
10
0.132694
20
0.77226
11
0.133974
21
0.774176
0
LINE
8
BLACK
6
CONTINUOUS
10
0.133974
20
0.774176
11
0.13589
21
0.775456
0
LINE
8
BLACK
6
CONTINUOUS
10
0.13589
20
0.775456
11
0.13815
21
0.775906
0
LINE
8
BLACK
6
CONTINUOUS
10
0.13815
20
0.775906
11
0.28815
21
0.775906
0
LINE
8
BLACK
6
CONTINUOUS
10
0.28815
20
0.775906
11
0.29041
21
0.775456
0
LINE
8
BLACK
6
CONTINUOUS
10
0.48726
20
0.775456
11
0.489176
21
0.774176
0
LINE
8
BLACK
6
CONTINUOUS
10
0.489176
20
0.774176
11
0.490456
21
0.77226
0
LINE
8
BLACK
6
CONTINUOUS
10
0.490456
20
0.77226
11
0.490906
21
0.77
0
LINE
8
BLACK
6
CONTINUOUS
10
0.490906
20
0.77
11
0.490906
21
0.62
0
LINE
8
BLACK
6
CONTINUOUS
10
0.490906
20
0.62
11
0.490456
21
0.61774
0
LINE
8
BLACK
6
CONTINUOUS
10
0.490456
20
0.61774
11
0.489176
21
0.615824
0
LINE
8
BLACK
6
CONTINUOUS
10
0.489176
20
0.615824
11
0.48726
21
0.614544
0
LINE
8
BLACK
6
CONTINUOUS
10
0.48726
20
0.614544
11
0.485
21
0.614094
0
LINE
8
BLACK
6
CONTINUOUS
10
0.485
20
0.614094
11
0.335
21
0.614094
0
LINE
8
BLACK
6
CONTINUOUS
10
0.335
20
0.614094
11
0.33274
21
0.614544
0
LINE
8
BLACK
6
CONTINUOUS
10
0.33274
20
0.614544
11
0.330824
21
0.615824
0
LINE
8
BLACK
6
CONTINUOUS
10
0.330824
20
0.615824
11
0.329544
21
0.61774
0
LINE
8
BLACK
6
CONTINUOUS
10
0.329544
20
0.61774
11
0.329094
21
0.62
0
LINE
8
BLACK
6
CONTINUOUS
10
0.329094
20
0.62
11
0.329094
21
0.77
0
LINE
8
BLACK
6
CONTINUOUS
10
0.329094
20
0.77
11
0.329544
21
0.77226
0
LINE
8
BLACK
6
CONTINUOUS
10
0.329544
20
0.77226
11
0.330824
21
0.774176
0
LINE
8
BLACK
6
CONTINUOUS
10
0.330824
20
0.774176
11
0.33274
21
0.775456
0
LINE
8
BLACK
6
CONTINUOUS
10
0.33274
20
0.775456
11
0.335
21
0.775906
0
LINE
8
BLACK
6
CONTINUOUS
10
0.335
20
0.775906
11
0.485
21
0.775906
0
LINE
8
BLACK
6
CONTINUOUS
10
0.485
20
0.775906
11
0.48726
21
0.775456
0
LINE
8
BLACK
6
CONTINUOUS
10
0.48726
20
0.975456
11
0.489176
21
0.974176
0
LINE
8
BLACK
6
CONTINUOUS
10
0.489176
20
0.974176
11
0.490456
21
0.97226
0
LINE
8
BLACK
6
CONTINUOUS
10
0.490456
20
0.97226
11
0.490906
21
0.97
0
LINE
8
BLACK
6
CONTINUOUS
10
0.490906
20
0.97
11
0.490906
21
0.82
0
LINE
8
BLACK
6
CONTINUOUS
10
0.490906
20
0.82
11
0.490456
21
0.81774
0
LINE
8
BLACK
6
CONTINUOUS
10
0.490456
20
0.81774
11
0.489176
21
0.815824
0
LINE
8
BLACK
6
CONTINUOUS
10
0.489176
20
0.815824
11
0.48726
21
0.814544
0
LINE
8
BLACK
6
CONTINUOUS
10
0.48726
20
0.814544
11
0.485
21
0.814094
0
LINE
8
BLACK
6
CONTINUOUS
10
0.485
20
0.814094
11
0.335
21
0.814094
0
LINE
8
BLACK
6
CONTINUOUS
10
0.335
20
0.814094
11
0.33274
21
0.814544
0
LINE
8
BLACK
6
CONTINUOUS
10
0.33274
20
0.814544
11
0.330824
21
0.815824
0
LINE
8
BLACK
6
CONTINUOUS
10
0.330824
20
0.815824
11
0.329544
21
0.81774
0
LINE
8
BLACK
6
CONTINUOUS
10
0.329544
20
0.81774
11
0.329094
21
0.82
0
LINE
8
BLACK
6
CONTINUOUS
10
0.329094
20
0.82
11
0.329094
21
0.97
0
LINE
8
BLACK
6
CONTINUOUS
10
0.329094
20
0.97
11
0.329544
21
0.97226
0
LINE
8
BLACK
6
CONTINUOUS
10
0.329544
20
0.97226
11
0.330824
21
0.974176
0
LINE
8
BLACK
6
CONTINUOUS
10
0.330824
20
0.974176
11
0.33274
21
0.975456
0
LINE
8
BLACK
6
CONTINUOUS
10
0.33274
20
0.975456
11
0.335
21
0.975906
0
LINE
8
BLACK
6
CONTINUOUS
10
0.335
20
0.975906
11
0.485
21
0.975906
0
LINE
8
BLACK
6
CONTINUOUS
10
0.485
20
0.975906
11
0.48726
21
0.975456
0
LINE
8
BLACK
6
CONTINUOUS
10
0.29041
20
0.975456
11
0.292325
21
0.974176
0
LINE
8
BLACK
6
CONTINUOUS
10
0.292325
20
0.974176
11
0.293606
21
0.97226
0
LINE
8
BLACK
6
CONTINUOUS
10
0.293606
20
0.97226
11
0.294055
21
0.97
0
LINE
8
BLACK
6
CONTINUOUS
10
0.294055
20
0.97
11
0.294055
21
0.82
0
LINE
8
BLACK
6
CONTINUOUS
10
0.294055
20
0.82
11
0.293606
21
0.81774
0
LINE
8
BLACK
6
CONTINUOUS
10
0.293606
20
0.81774
11
0.292325
21
0.815824
0
LINE
8
BLACK
6
CONTINUOUS
10
0.292325
20
0.815824
11
0.29041
21
0.814544
0
LINE
8
BLACK
6
CONTINUOUS
10
0.29041
20
0.814544
11
0.28815
21
0.814094
0
LINE
8
BLACK
6
CONTINUOUS
10
0.28815
20
0.814094
11
0.13815
21
0.814094
0
LINE
8
BLACK
6
CONTINUOUS
10
0.13815
20
0.814094
11
0.13589
21
0.814544
0
LINE
8
BLACK
6
CONTINUOUS
10
0.13589
20
0.814544
11
0.133974
21
0.815824
0
LINE
8
BLACK
6
CONTINUOUS
10
0.133974
20
0.815824
11
0.132694
21
0.81774
0
LINE
8
BLACK
6
CONTINUOUS
10
0.132694
20
0.81774
11
0.132244
21
0.82
0
LINE
8
BLACK
6
CONTINUOUS
10
0.132244
20
0.82
11
0.132244
21
0.97
0
LINE
8
BLACK
6
CONTINUOUS
10
0.132244
20
0.97
11
0.132694
21
0.97226
0
LINE
8
BLACK
6
CONTINUOUS
10
0.132694
20
0.97226
11
0.133974
21
0.974176
0
LINE
8
BLACK
6
CONTINUOUS
10
0.133974
20
0.974176
11
0.13589
21
0.975456
0
LINE
8
BLACK
6
CONTINUOUS
10
0.13589
20
0.975456
11
0.13815
21
0.975906
0
LINE
8
BLACK
6
CONTINUOUS
10
0.13815
20
0.975906
11
0.28815
21
0.975906
0
LINE
8
BLACK
6
CONTINUOUS
10
0.28815
20
0.975906
11
0.29041
21
0.975456
0
LINE
8
BLACK
6
CONTINUOUS
10
1.51726
20
0.985456
11
1.51918
21
0.984176
0
LINE
8
BLACK
6
CONTINUOUS
10
1.51918
20
0.984176
11
1.52046
21
0.98226
0
LINE
8
BLACK
6
CONTINUOUS
10
1.52046
20
0.98226
11
1.52091
21
0.98
0
LINE
8
BLACK
6
CONTINUOUS
10
1.52091
20
0.98
11
1.52091
21
0.92
0
LINE
8
BLACK
6
CONTINUOUS
10
1.52091
20
0.92
11
1.52046
21
0.91774
0
LINE
8
BLACK
6
CONTINUOUS
10
1.52046
20
0.91774
11
1.51918
21
0.915824
0
LINE
8
BLACK
6
CONTINUOUS
10
1.51918
20
0.915824
11
1.51726
21
0.914544
0
LINE
8
BLACK
6
CONTINUOUS
10
1.51726
20
0.914544
11
1.515
21
0.914094
0
LINE
8
BLACK
6
CONTINUOUS
10
1.515
20
0.914094
11
1.455
21
0.914094
0
LINE
8
BLACK
6
CONTINUOUS
10
1.455
20
0.914094
11
1.45274
21
0.914544
0
LINE
8
BLACK
6
CONTINUOUS
10
1.45274
20
0.914544
11
1.45082
21
0.915824
0
LINE
8
BLACK
6
CONTINUOUS
10
1.45082
20
0.915824
11
1.44954
21
0.91774
0
LINE
8
BLACK
6
CONTINUOUS
10
1.44954
20
0.91774
11
1.44909
21
0.92
0
LINE
8
BLACK
6
CONTINUOUS
10
1.44909
20
0.92
11
1.44909
21
0.98
0
LINE
8
BLACK
6
CONTINUOUS
10
1.44909
20
0.98
11
1.44954
21
0.98226
0
LINE
8
BLACK
6
CONTINUOUS
10
1.44954
20
0.98226
11
1.45082
21
0.984176
0
LINE
8
BLACK
6
CONTINUOUS
10
1.45082
20
0.984176
11
1.45274
21
0.985456
0
LINE
8
BLACK
6
CONTINUOUS
10
1.45274
20
0.985456
11
1.455
21
0.985906
0
LINE
8
BLACK
6
CONTINUOUS
10
1.455
20
0.985906
11
1.515
21
0.985906
0
LINE
8
BLACK
6
CONTINUOUS
10
1.515
20
0.985906
11
1.51726
21
0.985456
0
LINE
8
BLACK
6
CONTINUOUS
10
1.41726
20
0.985456
11
1.41918
21
0.984176
0
LINE
8
BLACK
6
CONTINUOUS
10
1.41918
20
0.984176
11
1.42046
21
0.98226
0
LINE
8
BLACK
6
CONTINUOUS
10
1.42046
20
0.98226
11
1.42091
21
0.98
0
LINE
8
BLACK
6
CONTINUOUS
10
1.42091
20
0.98
11
1.42091
21
0.92
0
LINE
8
BLACK
6
CONTINUOUS
10
1.42091
20
0.92
11
1.42046
21
0.91774
0
LINE
8
BLACK
6
CONTINUOUS
10
1.42046
20
0.91774
11
1.41918
21
0.915824
0
LINE
8
BLACK
6
CONTINUOUS
10
1.41918
20
0.915824
11
1.41726
21
0.914544
0
LINE
8
BLACK
6
CONTINUOUS
10
1.41726
20
0.914544
11
1.415
21
0.914094
0
LINE
8
BLACK
6
CONTINUOUS
10
1.415
20
0.914094
11
1.355
21
0.914094
0
LINE
8
BLACK
6
CONTINUOUS
10
1.355
20
0.914094
11
1.35274
21
0.914544
0
LINE
8
BLACK
6
CONTINUOUS
10
1.35274
20
0.914544
11
1.35082
21
0.915824
0
LINE
8
BLACK
6
CONTINUOUS
10
1.35082
20
0.915824
11
1.34954
21
0.91774
0
LINE
8
BLACK
6
CONTINUOUS
10
1.34954
20
0.91774
11
1.34909
21
0.92
0
LINE
8
BLACK
6
CONTINUOUS
10
1.34909
20
0.92
11
1.34909
21
0.98
0
LINE
8
BLACK
6
CONTINUOUS
10
1.34909
20
0.98
11
1.34954
21
0.98226
0
LINE
8
BLACK
6
CONTINUOUS
10
1.34954
20
0.98226
11
1.35082
21
0.984176
0
LINE
8
BLACK
6
CONTINUOUS
10
1.35082
20
0.984176
11
1.35274
21
0.985456
0
LINE
8
BLACK
6
CONTINUOUS
10
1.35274
20
0.985456
11
1.355
21
0.985906
0
LINE
8
BLACK
6
CONTINUOUS
10
1.355
20
0.985906
11
1.415
21
0.985906
0
LINE
8
BLACK
6
CONTINUOUS
10
1.415
20
0.985906
11
1.41726
21
0.985456
0
LINE
8
BLACK
6
CONTINUOUS
10
1.51726
20
1.08546
11
1.51918
21
1.08418
0
LINE
8
BLACK
6
CONTINUOUS
10
1.51918
20
1.08418
11
1.52046
21
1.08226
0
LINE
8
BLACK
6
CONTINUOUS
10
1.52046
20
1.08226
11
1.52091
21
1.08
0
LINE
8
BLACK
6
CONTINUOUS
10
1.52091
20
1.08
11
1.52091
21
1.02
0
LINE
8
BLACK
6
CONTINUOUS
10
1.52091
20
1.02
11
1.52046
21
1.01774
0
LINE
8
BLACK
6
CONTINUOUS
10
1.52046
20
1.01774
11
1.51918
21
1.01582
0
LINE
8
BLACK
6
CONTINUOUS
10
1.51918
20
1.01582
11
1.51726
21
1.01454
0
LINE
8
BLACK
6
CONTINUOUS
10
1.51726
20
1.01454
11
1.515
21
1.01409
0
LINE
8
BLACK
6
CONTINUOUS
10
1.515
20
1.01409
11
1.455
21
1.01409
0
LINE
8
BLACK
6
CONTINUOUS
10
1.455
20
1.01409
11
1.45274
21
1.01454
0
LINE
8
BLACK
6
CONTINUOUS
10
1.45274
20
1.01454
11
1.45082
21
1.01582
0
LINE
8
BLACK
6
CONTINUOUS
10
1.45082
20
1.01582
11
1.44954
21
1.01774
0
LINE
8
BLACK
6
CONTINUOUS
10
1.44954
20
1.01774
11
1.44909
21
1.02
0
LINE
8
BLACK
6
CONTINUOUS
10
1.44909
20
1.02
11
1.44909
21
1.08
0
LINE
8
BLACK
6
CONTINUOUS
10
1.44909
20
1.08
11
1.44954
21
1.08226
0
LINE
8
BLACK
6
CONTINUOUS
10
1.44954
20
1.08226
11
1.45082
21
1.08418
0
LINE
8
BLACK
6
CONTINUOUS
10
1.45082
20
1.08418
11
1.45274
21
1.08546
0
LINE
8
BLACK
6
CONTINUOUS
10
1.45274
20
1.08546
11
1.455
21
1.08591
0
LINE
8
BLACK
6
CONTINUOUS
10
1.455
20
1.08591
11
1.515
21
1.08591
0
LINE
8
BLACK
6
CONTINUOUS
10
1.515
20
1.08591
11
1.51726
21
1.08546
0
LINE
8
BLACK
6
CONTINUOUS
10
1.41726
20
1.08546
11
1.41918
21
1.08418
0
LINE
8
BLACK
6
CONTINUOUS
10
1.41918
20
1.08418
11
1.42046
21
1.08226
0
LINE
8
BLACK
6
CONTINUOUS
10
1.42046
20
1.08226
11
1.42091
21
1.08
0
LINE
8
BLACK
6
CONTINUOUS
10
1.42091
20
1.08
11
1.42091
21
1.02
0
LINE
8
BLACK
6
CONTINUOUS
10
1.42091
20
1.02
11
1.42046
21
1.01774
0
LINE
8
BLACK
6
CONTINUOUS
10
1.42046
20
1.01774
11
1.41918
21
1.01582
0
LINE
8
BLACK
6
CONTINUOUS
10
1.41918
20
1.01582
11
1.41726
21
1.01454
0
LINE
8
BLACK
6
CONTINUOUS
10
1.41726
20
1.01454
11
1.415
21
1.01409
0
LINE
8
BLACK
6
CONTINUOUS
10
1.415
20
1.01409
11
1.355
21
1.01409
0
LINE
8
BLACK
6
CONTINUOUS
10
1.355
20
1.01409
11
1.35274
21
1.01454
0
LINE
8
BLACK
6
CONTINUOUS
10
1.35274
20
1.01454
11
1.35082
21
1.01582
0
LINE
8
BLACK
6
CONTINUOUS
10
1.35082
20
1.01582
11
1.34954
21
1.01774
0
LINE
8
BLACK
6
CONTINUOUS
10
1.34954
20
1.01774
11
1.34909
21
1.02
0
LINE
8
BLACK
6
CONTINUOUS
10
1.34909
20
1.02
11
1.34909
21
1.08
0
LINE
8
BLACK
6
CONTINUOUS
10
1.34909
20
1.08
11
1.34954
21
1.08226
0
LINE
8
BLACK
6
CONTINUOUS
10
1.34954
20
1.08226
11
1.35082
21
1.08418
0
LINE
8
BLACK
6
CONTINUOUS
10
1.35082
20
1.08418
11
1.35274
21
1.08546
0
LINE
8
BLACK
6
CONTINUOUS
10
1.35274
20
1.08546
11
1.355
21
1.08591
0
LINE
8
BLACK
6
CONTINUOUS
10
1.355
20
1.08591
11
1.415
21
1.08591
0
LINE
8
BLACK
6
CONTINUOUS
10
1.415
20
1.08591
11
1.41726
21
1.08546
0
LINE
8
BLACK
6
CONTINUOUS
10
1.51726
20
1.18546
11
1.51918
21
1.18418
0
LINE
8
BLACK
6
CONTINUOUS
10
1.51918
20
1.18418
11
1.52046
21
1.18226
0
LINE
8
BLACK
6
CONTINUOUS
10
1.52046
20
1.18226
11
1.52091
21
1.18
0
LINE
8
BLACK
6
CONTINUOUS
10
1.52091
20
1.18
11
1.52091
21
1.12
0
LINE
8
BLACK
6
CONTINUOUS
10
1.52091
20
1.12
11
1.52046
21
1.11774
0
LINE
8
BLACK
6
CONTINUOUS
10
1.52046
20
1.11774
11
1.51918
21
1.11582
0
LINE
8
BLACK
6
CONTINUOUS
10
1.51918
20
1.11582
11
1.51726
21
1.11454
0
LINE
8
BLACK
6
CONTINUOUS
10
1.51726
20
1.11454
11
1.515
21
1.11409
0
LINE
8
BLACK
6
CONTINUOUS
10
1.515
20
1.11409
11
1.455
21
1.11409
0
LINE
8
BLACK
6
CONTINUOUS
10
1.455
20
1.11409
11
1.45274
21
1.11454
0
LINE
8
BLACK
6
CONTINUOUS
10
1.45274
20
1.11454
11
1.45082
21
1.11582
0
LINE
8
BLACK
6
CONTINUOUS
10
1.45082
20
1.11582
11
1.44954
21
1.11774
0
LINE
8
BLACK
6
CONTINUOUS
10
1.44954
20
1.11774
11
1.44909
21
1.12
0
LINE
8
BLACK
6
CONTINUOUS
10
1.44909
20
1.12
11
1.44909
21
1.18
0
LINE
8
BLACK
6
CONTINUOUS
10
1.44909
20
1.18
11
1.44954
21
1.18226
0
LINE
8
BLACK
6
CONTINUOUS
10
1.44954
20
1.18226
11
1.45082
21
1.18418
0
LINE
8
BLACK
6
CONTINUOUS
10
1.45082
20
1.18418
11
1.45274
21
1.18546
0
LINE
8
BLACK
6
CONTINUOUS
10
1.45274
20
1.18546
11
1.455
21
1.18591
0
LINE
8
BLACK
6
CONTINUOUS
10
1.455
20
1.18591
11
1.515
21
1.18591
0
LINE
8
BLACK
6
CONTINUOUS
10
1.515
20
1.18591
11
1.51726
21
1.18546
0
LINE
8
BLACK
6
CONTINUOUS
10
1.41726
20
1.18546
11
1.41918
21
1.18418
0
LINE
8
BLACK
6
CONTINUOUS
10
1.41918
20
1.18418
11
1.42046
21
1.18226
0
LINE
8
BLACK
6
CONTINUOUS
10
1.42046
20
1.18226
11
1.42091
21
1.18
0
LINE
8
BLACK
6
CONTINUOUS
10
1.42091
20
1.18
11
1.42091
21
1.12
0
LINE
8
BLACK
6
CONTINUOUS
10
1.42091
20
1.12
11
1.42046
21
1.11774
0
LINE
8
BLACK
6
CONTINUOUS
10
1.42046
20
1.11774
11
1.41918
21
1.11582
0
LINE
8
BLACK
6
CONTINUOUS
10
1.41918
20
1.11582
11
1.41726
21
1.11454
0
LINE
8
BLACK
6
CONTINUOUS
10
1.41726
20
1.11454
11
1.415
21
1.11409
0
LINE
8
BLACK
6
CONTINUOUS
10
1.415
20
1.11409
11
1.355
21
1.11409
0
LINE
8
BLACK
6
CONTINUOUS
10
1.355
20
1.11409
11
1.35274
21
1.11454
0
LINE
8
BLACK
6
CONTINUOUS
10
1.35274
20
1.11454
11
1.35082
21
1.11582
0
LINE
8
BLACK
6
CONTINUOUS
10
1.35082
20
1.11582
11
1.34954
21
1.11774
0
LINE
8
BLACK
6
CONTINUOUS
10
1.34954
20
1.11774
11
1.34909
21
1.12
0
LINE
8
BLACK
6
CONTINUOUS
10
1.34909
20
1.12
11
1.34909
21
1.18
0
LINE
8
BLACK
6
CONTINUOUS
10
1.34909
20
1.18
11
1.34954
21
1.18226
0
LINE
8
BLACK
6
CONTINUOUS
10
1.34954
20
1.18226
11
1.35082
21
1.18418
0
LINE
8
BLACK
6
CONTINUOUS
10
1.35082
20
1.18418
11
1.35274
21
1.18546
0
LINE
8
BLACK
6
CONTINUOUS
10
1.35274
20
1.18546
11
1.355
21
1.18591
0
LINE
8
BLACK
6
CONTINUOUS
10
1.355
20
1.18591
11
1.415
21
1.18591
0
LINE
8
BLACK
6
CONTINUOUS
10
1.415
20
1.18591
11
1.41726
21
1.18546
0
LINE
8
BLACK
6
CONTINUOUS
10
0.214684
20
1.52314
11
0.228319
21
1.52074
0
LINE
8
BLACK
6
CONTINUOUS
10
0.228319
20
1.52074
11
0.241601
21
1.51683
0
LINE
8
BLACK
6
CONTINUOUS
10
0.241601
20
1.51683
11
0.254365
21
1.51146
0
LINE
8
BLACK
6
CONTINUOUS
10
0.254365
20
1.51146
11
0.266451
21
1.50471
0
LINE
8
BLACK
6
CONTINUOUS
10
0.266451
20
1.50471
11
0.277709
21
1.49665
0
LINE
8
BLACK
6
CONTINUOUS
10
0.277709
20
1.49665
11
0.287998
21
1.48739
0
LINE
8
BLACK
6
CONTINUOUS
10
0.287998
20
1.48739
11
0.29719
21
1.47703
0
LINE
8
BLACK
6
CONTINUOUS
10
0.29719
20
1.47703
11
0.305171
21
1.46572
0
LINE
8
BLACK
6
CONTINUOUS
10
0.305171
20
1.46572
11
0.311841
21
1.45359
0
LINE
8
BLACK
6
CONTINUOUS
10
0.311841
20
1.45359
11
0.317118
21
1.44078
0
LINE
8
BLACK
6
CONTINUOUS
10
0.317118
20
1.44078
11
0.320934
21
1.42748
0
LINE
8
BLACK
6
CONTINUOUS
10
0.320934
20
1.42748
11
0.323243
21
1.41382
0
LINE
8
BLACK
6
CONTINUOUS
10
0.323243
20
1.41382
11
0.324016
21
1.4
0
LINE
8
BLACK
6
CONTINUOUS
10
0.324016
20
1.4
11
0.323967
21
1.39654
0
LINE
8
BLACK
6
CONTINUOUS
10
0.323967
20
1.39654
11
0.322809
21
1.38274
0
LINE
8
BLACK
6
CONTINUOUS
10
0.322809
20
1.38274
11
0.32012
21
1.36916
0
LINE
8
BLACK
6
CONTINUOUS
10
0.32012
20
1.36916
11
0.315933
21
1.35596
0
LINE
8
BLACK
6
CONTINUOUS
10
0.315933
20
1.35596
11
0.310302
21
1.34331
0
LINE
8
BLACK
6
CONTINUOUS
10
0.310302
20
1.34331
11
0.303295
21
1.33137
0
LINE
8
BLACK
6
CONTINUOUS
10
0.303295
20
1.33137
11
0.295002
21
1.32028
0
LINE
8
BLACK
6
CONTINUOUS
10
0.295002
20
1.32028
11
0.285524
21
1.31019
0
LINE
8
BLACK
6
CONTINUOUS
10
0.285524
20
1.31019
11
0.27498
21
1.30122
0
LINE
8
BLACK
6
CONTINUOUS
10
0.27498
20
1.30122
11
0.263501
21
1.29348
0
LINE
8
BLACK
6
CONTINUOUS
10
0.263501
20
1.29348
11
0.251231
21
1.28706
0
LINE
8
BLACK
6
CONTINUOUS
10
0.251231
20
1.28706
11
0.238323
21
1.28205
0
LINE
8
BLACK
6
CONTINUOUS
10
0.238323
20
1.28205
11
0.224937
21
1.27852
0
LINE
8
BLACK
6
CONTINUOUS
10
0.224937
20
1.27852
11
0.21124
21
1.27649
0
LINE
8
BLACK
6
CONTINUOUS
10
0.21124
20
1.27649
11
0.197403
21
1.27601
0
LINE
8
BLACK
6
CONTINUOUS
10
0.197403
20
1.27601
11
0.183598
21
1.27707
0
LINE
8
BLACK
6
CONTINUOUS
10
0.183598
20
1.27707
11
0.169998
21
1.27967
0
LINE
8
BLACK
6
CONTINUOUS
10
0.169998
20
1.27967
11
0.156772
21
1.28376
0
LINE
8
BLACK
6
CONTINUOUS
10
0.156772
20
1.28376
11
0.144084
21
1.28931
0
LINE
8
BLACK
6
CONTINUOUS
10
0.144084
20
1.28931
11
0.132094
21
1.29623
0
LINE
8
BLACK
6
CONTINUOUS
10
0.132094
20
1.29623
11
0.120949
21
1.30444
0
LINE
8
BLACK
6
CONTINUOUS
10
0.120949
20
1.30444
11
0.110791
21
1.31385
0
LINE
8
BLACK
6
CONTINUOUS
10
0.110791
20
1.31385
11
0.101744
21
1.32433
0
LINE
8
BLACK
6
CONTINUOUS
10
0.101744
20
1.32433
11
0.0939214
21
1.33576
0
LINE
8
BLACK
6
CONTINUOUS
10
0.0939214
20
1.33576
11
0.0874213
21
1.34798
0
LINE
8
BLACK
6
CONTINUOUS
10
0.0874213
20
1.34798
11
0.0823244
21
1.36085
0
LINE
8
BLACK
6
CONTINUOUS
10
0.0823244
20
1.36085
11
0.0786943
21
1.37422
0
LINE
8
BLACK
6
CONTINUOUS
10
0.0786943
20
1.37422
11
0.0765761
21
1.3879
0
LINE
8
BLACK
6
CONTINUOUS
10
0.0765761
20
1.3879
11
0.0759963
21
1.40173
0
LINE
8
BLACK
6
CONTINUOUS
10
0.0759963
20
1.40173
11
0.0769622
21
1.41554
0
LINE
8
BLACK
6
CONTINUOUS
10
0.0769622
20
1.41554
11
0.0794615
21
1.42916
0
LINE
8
BLACK
6
CONTINUOUS
10
0.0794615
20
1.42916
11
0.0834633
21
1.44242
0
LINE
8
BLACK
6
CONTINUOUS
10
0.0834633
20
1.44242
11
0.0889176
21
1.45514
0
LINE
8
BLACK
6
CONTINUOUS
10
0.0889176
20
1.45514
11
0.0957565
21
1.46718
0
LINE
8
BLACK
6
CONTINUOUS
10
0.0957565
20
1.46718
11
0.103895
21
1.47838
0
LINE
8
BLACK
6
CONTINUOUS
10
0.103895
20
1.47838
11
0.113231
21
1.48861
0
LINE
8
BLACK
6
CONTINUOUS
10
0.113231
20
1.48861
11
0.123648
21
1.49773
0
LINE
8
BLACK
6
CONTINUOUS
10
0.123648
20
1.49773
11
0.135017
21
1.50563
0
LINE
8
BLACK
6
CONTINUOUS
10
0.135017
20
1.50563
11
0.147197
21
1.51221
0
LINE
8
BLACK
6
CONTINUOUS
10
0.147197
20
1.51221
11
0.160034
21
1.5174
0
LINE
8
BLACK
6
CONTINUOUS
10
0.160034
20
1.5174
11
0.173369
21
1.52112
0
LINE
8
BLACK
6
CONTINUOUS
10
0.173369
20
1.52112
11
0.187037
21
1.52334
0
LINE
8
BLACK
6
CONTINUOUS
10
0.187037
20
1.52334
11
0.200866
21
1.52401
0
LINE
8
BLACK
6
CONTINUOUS
10
0.200866
20
1.52401
11
0.214684
21
1.52314
0
LINE
8
BLACK
6
CONTINUOUS
10
1.41468
20
1.52314
11
1.42832
21
1.52074
0
LINE
8
BLACK
6
CONTINUOUS
10
1.42832
20
1.52074
11
1.4416
21
1.51683
0
LINE
8
BLACK
6
CONTINUOUS
10
1.4416
20
1.51683
11
1.45436
21
1.51146
0
LINE
8
BLACK
6
CONTINUOUS
10
1.45436
20
1.51146
11
1.46645
21
1.50471
0
LINE
8
BLACK
6
CONTINUOUS
10
1.46645
20
1.50471
11
1.47771
21
1.49665
0
LINE
8
BLACK
6
CONTINUOUS
10
1.47771
20
1.49665
11
1.488
21
1.48739
0
LINE
8
BLACK
6
CONTINUOUS
10
1.488
20
1.48739
11
1.49719
21
1.47703
0
LINE
8
BLACK
6
CONTINUOUS
10
1.49719
20
1.47703
11
1.50517
21
1.46572
0
LINE
8
BLACK
6
CONTINUOUS
10
1.50517
20
1.46572
11
1.51184
21
1.45359
0
LINE
8
BLACK
6
CONTINUOUS
10
1.51184
20
1.45359
11
1.51712
21
1.44078
0
LINE
8
BLACK
6
CONTINUOUS
10
1.51712
20
1.44078
11
1.52093
21
1.42748
0
LINE
8
BLACK
6
CONTINUOUS
10
1.52093
20
1.42748
11
1.52324
21
1.41382
0
LINE
8
BLACK
6
CONTINUOUS
10
1.52324
20
1.41382
11
1.52402
21
1.4
0
LINE
8
BLACK
6
CONTINUOUS
10
1.52402
20
1.4
11
1.52397
21
1.39654
0
LINE
8
BLACK
6
CONTINUOUS
10
1.52397
20
1.39654
11
1.52281
21
1.38274
0
LINE
8
BLACK
6
CONTINUOUS
10
1.52281
20
1.38274
11
1.52012
21
1.36916
0
LINE
8
BLACK
6
CONTINUOUS
10
1.52012
20
1.36916
11
1.51593
21
1.35596
0
LINE
8
BLACK
6
CONTINUOUS
10
1.51593
20
1.35596
11
1.5103
21
1.34331
0
LINE
8
BLACK
6
CONTINUOUS
10
1.5103
20
1.34331
11
1.5033
21
1.33137
0
LINE
8
BLACK
6
CONTINUOUS
10
1.5033
20
1.33137
11
1.495
21
1.32028
0
LINE
8
BLACK
6
CONTINUOUS
10
1.495
20
1.32028
11
1.48552
21
1.31019
0
LINE
8
BLACK
6
CONTINUOUS
10
1.48552
20
1.31019
11
1.47498
21
1.30122
0
LINE
8
BLACK
6
CONTINUOUS
10
1.47498
20
1.30122
11
1.4635
21
1.29348
0
LINE
8
BLACK
6
CONTINUOUS
10
1.4635
20
1.29348
11
1.45123
21
1.28706
0
LINE
8
BLACK
6
CONTINUOUS
10
1.45123
20
1.28706
11
1.43832
21
1.28205
0
LINE
8
BLACK
6
CONTINUOUS
10
1.43832
20
1.28205
11
1.42494
21
1.27852
0
LINE
8
BLACK
6
CONTINUOUS
10
1.42494
20
1.27852
11
1.41124
21
1.27649
0
LINE
8
BLACK
6
CONTINUOUS
10
1.41124
20
1.27649
11
1.3974
21
1.27601
0
LINE
8
BLACK
6
CONTINUOUS
10
1.3974
20
1.27601
11
1.3836
21
1.27707
0
LINE
8
BLACK
6
CONTINUOUS
10
1.3836
20
1.27707
11
1.37
21
1.27967
0
LINE
8
BLACK
6
CONTINUOUS
10
1.37
20
1.27967
11
1.35677
21
1.28376
0
LINE
8
BLACK
6
CONTINUOUS
10
1.35677
20
1.28376
11
1.34408
21
1.28931
0
LINE
8
BLACK
6
CONTINUOUS
10
1.34408
20
1.28931
11
1.33209
21
1.29623
0
LINE
8
BLACK
6
CONTINUOUS
10
1.33209
20
1.29623
11
1.32095
21
1.30444
0
LINE
8
BLACK
6
CONTINUOUS
10
1.32095
20
1.30444
11
1.31079
21
1.31385
0
LINE
8
BLACK
6
CONTINUOUS
10
1.31079
20
1.31385
11
1.30174
21
1.32433
0
LINE
8
BLACK
6
CONTINUOUS
10
1.30174
20
1.32433
11
1.29392
21
1.33576
0
LINE
8
BLACK
6
CONTINUOUS
10
1.29392
20
1.33576
11
1.28742
21
1.34798
0
LINE
8
BLACK
6
CONTINUOUS
10
1.28742
20
1.34798
11
1.28232
21
1.36085
0
LINE
8
BLACK
6
CONTINUOUS
10
1.28232
20
1.36085
11
1.27869
21
1.37422
0
LINE
8
BLACK
6
CONTINUOUS
10
1.27869
20
1.37422
11
1.27658
21
1.3879
0
LINE
8
BLACK
6
CONTINUOUS
10
1.27658
20
1.3879
11
1.276
21
1.40173
0
LINE
8
BLACK
6
CONTINUOUS
10
1.276
20
1.40173
11
1.27696
21
1.41554
0
LINE
8
BLACK
6
CONTINUOUS
10
1.27696
20
1.41554
11
1.27946
21
1.42916
0
LINE
8
BLACK
6
CONTINUOUS
10
1.27946
20
1.42916
11
1.28346
21
1.44242
0
LINE
8
BLACK
6
CONTINUOUS
10
1.28346
20
1.44242
11
1.28892
21
1.45514
0
LINE
8
BLACK
6
CONTINUOUS
10
1.28892
20
1.45514
11
1.29576
21
1.46718
0
LINE
8
BLACK
6
CONTINUOUS
10
1.29576
20
1.46718
11
1.30389
21
1.47838
0
LINE
8
BLACK
6
CONTINUOUS
10
1.30389
20
1.47838
11
1.31323
21
1.48861
0
LINE
8
BLACK
6
CONTINUOUS
10
1.31323
20
1.48861
11
1.32365
21
1.49773
0
LINE
8
BLACK
6
CONTINUOUS
10
1.32365
20
1.49773
11
1.33502
21
1.50563
0
LINE
8
BLACK
6
CONTINUOUS
10
1.33502
20
1.50563
11
1.3472
21
1.51221
0
LINE
8
BLACK
6
CONTINUOUS
10
1.3472
20
1.51221
11
1.36003
21
1.5174
0
LINE
8
BLACK
6
CONTINUOUS
10
1.36003
20
1.5174
11
1.37337
21
1.52112
0
LINE
8
BLACK
6
CONTINUOUS
10
1.37337
20
1.52112
11
1.38704
21
1.52334
0
LINE
8
BLACK
6
CONTINUOUS
10
1.38704
20
1.52334
11
1.40087
21
1.52401
0
LINE
8
BLACK
6
CONTINUOUS
10
1.40087
20
1.52401
11
1.41468
21
1.52314
  0
ENDSEC
  0
EOF
