  0
SECTION
  2
HEADER
  9
$ANGBASE
  50
0.0
  9
$ANGDIR
  70
1
  9
$MEASUREMENT
  70
0
  0
ENDSEC
  0
SECTION
  2
TABLES
  0
TABLE
  2
LTYPE
  70
4
  0
LTYPE
  5
40F
  2
CONTINUOUS
  70
0
  3
Solid line
  72
65
  73
0
  40
0.0
  0
LTYPE
  5
410
  2
DASHDOT
 70
0
  3
Dash Dot ____ _ ____ _
 72
65
 73
4
 40
2.0
 49
1.25
 49
-0.25
 49
0.25
 49
-0.25
  0
LTYPE
  5
411
  2
DASHED
 70
0
  3
Dashed __ __ __ __ __
 72
65
 73
2
 40
0.75
 49
0.5
 49
-0.25
  0
LTYPE
  5
43B
  2
DOTTED
 70
0
  3
Dotted .  .  .  .
 72
65
 73
2
 40
0.2
 49
0.0
 49
-0.2
  0
ENDTAB
  0
TABLE
  2
STYLE
  70
4
  0
STYLE
  2
KICAD
  70
0
  40
0
  41
1
  42
1
  50
0
  71
0
  3
isocp.shx
  0
STYLE
  2
KICADB
  70
0
  40
0
  41
1
  42
1
  50
0
  71
0
  3
isocp.shx
  0
STYLE
  2
KICADI
  70
0
  40
0
  41
1
  42
1
  50
15
  71
0
  3
isocp.shx
  0
STYLE
  2
KICADBI
  70
0
  40
0
  41
1
  42
1
  50
15
  71
0
  3
isocp.shx
  0
ENDTAB
  0
TABLE
  2
LAYER
  70
1
  0
LAYER
  2
BLACK
  70
0
  62
7
  6
CONTINUOUS
  0
ENDTAB
  0
ENDSEC
  0
SECTION
  2
ENTITIES
0
LINE
8
BLACK
6
CONTINUOUS
10
0.214684
20
0.323143
11
0.228319
21
0.320739
0
LINE
8
BLACK
6
CONTINUOUS
10
0.228319
20
0.320739
11
0.241601
21
0.31683
0
LINE
8
BLACK
6
CONTINUOUS
10
0.241601
20
0.31683
11
0.254365
21
0.311465
0
LINE
8
BLACK
6
CONTINUOUS
10
0.254365
20
0.311465
11
0.266451
21
0.30471
0
LINE
8
BLACK
6
CONTINUOUS
10
0.266451
20
0.30471
11
0.277709
21
0.29665
0
LINE
8
BLACK
6
CONTINUOUS
10
0.277709
20
0.29665
11
0.287998
21
0.287386
0
LINE
8
BLACK
6
CONTINUOUS
10
0.287998
20
0.287386
11
0.29719
21
0.277032
0
LINE
8
BLACK
6
CONTINUOUS
10
0.29719
20
0.277032
11
0.305171
21
0.265718
0
LINE
8
BLACK
6
CONTINUOUS
10
0.305171
20
0.265718
11
0.311841
21
0.253585
0
LINE
8
BLACK
6
CONTINUOUS
10
0.311841
20
0.253585
11
0.317118
21
0.240785
0
LINE
8
BLACK
6
CONTINUOUS
10
0.317118
20
0.240785
11
0.320934
21
0.227476
0
LINE
8
BLACK
6
CONTINUOUS
10
0.320934
20
0.227476
11
0.323243
21
0.213824
0
LINE
8
BLACK
6
CONTINUOUS
10
0.323243
20
0.213824
11
0.324016
21
0.2
0
LINE
8
BLACK
6
CONTINUOUS
10
0.324016
20
0.2
11
0.323967
21
0.196537
0
LINE
8
BLACK
6
CONTINUOUS
10
0.323967
20
0.196537
11
0.322809
21
0.18274
0
LINE
8
BLACK
6
CONTINUOUS
10
0.322809
20
0.18274
11
0.32012
21
0.169159
0
LINE
8
BLACK
6
CONTINUOUS
10
0.32012
20
0.169159
11
0.315933
21
0.155961
0
LINE
8
BLACK
6
CONTINUOUS
10
0.315933
20
0.155961
11
0.310302
21
0.143313
0
LINE
8
BLACK
6
CONTINUOUS
10
0.310302
20
0.143313
11
0.303295
21
0.131371
0
LINE
8
BLACK
6
CONTINUOUS
10
0.303295
20
0.131371
11
0.295002
21
0.120284
0
LINE
8
BLACK
6
CONTINUOUS
10
0.295002
20
0.120284
11
0.285524
21
0.110191
0
LINE
8
BLACK
6
CONTINUOUS
10
0.285524
20
0.110191
11
0.27498
21
0.101218
0
LINE
8
BLACK
6
CONTINUOUS
10
0.27498
20
0.101218
11
0.263501
21
0.0934754
0
LINE
8
BLACK
6
CONTINUOUS
10
0.263501
20
0.0934754
11
0.251231
21
0.0870609
0
LINE
8
BLACK
6
CONTINUOUS
10
0.251231
20
0.0870609
11
0.238323
21
0.082054
0
LINE
8
BLACK
6
CONTINUOUS
10
0.238323
20
0.082054
11
0.224937
21
0.0785172
0
LINE
8
BLACK
6
CONTINUOUS
10
0.224937
20
0.0785172
11
0.21124
21
0.0764946
0
LINE
8
BLACK
6
CONTINUOUS
10
0.21124
20
0.0764946
11
0.197403
21
0.0760115
0
LINE
8
BLACK
6
CONTINUOUS
10
0.197403
20
0.0760115
11
0.183598
21
0.0770737
0
LINE
8
BLACK
6
CONTINUOUS
10
0.183598
20
0.0770737
11
0.169998
21
0.079668
0
LINE
8
BLACK
6
CONTINUOUS
10
0.169998
20
0.079668
11
0.156772
21
0.0837623
0
LINE
8
BLACK
6
CONTINUOUS
10
0.156772
20
0.0837623
11
0.144084
21
0.0893053
0
LINE
8
BLACK
6
CONTINUOUS
10
0.144084
20
0.0893053
11
0.132094
21
0.096228
0
LINE
8
BLACK
6
CONTINUOUS
10
0.132094
20
0.096228
11
0.120949
21
0.104444
0
LINE
8
BLACK
6
CONTINUOUS
10
0.120949
20
0.104444
11
0.110791
21
0.113851
0
LINE
8
BLACK
6
CONTINUOUS
10
0.110791
20
0.113851
11
0.101744
21
0.124332
0
LINE
8
BLACK
6
CONTINUOUS
10
0.101744
20
0.124332
11
0.0939214
21
0.135756
0
LINE
8
BLACK
6
CONTINUOUS
10
0.0939214
20
0.135756
11
0.0874213
21
0.147981
0
LINE
8
BLACK
6
CONTINUOUS
10
0.0874213
20
0.147981
11
0.0823244
21
0.160855
0
LINE
8
BLACK
6
CONTINUOUS
10
0.0823244
20
0.160855
11
0.0786943
21
0.174216
0
LINE
8
BLACK
6
CONTINUOUS
10
0.0786943
20
0.174216
11
0.0765761
21
0.187898
0
LINE
8
BLACK
6
CONTINUOUS
10
0.0765761
20
0.187898
11
0.0759963
21
0.201732
0
LINE
8
BLACK
6
CONTINUOUS
10
0.0759963
20
0.201732
11
0.0769622
21
0.215543
0
LINE
8
BLACK
6
CONTINUOUS
10
0.0769622
20
0.215543
11
0.0794615
21
0.229161
0
LINE
8
BLACK
6
CONTINUOUS
10
0.0794615
20
0.229161
11
0.0834633
21
0.242416
0
LINE
8
BLACK
6
CONTINUOUS
10
0.0834633
20
0.242416
11
0.0889176
21
0.255142
0
LINE
8
BLACK
6
CONTINUOUS
10
0.0889176
20
0.255142
11
0.0957565
21
0.26718
0
LINE
8
BLACK
6
CONTINUOUS
10
0.0957565
20
0.26718
11
0.103895
21
0.278382
0
LINE
8
BLACK
6
CONTINUOUS
10
0.103895
20
0.278382
11
0.113231
21
0.288606
0
LINE
8
BLACK
6
CONTINUOUS
10
0.113231
20
0.288606
11
0.123648
21
0.297726
0
LINE
8
BLACK
6
CONTINUOUS
10
0.123648
20
0.297726
11
0.135017
21
0.305628
0
LINE
8
BLACK
6
CONTINUOUS
10
0.135017
20
0.305628
11
0.147197
21
0.312213
0
LINE
8
BLACK
6
CONTINUOUS
10
0.147197
20
0.312213
11
0.160034
21
0.317399
0
LINE
8
BLACK
6
CONTINUOUS
10
0.160034
20
0.317399
11
0.173369
21
0.321123
0
LINE
8
BLACK
6
CONTINUOUS
10
0.173369
20
0.321123
11
0.187037
21
0.323336
0
LINE
8
BLACK
6
CONTINUOUS
10
0.187037
20
0.323336
11
0.200866
21
0.324013
0
LINE
8
BLACK
6
CONTINUOUS
10
0.200866
20
0.324013
11
0.214684
21
0.323143
0
LINE
8
BLACK
6
CONTINUOUS
10
1.41468
20
0.323143
11
1.42832
21
0.320739
0
LINE
8
BLACK
6
CONTINUOUS
10
1.42832
20
0.320739
11
1.4416
21
0.31683
0
LINE
8
BLACK
6
CONTINUOUS
10
1.4416
20
0.31683
11
1.45436
21
0.311465
0
LINE
8
BLACK
6
CONTINUOUS
10
1.45436
20
0.311465
11
1.46645
21
0.30471
0
LINE
8
BLACK
6
CONTINUOUS
10
1.46645
20
0.30471
11
1.47771
21
0.29665
0
LINE
8
BLACK
6
CONTINUOUS
10
1.47771
20
0.29665
11
1.488
21
0.287386
0
LINE
8
BLACK
6
CONTINUOUS
10
1.488
20
0.287386
11
1.49719
21
0.277032
0
LINE
8
BLACK
6
CONTINUOUS
10
1.49719
20
0.277032
11
1.50517
21
0.265718
0
LINE
8
BLACK
6
CONTINUOUS
10
1.50517
20
0.265718
11
1.51184
21
0.253585
0
LINE
8
BLACK
6
CONTINUOUS
10
1.51184
20
0.253585
11
1.51712
21
0.240785
0
LINE
8
BLACK
6
CONTINUOUS
10
1.51712
20
0.240785
11
1.52093
21
0.227476
0
LINE
8
BLACK
6
CONTINUOUS
10
1.52093
20
0.227476
11
1.52324
21
0.213824
0
LINE
8
BLACK
6
CONTINUOUS
10
1.52324
20
0.213824
11
1.52402
21
0.2
0
LINE
8
BLACK
6
CONTINUOUS
10
1.52402
20
0.2
11
1.52397
21
0.196537
0
LINE
8
BLACK
6
CONTINUOUS
10
1.52397
20
0.196537
11
1.52281
21
0.18274
0
LINE
8
BLACK
6
CONTINUOUS
10
1.52281
20
0.18274
11
1.52012
21
0.169159
0
LINE
8
BLACK
6
CONTINUOUS
10
1.52012
20
0.169159
11
1.51593
21
0.155961
0
LINE
8
BLACK
6
CONTINUOUS
10
1.51593
20
0.155961
11
1.5103
21
0.143313
0
LINE
8
BLACK
6
CONTINUOUS
10
1.5103
20
0.143313
11
1.5033
21
0.131371
0
LINE
8
BLACK
6
CONTINUOUS
10
1.5033
20
0.131371
11
1.495
21
0.120284
0
LINE
8
BLACK
6
CONTINUOUS
10
1.495
20
0.120284
11
1.48552
21
0.110191
0
LINE
8
BLACK
6
CONTINUOUS
10
1.48552
20
0.110191
11
1.47498
21
0.101218
0
LINE
8
BLACK
6
CONTINUOUS
10
1.47498
20
0.101218
11
1.4635
21
0.0934754
0
LINE
8
BLACK
6
CONTINUOUS
10
1.4635
20
0.0934754
11
1.45123
21
0.0870609
0
LINE
8
BLACK
6
CONTINUOUS
10
1.45123
20
0.0870609
11
1.43832
21
0.082054
0
LINE
8
BLACK
6
CONTINUOUS
10
1.43832
20
0.082054
11
1.42494
21
0.0785172
0
LINE
8
BLACK
6
CONTINUOUS
10
1.42494
20
0.0785172
11
1.41124
21
0.0764946
0
LINE
8
BLACK
6
CONTINUOUS
10
1.41124
20
0.0764946
11
1.3974
21
0.0760115
0
LINE
8
BLACK
6
CONTINUOUS
10
1.3974
20
0.0760115
11
1.3836
21
0.0770737
0
LINE
8
BLACK
6
CONTINUOUS
10
1.3836
20
0.0770737
11
1.37
21
0.079668
0
LINE
8
BLACK
6
CONTINUOUS
10
1.37
20
0.079668
11
1.35677
21
0.0837623
0
LINE
8
BLACK
6
CONTINUOUS
10
1.35677
20
0.0837623
11
1.34408
21
0.0893053
0
LINE
8
BLACK
6
CONTINUOUS
10
1.34408
20
0.0893053
11
1.33209
21
0.096228
0
LINE
8
BLACK
6
CONTINUOUS
10
1.33209
20
0.096228
11
1.32095
21
0.104444
0
LINE
8
BLACK
6
CONTINUOUS
10
1.32095
20
0.104444
11
1.31079
21
0.113851
0
LINE
8
BLACK
6
CONTINUOUS
10
1.31079
20
0.113851
11
1.30174
21
0.124332
0
LINE
8
BLACK
6
CONTINUOUS
10
1.30174
20
0.124332
11
1.29392
21
0.135756
0
LINE
8
BLACK
6
CONTINUOUS
10
1.29392
20
0.135756
11
1.28742
21
0.147981
0
LINE
8
BLACK
6
CONTINUOUS
10
1.28742
20
0.147981
11
1.28232
21
0.160855
0
LINE
8
BLACK
6
CONTINUOUS
10
1.28232
20
0.160855
11
1.27869
21
0.174216
0
LINE
8
BLACK
6
CONTINUOUS
10
1.27869
20
0.174216
11
1.27658
21
0.187898
0
LINE
8
BLACK
6
CONTINUOUS
10
1.27658
20
0.187898
11
1.276
21
0.201732
0
LINE
8
BLACK
6
CONTINUOUS
10
1.276
20
0.201732
11
1.27696
21
0.215543
0
LINE
8
BLACK
6
CONTINUOUS
10
1.27696
20
0.215543
11
1.27946
21
0.229161
0
LINE
8
BLACK
6
CONTINUOUS
10
1.27946
20
0.229161
11
1.28346
21
0.242416
0
LINE
8
BLACK
6
CONTINUOUS
10
1.28346
20
0.242416
11
1.28892
21
0.255142
0
LINE
8
BLACK
6
CONTINUOUS
10
1.28892
20
0.255142
11
1.29576
21
0.26718
0
LINE
8
BLACK
6
CONTINUOUS
10
1.29576
20
0.26718
11
1.30389
21
0.278382
0
LINE
8
BLACK
6
CONTINUOUS
10
1.30389
20
0.278382
11
1.31323
21
0.288606
0
LINE
8
BLACK
6
CONTINUOUS
10
1.31323
20
0.288606
11
1.32365
21
0.297726
0
LINE
8
BLACK
6
CONTINUOUS
10
1.32365
20
0.297726
11
1.33502
21
0.305628
0
LINE
8
BLACK
6
CONTINUOUS
10
1.33502
20
0.305628
11
1.3472
21
0.312213
0
LINE
8
BLACK
6
CONTINUOUS
10
1.3472
20
0.312213
11
1.36003
21
0.317399
0
LINE
8
BLACK
6
CONTINUOUS
10
1.36003
20
0.317399
11
1.37337
21
0.321123
0
LINE
8
BLACK
6
CONTINUOUS
10
1.37337
20
0.321123
11
1.38704
21
0.323336
0
LINE
8
BLACK
6
CONTINUOUS
10
1.38704
20
0.323336
11
1.40087
21
0.324013
0
LINE
8
BLACK
6
CONTINUOUS
10
1.40087
20
0.324013
11
1.41468
21
0.323143
0
LINE
8
BLACK
6
CONTINUOUS
10
0.902583
20
0.189387
11
0.906973
21
0.18715
0
LINE
8
BLACK
6
CONTINUOUS
10
0.906973
20
0.18715
11
0.910457
21
0.183666
0
LINE
8
BLACK
6
CONTINUOUS
10
0.910457
20
0.183666
11
0.912694
21
0.179276
0
LINE
8
BLACK
6
CONTINUOUS
10
0.912694
20
0.179276
11
0.913465
21
0.174409
0
LINE
8
BLACK
6
CONTINUOUS
10
0.913465
20
0.174409
11
0.913465
21
0.15374
0
LINE
8
BLACK
6
CONTINUOUS
10
0.913465
20
0.15374
11
0.912694
21
0.148874
0
LINE
8
BLACK
6
CONTINUOUS
10
0.912694
20
0.148874
11
0.910457
21
0.144484
0
LINE
8
BLACK
6
CONTINUOUS
10
0.910457
20
0.144484
11
0.906973
21
0.141
0
LINE
8
BLACK
6
CONTINUOUS
10
0.906973
20
0.141
11
0.902583
21
0.138763
0
LINE
8
BLACK
6
CONTINUOUS
10
0.902583
20
0.138763
11
0.897717
21
0.137992
0
LINE
8
BLACK
6
CONTINUOUS
10
0.897717
20
0.137992
11
0.862283
21
0.137992
0
LINE
8
BLACK
6
CONTINUOUS
10
0.862283
20
0.137992
11
0.857417
21
0.138763
0
LINE
8
BLACK
6
CONTINUOUS
10
0.857417
20
0.138763
11
0.853027
21
0.141
0
LINE
8
BLACK
6
CONTINUOUS
10
0.853027
20
0.141
11
0.849543
21
0.144484
0
LINE
8
BLACK
6
CONTINUOUS
10
0.849543
20
0.144484
11
0.847306
21
0.148874
0
LINE
8
BLACK
6
CONTINUOUS
10
0.847306
20
0.148874
11
0.846535
21
0.15374
0
LINE
8
BLACK
6
CONTINUOUS
10
0.846535
20
0.15374
11
0.846535
21
0.174409
0
LINE
8
BLACK
6
CONTINUOUS
10
0.846535
20
0.174409
11
0.847306
21
0.179276
0
LINE
8
BLACK
6
CONTINUOUS
10
0.847306
20
0.179276
11
0.849543
21
0.183666
0
LINE
8
BLACK
6
CONTINUOUS
10
0.849543
20
0.183666
11
0.853027
21
0.18715
0
LINE
8
BLACK
6
CONTINUOUS
10
0.853027
20
0.18715
11
0.857417
21
0.189387
0
LINE
8
BLACK
6
CONTINUOUS
10
0.857417
20
0.189387
11
0.862283
21
0.190157
0
LINE
8
BLACK
6
CONTINUOUS
10
0.862283
20
0.190157
11
0.897717
21
0.190157
0
LINE
8
BLACK
6
CONTINUOUS
10
0.897717
20
0.190157
11
0.902583
21
0.189387
0
LINE
8
BLACK
6
CONTINUOUS
10
1.00758
20
0.189387
11
1.01197
21
0.18715
0
LINE
8
BLACK
6
CONTINUOUS
10
1.01197
20
0.18715
11
1.01546
21
0.183666
0
LINE
8
BLACK
6
CONTINUOUS
10
1.01546
20
0.183666
11
1.01769
21
0.179276
0
LINE
8
BLACK
6
CONTINUOUS
10
1.01769
20
0.179276
11
1.01846
21
0.174409
0
LINE
8
BLACK
6
CONTINUOUS
10
1.01846
20
0.174409
11
1.01846
21
0.15374
0
LINE
8
BLACK
6
CONTINUOUS
10
1.01846
20
0.15374
11
1.01769
21
0.148874
0
LINE
8
BLACK
6
CONTINUOUS
10
1.01769
20
0.148874
11
1.01546
21
0.144484
0
LINE
8
BLACK
6
CONTINUOUS
10
1.01546
20
0.144484
11
1.01197
21
0.141
0
LINE
8
BLACK
6
CONTINUOUS
10
1.01197
20
0.141
11
1.00758
21
0.138763
0
LINE
8
BLACK
6
CONTINUOUS
10
1.00758
20
0.138763
11
1.00272
21
0.137992
0
LINE
8
BLACK
6
CONTINUOUS
10
1.00272
20
0.137992
11
0.967283
21
0.137992
0
LINE
8
BLACK
6
CONTINUOUS
10
0.967283
20
0.137992
11
0.962417
21
0.138763
0
LINE
8
BLACK
6
CONTINUOUS
10
0.962417
20
0.138763
11
0.958027
21
0.141
0
LINE
8
BLACK
6
CONTINUOUS
10
0.958027
20
0.141
11
0.954543
21
0.144484
0
LINE
8
BLACK
6
CONTINUOUS
10
0.954543
20
0.144484
11
0.952306
21
0.148874
0
LINE
8
BLACK
6
CONTINUOUS
10
0.952306
20
0.148874
11
0.951535
21
0.15374
0
LINE
8
BLACK
6
CONTINUOUS
10
0.951535
20
0.15374
11
0.951535
21
0.174409
0
LINE
8
BLACK
6
CONTINUOUS
10
0.951535
20
0.174409
11
0.952306
21
0.179276
0
LINE
8
BLACK
6
CONTINUOUS
10
0.952306
20
0.179276
11
0.954543
21
0.183666
0
LINE
8
BLACK
6
CONTINUOUS
10
0.954543
20
0.183666
11
0.958027
21
0.18715
0
LINE
8
BLACK
6
CONTINUOUS
10
0.958027
20
0.18715
11
0.962417
21
0.189387
0
LINE
8
BLACK
6
CONTINUOUS
10
0.962417
20
0.189387
11
0.967283
21
0.190157
0
LINE
8
BLACK
6
CONTINUOUS
10
0.967283
20
0.190157
11
1.00272
21
0.190157
0
LINE
8
BLACK
6
CONTINUOUS
10
1.00272
20
0.190157
11
1.00758
21
0.189387
0
LINE
8
BLACK
6
CONTINUOUS
10
1.00758
20
0.261237
11
1.01197
21
0.259
0
LINE
8
BLACK
6
CONTINUOUS
10
1.01197
20
0.259
11
1.01546
21
0.255516
0
LINE
8
BLACK
6
CONTINUOUS
10
1.01546
20
0.255516
11
1.01769
21
0.251126
0
LINE
8
BLACK
6
CONTINUOUS
10
1.01769
20
0.251126
11
1.01846
21
0.24626
0
LINE
8
BLACK
6
CONTINUOUS
10
1.01846
20
0.24626
11
1.01846
21
0.225591
0
LINE
8
BLACK
6
CONTINUOUS
10
1.01846
20
0.225591
11
1.01769
21
0.220724
0
LINE
8
BLACK
6
CONTINUOUS
10
1.01769
20
0.220724
11
1.01546
21
0.216334
0
LINE
8
BLACK
6
CONTINUOUS
10
1.01546
20
0.216334
11
1.01197
21
0.21285
0
LINE
8
BLACK
6
CONTINUOUS
10
1.01197
20
0.21285
11
1.00758
21
0.210613
0
LINE
8
BLACK
6
CONTINUOUS
10
1.00758
20
0.210613
11
1.00272
21
0.209843
0
LINE
8
BLACK
6
CONTINUOUS
10
1.00272
20
0.209843
11
0.967283
21
0.209843
0
LINE
8
BLACK
6
CONTINUOUS
10
0.967283
20
0.209843
11
0.962417
21
0.210613
0
LINE
8
BLACK
6
CONTINUOUS
10
0.962417
20
0.210613
11
0.958027
21
0.21285
0
LINE
8
BLACK
6
CONTINUOUS
10
0.958027
20
0.21285
11
0.954543
21
0.216334
0
LINE
8
BLACK
6
CONTINUOUS
10
0.954543
20
0.216334
11
0.952306
21
0.220724
0
LINE
8
BLACK
6
CONTINUOUS
10
0.952306
20
0.220724
11
0.951535
21
0.225591
0
LINE
8
BLACK
6
CONTINUOUS
10
0.951535
20
0.225591
11
0.951535
21
0.24626
0
LINE
8
BLACK
6
CONTINUOUS
10
0.951535
20
0.24626
11
0.952306
21
0.251126
0
LINE
8
BLACK
6
CONTINUOUS
10
0.952306
20
0.251126
11
0.954543
21
0.255516
0
LINE
8
BLACK
6
CONTINUOUS
10
0.954543
20
0.255516
11
0.958027
21
0.259
0
LINE
8
BLACK
6
CONTINUOUS
10
0.958027
20
0.259
11
0.962417
21
0.261237
0
LINE
8
BLACK
6
CONTINUOUS
10
0.962417
20
0.261237
11
0.967283
21
0.262008
0
LINE
8
BLACK
6
CONTINUOUS
10
0.967283
20
0.262008
11
1.00272
21
0.262008
0
LINE
8
BLACK
6
CONTINUOUS
10
1.00272
20
0.262008
11
1.00758
21
0.261237
0
LINE
8
BLACK
6
CONTINUOUS
10
0.902583
20
0.261237
11
0.906973
21
0.259
0
LINE
8
BLACK
6
CONTINUOUS
10
0.906973
20
0.259
11
0.910457
21
0.255516
0
LINE
8
BLACK
6
CONTINUOUS
10
0.910457
20
0.255516
11
0.912694
21
0.251126
0
LINE
8
BLACK
6
CONTINUOUS
10
0.912694
20
0.251126
11
0.913465
21
0.24626
0
LINE
8
BLACK
6
CONTINUOUS
10
0.913465
20
0.24626
11
0.913465
21
0.225591
0
LINE
8
BLACK
6
CONTINUOUS
10
0.913465
20
0.225591
11
0.912694
21
0.220724
0
LINE
8
BLACK
6
CONTINUOUS
10
0.912694
20
0.220724
11
0.910457
21
0.216334
0
LINE
8
BLACK
6
CONTINUOUS
10
0.910457
20
0.216334
11
0.906973
21
0.21285
0
LINE
8
BLACK
6
CONTINUOUS
10
0.906973
20
0.21285
11
0.902583
21
0.210613
0
LINE
8
BLACK
6
CONTINUOUS
10
0.902583
20
0.210613
11
0.897717
21
0.209843
0
LINE
8
BLACK
6
CONTINUOUS
10
0.897717
20
0.209843
11
0.862283
21
0.209843
0
LINE
8
BLACK
6
CONTINUOUS
10
0.862283
20
0.209843
11
0.857417
21
0.210613
0
LINE
8
BLACK
6
CONTINUOUS
10
0.857417
20
0.210613
11
0.853027
21
0.21285
0
LINE
8
BLACK
6
CONTINUOUS
10
0.853027
20
0.21285
11
0.849543
21
0.216334
0
LINE
8
BLACK
6
CONTINUOUS
10
0.849543
20
0.216334
11
0.847306
21
0.220724
0
LINE
8
BLACK
6
CONTINUOUS
10
0.847306
20
0.220724
11
0.846535
21
0.225591
0
LINE
8
BLACK
6
CONTINUOUS
10
0.846535
20
0.225591
11
0.846535
21
0.24626
0
LINE
8
BLACK
6
CONTINUOUS
10
0.846535
20
0.24626
11
0.847306
21
0.251126
0
LINE
8
BLACK
6
CONTINUOUS
10
0.847306
20
0.251126
11
0.849543
21
0.255516
0
LINE
8
BLACK
6
CONTINUOUS
10
0.849543
20
0.255516
11
0.853027
21
0.259
0
LINE
8
BLACK
6
CONTINUOUS
10
0.853027
20
0.259
11
0.857417
21
0.261237
0
LINE
8
BLACK
6
CONTINUOUS
10
0.857417
20
0.261237
11
0.862283
21
0.262008
0
LINE
8
BLACK
6
CONTINUOUS
10
0.862283
20
0.262008
11
0.897717
21
0.262008
0
LINE
8
BLACK
6
CONTINUOUS
10
0.897717
20
0.262008
11
0.902583
21
0.261237
0
LINE
8
BLACK
6
CONTINUOUS
10
0.994709
20
0.353678
11
0.999099
21
0.351441
0
LINE
8
BLACK
6
CONTINUOUS
10
0.999099
20
0.351441
11
1.00258
21
0.347957
0
LINE
8
BLACK
6
CONTINUOUS
10
1.00258
20
0.347957
11
1.00482
21
0.343567
0
LINE
8
BLACK
6
CONTINUOUS
10
1.00482
20
0.343567
11
1.00559
21
0.338701
0
LINE
8
BLACK
6
CONTINUOUS
10
1.00559
20
0.338701
11
1.00559
21
0.301299
0
LINE
8
BLACK
6
CONTINUOUS
10
1.00559
20
0.301299
11
1.00482
21
0.296433
0
LINE
8
BLACK
6
CONTINUOUS
10
1.00482
20
0.296433
11
1.00258
21
0.292043
0
LINE
8
BLACK
6
CONTINUOUS
10
1.00258
20
0.292043
11
0.999099
21
0.288559
0
LINE
8
BLACK
6
CONTINUOUS
10
0.999099
20
0.288559
11
0.994709
21
0.286322
0
LINE
8
BLACK
6
CONTINUOUS
10
0.994709
20
0.286322
11
0.989843
21
0.285551
0
LINE
8
BLACK
6
CONTINUOUS
10
0.989843
20
0.285551
11
0.970157
21
0.285551
0
LINE
8
BLACK
6
CONTINUOUS
10
0.970157
20
0.285551
11
0.965291
21
0.286322
0
LINE
8
BLACK
6
CONTINUOUS
10
0.965291
20
0.286322
11
0.960901
21
0.288559
0
LINE
8
BLACK
6
CONTINUOUS
10
0.960901
20
0.288559
11
0.957417
21
0.292043
0
LINE
8
BLACK
6
CONTINUOUS
10
0.957417
20
0.292043
11
0.95518
21
0.296433
0
LINE
8
BLACK
6
CONTINUOUS
10
0.95518
20
0.296433
11
0.954409
21
0.301299
0
LINE
8
BLACK
6
CONTINUOUS
10
0.954409
20
0.301299
11
0.954409
21
0.338701
0
LINE
8
BLACK
6
CONTINUOUS
10
0.954409
20
0.338701
11
0.95518
21
0.343567
0
LINE
8
BLACK
6
CONTINUOUS
10
0.95518
20
0.343567
11
0.957417
21
0.347957
0
LINE
8
BLACK
6
CONTINUOUS
10
0.957417
20
0.347957
11
0.960901
21
0.351441
0
LINE
8
BLACK
6
CONTINUOUS
10
0.960901
20
0.351441
11
0.965291
21
0.353678
0
LINE
8
BLACK
6
CONTINUOUS
10
0.965291
20
0.353678
11
0.970157
21
0.354449
0
LINE
8
BLACK
6
CONTINUOUS
10
0.970157
20
0.354449
11
0.989843
21
0.354449
0
LINE
8
BLACK
6
CONTINUOUS
10
0.989843
20
0.354449
11
0.994709
21
0.353678
0
LINE
8
BLACK
6
CONTINUOUS
10
0.919906
20
0.353678
11
0.924296
21
0.351441
0
LINE
8
BLACK
6
CONTINUOUS
10
0.924296
20
0.351441
11
0.92778
21
0.347957
0
LINE
8
BLACK
6
CONTINUOUS
10
0.92778
20
0.347957
11
0.930017
21
0.343567
0
LINE
8
BLACK
6
CONTINUOUS
10
0.930017
20
0.343567
11
0.930787
21
0.338701
0
LINE
8
BLACK
6
CONTINUOUS
10
0.930787
20
0.338701
11
0.930787
21
0.301299
0
LINE
8
BLACK
6
CONTINUOUS
10
0.930787
20
0.301299
11
0.930017
21
0.296433
0
LINE
8
BLACK
6
CONTINUOUS
10
0.930017
20
0.296433
11
0.92778
21
0.292043
0
LINE
8
BLACK
6
CONTINUOUS
10
0.92778
20
0.292043
11
0.924296
21
0.288559
0
LINE
8
BLACK
6
CONTINUOUS
10
0.924296
20
0.288559
11
0.919906
21
0.286322
0
LINE
8
BLACK
6
CONTINUOUS
10
0.919906
20
0.286322
11
0.915039
21
0.285551
0
LINE
8
BLACK
6
CONTINUOUS
10
0.915039
20
0.285551
11
0.895354
21
0.285551
0
LINE
8
BLACK
6
CONTINUOUS
10
0.895354
20
0.285551
11
0.890488
21
0.286322
0
LINE
8
BLACK
6
CONTINUOUS
10
0.890488
20
0.286322
11
0.886098
21
0.288559
0
LINE
8
BLACK
6
CONTINUOUS
10
0.886098
20
0.288559
11
0.882614
21
0.292043
0
LINE
8
BLACK
6
CONTINUOUS
10
0.882614
20
0.292043
11
0.880377
21
0.296433
0
LINE
8
BLACK
6
CONTINUOUS
10
0.880377
20
0.296433
11
0.879606
21
0.301299
0
LINE
8
BLACK
6
CONTINUOUS
10
0.879606
20
0.301299
11
0.879606
21
0.338701
0
LINE
8
BLACK
6
CONTINUOUS
10
0.879606
20
0.338701
11
0.880377
21
0.343567
0
LINE
8
BLACK
6
CONTINUOUS
10
0.880377
20
0.343567
11
0.882614
21
0.347957
0
LINE
8
BLACK
6
CONTINUOUS
10
0.882614
20
0.347957
11
0.886098
21
0.351441
0
LINE
8
BLACK
6
CONTINUOUS
10
0.886098
20
0.351441
11
0.890488
21
0.353678
0
LINE
8
BLACK
6
CONTINUOUS
10
0.890488
20
0.353678
11
0.895354
21
0.354449
0
LINE
8
BLACK
6
CONTINUOUS
10
0.895354
20
0.354449
11
0.915039
21
0.354449
0
LINE
8
BLACK
6
CONTINUOUS
10
0.915039
20
0.354449
11
0.919906
21
0.353678
0
LINE
8
BLACK
6
CONTINUOUS
10
1.0852
20
0.392694
11
1.08959
21
0.390457
0
LINE
8
BLACK
6
CONTINUOUS
10
1.08959
20
0.390457
11
1.09308
21
0.386973
0
LINE
8
BLACK
6
CONTINUOUS
10
1.09308
20
0.386973
11
1.09531
21
0.382583
0
LINE
8
BLACK
6
CONTINUOUS
10
1.09531
20
0.382583
11
1.09608
21
0.377717
0
LINE
8
BLACK
6
CONTINUOUS
10
1.09608
20
0.377717
11
1.09608
21
0.342283
0
LINE
8
BLACK
6
CONTINUOUS
10
1.09608
20
0.342283
11
1.09531
21
0.337417
0
LINE
8
BLACK
6
CONTINUOUS
10
1.09531
20
0.337417
11
1.09308
21
0.333027
0
LINE
8
BLACK
6
CONTINUOUS
10
1.09308
20
0.333027
11
1.08959
21
0.329543
0
LINE
8
BLACK
6
CONTINUOUS
10
1.08959
20
0.329543
11
1.0852
21
0.327306
0
LINE
8
BLACK
6
CONTINUOUS
10
1.0852
20
0.327306
11
1.08033
21
0.326535
0
LINE
8
BLACK
6
CONTINUOUS
10
1.08033
20
0.326535
11
1.05967
21
0.326535
0
LINE
8
BLACK
6
CONTINUOUS
10
1.05967
20
0.326535
11
1.0548
21
0.327306
0
LINE
8
BLACK
6
CONTINUOUS
10
1.0548
20
0.327306
11
1.05041
21
0.329543
0
LINE
8
BLACK
6
CONTINUOUS
10
1.05041
20
0.329543
11
1.04692
21
0.333027
0
LINE
8
BLACK
6
CONTINUOUS
10
1.04692
20
0.333027
11
1.04469
21
0.337417
0
LINE
8
BLACK
6
CONTINUOUS
10
1.04469
20
0.337417
11
1.04392
21
0.342283
0
LINE
8
BLACK
6
CONTINUOUS
10
1.04392
20
0.342283
11
1.04392
21
0.377717
0
LINE
8
BLACK
6
CONTINUOUS
10
1.04392
20
0.377717
11
1.04469
21
0.382583
0
LINE
8
BLACK
6
CONTINUOUS
10
1.04469
20
0.382583
11
1.04692
21
0.386973
0
LINE
8
BLACK
6
CONTINUOUS
10
1.04692
20
0.386973
11
1.05041
21
0.390457
0
LINE
8
BLACK
6
CONTINUOUS
10
1.05041
20
0.390457
11
1.0548
21
0.392694
0
LINE
8
BLACK
6
CONTINUOUS
10
1.0548
20
0.392694
11
1.05967
21
0.393465
0
LINE
8
BLACK
6
CONTINUOUS
10
1.05967
20
0.393465
11
1.08033
21
0.393465
0
LINE
8
BLACK
6
CONTINUOUS
10
1.08033
20
0.393465
11
1.0852
21
0.392694
0
LINE
8
BLACK
6
CONTINUOUS
10
1.15705
20
0.392694
11
1.16144
21
0.390457
0
LINE
8
BLACK
6
CONTINUOUS
10
1.16144
20
0.390457
11
1.16493
21
0.386973
0
LINE
8
BLACK
6
CONTINUOUS
10
1.16493
20
0.386973
11
1.16716
21
0.382583
0
LINE
8
BLACK
6
CONTINUOUS
10
1.16716
20
0.382583
11
1.16793
21
0.377717
0
LINE
8
BLACK
6
CONTINUOUS
10
1.16793
20
0.377717
11
1.16793
21
0.342283
0
LINE
8
BLACK
6
CONTINUOUS
10
1.16793
20
0.342283
11
1.16716
21
0.337417
0
LINE
8
BLACK
6
CONTINUOUS
10
1.16716
20
0.337417
11
1.16493
21
0.333027
0
LINE
8
BLACK
6
CONTINUOUS
10
1.16493
20
0.333027
11
1.16144
21
0.329543
0
LINE
8
BLACK
6
CONTINUOUS
10
1.16144
20
0.329543
11
1.15705
21
0.327306
0
LINE
8
BLACK
6
CONTINUOUS
10
1.15705
20
0.327306
11
1.15219
21
0.326535
0
LINE
8
BLACK
6
CONTINUOUS
10
1.15219
20
0.326535
11
1.13152
21
0.326535
0
LINE
8
BLACK
6
CONTINUOUS
10
1.13152
20
0.326535
11
1.12665
21
0.327306
0
LINE
8
BLACK
6
CONTINUOUS
10
1.12665
20
0.327306
11
1.12226
21
0.329543
0
LINE
8
BLACK
6
CONTINUOUS
10
1.12226
20
0.329543
11
1.11878
21
0.333027
0
LINE
8
BLACK
6
CONTINUOUS
10
1.11878
20
0.333027
11
1.11654
21
0.337417
0
LINE
8
BLACK
6
CONTINUOUS
10
1.11654
20
0.337417
11
1.11577
21
0.342283
0
LINE
8
BLACK
6
CONTINUOUS
10
1.11577
20
0.342283
11
1.11577
21
0.377717
0
LINE
8
BLACK
6
CONTINUOUS
10
1.11577
20
0.377717
11
1.11654
21
0.382583
0
LINE
8
BLACK
6
CONTINUOUS
10
1.11654
20
0.382583
11
1.11878
21
0.386973
0
LINE
8
BLACK
6
CONTINUOUS
10
1.11878
20
0.386973
11
1.12226
21
0.390457
0
LINE
8
BLACK
6
CONTINUOUS
10
1.12226
20
0.390457
11
1.12665
21
0.392694
0
LINE
8
BLACK
6
CONTINUOUS
10
1.12665
20
0.392694
11
1.13152
21
0.393465
0
LINE
8
BLACK
6
CONTINUOUS
10
1.13152
20
0.393465
11
1.15219
21
0.393465
0
LINE
8
BLACK
6
CONTINUOUS
10
1.15219
20
0.393465
11
1.15705
21
0.392694
0
LINE
8
BLACK
6
CONTINUOUS
10
1.38146
20
0.476256
11
1.38338
21
0.474976
0
LINE
8
BLACK
6
CONTINUOUS
10
1.38338
20
0.474976
11
1.38466
21
0.47306
0
LINE
8
BLACK
6
CONTINUOUS
10
1.38466
20
0.47306
11
1.38511
21
0.4708
0
LINE
8
BLACK
6
CONTINUOUS
10
1.38511
20
0.4708
11
1.38511
21
0.3704
0
LINE
8
BLACK
6
CONTINUOUS
10
1.38511
20
0.3704
11
1.38466
21
0.36814
0
LINE
8
BLACK
6
CONTINUOUS
10
1.38466
20
0.36814
11
1.38338
21
0.366224
0
LINE
8
BLACK
6
CONTINUOUS
10
1.38338
20
0.366224
11
1.38146
21
0.364944
0
LINE
8
BLACK
6
CONTINUOUS
10
1.38146
20
0.364944
11
1.3792
21
0.364494
0
LINE
8
BLACK
6
CONTINUOUS
10
1.3792
20
0.364494
11
1.2808
21
0.364494
0
LINE
8
BLACK
6
CONTINUOUS
10
1.2808
20
0.364494
11
1.27854
21
0.364944
0
LINE
8
BLACK
6
CONTINUOUS
10
1.27854
20
0.364944
11
1.27662
21
0.366224
0
LINE
8
BLACK
6
CONTINUOUS
10
1.27662
20
0.366224
11
1.27534
21
0.36814
0
LINE
8
BLACK
6
CONTINUOUS
10
1.27534
20
0.36814
11
1.27489
21
0.3704
0
LINE
8
BLACK
6
CONTINUOUS
10
1.27489
20
0.3704
11
1.27489
21
0.4708
0
LINE
8
BLACK
6
CONTINUOUS
10
1.27489
20
0.4708
11
1.27534
21
0.47306
0
LINE
8
BLACK
6
CONTINUOUS
10
1.27534
20
0.47306
11
1.27662
21
0.474976
0
LINE
8
BLACK
6
CONTINUOUS
10
1.27662
20
0.474976
11
1.27854
21
0.476256
0
LINE
8
BLACK
6
CONTINUOUS
10
1.27854
20
0.476256
11
1.2808
21
0.476706
0
LINE
8
BLACK
6
CONTINUOUS
10
1.2808
20
0.476706
11
1.3792
21
0.476706
0
LINE
8
BLACK
6
CONTINUOUS
10
1.3792
20
0.476706
11
1.38146
21
0.476256
0
LINE
8
BLACK
6
CONTINUOUS
10
0.68726
20
0.445456
11
0.689176
21
0.444176
0
LINE
8
BLACK
6
CONTINUOUS
10
0.689176
20
0.444176
11
0.690456
21
0.44226
0
LINE
8
BLACK
6
CONTINUOUS
10
0.690456
20
0.44226
11
0.690906
21
0.44
0
LINE
8
BLACK
6
CONTINUOUS
10
0.690906
20
0.44
11
0.690906
21
0.38
0
LINE
8
BLACK
6
CONTINUOUS
10
0.690906
20
0.38
11
0.690456
21
0.37774
0
LINE
8
BLACK
6
CONTINUOUS
10
0.690456
20
0.37774
11
0.689176
21
0.375824
0
LINE
8
BLACK
6
CONTINUOUS
10
0.689176
20
0.375824
11
0.68726
21
0.374544
0
LINE
8
BLACK
6
CONTINUOUS
10
0.68726
20
0.374544
11
0.685
21
0.374094
0
LINE
8
BLACK
6
CONTINUOUS
10
0.685
20
0.374094
11
0.625
21
0.374094
0
LINE
8
BLACK
6
CONTINUOUS
10
0.625
20
0.374094
11
0.62274
21
0.374544
0
LINE
8
BLACK
6
CONTINUOUS
10
0.62274
20
0.374544
11
0.620824
21
0.375824
0
LINE
8
BLACK
6
CONTINUOUS
10
0.620824
20
0.375824
11
0.619544
21
0.37774
0
LINE
8
BLACK
6
CONTINUOUS
10
0.619544
20
0.37774
11
0.619094
21
0.38
0
LINE
8
BLACK
6
CONTINUOUS
10
0.619094
20
0.38
11
0.619094
21
0.44
0
LINE
8
BLACK
6
CONTINUOUS
10
0.619094
20
0.44
11
0.619544
21
0.44226
0
LINE
8
BLACK
6
CONTINUOUS
10
0.619544
20
0.44226
11
0.620824
21
0.444176
0
LINE
8
BLACK
6
CONTINUOUS
10
0.620824
20
0.444176
11
0.62274
21
0.445456
0
LINE
8
BLACK
6
CONTINUOUS
10
0.62274
20
0.445456
11
0.625
21
0.445906
0
LINE
8
BLACK
6
CONTINUOUS
10
0.625
20
0.445906
11
0.685
21
0.445906
0
LINE
8
BLACK
6
CONTINUOUS
10
0.685
20
0.445906
11
0.68726
21
0.445456
0
LINE
8
BLACK
6
CONTINUOUS
10
0.807583
20
0.440312
11
0.811973
21
0.438075
0
LINE
8
BLACK
6
CONTINUOUS
10
0.811973
20
0.438075
11
0.815457
21
0.434591
0
LINE
8
BLACK
6
CONTINUOUS
10
0.815457
20
0.434591
11
0.817694
21
0.430201
0
LINE
8
BLACK
6
CONTINUOUS
10
0.817694
20
0.430201
11
0.818465
21
0.425335
0
LINE
8
BLACK
6
CONTINUOUS
10
0.818465
20
0.425335
11
0.818465
21
0.404665
0
LINE
8
BLACK
6
CONTINUOUS
10
0.818465
20
0.404665
11
0.817694
21
0.399799
0
LINE
8
BLACK
6
CONTINUOUS
10
0.817694
20
0.399799
11
0.815457
21
0.395409
0
LINE
8
BLACK
6
CONTINUOUS
10
0.815457
20
0.395409
11
0.811973
21
0.391925
0
LINE
8
BLACK
6
CONTINUOUS
10
0.811973
20
0.391925
11
0.807583
21
0.389688
0
LINE
8
BLACK
6
CONTINUOUS
10
0.807583
20
0.389688
11
0.802717
21
0.388917
0
LINE
8
BLACK
6
CONTINUOUS
10
0.802717
20
0.388917
11
0.767283
21
0.388917
0
LINE
8
BLACK
6
CONTINUOUS
10
0.767283
20
0.388917
11
0.762417
21
0.389688
0
LINE
8
BLACK
6
CONTINUOUS
10
0.762417
20
0.389688
11
0.758027
21
0.391925
0
LINE
8
BLACK
6
CONTINUOUS
10
0.758027
20
0.391925
11
0.754543
21
0.395409
0
LINE
8
BLACK
6
CONTINUOUS
10
0.754543
20
0.395409
11
0.752306
21
0.399799
0
LINE
8
BLACK
6
CONTINUOUS
10
0.752306
20
0.399799
11
0.751535
21
0.404665
0
LINE
8
BLACK
6
CONTINUOUS
10
0.751535
20
0.404665
11
0.751535
21
0.425335
0
LINE
8
BLACK
6
CONTINUOUS
10
0.751535
20
0.425335
11
0.752306
21
0.430201
0
LINE
8
BLACK
6
CONTINUOUS
10
0.752306
20
0.430201
11
0.754543
21
0.434591
0
LINE
8
BLACK
6
CONTINUOUS
10
0.754543
20
0.434591
11
0.758027
21
0.438075
0
LINE
8
BLACK
6
CONTINUOUS
10
0.758027
20
0.438075
11
0.762417
21
0.440312
0
LINE
8
BLACK
6
CONTINUOUS
10
0.762417
20
0.440312
11
0.767283
21
0.441083
0
LINE
8
BLACK
6
CONTINUOUS
10
0.767283
20
0.441083
11
0.802717
21
0.441083
0
LINE
8
BLACK
6
CONTINUOUS
10
0.802717
20
0.441083
11
0.807583
21
0.440312
0
LINE
8
BLACK
6
CONTINUOUS
10
1.21258
20
0.495312
11
1.21697
21
0.493075
0
LINE
8
BLACK
6
CONTINUOUS
10
1.21697
20
0.493075
11
1.22046
21
0.489591
0
LINE
8
BLACK
6
CONTINUOUS
10
1.22046
20
0.489591
11
1.22269
21
0.485201
0
LINE
8
BLACK
6
CONTINUOUS
10
1.22269
20
0.485201
11
1.22346
21
0.480335
0
LINE
8
BLACK
6
CONTINUOUS
10
1.22346
20
0.480335
11
1.22346
21
0.459665
0
LINE
8
BLACK
6
CONTINUOUS
10
1.22346
20
0.459665
11
1.22269
21
0.454799
0
LINE
8
BLACK
6
CONTINUOUS
10
1.22269
20
0.454799
11
1.22046
21
0.450409
0
LINE
8
BLACK
6
CONTINUOUS
10
1.22046
20
0.450409
11
1.21697
21
0.446925
0
LINE
8
BLACK
6
CONTINUOUS
10
1.21697
20
0.446925
11
1.21258
21
0.444688
0
LINE
8
BLACK
6
CONTINUOUS
10
1.21258
20
0.444688
11
1.20772
21
0.443917
0
LINE
8
BLACK
6
CONTINUOUS
10
1.20772
20
0.443917
11
1.17228
21
0.443917
0
LINE
8
BLACK
6
CONTINUOUS
10
1.17228
20
0.443917
11
1.16742
21
0.444688
0
LINE
8
BLACK
6
CONTINUOUS
10
1.16742
20
0.444688
11
1.16303
21
0.446925
0
LINE
8
BLACK
6
CONTINUOUS
10
1.16303
20
0.446925
11
1.15954
21
0.450409
0
LINE
8
BLACK
6
CONTINUOUS
10
1.15954
20
0.450409
11
1.15731
21
0.454799
0
LINE
8
BLACK
6
CONTINUOUS
10
1.15731
20
0.454799
11
1.15654
21
0.459665
0
LINE
8
BLACK
6
CONTINUOUS
10
1.15654
20
0.459665
11
1.15654
21
0.480335
0
LINE
8
BLACK
6
CONTINUOUS
10
1.15654
20
0.480335
11
1.15731
21
0.485201
0
LINE
8
BLACK
6
CONTINUOUS
10
1.15731
20
0.485201
11
1.15954
21
0.489591
0
LINE
8
BLACK
6
CONTINUOUS
10
1.15954
20
0.489591
11
1.16303
21
0.493075
0
LINE
8
BLACK
6
CONTINUOUS
10
1.16303
20
0.493075
11
1.16742
21
0.495312
0
LINE
8
BLACK
6
CONTINUOUS
10
1.16742
20
0.495312
11
1.17228
21
0.496083
0
LINE
8
BLACK
6
CONTINUOUS
10
1.17228
20
0.496083
11
1.20772
21
0.496083
0
LINE
8
BLACK
6
CONTINUOUS
10
1.20772
20
0.496083
11
1.21258
21
0.495312
0
LINE
8
BLACK
6
CONTINUOUS
10
1.11357
20
0.49482
11
1.11796
21
0.492583
0
LINE
8
BLACK
6
CONTINUOUS
10
1.11796
20
0.492583
11
1.12144
21
0.489099
0
LINE
8
BLACK
6
CONTINUOUS
10
1.12144
20
0.489099
11
1.12368
21
0.484709
0
LINE
8
BLACK
6
CONTINUOUS
10
1.12368
20
0.484709
11
1.12445
21
0.479843
0
LINE
8
BLACK
6
CONTINUOUS
10
1.12445
20
0.479843
11
1.12445
21
0.460157
0
LINE
8
BLACK
6
CONTINUOUS
10
1.12445
20
0.460157
11
1.12368
21
0.455291
0
LINE
8
BLACK
6
CONTINUOUS
10
1.12368
20
0.455291
11
1.12144
21
0.450901
0
LINE
8
BLACK
6
CONTINUOUS
10
1.12144
20
0.450901
11
1.11796
21
0.447417
0
LINE
8
BLACK
6
CONTINUOUS
10
1.11796
20
0.447417
11
1.11357
21
0.44518
0
LINE
8
BLACK
6
CONTINUOUS
10
1.11357
20
0.44518
11
1.1087
21
0.444409
0
LINE
8
BLACK
6
CONTINUOUS
10
1.1087
20
0.444409
11
1.0713
21
0.444409
0
LINE
8
BLACK
6
CONTINUOUS
10
1.0713
20
0.444409
11
1.06643
21
0.44518
0
LINE
8
BLACK
6
CONTINUOUS
10
1.06643
20
0.44518
11
1.06204
21
0.447417
0
LINE
8
BLACK
6
CONTINUOUS
10
1.06204
20
0.447417
11
1.05856
21
0.450901
0
LINE
8
BLACK
6
CONTINUOUS
10
1.05856
20
0.450901
11
1.05632
21
0.455291
0
LINE
8
BLACK
6
CONTINUOUS
10
1.05632
20
0.455291
11
1.05555
21
0.460157
0
LINE
8
BLACK
6
CONTINUOUS
10
1.05555
20
0.460157
11
1.05555
21
0.479843
0
LINE
8
BLACK
6
CONTINUOUS
10
1.05555
20
0.479843
11
1.05632
21
0.484709
0
LINE
8
BLACK
6
CONTINUOUS
10
1.05632
20
0.484709
11
1.05856
21
0.489099
0
LINE
8
BLACK
6
CONTINUOUS
10
1.05856
20
0.489099
11
1.06204
21
0.492583
0
LINE
8
BLACK
6
CONTINUOUS
10
1.06204
20
0.492583
11
1.06643
21
0.49482
0
LINE
8
BLACK
6
CONTINUOUS
10
1.06643
20
0.49482
11
1.0713
21
0.495591
0
LINE
8
BLACK
6
CONTINUOUS
10
1.0713
20
0.495591
11
1.1087
21
0.495591
0
LINE
8
BLACK
6
CONTINUOUS
10
1.1087
20
0.495591
11
1.11357
21
0.49482
0
LINE
8
BLACK
6
CONTINUOUS
10
0.919318
20
0.526495
11
0.922511
21
0.524361
0
LINE
8
BLACK
6
CONTINUOUS
10
0.922511
20
0.524361
11
0.924409
21
0.52152
0
LINE
8
BLACK
6
CONTINUOUS
10
0.924409
20
0.52152
11
0.926308
21
0.524361
0
LINE
8
BLACK
6
CONTINUOUS
10
0.926308
20
0.524361
11
0.929501
21
0.526495
0
LINE
8
BLACK
6
CONTINUOUS
10
0.929501
20
0.526495
11
0.933268
21
0.527244
0
LINE
8
BLACK
6
CONTINUOUS
10
0.933268
20
0.527244
11
0.941142
21
0.527244
0
LINE
8
BLACK
6
CONTINUOUS
10
0.941142
20
0.527244
11
0.944908
21
0.526495
0
LINE
8
BLACK
6
CONTINUOUS
10
0.944908
20
0.526495
11
0.948101
21
0.524361
0
LINE
8
BLACK
6
CONTINUOUS
10
0.948101
20
0.524361
11
0.95
21
0.52152
0
LINE
8
BLACK
6
CONTINUOUS
10
0.95
20
0.52152
11
0.951899
21
0.524361
0
LINE
8
BLACK
6
CONTINUOUS
10
0.951899
20
0.524361
11
0.955092
21
0.526495
0
LINE
8
BLACK
6
CONTINUOUS
10
0.955092
20
0.526495
11
0.958858
21
0.527244
0
LINE
8
BLACK
6
CONTINUOUS
10
0.958858
20
0.527244
11
0.966732
21
0.527244
0
LINE
8
BLACK
6
CONTINUOUS
10
0.966732
20
0.527244
11
0.970499
21
0.526495
0
LINE
8
BLACK
6
CONTINUOUS
10
0.970499
20
0.526495
11
0.973692
21
0.524361
0
LINE
8
BLACK
6
CONTINUOUS
10
0.973692
20
0.524361
11
0.975591
21
0.52152
0
LINE
8
BLACK
6
CONTINUOUS
10
0.975591
20
0.52152
11
0.977489
21
0.524361
0
LINE
8
BLACK
6
CONTINUOUS
10
0.977489
20
0.524361
11
0.980682
21
0.526495
0
LINE
8
BLACK
6
CONTINUOUS
10
0.980682
20
0.526495
11
0.984449
21
0.527244
0
LINE
8
BLACK
6
CONTINUOUS
10
0.984449
20
0.527244
11
0.992323
21
0.527244
0
LINE
8
BLACK
6
CONTINUOUS
10
0.992323
20
0.527244
11
0.996089
21
0.526495
0
LINE
8
BLACK
6
CONTINUOUS
10
0.996089
20
0.526495
11
0.999283
21
0.524361
0
LINE
8
BLACK
6
CONTINUOUS
10
0.999283
20
0.524361
11
1.00142
21
0.521168
0
LINE
8
BLACK
6
CONTINUOUS
10
1.00142
20
0.521168
11
1.00217
21
0.517402
0
LINE
8
BLACK
6
CONTINUOUS
10
1.00217
20
0.517402
11
1.00217
21
0.467205
0
LINE
8
BLACK
6
CONTINUOUS
10
1.00217
20
0.467205
11
1.00142
21
0.463438
0
LINE
8
BLACK
6
CONTINUOUS
10
1.00142
20
0.463438
11
0.999283
21
0.460245
0
LINE
8
BLACK
6
CONTINUOUS
10
0.999283
20
0.460245
11
0.996089
21
0.458111
0
LINE
8
BLACK
6
CONTINUOUS
10
0.996089
20
0.458111
11
0.992323
21
0.457362
0
LINE
8
BLACK
6
CONTINUOUS
10
0.992323
20
0.457362
11
0.984449
21
0.457362
0
LINE
8
BLACK
6
CONTINUOUS
10
0.984449
20
0.457362
11
0.980682
21
0.458111
0
LINE
8
BLACK
6
CONTINUOUS
10
0.980682
20
0.458111
11
0.977489
21
0.460245
0
LINE
8
BLACK
6
CONTINUOUS
10
0.977489
20
0.460245
11
0.975591
21
0.463086
0
LINE
8
BLACK
6
CONTINUOUS
10
0.975591
20
0.463086
11
0.973692
21
0.460245
0
LINE
8
BLACK
6
CONTINUOUS
10
0.973692
20
0.460245
11
0.970499
21
0.458111
0
LINE
8
BLACK
6
CONTINUOUS
10
0.970499
20
0.458111
11
0.966732
21
0.457362
0
LINE
8
BLACK
6
CONTINUOUS
10
0.966732
20
0.457362
11
0.958858
21
0.457362
0
LINE
8
BLACK
6
CONTINUOUS
10
0.958858
20
0.457362
11
0.955092
21
0.458111
0
LINE
8
BLACK
6
CONTINUOUS
10
0.955092
20
0.458111
11
0.951899
21
0.460245
0
LINE
8
BLACK
6
CONTINUOUS
10
0.951899
20
0.460245
11
0.95
21
0.463086
0
LINE
8
BLACK
6
CONTINUOUS
10
0.95
20
0.463086
11
0.948101
21
0.460245
0
LINE
8
BLACK
6
CONTINUOUS
10
0.948101
20
0.460245
11
0.944908
21
0.458111
0
LINE
8
BLACK
6
CONTINUOUS
10
0.944908
20
0.458111
11
0.941142
21
0.457362
0
LINE
8
BLACK
6
CONTINUOUS
10
0.941142
20
0.457362
11
0.933268
21
0.457362
0
LINE
8
BLACK
6
CONTINUOUS
10
0.933268
20
0.457362
11
0.929501
21
0.458111
0
LINE
8
BLACK
6
CONTINUOUS
10
0.929501
20
0.458111
11
0.926308
21
0.460245
0
LINE
8
BLACK
6
CONTINUOUS
10
0.926308
20
0.460245
11
0.924409
21
0.463086
0
LINE
8
BLACK
6
CONTINUOUS
10
0.924409
20
0.463086
11
0.922511
21
0.460245
0
LINE
8
BLACK
6
CONTINUOUS
10
0.922511
20
0.460245
11
0.919318
21
0.458111
0
LINE
8
BLACK
6
CONTINUOUS
10
0.919318
20
0.458111
11
0.915551
21
0.457362
0
LINE
8
BLACK
6
CONTINUOUS
10
0.915551
20
0.457362
11
0.907677
21
0.457362
0
LINE
8
BLACK
6
CONTINUOUS
10
0.907677
20
0.457362
11
0.903911
21
0.458111
0
LINE
8
BLACK
6
CONTINUOUS
10
0.903911
20
0.458111
11
0.900717
21
0.460245
0
LINE
8
BLACK
6
CONTINUOUS
10
0.900717
20
0.460245
11
0.898584
21
0.463438
0
LINE
8
BLACK
6
CONTINUOUS
10
0.898584
20
0.463438
11
0.897835
21
0.467205
0
LINE
8
BLACK
6
CONTINUOUS
10
0.897835
20
0.467205
11
0.897835
21
0.517402
0
LINE
8
BLACK
6
CONTINUOUS
10
0.897835
20
0.517402
11
0.898584
21
0.521168
0
LINE
8
BLACK
6
CONTINUOUS
10
0.898584
20
0.521168
11
0.900717
21
0.524361
0
LINE
8
BLACK
6
CONTINUOUS
10
0.900717
20
0.524361
11
0.903911
21
0.526495
0
LINE
8
BLACK
6
CONTINUOUS
10
0.903911
20
0.526495
11
0.907677
21
0.527244
0
LINE
8
BLACK
6
CONTINUOUS
10
0.907677
20
0.527244
11
0.915551
21
0.527244
0
LINE
8
BLACK
6
CONTINUOUS
10
0.915551
20
0.527244
11
0.919318
21
0.526495
0
LINE
8
BLACK
6
CONTINUOUS
10
0.807583
20
0.512162
11
0.811973
21
0.509925
0
LINE
8
BLACK
6
CONTINUOUS
10
0.811973
20
0.509925
11
0.815457
21
0.506441
0
LINE
8
BLACK
6
CONTINUOUS
10
0.815457
20
0.506441
11
0.817694
21
0.502051
0
LINE
8
BLACK
6
CONTINUOUS
10
0.817694
20
0.502051
11
0.818465
21
0.497185
0
LINE
8
BLACK
6
CONTINUOUS
10
0.818465
20
0.497185
11
0.818465
21
0.476516
0
LINE
8
BLACK
6
CONTINUOUS
10
0.818465
20
0.476516
11
0.817694
21
0.471649
0
LINE
8
BLACK
6
CONTINUOUS
10
0.817694
20
0.471649
11
0.815457
21
0.467259
0
LINE
8
BLACK
6
CONTINUOUS
10
0.815457
20
0.467259
11
0.811973
21
0.463775
0
LINE
8
BLACK
6
CONTINUOUS
10
0.811973
20
0.463775
11
0.807583
21
0.461538
0
LINE
8
BLACK
6
CONTINUOUS
10
0.807583
20
0.461538
11
0.802717
21
0.460768
0
LINE
8
BLACK
6
CONTINUOUS
10
0.802717
20
0.460768
11
0.767283
21
0.460768
0
LINE
8
BLACK
6
CONTINUOUS
10
0.767283
20
0.460768
11
0.762417
21
0.461538
0
LINE
8
BLACK
6
CONTINUOUS
10
0.762417
20
0.461538
11
0.758027
21
0.463775
0
LINE
8
BLACK
6
CONTINUOUS
10
0.758027
20
0.463775
11
0.754543
21
0.467259
0
LINE
8
BLACK
6
CONTINUOUS
10
0.754543
20
0.467259
11
0.752306
21
0.471649
0
LINE
8
BLACK
6
CONTINUOUS
10
0.752306
20
0.471649
11
0.751535
21
0.476516
0
LINE
8
BLACK
6
CONTINUOUS
10
0.751535
20
0.476516
11
0.751535
21
0.497185
0
LINE
8
BLACK
6
CONTINUOUS
10
0.751535
20
0.497185
11
0.752306
21
0.502051
0
LINE
8
BLACK
6
CONTINUOUS
10
0.752306
20
0.502051
11
0.754543
21
0.506441
0
LINE
8
BLACK
6
CONTINUOUS
10
0.754543
20
0.506441
11
0.758027
21
0.509925
0
LINE
8
BLACK
6
CONTINUOUS
10
0.758027
20
0.509925
11
0.762417
21
0.512162
0
LINE
8
BLACK
6
CONTINUOUS
10
0.762417
20
0.512162
11
0.767283
21
0.512933
0
LINE
8
BLACK
6
CONTINUOUS
10
0.767283
20
0.512933
11
0.802717
21
0.512933
0
LINE
8
BLACK
6
CONTINUOUS
10
0.802717
20
0.512933
11
0.807583
21
0.512162
0
LINE
8
BLACK
6
CONTINUOUS
10
1.21258
20
0.567162
11
1.21697
21
0.564925
0
LINE
8
BLACK
6
CONTINUOUS
10
1.21697
20
0.564925
11
1.22046
21
0.561441
0
LINE
8
BLACK
6
CONTINUOUS
10
1.22046
20
0.561441
11
1.22269
21
0.557051
0
LINE
8
BLACK
6
CONTINUOUS
10
1.22269
20
0.557051
11
1.22346
21
0.552185
0
LINE
8
BLACK
6
CONTINUOUS
10
1.22346
20
0.552185
11
1.22346
21
0.531516
0
LINE
8
BLACK
6
CONTINUOUS
10
1.22346
20
0.531516
11
1.22269
21
0.526649
0
LINE
8
BLACK
6
CONTINUOUS
10
1.22269
20
0.526649
11
1.22046
21
0.522259
0
LINE
8
BLACK
6
CONTINUOUS
10
1.22046
20
0.522259
11
1.21697
21
0.518775
0
LINE
8
BLACK
6
CONTINUOUS
10
1.21697
20
0.518775
11
1.21258
21
0.516538
0
LINE
8
BLACK
6
CONTINUOUS
10
1.21258
20
0.516538
11
1.20772
21
0.515768
0
LINE
8
BLACK
6
CONTINUOUS
10
1.20772
20
0.515768
11
1.17228
21
0.515768
0
LINE
8
BLACK
6
CONTINUOUS
10
1.17228
20
0.515768
11
1.16742
21
0.516538
0
LINE
8
BLACK
6
CONTINUOUS
10
1.16742
20
0.516538
11
1.16303
21
0.518775
0
LINE
8
BLACK
6
CONTINUOUS
10
1.16303
20
0.518775
11
1.15954
21
0.522259
0
LINE
8
BLACK
6
CONTINUOUS
10
1.15954
20
0.522259
11
1.15731
21
0.526649
0
LINE
8
BLACK
6
CONTINUOUS
10
1.15731
20
0.526649
11
1.15654
21
0.531516
0
LINE
8
BLACK
6
CONTINUOUS
10
1.15654
20
0.531516
11
1.15654
21
0.552185
0
LINE
8
BLACK
6
CONTINUOUS
10
1.15654
20
0.552185
11
1.15731
21
0.557051
0
LINE
8
BLACK
6
CONTINUOUS
10
1.15731
20
0.557051
11
1.15954
21
0.561441
0
LINE
8
BLACK
6
CONTINUOUS
10
1.15954
20
0.561441
11
1.16303
21
0.564925
0
LINE
8
BLACK
6
CONTINUOUS
10
1.16303
20
0.564925
11
1.16742
21
0.567162
0
LINE
8
BLACK
6
CONTINUOUS
10
1.16742
20
0.567162
11
1.17228
21
0.567933
0
LINE
8
BLACK
6
CONTINUOUS
10
1.17228
20
0.567933
11
1.20772
21
0.567933
0
LINE
8
BLACK
6
CONTINUOUS
10
1.20772
20
0.567933
11
1.21258
21
0.567162
0
LINE
8
BLACK
6
CONTINUOUS
10
1.11357
20
0.569623
11
1.11796
21
0.567386
0
LINE
8
BLACK
6
CONTINUOUS
10
1.11796
20
0.567386
11
1.12144
21
0.563902
0
LINE
8
BLACK
6
CONTINUOUS
10
1.12144
20
0.563902
11
1.12368
21
0.559512
0
LINE
8
BLACK
6
CONTINUOUS
10
1.12368
20
0.559512
11
1.12445
21
0.554646
0
LINE
8
BLACK
6
CONTINUOUS
10
1.12445
20
0.554646
11
1.12445
21
0.534961
0
LINE
8
BLACK
6
CONTINUOUS
10
1.12445
20
0.534961
11
1.12368
21
0.530094
0
LINE
8
BLACK
6
CONTINUOUS
10
1.12368
20
0.530094
11
1.12144
21
0.525704
0
LINE
8
BLACK
6
CONTINUOUS
10
1.12144
20
0.525704
11
1.11796
21
0.52222
0
LINE
8
BLACK
6
CONTINUOUS
10
1.11796
20
0.52222
11
1.11357
21
0.519983
0
LINE
8
BLACK
6
CONTINUOUS
10
1.11357
20
0.519983
11
1.1087
21
0.519213
0
LINE
8
BLACK
6
CONTINUOUS
10
1.1087
20
0.519213
11
1.0713
21
0.519213
0
LINE
8
BLACK
6
CONTINUOUS
10
1.0713
20
0.519213
11
1.06643
21
0.519983
0
LINE
8
BLACK
6
CONTINUOUS
10
1.06643
20
0.519983
11
1.06204
21
0.52222
0
LINE
8
BLACK
6
CONTINUOUS
10
1.06204
20
0.52222
11
1.05856
21
0.525704
0
LINE
8
BLACK
6
CONTINUOUS
10
1.05856
20
0.525704
11
1.05632
21
0.530094
0
LINE
8
BLACK
6
CONTINUOUS
10
1.05632
20
0.530094
11
1.05555
21
0.534961
0
LINE
8
BLACK
6
CONTINUOUS
10
1.05555
20
0.534961
11
1.05555
21
0.554646
0
LINE
8
BLACK
6
CONTINUOUS
10
1.05555
20
0.554646
11
1.05632
21
0.559512
0
LINE
8
BLACK
6
CONTINUOUS
10
1.05632
20
0.559512
11
1.05856
21
0.563902
0
LINE
8
BLACK
6
CONTINUOUS
10
1.05856
20
0.563902
11
1.06204
21
0.567386
0
LINE
8
BLACK
6
CONTINUOUS
10
1.06204
20
0.567386
11
1.06643
21
0.569623
0
LINE
8
BLACK
6
CONTINUOUS
10
1.06643
20
0.569623
11
1.0713
21
0.570394
0
LINE
8
BLACK
6
CONTINUOUS
10
1.0713
20
0.570394
11
1.1087
21
0.570394
0
LINE
8
BLACK
6
CONTINUOUS
10
1.1087
20
0.570394
11
1.11357
21
0.569623
0
LINE
8
BLACK
6
CONTINUOUS
10
1.38146
20
0.675056
11
1.38338
21
0.673776
0
LINE
8
BLACK
6
CONTINUOUS
10
1.38338
20
0.673776
11
1.38466
21
0.67186
0
LINE
8
BLACK
6
CONTINUOUS
10
1.38466
20
0.67186
11
1.38511
21
0.6696
0
LINE
8
BLACK
6
CONTINUOUS
10
1.38511
20
0.6696
11
1.38511
21
0.5692
0
LINE
8
BLACK
6
CONTINUOUS
10
1.38511
20
0.5692
11
1.38466
21
0.56694
0
LINE
8
BLACK
6
CONTINUOUS
10
1.38466
20
0.56694
11
1.38338
21
0.565024
0
LINE
8
BLACK
6
CONTINUOUS
10
1.38338
20
0.565024
11
1.38146
21
0.563744
0
LINE
8
BLACK
6
CONTINUOUS
10
1.38146
20
0.563744
11
1.3792
21
0.563294
0
LINE
8
BLACK
6
CONTINUOUS
10
1.3792
20
0.563294
11
1.2808
21
0.563294
0
LINE
8
BLACK
6
CONTINUOUS
10
1.2808
20
0.563294
11
1.27854
21
0.563744
0
LINE
8
BLACK
6
CONTINUOUS
10
1.27854
20
0.563744
11
1.27662
21
0.565024
0
LINE
8
BLACK
6
CONTINUOUS
10
1.27662
20
0.565024
11
1.27534
21
0.56694
0
LINE
8
BLACK
6
CONTINUOUS
10
1.27534
20
0.56694
11
1.27489
21
0.5692
0
LINE
8
BLACK
6
CONTINUOUS
10
1.27489
20
0.5692
11
1.27489
21
0.6696
0
LINE
8
BLACK
6
CONTINUOUS
10
1.27489
20
0.6696
11
1.27534
21
0.67186
0
LINE
8
BLACK
6
CONTINUOUS
10
1.27534
20
0.67186
11
1.27662
21
0.673776
0
LINE
8
BLACK
6
CONTINUOUS
10
1.27662
20
0.673776
11
1.27854
21
0.675056
0
LINE
8
BLACK
6
CONTINUOUS
10
1.27854
20
0.675056
11
1.2808
21
0.675506
0
LINE
8
BLACK
6
CONTINUOUS
10
1.2808
20
0.675506
11
1.3792
21
0.675506
0
LINE
8
BLACK
6
CONTINUOUS
10
1.3792
20
0.675506
11
1.38146
21
0.675056
0
LINE
8
BLACK
6
CONTINUOUS
10
0.752583
20
0.643462
11
0.756973
21
0.641225
0
LINE
8
BLACK
6
CONTINUOUS
10
0.756973
20
0.641225
11
0.760457
21
0.637741
0
LINE
8
BLACK
6
CONTINUOUS
10
0.760457
20
0.637741
11
0.762694
21
0.633351
0
LINE
8
BLACK
6
CONTINUOUS
10
0.762694
20
0.633351
11
0.763465
21
0.628484
0
LINE
8
BLACK
6
CONTINUOUS
10
0.763465
20
0.628484
11
0.763465
21
0.607815
0
LINE
8
BLACK
6
CONTINUOUS
10
0.763465
20
0.607815
11
0.762694
21
0.602949
0
LINE
8
BLACK
6
CONTINUOUS
10
0.762694
20
0.602949
11
0.760457
21
0.598559
0
LINE
8
BLACK
6
CONTINUOUS
10
0.760457
20
0.598559
11
0.756973
21
0.595075
0
LINE
8
BLACK
6
CONTINUOUS
10
0.756973
20
0.595075
11
0.752583
21
0.592838
0
LINE
8
BLACK
6
CONTINUOUS
10
0.752583
20
0.592838
11
0.747717
21
0.592067
0
LINE
8
BLACK
6
CONTINUOUS
10
0.747717
20
0.592067
11
0.712283
21
0.592067
0
LINE
8
BLACK
6
CONTINUOUS
10
0.712283
20
0.592067
11
0.707417
21
0.592838
0
LINE
8
BLACK
6
CONTINUOUS
10
0.707417
20
0.592838
11
0.703027
21
0.595075
0
LINE
8
BLACK
6
CONTINUOUS
10
0.703027
20
0.595075
11
0.699543
21
0.598559
0
LINE
8
BLACK
6
CONTINUOUS
10
0.699543
20
0.598559
11
0.697306
21
0.602949
0
LINE
8
BLACK
6
CONTINUOUS
10
0.697306
20
0.602949
11
0.696535
21
0.607815
0
LINE
8
BLACK
6
CONTINUOUS
10
0.696535
20
0.607815
11
0.696535
21
0.628484
0
LINE
8
BLACK
6
CONTINUOUS
10
0.696535
20
0.628484
11
0.697306
21
0.633351
0
LINE
8
BLACK
6
CONTINUOUS
10
0.697306
20
0.633351
11
0.699543
21
0.637741
0
LINE
8
BLACK
6
CONTINUOUS
10
0.699543
20
0.637741
11
0.703027
21
0.641225
0
LINE
8
BLACK
6
CONTINUOUS
10
0.703027
20
0.641225
11
0.707417
21
0.643462
0
LINE
8
BLACK
6
CONTINUOUS
10
0.707417
20
0.643462
11
0.712283
21
0.644232
0
LINE
8
BLACK
6
CONTINUOUS
10
0.712283
20
0.644232
11
0.747717
21
0.644232
0
LINE
8
BLACK
6
CONTINUOUS
10
0.747717
20
0.644232
11
0.752583
21
0.643462
0
LINE
8
BLACK
6
CONTINUOUS
10
0.48726
20
0.775456
11
0.489176
21
0.774176
0
LINE
8
BLACK
6
CONTINUOUS
10
0.489176
20
0.774176
11
0.490456
21
0.77226
0
LINE
8
BLACK
6
CONTINUOUS
10
0.490456
20
0.77226
11
0.490906
21
0.77
0
LINE
8
BLACK
6
CONTINUOUS
10
0.490906
20
0.77
11
0.490906
21
0.62
0
LINE
8
BLACK
6
CONTINUOUS
10
0.490906
20
0.62
11
0.490456
21
0.61774
0
LINE
8
BLACK
6
CONTINUOUS
10
0.490456
20
0.61774
11
0.489176
21
0.615824
0
LINE
8
BLACK
6
CONTINUOUS
10
0.489176
20
0.615824
11
0.48726
21
0.614544
0
LINE
8
BLACK
6
CONTINUOUS
10
0.48726
20
0.614544
11
0.485
21
0.614094
0
LINE
8
BLACK
6
CONTINUOUS
10
0.485
20
0.614094
11
0.335
21
0.614094
0
LINE
8
BLACK
6
CONTINUOUS
10
0.335
20
0.614094
11
0.33274
21
0.614544
0
LINE
8
BLACK
6
CONTINUOUS
10
0.33274
20
0.614544
11
0.330824
21
0.615824
0
LINE
8
BLACK
6
CONTINUOUS
10
0.330824
20
0.615824
11
0.329544
21
0.61774
0
LINE
8
BLACK
6
CONTINUOUS
10
0.329544
20
0.61774
11
0.329094
21
0.62
0
LINE
8
BLACK
6
CONTINUOUS
10
0.329094
20
0.62
11
0.329094
21
0.77
0
LINE
8
BLACK
6
CONTINUOUS
10
0.329094
20
0.77
11
0.329544
21
0.77226
0
LINE
8
BLACK
6
CONTINUOUS
10
0.329544
20
0.77226
11
0.330824
21
0.774176
0
LINE
8
BLACK
6
CONTINUOUS
10
0.330824
20
0.774176
11
0.33274
21
0.775456
0
LINE
8
BLACK
6
CONTINUOUS
10
0.33274
20
0.775456
11
0.335
21
0.775906
0
LINE
8
BLACK
6
CONTINUOUS
10
0.335
20
0.775906
11
0.485
21
0.775906
0
LINE
8
BLACK
6
CONTINUOUS
10
0.485
20
0.775906
11
0.48726
21
0.775456
0
LINE
8
BLACK
6
CONTINUOUS
10
0.29041
20
0.775456
11
0.292325
21
0.774176
0
LINE
8
BLACK
6
CONTINUOUS
10
0.292325
20
0.774176
11
0.293606
21
0.77226
0
LINE
8
BLACK
6
CONTINUOUS
10
0.293606
20
0.77226
11
0.294055
21
0.77
0
LINE
8
BLACK
6
CONTINUOUS
10
0.294055
20
0.77
11
0.294055
21
0.62
0
LINE
8
BLACK
6
CONTINUOUS
10
0.294055
20
0.62
11
0.293606
21
0.61774
0
LINE
8
BLACK
6
CONTINUOUS
10
0.293606
20
0.61774
11
0.292325
21
0.615824
0
LINE
8
BLACK
6
CONTINUOUS
10
0.292325
20
0.615824
11
0.29041
21
0.614544
0
LINE
8
BLACK
6
CONTINUOUS
10
0.29041
20
0.614544
11
0.28815
21
0.614094
0
LINE
8
BLACK
6
CONTINUOUS
10
0.28815
20
0.614094
11
0.13815
21
0.614094
0
LINE
8
BLACK
6
CONTINUOUS
10
0.13815
20
0.614094
11
0.13589
21
0.614544
0
LINE
8
BLACK
6
CONTINUOUS
10
0.13589
20
0.614544
11
0.133974
21
0.615824
0
LINE
8
BLACK
6
CONTINUOUS
10
0.133974
20
0.615824
11
0.132694
21
0.61774
0
LINE
8
BLACK
6
CONTINUOUS
10
0.132694
20
0.61774
11
0.132244
21
0.62
0
LINE
8
BLACK
6
CONTINUOUS
10
0.132244
20
0.62
11
0.132244
21
0.77
0
LINE
8
BLACK
6
CONTINUOUS
10
0.132244
20
0.77
11
0.132694
21
0.77226
0
LINE
8
BLACK
6
CONTINUOUS
10
0.132694
20
0.77226
11
0.133974
21
0.774176
0
LINE
8
BLACK
6
CONTINUOUS
10
0.133974
20
0.774176
11
0.13589
21
0.775456
0
LINE
8
BLACK
6
CONTINUOUS
10
0.13589
20
0.775456
11
0.13815
21
0.775906
0
LINE
8
BLACK
6
CONTINUOUS
10
0.13815
20
0.775906
11
0.28815
21
0.775906
0
LINE
8
BLACK
6
CONTINUOUS
10
0.28815
20
0.775906
11
0.29041
21
0.775456
0
LINE
8
BLACK
6
CONTINUOUS
10
1.20857
20
0.667418
11
1.21296
21
0.665181
0
LINE
8
BLACK
6
CONTINUOUS
10
1.21296
20
0.665181
11
1.21644
21
0.661697
0
LINE
8
BLACK
6
CONTINUOUS
10
1.21644
20
0.661697
11
1.21868
21
0.657307
0
LINE
8
BLACK
6
CONTINUOUS
10
1.21868
20
0.657307
11
1.21945
21
0.652441
0
LINE
8
BLACK
6
CONTINUOUS
10
1.21945
20
0.652441
11
1.21945
21
0.632756
0
LINE
8
BLACK
6
CONTINUOUS
10
1.21945
20
0.632756
11
1.21868
21
0.627889
0
LINE
8
BLACK
6
CONTINUOUS
10
1.21868
20
0.627889
11
1.21644
21
0.623499
0
LINE
8
BLACK
6
CONTINUOUS
10
1.21644
20
0.623499
11
1.21296
21
0.620015
0
LINE
8
BLACK
6
CONTINUOUS
10
1.21296
20
0.620015
11
1.20857
21
0.617779
0
LINE
8
BLACK
6
CONTINUOUS
10
1.20857
20
0.617779
11
1.2037
21
0.617008
0
LINE
8
BLACK
6
CONTINUOUS
10
1.2037
20
0.617008
11
1.1663
21
0.617008
0
LINE
8
BLACK
6
CONTINUOUS
10
1.1663
20
0.617008
11
1.16143
21
0.617779
0
LINE
8
BLACK
6
CONTINUOUS
10
1.16143
20
0.617779
11
1.15704
21
0.620015
0
LINE
8
BLACK
6
CONTINUOUS
10
1.15704
20
0.620015
11
1.15356
21
0.623499
0
LINE
8
BLACK
6
CONTINUOUS
10
1.15356
20
0.623499
11
1.15132
21
0.627889
0
LINE
8
BLACK
6
CONTINUOUS
10
1.15132
20
0.627889
11
1.15055
21
0.632756
0
LINE
8
BLACK
6
CONTINUOUS
10
1.15055
20
0.632756
11
1.15055
21
0.652441
0
LINE
8
BLACK
6
CONTINUOUS
10
1.15055
20
0.652441
11
1.15132
21
0.657307
0
LINE
8
BLACK
6
CONTINUOUS
10
1.15132
20
0.657307
11
1.15356
21
0.661697
0
LINE
8
BLACK
6
CONTINUOUS
10
1.15356
20
0.661697
11
1.15704
21
0.665181
0
LINE
8
BLACK
6
CONTINUOUS
10
1.15704
20
0.665181
11
1.16143
21
0.667418
0
LINE
8
BLACK
6
CONTINUOUS
10
1.16143
20
0.667418
11
1.1663
21
0.668189
0
LINE
8
BLACK
6
CONTINUOUS
10
1.1663
20
0.668189
11
1.2037
21
0.668189
0
LINE
8
BLACK
6
CONTINUOUS
10
1.2037
20
0.668189
11
1.20857
21
0.667418
0
LINE
8
BLACK
6
CONTINUOUS
10
1.11357
20
0.66982
11
1.11796
21
0.667583
0
LINE
8
BLACK
6
CONTINUOUS
10
1.11796
20
0.667583
11
1.12144
21
0.664099
0
LINE
8
BLACK
6
CONTINUOUS
10
1.12144
20
0.664099
11
1.12368
21
0.659709
0
LINE
8
BLACK
6
CONTINUOUS
10
1.12368
20
0.659709
11
1.12445
21
0.654843
0
LINE
8
BLACK
6
CONTINUOUS
10
1.12445
20
0.654843
11
1.12445
21
0.635157
0
LINE
8
BLACK
6
CONTINUOUS
10
1.12445
20
0.635157
11
1.12368
21
0.630291
0
LINE
8
BLACK
6
CONTINUOUS
10
1.12368
20
0.630291
11
1.12144
21
0.625901
0
LINE
8
BLACK
6
CONTINUOUS
10
1.12144
20
0.625901
11
1.11796
21
0.622417
0
LINE
8
BLACK
6
CONTINUOUS
10
1.11796
20
0.622417
11
1.11357
21
0.62018
0
LINE
8
BLACK
6
CONTINUOUS
10
1.11357
20
0.62018
11
1.1087
21
0.619409
0
LINE
8
BLACK
6
CONTINUOUS
10
1.1087
20
0.619409
11
1.0713
21
0.619409
0
LINE
8
BLACK
6
CONTINUOUS
10
1.0713
20
0.619409
11
1.06643
21
0.62018
0
LINE
8
BLACK
6
CONTINUOUS
10
1.06643
20
0.62018
11
1.06204
21
0.622417
0
LINE
8
BLACK
6
CONTINUOUS
10
1.06204
20
0.622417
11
1.05856
21
0.625901
0
LINE
8
BLACK
6
CONTINUOUS
10
1.05856
20
0.625901
11
1.05632
21
0.630291
0
LINE
8
BLACK
6
CONTINUOUS
10
1.05632
20
0.630291
11
1.05555
21
0.635157
0
LINE
8
BLACK
6
CONTINUOUS
10
1.05555
20
0.635157
11
1.05555
21
0.654843
0
LINE
8
BLACK
6
CONTINUOUS
10
1.05555
20
0.654843
11
1.05632
21
0.659709
0
LINE
8
BLACK
6
CONTINUOUS
10
1.05632
20
0.659709
11
1.05856
21
0.664099
0
LINE
8
BLACK
6
CONTINUOUS
10
1.05856
20
0.664099
11
1.06204
21
0.667583
0
LINE
8
BLACK
6
CONTINUOUS
10
1.06204
20
0.667583
11
1.06643
21
0.66982
0
LINE
8
BLACK
6
CONTINUOUS
10
1.06643
20
0.66982
11
1.0713
21
0.670591
0
LINE
8
BLACK
6
CONTINUOUS
10
1.0713
20
0.670591
11
1.1087
21
0.670591
0
LINE
8
BLACK
6
CONTINUOUS
10
1.1087
20
0.670591
11
1.11357
21
0.66982
0
LINE
8
BLACK
6
CONTINUOUS
10
0.64146
20
0.756256
11
0.643376
21
0.754976
0
LINE
8
BLACK
6
CONTINUOUS
10
0.643376
20
0.754976
11
0.644656
21
0.75306
0
LINE
8
BLACK
6
CONTINUOUS
10
0.644656
20
0.75306
11
0.645106
21
0.7508
0
LINE
8
BLACK
6
CONTINUOUS
10
0.645106
20
0.7508
11
0.645106
21
0.6504
0
LINE
8
BLACK
6
CONTINUOUS
10
0.645106
20
0.6504
11
0.644656
21
0.64814
0
LINE
8
BLACK
6
CONTINUOUS
10
0.644656
20
0.64814
11
0.643376
21
0.646224
0
LINE
8
BLACK
6
CONTINUOUS
10
0.643376
20
0.646224
11
0.64146
21
0.644944
0
LINE
8
BLACK
6
CONTINUOUS
10
0.64146
20
0.644944
11
0.6392
21
0.644494
0
LINE
8
BLACK
6
CONTINUOUS
10
0.6392
20
0.644494
11
0.5408
21
0.644494
0
LINE
8
BLACK
6
CONTINUOUS
10
0.5408
20
0.644494
11
0.53854
21
0.644944
0
LINE
8
BLACK
6
CONTINUOUS
10
0.53854
20
0.644944
11
0.536624
21
0.646224
0
LINE
8
BLACK
6
CONTINUOUS
10
0.536624
20
0.646224
11
0.535344
21
0.64814
0
LINE
8
BLACK
6
CONTINUOUS
10
0.535344
20
0.64814
11
0.534894
21
0.6504
0
LINE
8
BLACK
6
CONTINUOUS
10
0.534894
20
0.6504
11
0.534894
21
0.7508
0
LINE
8
BLACK
6
CONTINUOUS
10
0.534894
20
0.7508
11
0.535344
21
0.75306
0
LINE
8
BLACK
6
CONTINUOUS
10
0.535344
20
0.75306
11
0.536624
21
0.754976
0
LINE
8
BLACK
6
CONTINUOUS
10
0.536624
20
0.754976
11
0.53854
21
0.756256
0
LINE
8
BLACK
6
CONTINUOUS
10
0.53854
20
0.756256
11
0.5408
21
0.756706
0
LINE
8
BLACK
6
CONTINUOUS
10
0.5408
20
0.756706
11
0.6392
21
0.756706
0
LINE
8
BLACK
6
CONTINUOUS
10
0.6392
20
0.756706
11
0.64146
21
0.756256
0
LINE
8
BLACK
6
CONTINUOUS
10
0.843567
20
0.697418
11
0.847957
21
0.695181
0
LINE
8
BLACK
6
CONTINUOUS
10
0.847957
20
0.695181
11
0.851441
21
0.691697
0
LINE
8
BLACK
6
CONTINUOUS
10
0.851441
20
0.691697
11
0.853678
21
0.687307
0
LINE
8
BLACK
6
CONTINUOUS
10
0.853678
20
0.687307
11
0.854449
21
0.682441
0
LINE
8
BLACK
6
CONTINUOUS
10
0.854449
20
0.682441
11
0.854449
21
0.662756
0
LINE
8
BLACK
6
CONTINUOUS
10
0.854449
20
0.662756
11
0.853678
21
0.657889
0
LINE
8
BLACK
6
CONTINUOUS
10
0.853678
20
0.657889
11
0.851441
21
0.653499
0
LINE
8
BLACK
6
CONTINUOUS
10
0.851441
20
0.653499
11
0.847957
21
0.650015
0
LINE
8
BLACK
6
CONTINUOUS
10
0.847957
20
0.650015
11
0.843567
21
0.647779
0
LINE
8
BLACK
6
CONTINUOUS
10
0.843567
20
0.647779
11
0.838701
21
0.647008
0
LINE
8
BLACK
6
CONTINUOUS
10
0.838701
20
0.647008
11
0.801299
21
0.647008
0
LINE
8
BLACK
6
CONTINUOUS
10
0.801299
20
0.647008
11
0.796433
21
0.647779
0
LINE
8
BLACK
6
CONTINUOUS
10
0.796433
20
0.647779
11
0.792043
21
0.650015
0
LINE
8
BLACK
6
CONTINUOUS
10
0.792043
20
0.650015
11
0.788559
21
0.653499
0
LINE
8
BLACK
6
CONTINUOUS
10
0.788559
20
0.653499
11
0.786322
21
0.657889
0
LINE
8
BLACK
6
CONTINUOUS
10
0.786322
20
0.657889
11
0.785551
21
0.662756
0
LINE
8
BLACK
6
CONTINUOUS
10
0.785551
20
0.662756
11
0.785551
21
0.682441
0
LINE
8
BLACK
6
CONTINUOUS
10
0.785551
20
0.682441
11
0.786322
21
0.687307
0
LINE
8
BLACK
6
CONTINUOUS
10
0.786322
20
0.687307
11
0.788559
21
0.691697
0
LINE
8
BLACK
6
CONTINUOUS
10
0.788559
20
0.691697
11
0.792043
21
0.695181
0
LINE
8
BLACK
6
CONTINUOUS
10
0.792043
20
0.695181
11
0.796433
21
0.697418
0
LINE
8
BLACK
6
CONTINUOUS
10
0.796433
20
0.697418
11
0.801299
21
0.698189
0
LINE
8
BLACK
6
CONTINUOUS
10
0.801299
20
0.698189
11
0.838701
21
0.698189
0
LINE
8
BLACK
6
CONTINUOUS
10
0.838701
20
0.698189
11
0.843567
21
0.697418
0
LINE
8
BLACK
6
CONTINUOUS
10
0.752583
20
0.715312
11
0.756973
21
0.713075
0
LINE
8
BLACK
6
CONTINUOUS
10
0.756973
20
0.713075
11
0.760457
21
0.709591
0
LINE
8
BLACK
6
CONTINUOUS
10
0.760457
20
0.709591
11
0.762694
21
0.705201
0
LINE
8
BLACK
6
CONTINUOUS
10
0.762694
20
0.705201
11
0.763465
21
0.700335
0
LINE
8
BLACK
6
CONTINUOUS
10
0.763465
20
0.700335
11
0.763465
21
0.679665
0
LINE
8
BLACK
6
CONTINUOUS
10
0.763465
20
0.679665
11
0.762694
21
0.674799
0
LINE
8
BLACK
6
CONTINUOUS
10
0.762694
20
0.674799
11
0.760457
21
0.670409
0
LINE
8
BLACK
6
CONTINUOUS
10
0.760457
20
0.670409
11
0.756973
21
0.666925
0
LINE
8
BLACK
6
CONTINUOUS
10
0.756973
20
0.666925
11
0.752583
21
0.664688
0
LINE
8
BLACK
6
CONTINUOUS
10
0.752583
20
0.664688
11
0.747717
21
0.663917
0
LINE
8
BLACK
6
CONTINUOUS
10
0.747717
20
0.663917
11
0.712283
21
0.663917
0
LINE
8
BLACK
6
CONTINUOUS
10
0.712283
20
0.663917
11
0.707417
21
0.664688
0
LINE
8
BLACK
6
CONTINUOUS
10
0.707417
20
0.664688
11
0.703027
21
0.666925
0
LINE
8
BLACK
6
CONTINUOUS
10
0.703027
20
0.666925
11
0.699543
21
0.670409
0
LINE
8
BLACK
6
CONTINUOUS
10
0.699543
20
0.670409
11
0.697306
21
0.674799
0
LINE
8
BLACK
6
CONTINUOUS
10
0.697306
20
0.674799
11
0.696535
21
0.679665
0
LINE
8
BLACK
6
CONTINUOUS
10
0.696535
20
0.679665
11
0.696535
21
0.700335
0
LINE
8
BLACK
6
CONTINUOUS
10
0.696535
20
0.700335
11
0.697306
21
0.705201
0
LINE
8
BLACK
6
CONTINUOUS
10
0.697306
20
0.705201
11
0.699543
21
0.709591
0
LINE
8
BLACK
6
CONTINUOUS
10
0.699543
20
0.709591
11
0.703027
21
0.713075
0
LINE
8
BLACK
6
CONTINUOUS
10
0.703027
20
0.713075
11
0.707417
21
0.715312
0
LINE
8
BLACK
6
CONTINUOUS
10
0.707417
20
0.715312
11
0.712283
21
0.716083
0
LINE
8
BLACK
6
CONTINUOUS
10
0.712283
20
0.716083
11
0.747717
21
0.716083
0
LINE
8
BLACK
6
CONTINUOUS
10
0.747717
20
0.716083
11
0.752583
21
0.715312
0
LINE
8
BLACK
6
CONTINUOUS
10
0.919318
20
0.751889
11
0.922511
21
0.749755
0
LINE
8
BLACK
6
CONTINUOUS
10
0.922511
20
0.749755
11
0.924409
21
0.746914
0
LINE
8
BLACK
6
CONTINUOUS
10
0.924409
20
0.746914
11
0.926308
21
0.749755
0
LINE
8
BLACK
6
CONTINUOUS
10
0.926308
20
0.749755
11
0.929501
21
0.751889
0
LINE
8
BLACK
6
CONTINUOUS
10
0.929501
20
0.751889
11
0.933268
21
0.752638
0
LINE
8
BLACK
6
CONTINUOUS
10
0.933268
20
0.752638
11
0.941142
21
0.752638
0
LINE
8
BLACK
6
CONTINUOUS
10
0.941142
20
0.752638
11
0.944908
21
0.751889
0
LINE
8
BLACK
6
CONTINUOUS
10
0.944908
20
0.751889
11
0.948101
21
0.749755
0
LINE
8
BLACK
6
CONTINUOUS
10
0.948101
20
0.749755
11
0.95
21
0.746914
0
LINE
8
BLACK
6
CONTINUOUS
10
0.95
20
0.746914
11
0.951899
21
0.749755
0
LINE
8
BLACK
6
CONTINUOUS
10
0.951899
20
0.749755
11
0.955092
21
0.751889
0
LINE
8
BLACK
6
CONTINUOUS
10
0.955092
20
0.751889
11
0.958858
21
0.752638
0
LINE
8
BLACK
6
CONTINUOUS
10
0.958858
20
0.752638
11
0.966732
21
0.752638
0
LINE
8
BLACK
6
CONTINUOUS
10
0.966732
20
0.752638
11
0.970499
21
0.751889
0
LINE
8
BLACK
6
CONTINUOUS
10
0.970499
20
0.751889
11
0.973692
21
0.749755
0
LINE
8
BLACK
6
CONTINUOUS
10
0.973692
20
0.749755
11
0.975591
21
0.746914
0
LINE
8
BLACK
6
CONTINUOUS
10
0.975591
20
0.746914
11
0.977489
21
0.749755
0
LINE
8
BLACK
6
CONTINUOUS
10
0.977489
20
0.749755
11
0.980682
21
0.751889
0
LINE
8
BLACK
6
CONTINUOUS
10
0.980682
20
0.751889
11
0.984449
21
0.752638
0
LINE
8
BLACK
6
CONTINUOUS
10
0.984449
20
0.752638
11
0.992323
21
0.752638
0
LINE
8
BLACK
6
CONTINUOUS
10
0.992323
20
0.752638
11
0.996089
21
0.751889
0
LINE
8
BLACK
6
CONTINUOUS
10
0.996089
20
0.751889
11
0.999283
21
0.749755
0
LINE
8
BLACK
6
CONTINUOUS
10
0.999283
20
0.749755
11
1.00142
21
0.746562
0
LINE
8
BLACK
6
CONTINUOUS
10
1.00142
20
0.746562
11
1.00217
21
0.742795
0
LINE
8
BLACK
6
CONTINUOUS
10
1.00217
20
0.742795
11
1.00217
21
0.692598
0
LINE
8
BLACK
6
CONTINUOUS
10
1.00217
20
0.692598
11
1.00142
21
0.688832
0
LINE
8
BLACK
6
CONTINUOUS
10
1.00142
20
0.688832
11
0.999283
21
0.685639
0
LINE
8
BLACK
6
CONTINUOUS
10
0.999283
20
0.685639
11
0.996089
21
0.683505
0
LINE
8
BLACK
6
CONTINUOUS
10
0.996089
20
0.683505
11
0.992323
21
0.682756
0
LINE
8
BLACK
6
CONTINUOUS
10
0.992323
20
0.682756
11
0.984449
21
0.682756
0
LINE
8
BLACK
6
CONTINUOUS
10
0.984449
20
0.682756
11
0.980682
21
0.683505
0
LINE
8
BLACK
6
CONTINUOUS
10
0.980682
20
0.683505
11
0.977489
21
0.685639
0
LINE
8
BLACK
6
CONTINUOUS
10
0.977489
20
0.685639
11
0.975591
21
0.68848
0
LINE
8
BLACK
6
CONTINUOUS
10
0.975591
20
0.68848
11
0.973692
21
0.685639
0
LINE
8
BLACK
6
CONTINUOUS
10
0.973692
20
0.685639
11
0.970499
21
0.683505
0
LINE
8
BLACK
6
CONTINUOUS
10
0.970499
20
0.683505
11
0.966732
21
0.682756
0
LINE
8
BLACK
6
CONTINUOUS
10
0.966732
20
0.682756
11
0.958858
21
0.682756
0
LINE
8
BLACK
6
CONTINUOUS
10
0.958858
20
0.682756
11
0.955092
21
0.683505
0
LINE
8
BLACK
6
CONTINUOUS
10
0.955092
20
0.683505
11
0.951899
21
0.685639
0
LINE
8
BLACK
6
CONTINUOUS
10
0.951899
20
0.685639
11
0.95
21
0.68848
0
LINE
8
BLACK
6
CONTINUOUS
10
0.95
20
0.68848
11
0.948101
21
0.685639
0
LINE
8
BLACK
6
CONTINUOUS
10
0.948101
20
0.685639
11
0.944908
21
0.683505
0
LINE
8
BLACK
6
CONTINUOUS
10
0.944908
20
0.683505
11
0.941142
21
0.682756
0
LINE
8
BLACK
6
CONTINUOUS
10
0.941142
20
0.682756
11
0.933268
21
0.682756
0
LINE
8
BLACK
6
CONTINUOUS
10
0.933268
20
0.682756
11
0.929501
21
0.683505
0
LINE
8
BLACK
6
CONTINUOUS
10
0.929501
20
0.683505
11
0.926308
21
0.685639
0
LINE
8
BLACK
6
CONTINUOUS
10
0.926308
20
0.685639
11
0.924409
21
0.68848
0
LINE
8
BLACK
6
CONTINUOUS
10
0.924409
20
0.68848
11
0.922511
21
0.685639
0
LINE
8
BLACK
6
CONTINUOUS
10
0.922511
20
0.685639
11
0.919318
21
0.683505
0
LINE
8
BLACK
6
CONTINUOUS
10
0.919318
20
0.683505
11
0.915551
21
0.682756
0
LINE
8
BLACK
6
CONTINUOUS
10
0.915551
20
0.682756
11
0.907677
21
0.682756
0
LINE
8
BLACK
6
CONTINUOUS
10
0.907677
20
0.682756
11
0.903911
21
0.683505
0
LINE
8
BLACK
6
CONTINUOUS
10
0.903911
20
0.683505
11
0.900717
21
0.685639
0
LINE
8
BLACK
6
CONTINUOUS
10
0.900717
20
0.685639
11
0.898584
21
0.688832
0
LINE
8
BLACK
6
CONTINUOUS
10
0.898584
20
0.688832
11
0.897835
21
0.692598
0
LINE
8
BLACK
6
CONTINUOUS
10
0.897835
20
0.692598
11
0.897835
21
0.742795
0
LINE
8
BLACK
6
CONTINUOUS
10
0.897835
20
0.742795
11
0.898584
21
0.746562
0
LINE
8
BLACK
6
CONTINUOUS
10
0.898584
20
0.746562
11
0.900717
21
0.749755
0
LINE
8
BLACK
6
CONTINUOUS
10
0.900717
20
0.749755
11
0.903911
21
0.751889
0
LINE
8
BLACK
6
CONTINUOUS
10
0.903911
20
0.751889
11
0.907677
21
0.752638
0
LINE
8
BLACK
6
CONTINUOUS
10
0.907677
20
0.752638
11
0.915551
21
0.752638
0
LINE
8
BLACK
6
CONTINUOUS
10
0.915551
20
0.752638
11
0.919318
21
0.751889
0
LINE
8
BLACK
6
CONTINUOUS
10
1.20857
20
0.742221
11
1.21296
21
0.739985
0
LINE
8
BLACK
6
CONTINUOUS
10
1.21296
20
0.739985
11
1.21644
21
0.736501
0
LINE
8
BLACK
6
CONTINUOUS
10
1.21644
20
0.736501
11
1.21868
21
0.732111
0
LINE
8
BLACK
6
CONTINUOUS
10
1.21868
20
0.732111
11
1.21945
21
0.727244
0
LINE
8
BLACK
6
CONTINUOUS
10
1.21945
20
0.727244
11
1.21945
21
0.707559
0
LINE
8
BLACK
6
CONTINUOUS
10
1.21945
20
0.707559
11
1.21868
21
0.702693
0
LINE
8
BLACK
6
CONTINUOUS
10
1.21868
20
0.702693
11
1.21644
21
0.698303
0
LINE
8
BLACK
6
CONTINUOUS
10
1.21644
20
0.698303
11
1.21296
21
0.694819
0
LINE
8
BLACK
6
CONTINUOUS
10
1.21296
20
0.694819
11
1.20857
21
0.692582
0
LINE
8
BLACK
6
CONTINUOUS
10
1.20857
20
0.692582
11
1.2037
21
0.691811
0
LINE
8
BLACK
6
CONTINUOUS
10
1.2037
20
0.691811
11
1.1663
21
0.691811
0
LINE
8
BLACK
6
CONTINUOUS
10
1.1663
20
0.691811
11
1.16143
21
0.692582
0
LINE
8
BLACK
6
CONTINUOUS
10
1.16143
20
0.692582
11
1.15704
21
0.694819
0
LINE
8
BLACK
6
CONTINUOUS
10
1.15704
20
0.694819
11
1.15356
21
0.698303
0
LINE
8
BLACK
6
CONTINUOUS
10
1.15356
20
0.698303
11
1.15132
21
0.702693
0
LINE
8
BLACK
6
CONTINUOUS
10
1.15132
20
0.702693
11
1.15055
21
0.707559
0
LINE
8
BLACK
6
CONTINUOUS
10
1.15055
20
0.707559
11
1.15055
21
0.727244
0
LINE
8
BLACK
6
CONTINUOUS
10
1.15055
20
0.727244
11
1.15132
21
0.732111
0
LINE
8
BLACK
6
CONTINUOUS
10
1.15132
20
0.732111
11
1.15356
21
0.736501
0
LINE
8
BLACK
6
CONTINUOUS
10
1.15356
20
0.736501
11
1.15704
21
0.739985
0
LINE
8
BLACK
6
CONTINUOUS
10
1.15704
20
0.739985
11
1.16143
21
0.742221
0
LINE
8
BLACK
6
CONTINUOUS
10
1.16143
20
0.742221
11
1.1663
21
0.742992
0
LINE
8
BLACK
6
CONTINUOUS
10
1.1663
20
0.742992
11
1.2037
21
0.742992
0
LINE
8
BLACK
6
CONTINUOUS
10
1.2037
20
0.742992
11
1.20857
21
0.742221
0
LINE
8
BLACK
6
CONTINUOUS
10
1.11357
20
0.744623
11
1.11796
21
0.742386
0
LINE
8
BLACK
6
CONTINUOUS
10
1.11796
20
0.742386
11
1.12144
21
0.738902
0
LINE
8
BLACK
6
CONTINUOUS
10
1.12144
20
0.738902
11
1.12368
21
0.734512
0
LINE
8
BLACK
6
CONTINUOUS
10
1.12368
20
0.734512
11
1.12445
21
0.729646
0
LINE
8
BLACK
6
CONTINUOUS
10
1.12445
20
0.729646
11
1.12445
21
0.709961
0
LINE
8
BLACK
6
CONTINUOUS
10
1.12445
20
0.709961
11
1.12368
21
0.705094
0
LINE
8
BLACK
6
CONTINUOUS
10
1.12368
20
0.705094
11
1.12144
21
0.700704
0
LINE
8
BLACK
6
CONTINUOUS
10
1.12144
20
0.700704
11
1.11796
21
0.69722
0
LINE
8
BLACK
6
CONTINUOUS
10
1.11796
20
0.69722
11
1.11357
21
0.694983
0
LINE
8
BLACK
6
CONTINUOUS
10
1.11357
20
0.694983
11
1.1087
21
0.694213
0
LINE
8
BLACK
6
CONTINUOUS
10
1.1087
20
0.694213
11
1.0713
21
0.694213
0
LINE
8
BLACK
6
CONTINUOUS
10
1.0713
20
0.694213
11
1.06643
21
0.694983
0
LINE
8
BLACK
6
CONTINUOUS
10
1.06643
20
0.694983
11
1.06204
21
0.69722
0
LINE
8
BLACK
6
CONTINUOUS
10
1.06204
20
0.69722
11
1.05856
21
0.700704
0
LINE
8
BLACK
6
CONTINUOUS
10
1.05856
20
0.700704
11
1.05632
21
0.705094
0
LINE
8
BLACK
6
CONTINUOUS
10
1.05632
20
0.705094
11
1.05555
21
0.709961
0
LINE
8
BLACK
6
CONTINUOUS
10
1.05555
20
0.709961
11
1.05555
21
0.729646
0
LINE
8
BLACK
6
CONTINUOUS
10
1.05555
20
0.729646
11
1.05632
21
0.734512
0
LINE
8
BLACK
6
CONTINUOUS
10
1.05632
20
0.734512
11
1.05856
21
0.738902
0
LINE
8
BLACK
6
CONTINUOUS
10
1.05856
20
0.738902
11
1.06204
21
0.742386
0
LINE
8
BLACK
6
CONTINUOUS
10
1.06204
20
0.742386
11
1.06643
21
0.744623
0
LINE
8
BLACK
6
CONTINUOUS
10
1.06643
20
0.744623
11
1.0713
21
0.745394
0
LINE
8
BLACK
6
CONTINUOUS
10
1.0713
20
0.745394
11
1.1087
21
0.745394
0
LINE
8
BLACK
6
CONTINUOUS
10
1.1087
20
0.745394
11
1.11357
21
0.744623
0
LINE
8
BLACK
6
CONTINUOUS
10
0.843567
20
0.772221
11
0.847957
21
0.769985
0
LINE
8
BLACK
6
CONTINUOUS
10
0.847957
20
0.769985
11
0.851441
21
0.766501
0
LINE
8
BLACK
6
CONTINUOUS
10
0.851441
20
0.766501
11
0.853678
21
0.762111
0
LINE
8
BLACK
6
CONTINUOUS
10
0.853678
20
0.762111
11
0.854449
21
0.757244
0
LINE
8
BLACK
6
CONTINUOUS
10
0.854449
20
0.757244
11
0.854449
21
0.737559
0
LINE
8
BLACK
6
CONTINUOUS
10
0.854449
20
0.737559
11
0.853678
21
0.732693
0
LINE
8
BLACK
6
CONTINUOUS
10
0.853678
20
0.732693
11
0.851441
21
0.728303
0
LINE
8
BLACK
6
CONTINUOUS
10
0.851441
20
0.728303
11
0.847957
21
0.724819
0
LINE
8
BLACK
6
CONTINUOUS
10
0.847957
20
0.724819
11
0.843567
21
0.722582
0
LINE
8
BLACK
6
CONTINUOUS
10
0.843567
20
0.722582
11
0.838701
21
0.721811
0
LINE
8
BLACK
6
CONTINUOUS
10
0.838701
20
0.721811
11
0.801299
21
0.721811
0
LINE
8
BLACK
6
CONTINUOUS
10
0.801299
20
0.721811
11
0.796433
21
0.722582
0
LINE
8
BLACK
6
CONTINUOUS
10
0.796433
20
0.722582
11
0.792043
21
0.724819
0
LINE
8
BLACK
6
CONTINUOUS
10
0.792043
20
0.724819
11
0.788559
21
0.728303
0
LINE
8
BLACK
6
CONTINUOUS
10
0.788559
20
0.728303
11
0.786322
21
0.732693
0
LINE
8
BLACK
6
CONTINUOUS
10
0.786322
20
0.732693
11
0.785551
21
0.737559
0
LINE
8
BLACK
6
CONTINUOUS
10
0.785551
20
0.737559
11
0.785551
21
0.757244
0
LINE
8
BLACK
6
CONTINUOUS
10
0.785551
20
0.757244
11
0.786322
21
0.762111
0
LINE
8
BLACK
6
CONTINUOUS
10
0.786322
20
0.762111
11
0.788559
21
0.766501
0
LINE
8
BLACK
6
CONTINUOUS
10
0.788559
20
0.766501
11
0.792043
21
0.769985
0
LINE
8
BLACK
6
CONTINUOUS
10
0.792043
20
0.769985
11
0.796433
21
0.772221
0
LINE
8
BLACK
6
CONTINUOUS
10
0.796433
20
0.772221
11
0.801299
21
0.772992
0
LINE
8
BLACK
6
CONTINUOUS
10
0.801299
20
0.772992
11
0.838701
21
0.772992
0
LINE
8
BLACK
6
CONTINUOUS
10
0.838701
20
0.772992
11
0.843567
21
0.772221
0
LINE
8
BLACK
6
CONTINUOUS
10
0.752583
20
0.794387
11
0.756973
21
0.79215
0
LINE
8
BLACK
6
CONTINUOUS
10
0.756973
20
0.79215
11
0.760457
21
0.788666
0
LINE
8
BLACK
6
CONTINUOUS
10
0.760457
20
0.788666
11
0.762694
21
0.784276
0
LINE
8
BLACK
6
CONTINUOUS
10
0.762694
20
0.784276
11
0.763465
21
0.779409
0
LINE
8
BLACK
6
CONTINUOUS
10
0.763465
20
0.779409
11
0.763465
21
0.75874
0
LINE
8
BLACK
6
CONTINUOUS
10
0.763465
20
0.75874
11
0.762694
21
0.753874
0
LINE
8
BLACK
6
CONTINUOUS
10
0.762694
20
0.753874
11
0.760457
21
0.749484
0
LINE
8
BLACK
6
CONTINUOUS
10
0.760457
20
0.749484
11
0.756973
21
0.746
0
LINE
8
BLACK
6
CONTINUOUS
10
0.756973
20
0.746
11
0.752583
21
0.743763
0
LINE
8
BLACK
6
CONTINUOUS
10
0.752583
20
0.743763
11
0.747717
21
0.742992
0
LINE
8
BLACK
6
CONTINUOUS
10
0.747717
20
0.742992
11
0.712283
21
0.742992
0
LINE
8
BLACK
6
CONTINUOUS
10
0.712283
20
0.742992
11
0.707417
21
0.743763
0
LINE
8
BLACK
6
CONTINUOUS
10
0.707417
20
0.743763
11
0.703027
21
0.746
0
LINE
8
BLACK
6
CONTINUOUS
10
0.703027
20
0.746
11
0.699543
21
0.749484
0
LINE
8
BLACK
6
CONTINUOUS
10
0.699543
20
0.749484
11
0.697306
21
0.753874
0
LINE
8
BLACK
6
CONTINUOUS
10
0.697306
20
0.753874
11
0.696535
21
0.75874
0
LINE
8
BLACK
6
CONTINUOUS
10
0.696535
20
0.75874
11
0.696535
21
0.779409
0
LINE
8
BLACK
6
CONTINUOUS
10
0.696535
20
0.779409
11
0.697306
21
0.784276
0
LINE
8
BLACK
6
CONTINUOUS
10
0.697306
20
0.784276
11
0.699543
21
0.788666
0
LINE
8
BLACK
6
CONTINUOUS
10
0.699543
20
0.788666
11
0.703027
21
0.79215
0
LINE
8
BLACK
6
CONTINUOUS
10
0.703027
20
0.79215
11
0.707417
21
0.794387
0
LINE
8
BLACK
6
CONTINUOUS
10
0.707417
20
0.794387
11
0.712283
21
0.795157
0
LINE
8
BLACK
6
CONTINUOUS
10
0.712283
20
0.795157
11
0.747717
21
0.795157
0
LINE
8
BLACK
6
CONTINUOUS
10
0.747717
20
0.795157
11
0.752583
21
0.794387
0
LINE
8
BLACK
6
CONTINUOUS
10
1.53021
20
0.825889
11
1.53213
21
0.824609
0
LINE
8
BLACK
6
CONTINUOUS
10
1.53213
20
0.824609
11
1.53341
21
0.822693
0
LINE
8
BLACK
6
CONTINUOUS
10
1.53341
20
0.822693
11
1.53386
21
0.820433
0
LINE
8
BLACK
6
CONTINUOUS
10
1.53386
20
0.820433
11
1.53386
21
0.749567
0
LINE
8
BLACK
6
CONTINUOUS
10
1.53386
20
0.749567
11
1.53341
21
0.747307
0
LINE
8
BLACK
6
CONTINUOUS
10
1.53341
20
0.747307
11
1.53213
21
0.745391
0
LINE
8
BLACK
6
CONTINUOUS
10
1.53213
20
0.745391
11
1.53021
21
0.744111
0
LINE
8
BLACK
6
CONTINUOUS
10
1.53021
20
0.744111
11
1.52795
21
0.743661
0
LINE
8
BLACK
6
CONTINUOUS
10
1.52795
20
0.743661
11
1.42953
21
0.743661
0
LINE
8
BLACK
6
CONTINUOUS
10
1.42953
20
0.743661
11
1.42727
21
0.744111
0
LINE
8
BLACK
6
CONTINUOUS
10
1.42727
20
0.744111
11
1.42535
21
0.745391
0
LINE
8
BLACK
6
CONTINUOUS
10
1.42535
20
0.745391
11
1.42407
21
0.747307
0
LINE
8
BLACK
6
CONTINUOUS
10
1.42407
20
0.747307
11
1.42362
21
0.749567
0
LINE
8
BLACK
6
CONTINUOUS
10
1.42362
20
0.749567
11
1.42362
21
0.820433
0
LINE
8
BLACK
6
CONTINUOUS
10
1.42362
20
0.820433
11
1.42407
21
0.822693
0
LINE
8
BLACK
6
CONTINUOUS
10
1.42407
20
0.822693
11
1.42535
21
0.824609
0
LINE
8
BLACK
6
CONTINUOUS
10
1.42535
20
0.824609
11
1.42727
21
0.825889
0
LINE
8
BLACK
6
CONTINUOUS
10
1.42727
20
0.825889
11
1.42953
21
0.826339
0
LINE
8
BLACK
6
CONTINUOUS
10
1.42953
20
0.826339
11
1.52795
21
0.826339
0
LINE
8
BLACK
6
CONTINUOUS
10
1.52795
20
0.826339
11
1.53021
21
0.825889
0
LINE
8
BLACK
6
CONTINUOUS
10
1.37273
20
0.825889
11
1.37465
21
0.824609
0
LINE
8
BLACK
6
CONTINUOUS
10
1.37465
20
0.824609
11
1.37593
21
0.822693
0
LINE
8
BLACK
6
CONTINUOUS
10
1.37593
20
0.822693
11
1.37638
21
0.820433
0
LINE
8
BLACK
6
CONTINUOUS
10
1.37638
20
0.820433
11
1.37638
21
0.749567
0
LINE
8
BLACK
6
CONTINUOUS
10
1.37638
20
0.749567
11
1.37593
21
0.747307
0
LINE
8
BLACK
6
CONTINUOUS
10
1.37593
20
0.747307
11
1.37465
21
0.745391
0
LINE
8
BLACK
6
CONTINUOUS
10
1.37465
20
0.745391
11
1.37273
21
0.744111
0
LINE
8
BLACK
6
CONTINUOUS
10
1.37273
20
0.744111
11
1.37047
21
0.743661
0
LINE
8
BLACK
6
CONTINUOUS
10
1.37047
20
0.743661
11
1.27205
21
0.743661
0
LINE
8
BLACK
6
CONTINUOUS
10
1.27205
20
0.743661
11
1.26979
21
0.744111
0
LINE
8
BLACK
6
CONTINUOUS
10
1.26979
20
0.744111
11
1.26787
21
0.745391
0
LINE
8
BLACK
6
CONTINUOUS
10
1.26787
20
0.745391
11
1.26659
21
0.747307
0
LINE
8
BLACK
6
CONTINUOUS
10
1.26659
20
0.747307
11
1.26614
21
0.749567
0
LINE
8
BLACK
6
CONTINUOUS
10
1.26614
20
0.749567
11
1.26614
21
0.820433
0
LINE
8
BLACK
6
CONTINUOUS
10
1.26614
20
0.820433
11
1.26659
21
0.822693
0
LINE
8
BLACK
6
CONTINUOUS
10
1.26659
20
0.822693
11
1.26787
21
0.824609
0
LINE
8
BLACK
6
CONTINUOUS
10
1.26787
20
0.824609
11
1.26979
21
0.825889
0
LINE
8
BLACK
6
CONTINUOUS
10
1.26979
20
0.825889
11
1.27205
21
0.826339
0
LINE
8
BLACK
6
CONTINUOUS
10
1.27205
20
0.826339
11
1.37047
21
0.826339
0
LINE
8
BLACK
6
CONTINUOUS
10
1.37047
20
0.826339
11
1.37273
21
0.825889
0
LINE
8
BLACK
6
CONTINUOUS
10
0.48726
20
0.975456
11
0.489176
21
0.974176
0
LINE
8
BLACK
6
CONTINUOUS
10
0.489176
20
0.974176
11
0.490456
21
0.97226
0
LINE
8
BLACK
6
CONTINUOUS
10
0.490456
20
0.97226
11
0.490906
21
0.97
0
LINE
8
BLACK
6
CONTINUOUS
10
0.490906
20
0.97
11
0.490906
21
0.82
0
LINE
8
BLACK
6
CONTINUOUS
10
0.490906
20
0.82
11
0.490456
21
0.81774
0
LINE
8
BLACK
6
CONTINUOUS
10
0.490456
20
0.81774
11
0.489176
21
0.815824
0
LINE
8
BLACK
6
CONTINUOUS
10
0.489176
20
0.815824
11
0.48726
21
0.814544
0
LINE
8
BLACK
6
CONTINUOUS
10
0.48726
20
0.814544
11
0.485
21
0.814094
0
LINE
8
BLACK
6
CONTINUOUS
10
0.485
20
0.814094
11
0.335
21
0.814094
0
LINE
8
BLACK
6
CONTINUOUS
10
0.335
20
0.814094
11
0.33274
21
0.814544
0
LINE
8
BLACK
6
CONTINUOUS
10
0.33274
20
0.814544
11
0.330824
21
0.815824
0
LINE
8
BLACK
6
CONTINUOUS
10
0.330824
20
0.815824
11
0.329544
21
0.81774
0
LINE
8
BLACK
6
CONTINUOUS
10
0.329544
20
0.81774
11
0.329094
21
0.82
0
LINE
8
BLACK
6
CONTINUOUS
10
0.329094
20
0.82
11
0.329094
21
0.97
0
LINE
8
BLACK
6
CONTINUOUS
10
0.329094
20
0.97
11
0.329544
21
0.97226
0
LINE
8
BLACK
6
CONTINUOUS
10
0.329544
20
0.97226
11
0.330824
21
0.974176
0
LINE
8
BLACK
6
CONTINUOUS
10
0.330824
20
0.974176
11
0.33274
21
0.975456
0
LINE
8
BLACK
6
CONTINUOUS
10
0.33274
20
0.975456
11
0.335
21
0.975906
0
LINE
8
BLACK
6
CONTINUOUS
10
0.335
20
0.975906
11
0.485
21
0.975906
0
LINE
8
BLACK
6
CONTINUOUS
10
0.485
20
0.975906
11
0.48726
21
0.975456
0
LINE
8
BLACK
6
CONTINUOUS
10
0.29041
20
0.975456
11
0.292325
21
0.974176
0
LINE
8
BLACK
6
CONTINUOUS
10
0.292325
20
0.974176
11
0.293606
21
0.97226
0
LINE
8
BLACK
6
CONTINUOUS
10
0.293606
20
0.97226
11
0.294055
21
0.97
0
LINE
8
BLACK
6
CONTINUOUS
10
0.294055
20
0.97
11
0.294055
21
0.82
0
LINE
8
BLACK
6
CONTINUOUS
10
0.294055
20
0.82
11
0.293606
21
0.81774
0
LINE
8
BLACK
6
CONTINUOUS
10
0.293606
20
0.81774
11
0.292325
21
0.815824
0
LINE
8
BLACK
6
CONTINUOUS
10
0.292325
20
0.815824
11
0.29041
21
0.814544
0
LINE
8
BLACK
6
CONTINUOUS
10
0.29041
20
0.814544
11
0.28815
21
0.814094
0
LINE
8
BLACK
6
CONTINUOUS
10
0.28815
20
0.814094
11
0.13815
21
0.814094
0
LINE
8
BLACK
6
CONTINUOUS
10
0.13815
20
0.814094
11
0.13589
21
0.814544
0
LINE
8
BLACK
6
CONTINUOUS
10
0.13589
20
0.814544
11
0.133974
21
0.815824
0
LINE
8
BLACK
6
CONTINUOUS
10
0.133974
20
0.815824
11
0.132694
21
0.81774
0
LINE
8
BLACK
6
CONTINUOUS
10
0.132694
20
0.81774
11
0.132244
21
0.82
0
LINE
8
BLACK
6
CONTINUOUS
10
0.132244
20
0.82
11
0.132244
21
0.97
0
LINE
8
BLACK
6
CONTINUOUS
10
0.132244
20
0.97
11
0.132694
21
0.97226
0
LINE
8
BLACK
6
CONTINUOUS
10
0.132694
20
0.97226
11
0.133974
21
0.974176
0
LINE
8
BLACK
6
CONTINUOUS
10
0.133974
20
0.974176
11
0.13589
21
0.975456
0
LINE
8
BLACK
6
CONTINUOUS
10
0.13589
20
0.975456
11
0.13815
21
0.975906
0
LINE
8
BLACK
6
CONTINUOUS
10
0.13815
20
0.975906
11
0.28815
21
0.975906
0
LINE
8
BLACK
6
CONTINUOUS
10
0.28815
20
0.975906
11
0.29041
21
0.975456
0
LINE
8
BLACK
6
CONTINUOUS
10
0.752583
20
0.866237
11
0.756973
21
0.864
0
LINE
8
BLACK
6
CONTINUOUS
10
0.756973
20
0.864
11
0.760457
21
0.860516
0
LINE
8
BLACK
6
CONTINUOUS
10
0.760457
20
0.860516
11
0.762694
21
0.856126
0
LINE
8
BLACK
6
CONTINUOUS
10
0.762694
20
0.856126
11
0.763465
21
0.85126
0
LINE
8
BLACK
6
CONTINUOUS
10
0.763465
20
0.85126
11
0.763465
21
0.830591
0
LINE
8
BLACK
6
CONTINUOUS
10
0.763465
20
0.830591
11
0.762694
21
0.825724
0
LINE
8
BLACK
6
CONTINUOUS
10
0.762694
20
0.825724
11
0.760457
21
0.821334
0
LINE
8
BLACK
6
CONTINUOUS
10
0.760457
20
0.821334
11
0.756973
21
0.81785
0
LINE
8
BLACK
6
CONTINUOUS
10
0.756973
20
0.81785
11
0.752583
21
0.815613
0
LINE
8
BLACK
6
CONTINUOUS
10
0.752583
20
0.815613
11
0.747717
21
0.814843
0
LINE
8
BLACK
6
CONTINUOUS
10
0.747717
20
0.814843
11
0.712283
21
0.814843
0
LINE
8
BLACK
6
CONTINUOUS
10
0.712283
20
0.814843
11
0.707417
21
0.815613
0
LINE
8
BLACK
6
CONTINUOUS
10
0.707417
20
0.815613
11
0.703027
21
0.81785
0
LINE
8
BLACK
6
CONTINUOUS
10
0.703027
20
0.81785
11
0.699543
21
0.821334
0
LINE
8
BLACK
6
CONTINUOUS
10
0.699543
20
0.821334
11
0.697306
21
0.825724
0
LINE
8
BLACK
6
CONTINUOUS
10
0.697306
20
0.825724
11
0.696535
21
0.830591
0
LINE
8
BLACK
6
CONTINUOUS
10
0.696535
20
0.830591
11
0.696535
21
0.85126
0
LINE
8
BLACK
6
CONTINUOUS
10
0.696535
20
0.85126
11
0.697306
21
0.856126
0
LINE
8
BLACK
6
CONTINUOUS
10
0.697306
20
0.856126
11
0.699543
21
0.860516
0
LINE
8
BLACK
6
CONTINUOUS
10
0.699543
20
0.860516
11
0.703027
21
0.864
0
LINE
8
BLACK
6
CONTINUOUS
10
0.703027
20
0.864
11
0.707417
21
0.866237
0
LINE
8
BLACK
6
CONTINUOUS
10
0.707417
20
0.866237
11
0.712283
21
0.867008
0
LINE
8
BLACK
6
CONTINUOUS
10
0.712283
20
0.867008
11
0.747717
21
0.867008
0
LINE
8
BLACK
6
CONTINUOUS
10
0.747717
20
0.867008
11
0.752583
21
0.866237
0
LINE
8
BLACK
6
CONTINUOUS
10
1.22447
20
0.89228
11
1.22886
21
0.890044
0
LINE
8
BLACK
6
CONTINUOUS
10
1.22886
20
0.890044
11
1.23235
21
0.88656
0
LINE
8
BLACK
6
CONTINUOUS
10
1.23235
20
0.88656
11
1.23458
21
0.88217
0
LINE
8
BLACK
6
CONTINUOUS
10
1.23458
20
0.88217
11
1.23535
21
0.877303
0
LINE
8
BLACK
6
CONTINUOUS
10
1.23535
20
0.877303
11
1.23535
21
0.852697
0
LINE
8
BLACK
6
CONTINUOUS
10
1.23535
20
0.852697
11
1.23458
21
0.84783
0
LINE
8
BLACK
6
CONTINUOUS
10
1.23458
20
0.84783
11
1.23235
21
0.84344
0
LINE
8
BLACK
6
CONTINUOUS
10
1.23235
20
0.84344
11
1.22886
21
0.839956
0
LINE
8
BLACK
6
CONTINUOUS
10
1.22886
20
0.839956
11
1.22447
21
0.83772
0
LINE
8
BLACK
6
CONTINUOUS
10
1.22447
20
0.83772
11
1.21961
21
0.836949
0
LINE
8
BLACK
6
CONTINUOUS
10
1.21961
20
0.836949
11
1.17039
21
0.836949
0
LINE
8
BLACK
6
CONTINUOUS
10
1.17039
20
0.836949
11
1.16553
21
0.83772
0
LINE
8
BLACK
6
CONTINUOUS
10
1.16553
20
0.83772
11
1.16114
21
0.839956
0
LINE
8
BLACK
6
CONTINUOUS
10
1.16114
20
0.839956
11
1.15765
21
0.84344
0
LINE
8
BLACK
6
CONTINUOUS
10
1.15765
20
0.84344
11
1.15542
21
0.84783
0
LINE
8
BLACK
6
CONTINUOUS
10
1.15542
20
0.84783
11
1.15465
21
0.852697
0
LINE
8
BLACK
6
CONTINUOUS
10
1.15465
20
0.852697
11
1.15465
21
0.877303
0
LINE
8
BLACK
6
CONTINUOUS
10
1.15465
20
0.877303
11
1.15542
21
0.88217
0
LINE
8
BLACK
6
CONTINUOUS
10
1.15542
20
0.88217
11
1.15765
21
0.88656
0
LINE
8
BLACK
6
CONTINUOUS
10
1.15765
20
0.88656
11
1.16114
21
0.890044
0
LINE
8
BLACK
6
CONTINUOUS
10
1.16114
20
0.890044
11
1.16553
21
0.89228
0
LINE
8
BLACK
6
CONTINUOUS
10
1.16553
20
0.89228
11
1.17039
21
0.893051
0
LINE
8
BLACK
6
CONTINUOUS
10
1.17039
20
0.893051
11
1.21961
21
0.893051
0
LINE
8
BLACK
6
CONTINUOUS
10
1.21961
20
0.893051
11
1.22447
21
0.89228
0
LINE
8
BLACK
6
CONTINUOUS
10
0.64146
20
0.955056
11
0.643376
21
0.953776
0
LINE
8
BLACK
6
CONTINUOUS
10
0.643376
20
0.953776
11
0.644656
21
0.95186
0
LINE
8
BLACK
6
CONTINUOUS
10
0.644656
20
0.95186
11
0.645106
21
0.9496
0
LINE
8
BLACK
6
CONTINUOUS
10
0.645106
20
0.9496
11
0.645106
21
0.8492
0
LINE
8
BLACK
6
CONTINUOUS
10
0.645106
20
0.8492
11
0.644656
21
0.84694
0
LINE
8
BLACK
6
CONTINUOUS
10
0.644656
20
0.84694
11
0.643376
21
0.845024
0
LINE
8
BLACK
6
CONTINUOUS
10
0.643376
20
0.845024
11
0.64146
21
0.843744
0
LINE
8
BLACK
6
CONTINUOUS
10
0.64146
20
0.843744
11
0.6392
21
0.843294
0
LINE
8
BLACK
6
CONTINUOUS
10
0.6392
20
0.843294
11
0.5408
21
0.843294
0
LINE
8
BLACK
6
CONTINUOUS
10
0.5408
20
0.843294
11
0.53854
21
0.843744
0
LINE
8
BLACK
6
CONTINUOUS
10
0.53854
20
0.843744
11
0.536624
21
0.845024
0
LINE
8
BLACK
6
CONTINUOUS
10
0.536624
20
0.845024
11
0.535344
21
0.84694
0
LINE
8
BLACK
6
CONTINUOUS
10
0.535344
20
0.84694
11
0.534894
21
0.8492
0
LINE
8
BLACK
6
CONTINUOUS
10
0.534894
20
0.8492
11
0.534894
21
0.9496
0
LINE
8
BLACK
6
CONTINUOUS
10
0.534894
20
0.9496
11
0.535344
21
0.95186
0
LINE
8
BLACK
6
CONTINUOUS
10
0.535344
20
0.95186
11
0.536624
21
0.953776
0
LINE
8
BLACK
6
CONTINUOUS
10
0.536624
20
0.953776
11
0.53854
21
0.955056
0
LINE
8
BLACK
6
CONTINUOUS
10
0.53854
20
0.955056
11
0.5408
21
0.955506
0
LINE
8
BLACK
6
CONTINUOUS
10
0.5408
20
0.955506
11
0.6392
21
0.955506
0
LINE
8
BLACK
6
CONTINUOUS
10
0.6392
20
0.955506
11
0.64146
21
0.955056
0
LINE
8
BLACK
6
CONTINUOUS
10
0.947732
20
0.945889
11
0.949648
21
0.944609
0
LINE
8
BLACK
6
CONTINUOUS
10
0.949648
20
0.944609
11
0.950928
21
0.942693
0
LINE
8
BLACK
6
CONTINUOUS
10
0.950928
20
0.942693
11
0.951378
21
0.940433
0
LINE
8
BLACK
6
CONTINUOUS
10
0.951378
20
0.940433
11
0.951378
21
0.869567
0
LINE
8
BLACK
6
CONTINUOUS
10
0.951378
20
0.869567
11
0.950928
21
0.867307
0
LINE
8
BLACK
6
CONTINUOUS
10
0.950928
20
0.867307
11
0.949648
21
0.865391
0
LINE
8
BLACK
6
CONTINUOUS
10
0.949648
20
0.865391
11
0.947732
21
0.864111
0
LINE
8
BLACK
6
CONTINUOUS
10
0.947732
20
0.864111
11
0.945472
21
0.863661
0
LINE
8
BLACK
6
CONTINUOUS
10
0.945472
20
0.863661
11
0.847047
21
0.863661
0
LINE
8
BLACK
6
CONTINUOUS
10
0.847047
20
0.863661
11
0.844787
21
0.864111
0
LINE
8
BLACK
6
CONTINUOUS
10
0.844787
20
0.864111
11
0.842871
21
0.865391
0
LINE
8
BLACK
6
CONTINUOUS
10
0.842871
20
0.865391
11
0.841591
21
0.867307
0
LINE
8
BLACK
6
CONTINUOUS
10
0.841591
20
0.867307
11
0.841142
21
0.869567
0
LINE
8
BLACK
6
CONTINUOUS
10
0.841142
20
0.869567
11
0.841142
21
0.940433
0
LINE
8
BLACK
6
CONTINUOUS
10
0.841142
20
0.940433
11
0.841591
21
0.942693
0
LINE
8
BLACK
6
CONTINUOUS
10
0.841591
20
0.942693
11
0.842871
21
0.944609
0
LINE
8
BLACK
6
CONTINUOUS
10
0.842871
20
0.944609
11
0.844787
21
0.945889
0
LINE
8
BLACK
6
CONTINUOUS
10
0.844787
20
0.945889
11
0.847047
21
0.946339
0
LINE
8
BLACK
6
CONTINUOUS
10
0.847047
20
0.946339
11
0.945472
21
0.946339
0
LINE
8
BLACK
6
CONTINUOUS
10
0.945472
20
0.946339
11
0.947732
21
0.945889
0
LINE
8
BLACK
6
CONTINUOUS
10
1.10521
20
0.945889
11
1.10713
21
0.944609
0
LINE
8
BLACK
6
CONTINUOUS
10
1.10713
20
0.944609
11
1.10841
21
0.942693
0
LINE
8
BLACK
6
CONTINUOUS
10
1.10841
20
0.942693
11
1.10886
21
0.940433
0
LINE
8
BLACK
6
CONTINUOUS
10
1.10886
20
0.940433
11
1.10886
21
0.869567
0
LINE
8
BLACK
6
CONTINUOUS
10
1.10886
20
0.869567
11
1.10841
21
0.867307
0
LINE
8
BLACK
6
CONTINUOUS
10
1.10841
20
0.867307
11
1.10713
21
0.865391
0
LINE
8
BLACK
6
CONTINUOUS
10
1.10713
20
0.865391
11
1.10521
21
0.864111
0
LINE
8
BLACK
6
CONTINUOUS
10
1.10521
20
0.864111
11
1.10295
21
0.863661
0
LINE
8
BLACK
6
CONTINUOUS
10
1.10295
20
0.863661
11
1.00453
21
0.863661
0
LINE
8
BLACK
6
CONTINUOUS
10
1.00453
20
0.863661
11
1.00227
21
0.864111
0
LINE
8
BLACK
6
CONTINUOUS
10
1.00227
20
0.864111
11
1.00035
21
0.865391
0
LINE
8
BLACK
6
CONTINUOUS
10
1.00035
20
0.865391
11
0.999072
21
0.867307
0
LINE
8
BLACK
6
CONTINUOUS
10
0.999072
20
0.867307
11
0.998622
21
0.869567
0
LINE
8
BLACK
6
CONTINUOUS
10
0.998622
20
0.869567
11
0.998622
21
0.940433
0
LINE
8
BLACK
6
CONTINUOUS
10
0.998622
20
0.940433
11
0.999072
21
0.942693
0
LINE
8
BLACK
6
CONTINUOUS
10
0.999072
20
0.942693
11
1.00035
21
0.944609
0
LINE
8
BLACK
6
CONTINUOUS
10
1.00035
20
0.944609
11
1.00227
21
0.945889
0
LINE
8
BLACK
6
CONTINUOUS
10
1.00227
20
0.945889
11
1.00453
21
0.946339
0
LINE
8
BLACK
6
CONTINUOUS
10
1.00453
20
0.946339
11
1.10295
21
0.946339
0
LINE
8
BLACK
6
CONTINUOUS
10
1.10295
20
0.946339
11
1.10521
21
0.945889
0
LINE
8
BLACK
6
CONTINUOUS
10
1.51726
20
0.985456
11
1.51918
21
0.984176
0
LINE
8
BLACK
6
CONTINUOUS
10
1.51918
20
0.984176
11
1.52046
21
0.98226
0
LINE
8
BLACK
6
CONTINUOUS
10
1.52046
20
0.98226
11
1.52091
21
0.98
0
LINE
8
BLACK
6
CONTINUOUS
10
1.52091
20
0.98
11
1.52091
21
0.92
0
LINE
8
BLACK
6
CONTINUOUS
10
1.52091
20
0.92
11
1.52046
21
0.91774
0
LINE
8
BLACK
6
CONTINUOUS
10
1.52046
20
0.91774
11
1.51918
21
0.915824
0
LINE
8
BLACK
6
CONTINUOUS
10
1.51918
20
0.915824
11
1.51726
21
0.914544
0
LINE
8
BLACK
6
CONTINUOUS
10
1.51726
20
0.914544
11
1.515
21
0.914094
0
LINE
8
BLACK
6
CONTINUOUS
10
1.515
20
0.914094
11
1.455
21
0.914094
0
LINE
8
BLACK
6
CONTINUOUS
10
1.455
20
0.914094
11
1.45274
21
0.914544
0
LINE
8
BLACK
6
CONTINUOUS
10
1.45274
20
0.914544
11
1.45082
21
0.915824
0
LINE
8
BLACK
6
CONTINUOUS
10
1.45082
20
0.915824
11
1.44954
21
0.91774
0
LINE
8
BLACK
6
CONTINUOUS
10
1.44954
20
0.91774
11
1.44909
21
0.92
0
LINE
8
BLACK
6
CONTINUOUS
10
1.44909
20
0.92
11
1.44909
21
0.98
0
LINE
8
BLACK
6
CONTINUOUS
10
1.44909
20
0.98
11
1.44954
21
0.98226
0
LINE
8
BLACK
6
CONTINUOUS
10
1.44954
20
0.98226
11
1.45082
21
0.984176
0
LINE
8
BLACK
6
CONTINUOUS
10
1.45082
20
0.984176
11
1.45274
21
0.985456
0
LINE
8
BLACK
6
CONTINUOUS
10
1.45274
20
0.985456
11
1.455
21
0.985906
0
LINE
8
BLACK
6
CONTINUOUS
10
1.455
20
0.985906
11
1.515
21
0.985906
0
LINE
8
BLACK
6
CONTINUOUS
10
1.515
20
0.985906
11
1.51726
21
0.985456
0
LINE
8
BLACK
6
CONTINUOUS
10
1.41726
20
0.985456
11
1.41918
21
0.984176
0
LINE
8
BLACK
6
CONTINUOUS
10
1.41918
20
0.984176
11
1.42046
21
0.98226
0
LINE
8
BLACK
6
CONTINUOUS
10
1.42046
20
0.98226
11
1.42091
21
0.98
0
LINE
8
BLACK
6
CONTINUOUS
10
1.42091
20
0.98
11
1.42091
21
0.92
0
LINE
8
BLACK
6
CONTINUOUS
10
1.42091
20
0.92
11
1.42046
21
0.91774
0
LINE
8
BLACK
6
CONTINUOUS
10
1.42046
20
0.91774
11
1.41918
21
0.915824
0
LINE
8
BLACK
6
CONTINUOUS
10
1.41918
20
0.915824
11
1.41726
21
0.914544
0
LINE
8
BLACK
6
CONTINUOUS
10
1.41726
20
0.914544
11
1.415
21
0.914094
0
LINE
8
BLACK
6
CONTINUOUS
10
1.415
20
0.914094
11
1.355
21
0.914094
0
LINE
8
BLACK
6
CONTINUOUS
10
1.355
20
0.914094
11
1.35274
21
0.914544
0
LINE
8
BLACK
6
CONTINUOUS
10
1.35274
20
0.914544
11
1.35082
21
0.915824
0
LINE
8
BLACK
6
CONTINUOUS
10
1.35082
20
0.915824
11
1.34954
21
0.91774
0
LINE
8
BLACK
6
CONTINUOUS
10
1.34954
20
0.91774
11
1.34909
21
0.92
0
LINE
8
BLACK
6
CONTINUOUS
10
1.34909
20
0.92
11
1.34909
21
0.98
0
LINE
8
BLACK
6
CONTINUOUS
10
1.34909
20
0.98
11
1.34954
21
0.98226
0
LINE
8
BLACK
6
CONTINUOUS
10
1.34954
20
0.98226
11
1.35082
21
0.984176
0
LINE
8
BLACK
6
CONTINUOUS
10
1.35082
20
0.984176
11
1.35274
21
0.985456
0
LINE
8
BLACK
6
CONTINUOUS
10
1.35274
20
0.985456
11
1.355
21
0.985906
0
LINE
8
BLACK
6
CONTINUOUS
10
1.355
20
0.985906
11
1.415
21
0.985906
0
LINE
8
BLACK
6
CONTINUOUS
10
1.415
20
0.985906
11
1.41726
21
0.985456
0
LINE
8
BLACK
6
CONTINUOUS
10
1.22447
20
1.00744
11
1.22886
21
1.0052
0
LINE
8
BLACK
6
CONTINUOUS
10
1.22886
20
1.0052
11
1.23235
21
1.00172
0
LINE
8
BLACK
6
CONTINUOUS
10
1.23235
20
1.00172
11
1.23458
21
0.997327
0
LINE
8
BLACK
6
CONTINUOUS
10
1.23458
20
0.997327
11
1.23535
21
0.992461
0
LINE
8
BLACK
6
CONTINUOUS
10
1.23535
20
0.992461
11
1.23535
21
0.967854
0
LINE
8
BLACK
6
CONTINUOUS
10
1.23535
20
0.967854
11
1.23458
21
0.962988
0
LINE
8
BLACK
6
CONTINUOUS
10
1.23458
20
0.962988
11
1.23235
21
0.958598
0
LINE
8
BLACK
6
CONTINUOUS
10
1.23235
20
0.958598
11
1.22886
21
0.955114
0
LINE
8
BLACK
6
CONTINUOUS
10
1.22886
20
0.955114
11
1.22447
21
0.952877
0
LINE
8
BLACK
6
CONTINUOUS
10
1.22447
20
0.952877
11
1.21961
21
0.952106
0
LINE
8
BLACK
6
CONTINUOUS
10
1.21961
20
0.952106
11
1.17039
21
0.952106
0
LINE
8
BLACK
6
CONTINUOUS
10
1.17039
20
0.952106
11
1.16553
21
0.952877
0
LINE
8
BLACK
6
CONTINUOUS
10
1.16553
20
0.952877
11
1.16114
21
0.955114
0
LINE
8
BLACK
6
CONTINUOUS
10
1.16114
20
0.955114
11
1.15765
21
0.958598
0
LINE
8
BLACK
6
CONTINUOUS
10
1.15765
20
0.958598
11
1.15542
21
0.962988
0
LINE
8
BLACK
6
CONTINUOUS
10
1.15542
20
0.962988
11
1.15465
21
0.967854
0
LINE
8
BLACK
6
CONTINUOUS
10
1.15465
20
0.967854
11
1.15465
21
0.992461
0
LINE
8
BLACK
6
CONTINUOUS
10
1.15465
20
0.992461
11
1.15542
21
0.997327
0
LINE
8
BLACK
6
CONTINUOUS
10
1.15542
20
0.997327
11
1.15765
21
1.00172
0
LINE
8
BLACK
6
CONTINUOUS
10
1.15765
20
1.00172
11
1.16114
21
1.0052
0
LINE
8
BLACK
6
CONTINUOUS
10
1.16114
20
1.0052
11
1.16553
21
1.00744
0
LINE
8
BLACK
6
CONTINUOUS
10
1.16553
20
1.00744
11
1.17039
21
1.00821
0
LINE
8
BLACK
6
CONTINUOUS
10
1.17039
20
1.00821
11
1.21961
21
1.00821
0
LINE
8
BLACK
6
CONTINUOUS
10
1.21961
20
1.00821
11
1.22447
21
1.00744
0
LINE
8
BLACK
6
CONTINUOUS
10
1.41726
20
1.08546
11
1.41918
21
1.08418
0
LINE
8
BLACK
6
CONTINUOUS
10
1.41918
20
1.08418
11
1.42046
21
1.08226
0
LINE
8
BLACK
6
CONTINUOUS
10
1.42046
20
1.08226
11
1.42091
21
1.08
0
LINE
8
BLACK
6
CONTINUOUS
10
1.42091
20
1.08
11
1.42091
21
1.02
0
LINE
8
BLACK
6
CONTINUOUS
10
1.42091
20
1.02
11
1.42046
21
1.01774
0
LINE
8
BLACK
6
CONTINUOUS
10
1.42046
20
1.01774
11
1.41918
21
1.01582
0
LINE
8
BLACK
6
CONTINUOUS
10
1.41918
20
1.01582
11
1.41726
21
1.01454
0
LINE
8
BLACK
6
CONTINUOUS
10
1.41726
20
1.01454
11
1.415
21
1.01409
0
LINE
8
BLACK
6
CONTINUOUS
10
1.415
20
1.01409
11
1.355
21
1.01409
0
LINE
8
BLACK
6
CONTINUOUS
10
1.355
20
1.01409
11
1.35274
21
1.01454
0
LINE
8
BLACK
6
CONTINUOUS
10
1.35274
20
1.01454
11
1.35082
21
1.01582
0
LINE
8
BLACK
6
CONTINUOUS
10
1.35082
20
1.01582
11
1.34954
21
1.01774
0
LINE
8
BLACK
6
CONTINUOUS
10
1.34954
20
1.01774
11
1.34909
21
1.02
0
LINE
8
BLACK
6
CONTINUOUS
10
1.34909
20
1.02
11
1.34909
21
1.08
0
LINE
8
BLACK
6
CONTINUOUS
10
1.34909
20
1.08
11
1.34954
21
1.08226
0
LINE
8
BLACK
6
CONTINUOUS
10
1.34954
20
1.08226
11
1.35082
21
1.08418
0
LINE
8
BLACK
6
CONTINUOUS
10
1.35082
20
1.08418
11
1.35274
21
1.08546
0
LINE
8
BLACK
6
CONTINUOUS
10
1.35274
20
1.08546
11
1.355
21
1.08591
0
LINE
8
BLACK
6
CONTINUOUS
10
1.355
20
1.08591
11
1.415
21
1.08591
0
LINE
8
BLACK
6
CONTINUOUS
10
1.415
20
1.08591
11
1.41726
21
1.08546
0
LINE
8
BLACK
6
CONTINUOUS
10
1.51726
20
1.08546
11
1.51918
21
1.08418
0
LINE
8
BLACK
6
CONTINUOUS
10
1.51918
20
1.08418
11
1.52046
21
1.08226
0
LINE
8
BLACK
6
CONTINUOUS
10
1.52046
20
1.08226
11
1.52091
21
1.08
0
LINE
8
BLACK
6
CONTINUOUS
10
1.52091
20
1.08
11
1.52091
21
1.02
0
LINE
8
BLACK
6
CONTINUOUS
10
1.52091
20
1.02
11
1.52046
21
1.01774
0
LINE
8
BLACK
6
CONTINUOUS
10
1.52046
20
1.01774
11
1.51918
21
1.01582
0
LINE
8
BLACK
6
CONTINUOUS
10
1.51918
20
1.01582
11
1.51726
21
1.01454
0
LINE
8
BLACK
6
CONTINUOUS
10
1.51726
20
1.01454
11
1.515
21
1.01409
0
LINE
8
BLACK
6
CONTINUOUS
10
1.515
20
1.01409
11
1.455
21
1.01409
0
LINE
8
BLACK
6
CONTINUOUS
10
1.455
20
1.01409
11
1.45274
21
1.01454
0
LINE
8
BLACK
6
CONTINUOUS
10
1.45274
20
1.01454
11
1.45082
21
1.01582
0
LINE
8
BLACK
6
CONTINUOUS
10
1.45082
20
1.01582
11
1.44954
21
1.01774
0
LINE
8
BLACK
6
CONTINUOUS
10
1.44954
20
1.01774
11
1.44909
21
1.02
0
LINE
8
BLACK
6
CONTINUOUS
10
1.44909
20
1.02
11
1.44909
21
1.08
0
LINE
8
BLACK
6
CONTINUOUS
10
1.44909
20
1.08
11
1.44954
21
1.08226
0
LINE
8
BLACK
6
CONTINUOUS
10
1.44954
20
1.08226
11
1.45082
21
1.08418
0
LINE
8
BLACK
6
CONTINUOUS
10
1.45082
20
1.08418
11
1.45274
21
1.08546
0
LINE
8
BLACK
6
CONTINUOUS
10
1.45274
20
1.08546
11
1.455
21
1.08591
0
LINE
8
BLACK
6
CONTINUOUS
10
1.455
20
1.08591
11
1.515
21
1.08591
0
LINE
8
BLACK
6
CONTINUOUS
10
1.515
20
1.08591
11
1.51726
21
1.08546
0
LINE
8
BLACK
6
CONTINUOUS
10
1.29246
20
1.19966
11
1.29438
21
1.19838
0
LINE
8
BLACK
6
CONTINUOUS
10
1.29438
20
1.19838
11
1.29566
21
1.19646
0
LINE
8
BLACK
6
CONTINUOUS
10
1.29566
20
1.19646
11
1.29611
21
1.1942
0
LINE
8
BLACK
6
CONTINUOUS
10
1.29611
20
1.1942
11
1.29611
21
1.0958
0
LINE
8
BLACK
6
CONTINUOUS
10
1.29611
20
1.0958
11
1.29566
21
1.09354
0
LINE
8
BLACK
6
CONTINUOUS
10
1.29566
20
1.09354
11
1.29438
21
1.09162
0
LINE
8
BLACK
6
CONTINUOUS
10
1.29438
20
1.09162
11
1.29246
21
1.09034
0
LINE
8
BLACK
6
CONTINUOUS
10
1.29246
20
1.09034
11
1.2902
21
1.08989
0
LINE
8
BLACK
6
CONTINUOUS
10
1.2902
20
1.08989
11
1.1898
21
1.08989
0
LINE
8
BLACK
6
CONTINUOUS
10
1.1898
20
1.08989
11
1.18754
21
1.09034
0
LINE
8
BLACK
6
CONTINUOUS
10
1.18754
20
1.09034
11
1.18562
21
1.09162
0
LINE
8
BLACK
6
CONTINUOUS
10
1.18562
20
1.09162
11
1.18434
21
1.09354
0
LINE
8
BLACK
6
CONTINUOUS
10
1.18434
20
1.09354
11
1.18389
21
1.0958
0
LINE
8
BLACK
6
CONTINUOUS
10
1.18389
20
1.0958
11
1.18389
21
1.1942
0
LINE
8
BLACK
6
CONTINUOUS
10
1.18389
20
1.1942
11
1.18434
21
1.19646
0
LINE
8
BLACK
6
CONTINUOUS
10
1.18434
20
1.19646
11
1.18562
21
1.19838
0
LINE
8
BLACK
6
CONTINUOUS
10
1.18562
20
1.19838
11
1.18754
21
1.19966
0
LINE
8
BLACK
6
CONTINUOUS
10
1.18754
20
1.19966
11
1.1898
21
1.20011
0
LINE
8
BLACK
6
CONTINUOUS
10
1.1898
20
1.20011
11
1.2902
21
1.20011
0
LINE
8
BLACK
6
CONTINUOUS
10
1.2902
20
1.20011
11
1.29246
21
1.19966
0
LINE
8
BLACK
6
CONTINUOUS
10
1.09366
20
1.19966
11
1.09558
21
1.19838
0
LINE
8
BLACK
6
CONTINUOUS
10
1.09558
20
1.19838
11
1.09686
21
1.19646
0
LINE
8
BLACK
6
CONTINUOUS
10
1.09686
20
1.19646
11
1.09731
21
1.1942
0
LINE
8
BLACK
6
CONTINUOUS
10
1.09731
20
1.1942
11
1.09731
21
1.0958
0
LINE
8
BLACK
6
CONTINUOUS
10
1.09731
20
1.0958
11
1.09686
21
1.09354
0
LINE
8
BLACK
6
CONTINUOUS
10
1.09686
20
1.09354
11
1.09558
21
1.09162
0
LINE
8
BLACK
6
CONTINUOUS
10
1.09558
20
1.09162
11
1.09366
21
1.09034
0
LINE
8
BLACK
6
CONTINUOUS
10
1.09366
20
1.09034
11
1.0914
21
1.08989
0
LINE
8
BLACK
6
CONTINUOUS
10
1.0914
20
1.08989
11
0.991
21
1.08989
0
LINE
8
BLACK
6
CONTINUOUS
10
0.991
20
1.08989
11
0.98874
21
1.09034
0
LINE
8
BLACK
6
CONTINUOUS
10
0.98874
20
1.09034
11
0.986824
21
1.09162
0
LINE
8
BLACK
6
CONTINUOUS
10
0.986824
20
1.09162
11
0.985544
21
1.09354
0
LINE
8
BLACK
6
CONTINUOUS
10
0.985544
20
1.09354
11
0.985094
21
1.0958
0
LINE
8
BLACK
6
CONTINUOUS
10
0.985094
20
1.0958
11
0.985094
21
1.1942
0
LINE
8
BLACK
6
CONTINUOUS
10
0.985094
20
1.1942
11
0.985544
21
1.19646
0
LINE
8
BLACK
6
CONTINUOUS
10
0.985544
20
1.19646
11
0.986824
21
1.19838
0
LINE
8
BLACK
6
CONTINUOUS
10
0.986824
20
1.19838
11
0.98874
21
1.19966
0
LINE
8
BLACK
6
CONTINUOUS
10
0.98874
20
1.19966
11
0.991
21
1.20011
0
LINE
8
BLACK
6
CONTINUOUS
10
0.991
20
1.20011
11
1.0914
21
1.20011
0
LINE
8
BLACK
6
CONTINUOUS
10
1.0914
20
1.20011
11
1.09366
21
1.19966
0
LINE
8
BLACK
6
CONTINUOUS
10
1.51726
20
1.18546
11
1.51918
21
1.18418
0
LINE
8
BLACK
6
CONTINUOUS
10
1.51918
20
1.18418
11
1.52046
21
1.18226
0
LINE
8
BLACK
6
CONTINUOUS
10
1.52046
20
1.18226
11
1.52091
21
1.18
0
LINE
8
BLACK
6
CONTINUOUS
10
1.52091
20
1.18
11
1.52091
21
1.12
0
LINE
8
BLACK
6
CONTINUOUS
10
1.52091
20
1.12
11
1.52046
21
1.11774
0
LINE
8
BLACK
6
CONTINUOUS
10
1.52046
20
1.11774
11
1.51918
21
1.11582
0
LINE
8
BLACK
6
CONTINUOUS
10
1.51918
20
1.11582
11
1.51726
21
1.11454
0
LINE
8
BLACK
6
CONTINUOUS
10
1.51726
20
1.11454
11
1.515
21
1.11409
0
LINE
8
BLACK
6
CONTINUOUS
10
1.515
20
1.11409
11
1.455
21
1.11409
0
LINE
8
BLACK
6
CONTINUOUS
10
1.455
20
1.11409
11
1.45274
21
1.11454
0
LINE
8
BLACK
6
CONTINUOUS
10
1.45274
20
1.11454
11
1.45082
21
1.11582
0
LINE
8
BLACK
6
CONTINUOUS
10
1.45082
20
1.11582
11
1.44954
21
1.11774
0
LINE
8
BLACK
6
CONTINUOUS
10
1.44954
20
1.11774
11
1.44909
21
1.12
0
LINE
8
BLACK
6
CONTINUOUS
10
1.44909
20
1.12
11
1.44909
21
1.18
0
LINE
8
BLACK
6
CONTINUOUS
10
1.44909
20
1.18
11
1.44954
21
1.18226
0
LINE
8
BLACK
6
CONTINUOUS
10
1.44954
20
1.18226
11
1.45082
21
1.18418
0
LINE
8
BLACK
6
CONTINUOUS
10
1.45082
20
1.18418
11
1.45274
21
1.18546
0
LINE
8
BLACK
6
CONTINUOUS
10
1.45274
20
1.18546
11
1.455
21
1.18591
0
LINE
8
BLACK
6
CONTINUOUS
10
1.455
20
1.18591
11
1.515
21
1.18591
0
LINE
8
BLACK
6
CONTINUOUS
10
1.515
20
1.18591
11
1.51726
21
1.18546
0
LINE
8
BLACK
6
CONTINUOUS
10
1.41726
20
1.18546
11
1.41918
21
1.18418
0
LINE
8
BLACK
6
CONTINUOUS
10
1.41918
20
1.18418
11
1.42046
21
1.18226
0
LINE
8
BLACK
6
CONTINUOUS
10
1.42046
20
1.18226
11
1.42091
21
1.18
0
LINE
8
BLACK
6
CONTINUOUS
10
1.42091
20
1.18
11
1.42091
21
1.12
0
LINE
8
BLACK
6
CONTINUOUS
10
1.42091
20
1.12
11
1.42046
21
1.11774
0
LINE
8
BLACK
6
CONTINUOUS
10
1.42046
20
1.11774
11
1.41918
21
1.11582
0
LINE
8
BLACK
6
CONTINUOUS
10
1.41918
20
1.11582
11
1.41726
21
1.11454
0
LINE
8
BLACK
6
CONTINUOUS
10
1.41726
20
1.11454
11
1.415
21
1.11409
0
LINE
8
BLACK
6
CONTINUOUS
10
1.415
20
1.11409
11
1.355
21
1.11409
0
LINE
8
BLACK
6
CONTINUOUS
10
1.355
20
1.11409
11
1.35274
21
1.11454
0
LINE
8
BLACK
6
CONTINUOUS
10
1.35274
20
1.11454
11
1.35082
21
1.11582
0
LINE
8
BLACK
6
CONTINUOUS
10
1.35082
20
1.11582
11
1.34954
21
1.11774
0
LINE
8
BLACK
6
CONTINUOUS
10
1.34954
20
1.11774
11
1.34909
21
1.12
0
LINE
8
BLACK
6
CONTINUOUS
10
1.34909
20
1.12
11
1.34909
21
1.18
0
LINE
8
BLACK
6
CONTINUOUS
10
1.34909
20
1.18
11
1.34954
21
1.18226
0
LINE
8
BLACK
6
CONTINUOUS
10
1.34954
20
1.18226
11
1.35082
21
1.18418
0
LINE
8
BLACK
6
CONTINUOUS
10
1.35082
20
1.18418
11
1.35274
21
1.18546
0
LINE
8
BLACK
6
CONTINUOUS
10
1.35274
20
1.18546
11
1.355
21
1.18591
0
LINE
8
BLACK
6
CONTINUOUS
10
1.355
20
1.18591
11
1.415
21
1.18591
0
LINE
8
BLACK
6
CONTINUOUS
10
1.415
20
1.18591
11
1.41726
21
1.18546
0
LINE
8
BLACK
6
CONTINUOUS
10
0.539465
20
1.39372
11
0.541381
21
1.39244
0
LINE
8
BLACK
6
CONTINUOUS
10
0.541381
20
1.39244
11
0.542661
21
1.39053
0
LINE
8
BLACK
6
CONTINUOUS
10
0.542661
20
1.39053
11
0.54311
21
1.38827
0
LINE
8
BLACK
6
CONTINUOUS
10
0.54311
20
1.38827
11
0.54311
21
1.17173
0
LINE
8
BLACK
6
CONTINUOUS
10
0.54311
20
1.17173
11
0.542661
21
1.16947
0
LINE
8
BLACK
6
CONTINUOUS
10
0.542661
20
1.16947
11
0.541381
21
1.16756
0
LINE
8
BLACK
6
CONTINUOUS
10
0.541381
20
1.16756
11
0.539465
21
1.16628
0
LINE
8
BLACK
6
CONTINUOUS
10
0.539465
20
1.16628
11
0.537205
21
1.16583
0
LINE
8
BLACK
6
CONTINUOUS
10
0.537205
20
1.16583
11
0.419094
21
1.16583
0
LINE
8
BLACK
6
CONTINUOUS
10
0.419094
20
1.16583
11
0.416835
21
1.16628
0
LINE
8
BLACK
6
CONTINUOUS
10
0.416835
20
1.16628
11
0.414919
21
1.16756
0
LINE
8
BLACK
6
CONTINUOUS
10
0.414919
20
1.16756
11
0.413639
21
1.16947
0
LINE
8
BLACK
6
CONTINUOUS
10
0.413639
20
1.16947
11
0.413189
21
1.17173
0
LINE
8
BLACK
6
CONTINUOUS
10
0.413189
20
1.17173
11
0.413189
21
1.38827
0
LINE
8
BLACK
6
CONTINUOUS
10
0.413189
20
1.38827
11
0.413639
21
1.39053
0
LINE
8
BLACK
6
CONTINUOUS
10
0.413639
20
1.39053
11
0.414919
21
1.39244
0
LINE
8
BLACK
6
CONTINUOUS
10
0.414919
20
1.39244
11
0.416835
21
1.39372
0
LINE
8
BLACK
6
CONTINUOUS
10
0.416835
20
1.39372
11
0.419094
21
1.39417
0
LINE
8
BLACK
6
CONTINUOUS
10
0.419094
20
1.39417
11
0.537205
21
1.39417
0
LINE
8
BLACK
6
CONTINUOUS
10
0.537205
20
1.39417
11
0.539465
21
1.39372
0
LINE
8
BLACK
6
CONTINUOUS
10
0.933165
20
1.39372
11
0.935081
21
1.39244
0
LINE
8
BLACK
6
CONTINUOUS
10
0.935081
20
1.39244
11
0.936361
21
1.39053
0
LINE
8
BLACK
6
CONTINUOUS
10
0.936361
20
1.39053
11
0.936811
21
1.38827
0
LINE
8
BLACK
6
CONTINUOUS
10
0.936811
20
1.38827
11
0.936811
21
1.17173
0
LINE
8
BLACK
6
CONTINUOUS
10
0.936811
20
1.17173
11
0.936361
21
1.16947
0
LINE
8
BLACK
6
CONTINUOUS
10
0.936361
20
1.16947
11
0.935081
21
1.16756
0
LINE
8
BLACK
6
CONTINUOUS
10
0.935081
20
1.16756
11
0.933165
21
1.16628
0
LINE
8
BLACK
6
CONTINUOUS
10
0.933165
20
1.16628
11
0.930906
21
1.16583
0
LINE
8
BLACK
6
CONTINUOUS
10
0.930906
20
1.16583
11
0.812795
21
1.16583
0
LINE
8
BLACK
6
CONTINUOUS
10
0.812795
20
1.16583
11
0.810535
21
1.16628
0
LINE
8
BLACK
6
CONTINUOUS
10
0.810535
20
1.16628
11
0.808619
21
1.16756
0
LINE
8
BLACK
6
CONTINUOUS
10
0.808619
20
1.16756
11
0.807339
21
1.16947
0
LINE
8
BLACK
6
CONTINUOUS
10
0.807339
20
1.16947
11
0.80689
21
1.17173
0
LINE
8
BLACK
6
CONTINUOUS
10
0.80689
20
1.17173
11
0.80689
21
1.38827
0
LINE
8
BLACK
6
CONTINUOUS
10
0.80689
20
1.38827
11
0.807339
21
1.39053
0
LINE
8
BLACK
6
CONTINUOUS
10
0.807339
20
1.39053
11
0.808619
21
1.39244
0
LINE
8
BLACK
6
CONTINUOUS
10
0.808619
20
1.39244
11
0.810535
21
1.39372
0
LINE
8
BLACK
6
CONTINUOUS
10
0.810535
20
1.39372
11
0.812795
21
1.39417
0
LINE
8
BLACK
6
CONTINUOUS
10
0.812795
20
1.39417
11
0.930906
21
1.39417
0
LINE
8
BLACK
6
CONTINUOUS
10
0.930906
20
1.39417
11
0.933165
21
1.39372
0
LINE
8
BLACK
6
CONTINUOUS
10
1.41468
20
1.52314
11
1.42832
21
1.52074
0
LINE
8
BLACK
6
CONTINUOUS
10
1.42832
20
1.52074
11
1.4416
21
1.51683
0
LINE
8
BLACK
6
CONTINUOUS
10
1.4416
20
1.51683
11
1.45436
21
1.51146
0
LINE
8
BLACK
6
CONTINUOUS
10
1.45436
20
1.51146
11
1.46645
21
1.50471
0
LINE
8
BLACK
6
CONTINUOUS
10
1.46645
20
1.50471
11
1.47771
21
1.49665
0
LINE
8
BLACK
6
CONTINUOUS
10
1.47771
20
1.49665
11
1.488
21
1.48739
0
LINE
8
BLACK
6
CONTINUOUS
10
1.488
20
1.48739
11
1.49719
21
1.47703
0
LINE
8
BLACK
6
CONTINUOUS
10
1.49719
20
1.47703
11
1.50517
21
1.46572
0
LINE
8
BLACK
6
CONTINUOUS
10
1.50517
20
1.46572
11
1.51184
21
1.45359
0
LINE
8
BLACK
6
CONTINUOUS
10
1.51184
20
1.45359
11
1.51712
21
1.44078
0
LINE
8
BLACK
6
CONTINUOUS
10
1.51712
20
1.44078
11
1.52093
21
1.42748
0
LINE
8
BLACK
6
CONTINUOUS
10
1.52093
20
1.42748
11
1.52324
21
1.41382
0
LINE
8
BLACK
6
CONTINUOUS
10
1.52324
20
1.41382
11
1.52402
21
1.4
0
LINE
8
BLACK
6
CONTINUOUS
10
1.52402
20
1.4
11
1.52397
21
1.39654
0
LINE
8
BLACK
6
CONTINUOUS
10
1.52397
20
1.39654
11
1.52281
21
1.38274
0
LINE
8
BLACK
6
CONTINUOUS
10
1.52281
20
1.38274
11
1.52012
21
1.36916
0
LINE
8
BLACK
6
CONTINUOUS
10
1.52012
20
1.36916
11
1.51593
21
1.35596
0
LINE
8
BLACK
6
CONTINUOUS
10
1.51593
20
1.35596
11
1.5103
21
1.34331
0
LINE
8
BLACK
6
CONTINUOUS
10
1.5103
20
1.34331
11
1.5033
21
1.33137
0
LINE
8
BLACK
6
CONTINUOUS
10
1.5033
20
1.33137
11
1.495
21
1.32028
0
LINE
8
BLACK
6
CONTINUOUS
10
1.495
20
1.32028
11
1.48552
21
1.31019
0
LINE
8
BLACK
6
CONTINUOUS
10
1.48552
20
1.31019
11
1.47498
21
1.30122
0
LINE
8
BLACK
6
CONTINUOUS
10
1.47498
20
1.30122
11
1.4635
21
1.29348
0
LINE
8
BLACK
6
CONTINUOUS
10
1.4635
20
1.29348
11
1.45123
21
1.28706
0
LINE
8
BLACK
6
CONTINUOUS
10
1.45123
20
1.28706
11
1.43832
21
1.28205
0
LINE
8
BLACK
6
CONTINUOUS
10
1.43832
20
1.28205
11
1.42494
21
1.27852
0
LINE
8
BLACK
6
CONTINUOUS
10
1.42494
20
1.27852
11
1.41124
21
1.27649
0
LINE
8
BLACK
6
CONTINUOUS
10
1.41124
20
1.27649
11
1.3974
21
1.27601
0
LINE
8
BLACK
6
CONTINUOUS
10
1.3974
20
1.27601
11
1.3836
21
1.27707
0
LINE
8
BLACK
6
CONTINUOUS
10
1.3836
20
1.27707
11
1.37
21
1.27967
0
LINE
8
BLACK
6
CONTINUOUS
10
1.37
20
1.27967
11
1.35677
21
1.28376
0
LINE
8
BLACK
6
CONTINUOUS
10
1.35677
20
1.28376
11
1.34408
21
1.28931
0
LINE
8
BLACK
6
CONTINUOUS
10
1.34408
20
1.28931
11
1.33209
21
1.29623
0
LINE
8
BLACK
6
CONTINUOUS
10
1.33209
20
1.29623
11
1.32095
21
1.30444
0
LINE
8
BLACK
6
CONTINUOUS
10
1.32095
20
1.30444
11
1.31079
21
1.31385
0
LINE
8
BLACK
6
CONTINUOUS
10
1.31079
20
1.31385
11
1.30174
21
1.32433
0
LINE
8
BLACK
6
CONTINUOUS
10
1.30174
20
1.32433
11
1.29392
21
1.33576
0
LINE
8
BLACK
6
CONTINUOUS
10
1.29392
20
1.33576
11
1.28742
21
1.34798
0
LINE
8
BLACK
6
CONTINUOUS
10
1.28742
20
1.34798
11
1.28232
21
1.36085
0
LINE
8
BLACK
6
CONTINUOUS
10
1.28232
20
1.36085
11
1.27869
21
1.37422
0
LINE
8
BLACK
6
CONTINUOUS
10
1.27869
20
1.37422
11
1.27658
21
1.3879
0
LINE
8
BLACK
6
CONTINUOUS
10
1.27658
20
1.3879
11
1.276
21
1.40173
0
LINE
8
BLACK
6
CONTINUOUS
10
1.276
20
1.40173
11
1.27696
21
1.41554
0
LINE
8
BLACK
6
CONTINUOUS
10
1.27696
20
1.41554
11
1.27946
21
1.42916
0
LINE
8
BLACK
6
CONTINUOUS
10
1.27946
20
1.42916
11
1.28346
21
1.44242
0
LINE
8
BLACK
6
CONTINUOUS
10
1.28346
20
1.44242
11
1.28892
21
1.45514
0
LINE
8
BLACK
6
CONTINUOUS
10
1.28892
20
1.45514
11
1.29576
21
1.46718
0
LINE
8
BLACK
6
CONTINUOUS
10
1.29576
20
1.46718
11
1.30389
21
1.47838
0
LINE
8
BLACK
6
CONTINUOUS
10
1.30389
20
1.47838
11
1.31323
21
1.48861
0
LINE
8
BLACK
6
CONTINUOUS
10
1.31323
20
1.48861
11
1.32365
21
1.49773
0
LINE
8
BLACK
6
CONTINUOUS
10
1.32365
20
1.49773
11
1.33502
21
1.50563
0
LINE
8
BLACK
6
CONTINUOUS
10
1.33502
20
1.50563
11
1.3472
21
1.51221
0
LINE
8
BLACK
6
CONTINUOUS
10
1.3472
20
1.51221
11
1.36003
21
1.5174
0
LINE
8
BLACK
6
CONTINUOUS
10
1.36003
20
1.5174
11
1.37337
21
1.52112
0
LINE
8
BLACK
6
CONTINUOUS
10
1.37337
20
1.52112
11
1.38704
21
1.52334
0
LINE
8
BLACK
6
CONTINUOUS
10
1.38704
20
1.52334
11
1.40087
21
1.52401
0
LINE
8
BLACK
6
CONTINUOUS
10
1.40087
20
1.52401
11
1.41468
21
1.52314
0
LINE
8
BLACK
6
CONTINUOUS
10
0.214684
20
1.52314
11
0.228319
21
1.52074
0
LINE
8
BLACK
6
CONTINUOUS
10
0.228319
20
1.52074
11
0.241601
21
1.51683
0
LINE
8
BLACK
6
CONTINUOUS
10
0.241601
20
1.51683
11
0.254365
21
1.51146
0
LINE
8
BLACK
6
CONTINUOUS
10
0.254365
20
1.51146
11
0.266451
21
1.50471
0
LINE
8
BLACK
6
CONTINUOUS
10
0.266451
20
1.50471
11
0.277709
21
1.49665
0
LINE
8
BLACK
6
CONTINUOUS
10
0.277709
20
1.49665
11
0.287998
21
1.48739
0
LINE
8
BLACK
6
CONTINUOUS
10
0.287998
20
1.48739
11
0.29719
21
1.47703
0
LINE
8
BLACK
6
CONTINUOUS
10
0.29719
20
1.47703
11
0.305171
21
1.46572
0
LINE
8
BLACK
6
CONTINUOUS
10
0.305171
20
1.46572
11
0.311841
21
1.45359
0
LINE
8
BLACK
6
CONTINUOUS
10
0.311841
20
1.45359
11
0.317118
21
1.44078
0
LINE
8
BLACK
6
CONTINUOUS
10
0.317118
20
1.44078
11
0.320934
21
1.42748
0
LINE
8
BLACK
6
CONTINUOUS
10
0.320934
20
1.42748
11
0.323243
21
1.41382
0
LINE
8
BLACK
6
CONTINUOUS
10
0.323243
20
1.41382
11
0.324016
21
1.4
0
LINE
8
BLACK
6
CONTINUOUS
10
0.324016
20
1.4
11
0.323967
21
1.39654
0
LINE
8
BLACK
6
CONTINUOUS
10
0.323967
20
1.39654
11
0.322809
21
1.38274
0
LINE
8
BLACK
6
CONTINUOUS
10
0.322809
20
1.38274
11
0.32012
21
1.36916
0
LINE
8
BLACK
6
CONTINUOUS
10
0.32012
20
1.36916
11
0.315933
21
1.35596
0
LINE
8
BLACK
6
CONTINUOUS
10
0.315933
20
1.35596
11
0.310302
21
1.34331
0
LINE
8
BLACK
6
CONTINUOUS
10
0.310302
20
1.34331
11
0.303295
21
1.33137
0
LINE
8
BLACK
6
CONTINUOUS
10
0.303295
20
1.33137
11
0.295002
21
1.32028
0
LINE
8
BLACK
6
CONTINUOUS
10
0.295002
20
1.32028
11
0.285524
21
1.31019
0
LINE
8
BLACK
6
CONTINUOUS
10
0.285524
20
1.31019
11
0.27498
21
1.30122
0
LINE
8
BLACK
6
CONTINUOUS
10
0.27498
20
1.30122
11
0.263501
21
1.29348
0
LINE
8
BLACK
6
CONTINUOUS
10
0.263501
20
1.29348
11
0.251231
21
1.28706
0
LINE
8
BLACK
6
CONTINUOUS
10
0.251231
20
1.28706
11
0.238323
21
1.28205
0
LINE
8
BLACK
6
CONTINUOUS
10
0.238323
20
1.28205
11
0.224937
21
1.27852
0
LINE
8
BLACK
6
CONTINUOUS
10
0.224937
20
1.27852
11
0.21124
21
1.27649
0
LINE
8
BLACK
6
CONTINUOUS
10
0.21124
20
1.27649
11
0.197403
21
1.27601
0
LINE
8
BLACK
6
CONTINUOUS
10
0.197403
20
1.27601
11
0.183598
21
1.27707
0
LINE
8
BLACK
6
CONTINUOUS
10
0.183598
20
1.27707
11
0.169998
21
1.27967
0
LINE
8
BLACK
6
CONTINUOUS
10
0.169998
20
1.27967
11
0.156772
21
1.28376
0
LINE
8
BLACK
6
CONTINUOUS
10
0.156772
20
1.28376
11
0.144084
21
1.28931
0
LINE
8
BLACK
6
CONTINUOUS
10
0.144084
20
1.28931
11
0.132094
21
1.29623
0
LINE
8
BLACK
6
CONTINUOUS
10
0.132094
20
1.29623
11
0.120949
21
1.30444
0
LINE
8
BLACK
6
CONTINUOUS
10
0.120949
20
1.30444
11
0.110791
21
1.31385
0
LINE
8
BLACK
6
CONTINUOUS
10
0.110791
20
1.31385
11
0.101744
21
1.32433
0
LINE
8
BLACK
6
CONTINUOUS
10
0.101744
20
1.32433
11
0.0939214
21
1.33576
0
LINE
8
BLACK
6
CONTINUOUS
10
0.0939214
20
1.33576
11
0.0874213
21
1.34798
0
LINE
8
BLACK
6
CONTINUOUS
10
0.0874213
20
1.34798
11
0.0823244
21
1.36085
0
LINE
8
BLACK
6
CONTINUOUS
10
0.0823244
20
1.36085
11
0.0786943
21
1.37422
0
LINE
8
BLACK
6
CONTINUOUS
10
0.0786943
20
1.37422
11
0.0765761
21
1.3879
0
LINE
8
BLACK
6
CONTINUOUS
10
0.0765761
20
1.3879
11
0.0759963
21
1.40173
0
LINE
8
BLACK
6
CONTINUOUS
10
0.0759963
20
1.40173
11
0.0769622
21
1.41554
0
LINE
8
BLACK
6
CONTINUOUS
10
0.0769622
20
1.41554
11
0.0794615
21
1.42916
0
LINE
8
BLACK
6
CONTINUOUS
10
0.0794615
20
1.42916
11
0.0834633
21
1.44242
0
LINE
8
BLACK
6
CONTINUOUS
10
0.0834633
20
1.44242
11
0.0889176
21
1.45514
0
LINE
8
BLACK
6
CONTINUOUS
10
0.0889176
20
1.45514
11
0.0957565
21
1.46718
0
LINE
8
BLACK
6
CONTINUOUS
10
0.0957565
20
1.46718
11
0.103895
21
1.47838
0
LINE
8
BLACK
6
CONTINUOUS
10
0.103895
20
1.47838
11
0.113231
21
1.48861
0
LINE
8
BLACK
6
CONTINUOUS
10
0.113231
20
1.48861
11
0.123648
21
1.49773
0
LINE
8
BLACK
6
CONTINUOUS
10
0.123648
20
1.49773
11
0.135017
21
1.50563
0
LINE
8
BLACK
6
CONTINUOUS
10
0.135017
20
1.50563
11
0.147197
21
1.51221
0
LINE
8
BLACK
6
CONTINUOUS
10
0.147197
20
1.51221
11
0.160034
21
1.5174
0
LINE
8
BLACK
6
CONTINUOUS
10
0.160034
20
1.5174
11
0.173369
21
1.52112
0
LINE
8
BLACK
6
CONTINUOUS
10
0.173369
20
1.52112
11
0.187037
21
1.52334
0
LINE
8
BLACK
6
CONTINUOUS
10
0.187037
20
1.52334
11
0.200866
21
1.52401
0
LINE
8
BLACK
6
CONTINUOUS
10
0.200866
20
1.52401
11
0.214684
21
1.52314
  0
ENDSEC
  0
EOF
