  0
SECTION
  2
HEADER
  9
$ANGBASE
  50
0.0
  9
$ANGDIR
  70
1
  9
$MEASUREMENT
  70
0
  0
ENDSEC
  0
SECTION
  2
TABLES
  0
TABLE
  2
LTYPE
  70
4
  0
LTYPE
  5
40F
  2
CONTINUOUS
  70
0
  3
Solid line
  72
65
  73
0
  40
0.0
  0
LTYPE
  5
410
  2
DASHDOT
 70
0
  3
Dash Dot ____ _ ____ _
 72
65
 73
4
 40
2.0
 49
1.25
 49
-0.25
 49
0.25
 49
-0.25
  0
LTYPE
  5
411
  2
DASHED
 70
0
  3
Dashed __ __ __ __ __
 72
65
 73
2
 40
0.75
 49
0.5
 49
-0.25
  0
LTYPE
  5
43B
  2
DOTTED
 70
0
  3
Dotted .  .  .  .
 72
65
 73
2
 40
0.2
 49
0.0
 49
-0.2
  0
ENDTAB
  0
TABLE
  2
STYLE
  70
4
  0
STYLE
  2
KICAD
  70
0
  40
0
  41
1
  42
1
  50
0
  71
0
  3
isocp.shx
  0
STYLE
  2
KICADB
  70
0
  40
0
  41
1
  42
1
  50
0
  71
0
  3
isocp.shx
  0
STYLE
  2
KICADI
  70
0
  40
0
  41
1
  42
1
  50
15
  71
0
  3
isocp.shx
  0
STYLE
  2
KICADBI
  70
0
  40
0
  41
1
  42
1
  50
15
  71
0
  3
isocp.shx
  0
ENDTAB
  0
TABLE
  2
LAYER
  70
1
  0
LAYER
  2
BLACK
  70
0
  62
7
  6
CONTINUOUS
  0
ENDTAB
  0
ENDSEC
  0
SECTION
  2
ENTITIES
0
LINE
8
BLACK
6
CONTINUOUS
10
0.820017
20
0.194432
11
0.820239
21
0.194471
0
LINE
8
BLACK
6
CONTINUOUS
10
0.820239
20
0.194471
11
0.820937
21
0.194069
0
LINE
8
BLACK
6
CONTINUOUS
10
0.820937
20
0.194069
11
0.821685
21
0.193773
0
LINE
8
BLACK
6
CONTINUOUS
10
0.821685
20
0.193773
11
0.821793
21
0.193574
0
LINE
8
BLACK
6
CONTINUOUS
10
0.821793
20
0.193574
11
0.821988
21
0.193462
0
LINE
8
BLACK
6
CONTINUOUS
10
0.821988
20
0.193462
11
0.822264
21
0.192705
0
LINE
8
BLACK
6
CONTINUOUS
10
0.822264
20
0.192705
11
0.822647
21
0.191997
0
LINE
8
BLACK
6
CONTINUOUS
10
0.822647
20
0.191997
11
0.822602
21
0.191776
0
LINE
8
BLACK
6
CONTINUOUS
10
0.822602
20
0.191776
11
0.822679
21
0.191564
0
LINE
8
BLACK
6
CONTINUOUS
10
0.822679
20
0.191564
11
0.822679
21
0.175769
0
LINE
8
BLACK
6
CONTINUOUS
10
0.822679
20
0.175769
11
0.83285
21
0.175769
0
LINE
8
BLACK
6
CONTINUOUS
10
0.83285
20
0.175769
11
0.83386
21
0.175591
0
LINE
8
BLACK
6
CONTINUOUS
10
0.83386
20
0.175591
11
0.835407
21
0.174292
0
LINE
8
BLACK
6
CONTINUOUS
10
0.835407
20
0.174292
11
0.835758
21
0.172303
0
LINE
8
BLACK
6
CONTINUOUS
10
0.835758
20
0.172303
11
0.834748
21
0.170554
0
LINE
8
BLACK
6
CONTINUOUS
10
0.834748
20
0.170554
11
0.83285
21
0.169863
0
LINE
8
BLACK
6
CONTINUOUS
10
0.83285
20
0.169863
11
0.822679
21
0.169863
0
LINE
8
BLACK
6
CONTINUOUS
10
0.822679
20
0.169863
11
0.822679
21
0.167192
0
LINE
8
BLACK
6
CONTINUOUS
10
0.822679
20
0.167192
11
0.822501
21
0.166182
0
LINE
8
BLACK
6
CONTINUOUS
10
0.822501
20
0.166182
11
0.821203
21
0.164634
0
LINE
8
BLACK
6
CONTINUOUS
10
0.821203
20
0.164634
11
0.819214
21
0.164284
0
LINE
8
BLACK
6
CONTINUOUS
10
0.819214
20
0.164284
11
0.817464
21
0.165294
0
LINE
8
BLACK
6
CONTINUOUS
10
0.817464
20
0.165294
11
0.816774
21
0.167192
0
LINE
8
BLACK
6
CONTINUOUS
10
0.816774
20
0.167192
11
0.816774
21
0.169863
0
LINE
8
BLACK
6
CONTINUOUS
10
0.816774
20
0.169863
11
0.806603
21
0.169863
0
LINE
8
BLACK
6
CONTINUOUS
10
0.806603
20
0.169863
11
0.805593
21
0.170041
0
LINE
8
BLACK
6
CONTINUOUS
10
0.805593
20
0.170041
11
0.804046
21
0.171339
0
LINE
8
BLACK
6
CONTINUOUS
10
0.804046
20
0.171339
11
0.803695
21
0.173329
0
LINE
8
BLACK
6
CONTINUOUS
10
0.803695
20
0.173329
11
0.804705
21
0.175078
0
LINE
8
BLACK
6
CONTINUOUS
10
0.804705
20
0.175078
11
0.806603
21
0.175769
0
LINE
8
BLACK
6
CONTINUOUS
10
0.806603
20
0.175769
11
0.816774
21
0.175769
0
LINE
8
BLACK
6
CONTINUOUS
10
0.816774
20
0.175769
11
0.816774
21
0.187467
0
LINE
8
BLACK
6
CONTINUOUS
10
0.816774
20
0.187467
11
0.792539
21
0.179389
0
LINE
8
BLACK
6
CONTINUOUS
10
0.792539
20
0.179389
11
0.791524
21
0.179238
0
LINE
8
BLACK
6
CONTINUOUS
10
0.791524
20
0.179238
11
0.789646
21
0.17998
0
LINE
8
BLACK
6
CONTINUOUS
10
0.789646
20
0.17998
11
0.788684
21
0.181757
0
LINE
8
BLACK
6
CONTINUOUS
10
0.788684
20
0.181757
11
0.789089
21
0.183735
0
LINE
8
BLACK
6
CONTINUOUS
10
0.789089
20
0.183735
11
0.790671
21
0.184991
0
LINE
8
BLACK
6
CONTINUOUS
10
0.790671
20
0.184991
11
0.818793
21
0.194365
0
LINE
8
BLACK
6
CONTINUOUS
10
0.818793
20
0.194365
11
0.819807
21
0.194515
0
LINE
8
BLACK
6
CONTINUOUS
10
0.819807
20
0.194515
11
0.820017
21
0.194432
0
LINE
8
BLACK
6
CONTINUOUS
10
1.07815
20
0.195651
11
1.08002
21
0.193777
0
LINE
8
BLACK
6
CONTINUOUS
10
1.08002
20
0.193777
11
1.08053
21
0.193054
0
LINE
8
BLACK
6
CONTINUOUS
10
1.08053
20
0.193054
11
1.08058
21
0.193009
0
LINE
8
BLACK
6
CONTINUOUS
10
1.08058
20
0.193009
11
1.08245
21
0.18926
0
LINE
8
BLACK
6
CONTINUOUS
10
1.08245
20
0.18926
11
1.08274
21
0.188277
0
LINE
8
BLACK
6
CONTINUOUS
10
1.08274
20
0.188277
11
1.0827
21
0.188105
0
LINE
8
BLACK
6
CONTINUOUS
10
1.0827
20
0.188105
11
1.08276
21
0.187939
0
LINE
8
BLACK
6
CONTINUOUS
10
1.08276
20
0.187939
11
1.08276
21
0.178565
0
LINE
8
BLACK
6
CONTINUOUS
10
1.08276
20
0.178565
11
1.08258
21
0.177555
0
LINE
8
BLACK
6
CONTINUOUS
10
1.08258
20
0.177555
11
1.08247
21
0.17742
0
LINE
8
BLACK
6
CONTINUOUS
10
1.08247
20
0.17742
11
1.08245
21
0.177245
0
LINE
8
BLACK
6
CONTINUOUS
10
1.08245
20
0.177245
11
1.08058
21
0.173495
0
LINE
8
BLACK
6
CONTINUOUS
10
1.08058
20
0.173495
11
1.08005
21
0.172786
0
LINE
8
BLACK
6
CONTINUOUS
10
1.08005
20
0.172786
11
1.08002
21
0.172728
0
LINE
8
BLACK
6
CONTINUOUS
10
1.08002
20
0.172728
11
1.07815
21
0.170853
0
LINE
8
BLACK
6
CONTINUOUS
10
1.07815
20
0.170853
11
1.07743
21
0.170347
0
LINE
8
BLACK
6
CONTINUOUS
10
1.07743
20
0.170347
11
1.07738
21
0.1703
0
LINE
8
BLACK
6
CONTINUOUS
10
1.07738
20
0.1703
11
1.07363
21
0.168425
0
LINE
8
BLACK
6
CONTINUOUS
10
1.07363
20
0.168425
11
1.07265
21
0.168133
0
LINE
8
BLACK
6
CONTINUOUS
10
1.07265
20
0.168133
11
1.07248
21
0.168174
0
LINE
8
BLACK
6
CONTINUOUS
10
1.07248
20
0.168174
11
1.07231
21
0.168114
0
LINE
8
BLACK
6
CONTINUOUS
10
1.07231
20
0.168114
11
1.06294
21
0.168114
0
LINE
8
BLACK
6
CONTINUOUS
10
1.06294
20
0.168114
11
1.06193
21
0.168292
0
LINE
8
BLACK
6
CONTINUOUS
10
1.06193
20
0.168292
11
1.06179
21
0.168405
0
LINE
8
BLACK
6
CONTINUOUS
10
1.06179
20
0.168405
11
1.06162
21
0.168425
0
LINE
8
BLACK
6
CONTINUOUS
10
1.06162
20
0.168425
11
1.05787
21
0.1703
0
LINE
8
BLACK
6
CONTINUOUS
10
1.05787
20
0.1703
11
1.05716
21
0.170826
0
LINE
8
BLACK
6
CONTINUOUS
10
1.05716
20
0.170826
11
1.0571
21
0.170853
0
LINE
8
BLACK
6
CONTINUOUS
10
1.0571
20
0.170853
11
1.05523
21
0.172728
0
LINE
8
BLACK
6
CONTINUOUS
10
1.05523
20
0.172728
11
1.05472
21
0.173451
0
LINE
8
BLACK
6
CONTINUOUS
10
1.05472
20
0.173451
11
1.05467
21
0.173495
0
LINE
8
BLACK
6
CONTINUOUS
10
1.05467
20
0.173495
11
1.0528
21
0.177245
0
LINE
8
BLACK
6
CONTINUOUS
10
1.0528
20
0.177245
11
1.0525
21
0.178228
0
LINE
8
BLACK
6
CONTINUOUS
10
1.0525
20
0.178228
11
1.05255
21
0.178399
0
LINE
8
BLACK
6
CONTINUOUS
10
1.05255
20
0.178399
11
1.05249
21
0.178565
0
LINE
8
BLACK
6
CONTINUOUS
10
1.05249
20
0.178565
11
1.05249
21
0.187939
0
LINE
8
BLACK
6
CONTINUOUS
10
1.05249
20
0.187939
11
1.05266
21
0.188949
0
LINE
8
BLACK
6
CONTINUOUS
10
1.05266
20
0.188949
11
1.05278
21
0.189084
0
LINE
8
BLACK
6
CONTINUOUS
10
1.05278
20
0.189084
11
1.0528
21
0.18926
0
LINE
8
BLACK
6
CONTINUOUS
10
1.0528
20
0.18926
11
1.05316
21
0.189994
0
LINE
8
BLACK
6
CONTINUOUS
10
1.05316
20
0.189994
11
1.04339
21
0.189017
0
LINE
8
BLACK
6
CONTINUOUS
10
1.04339
20
0.189017
11
1.04339
21
0.172941
0
LINE
8
BLACK
6
CONTINUOUS
10
1.04339
20
0.172941
11
1.04321
21
0.171931
0
LINE
8
BLACK
6
CONTINUOUS
10
1.04321
20
0.171931
11
1.04192
21
0.170384
0
LINE
8
BLACK
6
CONTINUOUS
10
1.04192
20
0.170384
11
1.03993
21
0.170033
0
LINE
8
BLACK
6
CONTINUOUS
10
1.03993
20
0.170033
11
1.03818
21
0.171043
0
LINE
8
BLACK
6
CONTINUOUS
10
1.03818
20
0.171043
11
1.03749
21
0.172941
0
LINE
8
BLACK
6
CONTINUOUS
10
1.03749
20
0.172941
11
1.03749
21
0.191689
0
LINE
8
BLACK
6
CONTINUOUS
10
1.03749
20
0.191689
11
1.03751
21
0.191843
0
LINE
8
BLACK
6
CONTINUOUS
10
1.03751
20
0.191843
11
1.0375
21
0.19191
0
LINE
8
BLACK
6
CONTINUOUS
10
1.0375
20
0.19191
11
1.03755
21
0.192021
0
LINE
8
BLACK
6
CONTINUOUS
10
1.03755
20
0.192021
11
1.03767
21
0.192699
0
LINE
8
BLACK
6
CONTINUOUS
10
1.03767
20
0.192699
11
1.03807
21
0.193179
0
LINE
8
BLACK
6
CONTINUOUS
10
1.03807
20
0.193179
11
1.03833
21
0.193751
0
LINE
8
BLACK
6
CONTINUOUS
10
1.03833
20
0.193751
11
1.0387
21
0.19393
0
LINE
8
BLACK
6
CONTINUOUS
10
1.0387
20
0.19393
11
1.03896
21
0.194246
0
LINE
8
BLACK
6
CONTINUOUS
10
1.03896
20
0.194246
11
1.03958
21
0.194355
0
LINE
8
BLACK
6
CONTINUOUS
10
1.03958
20
0.194355
11
1.04015
21
0.194627
0
LINE
8
BLACK
6
CONTINUOUS
10
1.04015
20
0.194627
11
1.05889
21
0.196502
0
LINE
8
BLACK
6
CONTINUOUS
10
1.05889
20
0.196502
11
1.05992
21
0.196425
0
LINE
8
BLACK
6
CONTINUOUS
10
1.05992
20
0.196425
11
1.05993
21
0.196414
0
LINE
8
BLACK
6
CONTINUOUS
10
1.05993
20
0.196414
11
1.05995
21
0.196416
0
LINE
8
BLACK
6
CONTINUOUS
10
1.05995
20
0.196416
11
1.06076
21
0.195847
0
LINE
8
BLACK
6
CONTINUOUS
10
1.06076
20
0.195847
11
1.06159
21
0.195287
0
LINE
8
BLACK
6
CONTINUOUS
10
1.06159
20
0.195287
11
1.06159
21
0.195268
0
LINE
8
BLACK
6
CONTINUOUS
10
1.06159
20
0.195268
11
1.06161
21
0.195257
0
LINE
8
BLACK
6
CONTINUOUS
10
1.06161
20
0.195257
11
1.06186
21
0.194298
0
LINE
8
BLACK
6
CONTINUOUS
10
1.06186
20
0.194298
11
1.06213
21
0.193343
0
LINE
8
BLACK
6
CONTINUOUS
10
1.06213
20
0.193343
11
1.06212
21
0.193325
0
LINE
8
BLACK
6
CONTINUOUS
10
1.06212
20
0.193325
11
1.06213
21
0.193306
0
LINE
8
BLACK
6
CONTINUOUS
10
1.06213
20
0.193306
11
1.06171
21
0.192408
0
LINE
8
BLACK
6
CONTINUOUS
10
1.06171
20
0.192408
11
1.0613
21
0.191502
0
LINE
8
BLACK
6
CONTINUOUS
10
1.0613
20
0.191502
11
1.06128
21
0.191493
0
LINE
8
BLACK
6
CONTINUOUS
10
1.06128
20
0.191493
11
1.06128
21
0.191476
0
LINE
8
BLACK
6
CONTINUOUS
10
1.06128
20
0.191476
11
1.05974
21
0.18994
0
LINE
8
BLACK
6
CONTINUOUS
10
1.05974
20
0.18994
11
1.05839
21
0.187242
0
LINE
8
BLACK
6
CONTINUOUS
10
1.05839
20
0.187242
11
1.05839
21
0.179262
0
LINE
8
BLACK
6
CONTINUOUS
10
1.05839
20
0.179262
11
1.05974
21
0.176565
0
LINE
8
BLACK
6
CONTINUOUS
10
1.05974
20
0.176565
11
1.06094
21
0.175368
0
LINE
8
BLACK
6
CONTINUOUS
10
1.06094
20
0.175368
11
1.06363
21
0.174019
0
LINE
8
BLACK
6
CONTINUOUS
10
1.06363
20
0.174019
11
1.07161
21
0.174019
0
LINE
8
BLACK
6
CONTINUOUS
10
1.07161
20
0.174019
11
1.07431
21
0.175368
0
LINE
8
BLACK
6
CONTINUOUS
10
1.07431
20
0.175368
11
1.07551
21
0.176565
0
LINE
8
BLACK
6
CONTINUOUS
10
1.07551
20
0.176565
11
1.07686
21
0.179262
0
LINE
8
BLACK
6
CONTINUOUS
10
1.07686
20
0.179262
11
1.07686
21
0.187242
0
LINE
8
BLACK
6
CONTINUOUS
10
1.07686
20
0.187242
11
1.07551
21
0.18994
0
LINE
8
BLACK
6
CONTINUOUS
10
1.07551
20
0.18994
11
1.07397
21
0.191476
0
LINE
8
BLACK
6
CONTINUOUS
10
1.07397
20
0.191476
11
1.07338
21
0.192316
0
LINE
8
BLACK
6
CONTINUOUS
10
1.07338
20
0.192316
11
1.07321
21
0.194328
0
LINE
8
BLACK
6
CONTINUOUS
10
1.07321
20
0.194328
11
1.07437
21
0.195982
0
LINE
8
BLACK
6
CONTINUOUS
10
1.07437
20
0.195982
11
1.07632
21
0.196505
0
LINE
8
BLACK
6
CONTINUOUS
10
1.07632
20
0.196505
11
1.07815
21
0.195651
0
LINE
8
BLACK
6
CONTINUOUS
10
0.957733
20
0.21061
11
0.958425
21
0.20894
0
LINE
8
BLACK
6
CONTINUOUS
10
0.958425
20
0.20894
11
0.958425
21
0.19106
0
LINE
8
BLACK
6
CONTINUOUS
10
0.958425
20
0.19106
11
0.957733
21
0.18939
0
LINE
8
BLACK
6
CONTINUOUS
10
0.957733
20
0.18939
11
0.956063
21
0.188698
0
LINE
8
BLACK
6
CONTINUOUS
10
0.956063
20
0.188698
11
0.954393
21
0.18939
0
LINE
8
BLACK
6
CONTINUOUS
10
0.954393
20
0.18939
11
0.953701
21
0.19106
0
LINE
8
BLACK
6
CONTINUOUS
10
0.953701
20
0.19106
11
0.953701
21
0.20894
0
LINE
8
BLACK
6
CONTINUOUS
10
0.953701
20
0.20894
11
0.954393
21
0.21061
0
LINE
8
BLACK
6
CONTINUOUS
10
0.954393
20
0.21061
11
0.956063
21
0.211302
0
LINE
8
BLACK
6
CONTINUOUS
10
0.956063
20
0.211302
11
0.957733
21
0.21061
0
LINE
8
BLACK
6
CONTINUOUS
10
0.910607
20
0.21061
11
0.911299
21
0.20894
0
LINE
8
BLACK
6
CONTINUOUS
10
0.911299
20
0.20894
11
0.911299
21
0.19106
0
LINE
8
BLACK
6
CONTINUOUS
10
0.911299
20
0.19106
11
0.910607
21
0.18939
0
LINE
8
BLACK
6
CONTINUOUS
10
0.910607
20
0.18939
11
0.908937
21
0.188698
0
LINE
8
BLACK
6
CONTINUOUS
10
0.908937
20
0.188698
11
0.907267
21
0.18939
0
LINE
8
BLACK
6
CONTINUOUS
10
0.907267
20
0.18939
11
0.906575
21
0.19106
0
LINE
8
BLACK
6
CONTINUOUS
10
0.906575
20
0.19106
11
0.906575
21
0.20894
0
LINE
8
BLACK
6
CONTINUOUS
10
0.906575
20
0.20894
11
0.907267
21
0.21061
0
LINE
8
BLACK
6
CONTINUOUS
10
0.907267
20
0.21061
11
0.908937
21
0.211302
0
LINE
8
BLACK
6
CONTINUOUS
10
0.908937
20
0.211302
11
0.910607
21
0.21061
0
LINE
8
BLACK
6
CONTINUOUS
10
0.852733
20
0.21061
11
0.853425
21
0.20894
0
LINE
8
BLACK
6
CONTINUOUS
10
0.853425
20
0.20894
11
0.853425
21
0.19106
0
LINE
8
BLACK
6
CONTINUOUS
10
0.853425
20
0.19106
11
0.852733
21
0.18939
0
LINE
8
BLACK
6
CONTINUOUS
10
0.852733
20
0.18939
11
0.851063
21
0.188698
0
LINE
8
BLACK
6
CONTINUOUS
10
0.851063
20
0.188698
11
0.849393
21
0.18939
0
LINE
8
BLACK
6
CONTINUOUS
10
0.849393
20
0.18939
11
0.848701
21
0.19106
0
LINE
8
BLACK
6
CONTINUOUS
10
0.848701
20
0.19106
11
0.848701
21
0.20894
0
LINE
8
BLACK
6
CONTINUOUS
10
0.848701
20
0.20894
11
0.849393
21
0.21061
0
LINE
8
BLACK
6
CONTINUOUS
10
0.849393
20
0.21061
11
0.851063
21
0.211302
0
LINE
8
BLACK
6
CONTINUOUS
10
0.851063
20
0.211302
11
0.852733
21
0.21061
0
LINE
8
BLACK
6
CONTINUOUS
10
1.01561
20
0.21061
11
1.0163
21
0.20894
0
LINE
8
BLACK
6
CONTINUOUS
10
1.0163
20
0.20894
11
1.0163
21
0.19106
0
LINE
8
BLACK
6
CONTINUOUS
10
1.0163
20
0.19106
11
1.01561
21
0.18939
0
LINE
8
BLACK
6
CONTINUOUS
10
1.01561
20
0.18939
11
1.01394
21
0.188698
0
LINE
8
BLACK
6
CONTINUOUS
10
1.01394
20
0.188698
11
1.01227
21
0.18939
0
LINE
8
BLACK
6
CONTINUOUS
10
1.01227
20
0.18939
11
1.01157
21
0.19106
0
LINE
8
BLACK
6
CONTINUOUS
10
1.01157
20
0.19106
11
1.01157
21
0.20894
0
LINE
8
BLACK
6
CONTINUOUS
10
1.01157
20
0.20894
11
1.01227
21
0.21061
0
LINE
8
BLACK
6
CONTINUOUS
10
1.01227
20
0.21061
11
1.01394
21
0.211302
0
LINE
8
BLACK
6
CONTINUOUS
10
1.01394
20
0.211302
11
1.01561
21
0.21061
0
LINE
8
BLACK
6
CONTINUOUS
10
0.83386
20
0.231834
11
0.835407
21
0.230535
0
LINE
8
BLACK
6
CONTINUOUS
10
0.835407
20
0.230535
11
0.835758
21
0.228546
0
LINE
8
BLACK
6
CONTINUOUS
10
0.835758
20
0.228546
11
0.834748
21
0.226797
0
LINE
8
BLACK
6
CONTINUOUS
10
0.834748
20
0.226797
11
0.83285
21
0.226106
0
LINE
8
BLACK
6
CONTINUOUS
10
0.83285
20
0.226106
11
0.817055
21
0.226106
0
LINE
8
BLACK
6
CONTINUOUS
10
0.817055
20
0.226106
11
0.817055
21
0.221222
0
LINE
8
BLACK
6
CONTINUOUS
10
0.817055
20
0.221222
11
0.834543
21
0.208981
0
LINE
8
BLACK
6
CONTINUOUS
10
0.834543
20
0.208981
11
0.835268
21
0.208256
0
LINE
8
BLACK
6
CONTINUOUS
10
0.835268
20
0.208256
11
0.835791
21
0.206305
0
LINE
8
BLACK
6
CONTINUOUS
10
0.835791
20
0.206305
11
0.834938
21
0.204474
0
LINE
8
BLACK
6
CONTINUOUS
10
0.834938
20
0.204474
11
0.833107
21
0.20362
0
LINE
8
BLACK
6
CONTINUOUS
10
0.833107
20
0.20362
11
0.831156
21
0.204143
0
LINE
8
BLACK
6
CONTINUOUS
10
0.831156
20
0.204143
11
0.817047
21
0.214019
0
LINE
8
BLACK
6
CONTINUOUS
10
0.817047
20
0.214019
11
0.816877
21
0.213051
0
LINE
8
BLACK
6
CONTINUOUS
10
0.816877
20
0.213051
11
0.816763
21
0.212916
0
LINE
8
BLACK
6
CONTINUOUS
10
0.816763
20
0.212916
11
0.816743
21
0.21274
0
LINE
8
BLACK
6
CONTINUOUS
10
0.816743
20
0.21274
11
0.814868
21
0.208991
0
LINE
8
BLACK
6
CONTINUOUS
10
0.814868
20
0.208991
11
0.814342
21
0.208282
0
LINE
8
BLACK
6
CONTINUOUS
10
0.814342
20
0.208282
11
0.814315
21
0.208223
0
LINE
8
BLACK
6
CONTINUOUS
10
0.814315
20
0.208223
11
0.81244
21
0.206349
0
LINE
8
BLACK
6
CONTINUOUS
10
0.81244
20
0.206349
11
0.811717
21
0.205842
0
LINE
8
BLACK
6
CONTINUOUS
10
0.811717
20
0.205842
11
0.811673
21
0.205795
0
LINE
8
BLACK
6
CONTINUOUS
10
0.811673
20
0.205795
11
0.807923
21
0.203921
0
LINE
8
BLACK
6
CONTINUOUS
10
0.807923
20
0.203921
11
0.80694
21
0.203628
0
LINE
8
BLACK
6
CONTINUOUS
10
0.80694
20
0.203628
11
0.806769
21
0.203669
0
LINE
8
BLACK
6
CONTINUOUS
10
0.806769
20
0.203669
11
0.806603
21
0.203609
0
LINE
8
BLACK
6
CONTINUOUS
10
0.806603
20
0.203609
11
0.800979
21
0.203609
0
LINE
8
BLACK
6
CONTINUOUS
10
0.800979
20
0.203609
11
0.799969
21
0.203787
0
LINE
8
BLACK
6
CONTINUOUS
10
0.799969
20
0.203787
11
0.799833
21
0.2039
0
LINE
8
BLACK
6
CONTINUOUS
10
0.799833
20
0.2039
11
0.799658
21
0.203921
0
LINE
8
BLACK
6
CONTINUOUS
10
0.799658
20
0.203921
11
0.795909
21
0.205795
0
LINE
8
BLACK
6
CONTINUOUS
10
0.795909
20
0.205795
11
0.7952
21
0.206321
0
LINE
8
BLACK
6
CONTINUOUS
10
0.7952
20
0.206321
11
0.795141
21
0.206349
0
LINE
8
BLACK
6
CONTINUOUS
10
0.795141
20
0.206349
11
0.793266
21
0.208223
0
LINE
8
BLACK
6
CONTINUOUS
10
0.793266
20
0.208223
11
0.79276
21
0.208946
0
LINE
8
BLACK
6
CONTINUOUS
10
0.79276
20
0.208946
11
0.792713
21
0.208991
0
LINE
8
BLACK
6
CONTINUOUS
10
0.792713
20
0.208991
11
0.790839
21
0.21274
0
LINE
8
BLACK
6
CONTINUOUS
10
0.790839
20
0.21274
11
0.790546
21
0.213723
0
LINE
8
BLACK
6
CONTINUOUS
10
0.790546
20
0.213723
11
0.790587
21
0.213895
0
LINE
8
BLACK
6
CONTINUOUS
10
0.790587
20
0.213895
11
0.790527
21
0.214061
0
LINE
8
BLACK
6
CONTINUOUS
10
0.790527
20
0.214061
11
0.790527
21
0.229059
0
LINE
8
BLACK
6
CONTINUOUS
10
0.790527
20
0.229059
11
0.790594
21
0.229442
0
LINE
8
BLACK
6
CONTINUOUS
10
0.790594
20
0.229442
11
0.790572
21
0.229572
0
LINE
8
BLACK
6
CONTINUOUS
10
0.790572
20
0.229572
11
0.790637
21
0.229685
0
LINE
8
BLACK
6
CONTINUOUS
10
0.790637
20
0.229685
11
0.790705
21
0.230069
0
LINE
8
BLACK
6
CONTINUOUS
10
0.790705
20
0.230069
11
0.791198
21
0.230656
0
LINE
8
BLACK
6
CONTINUOUS
10
0.791198
20
0.230656
11
0.791582
21
0.231321
0
LINE
8
BLACK
6
CONTINUOUS
10
0.791582
20
0.231321
11
0.791832
21
0.231412
0
LINE
8
BLACK
6
CONTINUOUS
10
0.791832
20
0.231412
11
0.792003
21
0.231616
0
LINE
8
BLACK
6
CONTINUOUS
10
0.792003
20
0.231616
11
0.792759
21
0.231749
0
LINE
8
BLACK
6
CONTINUOUS
10
0.792759
20
0.231749
11
0.79348
21
0.232012
0
LINE
8
BLACK
6
CONTINUOUS
10
0.79348
20
0.232012
11
0.83285
21
0.232012
0
LINE
8
BLACK
6
CONTINUOUS
10
0.83285
20
0.232012
11
0.83386
21
0.231834
0
LINE
8
BLACK
6
CONTINUOUS
10
0.796432
20
0.226106
11
0.796432
21
0.214758
0
LINE
8
BLACK
6
CONTINUOUS
10
0.796432
20
0.214758
11
0.797781
21
0.21206
0
LINE
8
BLACK
6
CONTINUOUS
10
0.797781
20
0.21206
11
0.798978
21
0.210863
0
LINE
8
BLACK
6
CONTINUOUS
10
0.798978
20
0.210863
11
0.801676
21
0.209514
0
LINE
8
BLACK
6
CONTINUOUS
10
0.801676
20
0.209514
11
0.805906
21
0.209514
0
LINE
8
BLACK
6
CONTINUOUS
10
0.805906
20
0.209514
11
0.808603
21
0.210863
0
LINE
8
BLACK
6
CONTINUOUS
10
0.808603
20
0.210863
11
0.8098
21
0.21206
0
LINE
8
BLACK
6
CONTINUOUS
10
0.8098
20
0.21206
11
0.811149
21
0.214758
0
LINE
8
BLACK
6
CONTINUOUS
10
0.811149
20
0.214758
11
0.811149
21
0.226106
0
LINE
8
BLACK
6
CONTINUOUS
10
0.811149
20
0.226106
11
0.796432
21
0.226106
0
LINE
8
BLACK
6
CONTINUOUS
10
1.08082
20
0.233834
11
1.08237
21
0.232535
0
LINE
8
BLACK
6
CONTINUOUS
10
1.08237
20
0.232535
11
1.08272
21
0.230546
0
LINE
8
BLACK
6
CONTINUOUS
10
1.08272
20
0.230546
11
1.08171
21
0.228797
0
LINE
8
BLACK
6
CONTINUOUS
10
1.08171
20
0.228797
11
1.07981
21
0.228106
0
LINE
8
BLACK
6
CONTINUOUS
10
1.07981
20
0.228106
11
1.06402
21
0.228106
0
LINE
8
BLACK
6
CONTINUOUS
10
1.06402
20
0.228106
11
1.06402
21
0.223222
0
LINE
8
BLACK
6
CONTINUOUS
10
1.06402
20
0.223222
11
1.0815
21
0.210981
0
LINE
8
BLACK
6
CONTINUOUS
10
1.0815
20
0.210981
11
1.08223
21
0.210256
0
LINE
8
BLACK
6
CONTINUOUS
10
1.08223
20
0.210256
11
1.08275
21
0.208305
0
LINE
8
BLACK
6
CONTINUOUS
10
1.08275
20
0.208305
11
1.0819
21
0.206474
0
LINE
8
BLACK
6
CONTINUOUS
10
1.0819
20
0.206474
11
1.08007
21
0.20562
0
LINE
8
BLACK
6
CONTINUOUS
10
1.08007
20
0.20562
11
1.07812
21
0.206143
0
LINE
8
BLACK
6
CONTINUOUS
10
1.07812
20
0.206143
11
1.06401
21
0.216019
0
LINE
8
BLACK
6
CONTINUOUS
10
1.06401
20
0.216019
11
1.06384
21
0.215051
0
LINE
8
BLACK
6
CONTINUOUS
10
1.06384
20
0.215051
11
1.06372
21
0.214916
0
LINE
8
BLACK
6
CONTINUOUS
10
1.06372
20
0.214916
11
1.0637
21
0.21474
0
LINE
8
BLACK
6
CONTINUOUS
10
1.0637
20
0.21474
11
1.06183
21
0.210991
0
LINE
8
BLACK
6
CONTINUOUS
10
1.06183
20
0.210991
11
1.0613
21
0.210282
0
LINE
8
BLACK
6
CONTINUOUS
10
1.0613
20
0.210282
11
1.06128
21
0.210223
0
LINE
8
BLACK
6
CONTINUOUS
10
1.06128
20
0.210223
11
1.0594
21
0.208349
0
LINE
8
BLACK
6
CONTINUOUS
10
1.0594
20
0.208349
11
1.05868
21
0.207842
0
LINE
8
BLACK
6
CONTINUOUS
10
1.05868
20
0.207842
11
1.05863
21
0.207795
0
LINE
8
BLACK
6
CONTINUOUS
10
1.05863
20
0.207795
11
1.05488
21
0.205921
0
LINE
8
BLACK
6
CONTINUOUS
10
1.05488
20
0.205921
11
1.0539
21
0.205628
0
LINE
8
BLACK
6
CONTINUOUS
10
1.0539
20
0.205628
11
1.05373
21
0.205669
0
LINE
8
BLACK
6
CONTINUOUS
10
1.05373
20
0.205669
11
1.05356
21
0.205609
0
LINE
8
BLACK
6
CONTINUOUS
10
1.05356
20
0.205609
11
1.04794
21
0.205609
0
LINE
8
BLACK
6
CONTINUOUS
10
1.04794
20
0.205609
11
1.04693
21
0.205787
0
LINE
8
BLACK
6
CONTINUOUS
10
1.04693
20
0.205787
11
1.04679
21
0.2059
0
LINE
8
BLACK
6
CONTINUOUS
10
1.04679
20
0.2059
11
1.04662
21
0.205921
0
LINE
8
BLACK
6
CONTINUOUS
10
1.04662
20
0.205921
11
1.04287
21
0.207795
0
LINE
8
BLACK
6
CONTINUOUS
10
1.04287
20
0.207795
11
1.04216
21
0.208321
0
LINE
8
BLACK
6
CONTINUOUS
10
1.04216
20
0.208321
11
1.0421
21
0.208349
0
LINE
8
BLACK
6
CONTINUOUS
10
1.0421
20
0.208349
11
1.04023
21
0.210223
0
LINE
8
BLACK
6
CONTINUOUS
10
1.04023
20
0.210223
11
1.03972
21
0.210946
0
LINE
8
BLACK
6
CONTINUOUS
10
1.03972
20
0.210946
11
1.03967
21
0.210991
0
LINE
8
BLACK
6
CONTINUOUS
10
1.03967
20
0.210991
11
1.0378
21
0.21474
0
LINE
8
BLACK
6
CONTINUOUS
10
1.0378
20
0.21474
11
1.03751
21
0.215723
0
LINE
8
BLACK
6
CONTINUOUS
10
1.03751
20
0.215723
11
1.03755
21
0.215895
0
LINE
8
BLACK
6
CONTINUOUS
10
1.03755
20
0.215895
11
1.03749
21
0.216061
0
LINE
8
BLACK
6
CONTINUOUS
10
1.03749
20
0.216061
11
1.03749
21
0.231059
0
LINE
8
BLACK
6
CONTINUOUS
10
1.03749
20
0.231059
11
1.03756
21
0.231442
0
LINE
8
BLACK
6
CONTINUOUS
10
1.03756
20
0.231442
11
1.03753
21
0.231572
0
LINE
8
BLACK
6
CONTINUOUS
10
1.03753
20
0.231572
11
1.0376
21
0.231685
0
LINE
8
BLACK
6
CONTINUOUS
10
1.0376
20
0.231685
11
1.03767
21
0.232069
0
LINE
8
BLACK
6
CONTINUOUS
10
1.03767
20
0.232069
11
1.03816
21
0.232656
0
LINE
8
BLACK
6
CONTINUOUS
10
1.03816
20
0.232656
11
1.03854
21
0.233321
0
LINE
8
BLACK
6
CONTINUOUS
10
1.03854
20
0.233321
11
1.03879
21
0.233412
0
LINE
8
BLACK
6
CONTINUOUS
10
1.03879
20
0.233412
11
1.03896
21
0.233616
0
LINE
8
BLACK
6
CONTINUOUS
10
1.03896
20
0.233616
11
1.03972
21
0.233749
0
LINE
8
BLACK
6
CONTINUOUS
10
1.03972
20
0.233749
11
1.04044
21
0.234012
0
LINE
8
BLACK
6
CONTINUOUS
10
1.04044
20
0.234012
11
1.07981
21
0.234012
0
LINE
8
BLACK
6
CONTINUOUS
10
1.07981
20
0.234012
11
1.08082
21
0.233834
0
LINE
8
BLACK
6
CONTINUOUS
10
1.04339
20
0.228106
11
1.04339
21
0.216758
0
LINE
8
BLACK
6
CONTINUOUS
10
1.04339
20
0.216758
11
1.04474
21
0.21406
0
LINE
8
BLACK
6
CONTINUOUS
10
1.04474
20
0.21406
11
1.04594
21
0.212863
0
LINE
8
BLACK
6
CONTINUOUS
10
1.04594
20
0.212863
11
1.04864
21
0.211514
0
LINE
8
BLACK
6
CONTINUOUS
10
1.04864
20
0.211514
11
1.05287
21
0.211514
0
LINE
8
BLACK
6
CONTINUOUS
10
1.05287
20
0.211514
11
1.05556
21
0.212863
0
LINE
8
BLACK
6
CONTINUOUS
10
1.05556
20
0.212863
11
1.05676
21
0.21406
0
LINE
8
BLACK
6
CONTINUOUS
10
1.05676
20
0.21406
11
1.05811
21
0.216758
0
LINE
8
BLACK
6
CONTINUOUS
10
1.05811
20
0.216758
11
1.05811
21
0.228106
0
LINE
8
BLACK
6
CONTINUOUS
10
1.05811
20
0.228106
11
1.04339
21
0.228106
0
LINE
8
BLACK
6
CONTINUOUS
10
1.13537
20
0.319484
11
1.1355
21
0.319507
0
LINE
8
BLACK
6
CONTINUOUS
10
1.1355
20
0.319507
11
1.13561
21
0.319441
0
LINE
8
BLACK
6
CONTINUOUS
10
1.13561
20
0.319441
11
1.13599
21
0.319374
0
LINE
8
BLACK
6
CONTINUOUS
10
1.13599
20
0.319374
11
1.13658
21
0.318881
0
LINE
8
BLACK
6
CONTINUOUS
10
1.13658
20
0.318881
11
1.13725
21
0.318497
0
LINE
8
BLACK
6
CONTINUOUS
10
1.13725
20
0.318497
11
1.13734
21
0.318247
0
LINE
8
BLACK
6
CONTINUOUS
10
1.13734
20
0.318247
11
1.13754
21
0.318076
0
LINE
8
BLACK
6
CONTINUOUS
10
1.13754
20
0.318076
11
1.13767
21
0.31732
0
LINE
8
BLACK
6
CONTINUOUS
10
1.13767
20
0.31732
11
1.13794
21
0.316599
0
LINE
8
BLACK
6
CONTINUOUS
10
1.13794
20
0.316599
11
1.13794
21
0.277229
0
LINE
8
BLACK
6
CONTINUOUS
10
1.13794
20
0.277229
11
1.13776
21
0.276219
0
LINE
8
BLACK
6
CONTINUOUS
10
1.13776
20
0.276219
11
1.13646
21
0.274672
0
LINE
8
BLACK
6
CONTINUOUS
10
1.13646
20
0.274672
11
1.13447
21
0.274321
0
LINE
8
BLACK
6
CONTINUOUS
10
1.13447
20
0.274321
11
1.13272
21
0.275331
0
LINE
8
BLACK
6
CONTINUOUS
10
1.13272
20
0.275331
11
1.13203
21
0.277229
0
LINE
8
BLACK
6
CONTINUOUS
10
1.13203
20
0.277229
11
1.13203
21
0.293024
0
LINE
8
BLACK
6
CONTINUOUS
10
1.13203
20
0.293024
11
1.12715
21
0.293024
0
LINE
8
BLACK
6
CONTINUOUS
10
1.12715
20
0.293024
11
1.11491
21
0.275536
0
LINE
8
BLACK
6
CONTINUOUS
10
1.11491
20
0.275536
11
1.11418
21
0.274811
0
LINE
8
BLACK
6
CONTINUOUS
10
1.11418
20
0.274811
11
1.11223
21
0.274288
0
LINE
8
BLACK
6
CONTINUOUS
10
1.11223
20
0.274288
11
1.1104
21
0.275141
0
LINE
8
BLACK
6
CONTINUOUS
10
1.1104
20
0.275141
11
1.10955
21
0.276971
0
LINE
8
BLACK
6
CONTINUOUS
10
1.10955
20
0.276971
11
1.11007
21
0.278922
0
LINE
8
BLACK
6
CONTINUOUS
10
1.11007
20
0.278922
11
1.11994
21
0.293031
0
LINE
8
BLACK
6
CONTINUOUS
10
1.11994
20
0.293031
11
1.11898
21
0.293202
0
LINE
8
BLACK
6
CONTINUOUS
10
1.11898
20
0.293202
11
1.11884
21
0.293316
0
LINE
8
BLACK
6
CONTINUOUS
10
1.11884
20
0.293316
11
1.11867
21
0.293336
0
LINE
8
BLACK
6
CONTINUOUS
10
1.11867
20
0.293336
11
1.11492
21
0.29521
0
LINE
8
BLACK
6
CONTINUOUS
10
1.11492
20
0.29521
11
1.11421
21
0.295736
0
LINE
8
BLACK
6
CONTINUOUS
10
1.11421
20
0.295736
11
1.11415
21
0.295764
0
LINE
8
BLACK
6
CONTINUOUS
10
1.11415
20
0.295764
11
1.11227
21
0.297638
0
LINE
8
BLACK
6
CONTINUOUS
10
1.11227
20
0.297638
11
1.11177
21
0.298361
0
LINE
8
BLACK
6
CONTINUOUS
10
1.11177
20
0.298361
11
1.11172
21
0.298406
0
LINE
8
BLACK
6
CONTINUOUS
10
1.11172
20
0.298406
11
1.10985
21
0.302155
0
LINE
8
BLACK
6
CONTINUOUS
10
1.10985
20
0.302155
11
1.10955
21
0.303138
0
LINE
8
BLACK
6
CONTINUOUS
10
1.10955
20
0.303138
11
1.10959
21
0.30331
0
LINE
8
BLACK
6
CONTINUOUS
10
1.10959
20
0.30331
11
1.10953
21
0.303476
0
LINE
8
BLACK
6
CONTINUOUS
10
1.10953
20
0.303476
11
1.10953
21
0.3091
0
LINE
8
BLACK
6
CONTINUOUS
10
1.10953
20
0.3091
11
1.10971
21
0.31011
0
LINE
8
BLACK
6
CONTINUOUS
10
1.10971
20
0.31011
11
1.10983
21
0.310245
0
LINE
8
BLACK
6
CONTINUOUS
10
1.10983
20
0.310245
11
1.10985
21
0.310421
0
LINE
8
BLACK
6
CONTINUOUS
10
1.10985
20
0.310421
11
1.11172
21
0.31417
0
LINE
8
BLACK
6
CONTINUOUS
10
1.11172
20
0.31417
11
1.11225
21
0.314879
0
LINE
8
BLACK
6
CONTINUOUS
10
1.11225
20
0.314879
11
1.11227
21
0.314937
0
LINE
8
BLACK
6
CONTINUOUS
10
1.11227
20
0.314937
11
1.11415
21
0.316812
0
LINE
8
BLACK
6
CONTINUOUS
10
1.11415
20
0.316812
11
1.11487
21
0.317319
0
LINE
8
BLACK
6
CONTINUOUS
10
1.11487
20
0.317319
11
1.11492
21
0.317365
0
LINE
8
BLACK
6
CONTINUOUS
10
1.11492
20
0.317365
11
1.11867
21
0.31924
0
LINE
8
BLACK
6
CONTINUOUS
10
1.11867
20
0.31924
11
1.11965
21
0.319533
0
LINE
8
BLACK
6
CONTINUOUS
10
1.11965
20
0.319533
11
1.11982
21
0.319492
0
LINE
8
BLACK
6
CONTINUOUS
10
1.11982
20
0.319492
11
1.11999
21
0.319552
0
LINE
8
BLACK
6
CONTINUOUS
10
1.11999
20
0.319552
11
1.13498
21
0.319552
0
LINE
8
BLACK
6
CONTINUOUS
10
1.13498
20
0.319552
11
1.13537
21
0.319484
0
LINE
8
BLACK
6
CONTINUOUS
10
1.12068
20
0.313646
11
1.11799
21
0.312298
0
LINE
8
BLACK
6
CONTINUOUS
10
1.11799
20
0.312298
11
1.11679
21
0.311101
0
LINE
8
BLACK
6
CONTINUOUS
10
1.11679
20
0.311101
11
1.11544
21
0.308403
0
LINE
8
BLACK
6
CONTINUOUS
10
1.11544
20
0.308403
11
1.11544
21
0.304173
0
LINE
8
BLACK
6
CONTINUOUS
10
1.11544
20
0.304173
11
1.11679
21
0.301475
0
LINE
8
BLACK
6
CONTINUOUS
10
1.11679
20
0.301475
11
1.11799
21
0.300278
0
LINE
8
BLACK
6
CONTINUOUS
10
1.11799
20
0.300278
11
1.12068
21
0.298929
0
LINE
8
BLACK
6
CONTINUOUS
10
1.12068
20
0.298929
11
1.13203
21
0.298929
0
LINE
8
BLACK
6
CONTINUOUS
10
1.13203
20
0.298929
11
1.13203
21
0.313646
0
LINE
8
BLACK
6
CONTINUOUS
10
1.13203
20
0.313646
11
1.12068
21
0.313646
0
LINE
8
BLACK
6
CONTINUOUS
10
1.10037
20
0.319374
11
1.10192
21
0.318076
0
LINE
8
BLACK
6
CONTINUOUS
10
1.10192
20
0.318076
11
1.10227
21
0.316086
0
LINE
8
BLACK
6
CONTINUOUS
10
1.10227
20
0.316086
11
1.10126
21
0.314337
0
LINE
8
BLACK
6
CONTINUOUS
10
1.10126
20
0.314337
11
1.09936
21
0.313646
0
LINE
8
BLACK
6
CONTINUOUS
10
1.09936
20
0.313646
11
1.07759
21
0.313646
0
LINE
8
BLACK
6
CONTINUOUS
10
1.07759
20
0.313646
11
1.0927
21
0.278392
0
LINE
8
BLACK
6
CONTINUOUS
10
1.0927
20
0.278392
11
1.09294
21
0.277394
0
LINE
8
BLACK
6
CONTINUOUS
10
1.09294
20
0.277394
11
1.09235
21
0.27546
0
LINE
8
BLACK
6
CONTINUOUS
10
1.09235
20
0.27546
11
1.09066
21
0.274354
0
LINE
8
BLACK
6
CONTINUOUS
10
1.09066
20
0.274354
11
1.08866
21
0.274594
0
LINE
8
BLACK
6
CONTINUOUS
10
1.08866
20
0.274594
11
1.08728
21
0.276066
0
LINE
8
BLACK
6
CONTINUOUS
10
1.08728
20
0.276066
11
1.0704
21
0.315436
0
LINE
8
BLACK
6
CONTINUOUS
10
1.0704
20
0.315436
11
1.07017
21
0.316434
0
LINE
8
BLACK
6
CONTINUOUS
10
1.07017
20
0.316434
11
1.07027
21
0.316768
0
LINE
8
BLACK
6
CONTINUOUS
10
1.07027
20
0.316768
11
1.07021
21
0.317112
0
LINE
8
BLACK
6
CONTINUOUS
10
1.07021
20
0.317112
11
1.07055
21
0.317709
0
LINE
8
BLACK
6
CONTINUOUS
10
1.07055
20
0.317709
11
1.07075
21
0.318368
0
LINE
8
BLACK
6
CONTINUOUS
10
1.07075
20
0.318368
11
1.07104
21
0.318559
0
LINE
8
BLACK
6
CONTINUOUS
10
1.07104
20
0.318559
11
1.07122
21
0.318861
0
LINE
8
BLACK
6
CONTINUOUS
10
1.07122
20
0.318861
11
1.07187
21
0.319097
0
LINE
8
BLACK
6
CONTINUOUS
10
1.07187
20
0.319097
11
1.07244
21
0.319474
0
LINE
8
BLACK
6
CONTINUOUS
10
1.07244
20
0.319474
11
1.07279
21
0.319433
0
LINE
8
BLACK
6
CONTINUOUS
10
1.07279
20
0.319433
11
1.07312
21
0.319552
0
LINE
8
BLACK
6
CONTINUOUS
10
1.07312
20
0.319552
11
1.09936
21
0.319552
0
LINE
8
BLACK
6
CONTINUOUS
10
1.09936
20
0.319552
11
1.10037
21
0.319374
0
LINE
8
BLACK
6
CONTINUOUS
10
0.85068
20
0.328359
11
0.850744
21
0.328361
0
LINE
8
BLACK
6
CONTINUOUS
10
0.850744
20
0.328361
11
0.856368
21
0.326486
0
LINE
8
BLACK
6
CONTINUOUS
10
0.856368
20
0.326486
11
0.85727
21
0.325998
0
LINE
8
BLACK
6
CONTINUOUS
10
0.85727
20
0.325998
11
0.857363
21
0.325848
0
LINE
8
BLACK
6
CONTINUOUS
10
0.857363
20
0.325848
11
0.857522
21
0.325773
0
LINE
8
BLACK
6
CONTINUOUS
10
0.857522
20
0.325773
11
0.861272
21
0.322023
0
LINE
8
BLACK
6
CONTINUOUS
10
0.861272
20
0.322023
11
0.861778
21
0.3213
0
LINE
8
BLACK
6
CONTINUOUS
10
0.861778
20
0.3213
11
0.861825
21
0.321256
0
LINE
8
BLACK
6
CONTINUOUS
10
0.861825
20
0.321256
11
0.8637
21
0.317506
0
LINE
8
BLACK
6
CONTINUOUS
10
0.8637
20
0.317506
11
0.863845
21
0.317018
0
LINE
8
BLACK
6
CONTINUOUS
10
0.863845
20
0.317018
11
0.863923
21
0.316902
0
LINE
8
BLACK
6
CONTINUOUS
10
0.863923
20
0.316902
11
0.865798
21
0.309403
0
LINE
8
BLACK
6
CONTINUOUS
10
0.865798
20
0.309403
11
0.86584
21
0.308815
0
LINE
8
BLACK
6
CONTINUOUS
10
0.86584
20
0.308815
11
0.865886
21
0.308687
0
LINE
8
BLACK
6
CONTINUOUS
10
0.865886
20
0.308687
11
0.865886
21
0.303063
0
LINE
8
BLACK
6
CONTINUOUS
10
0.865886
20
0.303063
11
0.865784
21
0.302482
0
LINE
8
BLACK
6
CONTINUOUS
10
0.865784
20
0.302482
11
0.865798
21
0.302346
0
LINE
8
BLACK
6
CONTINUOUS
10
0.865798
20
0.302346
11
0.863923
21
0.294847
0
LINE
8
BLACK
6
CONTINUOUS
10
0.863923
20
0.294847
11
0.863716
21
0.294382
0
LINE
8
BLACK
6
CONTINUOUS
10
0.863716
20
0.294382
11
0.8637
21
0.294243
0
LINE
8
BLACK
6
CONTINUOUS
10
0.8637
20
0.294243
11
0.861825
21
0.290494
0
LINE
8
BLACK
6
CONTINUOUS
10
0.861825
20
0.290494
11
0.861299
21
0.289784
0
LINE
8
BLACK
6
CONTINUOUS
10
0.861299
20
0.289784
11
0.861272
21
0.289726
0
LINE
8
BLACK
6
CONTINUOUS
10
0.861272
20
0.289726
11
0.857522
21
0.285977
0
LINE
8
BLACK
6
CONTINUOUS
10
0.857522
20
0.285977
11
0.856682
21
0.285388
0
LINE
8
BLACK
6
CONTINUOUS
10
0.856682
20
0.285388
11
0.856507
21
0.285373
0
LINE
8
BLACK
6
CONTINUOUS
10
0.856507
20
0.285373
11
0.856368
21
0.285263
0
LINE
8
BLACK
6
CONTINUOUS
10
0.856368
20
0.285263
11
0.850744
21
0.283389
0
LINE
8
BLACK
6
CONTINUOUS
10
0.850744
20
0.283389
11
0.849871
21
0.283259
0
LINE
8
BLACK
6
CONTINUOUS
10
0.849871
20
0.283259
11
0.84981
21
0.283237
0
LINE
8
BLACK
6
CONTINUOUS
10
0.84981
20
0.283237
11
0.846061
21
0.283237
0
LINE
8
BLACK
6
CONTINUOUS
10
0.846061
20
0.283237
11
0.845191
21
0.28339
0
LINE
8
BLACK
6
CONTINUOUS
10
0.845191
20
0.28339
11
0.845127
21
0.283389
0
LINE
8
BLACK
6
CONTINUOUS
10
0.845127
20
0.283389
11
0.839503
21
0.285263
0
LINE
8
BLACK
6
CONTINUOUS
10
0.839503
20
0.285263
11
0.838601
21
0.285752
0
LINE
8
BLACK
6
CONTINUOUS
10
0.838601
20
0.285752
11
0.838509
21
0.285902
0
LINE
8
BLACK
6
CONTINUOUS
10
0.838509
20
0.285902
11
0.838349
21
0.285977
0
LINE
8
BLACK
6
CONTINUOUS
10
0.838349
20
0.285977
11
0.836474
21
0.287851
0
LINE
8
BLACK
6
CONTINUOUS
10
0.836474
20
0.287851
11
0.835886
21
0.288691
0
LINE
8
BLACK
6
CONTINUOUS
10
0.835886
20
0.288691
11
0.835709
21
0.290703
0
LINE
8
BLACK
6
CONTINUOUS
10
0.835709
20
0.290703
11
0.836868
21
0.292358
0
LINE
8
BLACK
6
CONTINUOUS
10
0.836868
20
0.292358
11
0.838819
21
0.292881
0
LINE
8
BLACK
6
CONTINUOUS
10
0.838819
20
0.292881
11
0.84065
21
0.292027
0
LINE
8
BLACK
6
CONTINUOUS
10
0.84065
20
0.292027
11
0.842031
21
0.290645
0
LINE
8
BLACK
6
CONTINUOUS
10
0.842031
20
0.290645
11
0.84654
21
0.289142
0
LINE
8
BLACK
6
CONTINUOUS
10
0.84654
20
0.289142
11
0.849331
21
0.289142
0
LINE
8
BLACK
6
CONTINUOUS
10
0.849331
20
0.289142
11
0.85384
21
0.290645
0
LINE
8
BLACK
6
CONTINUOUS
10
0.85384
20
0.290645
11
0.856757
21
0.293563
0
LINE
8
BLACK
6
CONTINUOUS
10
0.856757
20
0.293563
11
0.858273
21
0.296594
0
LINE
8
BLACK
6
CONTINUOUS
10
0.858273
20
0.296594
11
0.859981
21
0.303426
0
LINE
8
BLACK
6
CONTINUOUS
10
0.859981
20
0.303426
11
0.859981
21
0.308323
0
LINE
8
BLACK
6
CONTINUOUS
10
0.859981
20
0.308323
11
0.858273
21
0.315155
0
LINE
8
BLACK
6
CONTINUOUS
10
0.858273
20
0.315155
11
0.856757
21
0.318186
0
LINE
8
BLACK
6
CONTINUOUS
10
0.856757
20
0.318186
11
0.85384
21
0.321104
0
LINE
8
BLACK
6
CONTINUOUS
10
0.85384
20
0.321104
11
0.849331
21
0.322607
0
LINE
8
BLACK
6
CONTINUOUS
10
0.849331
20
0.322607
11
0.84654
21
0.322607
0
LINE
8
BLACK
6
CONTINUOUS
10
0.84654
20
0.322607
11
0.842031
21
0.321104
0
LINE
8
BLACK
6
CONTINUOUS
10
0.842031
20
0.321104
11
0.84065
21
0.319722
0
LINE
8
BLACK
6
CONTINUOUS
10
0.84065
20
0.319722
11
0.83981
21
0.319134
0
LINE
8
BLACK
6
CONTINUOUS
10
0.83981
20
0.319134
11
0.837797
21
0.318958
0
LINE
8
BLACK
6
CONTINUOUS
10
0.837797
20
0.318958
11
0.836143
21
0.320117
0
LINE
8
BLACK
6
CONTINUOUS
10
0.836143
20
0.320117
11
0.83562
21
0.322068
0
LINE
8
BLACK
6
CONTINUOUS
10
0.83562
20
0.322068
11
0.836474
21
0.323898
0
LINE
8
BLACK
6
CONTINUOUS
10
0.836474
20
0.323898
11
0.838348
21
0.325773
0
LINE
8
BLACK
6
CONTINUOUS
10
0.838348
20
0.325773
11
0.839189
21
0.326361
0
LINE
8
BLACK
6
CONTINUOUS
10
0.839189
20
0.326361
11
0.839364
21
0.326377
0
LINE
8
BLACK
6
CONTINUOUS
10
0.839364
20
0.326377
11
0.839503
21
0.326486
0
LINE
8
BLACK
6
CONTINUOUS
10
0.839503
20
0.326486
11
0.845127
21
0.328361
0
LINE
8
BLACK
6
CONTINUOUS
10
0.845127
20
0.328361
11
0.846
21
0.328491
0
LINE
8
BLACK
6
CONTINUOUS
10
0.846
20
0.328491
11
0.846061
21
0.328513
0
LINE
8
BLACK
6
CONTINUOUS
10
0.846061
20
0.328513
11
0.84981
21
0.328513
0
LINE
8
BLACK
6
CONTINUOUS
10
0.84981
20
0.328513
11
0.85068
21
0.328359
0
LINE
8
BLACK
6
CONTINUOUS
10
0.826448
20
0.328334
11
0.827995
21
0.327036
0
LINE
8
BLACK
6
CONTINUOUS
10
0.827995
20
0.327036
11
0.828346
21
0.325047
0
LINE
8
BLACK
6
CONTINUOUS
10
0.828346
20
0.325047
11
0.827336
21
0.323298
0
LINE
8
BLACK
6
CONTINUOUS
10
0.827336
20
0.323298
11
0.825438
21
0.322607
0
LINE
8
BLACK
6
CONTINUOUS
10
0.825438
20
0.322607
11
0.807574
21
0.322607
0
LINE
8
BLACK
6
CONTINUOUS
10
0.807574
20
0.322607
11
0.816412
21
0.312506
0
LINE
8
BLACK
6
CONTINUOUS
10
0.816412
20
0.312506
11
0.816642
21
0.312126
0
LINE
8
BLACK
6
CONTINUOUS
10
0.816642
20
0.312126
11
0.816747
21
0.312038
0
LINE
8
BLACK
6
CONTINUOUS
10
0.816747
20
0.312038
11
0.816768
21
0.311918
0
LINE
8
BLACK
6
CONTINUOUS
10
0.816768
20
0.311918
11
0.816943
21
0.311629
0
LINE
8
BLACK
6
CONTINUOUS
10
0.816943
20
0.311629
11
0.816959
21
0.310833
0
LINE
8
BLACK
6
CONTINUOUS
10
0.816959
20
0.310833
11
0.817098
21
0.310049
0
LINE
8
BLACK
6
CONTINUOUS
10
0.817098
20
0.310049
11
0.81698
21
0.309845
0
LINE
8
BLACK
6
CONTINUOUS
10
0.81698
20
0.309845
11
0.816985
21
0.309609
0
LINE
8
BLACK
6
CONTINUOUS
10
0.816985
20
0.309609
11
0.816486
21
0.308989
0
LINE
8
BLACK
6
CONTINUOUS
10
0.816486
20
0.308989
11
0.816088
21
0.3083
0
LINE
8
BLACK
6
CONTINUOUS
10
0.816088
20
0.3083
11
0.815866
21
0.308219
0
LINE
8
BLACK
6
CONTINUOUS
10
0.815866
20
0.308219
11
0.815719
21
0.308036
0
LINE
8
BLACK
6
CONTINUOUS
10
0.815719
20
0.308036
11
0.814938
21
0.307881
0
LINE
8
BLACK
6
CONTINUOUS
10
0.814938
20
0.307881
11
0.81419
21
0.307609
0
LINE
8
BLACK
6
CONTINUOUS
10
0.81419
20
0.307609
11
0.809262
21
0.307609
0
LINE
8
BLACK
6
CONTINUOUS
10
0.809262
20
0.307609
11
0.806565
21
0.30626
0
LINE
8
BLACK
6
CONTINUOUS
10
0.806565
20
0.30626
11
0.805368
21
0.305063
0
LINE
8
BLACK
6
CONTINUOUS
10
0.805368
20
0.305063
11
0.804019
21
0.302366
0
LINE
8
BLACK
6
CONTINUOUS
10
0.804019
20
0.302366
11
0.804019
21
0.294386
0
LINE
8
BLACK
6
CONTINUOUS
10
0.804019
20
0.294386
11
0.805368
21
0.291688
0
LINE
8
BLACK
6
CONTINUOUS
10
0.805368
20
0.291688
11
0.806565
21
0.290491
0
LINE
8
BLACK
6
CONTINUOUS
10
0.806565
20
0.290491
11
0.809262
21
0.289142
0
LINE
8
BLACK
6
CONTINUOUS
10
0.809262
20
0.289142
11
0.819117
21
0.289142
0
LINE
8
BLACK
6
CONTINUOUS
10
0.819117
20
0.289142
11
0.821814
21
0.290491
0
LINE
8
BLACK
6
CONTINUOUS
10
0.821814
20
0.290491
11
0.82335
21
0.292027
0
LINE
8
BLACK
6
CONTINUOUS
10
0.82335
20
0.292027
11
0.82419
21
0.292615
0
LINE
8
BLACK
6
CONTINUOUS
10
0.82419
20
0.292615
11
0.826203
21
0.292791
0
LINE
8
BLACK
6
CONTINUOUS
10
0.826203
20
0.292791
11
0.827857
21
0.291633
0
LINE
8
BLACK
6
CONTINUOUS
10
0.827857
20
0.291633
11
0.82838
21
0.289682
0
LINE
8
BLACK
6
CONTINUOUS
10
0.82838
20
0.289682
11
0.827526
21
0.287851
0
LINE
8
BLACK
6
CONTINUOUS
10
0.827526
20
0.287851
11
0.825651
21
0.285977
0
LINE
8
BLACK
6
CONTINUOUS
10
0.825651
20
0.285977
11
0.824928
21
0.28547
0
LINE
8
BLACK
6
CONTINUOUS
10
0.824928
20
0.28547
11
0.824884
21
0.285423
0
LINE
8
BLACK
6
CONTINUOUS
10
0.824884
20
0.285423
11
0.821135
21
0.283549
0
LINE
8
BLACK
6
CONTINUOUS
10
0.821135
20
0.283549
11
0.820152
21
0.283256
0
LINE
8
BLACK
6
CONTINUOUS
10
0.820152
20
0.283256
11
0.81998
21
0.283297
0
LINE
8
BLACK
6
CONTINUOUS
10
0.81998
20
0.283297
11
0.819814
21
0.283237
0
LINE
8
BLACK
6
CONTINUOUS
10
0.819814
20
0.283237
11
0.808565
21
0.283237
0
LINE
8
BLACK
6
CONTINUOUS
10
0.808565
20
0.283237
11
0.807555
21
0.283415
0
LINE
8
BLACK
6
CONTINUOUS
10
0.807555
20
0.283415
11
0.80742
21
0.283529
0
LINE
8
BLACK
6
CONTINUOUS
10
0.80742
20
0.283529
11
0.807245
21
0.283549
0
LINE
8
BLACK
6
CONTINUOUS
10
0.807245
20
0.283549
11
0.803495
21
0.285423
0
LINE
8
BLACK
6
CONTINUOUS
10
0.803495
20
0.285423
11
0.802786
21
0.285949
0
LINE
8
BLACK
6
CONTINUOUS
10
0.802786
20
0.285949
11
0.802728
21
0.285977
0
LINE
8
BLACK
6
CONTINUOUS
10
0.802728
20
0.285977
11
0.800853
21
0.287851
0
LINE
8
BLACK
6
CONTINUOUS
10
0.800853
20
0.287851
11
0.800347
21
0.288574
0
LINE
8
BLACK
6
CONTINUOUS
10
0.800347
20
0.288574
11
0.8003
21
0.288619
0
LINE
8
BLACK
6
CONTINUOUS
10
0.8003
20
0.288619
11
0.798425
21
0.292368
0
LINE
8
BLACK
6
CONTINUOUS
10
0.798425
20
0.292368
11
0.798133
21
0.293351
0
LINE
8
BLACK
6
CONTINUOUS
10
0.798133
20
0.293351
11
0.798174
21
0.293523
0
LINE
8
BLACK
6
CONTINUOUS
10
0.798174
20
0.293523
11
0.798114
21
0.293689
0
LINE
8
BLACK
6
CONTINUOUS
10
0.798114
20
0.293689
11
0.798114
21
0.303063
0
LINE
8
BLACK
6
CONTINUOUS
10
0.798114
20
0.303063
11
0.798292
21
0.304073
0
LINE
8
BLACK
6
CONTINUOUS
10
0.798292
20
0.304073
11
0.798405
21
0.304208
0
LINE
8
BLACK
6
CONTINUOUS
10
0.798405
20
0.304208
11
0.798425
21
0.304383
0
LINE
8
BLACK
6
CONTINUOUS
10
0.798425
20
0.304383
11
0.8003
21
0.308133
0
LINE
8
BLACK
6
CONTINUOUS
10
0.8003
20
0.308133
11
0.800826
21
0.308842
0
LINE
8
BLACK
6
CONTINUOUS
10
0.800826
20
0.308842
11
0.800853
21
0.3089
0
LINE
8
BLACK
6
CONTINUOUS
10
0.800853
20
0.3089
11
0.802728
21
0.310775
0
LINE
8
BLACK
6
CONTINUOUS
10
0.802728
20
0.310775
11
0.803451
21
0.311281
0
LINE
8
BLACK
6
CONTINUOUS
10
0.803451
20
0.311281
11
0.803495
21
0.311328
0
LINE
8
BLACK
6
CONTINUOUS
10
0.803495
20
0.311328
11
0.807245
21
0.313203
0
LINE
8
BLACK
6
CONTINUOUS
10
0.807245
20
0.313203
11
0.807809
21
0.31337
0
LINE
8
BLACK
6
CONTINUOUS
10
0.807809
20
0.31337
11
0.798844
21
0.323615
0
LINE
8
BLACK
6
CONTINUOUS
10
0.798844
20
0.323615
11
0.798614
21
0.323995
0
LINE
8
BLACK
6
CONTINUOUS
10
0.798614
20
0.323995
11
0.798509
21
0.324083
0
LINE
8
BLACK
6
CONTINUOUS
10
0.798509
20
0.324083
11
0.798488
21
0.324204
0
LINE
8
BLACK
6
CONTINUOUS
10
0.798488
20
0.324204
11
0.798313
21
0.324493
0
LINE
8
BLACK
6
CONTINUOUS
10
0.798313
20
0.324493
11
0.798297
21
0.325289
0
LINE
8
BLACK
6
CONTINUOUS
10
0.798297
20
0.325289
11
0.798158
21
0.326073
0
LINE
8
BLACK
6
CONTINUOUS
10
0.798158
20
0.326073
11
0.798276
21
0.326277
0
LINE
8
BLACK
6
CONTINUOUS
10
0.798276
20
0.326277
11
0.798271
21
0.326512
0
LINE
8
BLACK
6
CONTINUOUS
10
0.798271
20
0.326512
11
0.79877
21
0.327132
0
LINE
8
BLACK
6
CONTINUOUS
10
0.79877
20
0.327132
11
0.799168
21
0.327822
0
LINE
8
BLACK
6
CONTINUOUS
10
0.799168
20
0.327822
11
0.79939
21
0.327902
0
LINE
8
BLACK
6
CONTINUOUS
10
0.79939
20
0.327902
11
0.799537
21
0.328086
0
LINE
8
BLACK
6
CONTINUOUS
10
0.799537
20
0.328086
11
0.800318
21
0.32824
0
LINE
8
BLACK
6
CONTINUOUS
10
0.800318
20
0.32824
11
0.801066
21
0.328513
0
LINE
8
BLACK
6
CONTINUOUS
10
0.801066
20
0.328513
11
0.825438
21
0.328513
0
LINE
8
BLACK
6
CONTINUOUS
10
0.825438
20
0.328513
11
0.826448
21
0.328334
0
LINE
8
BLACK
6
CONTINUOUS
10
0.954554
20
0.292733
11
0.955246
21
0.291063
0
LINE
8
BLACK
6
CONTINUOUS
10
0.955246
20
0.291063
11
0.954554
21
0.289393
0
LINE
8
BLACK
6
CONTINUOUS
10
0.954554
20
0.289393
11
0.952884
21
0.288701
0
LINE
8
BLACK
6
CONTINUOUS
10
0.952884
20
0.288701
11
0.932313
21
0.288701
0
LINE
8
BLACK
6
CONTINUOUS
10
0.932313
20
0.288701
11
0.930643
21
0.289393
0
LINE
8
BLACK
6
CONTINUOUS
10
0.930643
20
0.289393
11
0.929951
21
0.291063
0
LINE
8
BLACK
6
CONTINUOUS
10
0.929951
20
0.291063
11
0.930643
21
0.292733
0
LINE
8
BLACK
6
CONTINUOUS
10
0.930643
20
0.292733
11
0.932313
21
0.293425
0
LINE
8
BLACK
6
CONTINUOUS
10
0.932313
20
0.293425
11
0.952884
21
0.293425
0
LINE
8
BLACK
6
CONTINUOUS
10
0.952884
20
0.293425
11
0.954554
21
0.292733
0
LINE
8
BLACK
6
CONTINUOUS
10
1.11654
20
0.332733
11
1.11723
21
0.331063
0
LINE
8
BLACK
6
CONTINUOUS
10
1.11723
20
0.331063
11
1.11654
21
0.329393
0
LINE
8
BLACK
6
CONTINUOUS
10
1.11654
20
0.329393
11
1.11486
21
0.328701
0
LINE
8
BLACK
6
CONTINUOUS
10
1.11486
20
0.328701
11
1.09699
21
0.328701
0
LINE
8
BLACK
6
CONTINUOUS
10
1.09699
20
0.328701
11
1.09532
21
0.329393
0
LINE
8
BLACK
6
CONTINUOUS
10
1.09532
20
0.329393
11
1.09462
21
0.331063
0
LINE
8
BLACK
6
CONTINUOUS
10
1.09462
20
0.331063
11
1.09532
21
0.332733
0
LINE
8
BLACK
6
CONTINUOUS
10
1.09532
20
0.332733
11
1.09699
21
0.333425
0
LINE
8
BLACK
6
CONTINUOUS
10
1.09699
20
0.333425
11
1.11486
21
0.333425
0
LINE
8
BLACK
6
CONTINUOUS
10
1.11486
20
0.333425
11
1.11654
21
0.332733
0
LINE
8
BLACK
6
CONTINUOUS
10
0.954554
20
0.350607
11
0.955246
21
0.348937
0
LINE
8
BLACK
6
CONTINUOUS
10
0.955246
20
0.348937
11
0.954554
21
0.347267
0
LINE
8
BLACK
6
CONTINUOUS
10
0.954554
20
0.347267
11
0.952884
21
0.346575
0
LINE
8
BLACK
6
CONTINUOUS
10
0.952884
20
0.346575
11
0.932313
21
0.346575
0
LINE
8
BLACK
6
CONTINUOUS
10
0.932313
20
0.346575
11
0.930643
21
0.347267
0
LINE
8
BLACK
6
CONTINUOUS
10
0.930643
20
0.347267
11
0.929951
21
0.348937
0
LINE
8
BLACK
6
CONTINUOUS
10
0.929951
20
0.348937
11
0.930643
21
0.350607
0
LINE
8
BLACK
6
CONTINUOUS
10
0.930643
20
0.350607
11
0.932313
21
0.351299
0
LINE
8
BLACK
6
CONTINUOUS
10
0.932313
20
0.351299
11
0.952884
21
0.351299
0
LINE
8
BLACK
6
CONTINUOUS
10
0.952884
20
0.351299
11
0.954554
21
0.350607
0
LINE
8
BLACK
6
CONTINUOUS
10
1.11654
20
0.390607
11
1.11723
21
0.388937
0
LINE
8
BLACK
6
CONTINUOUS
10
1.11723
20
0.388937
11
1.11654
21
0.387267
0
LINE
8
BLACK
6
CONTINUOUS
10
1.11654
20
0.387267
11
1.11486
21
0.386575
0
LINE
8
BLACK
6
CONTINUOUS
10
1.11486
20
0.386575
11
1.09699
21
0.386575
0
LINE
8
BLACK
6
CONTINUOUS
10
1.09699
20
0.386575
11
1.09532
21
0.387267
0
LINE
8
BLACK
6
CONTINUOUS
10
1.09532
20
0.387267
11
1.09462
21
0.388937
0
LINE
8
BLACK
6
CONTINUOUS
10
1.09462
20
0.388937
11
1.09532
21
0.390607
0
LINE
8
BLACK
6
CONTINUOUS
10
1.09532
20
0.390607
11
1.09699
21
0.391299
0
LINE
8
BLACK
6
CONTINUOUS
10
1.09699
20
0.391299
11
1.11486
21
0.391299
0
LINE
8
BLACK
6
CONTINUOUS
10
1.11486
20
0.391299
11
1.11654
21
0.390607
0
LINE
8
BLACK
6
CONTINUOUS
10
1.39916
20
0.639998
11
1.39985
21
0.6381
0
LINE
8
BLACK
6
CONTINUOUS
10
1.39985
20
0.6381
11
1.39985
21
0.4019
0
LINE
8
BLACK
6
CONTINUOUS
10
1.39985
20
0.4019
11
1.39967
21
0.40089
0
LINE
8
BLACK
6
CONTINUOUS
10
1.39967
20
0.40089
11
1.39838
21
0.399343
0
LINE
8
BLACK
6
CONTINUOUS
10
1.39838
20
0.399343
11
1.39639
21
0.398992
0
LINE
8
BLACK
6
CONTINUOUS
10
1.39639
20
0.398992
11
1.39464
21
0.400002
0
LINE
8
BLACK
6
CONTINUOUS
10
1.39464
20
0.400002
11
1.39395
21
0.4019
0
LINE
8
BLACK
6
CONTINUOUS
10
1.39395
20
0.4019
11
1.39395
21
0.6381
0
LINE
8
BLACK
6
CONTINUOUS
10
1.39395
20
0.6381
11
1.39413
21
0.63911
0
LINE
8
BLACK
6
CONTINUOUS
10
1.39413
20
0.63911
11
1.39542
21
0.640657
0
LINE
8
BLACK
6
CONTINUOUS
10
1.39542
20
0.640657
11
1.39741
21
0.641008
0
LINE
8
BLACK
6
CONTINUOUS
10
1.39741
20
0.641008
11
1.39916
21
0.639998
0
LINE
8
BLACK
6
CONTINUOUS
10
1.26526
20
0.640898
11
1.26595
21
0.639
0
LINE
8
BLACK
6
CONTINUOUS
10
1.26595
20
0.639
11
1.26595
21
0.4028
0
LINE
8
BLACK
6
CONTINUOUS
10
1.26595
20
0.4028
11
1.26577
21
0.40179
0
LINE
8
BLACK
6
CONTINUOUS
10
1.26577
20
0.40179
11
1.26448
21
0.400243
0
LINE
8
BLACK
6
CONTINUOUS
10
1.26448
20
0.400243
11
1.26249
21
0.399892
0
LINE
8
BLACK
6
CONTINUOUS
10
1.26249
20
0.399892
11
1.26074
21
0.400902
0
LINE
8
BLACK
6
CONTINUOUS
10
1.26074
20
0.400902
11
1.26005
21
0.4028
0
LINE
8
BLACK
6
CONTINUOUS
10
1.26005
20
0.4028
11
1.26005
21
0.639
0
LINE
8
BLACK
6
CONTINUOUS
10
1.26005
20
0.639
11
1.26023
21
0.64001
0
LINE
8
BLACK
6
CONTINUOUS
10
1.26023
20
0.64001
11
1.26152
21
0.641557
0
LINE
8
BLACK
6
CONTINUOUS
10
1.26152
20
0.641557
11
1.26351
21
0.641908
0
LINE
8
BLACK
6
CONTINUOUS
10
1.26351
20
0.641908
11
1.26526
21
0.640898
0
LINE
8
BLACK
6
CONTINUOUS
10
0.866109
20
0.446451
11
0.867984
21
0.444577
0
LINE
8
BLACK
6
CONTINUOUS
10
0.867984
20
0.444577
11
0.86849
21
0.443854
0
LINE
8
BLACK
6
CONTINUOUS
10
0.86849
20
0.443854
11
0.868537
21
0.443809
0
LINE
8
BLACK
6
CONTINUOUS
10
0.868537
20
0.443809
11
0.870412
21
0.44006
0
LINE
8
BLACK
6
CONTINUOUS
10
0.870412
20
0.44006
11
0.870704
21
0.439077
0
LINE
8
BLACK
6
CONTINUOUS
10
0.870704
20
0.439077
11
0.870663
21
0.438905
0
LINE
8
BLACK
6
CONTINUOUS
10
0.870663
20
0.438905
11
0.870724
21
0.438739
0
LINE
8
BLACK
6
CONTINUOUS
10
0.870724
20
0.438739
11
0.870724
21
0.427491
0
LINE
8
BLACK
6
CONTINUOUS
10
0.870724
20
0.427491
11
0.870546
21
0.426481
0
LINE
8
BLACK
6
CONTINUOUS
10
0.870546
20
0.426481
11
0.870432
21
0.426345
0
LINE
8
BLACK
6
CONTINUOUS
10
0.870432
20
0.426345
11
0.870412
21
0.42617
0
LINE
8
BLACK
6
CONTINUOUS
10
0.870412
20
0.42617
11
0.868537
21
0.422421
0
LINE
8
BLACK
6
CONTINUOUS
10
0.868537
20
0.422421
11
0.868011
21
0.421711
0
LINE
8
BLACK
6
CONTINUOUS
10
0.868011
20
0.421711
11
0.867984
21
0.421653
0
LINE
8
BLACK
6
CONTINUOUS
10
0.867984
20
0.421653
11
0.866109
21
0.419778
0
LINE
8
BLACK
6
CONTINUOUS
10
0.866109
20
0.419778
11
0.865386
21
0.419272
0
LINE
8
BLACK
6
CONTINUOUS
10
0.865386
20
0.419272
11
0.865342
21
0.419225
0
LINE
8
BLACK
6
CONTINUOUS
10
0.865342
20
0.419225
11
0.861592
21
0.417351
0
LINE
8
BLACK
6
CONTINUOUS
10
0.861592
20
0.417351
11
0.860609
21
0.417058
0
LINE
8
BLACK
6
CONTINUOUS
10
0.860609
20
0.417058
11
0.860438
21
0.417099
0
LINE
8
BLACK
6
CONTINUOUS
10
0.860438
20
0.417099
11
0.860272
21
0.417039
0
LINE
8
BLACK
6
CONTINUOUS
10
0.860272
20
0.417039
11
0.850898
21
0.417039
0
LINE
8
BLACK
6
CONTINUOUS
10
0.850898
20
0.417039
11
0.849888
21
0.417217
0
LINE
8
BLACK
6
CONTINUOUS
10
0.849888
20
0.417217
11
0.849753
21
0.41733
0
LINE
8
BLACK
6
CONTINUOUS
10
0.849753
20
0.41733
11
0.849577
21
0.417351
0
LINE
8
BLACK
6
CONTINUOUS
10
0.849577
20
0.417351
11
0.845828
21
0.419225
0
LINE
8
BLACK
6
CONTINUOUS
10
0.845828
20
0.419225
11
0.845119
21
0.419751
0
LINE
8
BLACK
6
CONTINUOUS
10
0.845119
20
0.419751
11
0.845061
21
0.419778
0
LINE
8
BLACK
6
CONTINUOUS
10
0.845061
20
0.419778
11
0.843186
21
0.421653
0
LINE
8
BLACK
6
CONTINUOUS
10
0.843186
20
0.421653
11
0.842679
21
0.422376
0
LINE
8
BLACK
6
CONTINUOUS
10
0.842679
20
0.422376
11
0.842633
21
0.422421
0
LINE
8
BLACK
6
CONTINUOUS
10
0.842633
20
0.422421
11
0.840758
21
0.42617
0
LINE
8
BLACK
6
CONTINUOUS
10
0.840758
20
0.42617
11
0.84059
21
0.426734
0
LINE
8
BLACK
6
CONTINUOUS
10
0.84059
20
0.426734
11
0.830345
21
0.417769
0
LINE
8
BLACK
6
CONTINUOUS
10
0.830345
20
0.417769
11
0.829965
21
0.417539
0
LINE
8
BLACK
6
CONTINUOUS
10
0.829965
20
0.417539
11
0.829877
21
0.417434
0
LINE
8
BLACK
6
CONTINUOUS
10
0.829877
20
0.417434
11
0.829757
21
0.417413
0
LINE
8
BLACK
6
CONTINUOUS
10
0.829757
20
0.417413
11
0.829468
21
0.417238
0
LINE
8
BLACK
6
CONTINUOUS
10
0.829468
20
0.417238
11
0.828672
21
0.417222
0
LINE
8
BLACK
6
CONTINUOUS
10
0.828672
20
0.417222
11
0.827888
21
0.417084
0
LINE
8
BLACK
6
CONTINUOUS
10
0.827888
20
0.417084
11
0.827684
21
0.417201
0
LINE
8
BLACK
6
CONTINUOUS
10
0.827684
20
0.417201
11
0.827449
21
0.417197
0
LINE
8
BLACK
6
CONTINUOUS
10
0.827449
20
0.417197
11
0.826828
21
0.417695
0
LINE
8
BLACK
6
CONTINUOUS
10
0.826828
20
0.417695
11
0.826139
21
0.418094
0
LINE
8
BLACK
6
CONTINUOUS
10
0.826139
20
0.418094
11
0.826058
21
0.418315
0
LINE
8
BLACK
6
CONTINUOUS
10
0.826058
20
0.418315
11
0.825875
21
0.418463
0
LINE
8
BLACK
6
CONTINUOUS
10
0.825875
20
0.418463
11
0.82572
21
0.419244
0
LINE
8
BLACK
6
CONTINUOUS
10
0.82572
20
0.419244
11
0.825448
21
0.419992
0
LINE
8
BLACK
6
CONTINUOUS
10
0.825448
20
0.419992
11
0.825448
21
0.444364
0
LINE
8
BLACK
6
CONTINUOUS
10
0.825448
20
0.444364
11
0.825626
21
0.445373
0
LINE
8
BLACK
6
CONTINUOUS
10
0.825626
20
0.445373
11
0.826924
21
0.446921
0
LINE
8
BLACK
6
CONTINUOUS
10
0.826924
20
0.446921
11
0.828914
21
0.447271
0
LINE
8
BLACK
6
CONTINUOUS
10
0.828914
20
0.447271
11
0.830663
21
0.446261
0
LINE
8
BLACK
6
CONTINUOUS
10
0.830663
20
0.446261
11
0.831354
21
0.444364
0
LINE
8
BLACK
6
CONTINUOUS
10
0.831354
20
0.444364
11
0.831354
21
0.426499
0
LINE
8
BLACK
6
CONTINUOUS
10
0.831354
20
0.426499
11
0.841455
21
0.435337
0
LINE
8
BLACK
6
CONTINUOUS
10
0.841455
20
0.435337
11
0.841834
21
0.435567
0
LINE
8
BLACK
6
CONTINUOUS
10
0.841834
20
0.435567
11
0.841923
21
0.435672
0
LINE
8
BLACK
6
CONTINUOUS
10
0.841923
20
0.435672
11
0.842043
21
0.435693
0
LINE
8
BLACK
6
CONTINUOUS
10
0.842043
20
0.435693
11
0.842332
21
0.435868
0
LINE
8
BLACK
6
CONTINUOUS
10
0.842332
20
0.435868
11
0.843128
21
0.435885
0
LINE
8
BLACK
6
CONTINUOUS
10
0.843128
20
0.435885
11
0.843912
21
0.436023
0
LINE
8
BLACK
6
CONTINUOUS
10
0.843912
20
0.436023
11
0.844116
21
0.435905
0
LINE
8
BLACK
6
CONTINUOUS
10
0.844116
20
0.435905
11
0.844351
21
0.43591
0
LINE
8
BLACK
6
CONTINUOUS
10
0.844351
20
0.43591
11
0.844971
21
0.435411
0
LINE
8
BLACK
6
CONTINUOUS
10
0.844971
20
0.435411
11
0.845661
21
0.435013
0
LINE
8
BLACK
6
CONTINUOUS
10
0.845661
20
0.435013
11
0.845741
21
0.434792
0
LINE
8
BLACK
6
CONTINUOUS
10
0.845741
20
0.434792
11
0.845925
21
0.434644
0
LINE
8
BLACK
6
CONTINUOUS
10
0.845925
20
0.434644
11
0.846079
21
0.433863
0
LINE
8
BLACK
6
CONTINUOUS
10
0.846079
20
0.433863
11
0.846352
21
0.433115
0
LINE
8
BLACK
6
CONTINUOUS
10
0.846352
20
0.433115
11
0.846352
21
0.428188
0
LINE
8
BLACK
6
CONTINUOUS
10
0.846352
20
0.428188
11
0.8477
21
0.42549
0
LINE
8
BLACK
6
CONTINUOUS
10
0.8477
20
0.42549
11
0.848898
21
0.424293
0
LINE
8
BLACK
6
CONTINUOUS
10
0.848898
20
0.424293
11
0.851595
21
0.422944
0
LINE
8
BLACK
6
CONTINUOUS
10
0.851595
20
0.422944
11
0.859575
21
0.422944
0
LINE
8
BLACK
6
CONTINUOUS
10
0.859575
20
0.422944
11
0.862272
21
0.424293
0
LINE
8
BLACK
6
CONTINUOUS
10
0.862272
20
0.424293
11
0.863469
21
0.42549
0
LINE
8
BLACK
6
CONTINUOUS
10
0.863469
20
0.42549
11
0.864818
21
0.428188
0
LINE
8
BLACK
6
CONTINUOUS
10
0.864818
20
0.428188
11
0.864818
21
0.438042
0
LINE
8
BLACK
6
CONTINUOUS
10
0.864818
20
0.438042
11
0.863469
21
0.44074
0
LINE
8
BLACK
6
CONTINUOUS
10
0.863469
20
0.44074
11
0.861933
21
0.442276
0
LINE
8
BLACK
6
CONTINUOUS
10
0.861933
20
0.442276
11
0.861345
21
0.443116
0
LINE
8
BLACK
6
CONTINUOUS
10
0.861345
20
0.443116
11
0.861169
21
0.445128
0
LINE
8
BLACK
6
CONTINUOUS
10
0.861169
20
0.445128
11
0.862328
21
0.446782
0
LINE
8
BLACK
6
CONTINUOUS
10
0.862328
20
0.446782
11
0.864279
21
0.447305
0
LINE
8
BLACK
6
CONTINUOUS
10
0.864279
20
0.447305
11
0.866109
21
0.446451
0
LINE
8
BLACK
6
CONTINUOUS
10
0.815607
20
0.461535
11
0.816299
21
0.459865
0
LINE
8
BLACK
6
CONTINUOUS
10
0.816299
20
0.459865
11
0.816299
21
0.441986
0
LINE
8
BLACK
6
CONTINUOUS
10
0.816299
20
0.441986
11
0.815607
21
0.440315
0
LINE
8
BLACK
6
CONTINUOUS
10
0.815607
20
0.440315
11
0.813937
21
0.439623
0
LINE
8
BLACK
6
CONTINUOUS
10
0.813937
20
0.439623
11
0.812267
21
0.440315
0
LINE
8
BLACK
6
CONTINUOUS
10
0.812267
20
0.440315
11
0.811575
21
0.441986
0
LINE
8
BLACK
6
CONTINUOUS
10
0.811575
20
0.441986
11
0.811575
21
0.459865
0
LINE
8
BLACK
6
CONTINUOUS
10
0.811575
20
0.459865
11
0.812267
21
0.461535
0
LINE
8
BLACK
6
CONTINUOUS
10
0.812267
20
0.461535
11
0.813937
21
0.462227
0
LINE
8
BLACK
6
CONTINUOUS
10
0.813937
20
0.462227
11
0.815607
21
0.461535
0
LINE
8
BLACK
6
CONTINUOUS
10
0.757733
20
0.461535
11
0.758425
21
0.459865
0
LINE
8
BLACK
6
CONTINUOUS
10
0.758425
20
0.459865
11
0.758425
21
0.441986
0
LINE
8
BLACK
6
CONTINUOUS
10
0.758425
20
0.441986
11
0.757733
21
0.440315
0
LINE
8
BLACK
6
CONTINUOUS
10
0.757733
20
0.440315
11
0.756063
21
0.439623
0
LINE
8
BLACK
6
CONTINUOUS
10
0.756063
20
0.439623
11
0.754393
21
0.440315
0
LINE
8
BLACK
6
CONTINUOUS
10
0.754393
20
0.440315
11
0.753701
21
0.441986
0
LINE
8
BLACK
6
CONTINUOUS
10
0.753701
20
0.441986
11
0.753701
21
0.459865
0
LINE
8
BLACK
6
CONTINUOUS
10
0.753701
20
0.459865
11
0.754393
21
0.461535
0
LINE
8
BLACK
6
CONTINUOUS
10
0.754393
20
0.461535
11
0.756063
21
0.462227
0
LINE
8
BLACK
6
CONTINUOUS
10
0.756063
20
0.462227
11
0.757733
21
0.461535
0
LINE
8
BLACK
6
CONTINUOUS
10
0.868781
20
0.482759
11
0.870328
21
0.48146
0
LINE
8
BLACK
6
CONTINUOUS
10
0.870328
20
0.48146
11
0.870679
21
0.479471
0
LINE
8
BLACK
6
CONTINUOUS
10
0.870679
20
0.479471
11
0.869669
21
0.477722
0
LINE
8
BLACK
6
CONTINUOUS
10
0.869669
20
0.477722
11
0.867771
21
0.477031
0
LINE
8
BLACK
6
CONTINUOUS
10
0.867771
20
0.477031
11
0.851976
21
0.477031
0
LINE
8
BLACK
6
CONTINUOUS
10
0.851976
20
0.477031
11
0.851976
21
0.472148
0
LINE
8
BLACK
6
CONTINUOUS
10
0.851976
20
0.472148
11
0.869464
21
0.459906
0
LINE
8
BLACK
6
CONTINUOUS
10
0.869464
20
0.459906
11
0.870189
21
0.459181
0
LINE
8
BLACK
6
CONTINUOUS
10
0.870189
20
0.459181
11
0.870712
21
0.45723
0
LINE
8
BLACK
6
CONTINUOUS
10
0.870712
20
0.45723
11
0.869859
21
0.455399
0
LINE
8
BLACK
6
CONTINUOUS
10
0.869859
20
0.455399
11
0.868029
21
0.454545
0
LINE
8
BLACK
6
CONTINUOUS
10
0.868029
20
0.454545
11
0.866078
21
0.455068
0
LINE
8
BLACK
6
CONTINUOUS
10
0.866078
20
0.455068
11
0.851969
21
0.464944
0
LINE
8
BLACK
6
CONTINUOUS
10
0.851969
20
0.464944
11
0.851798
21
0.463976
0
LINE
8
BLACK
6
CONTINUOUS
10
0.851798
20
0.463976
11
0.851684
21
0.463841
0
LINE
8
BLACK
6
CONTINUOUS
10
0.851684
20
0.463841
11
0.851664
21
0.463665
0
LINE
8
BLACK
6
CONTINUOUS
10
0.851664
20
0.463665
11
0.849789
21
0.459916
0
LINE
8
BLACK
6
CONTINUOUS
10
0.849789
20
0.459916
11
0.849264
21
0.459207
0
LINE
8
BLACK
6
CONTINUOUS
10
0.849264
20
0.459207
11
0.849236
21
0.459148
0
LINE
8
BLACK
6
CONTINUOUS
10
0.849236
20
0.459148
11
0.847362
21
0.457274
0
LINE
8
BLACK
6
CONTINUOUS
10
0.847362
20
0.457274
11
0.846639
21
0.456767
0
LINE
8
BLACK
6
CONTINUOUS
10
0.846639
20
0.456767
11
0.846594
21
0.456721
0
LINE
8
BLACK
6
CONTINUOUS
10
0.846594
20
0.456721
11
0.842845
21
0.454846
0
LINE
8
BLACK
6
CONTINUOUS
10
0.842845
20
0.454846
11
0.841862
21
0.454553
0
LINE
8
BLACK
6
CONTINUOUS
10
0.841862
20
0.454553
11
0.84169
21
0.454594
0
LINE
8
BLACK
6
CONTINUOUS
10
0.84169
20
0.454594
11
0.841524
21
0.454534
0
LINE
8
BLACK
6
CONTINUOUS
10
0.841524
20
0.454534
11
0.8359
21
0.454534
0
LINE
8
BLACK
6
CONTINUOUS
10
0.8359
20
0.454534
11
0.83489
21
0.454712
0
LINE
8
BLACK
6
CONTINUOUS
10
0.83489
20
0.454712
11
0.834755
21
0.454826
0
LINE
8
BLACK
6
CONTINUOUS
10
0.834755
20
0.454826
11
0.834579
21
0.454846
0
LINE
8
BLACK
6
CONTINUOUS
10
0.834579
20
0.454846
11
0.83083
21
0.456721
0
LINE
8
BLACK
6
CONTINUOUS
10
0.83083
20
0.456721
11
0.830121
21
0.457246
0
LINE
8
BLACK
6
CONTINUOUS
10
0.830121
20
0.457246
11
0.830062
21
0.457274
0
LINE
8
BLACK
6
CONTINUOUS
10
0.830062
20
0.457274
11
0.828188
21
0.459148
0
LINE
8
BLACK
6
CONTINUOUS
10
0.828188
20
0.459148
11
0.827681
21
0.459871
0
LINE
8
BLACK
6
CONTINUOUS
10
0.827681
20
0.459871
11
0.827635
21
0.459916
0
LINE
8
BLACK
6
CONTINUOUS
10
0.827635
20
0.459916
11
0.82576
21
0.463665
0
LINE
8
BLACK
6
CONTINUOUS
10
0.82576
20
0.463665
11
0.825467
21
0.464648
0
LINE
8
BLACK
6
CONTINUOUS
10
0.825467
20
0.464648
11
0.825508
21
0.46482
0
LINE
8
BLACK
6
CONTINUOUS
10
0.825508
20
0.46482
11
0.825448
21
0.464986
0
LINE
8
BLACK
6
CONTINUOUS
10
0.825448
20
0.464986
11
0.825448
21
0.479984
0
LINE
8
BLACK
6
CONTINUOUS
10
0.825448
20
0.479984
11
0.825516
21
0.480368
0
LINE
8
BLACK
6
CONTINUOUS
10
0.825516
20
0.480368
11
0.825493
21
0.480497
0
LINE
8
BLACK
6
CONTINUOUS
10
0.825493
20
0.480497
11
0.825558
21
0.48061
0
LINE
8
BLACK
6
CONTINUOUS
10
0.825558
20
0.48061
11
0.825626
21
0.480994
0
LINE
8
BLACK
6
CONTINUOUS
10
0.825626
20
0.480994
11
0.826119
21
0.481582
0
LINE
8
BLACK
6
CONTINUOUS
10
0.826119
20
0.481582
11
0.826503
21
0.482246
0
LINE
8
BLACK
6
CONTINUOUS
10
0.826503
20
0.482246
11
0.826753
21
0.482337
0
LINE
8
BLACK
6
CONTINUOUS
10
0.826753
20
0.482337
11
0.826924
21
0.482541
0
LINE
8
BLACK
6
CONTINUOUS
10
0.826924
20
0.482541
11
0.82768
21
0.482674
0
LINE
8
BLACK
6
CONTINUOUS
10
0.82768
20
0.482674
11
0.828401
21
0.482937
0
LINE
8
BLACK
6
CONTINUOUS
10
0.828401
20
0.482937
11
0.867771
21
0.482937
0
LINE
8
BLACK
6
CONTINUOUS
10
0.867771
20
0.482937
11
0.868781
21
0.482759
0
LINE
8
BLACK
6
CONTINUOUS
10
0.831354
20
0.477031
11
0.831354
21
0.465683
0
LINE
8
BLACK
6
CONTINUOUS
10
0.831354
20
0.465683
11
0.832702
21
0.462985
0
LINE
8
BLACK
6
CONTINUOUS
10
0.832702
20
0.462985
11
0.833899
21
0.461788
0
LINE
8
BLACK
6
CONTINUOUS
10
0.833899
20
0.461788
11
0.836597
21
0.46044
0
LINE
8
BLACK
6
CONTINUOUS
10
0.836597
20
0.46044
11
0.840827
21
0.46044
0
LINE
8
BLACK
6
CONTINUOUS
10
0.840827
20
0.46044
11
0.843525
21
0.461788
0
LINE
8
BLACK
6
CONTINUOUS
10
0.843525
20
0.461788
11
0.844722
21
0.462985
0
LINE
8
BLACK
6
CONTINUOUS
10
0.844722
20
0.462985
11
0.84607
21
0.465683
0
LINE
8
BLACK
6
CONTINUOUS
10
0.84607
20
0.465683
11
0.84607
21
0.477031
0
LINE
8
BLACK
6
CONTINUOUS
10
0.84607
20
0.477031
11
0.831354
21
0.477031
0
LINE
8
BLACK
6
CONTINUOUS
10
1.22061
20
0.516535
11
1.2213
21
0.514865
0
LINE
8
BLACK
6
CONTINUOUS
10
1.2213
20
0.514865
11
1.2213
21
0.496986
0
LINE
8
BLACK
6
CONTINUOUS
10
1.2213
20
0.496986
11
1.22061
21
0.495315
0
LINE
8
BLACK
6
CONTINUOUS
10
1.22061
20
0.495315
11
1.21894
21
0.494623
0
LINE
8
BLACK
6
CONTINUOUS
10
1.21894
20
0.494623
11
1.21727
21
0.495315
0
LINE
8
BLACK
6
CONTINUOUS
10
1.21727
20
0.495315
11
1.21657
21
0.496986
0
LINE
8
BLACK
6
CONTINUOUS
10
1.21657
20
0.496986
11
1.21657
21
0.514865
0
LINE
8
BLACK
6
CONTINUOUS
10
1.21657
20
0.514865
11
1.21727
21
0.516535
0
LINE
8
BLACK
6
CONTINUOUS
10
1.21727
20
0.516535
11
1.21894
21
0.517227
0
LINE
8
BLACK
6
CONTINUOUS
10
1.21894
20
0.517227
11
1.22061
21
0.516535
0
LINE
8
BLACK
6
CONTINUOUS
10
1.16273
20
0.516535
11
1.16343
21
0.514865
0
LINE
8
BLACK
6
CONTINUOUS
10
1.16343
20
0.514865
11
1.16343
21
0.496986
0
LINE
8
BLACK
6
CONTINUOUS
10
1.16343
20
0.496986
11
1.16273
21
0.495315
0
LINE
8
BLACK
6
CONTINUOUS
10
1.16273
20
0.495315
11
1.16106
21
0.494623
0
LINE
8
BLACK
6
CONTINUOUS
10
1.16106
20
0.494623
11
1.15939
21
0.495315
0
LINE
8
BLACK
6
CONTINUOUS
10
1.15939
20
0.495315
11
1.1587
21
0.496986
0
LINE
8
BLACK
6
CONTINUOUS
10
1.1587
20
0.496986
11
1.1587
21
0.514865
0
LINE
8
BLACK
6
CONTINUOUS
10
1.1587
20
0.514865
11
1.15939
21
0.516535
0
LINE
8
BLACK
6
CONTINUOUS
10
1.15939
20
0.516535
11
1.16106
21
0.517227
0
LINE
8
BLACK
6
CONTINUOUS
10
1.16106
20
0.517227
11
1.16273
21
0.516535
0
LINE
8
BLACK
6
CONTINUOUS
10
1.12061
20
0.519357
11
1.1213
21
0.517687
0
LINE
8
BLACK
6
CONTINUOUS
10
1.1213
20
0.517687
11
1.1213
21
0.497116
0
LINE
8
BLACK
6
CONTINUOUS
10
1.1213
20
0.497116
11
1.12061
21
0.495446
0
LINE
8
BLACK
6
CONTINUOUS
10
1.12061
20
0.495446
11
1.11894
21
0.494754
0
LINE
8
BLACK
6
CONTINUOUS
10
1.11894
20
0.494754
11
1.11727
21
0.495446
0
LINE
8
BLACK
6
CONTINUOUS
10
1.11727
20
0.495446
11
1.11657
21
0.497116
0
LINE
8
BLACK
6
CONTINUOUS
10
1.11657
20
0.497116
11
1.11657
21
0.517687
0
LINE
8
BLACK
6
CONTINUOUS
10
1.11657
20
0.517687
11
1.11727
21
0.519357
0
LINE
8
BLACK
6
CONTINUOUS
10
1.11727
20
0.519357
11
1.11894
21
0.520049
0
LINE
8
BLACK
6
CONTINUOUS
10
1.11894
20
0.520049
11
1.12061
21
0.519357
0
LINE
8
BLACK
6
CONTINUOUS
10
1.06273
20
0.519357
11
1.06343
21
0.517687
0
LINE
8
BLACK
6
CONTINUOUS
10
1.06343
20
0.517687
11
1.06343
21
0.497116
0
LINE
8
BLACK
6
CONTINUOUS
10
1.06343
20
0.497116
11
1.06273
21
0.495446
0
LINE
8
BLACK
6
CONTINUOUS
10
1.06273
20
0.495446
11
1.06106
21
0.494754
0
LINE
8
BLACK
6
CONTINUOUS
10
1.06106
20
0.494754
11
1.05939
21
0.495446
0
LINE
8
BLACK
6
CONTINUOUS
10
1.05939
20
0.495446
11
1.0587
21
0.497116
0
LINE
8
BLACK
6
CONTINUOUS
10
1.0587
20
0.497116
11
1.0587
21
0.517687
0
LINE
8
BLACK
6
CONTINUOUS
10
1.0587
20
0.517687
11
1.05939
21
0.519357
0
LINE
8
BLACK
6
CONTINUOUS
10
1.05939
20
0.519357
11
1.06106
21
0.520049
0
LINE
8
BLACK
6
CONTINUOUS
10
1.06106
20
0.520049
11
1.06273
21
0.519357
0
LINE
8
BLACK
6
CONTINUOUS
10
1.01506
20
0.516716
11
1.01339
21
0.516024
0
LINE
8
BLACK
6
CONTINUOUS
10
1.01339
20
0.516024
11
1.01172
21
0.516716
0
LINE
8
BLACK
6
CONTINUOUS
10
1.01172
20
0.516716
11
1.01102
21
0.518386
0
LINE
8
BLACK
6
CONTINUOUS
10
1.01102
20
0.518386
11
1.01102
21
0.691614
0
LINE
8
BLACK
6
CONTINUOUS
10
1.01102
20
0.691614
11
1.01172
21
0.693284
0
LINE
8
BLACK
6
CONTINUOUS
10
1.01172
20
0.693284
11
1.01339
21
0.693976
0
LINE
8
BLACK
6
CONTINUOUS
10
1.01339
20
0.693976
11
1.01506
21
0.693284
0
LINE
8
BLACK
6
CONTINUOUS
10
1.01506
20
0.693284
11
1.01575
21
0.691614
0
LINE
8
BLACK
6
CONTINUOUS
10
1.01575
20
0.691614
11
1.01575
21
0.518386
0
LINE
8
BLACK
6
CONTINUOUS
10
1.01575
20
0.518386
11
1.01506
21
0.516716
0
LINE
8
BLACK
6
CONTINUOUS
10
0.888284
20
0.516716
11
0.886614
21
0.516024
0
LINE
8
BLACK
6
CONTINUOUS
10
0.886614
20
0.516024
11
0.884944
21
0.516716
0
LINE
8
BLACK
6
CONTINUOUS
10
0.884944
20
0.516716
11
0.884252
21
0.518386
0
LINE
8
BLACK
6
CONTINUOUS
10
0.884252
20
0.518386
11
0.884252
21
0.746732
0
LINE
8
BLACK
6
CONTINUOUS
10
0.884252
20
0.746732
11
0.884944
21
0.748403
0
LINE
8
BLACK
6
CONTINUOUS
10
0.884944
20
0.748403
11
0.886614
21
0.749094
0
LINE
8
BLACK
6
CONTINUOUS
10
0.886614
20
0.749094
11
0.888284
21
0.748403
0
LINE
8
BLACK
6
CONTINUOUS
10
0.888284
20
0.748403
11
0.888976
21
0.746732
0
LINE
8
BLACK
6
CONTINUOUS
10
0.888976
20
0.746732
11
0.888976
21
0.518386
0
LINE
8
BLACK
6
CONTINUOUS
10
0.888976
20
0.518386
11
0.888284
21
0.516716
0
LINE
8
BLACK
6
CONTINUOUS
10
1.44929
20
0.642053
11
1.45148
21
0.639857
0
LINE
8
BLACK
6
CONTINUOUS
10
1.45148
20
0.639857
11
1.45229
21
0.636857
0
LINE
8
BLACK
6
CONTINUOUS
10
1.45229
20
0.636857
11
1.45229
21
0.62
0
LINE
8
BLACK
6
CONTINUOUS
10
1.45229
20
0.62
11
1.46914
21
0.62
0
LINE
8
BLACK
6
CONTINUOUS
10
1.46914
20
0.62
11
1.47214
21
0.619196
0
LINE
8
BLACK
6
CONTINUOUS
10
1.47214
20
0.619196
11
1.47434
21
0.617
0
LINE
8
BLACK
6
CONTINUOUS
10
1.47434
20
0.617
11
1.47514
21
0.614
0
LINE
8
BLACK
6
CONTINUOUS
10
1.47514
20
0.614
11
1.47434
21
0.611
0
LINE
8
BLACK
6
CONTINUOUS
10
1.47434
20
0.611
11
1.47214
21
0.608804
0
LINE
8
BLACK
6
CONTINUOUS
10
1.47214
20
0.608804
11
1.46914
21
0.608
0
LINE
8
BLACK
6
CONTINUOUS
10
1.46914
20
0.608
11
1.45229
21
0.608
0
LINE
8
BLACK
6
CONTINUOUS
10
1.45229
20
0.608
11
1.45229
21
0.591143
0
LINE
8
BLACK
6
CONTINUOUS
10
1.45229
20
0.591143
11
1.45148
21
0.588143
0
LINE
8
BLACK
6
CONTINUOUS
10
1.45148
20
0.588143
11
1.44929
21
0.585947
0
LINE
8
BLACK
6
CONTINUOUS
10
1.44929
20
0.585947
11
1.44629
21
0.585143
0
LINE
8
BLACK
6
CONTINUOUS
10
1.44629
20
0.585143
11
1.44329
21
0.585947
0
LINE
8
BLACK
6
CONTINUOUS
10
1.44329
20
0.585947
11
1.44109
21
0.588143
0
LINE
8
BLACK
6
CONTINUOUS
10
1.44109
20
0.588143
11
1.44029
21
0.591143
0
LINE
8
BLACK
6
CONTINUOUS
10
1.44029
20
0.591143
11
1.44029
21
0.608
0
LINE
8
BLACK
6
CONTINUOUS
10
1.44029
20
0.608
11
1.42343
21
0.608
0
LINE
8
BLACK
6
CONTINUOUS
10
1.42343
20
0.608
11
1.42043
21
0.608804
0
LINE
8
BLACK
6
CONTINUOUS
10
1.42043
20
0.608804
11
1.41823
21
0.611
0
LINE
8
BLACK
6
CONTINUOUS
10
1.41823
20
0.611
11
1.41743
21
0.614
0
LINE
8
BLACK
6
CONTINUOUS
10
1.41743
20
0.614
11
1.41823
21
0.617
0
LINE
8
BLACK
6
CONTINUOUS
10
1.41823
20
0.617
11
1.42043
21
0.619196
0
LINE
8
BLACK
6
CONTINUOUS
10
1.42043
20
0.619196
11
1.42343
21
0.62
0
LINE
8
BLACK
6
CONTINUOUS
10
1.42343
20
0.62
11
1.44029
21
0.62
0
LINE
8
BLACK
6
CONTINUOUS
10
1.44029
20
0.62
11
1.44029
21
0.636857
0
LINE
8
BLACK
6
CONTINUOUS
10
1.44029
20
0.636857
11
1.44109
21
0.639857
0
LINE
8
BLACK
6
CONTINUOUS
10
1.44109
20
0.639857
11
1.44329
21
0.642053
0
LINE
8
BLACK
6
CONTINUOUS
10
1.44329
20
0.642053
11
1.44629
21
0.642857
0
LINE
8
BLACK
6
CONTINUOUS
10
1.44629
20
0.642857
11
1.44929
21
0.642053
0
LINE
8
BLACK
6
CONTINUOUS
10
0.760607
20
0.664685
11
0.761299
21
0.663014
0
LINE
8
BLACK
6
CONTINUOUS
10
0.761299
20
0.663014
11
0.761299
21
0.645135
0
LINE
8
BLACK
6
CONTINUOUS
10
0.761299
20
0.645135
11
0.760607
21
0.643465
0
LINE
8
BLACK
6
CONTINUOUS
10
0.760607
20
0.643465
11
0.758937
21
0.642773
0
LINE
8
BLACK
6
CONTINUOUS
10
0.758937
20
0.642773
11
0.757267
21
0.643465
0
LINE
8
BLACK
6
CONTINUOUS
10
0.757267
20
0.643465
11
0.756575
21
0.645135
0
LINE
8
BLACK
6
CONTINUOUS
10
0.756575
20
0.645135
11
0.756575
21
0.663014
0
LINE
8
BLACK
6
CONTINUOUS
10
0.756575
20
0.663014
11
0.757267
21
0.664685
0
LINE
8
BLACK
6
CONTINUOUS
10
0.757267
20
0.664685
11
0.758937
21
0.665377
0
LINE
8
BLACK
6
CONTINUOUS
10
0.758937
20
0.665377
11
0.760607
21
0.664685
0
LINE
8
BLACK
6
CONTINUOUS
10
0.702733
20
0.664685
11
0.703425
21
0.663014
0
LINE
8
BLACK
6
CONTINUOUS
10
0.703425
20
0.663014
11
0.703425
21
0.645135
0
LINE
8
BLACK
6
CONTINUOUS
10
0.703425
20
0.645135
11
0.702733
21
0.643465
0
LINE
8
BLACK
6
CONTINUOUS
10
0.702733
20
0.643465
11
0.701063
21
0.642773
0
LINE
8
BLACK
6
CONTINUOUS
10
0.701063
20
0.642773
11
0.699393
21
0.643465
0
LINE
8
BLACK
6
CONTINUOUS
10
0.699393
20
0.643465
11
0.698701
21
0.645135
0
LINE
8
BLACK
6
CONTINUOUS
10
0.698701
20
0.645135
11
0.698701
21
0.663014
0
LINE
8
BLACK
6
CONTINUOUS
10
0.698701
20
0.663014
11
0.699393
21
0.664685
0
LINE
8
BLACK
6
CONTINUOUS
10
0.699393
20
0.664685
11
0.701063
21
0.665377
0
LINE
8
BLACK
6
CONTINUOUS
10
0.701063
20
0.665377
11
0.702733
21
0.664685
0
LINE
8
BLACK
6
CONTINUOUS
10
1.21561
20
0.691956
11
1.2163
21
0.690286
0
LINE
8
BLACK
6
CONTINUOUS
10
1.2163
20
0.690286
11
1.2163
21
0.669714
0
LINE
8
BLACK
6
CONTINUOUS
10
1.2163
20
0.669714
11
1.21561
21
0.668044
0
LINE
8
BLACK
6
CONTINUOUS
10
1.21561
20
0.668044
11
1.21394
21
0.667352
0
LINE
8
BLACK
6
CONTINUOUS
10
1.21394
20
0.667352
11
1.21227
21
0.668044
0
LINE
8
BLACK
6
CONTINUOUS
10
1.21227
20
0.668044
11
1.21157
21
0.669714
0
LINE
8
BLACK
6
CONTINUOUS
10
1.21157
20
0.669714
11
1.21157
21
0.690286
0
LINE
8
BLACK
6
CONTINUOUS
10
1.21157
20
0.690286
11
1.21227
21
0.691956
0
LINE
8
BLACK
6
CONTINUOUS
10
1.21227
20
0.691956
11
1.21394
21
0.692648
0
LINE
8
BLACK
6
CONTINUOUS
10
1.21394
20
0.692648
11
1.21561
21
0.691956
0
LINE
8
BLACK
6
CONTINUOUS
10
1.15773
20
0.691956
11
1.15843
21
0.690286
0
LINE
8
BLACK
6
CONTINUOUS
10
1.15843
20
0.690286
11
1.15843
21
0.669714
0
LINE
8
BLACK
6
CONTINUOUS
10
1.15843
20
0.669714
11
1.15773
21
0.668044
0
LINE
8
BLACK
6
CONTINUOUS
10
1.15773
20
0.668044
11
1.15606
21
0.667352
0
LINE
8
BLACK
6
CONTINUOUS
10
1.15606
20
0.667352
11
1.15439
21
0.668044
0
LINE
8
BLACK
6
CONTINUOUS
10
1.15439
20
0.668044
11
1.1537
21
0.669714
0
LINE
8
BLACK
6
CONTINUOUS
10
1.1537
20
0.669714
11
1.1537
21
0.690286
0
LINE
8
BLACK
6
CONTINUOUS
10
1.1537
20
0.690286
11
1.15439
21
0.691956
0
LINE
8
BLACK
6
CONTINUOUS
10
1.15439
20
0.691956
11
1.15606
21
0.692648
0
LINE
8
BLACK
6
CONTINUOUS
10
1.15606
20
0.692648
11
1.15773
21
0.691956
0
LINE
8
BLACK
6
CONTINUOUS
10
1.12061
20
0.694357
11
1.1213
21
0.692687
0
LINE
8
BLACK
6
CONTINUOUS
10
1.1213
20
0.692687
11
1.1213
21
0.672116
0
LINE
8
BLACK
6
CONTINUOUS
10
1.1213
20
0.672116
11
1.12061
21
0.670446
0
LINE
8
BLACK
6
CONTINUOUS
10
1.12061
20
0.670446
11
1.11894
21
0.669754
0
LINE
8
BLACK
6
CONTINUOUS
10
1.11894
20
0.669754
11
1.11727
21
0.670446
0
LINE
8
BLACK
6
CONTINUOUS
10
1.11727
20
0.670446
11
1.11657
21
0.672116
0
LINE
8
BLACK
6
CONTINUOUS
10
1.11657
20
0.672116
11
1.11657
21
0.692687
0
LINE
8
BLACK
6
CONTINUOUS
10
1.11657
20
0.692687
11
1.11727
21
0.694357
0
LINE
8
BLACK
6
CONTINUOUS
10
1.11727
20
0.694357
11
1.11894
21
0.695049
0
LINE
8
BLACK
6
CONTINUOUS
10
1.11894
20
0.695049
11
1.12061
21
0.694357
0
LINE
8
BLACK
6
CONTINUOUS
10
1.06273
20
0.694357
11
1.06343
21
0.692687
0
LINE
8
BLACK
6
CONTINUOUS
10
1.06343
20
0.692687
11
1.06343
21
0.672116
0
LINE
8
BLACK
6
CONTINUOUS
10
1.06343
20
0.672116
11
1.06273
21
0.670446
0
LINE
8
BLACK
6
CONTINUOUS
10
1.06273
20
0.670446
11
1.06106
21
0.669754
0
LINE
8
BLACK
6
CONTINUOUS
10
1.06106
20
0.669754
11
1.05939
21
0.670446
0
LINE
8
BLACK
6
CONTINUOUS
10
1.05939
20
0.670446
11
1.0587
21
0.672116
0
LINE
8
BLACK
6
CONTINUOUS
10
1.0587
20
0.672116
11
1.0587
21
0.692687
0
LINE
8
BLACK
6
CONTINUOUS
10
1.0587
20
0.692687
11
1.05939
21
0.694357
0
LINE
8
BLACK
6
CONTINUOUS
10
1.05939
20
0.694357
11
1.06106
21
0.695049
0
LINE
8
BLACK
6
CONTINUOUS
10
1.06106
20
0.695049
11
1.06273
21
0.694357
0
LINE
8
BLACK
6
CONTINUOUS
10
0.659162
20
0.919998
11
0.659853
21
0.9181
0
LINE
8
BLACK
6
CONTINUOUS
10
0.659853
20
0.9181
11
0.659853
21
0.6819
0
LINE
8
BLACK
6
CONTINUOUS
10
0.659853
20
0.6819
11
0.659675
21
0.68089
0
LINE
8
BLACK
6
CONTINUOUS
10
0.659675
20
0.68089
11
0.658376
21
0.679343
0
LINE
8
BLACK
6
CONTINUOUS
10
0.658376
20
0.679343
11
0.656387
21
0.678992
0
LINE
8
BLACK
6
CONTINUOUS
10
0.656387
20
0.678992
11
0.654638
21
0.680002
0
LINE
8
BLACK
6
CONTINUOUS
10
0.654638
20
0.680002
11
0.653947
21
0.6819
0
LINE
8
BLACK
6
CONTINUOUS
10
0.653947
20
0.6819
11
0.653947
21
0.9181
0
LINE
8
BLACK
6
CONTINUOUS
10
0.653947
20
0.9181
11
0.654125
21
0.91911
0
LINE
8
BLACK
6
CONTINUOUS
10
0.654125
20
0.91911
11
0.655424
21
0.920657
0
LINE
8
BLACK
6
CONTINUOUS
10
0.655424
20
0.920657
11
0.657413
21
0.921008
0
LINE
8
BLACK
6
CONTINUOUS
10
0.657413
20
0.921008
11
0.659162
21
0.919998
0
LINE
8
BLACK
6
CONTINUOUS
10
0.525262
20
0.920898
11
0.525953
21
0.919
0
LINE
8
BLACK
6
CONTINUOUS
10
0.525953
20
0.919
11
0.525953
21
0.6828
0
LINE
8
BLACK
6
CONTINUOUS
10
0.525953
20
0.6828
11
0.525775
21
0.68179
0
LINE
8
BLACK
6
CONTINUOUS
10
0.525775
20
0.68179
11
0.524476
21
0.680243
0
LINE
8
BLACK
6
CONTINUOUS
10
0.524476
20
0.680243
11
0.522487
21
0.679892
0
LINE
8
BLACK
6
CONTINUOUS
10
0.522487
20
0.679892
11
0.520738
21
0.680902
0
LINE
8
BLACK
6
CONTINUOUS
10
0.520738
20
0.680902
11
0.520047
21
0.6828
0
LINE
8
BLACK
6
CONTINUOUS
10
0.520047
20
0.6828
11
0.520047
21
0.919
0
LINE
8
BLACK
6
CONTINUOUS
10
0.520047
20
0.919
11
0.520225
21
0.92001
0
LINE
8
BLACK
6
CONTINUOUS
10
0.520225
20
0.92001
11
0.521524
21
0.921557
0
LINE
8
BLACK
6
CONTINUOUS
10
0.521524
20
0.921557
11
0.523513
21
0.921908
0
LINE
8
BLACK
6
CONTINUOUS
10
0.523513
20
0.921908
11
0.525262
21
0.920898
0
LINE
8
BLACK
6
CONTINUOUS
10
1.39781
20
0.692775
11
1.39936
21
0.691476
0
LINE
8
BLACK
6
CONTINUOUS
10
1.39936
20
0.691476
11
1.39971
21
0.689487
0
LINE
8
BLACK
6
CONTINUOUS
10
1.39971
20
0.689487
11
1.39969
21
0.689456
0
LINE
8
BLACK
6
CONTINUOUS
10
1.39969
20
0.689456
11
1.39981
21
0.688787
0
LINE
8
BLACK
6
CONTINUOUS
10
1.39981
20
0.688787
11
1.3988
21
0.687038
0
LINE
8
BLACK
6
CONTINUOUS
10
1.3988
20
0.687038
11
1.3969
21
0.686347
0
LINE
8
BLACK
6
CONTINUOUS
10
1.3969
20
0.686347
11
1.2631
21
0.686347
0
LINE
8
BLACK
6
CONTINUOUS
10
1.2631
20
0.686347
11
1.26209
21
0.686525
0
LINE
8
BLACK
6
CONTINUOUS
10
1.26209
20
0.686525
11
1.26054
21
0.687824
0
LINE
8
BLACK
6
CONTINUOUS
10
1.26054
20
0.687824
11
1.26019
21
0.689813
0
LINE
8
BLACK
6
CONTINUOUS
10
1.26019
20
0.689813
11
1.26021
21
0.689844
0
LINE
8
BLACK
6
CONTINUOUS
10
1.26021
20
0.689844
11
1.26009
21
0.690513
0
LINE
8
BLACK
6
CONTINUOUS
10
1.26009
20
0.690513
11
1.2611
21
0.692262
0
LINE
8
BLACK
6
CONTINUOUS
10
1.2611
20
0.692262
11
1.263
21
0.692953
0
LINE
8
BLACK
6
CONTINUOUS
10
1.263
20
0.692953
11
1.3968
21
0.692953
0
LINE
8
BLACK
6
CONTINUOUS
10
1.3968
20
0.692953
11
1.39781
21
0.692775
0
LINE
8
BLACK
6
CONTINUOUS
10
1.23176
20
0.742398
11
1.23245
21
0.7405
0
LINE
8
BLACK
6
CONTINUOUS
10
1.23245
20
0.7405
11
1.23245
21
0.719853
0
LINE
8
BLACK
6
CONTINUOUS
10
1.23245
20
0.719853
11
1.2531
21
0.719853
0
LINE
8
BLACK
6
CONTINUOUS
10
1.2531
20
0.719853
11
1.25411
21
0.719675
0
LINE
8
BLACK
6
CONTINUOUS
10
1.25411
20
0.719675
11
1.25566
21
0.718376
0
LINE
8
BLACK
6
CONTINUOUS
10
1.25566
20
0.718376
11
1.25601
21
0.716387
0
LINE
8
BLACK
6
CONTINUOUS
10
1.25601
20
0.716387
11
1.255
21
0.714638
0
LINE
8
BLACK
6
CONTINUOUS
10
1.255
20
0.714638
11
1.2531
21
0.713947
0
LINE
8
BLACK
6
CONTINUOUS
10
1.2531
20
0.713947
11
1.23245
21
0.713947
0
LINE
8
BLACK
6
CONTINUOUS
10
1.23245
20
0.713947
11
1.23245
21
0.6933
0
LINE
8
BLACK
6
CONTINUOUS
10
1.23245
20
0.6933
11
1.23227
21
0.69229
0
LINE
8
BLACK
6
CONTINUOUS
10
1.23227
20
0.69229
11
1.23098
21
0.690743
0
LINE
8
BLACK
6
CONTINUOUS
10
1.23098
20
0.690743
11
1.22899
21
0.690392
0
LINE
8
BLACK
6
CONTINUOUS
10
1.22899
20
0.690392
11
1.22724
21
0.691402
0
LINE
8
BLACK
6
CONTINUOUS
10
1.22724
20
0.691402
11
1.22655
21
0.6933
0
LINE
8
BLACK
6
CONTINUOUS
10
1.22655
20
0.6933
11
1.22655
21
0.713947
0
LINE
8
BLACK
6
CONTINUOUS
10
1.22655
20
0.713947
11
1.2098
21
0.713947
0
LINE
8
BLACK
6
CONTINUOUS
10
1.2098
20
0.713947
11
1.20879
21
0.714125
0
LINE
8
BLACK
6
CONTINUOUS
10
1.20879
20
0.714125
11
1.20724
21
0.715424
0
LINE
8
BLACK
6
CONTINUOUS
10
1.20724
20
0.715424
11
1.20689
21
0.717413
0
LINE
8
BLACK
6
CONTINUOUS
10
1.20689
20
0.717413
11
1.2079
21
0.719162
0
LINE
8
BLACK
6
CONTINUOUS
10
1.2079
20
0.719162
11
1.2098
21
0.719853
0
LINE
8
BLACK
6
CONTINUOUS
10
1.2098
20
0.719853
11
1.22655
21
0.719853
0
LINE
8
BLACK
6
CONTINUOUS
10
1.22655
20
0.719853
11
1.22655
21
0.7405
0
LINE
8
BLACK
6
CONTINUOUS
10
1.22655
20
0.7405
11
1.22673
21
0.74151
0
LINE
8
BLACK
6
CONTINUOUS
10
1.22673
20
0.74151
11
1.22802
21
0.743057
0
LINE
8
BLACK
6
CONTINUOUS
10
1.22802
20
0.743057
11
1.23001
21
0.743408
0
LINE
8
BLACK
6
CONTINUOUS
10
1.23001
20
0.743408
11
1.23176
21
0.742398
0
LINE
8
BLACK
6
CONTINUOUS
10
0.792733
20
0.721956
11
0.793425
21
0.720286
0
LINE
8
BLACK
6
CONTINUOUS
10
0.793425
20
0.720286
11
0.793425
21
0.699714
0
LINE
8
BLACK
6
CONTINUOUS
10
0.793425
20
0.699714
11
0.792733
21
0.698044
0
LINE
8
BLACK
6
CONTINUOUS
10
0.792733
20
0.698044
11
0.791063
21
0.697352
0
LINE
8
BLACK
6
CONTINUOUS
10
0.791063
20
0.697352
11
0.789393
21
0.698044
0
LINE
8
BLACK
6
CONTINUOUS
10
0.789393
20
0.698044
11
0.788701
21
0.699714
0
LINE
8
BLACK
6
CONTINUOUS
10
0.788701
20
0.699714
11
0.788701
21
0.720286
0
LINE
8
BLACK
6
CONTINUOUS
10
0.788701
20
0.720286
11
0.789393
21
0.721956
0
LINE
8
BLACK
6
CONTINUOUS
10
0.789393
20
0.721956
11
0.791063
21
0.722648
0
LINE
8
BLACK
6
CONTINUOUS
10
0.791063
20
0.722648
11
0.792733
21
0.721956
0
LINE
8
BLACK
6
CONTINUOUS
10
0.850607
20
0.721956
11
0.851299
21
0.720286
0
LINE
8
BLACK
6
CONTINUOUS
10
0.851299
20
0.720286
11
0.851299
21
0.699714
0
LINE
8
BLACK
6
CONTINUOUS
10
0.851299
20
0.699714
11
0.850607
21
0.698044
0
LINE
8
BLACK
6
CONTINUOUS
10
0.850607
20
0.698044
11
0.848937
21
0.697352
0
LINE
8
BLACK
6
CONTINUOUS
10
0.848937
20
0.697352
11
0.847267
21
0.698044
0
LINE
8
BLACK
6
CONTINUOUS
10
0.847267
20
0.698044
11
0.846575
21
0.699714
0
LINE
8
BLACK
6
CONTINUOUS
10
0.846575
20
0.699714
11
0.846575
21
0.720286
0
LINE
8
BLACK
6
CONTINUOUS
10
0.846575
20
0.720286
11
0.847267
21
0.721956
0
LINE
8
BLACK
6
CONTINUOUS
10
0.847267
20
0.721956
11
0.848937
21
0.722648
0
LINE
8
BLACK
6
CONTINUOUS
10
0.848937
20
0.722648
11
0.850607
21
0.721956
0
LINE
8
BLACK
6
CONTINUOUS
10
1.48041
20
0.851631
11
1.4811
21
0.849961
0
LINE
8
BLACK
6
CONTINUOUS
10
1.4811
20
0.849961
11
1.48041
21
0.84829
0
LINE
8
BLACK
6
CONTINUOUS
10
1.48041
20
0.84829
11
1.47874
21
0.847598
0
LINE
8
BLACK
6
CONTINUOUS
10
1.47874
20
0.847598
11
1.2685
21
0.847598
0
LINE
8
BLACK
6
CONTINUOUS
10
1.2685
20
0.847598
11
1.2685
21
0.722402
0
LINE
8
BLACK
6
CONTINUOUS
10
1.2685
20
0.722402
11
1.47874
21
0.722402
0
LINE
8
BLACK
6
CONTINUOUS
10
1.47874
20
0.722402
11
1.48041
21
0.72171
0
LINE
8
BLACK
6
CONTINUOUS
10
1.48041
20
0.72171
11
1.4811
21
0.720039
0
LINE
8
BLACK
6
CONTINUOUS
10
1.4811
20
0.720039
11
1.48041
21
0.718369
0
LINE
8
BLACK
6
CONTINUOUS
10
1.48041
20
0.718369
11
1.47874
21
0.717677
0
LINE
8
BLACK
6
CONTINUOUS
10
1.47874
20
0.717677
11
1.26614
21
0.717677
0
LINE
8
BLACK
6
CONTINUOUS
10
1.26614
20
0.717677
11
1.26447
21
0.718369
0
LINE
8
BLACK
6
CONTINUOUS
10
1.26447
20
0.718369
11
1.26378
21
0.720039
0
LINE
8
BLACK
6
CONTINUOUS
10
1.26378
20
0.720039
11
1.26378
21
0.849961
0
LINE
8
BLACK
6
CONTINUOUS
10
1.26378
20
0.849961
11
1.26447
21
0.851631
0
LINE
8
BLACK
6
CONTINUOUS
10
1.26447
20
0.851631
11
1.26614
21
0.852323
0
LINE
8
BLACK
6
CONTINUOUS
10
1.26614
20
0.852323
11
1.47874
21
0.852323
0
LINE
8
BLACK
6
CONTINUOUS
10
1.47874
20
0.852323
11
1.48041
21
0.851631
0
LINE
8
BLACK
6
CONTINUOUS
10
0.760607
20
0.81561
11
0.761299
21
0.81394
0
LINE
8
BLACK
6
CONTINUOUS
10
0.761299
20
0.81394
11
0.761299
21
0.79606
0
LINE
8
BLACK
6
CONTINUOUS
10
0.761299
20
0.79606
11
0.760607
21
0.79439
0
LINE
8
BLACK
6
CONTINUOUS
10
0.760607
20
0.79439
11
0.758937
21
0.793698
0
LINE
8
BLACK
6
CONTINUOUS
10
0.758937
20
0.793698
11
0.757267
21
0.79439
0
LINE
8
BLACK
6
CONTINUOUS
10
0.757267
20
0.79439
11
0.756575
21
0.79606
0
LINE
8
BLACK
6
CONTINUOUS
10
0.756575
20
0.79606
11
0.756575
21
0.81394
0
LINE
8
BLACK
6
CONTINUOUS
10
0.756575
20
0.81394
11
0.757267
21
0.81561
0
LINE
8
BLACK
6
CONTINUOUS
10
0.757267
20
0.81561
11
0.758937
21
0.816302
0
LINE
8
BLACK
6
CONTINUOUS
10
0.758937
20
0.816302
11
0.760607
21
0.81561
0
LINE
8
BLACK
6
CONTINUOUS
10
0.702733
20
0.81561
11
0.703425
21
0.81394
0
LINE
8
BLACK
6
CONTINUOUS
10
0.703425
20
0.81394
11
0.703425
21
0.79606
0
LINE
8
BLACK
6
CONTINUOUS
10
0.703425
20
0.79606
11
0.702733
21
0.79439
0
LINE
8
BLACK
6
CONTINUOUS
10
0.702733
20
0.79439
11
0.701063
21
0.793698
0
LINE
8
BLACK
6
CONTINUOUS
10
0.701063
20
0.793698
11
0.699393
21
0.79439
0
LINE
8
BLACK
6
CONTINUOUS
10
0.699393
20
0.79439
11
0.698701
21
0.79606
0
LINE
8
BLACK
6
CONTINUOUS
10
0.698701
20
0.79606
11
0.698701
21
0.81394
0
LINE
8
BLACK
6
CONTINUOUS
10
0.698701
20
0.81394
11
0.699393
21
0.81561
0
LINE
8
BLACK
6
CONTINUOUS
10
0.699393
20
0.81561
11
0.701063
21
0.816302
0
LINE
8
BLACK
6
CONTINUOUS
10
0.701063
20
0.816302
11
0.702733
21
0.81561
0
LINE
8
BLACK
6
CONTINUOUS
10
0.89459
20
0.838369
11
0.893898
21
0.840039
0
LINE
8
BLACK
6
CONTINUOUS
10
0.893898
20
0.840039
11
0.89459
21
0.84171
0
LINE
8
BLACK
6
CONTINUOUS
10
0.89459
20
0.84171
11
0.89626
21
0.842402
0
LINE
8
BLACK
6
CONTINUOUS
10
0.89626
20
0.842402
11
1.1065
21
0.842402
0
LINE
8
BLACK
6
CONTINUOUS
10
1.1065
20
0.842402
11
1.1065
21
0.967598
0
LINE
8
BLACK
6
CONTINUOUS
10
1.1065
20
0.967598
11
0.89626
21
0.967598
0
LINE
8
BLACK
6
CONTINUOUS
10
0.89626
20
0.967598
11
0.89459
21
0.96829
0
LINE
8
BLACK
6
CONTINUOUS
10
0.89459
20
0.96829
11
0.893898
21
0.969961
0
LINE
8
BLACK
6
CONTINUOUS
10
0.893898
20
0.969961
11
0.89459
21
0.971631
0
LINE
8
BLACK
6
CONTINUOUS
10
0.89459
20
0.971631
11
0.89626
21
0.972323
0
LINE
8
BLACK
6
CONTINUOUS
10
0.89626
20
0.972323
11
1.10886
21
0.972323
0
LINE
8
BLACK
6
CONTINUOUS
10
1.10886
20
0.972323
11
1.11053
21
0.971631
0
LINE
8
BLACK
6
CONTINUOUS
10
1.11053
20
0.971631
11
1.11122
21
0.969961
0
LINE
8
BLACK
6
CONTINUOUS
10
1.11122
20
0.969961
11
1.11122
21
0.840039
0
LINE
8
BLACK
6
CONTINUOUS
10
1.11122
20
0.840039
11
1.11053
21
0.838369
0
LINE
8
BLACK
6
CONTINUOUS
10
1.11053
20
0.838369
11
1.10886
21
0.837677
0
LINE
8
BLACK
6
CONTINUOUS
10
1.10886
20
0.837677
11
0.89626
21
0.837677
0
LINE
8
BLACK
6
CONTINUOUS
10
0.89626
20
0.837677
11
0.89459
21
0.838369
0
LINE
8
BLACK
6
CONTINUOUS
10
1.2325
20
0.952874
11
1.23319
21
0.951203
0
LINE
8
BLACK
6
CONTINUOUS
10
1.23319
20
0.951203
11
1.23319
21
0.893954
0
LINE
8
BLACK
6
CONTINUOUS
10
1.23319
20
0.893954
11
1.2325
21
0.892284
0
LINE
8
BLACK
6
CONTINUOUS
10
1.2325
20
0.892284
11
1.23083
21
0.891592
0
LINE
8
BLACK
6
CONTINUOUS
10
1.23083
20
0.891592
11
1.22916
21
0.892284
0
LINE
8
BLACK
6
CONTINUOUS
10
1.22916
20
0.892284
11
1.22846
21
0.893954
0
LINE
8
BLACK
6
CONTINUOUS
10
1.22846
20
0.893954
11
1.22846
21
0.951203
0
LINE
8
BLACK
6
CONTINUOUS
10
1.22846
20
0.951203
11
1.22916
21
0.952874
0
LINE
8
BLACK
6
CONTINUOUS
10
1.22916
20
0.952874
11
1.23083
21
0.953566
0
LINE
8
BLACK
6
CONTINUOUS
10
1.23083
20
0.953566
11
1.2325
21
0.952874
0
LINE
8
BLACK
6
CONTINUOUS
10
1.16084
20
0.952874
11
1.16154
21
0.951203
0
LINE
8
BLACK
6
CONTINUOUS
10
1.16154
20
0.951203
11
1.16154
21
0.893954
0
LINE
8
BLACK
6
CONTINUOUS
10
1.16154
20
0.893954
11
1.16084
21
0.892284
0
LINE
8
BLACK
6
CONTINUOUS
10
1.16084
20
0.892284
11
1.15917
21
0.891592
0
LINE
8
BLACK
6
CONTINUOUS
10
1.15917
20
0.891592
11
1.1575
21
0.892284
0
LINE
8
BLACK
6
CONTINUOUS
10
1.1575
20
0.892284
11
1.15681
21
0.893954
0
LINE
8
BLACK
6
CONTINUOUS
10
1.15681
20
0.893954
11
1.15681
21
0.951203
0
LINE
8
BLACK
6
CONTINUOUS
10
1.15681
20
0.951203
11
1.1575
21
0.952874
0
LINE
8
BLACK
6
CONTINUOUS
10
1.1575
20
0.952874
11
1.15917
21
0.953566
0
LINE
8
BLACK
6
CONTINUOUS
10
1.15917
20
0.953566
11
1.16084
21
0.952874
0
LINE
8
BLACK
6
CONTINUOUS
10
0.931289
20
1.53879
11
0.931418
21
1.53881
0
LINE
8
BLACK
6
CONTINUOUS
10
0.931418
20
1.53881
11
0.931532
21
1.53875
0
LINE
8
BLACK
6
CONTINUOUS
10
0.931532
20
1.53875
11
0.931915
21
1.53868
0
LINE
8
BLACK
6
CONTINUOUS
10
0.931915
20
1.53868
11
0.932503
21
1.53819
0
LINE
8
BLACK
6
CONTINUOUS
10
0.932503
20
1.53819
11
0.933167
21
1.5378
0
LINE
8
BLACK
6
CONTINUOUS
10
0.933167
20
1.5378
11
0.933259
21
1.53755
0
LINE
8
BLACK
6
CONTINUOUS
10
0.933259
20
1.53755
11
0.933463
21
1.53738
0
LINE
8
BLACK
6
CONTINUOUS
10
0.933463
20
1.53738
11
0.933596
21
1.53663
0
LINE
8
BLACK
6
CONTINUOUS
10
0.933596
20
1.53663
11
0.933858
21
1.53591
0
LINE
8
BLACK
6
CONTINUOUS
10
0.933858
20
1.53591
11
0.933858
21
1.02409
0
LINE
8
BLACK
6
CONTINUOUS
10
0.933858
20
1.02409
11
0.933791
21
1.02371
0
LINE
8
BLACK
6
CONTINUOUS
10
0.933791
20
1.02371
11
0.933813
21
1.02358
0
LINE
8
BLACK
6
CONTINUOUS
10
0.933813
20
1.02358
11
0.933748
21
1.02347
0
LINE
8
BLACK
6
CONTINUOUS
10
0.933748
20
1.02347
11
0.93368
21
1.02308
0
LINE
8
BLACK
6
CONTINUOUS
10
0.93368
20
1.02308
11
0.933187
21
1.0225
0
LINE
8
BLACK
6
CONTINUOUS
10
0.933187
20
1.0225
11
0.932804
21
1.02183
0
LINE
8
BLACK
6
CONTINUOUS
10
0.932804
20
1.02183
11
0.932553
21
1.02174
0
LINE
8
BLACK
6
CONTINUOUS
10
0.932553
20
1.02174
11
0.932382
21
1.02154
0
LINE
8
BLACK
6
CONTINUOUS
10
0.932382
20
1.02154
11
0.931626
21
1.0214
0
LINE
8
BLACK
6
CONTINUOUS
10
0.931626
20
1.0214
11
0.930906
21
1.02114
0
LINE
8
BLACK
6
CONTINUOUS
10
0.930906
20
1.02114
11
0.492219
21
1.02114
0
LINE
8
BLACK
6
CONTINUOUS
10
0.492219
20
1.02114
11
0.492453
21
1.0205
0
LINE
8
BLACK
6
CONTINUOUS
10
0.492453
20
1.0205
11
0.492453
21
0.999853
0
LINE
8
BLACK
6
CONTINUOUS
10
0.492453
20
0.999853
11
0.5131
21
0.999853
0
LINE
8
BLACK
6
CONTINUOUS
10
0.5131
20
0.999853
11
0.51411
21
0.999675
0
LINE
8
BLACK
6
CONTINUOUS
10
0.51411
20
0.999675
11
0.515657
21
0.998376
0
LINE
8
BLACK
6
CONTINUOUS
10
0.515657
20
0.998376
11
0.516008
21
0.996387
0
LINE
8
BLACK
6
CONTINUOUS
10
0.516008
20
0.996387
11
0.514998
21
0.994638
0
LINE
8
BLACK
6
CONTINUOUS
10
0.514998
20
0.994638
11
0.513245
21
0.994
0
LINE
8
BLACK
6
CONTINUOUS
10
0.513245
20
0.994
11
0.518286
21
0.994
0
LINE
8
BLACK
6
CONTINUOUS
10
0.518286
20
0.994
11
0.518286
21
1.01086
0
LINE
8
BLACK
6
CONTINUOUS
10
0.518286
20
1.01086
11
0.51909
21
1.01386
0
LINE
8
BLACK
6
CONTINUOUS
10
0.51909
20
1.01386
11
0.521286
21
1.01605
0
LINE
8
BLACK
6
CONTINUOUS
10
0.521286
20
1.01605
11
0.524286
21
1.01686
0
LINE
8
BLACK
6
CONTINUOUS
10
0.524286
20
1.01686
11
0.527286
21
1.01605
0
LINE
8
BLACK
6
CONTINUOUS
10
0.527286
20
1.01605
11
0.529482
21
1.01386
0
LINE
8
BLACK
6
CONTINUOUS
10
0.529482
20
1.01386
11
0.530286
21
1.01086
0
LINE
8
BLACK
6
CONTINUOUS
10
0.530286
20
1.01086
11
0.530286
21
0.994
0
LINE
8
BLACK
6
CONTINUOUS
10
0.530286
20
0.994
11
0.547143
21
0.994
0
LINE
8
BLACK
6
CONTINUOUS
10
0.547143
20
0.994
11
0.550143
21
0.993196
0
LINE
8
BLACK
6
CONTINUOUS
10
0.550143
20
0.993196
11
0.552339
21
0.991
0
LINE
8
BLACK
6
CONTINUOUS
10
0.552339
20
0.991
11
0.553143
21
0.988
0
LINE
8
BLACK
6
CONTINUOUS
10
0.553143
20
0.988
11
0.552339
21
0.985
0
LINE
8
BLACK
6
CONTINUOUS
10
0.552339
20
0.985
11
0.550143
21
0.982804
0
LINE
8
BLACK
6
CONTINUOUS
10
0.550143
20
0.982804
11
0.547143
21
0.982
0
LINE
8
BLACK
6
CONTINUOUS
10
0.547143
20
0.982
11
0.530286
21
0.982
0
LINE
8
BLACK
6
CONTINUOUS
10
0.530286
20
0.982
11
0.530286
21
0.972953
0
LINE
8
BLACK
6
CONTINUOUS
10
0.530286
20
0.972953
11
0.6568
21
0.972953
0
LINE
8
BLACK
6
CONTINUOUS
10
0.6568
20
0.972953
11
0.65781
21
0.972775
0
LINE
8
BLACK
6
CONTINUOUS
10
0.65781
20
0.972775
11
0.659357
21
0.971476
0
LINE
8
BLACK
6
CONTINUOUS
10
0.659357
20
0.971476
11
0.659708
21
0.969487
0
LINE
8
BLACK
6
CONTINUOUS
10
0.659708
20
0.969487
11
0.65969
21
0.969456
0
LINE
8
BLACK
6
CONTINUOUS
10
0.65969
20
0.969456
11
0.659808
21
0.968787
0
LINE
8
BLACK
6
CONTINUOUS
10
0.659808
20
0.968787
11
0.658798
21
0.967038
0
LINE
8
BLACK
6
CONTINUOUS
10
0.658798
20
0.967038
11
0.6569
21
0.966347
0
LINE
8
BLACK
6
CONTINUOUS
10
0.6569
20
0.966347
11
0.530286
21
0.966347
0
LINE
8
BLACK
6
CONTINUOUS
10
0.530286
20
0.966347
11
0.530286
21
0.965143
0
LINE
8
BLACK
6
CONTINUOUS
10
0.530286
20
0.965143
11
0.529482
21
0.962143
0
LINE
8
BLACK
6
CONTINUOUS
10
0.529482
20
0.962143
11
0.527286
21
0.959947
0
LINE
8
BLACK
6
CONTINUOUS
10
0.527286
20
0.959947
11
0.524286
21
0.959143
0
LINE
8
BLACK
6
CONTINUOUS
10
0.524286
20
0.959143
11
0.521286
21
0.959947
0
LINE
8
BLACK
6
CONTINUOUS
10
0.521286
20
0.959947
11
0.51909
21
0.962143
0
LINE
8
BLACK
6
CONTINUOUS
10
0.51909
20
0.962143
11
0.518286
21
0.965143
0
LINE
8
BLACK
6
CONTINUOUS
10
0.518286
20
0.965143
11
0.518286
21
0.982
0
LINE
8
BLACK
6
CONTINUOUS
10
0.518286
20
0.982
11
0.501429
21
0.982
0
LINE
8
BLACK
6
CONTINUOUS
10
0.501429
20
0.982
11
0.498429
21
0.982804
0
LINE
8
BLACK
6
CONTINUOUS
10
0.498429
20
0.982804
11
0.496232
21
0.985
0
LINE
8
BLACK
6
CONTINUOUS
10
0.496232
20
0.985
11
0.495429
21
0.988
0
LINE
8
BLACK
6
CONTINUOUS
10
0.495429
20
0.988
11
0.496232
21
0.991
0
LINE
8
BLACK
6
CONTINUOUS
10
0.496232
20
0.991
11
0.498429
21
0.993196
0
LINE
8
BLACK
6
CONTINUOUS
10
0.498429
20
0.993196
11
0.501232
21
0.993947
0
LINE
8
BLACK
6
CONTINUOUS
10
0.501232
20
0.993947
11
0.492453
21
0.993947
0
LINE
8
BLACK
6
CONTINUOUS
10
0.492453
20
0.993947
11
0.492453
21
0.9733
0
LINE
8
BLACK
6
CONTINUOUS
10
0.492453
20
0.9733
11
0.492275
21
0.97229
0
LINE
8
BLACK
6
CONTINUOUS
10
0.492275
20
0.97229
11
0.490976
21
0.970743
0
LINE
8
BLACK
6
CONTINUOUS
10
0.490976
20
0.970743
11
0.488987
21
0.970392
0
LINE
8
BLACK
6
CONTINUOUS
10
0.488987
20
0.970392
11
0.487238
21
0.971402
0
LINE
8
BLACK
6
CONTINUOUS
10
0.487238
20
0.971402
11
0.486547
21
0.9733
0
LINE
8
BLACK
6
CONTINUOUS
10
0.486547
20
0.9733
11
0.486547
21
0.993947
0
LINE
8
BLACK
6
CONTINUOUS
10
0.486547
20
0.993947
11
0.4698
21
0.993947
0
LINE
8
BLACK
6
CONTINUOUS
10
0.4698
20
0.993947
11
0.46879
21
0.994125
0
LINE
8
BLACK
6
CONTINUOUS
10
0.46879
20
0.994125
11
0.467243
21
0.995424
0
LINE
8
BLACK
6
CONTINUOUS
10
0.467243
20
0.995424
11
0.466892
21
0.997413
0
LINE
8
BLACK
6
CONTINUOUS
10
0.466892
20
0.997413
11
0.467902
21
0.999162
0
LINE
8
BLACK
6
CONTINUOUS
10
0.467902
20
0.999162
11
0.4698
21
0.999853
0
LINE
8
BLACK
6
CONTINUOUS
10
0.4698
20
0.999853
11
0.486547
21
0.999853
0
LINE
8
BLACK
6
CONTINUOUS
10
0.486547
20
0.999853
11
0.486547
21
1.0205
0
LINE
8
BLACK
6
CONTINUOUS
10
0.486547
20
1.0205
11
0.48666
21
1.02114
0
LINE
8
BLACK
6
CONTINUOUS
10
0.48666
20
1.02114
11
0.419094
21
1.02114
0
LINE
8
BLACK
6
CONTINUOUS
10
0.419094
20
1.02114
11
0.418711
21
1.02121
0
LINE
8
BLACK
6
CONTINUOUS
10
0.418711
20
1.02121
11
0.418582
21
1.02119
0
LINE
8
BLACK
6
CONTINUOUS
10
0.418582
20
1.02119
11
0.418468
21
1.02125
0
LINE
8
BLACK
6
CONTINUOUS
10
0.418468
20
1.02125
11
0.418085
21
1.02132
0
LINE
8
BLACK
6
CONTINUOUS
10
0.418085
20
1.02132
11
0.417497
21
1.02181
0
LINE
8
BLACK
6
CONTINUOUS
10
0.417497
20
1.02181
11
0.416833
21
1.0222
0
LINE
8
BLACK
6
CONTINUOUS
10
0.416833
20
1.0222
11
0.416741
21
1.02245
0
LINE
8
BLACK
6
CONTINUOUS
10
0.416741
20
1.02245
11
0.416537
21
1.02262
0
LINE
8
BLACK
6
CONTINUOUS
10
0.416537
20
1.02262
11
0.416404
21
1.02337
0
LINE
8
BLACK
6
CONTINUOUS
10
0.416404
20
1.02337
11
0.416142
21
1.02409
0
LINE
8
BLACK
6
CONTINUOUS
10
0.416142
20
1.02409
11
0.416142
21
1.53591
0
LINE
8
BLACK
6
CONTINUOUS
10
0.416142
20
1.53591
11
0.416209
21
1.53629
0
LINE
8
BLACK
6
CONTINUOUS
10
0.416209
20
1.53629
11
0.416187
21
1.53642
0
LINE
8
BLACK
6
CONTINUOUS
10
0.416187
20
1.53642
11
0.416252
21
1.53653
0
LINE
8
BLACK
6
CONTINUOUS
10
0.416252
20
1.53653
11
0.41632
21
1.53692
0
LINE
8
BLACK
6
CONTINUOUS
10
0.41632
20
1.53692
11
0.416813
21
1.5375
0
LINE
8
BLACK
6
CONTINUOUS
10
0.416813
20
1.5375
11
0.417196
21
1.53817
0
LINE
8
BLACK
6
CONTINUOUS
10
0.417196
20
1.53817
11
0.417447
21
1.53826
0
LINE
8
BLACK
6
CONTINUOUS
10
0.417447
20
1.53826
11
0.417618
21
1.53846
0
LINE
8
BLACK
6
CONTINUOUS
10
0.417618
20
1.53846
11
0.418374
21
1.5386
0
LINE
8
BLACK
6
CONTINUOUS
10
0.418374
20
1.5386
11
0.419094
21
1.53886
0
LINE
8
BLACK
6
CONTINUOUS
10
0.419094
20
1.53886
11
0.930906
21
1.53886
0
LINE
8
BLACK
6
CONTINUOUS
10
0.930906
20
1.53886
11
0.931289
21
1.53879
0
LINE
8
BLACK
6
CONTINUOUS
10
0.422047
20
1.53295
11
0.422047
21
1.02705
0
LINE
8
BLACK
6
CONTINUOUS
10
0.422047
20
1.02705
11
0.927953
21
1.02705
0
LINE
8
BLACK
6
CONTINUOUS
10
0.927953
20
1.02705
11
0.927953
21
1.53295
0
LINE
8
BLACK
6
CONTINUOUS
10
0.927953
20
1.53295
11
0.422047
21
1.53295
0
LINE
8
BLACK
6
CONTINUOUS
10
0.682
20
1.24766
11
0.679804
21
1.24986
0
LINE
8
BLACK
6
CONTINUOUS
10
0.679804
20
1.24986
11
0.679
21
1.25286
0
LINE
8
BLACK
6
CONTINUOUS
10
0.679
20
1.25286
11
0.679804
21
1.25586
0
LINE
8
BLACK
6
CONTINUOUS
10
0.679804
20
1.25586
11
0.682
21
1.25805
0
LINE
8
BLACK
6
CONTINUOUS
10
0.682
20
1.25805
11
0.685
21
1.25886
0
LINE
8
BLACK
6
CONTINUOUS
10
0.685
20
1.25886
11
0.707571
21
1.25886
0
LINE
8
BLACK
6
CONTINUOUS
10
0.707571
20
1.25886
11
0.707571
21
1.31286
0
LINE
8
BLACK
6
CONTINUOUS
10
0.707571
20
1.31286
11
0.708375
21
1.31586
0
LINE
8
BLACK
6
CONTINUOUS
10
0.708375
20
1.31586
11
0.710571
21
1.31805
0
LINE
8
BLACK
6
CONTINUOUS
10
0.710571
20
1.31805
11
0.713571
21
1.31886
0
LINE
8
BLACK
6
CONTINUOUS
10
0.713571
20
1.31886
11
0.716571
21
1.31805
0
LINE
8
BLACK
6
CONTINUOUS
10
0.716571
20
1.31805
11
0.718768
21
1.31586
0
LINE
8
BLACK
6
CONTINUOUS
10
0.718768
20
1.31586
11
0.719571
21
1.31286
0
LINE
8
BLACK
6
CONTINUOUS
10
0.719571
20
1.31286
11
0.719571
21
1.25286
0
LINE
8
BLACK
6
CONTINUOUS
10
0.719571
20
1.25286
11
0.718768
21
1.24986
0
LINE
8
BLACK
6
CONTINUOUS
10
0.718768
20
1.24986
11
0.716571
21
1.24766
0
LINE
8
BLACK
6
CONTINUOUS
10
0.716571
20
1.24766
11
0.713571
21
1.24686
0
LINE
8
BLACK
6
CONTINUOUS
10
0.713571
20
1.24686
11
0.685
21
1.24686
0
LINE
8
BLACK
6
CONTINUOUS
10
0.685
20
1.24686
11
0.682
21
1.24766
0
LINE
8
BLACK
6
CONTINUOUS
10
0.630571
20
1.24766
11
0.628375
21
1.24986
0
LINE
8
BLACK
6
CONTINUOUS
10
0.628375
20
1.24986
11
0.627571
21
1.25286
0
LINE
8
BLACK
6
CONTINUOUS
10
0.627571
20
1.25286
11
0.628375
21
1.25586
0
LINE
8
BLACK
6
CONTINUOUS
10
0.628375
20
1.25586
11
0.630571
21
1.25805
0
LINE
8
BLACK
6
CONTINUOUS
10
0.630571
20
1.25805
11
0.633571
21
1.25886
0
LINE
8
BLACK
6
CONTINUOUS
10
0.633571
20
1.25886
11
0.644714
21
1.25886
0
LINE
8
BLACK
6
CONTINUOUS
10
0.644714
20
1.25886
11
0.644714
21
1.31286
0
LINE
8
BLACK
6
CONTINUOUS
10
0.644714
20
1.31286
11
0.645068
21
1.31418
0
LINE
8
BLACK
6
CONTINUOUS
10
0.645068
20
1.31418
11
0.645336
21
1.31552
0
LINE
8
BLACK
6
CONTINUOUS
10
0.645336
20
1.31552
11
0.645467
21
1.31567
0
LINE
8
BLACK
6
CONTINUOUS
10
0.645467
20
1.31567
11
0.645518
21
1.31586
0
LINE
8
BLACK
6
CONTINUOUS
10
0.645518
20
1.31586
11
0.646484
21
1.31682
0
LINE
8
BLACK
6
CONTINUOUS
10
0.646484
20
1.31682
11
0.647386
21
1.31785
0
LINE
8
BLACK
6
CONTINUOUS
10
0.647386
20
1.31785
11
0.647574
21
1.31791
0
LINE
8
BLACK
6
CONTINUOUS
10
0.647574
20
1.31791
11
0.647714
21
1.31805
0
LINE
8
BLACK
6
CONTINUOUS
10
0.647714
20
1.31805
11
0.649034
21
1.31841
0
LINE
8
BLACK
6
CONTINUOUS
10
0.649034
20
1.31841
11
0.650328
21
1.31884
0
LINE
8
BLACK
6
CONTINUOUS
10
0.650328
20
1.31884
11
0.650523
21
1.31881
0
LINE
8
BLACK
6
CONTINUOUS
10
0.650523
20
1.31881
11
0.650714
21
1.31886
0
LINE
8
BLACK
6
CONTINUOUS
10
0.650714
20
1.31886
11
0.652034
21
1.3185
0
LINE
8
BLACK
6
CONTINUOUS
10
0.652034
20
1.3185
11
0.653374
21
1.31824
0
LINE
8
BLACK
6
CONTINUOUS
10
0.653374
20
1.31824
11
0.653523
21
1.3181
0
LINE
8
BLACK
6
CONTINUOUS
10
0.653523
20
1.3181
11
0.653714
21
1.31805
0
LINE
8
BLACK
6
CONTINUOUS
10
0.653714
20
1.31805
11
0.65468
21
1.31709
0
LINE
8
BLACK
6
CONTINUOUS
10
0.65468
20
1.31709
11
0.655707
21
1.31619
0
LINE
8
BLACK
6
CONTINUOUS
10
0.655707
20
1.31619
11
0.661091
21
1.30811
0
LINE
8
BLACK
6
CONTINUOUS
10
0.661091
20
1.30811
11
0.665697
21
1.3035
0
LINE
8
BLACK
6
CONTINUOUS
10
0.665697
20
1.3035
11
0.67054
21
1.30108
0
LINE
8
BLACK
6
CONTINUOUS
10
0.67054
20
1.30108
11
0.672864
21
1.29902
0
LINE
8
BLACK
6
CONTINUOUS
10
0.672864
20
1.29902
11
0.673846
21
1.29607
0
LINE
8
BLACK
6
CONTINUOUS
10
0.673846
20
1.29607
11
0.673224
21
1.29303
0
LINE
8
BLACK
6
CONTINUOUS
10
0.673224
20
1.29303
11
0.671163
21
1.29071
0
LINE
8
BLACK
6
CONTINUOUS
10
0.671163
20
1.29071
11
0.668217
21
1.28973
0
LINE
8
BLACK
6
CONTINUOUS
10
0.668217
20
1.28973
11
0.665174
21
1.29035
0
LINE
8
BLACK
6
CONTINUOUS
10
0.665174
20
1.29035
11
0.65946
21
1.2932
0
LINE
8
BLACK
6
CONTINUOUS
10
0.65946
20
1.2932
11
0.658737
21
1.29385
0
LINE
8
BLACK
6
CONTINUOUS
10
0.658737
20
1.29385
11
0.6579
21
1.29433
0
LINE
8
BLACK
6
CONTINUOUS
10
0.6579
20
1.29433
11
0.656714
21
1.29551
0
LINE
8
BLACK
6
CONTINUOUS
10
0.656714
20
1.29551
11
0.656714
21
1.25886
0
LINE
8
BLACK
6
CONTINUOUS
10
0.656714
20
1.25886
11
0.667857
21
1.25886
0
LINE
8
BLACK
6
CONTINUOUS
10
0.667857
20
1.25886
11
0.670857
21
1.25805
0
LINE
8
BLACK
6
CONTINUOUS
10
0.670857
20
1.25805
11
0.673053
21
1.25586
0
LINE
8
BLACK
6
CONTINUOUS
10
0.673053
20
1.25586
11
0.673857
21
1.25286
0
LINE
8
BLACK
6
CONTINUOUS
10
0.673857
20
1.25286
11
0.673053
21
1.24986
0
LINE
8
BLACK
6
CONTINUOUS
10
0.673053
20
1.24986
11
0.670857
21
1.24766
0
LINE
8
BLACK
6
CONTINUOUS
10
0.670857
20
1.24766
11
0.667857
21
1.24686
0
LINE
8
BLACK
6
CONTINUOUS
10
0.667857
20
1.24686
11
0.633571
21
1.24686
0
LINE
8
BLACK
6
CONTINUOUS
10
0.633571
20
1.24686
11
0.630571
21
1.24766
0
LINE
8
BLACK
6
CONTINUOUS
10
0.512262
20
1.2969
11
0.512953
21
1.295
0
LINE
8
BLACK
6
CONTINUOUS
10
0.512953
20
1.295
11
0.512953
21
1.28295
0
LINE
8
BLACK
6
CONTINUOUS
10
0.512953
20
1.28295
11
0.525
21
1.28295
0
LINE
8
BLACK
6
CONTINUOUS
10
0.525
20
1.28295
11
0.52601
21
1.28277
0
LINE
8
BLACK
6
CONTINUOUS
10
0.52601
20
1.28277
11
0.527557
21
1.28148
0
LINE
8
BLACK
6
CONTINUOUS
10
0.527557
20
1.28148
11
0.527908
21
1.27949
0
LINE
8
BLACK
6
CONTINUOUS
10
0.527908
20
1.27949
11
0.526898
21
1.27774
0
LINE
8
BLACK
6
CONTINUOUS
10
0.526898
20
1.27774
11
0.525
21
1.27705
0
LINE
8
BLACK
6
CONTINUOUS
10
0.525
20
1.27705
11
0.512953
21
1.27705
0
LINE
8
BLACK
6
CONTINUOUS
10
0.512953
20
1.27705
11
0.512953
21
1.265
0
LINE
8
BLACK
6
CONTINUOUS
10
0.512953
20
1.265
11
0.512775
21
1.26399
0
LINE
8
BLACK
6
CONTINUOUS
10
0.512775
20
1.26399
11
0.511476
21
1.26244
0
LINE
8
BLACK
6
CONTINUOUS
10
0.511476
20
1.26244
11
0.509487
21
1.26209
0
LINE
8
BLACK
6
CONTINUOUS
10
0.509487
20
1.26209
11
0.507738
21
1.2631
0
LINE
8
BLACK
6
CONTINUOUS
10
0.507738
20
1.2631
11
0.507047
21
1.265
0
LINE
8
BLACK
6
CONTINUOUS
10
0.507047
20
1.265
11
0.507047
21
1.27705
0
LINE
8
BLACK
6
CONTINUOUS
10
0.507047
20
1.27705
11
0.495
21
1.27705
0
LINE
8
BLACK
6
CONTINUOUS
10
0.495
20
1.27705
11
0.49399
21
1.27723
0
LINE
8
BLACK
6
CONTINUOUS
10
0.49399
20
1.27723
11
0.492443
21
1.27852
0
LINE
8
BLACK
6
CONTINUOUS
10
0.492443
20
1.27852
11
0.492092
21
1.28051
0
LINE
8
BLACK
6
CONTINUOUS
10
0.492092
20
1.28051
11
0.493102
21
1.28226
0
LINE
8
BLACK
6
CONTINUOUS
10
0.493102
20
1.28226
11
0.495
21
1.28295
0
LINE
8
BLACK
6
CONTINUOUS
10
0.495
20
1.28295
11
0.507047
21
1.28295
0
LINE
8
BLACK
6
CONTINUOUS
10
0.507047
20
1.28295
11
0.507047
21
1.295
0
LINE
8
BLACK
6
CONTINUOUS
10
0.507047
20
1.295
11
0.507225
21
1.29601
0
LINE
8
BLACK
6
CONTINUOUS
10
0.507225
20
1.29601
11
0.508524
21
1.29756
0
LINE
8
BLACK
6
CONTINUOUS
10
0.508524
20
1.29756
11
0.510513
21
1.29791
0
LINE
8
BLACK
6
CONTINUOUS
10
0.510513
20
1.29791
11
0.512262
21
1.2969
0
LINE
8
BLACK
6
CONTINUOUS
10
0.955975
20
1.02781
11
0.956144
21
1.02782
0
LINE
8
BLACK
6
CONTINUOUS
10
0.956144
20
1.02782
11
0.956835
21
1.02731
0
LINE
8
BLACK
6
CONTINUOUS
10
0.956835
20
1.02731
11
0.957577
21
1.02688
0
LINE
8
BLACK
6
CONTINUOUS
10
0.957577
20
1.02688
11
0.957635
21
1.02672
0
LINE
8
BLACK
6
CONTINUOUS
10
0.957635
20
1.02672
11
0.957772
21
1.02662
0
LINE
8
BLACK
6
CONTINUOUS
10
0.957772
20
1.02662
11
0.961359
21
1.02124
0
LINE
8
BLACK
6
CONTINUOUS
10
0.961359
20
1.02124
11
0.964563
21
1.01804
0
LINE
8
BLACK
6
CONTINUOUS
10
0.964563
20
1.01804
11
0.967884
21
1.01638
0
LINE
8
BLACK
6
CONTINUOUS
10
0.967884
20
1.01638
11
0.968708
21
1.01577
0
LINE
8
BLACK
6
CONTINUOUS
10
0.968708
20
1.01577
11
0.969511
21
1.01391
0
LINE
8
BLACK
6
CONTINUOUS
10
0.969511
20
1.01391
11
0.968935
21
1.01198
0
LINE
8
BLACK
6
CONTINUOUS
10
0.968935
20
1.01198
11
0.96725
21
1.01086
0
LINE
8
BLACK
6
CONTINUOUS
10
0.96725
20
1.01086
11
0.965243
21
1.0111
0
LINE
8
BLACK
6
CONTINUOUS
10
0.965243
20
1.0111
11
0.961494
21
1.01297
0
LINE
8
BLACK
6
CONTINUOUS
10
0.961494
20
1.01297
11
0.960784
21
1.0135
0
LINE
8
BLACK
6
CONTINUOUS
10
0.960784
20
1.0135
11
0.960726
21
1.01352
0
LINE
8
BLACK
6
CONTINUOUS
10
0.960726
20
1.01352
11
0.958268
21
1.01598
0
LINE
8
BLACK
6
CONTINUOUS
10
0.958268
20
1.01598
11
0.958268
21
0.988568
0
LINE
8
BLACK
6
CONTINUOUS
10
0.958268
20
0.988568
11
0.966564
21
0.988568
0
LINE
8
BLACK
6
CONTINUOUS
10
0.966564
20
0.988568
11
0.967573
21
0.98839
0
LINE
8
BLACK
6
CONTINUOUS
10
0.967573
20
0.98839
11
0.969121
21
0.987091
0
LINE
8
BLACK
6
CONTINUOUS
10
0.969121
20
0.987091
11
0.969471
21
0.985102
0
LINE
8
BLACK
6
CONTINUOUS
10
0.969471
20
0.985102
11
0.968462
21
0.983353
0
LINE
8
BLACK
6
CONTINUOUS
10
0.968462
20
0.983353
11
0.966564
21
0.982662
0
LINE
8
BLACK
6
CONTINUOUS
10
0.966564
20
0.982662
11
0.944066
21
0.982662
0
LINE
8
BLACK
6
CONTINUOUS
10
0.944066
20
0.982662
11
0.943056
21
0.98284
0
LINE
8
BLACK
6
CONTINUOUS
10
0.943056
20
0.98284
11
0.941509
21
0.984139
0
LINE
8
BLACK
6
CONTINUOUS
10
0.941509
20
0.984139
11
0.941158
21
0.986128
0
LINE
8
BLACK
6
CONTINUOUS
10
0.941158
20
0.986128
11
0.942168
21
0.987877
0
LINE
8
BLACK
6
CONTINUOUS
10
0.942168
20
0.987877
11
0.944066
21
0.988568
0
LINE
8
BLACK
6
CONTINUOUS
10
0.944066
20
0.988568
11
0.952362
21
0.988568
0
LINE
8
BLACK
6
CONTINUOUS
10
0.952362
20
0.988568
11
0.952362
21
1.02499
0
LINE
8
BLACK
6
CONTINUOUS
10
0.952362
20
1.02499
11
0.95254
21
1.02599
0
LINE
8
BLACK
6
CONTINUOUS
10
0.95254
20
1.02599
11
0.952649
21
1.02612
0
LINE
8
BLACK
6
CONTINUOUS
10
0.952649
20
1.02612
11
0.952668
21
1.02629
0
LINE
8
BLACK
6
CONTINUOUS
10
0.952668
20
1.02629
11
0.953288
21
1.02689
0
LINE
8
BLACK
6
CONTINUOUS
10
0.953288
20
1.02689
11
0.953839
21
1.02754
0
LINE
8
BLACK
6
CONTINUOUS
10
0.953839
20
1.02754
11
0.954006
21
1.02757
0
LINE
8
BLACK
6
CONTINUOUS
10
0.954006
20
1.02757
11
0.954129
21
1.02769
0
LINE
8
BLACK
6
CONTINUOUS
10
0.954129
20
1.02769
11
0.954984
21
1.02774
0
LINE
8
BLACK
6
CONTINUOUS
10
0.954984
20
1.02774
11
0.955828
21
1.02789
0
LINE
8
BLACK
6
CONTINUOUS
10
0.955828
20
1.02789
11
0.955975
21
1.02781
0
LINE
8
BLACK
6
CONTINUOUS
10
1.00444
20
1.02787
11
1.00457
21
1.02789
0
LINE
8
BLACK
6
CONTINUOUS
10
1.00457
20
1.02789
11
1.00469
21
1.02783
0
LINE
8
BLACK
6
CONTINUOUS
10
1.00469
20
1.02783
11
1.00507
21
1.02776
0
LINE
8
BLACK
6
CONTINUOUS
10
1.00507
20
1.02776
11
1.00566
21
1.02727
0
LINE
8
BLACK
6
CONTINUOUS
10
1.00566
20
1.02727
11
1.00632
21
1.02688
0
LINE
8
BLACK
6
CONTINUOUS
10
1.00632
20
1.02688
11
1.00641
21
1.02663
0
LINE
8
BLACK
6
CONTINUOUS
10
1.00641
20
1.02663
11
1.00662
21
1.02646
0
LINE
8
BLACK
6
CONTINUOUS
10
1.00662
20
1.02646
11
1.00675
21
1.02571
0
LINE
8
BLACK
6
CONTINUOUS
10
1.00675
20
1.02571
11
1.00701
21
1.02499
0
LINE
8
BLACK
6
CONTINUOUS
10
1.00701
20
1.02499
11
1.00701
21
0.985615
0
LINE
8
BLACK
6
CONTINUOUS
10
1.00701
20
0.985615
11
1.00694
21
0.985231
0
LINE
8
BLACK
6
CONTINUOUS
10
1.00694
20
0.985231
11
1.00697
21
0.985102
0
LINE
8
BLACK
6
CONTINUOUS
10
1.00697
20
0.985102
11
1.0069
21
0.984989
0
LINE
8
BLACK
6
CONTINUOUS
10
1.0069
20
0.984989
11
1.00683
21
0.984605
0
LINE
8
BLACK
6
CONTINUOUS
10
1.00683
20
0.984605
11
1.00634
21
0.984017
0
LINE
8
BLACK
6
CONTINUOUS
10
1.00634
20
0.984017
11
1.00596
21
0.983353
0
LINE
8
BLACK
6
CONTINUOUS
10
1.00596
20
0.983353
11
1.00571
21
0.983262
0
LINE
8
BLACK
6
CONTINUOUS
10
1.00571
20
0.983262
11
1.00554
21
0.983058
0
LINE
8
BLACK
6
CONTINUOUS
10
1.00554
20
0.983058
11
1.00478
21
0.982925
0
LINE
8
BLACK
6
CONTINUOUS
10
1.00478
20
0.982925
11
1.00406
21
0.982662
0
LINE
8
BLACK
6
CONTINUOUS
10
1.00406
20
0.982662
11
0.994685
21
0.982662
0
LINE
8
BLACK
6
CONTINUOUS
10
0.994685
20
0.982662
11
0.993816
21
0.982815
0
LINE
8
BLACK
6
CONTINUOUS
10
0.993816
20
0.982815
11
0.993751
21
0.982814
0
LINE
8
BLACK
6
CONTINUOUS
10
0.993751
20
0.982814
11
0.988127
21
0.984688
0
LINE
8
BLACK
6
CONTINUOUS
10
0.988127
20
0.984688
11
0.987225
21
0.985177
0
LINE
8
BLACK
6
CONTINUOUS
10
0.987225
20
0.985177
11
0.987133
21
0.985327
0
LINE
8
BLACK
6
CONTINUOUS
10
0.987133
20
0.985327
11
0.986973
21
0.985402
0
LINE
8
BLACK
6
CONTINUOUS
10
0.986973
20
0.985402
11
0.983223
21
0.989151
0
LINE
8
BLACK
6
CONTINUOUS
10
0.983223
20
0.989151
11
0.982717
21
0.989874
0
LINE
8
BLACK
6
CONTINUOUS
10
0.982717
20
0.989874
11
0.98267
21
0.989919
0
LINE
8
BLACK
6
CONTINUOUS
10
0.98267
20
0.989919
11
0.980795
21
0.993668
0
LINE
8
BLACK
6
CONTINUOUS
10
0.980795
20
0.993668
11
0.98065
21
0.994157
0
LINE
8
BLACK
6
CONTINUOUS
10
0.98065
20
0.994157
11
0.980572
21
0.994273
0
LINE
8
BLACK
6
CONTINUOUS
10
0.980572
20
0.994273
11
0.978697
21
1.00177
0
LINE
8
BLACK
6
CONTINUOUS
10
0.978697
20
1.00177
11
0.978656
21
1.00236
0
LINE
8
BLACK
6
CONTINUOUS
10
0.978656
20
1.00236
11
0.978609
21
1.00249
0
LINE
8
BLACK
6
CONTINUOUS
10
0.978609
20
1.00249
11
0.978609
21
1.00811
0
LINE
8
BLACK
6
CONTINUOUS
10
0.978609
20
1.00811
11
0.978711
21
1.00869
0
LINE
8
BLACK
6
CONTINUOUS
10
0.978711
20
1.00869
11
0.978697
21
1.00883
0
LINE
8
BLACK
6
CONTINUOUS
10
0.978697
20
1.00883
11
0.980572
21
1.01633
0
LINE
8
BLACK
6
CONTINUOUS
10
0.980572
20
1.01633
11
0.980779
21
1.01679
0
LINE
8
BLACK
6
CONTINUOUS
10
0.980779
20
1.01679
11
0.980795
21
1.01693
0
LINE
8
BLACK
6
CONTINUOUS
10
0.980795
20
1.01693
11
0.98267
21
1.02068
0
LINE
8
BLACK
6
CONTINUOUS
10
0.98267
20
1.02068
11
0.983196
21
1.02139
0
LINE
8
BLACK
6
CONTINUOUS
10
0.983196
20
1.02139
11
0.983223
21
1.02145
0
LINE
8
BLACK
6
CONTINUOUS
10
0.983223
20
1.02145
11
0.986973
21
1.0252
0
LINE
8
BLACK
6
CONTINUOUS
10
0.986973
20
1.0252
11
0.987813
21
1.02579
0
LINE
8
BLACK
6
CONTINUOUS
10
0.987813
20
1.02579
11
0.987989
21
1.0258
0
LINE
8
BLACK
6
CONTINUOUS
10
0.987989
20
1.0258
11
0.988127
21
1.02591
0
LINE
8
BLACK
6
CONTINUOUS
10
0.988127
20
1.02591
11
0.993751
21
1.02779
0
LINE
8
BLACK
6
CONTINUOUS
10
0.993751
20
1.02779
11
0.994624
21
1.02792
0
LINE
8
BLACK
6
CONTINUOUS
10
0.994624
20
1.02792
11
0.994685
21
1.02794
0
LINE
8
BLACK
6
CONTINUOUS
10
0.994685
20
1.02794
11
1.00406
21
1.02794
0
LINE
8
BLACK
6
CONTINUOUS
10
1.00406
20
1.02794
11
1.00444
21
1.02787
0
LINE
8
BLACK
6
CONTINUOUS
10
0.995164
20
1.02203
11
0.990656
21
1.02053
0
LINE
8
BLACK
6
CONTINUOUS
10
0.990656
20
1.02053
11
0.987738
21
1.01761
0
LINE
8
BLACK
6
CONTINUOUS
10
0.987738
20
1.01761
11
0.986222
21
1.01458
0
LINE
8
BLACK
6
CONTINUOUS
10
0.986222
20
1.01458
11
0.984514
21
1.00775
0
LINE
8
BLACK
6
CONTINUOUS
10
0.984514
20
1.00775
11
0.984514
21
1.00285
0
LINE
8
BLACK
6
CONTINUOUS
10
0.984514
20
1.00285
11
0.986222
21
0.996019
0
LINE
8
BLACK
6
CONTINUOUS
10
0.986222
20
0.996019
11
0.987738
21
0.992988
0
LINE
8
BLACK
6
CONTINUOUS
10
0.987738
20
0.992988
11
0.990656
21
0.99007
0
LINE
8
BLACK
6
CONTINUOUS
10
0.990656
20
0.99007
11
0.995164
21
0.988568
0
LINE
8
BLACK
6
CONTINUOUS
10
0.995164
20
0.988568
11
1.00111
21
0.988568
0
LINE
8
BLACK
6
CONTINUOUS
10
1.00111
20
0.988568
11
1.00111
21
1.02203
0
LINE
8
BLACK
6
CONTINUOUS
10
1.00111
20
1.02203
11
0.995164
21
1.02203
0
LINE
8
BLACK
6
CONTINUOUS
10
1.25971
20
1.08087
11
1.26126
21
1.07958
0
LINE
8
BLACK
6
CONTINUOUS
10
1.26126
20
1.07958
11
1.26161
21
1.07759
0
LINE
8
BLACK
6
CONTINUOUS
10
1.26161
20
1.07759
11
1.2606
21
1.07584
0
LINE
8
BLACK
6
CONTINUOUS
10
1.2606
20
1.07584
11
1.2587
21
1.07515
0
LINE
8
BLACK
6
CONTINUOUS
10
1.2587
20
1.07515
11
1.0225
21
1.07515
0
LINE
8
BLACK
6
CONTINUOUS
10
1.0225
20
1.07515
11
1.02149
21
1.07533
0
LINE
8
BLACK
6
CONTINUOUS
10
1.02149
20
1.07533
11
1.01994
21
1.07662
0
LINE
8
BLACK
6
CONTINUOUS
10
1.01994
20
1.07662
11
1.01959
21
1.07861
0
LINE
8
BLACK
6
CONTINUOUS
10
1.01959
20
1.07861
11
1.0206
21
1.08036
0
LINE
8
BLACK
6
CONTINUOUS
10
1.0206
20
1.08036
11
1.0225
21
1.08105
0
LINE
8
BLACK
6
CONTINUOUS
10
1.0225
20
1.08105
11
1.2587
21
1.08105
0
LINE
8
BLACK
6
CONTINUOUS
10
1.2587
20
1.08105
11
1.25971
21
1.08087
0
LINE
8
BLACK
6
CONTINUOUS
10
1.31286
20
1.2139
11
1.31355
21
1.212
0
LINE
8
BLACK
6
CONTINUOUS
10
1.31355
20
1.212
11
1.31355
21
1.0782
0
LINE
8
BLACK
6
CONTINUOUS
10
1.31355
20
1.0782
11
1.31337
21
1.07719
0
LINE
8
BLACK
6
CONTINUOUS
10
1.31337
20
1.07719
11
1.31208
21
1.07564
0
LINE
8
BLACK
6
CONTINUOUS
10
1.31208
20
1.07564
11
1.31009
21
1.07529
0
LINE
8
BLACK
6
CONTINUOUS
10
1.31009
20
1.07529
11
1.31006
21
1.07531
0
LINE
8
BLACK
6
CONTINUOUS
10
1.31006
20
1.07531
11
1.30939
21
1.07519
0
LINE
8
BLACK
6
CONTINUOUS
10
1.30939
20
1.07519
11
1.30764
21
1.0762
0
LINE
8
BLACK
6
CONTINUOUS
10
1.30764
20
1.0762
11
1.30695
21
1.0781
0
LINE
8
BLACK
6
CONTINUOUS
10
1.30695
20
1.0781
11
1.30695
21
1.2119
0
LINE
8
BLACK
6
CONTINUOUS
10
1.30695
20
1.2119
11
1.30713
21
1.21291
0
LINE
8
BLACK
6
CONTINUOUS
10
1.30713
20
1.21291
11
1.30842
21
1.21446
0
LINE
8
BLACK
6
CONTINUOUS
10
1.30842
20
1.21446
11
1.31041
21
1.21481
0
LINE
8
BLACK
6
CONTINUOUS
10
1.31041
20
1.21481
11
1.31044
21
1.21479
0
LINE
8
BLACK
6
CONTINUOUS
10
1.31044
20
1.21479
11
1.31111
21
1.21491
0
LINE
8
BLACK
6
CONTINUOUS
10
1.31111
20
1.21491
11
1.31286
21
1.2139
0
LINE
8
BLACK
6
CONTINUOUS
10
1.26061
20
1.21477
11
1.26216
21
1.21348
0
LINE
8
BLACK
6
CONTINUOUS
10
1.26216
20
1.21348
11
1.26251
21
1.21149
0
LINE
8
BLACK
6
CONTINUOUS
10
1.26251
20
1.21149
11
1.2615
21
1.20974
0
LINE
8
BLACK
6
CONTINUOUS
10
1.2615
20
1.20974
11
1.2596
21
1.20905
0
LINE
8
BLACK
6
CONTINUOUS
10
1.2596
20
1.20905
11
1.0234
21
1.20905
0
LINE
8
BLACK
6
CONTINUOUS
10
1.0234
20
1.20905
11
1.02239
21
1.20923
0
LINE
8
BLACK
6
CONTINUOUS
10
1.02239
20
1.20923
11
1.02084
21
1.21052
0
LINE
8
BLACK
6
CONTINUOUS
10
1.02084
20
1.21052
11
1.02049
21
1.21251
0
LINE
8
BLACK
6
CONTINUOUS
10
1.02049
20
1.21251
11
1.0215
21
1.21426
0
LINE
8
BLACK
6
CONTINUOUS
10
1.0215
20
1.21426
11
1.0234
21
1.21495
0
LINE
8
BLACK
6
CONTINUOUS
10
1.0234
20
1.21495
11
1.2596
21
1.21495
0
LINE
8
BLACK
6
CONTINUOUS
10
1.2596
20
1.21495
11
1.26061
21
1.21477
0
LINE
8
BLACK
6
CONTINUOUS
10
1.33976
20
1.2671
11
1.34045
21
1.2652
0
LINE
8
BLACK
6
CONTINUOUS
10
1.34045
20
1.2652
11
1.34045
21
1.24845
0
LINE
8
BLACK
6
CONTINUOUS
10
1.34045
20
1.24845
11
1.3611
21
1.24845
0
LINE
8
BLACK
6
CONTINUOUS
10
1.3611
20
1.24845
11
1.36211
21
1.24827
0
LINE
8
BLACK
6
CONTINUOUS
10
1.36211
20
1.24827
11
1.36366
21
1.24698
0
LINE
8
BLACK
6
CONTINUOUS
10
1.36366
20
1.24698
11
1.36401
21
1.24499
0
LINE
8
BLACK
6
CONTINUOUS
10
1.36401
20
1.24499
11
1.363
21
1.24324
0
LINE
8
BLACK
6
CONTINUOUS
10
1.363
20
1.24324
11
1.3611
21
1.24255
0
LINE
8
BLACK
6
CONTINUOUS
10
1.3611
20
1.24255
11
1.34045
21
1.24255
0
LINE
8
BLACK
6
CONTINUOUS
10
1.34045
20
1.24255
11
1.34045
21
1.2219
0
LINE
8
BLACK
6
CONTINUOUS
10
1.34045
20
1.2219
11
1.34027
21
1.22089
0
LINE
8
BLACK
6
CONTINUOUS
10
1.34027
20
1.22089
11
1.33898
21
1.21934
0
LINE
8
BLACK
6
CONTINUOUS
10
1.33898
20
1.21934
11
1.33699
21
1.21899
0
LINE
8
BLACK
6
CONTINUOUS
10
1.33699
20
1.21899
11
1.33524
21
1.22
0
LINE
8
BLACK
6
CONTINUOUS
10
1.33524
20
1.22
11
1.33455
21
1.2219
0
LINE
8
BLACK
6
CONTINUOUS
10
1.33455
20
1.2219
11
1.33455
21
1.24255
0
LINE
8
BLACK
6
CONTINUOUS
10
1.33455
20
1.24255
11
1.3139
21
1.24255
0
LINE
8
BLACK
6
CONTINUOUS
10
1.3139
20
1.24255
11
1.31289
21
1.24273
0
LINE
8
BLACK
6
CONTINUOUS
10
1.31289
20
1.24273
11
1.31134
21
1.24402
0
LINE
8
BLACK
6
CONTINUOUS
10
1.31134
20
1.24402
11
1.31099
21
1.24601
0
LINE
8
BLACK
6
CONTINUOUS
10
1.31099
20
1.24601
11
1.312
21
1.24776
0
LINE
8
BLACK
6
CONTINUOUS
10
1.312
20
1.24776
11
1.3139
21
1.24845
0
LINE
8
BLACK
6
CONTINUOUS
10
1.3139
20
1.24845
11
1.33455
21
1.24845
0
LINE
8
BLACK
6
CONTINUOUS
10
1.33455
20
1.24845
11
1.33455
21
1.2652
0
LINE
8
BLACK
6
CONTINUOUS
10
1.33455
20
1.2652
11
1.33473
21
1.26621
0
LINE
8
BLACK
6
CONTINUOUS
10
1.33473
20
1.26621
11
1.33602
21
1.26776
0
LINE
8
BLACK
6
CONTINUOUS
10
1.33602
20
1.26776
11
1.33801
21
1.26811
0
LINE
8
BLACK
6
CONTINUOUS
10
1.33801
20
1.26811
11
1.33976
21
1.2671
0
LINE
8
BLACK
6
CONTINUOUS
10
1.16868
20
1.29581
11
1.16964
21
1.29575
0
LINE
8
BLACK
6
CONTINUOUS
10
1.16964
20
1.29575
11
1.17821
21
1.2929
0
LINE
8
BLACK
6
CONTINUOUS
10
1.17821
20
1.2929
11
1.17936
21
1.29214
0
LINE
8
BLACK
6
CONTINUOUS
10
1.17936
20
1.29214
11
1.18056
21
1.29145
0
LINE
8
BLACK
6
CONTINUOUS
10
1.18056
20
1.29145
11
1.18627
21
1.28573
0
LINE
8
BLACK
6
CONTINUOUS
10
1.18627
20
1.28573
11
1.18675
21
1.2849
0
LINE
8
BLACK
6
CONTINUOUS
10
1.18675
20
1.2849
11
1.1874
21
1.28417
0
LINE
8
BLACK
6
CONTINUOUS
10
1.1874
20
1.28417
11
1.19025
21
1.27846
0
LINE
8
BLACK
6
CONTINUOUS
10
1.19025
20
1.27846
11
1.19039
21
1.27781
0
LINE
8
BLACK
6
CONTINUOUS
10
1.19039
20
1.27781
11
1.19071
21
1.27723
0
LINE
8
BLACK
6
CONTINUOUS
10
1.19071
20
1.27723
11
1.19356
21
1.2658
0
LINE
8
BLACK
6
CONTINUOUS
10
1.19356
20
1.2658
11
1.19355
21
1.26506
0
LINE
8
BLACK
6
CONTINUOUS
10
1.19355
20
1.26506
11
1.19374
21
1.26435
0
LINE
8
BLACK
6
CONTINUOUS
10
1.19374
20
1.26435
11
1.19374
21
1.25578
0
LINE
8
BLACK
6
CONTINUOUS
10
1.19374
20
1.25578
11
1.19355
21
1.25506
0
LINE
8
BLACK
6
CONTINUOUS
10
1.19355
20
1.25506
11
1.19356
21
1.25432
0
LINE
8
BLACK
6
CONTINUOUS
10
1.19356
20
1.25432
11
1.19071
21
1.24289
0
LINE
8
BLACK
6
CONTINUOUS
10
1.19071
20
1.24289
11
1.19039
21
1.24231
0
LINE
8
BLACK
6
CONTINUOUS
10
1.19039
20
1.24231
11
1.19025
21
1.24166
0
LINE
8
BLACK
6
CONTINUOUS
10
1.19025
20
1.24166
11
1.1874
21
1.23595
0
LINE
8
BLACK
6
CONTINUOUS
10
1.1874
20
1.23595
11
1.18675
21
1.23523
0
LINE
8
BLACK
6
CONTINUOUS
10
1.18675
20
1.23523
11
1.18627
21
1.23439
0
LINE
8
BLACK
6
CONTINUOUS
10
1.18627
20
1.23439
11
1.18056
21
1.22868
0
LINE
8
BLACK
6
CONTINUOUS
10
1.18056
20
1.22868
11
1.17936
21
1.22799
0
LINE
8
BLACK
6
CONTINUOUS
10
1.17936
20
1.22799
11
1.17821
21
1.22723
0
LINE
8
BLACK
6
CONTINUOUS
10
1.17821
20
1.22723
11
1.16964
21
1.22437
0
LINE
8
BLACK
6
CONTINUOUS
10
1.16964
20
1.22437
11
1.16868
21
1.22431
0
LINE
8
BLACK
6
CONTINUOUS
10
1.16868
20
1.22431
11
1.16774
21
1.22406
0
LINE
8
BLACK
6
CONTINUOUS
10
1.16774
20
1.22406
11
1.16203
21
1.22406
0
LINE
8
BLACK
6
CONTINUOUS
10
1.16203
20
1.22406
11
1.1611
21
1.22431
0
LINE
8
BLACK
6
CONTINUOUS
10
1.1611
20
1.22431
11
1.16013
21
1.22437
0
LINE
8
BLACK
6
CONTINUOUS
10
1.16013
20
1.22437
11
1.15156
21
1.22723
0
LINE
8
BLACK
6
CONTINUOUS
10
1.15156
20
1.22723
11
1.15041
21
1.22799
0
LINE
8
BLACK
6
CONTINUOUS
10
1.15041
20
1.22799
11
1.14921
21
1.22868
0
LINE
8
BLACK
6
CONTINUOUS
10
1.14921
20
1.22868
11
1.14636
21
1.23153
0
LINE
8
BLACK
6
CONTINUOUS
10
1.14636
20
1.23153
11
1.1448
21
1.23422
0
LINE
8
BLACK
6
CONTINUOUS
10
1.1448
20
1.23422
11
1.1448
21
1.23733
0
LINE
8
BLACK
6
CONTINUOUS
10
1.1448
20
1.23733
11
1.14636
21
1.24002
0
LINE
8
BLACK
6
CONTINUOUS
10
1.14636
20
1.24002
11
1.14905
21
1.24157
0
LINE
8
BLACK
6
CONTINUOUS
10
1.14905
20
1.24157
11
1.15215
21
1.24157
0
LINE
8
BLACK
6
CONTINUOUS
10
1.15215
20
1.24157
11
1.15484
21
1.24002
0
LINE
8
BLACK
6
CONTINUOUS
10
1.15484
20
1.24002
11
1.1567
21
1.23816
0
LINE
8
BLACK
6
CONTINUOUS
10
1.1567
20
1.23816
11
1.163
21
1.23606
0
LINE
8
BLACK
6
CONTINUOUS
10
1.163
20
1.23606
11
1.16677
21
1.23606
0
LINE
8
BLACK
6
CONTINUOUS
10
1.16677
20
1.23606
11
1.17307
21
1.23816
0
LINE
8
BLACK
6
CONTINUOUS
10
1.17307
20
1.23816
11
1.1771
21
1.24219
0
LINE
8
BLACK
6
CONTINUOUS
10
1.1771
20
1.24219
11
1.17922
21
1.24644
0
LINE
8
BLACK
6
CONTINUOUS
10
1.17922
20
1.24644
11
1.18174
21
1.25651
0
LINE
8
BLACK
6
CONTINUOUS
10
1.18174
20
1.25651
11
1.18174
21
1.26361
0
LINE
8
BLACK
6
CONTINUOUS
10
1.18174
20
1.26361
11
1.17922
21
1.27368
0
LINE
8
BLACK
6
CONTINUOUS
10
1.17922
20
1.27368
11
1.1771
21
1.27794
0
LINE
8
BLACK
6
CONTINUOUS
10
1.1771
20
1.27794
11
1.17307
21
1.28196
0
LINE
8
BLACK
6
CONTINUOUS
10
1.17307
20
1.28196
11
1.16677
21
1.28406
0
LINE
8
BLACK
6
CONTINUOUS
10
1.16677
20
1.28406
11
1.163
21
1.28406
0
LINE
8
BLACK
6
CONTINUOUS
10
1.163
20
1.28406
11
1.1567
21
1.28196
0
LINE
8
BLACK
6
CONTINUOUS
10
1.1567
20
1.28196
11
1.15484
21
1.2801
0
LINE
8
BLACK
6
CONTINUOUS
10
1.15484
20
1.2801
11
1.15215
21
1.27855
0
LINE
8
BLACK
6
CONTINUOUS
10
1.15215
20
1.27855
11
1.14905
21
1.27855
0
LINE
8
BLACK
6
CONTINUOUS
10
1.14905
20
1.27855
11
1.14636
21
1.2801
0
LINE
8
BLACK
6
CONTINUOUS
10
1.14636
20
1.2801
11
1.1448
21
1.28279
0
LINE
8
BLACK
6
CONTINUOUS
10
1.1448
20
1.28279
11
1.1448
21
1.2859
0
LINE
8
BLACK
6
CONTINUOUS
10
1.1448
20
1.2859
11
1.14636
21
1.28859
0
LINE
8
BLACK
6
CONTINUOUS
10
1.14636
20
1.28859
11
1.14921
21
1.29145
0
LINE
8
BLACK
6
CONTINUOUS
10
1.14921
20
1.29145
11
1.15041
21
1.29214
0
LINE
8
BLACK
6
CONTINUOUS
10
1.15041
20
1.29214
11
1.15156
21
1.2929
0
LINE
8
BLACK
6
CONTINUOUS
10
1.15156
20
1.2929
11
1.16013
21
1.29575
0
LINE
8
BLACK
6
CONTINUOUS
10
1.16013
20
1.29575
11
1.1611
21
1.29581
0
LINE
8
BLACK
6
CONTINUOUS
10
1.1611
20
1.29581
11
1.16203
21
1.29606
0
LINE
8
BLACK
6
CONTINUOUS
10
1.16203
20
1.29606
11
1.16774
21
1.29606
0
LINE
8
BLACK
6
CONTINUOUS
10
1.16774
20
1.29606
11
1.16868
21
1.29581
0
LINE
8
BLACK
6
CONTINUOUS
10
1.1336
20
1.29526
11
1.1358
21
1.29306
0
LINE
8
BLACK
6
CONTINUOUS
10
1.1358
20
1.29306
11
1.1366
21
1.29006
0
LINE
8
BLACK
6
CONTINUOUS
10
1.1366
20
1.29006
11
1.1358
21
1.28706
0
LINE
8
BLACK
6
CONTINUOUS
10
1.1358
20
1.28706
11
1.1336
21
1.28487
0
LINE
8
BLACK
6
CONTINUOUS
10
1.1336
20
1.28487
11
1.1306
21
1.28406
0
LINE
8
BLACK
6
CONTINUOUS
10
1.1306
20
1.28406
11
1.0997
21
1.28406
0
LINE
8
BLACK
6
CONTINUOUS
10
1.0997
20
1.28406
11
1.12183
21
1.23243
0
LINE
8
BLACK
6
CONTINUOUS
10
1.12183
20
1.23243
11
1.12227
21
1.22935
0
LINE
8
BLACK
6
CONTINUOUS
10
1.12227
20
1.22935
11
1.12112
21
1.22647
0
LINE
8
BLACK
6
CONTINUOUS
10
1.12112
20
1.22647
11
1.11868
21
1.22455
0
LINE
8
BLACK
6
CONTINUOUS
10
1.11868
20
1.22455
11
1.1156
21
1.2241
0
LINE
8
BLACK
6
CONTINUOUS
10
1.1156
20
1.2241
11
1.11272
21
1.22526
0
LINE
8
BLACK
6
CONTINUOUS
10
1.11272
20
1.22526
11
1.1108
21
1.2277
0
LINE
8
BLACK
6
CONTINUOUS
10
1.1108
20
1.2277
11
1.08509
21
1.2877
0
LINE
8
BLACK
6
CONTINUOUS
10
1.08509
20
1.2877
11
1.08491
21
1.28889
0
LINE
8
BLACK
6
CONTINUOUS
10
1.08491
20
1.28889
11
1.0846
21
1.29006
0
LINE
8
BLACK
6
CONTINUOUS
10
1.0846
20
1.29006
11
1.08469
21
1.29041
0
LINE
8
BLACK
6
CONTINUOUS
10
1.08469
20
1.29041
11
1.08464
21
1.29077
0
LINE
8
BLACK
6
CONTINUOUS
10
1.08464
20
1.29077
11
1.08509
21
1.29189
0
LINE
8
BLACK
6
CONTINUOUS
10
1.08509
20
1.29189
11
1.0854
21
1.29306
0
LINE
8
BLACK
6
CONTINUOUS
10
1.0854
20
1.29306
11
1.08566
21
1.29332
0
LINE
8
BLACK
6
CONTINUOUS
10
1.08566
20
1.29332
11
1.0858
21
1.29366
0
LINE
8
BLACK
6
CONTINUOUS
10
1.0858
20
1.29366
11
1.08675
21
1.2944
0
LINE
8
BLACK
6
CONTINUOUS
10
1.08675
20
1.2944
11
1.0876
21
1.29526
0
LINE
8
BLACK
6
CONTINUOUS
10
1.0876
20
1.29526
11
1.08795
21
1.29535
0
LINE
8
BLACK
6
CONTINUOUS
10
1.08795
20
1.29535
11
1.08824
21
1.29558
0
LINE
8
BLACK
6
CONTINUOUS
10
1.08824
20
1.29558
11
1.08943
21
1.29575
0
LINE
8
BLACK
6
CONTINUOUS
10
1.08943
20
1.29575
11
1.0906
21
1.29606
0
LINE
8
BLACK
6
CONTINUOUS
10
1.0906
20
1.29606
11
1.1306
21
1.29606
0
LINE
8
BLACK
6
CONTINUOUS
10
1.1306
20
1.29606
11
1.1336
21
1.29526
0
LINE
8
BLACK
6
CONTINUOUS
10
1.241
20
1.28777
11
1.2432
21
1.28557
0
LINE
8
BLACK
6
CONTINUOUS
10
1.2432
20
1.28557
11
1.244
21
1.28257
0
LINE
8
BLACK
6
CONTINUOUS
10
1.244
20
1.28257
11
1.244
21
1.26571
0
LINE
8
BLACK
6
CONTINUOUS
10
1.244
20
1.26571
11
1.26086
21
1.26571
0
LINE
8
BLACK
6
CONTINUOUS
10
1.26086
20
1.26571
11
1.26386
21
1.26491
0
LINE
8
BLACK
6
CONTINUOUS
10
1.26386
20
1.26491
11
1.26605
21
1.26271
0
LINE
8
BLACK
6
CONTINUOUS
10
1.26605
20
1.26271
11
1.26686
21
1.25971
0
LINE
8
BLACK
6
CONTINUOUS
10
1.26686
20
1.25971
11
1.26605
21
1.25671
0
LINE
8
BLACK
6
CONTINUOUS
10
1.26605
20
1.25671
11
1.26386
21
1.25452
0
LINE
8
BLACK
6
CONTINUOUS
10
1.26386
20
1.25452
11
1.26086
21
1.25371
0
LINE
8
BLACK
6
CONTINUOUS
10
1.26086
20
1.25371
11
1.244
21
1.25371
0
LINE
8
BLACK
6
CONTINUOUS
10
1.244
20
1.25371
11
1.244
21
1.23686
0
LINE
8
BLACK
6
CONTINUOUS
10
1.244
20
1.23686
11
1.2432
21
1.23386
0
LINE
8
BLACK
6
CONTINUOUS
10
1.2432
20
1.23386
11
1.241
21
1.23166
0
LINE
8
BLACK
6
CONTINUOUS
10
1.241
20
1.23166
11
1.238
21
1.23086
0
LINE
8
BLACK
6
CONTINUOUS
10
1.238
20
1.23086
11
1.235
21
1.23166
0
LINE
8
BLACK
6
CONTINUOUS
10
1.235
20
1.23166
11
1.2328
21
1.23386
0
LINE
8
BLACK
6
CONTINUOUS
10
1.2328
20
1.23386
11
1.232
21
1.23686
0
LINE
8
BLACK
6
CONTINUOUS
10
1.232
20
1.23686
11
1.232
21
1.25371
0
LINE
8
BLACK
6
CONTINUOUS
10
1.232
20
1.25371
11
1.21514
21
1.25371
0
LINE
8
BLACK
6
CONTINUOUS
10
1.21514
20
1.25371
11
1.21214
21
1.25452
0
LINE
8
BLACK
6
CONTINUOUS
10
1.21214
20
1.25452
11
1.20995
21
1.25671
0
LINE
8
BLACK
6
CONTINUOUS
10
1.20995
20
1.25671
11
1.20914
21
1.25971
0
LINE
8
BLACK
6
CONTINUOUS
10
1.20914
20
1.25971
11
1.20995
21
1.26271
0
LINE
8
BLACK
6
CONTINUOUS
10
1.20995
20
1.26271
11
1.21214
21
1.26491
0
LINE
8
BLACK
6
CONTINUOUS
10
1.21214
20
1.26491
11
1.21514
21
1.26571
0
LINE
8
BLACK
6
CONTINUOUS
10
1.21514
20
1.26571
11
1.232
21
1.26571
0
LINE
8
BLACK
6
CONTINUOUS
10
1.232
20
1.26571
11
1.232
21
1.28257
0
LINE
8
BLACK
6
CONTINUOUS
10
1.232
20
1.28257
11
1.2328
21
1.28557
0
LINE
8
BLACK
6
CONTINUOUS
10
1.2328
20
1.28557
11
1.235
21
1.28777
0
LINE
8
BLACK
6
CONTINUOUS
10
1.235
20
1.28777
11
1.238
21
1.28857
0
LINE
8
BLACK
6
CONTINUOUS
10
1.238
20
1.28857
11
1.241
21
1.28777
  0
ENDSEC
  0
EOF
