  0
SECTION
  2
HEADER
  9
$ANGBASE
  50
0.0
  9
$ANGDIR
  70
1
  9
$MEASUREMENT
  70
0
  0
ENDSEC
  0
SECTION
  2
TABLES
  0
TABLE
  2
LTYPE
  70
4
  0
LTYPE
  5
40F
  2
CONTINUOUS
  70
0
  3
Solid line
  72
65
  73
0
  40
0.0
  0
LTYPE
  5
410
  2
DASHDOT
 70
0
  3
Dash Dot ____ _ ____ _
 72
65
 73
4
 40
2.0
 49
1.25
 49
-0.25
 49
0.25
 49
-0.25
  0
LTYPE
  5
411
  2
DASHED
 70
0
  3
Dashed __ __ __ __ __
 72
65
 73
2
 40
0.75
 49
0.5
 49
-0.25
  0
LTYPE
  5
43B
  2
DOTTED
 70
0
  3
Dotted .  .  .  .
 72
65
 73
2
 40
0.2
 49
0.0
 49
-0.2
  0
ENDTAB
  0
TABLE
  2
STYLE
  70
4
  0
STYLE
  2
KICAD
  70
0
  40
0
  41
1
  42
1
  50
0
  71
0
  3
isocp.shx
  0
STYLE
  2
KICADB
  70
0
  40
0
  41
1
  42
1
  50
0
  71
0
  3
isocp.shx
  0
STYLE
  2
KICADI
  70
0
  40
0
  41
1
  42
1
  50
15
  71
0
  3
isocp.shx
  0
STYLE
  2
KICADBI
  70
0
  40
0
  41
1
  42
1
  50
15
  71
0
  3
isocp.shx
  0
ENDTAB
  0
TABLE
  2
LAYER
  70
1
  0
LAYER
  2
BLACK
  70
0
  62
7
  6
CONTINUOUS
  0
ENDTAB
  0
ENDSEC
  0
SECTION
  2
ENTITIES
0
LINE
8
BLACK
6
CONTINUOUS
10
0.901483
20
0.183503
11
0.904676
21
0.181369
0
LINE
8
BLACK
6
CONTINUOUS
10
0.904676
20
0.181369
11
0.90681
21
0.178176
0
LINE
8
BLACK
6
CONTINUOUS
10
0.90681
20
0.178176
11
0.907559
21
0.174409
0
LINE
8
BLACK
6
CONTINUOUS
10
0.907559
20
0.174409
11
0.907559
21
0.15374
0
LINE
8
BLACK
6
CONTINUOUS
10
0.907559
20
0.15374
11
0.90681
21
0.149974
0
LINE
8
BLACK
6
CONTINUOUS
10
0.90681
20
0.149974
11
0.904676
21
0.14678
0
LINE
8
BLACK
6
CONTINUOUS
10
0.904676
20
0.14678
11
0.901483
21
0.144647
0
LINE
8
BLACK
6
CONTINUOUS
10
0.901483
20
0.144647
11
0.897717
21
0.143898
0
LINE
8
BLACK
6
CONTINUOUS
10
0.897717
20
0.143898
11
0.862283
21
0.143898
0
LINE
8
BLACK
6
CONTINUOUS
10
0.862283
20
0.143898
11
0.858517
21
0.144647
0
LINE
8
BLACK
6
CONTINUOUS
10
0.858517
20
0.144647
11
0.855324
21
0.14678
0
LINE
8
BLACK
6
CONTINUOUS
10
0.855324
20
0.14678
11
0.85319
21
0.149974
0
LINE
8
BLACK
6
CONTINUOUS
10
0.85319
20
0.149974
11
0.852441
21
0.15374
0
LINE
8
BLACK
6
CONTINUOUS
10
0.852441
20
0.15374
11
0.852441
21
0.174409
0
LINE
8
BLACK
6
CONTINUOUS
10
0.852441
20
0.174409
11
0.85319
21
0.178176
0
LINE
8
BLACK
6
CONTINUOUS
10
0.85319
20
0.178176
11
0.855324
21
0.181369
0
LINE
8
BLACK
6
CONTINUOUS
10
0.855324
20
0.181369
11
0.858517
21
0.183503
0
LINE
8
BLACK
6
CONTINUOUS
10
0.858517
20
0.183503
11
0.862283
21
0.184252
0
LINE
8
BLACK
6
CONTINUOUS
10
0.862283
20
0.184252
11
0.897717
21
0.184252
0
LINE
8
BLACK
6
CONTINUOUS
10
0.897717
20
0.184252
11
0.901483
21
0.183503
0
LINE
8
BLACK
6
CONTINUOUS
10
1.00648
20
0.183503
11
1.00968
21
0.181369
0
LINE
8
BLACK
6
CONTINUOUS
10
1.00968
20
0.181369
11
1.01181
21
0.178176
0
LINE
8
BLACK
6
CONTINUOUS
10
1.01181
20
0.178176
11
1.01256
21
0.174409
0
LINE
8
BLACK
6
CONTINUOUS
10
1.01256
20
0.174409
11
1.01256
21
0.15374
0
LINE
8
BLACK
6
CONTINUOUS
10
1.01256
20
0.15374
11
1.01181
21
0.149974
0
LINE
8
BLACK
6
CONTINUOUS
10
1.01181
20
0.149974
11
1.00968
21
0.14678
0
LINE
8
BLACK
6
CONTINUOUS
10
1.00968
20
0.14678
11
1.00648
21
0.144647
0
LINE
8
BLACK
6
CONTINUOUS
10
1.00648
20
0.144647
11
1.00272
21
0.143898
0
LINE
8
BLACK
6
CONTINUOUS
10
1.00272
20
0.143898
11
0.967283
21
0.143898
0
LINE
8
BLACK
6
CONTINUOUS
10
0.967283
20
0.143898
11
0.963517
21
0.144647
0
LINE
8
BLACK
6
CONTINUOUS
10
0.963517
20
0.144647
11
0.960324
21
0.14678
0
LINE
8
BLACK
6
CONTINUOUS
10
0.960324
20
0.14678
11
0.95819
21
0.149974
0
LINE
8
BLACK
6
CONTINUOUS
10
0.95819
20
0.149974
11
0.957441
21
0.15374
0
LINE
8
BLACK
6
CONTINUOUS
10
0.957441
20
0.15374
11
0.957441
21
0.174409
0
LINE
8
BLACK
6
CONTINUOUS
10
0.957441
20
0.174409
11
0.95819
21
0.178176
0
LINE
8
BLACK
6
CONTINUOUS
10
0.95819
20
0.178176
11
0.960324
21
0.181369
0
LINE
8
BLACK
6
CONTINUOUS
10
0.960324
20
0.181369
11
0.963517
21
0.183503
0
LINE
8
BLACK
6
CONTINUOUS
10
0.963517
20
0.183503
11
0.967283
21
0.184252
0
LINE
8
BLACK
6
CONTINUOUS
10
0.967283
20
0.184252
11
1.00272
21
0.184252
0
LINE
8
BLACK
6
CONTINUOUS
10
1.00272
20
0.184252
11
1.00648
21
0.183503
0
LINE
8
BLACK
6
CONTINUOUS
10
0.901483
20
0.255353
11
0.904676
21
0.25322
0
LINE
8
BLACK
6
CONTINUOUS
10
0.904676
20
0.25322
11
0.90681
21
0.250026
0
LINE
8
BLACK
6
CONTINUOUS
10
0.90681
20
0.250026
11
0.907559
21
0.24626
0
LINE
8
BLACK
6
CONTINUOUS
10
0.907559
20
0.24626
11
0.907559
21
0.225591
0
LINE
8
BLACK
6
CONTINUOUS
10
0.907559
20
0.225591
11
0.90681
21
0.221824
0
LINE
8
BLACK
6
CONTINUOUS
10
0.90681
20
0.221824
11
0.904676
21
0.218631
0
LINE
8
BLACK
6
CONTINUOUS
10
0.904676
20
0.218631
11
0.901483
21
0.216497
0
LINE
8
BLACK
6
CONTINUOUS
10
0.901483
20
0.216497
11
0.897717
21
0.215748
0
LINE
8
BLACK
6
CONTINUOUS
10
0.897717
20
0.215748
11
0.862283
21
0.215748
0
LINE
8
BLACK
6
CONTINUOUS
10
0.862283
20
0.215748
11
0.858517
21
0.216497
0
LINE
8
BLACK
6
CONTINUOUS
10
0.858517
20
0.216497
11
0.855324
21
0.218631
0
LINE
8
BLACK
6
CONTINUOUS
10
0.855324
20
0.218631
11
0.85319
21
0.221824
0
LINE
8
BLACK
6
CONTINUOUS
10
0.85319
20
0.221824
11
0.852441
21
0.225591
0
LINE
8
BLACK
6
CONTINUOUS
10
0.852441
20
0.225591
11
0.852441
21
0.24626
0
LINE
8
BLACK
6
CONTINUOUS
10
0.852441
20
0.24626
11
0.85319
21
0.250026
0
LINE
8
BLACK
6
CONTINUOUS
10
0.85319
20
0.250026
11
0.855324
21
0.25322
0
LINE
8
BLACK
6
CONTINUOUS
10
0.855324
20
0.25322
11
0.858517
21
0.255353
0
LINE
8
BLACK
6
CONTINUOUS
10
0.858517
20
0.255353
11
0.862283
21
0.256102
0
LINE
8
BLACK
6
CONTINUOUS
10
0.862283
20
0.256102
11
0.897717
21
0.256102
0
LINE
8
BLACK
6
CONTINUOUS
10
0.897717
20
0.256102
11
0.901483
21
0.255353
0
LINE
8
BLACK
6
CONTINUOUS
10
1.00648
20
0.255353
11
1.00968
21
0.25322
0
LINE
8
BLACK
6
CONTINUOUS
10
1.00968
20
0.25322
11
1.01181
21
0.250026
0
LINE
8
BLACK
6
CONTINUOUS
10
1.01181
20
0.250026
11
1.01256
21
0.24626
0
LINE
8
BLACK
6
CONTINUOUS
10
1.01256
20
0.24626
11
1.01256
21
0.225591
0
LINE
8
BLACK
6
CONTINUOUS
10
1.01256
20
0.225591
11
1.01181
21
0.221824
0
LINE
8
BLACK
6
CONTINUOUS
10
1.01181
20
0.221824
11
1.00968
21
0.218631
0
LINE
8
BLACK
6
CONTINUOUS
10
1.00968
20
0.218631
11
1.00648
21
0.216497
0
LINE
8
BLACK
6
CONTINUOUS
10
1.00648
20
0.216497
11
1.00272
21
0.215748
0
LINE
8
BLACK
6
CONTINUOUS
10
1.00272
20
0.215748
11
0.967283
21
0.215748
0
LINE
8
BLACK
6
CONTINUOUS
10
0.967283
20
0.215748
11
0.963517
21
0.216497
0
LINE
8
BLACK
6
CONTINUOUS
10
0.963517
20
0.216497
11
0.960324
21
0.218631
0
LINE
8
BLACK
6
CONTINUOUS
10
0.960324
20
0.218631
11
0.95819
21
0.221824
0
LINE
8
BLACK
6
CONTINUOUS
10
0.95819
20
0.221824
11
0.957441
21
0.225591
0
LINE
8
BLACK
6
CONTINUOUS
10
0.957441
20
0.225591
11
0.957441
21
0.24626
0
LINE
8
BLACK
6
CONTINUOUS
10
0.957441
20
0.24626
11
0.95819
21
0.250026
0
LINE
8
BLACK
6
CONTINUOUS
10
0.95819
20
0.250026
11
0.960324
21
0.25322
0
LINE
8
BLACK
6
CONTINUOUS
10
0.960324
20
0.25322
11
0.963517
21
0.255353
0
LINE
8
BLACK
6
CONTINUOUS
10
0.963517
20
0.255353
11
0.967283
21
0.256102
0
LINE
8
BLACK
6
CONTINUOUS
10
0.967283
20
0.256102
11
1.00272
21
0.256102
0
LINE
8
BLACK
6
CONTINUOUS
10
1.00272
20
0.256102
11
1.00648
21
0.255353
0
LINE
8
BLACK
6
CONTINUOUS
10
0.918806
20
0.347794
11
0.921999
21
0.345661
0
LINE
8
BLACK
6
CONTINUOUS
10
0.921999
20
0.345661
11
0.924133
21
0.342467
0
LINE
8
BLACK
6
CONTINUOUS
10
0.924133
20
0.342467
11
0.924882
21
0.338701
0
LINE
8
BLACK
6
CONTINUOUS
10
0.924882
20
0.338701
11
0.924882
21
0.301299
0
LINE
8
BLACK
6
CONTINUOUS
10
0.924882
20
0.301299
11
0.924133
21
0.297533
0
LINE
8
BLACK
6
CONTINUOUS
10
0.924133
20
0.297533
11
0.921999
21
0.294339
0
LINE
8
BLACK
6
CONTINUOUS
10
0.921999
20
0.294339
11
0.918806
21
0.292206
0
LINE
8
BLACK
6
CONTINUOUS
10
0.918806
20
0.292206
11
0.915039
21
0.291457
0
LINE
8
BLACK
6
CONTINUOUS
10
0.915039
20
0.291457
11
0.895354
21
0.291457
0
LINE
8
BLACK
6
CONTINUOUS
10
0.895354
20
0.291457
11
0.891588
21
0.292206
0
LINE
8
BLACK
6
CONTINUOUS
10
0.891588
20
0.292206
11
0.888395
21
0.294339
0
LINE
8
BLACK
6
CONTINUOUS
10
0.888395
20
0.294339
11
0.886261
21
0.297533
0
LINE
8
BLACK
6
CONTINUOUS
10
0.886261
20
0.297533
11
0.885512
21
0.301299
0
LINE
8
BLACK
6
CONTINUOUS
10
0.885512
20
0.301299
11
0.885512
21
0.338701
0
LINE
8
BLACK
6
CONTINUOUS
10
0.885512
20
0.338701
11
0.886261
21
0.342467
0
LINE
8
BLACK
6
CONTINUOUS
10
0.886261
20
0.342467
11
0.888395
21
0.345661
0
LINE
8
BLACK
6
CONTINUOUS
10
0.888395
20
0.345661
11
0.891588
21
0.347794
0
LINE
8
BLACK
6
CONTINUOUS
10
0.891588
20
0.347794
11
0.895354
21
0.348543
0
LINE
8
BLACK
6
CONTINUOUS
10
0.895354
20
0.348543
11
0.915039
21
0.348543
0
LINE
8
BLACK
6
CONTINUOUS
10
0.915039
20
0.348543
11
0.918806
21
0.347794
0
LINE
8
BLACK
6
CONTINUOUS
10
0.993609
20
0.347794
11
0.996802
21
0.345661
0
LINE
8
BLACK
6
CONTINUOUS
10
0.996802
20
0.345661
11
0.998936
21
0.342467
0
LINE
8
BLACK
6
CONTINUOUS
10
0.998936
20
0.342467
11
0.999685
21
0.338701
0
LINE
8
BLACK
6
CONTINUOUS
10
0.999685
20
0.338701
11
0.999685
21
0.301299
0
LINE
8
BLACK
6
CONTINUOUS
10
0.999685
20
0.301299
11
0.998936
21
0.297533
0
LINE
8
BLACK
6
CONTINUOUS
10
0.998936
20
0.297533
11
0.996802
21
0.294339
0
LINE
8
BLACK
6
CONTINUOUS
10
0.996802
20
0.294339
11
0.993609
21
0.292206
0
LINE
8
BLACK
6
CONTINUOUS
10
0.993609
20
0.292206
11
0.989843
21
0.291457
0
LINE
8
BLACK
6
CONTINUOUS
10
0.989843
20
0.291457
11
0.970157
21
0.291457
0
LINE
8
BLACK
6
CONTINUOUS
10
0.970157
20
0.291457
11
0.966391
21
0.292206
0
LINE
8
BLACK
6
CONTINUOUS
10
0.966391
20
0.292206
11
0.963198
21
0.294339
0
LINE
8
BLACK
6
CONTINUOUS
10
0.963198
20
0.294339
11
0.961064
21
0.297533
0
LINE
8
BLACK
6
CONTINUOUS
10
0.961064
20
0.297533
11
0.960315
21
0.301299
0
LINE
8
BLACK
6
CONTINUOUS
10
0.960315
20
0.301299
11
0.960315
21
0.338701
0
LINE
8
BLACK
6
CONTINUOUS
10
0.960315
20
0.338701
11
0.961064
21
0.342467
0
LINE
8
BLACK
6
CONTINUOUS
10
0.961064
20
0.342467
11
0.963198
21
0.345661
0
LINE
8
BLACK
6
CONTINUOUS
10
0.963198
20
0.345661
11
0.966391
21
0.347794
0
LINE
8
BLACK
6
CONTINUOUS
10
0.966391
20
0.347794
11
0.970157
21
0.348543
0
LINE
8
BLACK
6
CONTINUOUS
10
0.970157
20
0.348543
11
0.989843
21
0.348543
0
LINE
8
BLACK
6
CONTINUOUS
10
0.989843
20
0.348543
11
0.993609
21
0.347794
0
LINE
8
BLACK
6
CONTINUOUS
10
1.0841
20
0.38681
11
1.08729
21
0.384676
0
LINE
8
BLACK
6
CONTINUOUS
10
1.08729
20
0.384676
11
1.08943
21
0.381483
0
LINE
8
BLACK
6
CONTINUOUS
10
1.08943
20
0.381483
11
1.09018
21
0.377717
0
LINE
8
BLACK
6
CONTINUOUS
10
1.09018
20
0.377717
11
1.09018
21
0.342283
0
LINE
8
BLACK
6
CONTINUOUS
10
1.09018
20
0.342283
11
1.08943
21
0.338517
0
LINE
8
BLACK
6
CONTINUOUS
10
1.08943
20
0.338517
11
1.08729
21
0.335324
0
LINE
8
BLACK
6
CONTINUOUS
10
1.08729
20
0.335324
11
1.0841
21
0.33319
0
LINE
8
BLACK
6
CONTINUOUS
10
1.0841
20
0.33319
11
1.08033
21
0.332441
0
LINE
8
BLACK
6
CONTINUOUS
10
1.08033
20
0.332441
11
1.05967
21
0.332441
0
LINE
8
BLACK
6
CONTINUOUS
10
1.05967
20
0.332441
11
1.0559
21
0.33319
0
LINE
8
BLACK
6
CONTINUOUS
10
1.0559
20
0.33319
11
1.05271
21
0.335324
0
LINE
8
BLACK
6
CONTINUOUS
10
1.05271
20
0.335324
11
1.05057
21
0.338517
0
LINE
8
BLACK
6
CONTINUOUS
10
1.05057
20
0.338517
11
1.04982
21
0.342283
0
LINE
8
BLACK
6
CONTINUOUS
10
1.04982
20
0.342283
11
1.04982
21
0.377717
0
LINE
8
BLACK
6
CONTINUOUS
10
1.04982
20
0.377717
11
1.05057
21
0.381483
0
LINE
8
BLACK
6
CONTINUOUS
10
1.05057
20
0.381483
11
1.05271
21
0.384676
0
LINE
8
BLACK
6
CONTINUOUS
10
1.05271
20
0.384676
11
1.0559
21
0.38681
0
LINE
8
BLACK
6
CONTINUOUS
10
1.0559
20
0.38681
11
1.05967
21
0.387559
0
LINE
8
BLACK
6
CONTINUOUS
10
1.05967
20
0.387559
11
1.08033
21
0.387559
0
LINE
8
BLACK
6
CONTINUOUS
10
1.08033
20
0.387559
11
1.0841
21
0.38681
0
LINE
8
BLACK
6
CONTINUOUS
10
1.15595
20
0.38681
11
1.15914
21
0.384676
0
LINE
8
BLACK
6
CONTINUOUS
10
1.15914
20
0.384676
11
1.16128
21
0.381483
0
LINE
8
BLACK
6
CONTINUOUS
10
1.16128
20
0.381483
11
1.16203
21
0.377717
0
LINE
8
BLACK
6
CONTINUOUS
10
1.16203
20
0.377717
11
1.16203
21
0.342283
0
LINE
8
BLACK
6
CONTINUOUS
10
1.16203
20
0.342283
11
1.16128
21
0.338517
0
LINE
8
BLACK
6
CONTINUOUS
10
1.16128
20
0.338517
11
1.15914
21
0.335324
0
LINE
8
BLACK
6
CONTINUOUS
10
1.15914
20
0.335324
11
1.15595
21
0.33319
0
LINE
8
BLACK
6
CONTINUOUS
10
1.15595
20
0.33319
11
1.15219
21
0.332441
0
LINE
8
BLACK
6
CONTINUOUS
10
1.15219
20
0.332441
11
1.13152
21
0.332441
0
LINE
8
BLACK
6
CONTINUOUS
10
1.13152
20
0.332441
11
1.12775
21
0.33319
0
LINE
8
BLACK
6
CONTINUOUS
10
1.12775
20
0.33319
11
1.12456
21
0.335324
0
LINE
8
BLACK
6
CONTINUOUS
10
1.12456
20
0.335324
11
1.12242
21
0.338517
0
LINE
8
BLACK
6
CONTINUOUS
10
1.12242
20
0.338517
11
1.12167
21
0.342283
0
LINE
8
BLACK
6
CONTINUOUS
10
1.12167
20
0.342283
11
1.12167
21
0.377717
0
LINE
8
BLACK
6
CONTINUOUS
10
1.12167
20
0.377717
11
1.12242
21
0.381483
0
LINE
8
BLACK
6
CONTINUOUS
10
1.12242
20
0.381483
11
1.12456
21
0.384676
0
LINE
8
BLACK
6
CONTINUOUS
10
1.12456
20
0.384676
11
1.12775
21
0.38681
0
LINE
8
BLACK
6
CONTINUOUS
10
1.12775
20
0.38681
11
1.13152
21
0.387559
0
LINE
8
BLACK
6
CONTINUOUS
10
1.13152
20
0.387559
11
1.15219
21
0.387559
0
LINE
8
BLACK
6
CONTINUOUS
10
1.15219
20
0.387559
11
1.15595
21
0.38681
0
LINE
8
BLACK
6
CONTINUOUS
10
1.3792
20
0.3704
11
1.2808
21
0.3704
0
LINE
8
BLACK
6
CONTINUOUS
10
1.2808
20
0.3704
11
1.2808
21
0.4708
0
LINE
8
BLACK
6
CONTINUOUS
10
1.2808
20
0.4708
11
1.3792
21
0.4708
0
LINE
8
BLACK
6
CONTINUOUS
10
1.3792
20
0.4708
11
1.3792
21
0.3704
0
LINE
8
BLACK
6
CONTINUOUS
10
0.806483
20
0.434428
11
0.809676
21
0.432294
0
LINE
8
BLACK
6
CONTINUOUS
10
0.809676
20
0.432294
11
0.81181
21
0.429101
0
LINE
8
BLACK
6
CONTINUOUS
10
0.81181
20
0.429101
11
0.812559
21
0.425335
0
LINE
8
BLACK
6
CONTINUOUS
10
0.812559
20
0.425335
11
0.812559
21
0.404665
0
LINE
8
BLACK
6
CONTINUOUS
10
0.812559
20
0.404665
11
0.81181
21
0.400899
0
LINE
8
BLACK
6
CONTINUOUS
10
0.81181
20
0.400899
11
0.809676
21
0.397706
0
LINE
8
BLACK
6
CONTINUOUS
10
0.809676
20
0.397706
11
0.806483
21
0.395572
0
LINE
8
BLACK
6
CONTINUOUS
10
0.806483
20
0.395572
11
0.802717
21
0.394823
0
LINE
8
BLACK
6
CONTINUOUS
10
0.802717
20
0.394823
11
0.767283
21
0.394823
0
LINE
8
BLACK
6
CONTINUOUS
10
0.767283
20
0.394823
11
0.763517
21
0.395572
0
LINE
8
BLACK
6
CONTINUOUS
10
0.763517
20
0.395572
11
0.760324
21
0.397706
0
LINE
8
BLACK
6
CONTINUOUS
10
0.760324
20
0.397706
11
0.75819
21
0.400899
0
LINE
8
BLACK
6
CONTINUOUS
10
0.75819
20
0.400899
11
0.757441
21
0.404665
0
LINE
8
BLACK
6
CONTINUOUS
10
0.757441
20
0.404665
11
0.757441
21
0.425335
0
LINE
8
BLACK
6
CONTINUOUS
10
0.757441
20
0.425335
11
0.75819
21
0.429101
0
LINE
8
BLACK
6
CONTINUOUS
10
0.75819
20
0.429101
11
0.760324
21
0.432294
0
LINE
8
BLACK
6
CONTINUOUS
10
0.760324
20
0.432294
11
0.763517
21
0.434428
0
LINE
8
BLACK
6
CONTINUOUS
10
0.763517
20
0.434428
11
0.767283
21
0.435177
0
LINE
8
BLACK
6
CONTINUOUS
10
0.767283
20
0.435177
11
0.802717
21
0.435177
0
LINE
8
BLACK
6
CONTINUOUS
10
0.802717
20
0.435177
11
0.806483
21
0.434428
0
LINE
8
BLACK
6
CONTINUOUS
10
1.21148
20
0.489428
11
1.21468
21
0.487294
0
LINE
8
BLACK
6
CONTINUOUS
10
1.21468
20
0.487294
11
1.21681
21
0.484101
0
LINE
8
BLACK
6
CONTINUOUS
10
1.21681
20
0.484101
11
1.21756
21
0.480335
0
LINE
8
BLACK
6
CONTINUOUS
10
1.21756
20
0.480335
11
1.21756
21
0.459665
0
LINE
8
BLACK
6
CONTINUOUS
10
1.21756
20
0.459665
11
1.21681
21
0.455899
0
LINE
8
BLACK
6
CONTINUOUS
10
1.21681
20
0.455899
11
1.21468
21
0.452706
0
LINE
8
BLACK
6
CONTINUOUS
10
1.21468
20
0.452706
11
1.21148
21
0.450572
0
LINE
8
BLACK
6
CONTINUOUS
10
1.21148
20
0.450572
11
1.20772
21
0.449823
0
LINE
8
BLACK
6
CONTINUOUS
10
1.20772
20
0.449823
11
1.17228
21
0.449823
0
LINE
8
BLACK
6
CONTINUOUS
10
1.17228
20
0.449823
11
1.16852
21
0.450572
0
LINE
8
BLACK
6
CONTINUOUS
10
1.16852
20
0.450572
11
1.16532
21
0.452706
0
LINE
8
BLACK
6
CONTINUOUS
10
1.16532
20
0.452706
11
1.16319
21
0.455899
0
LINE
8
BLACK
6
CONTINUOUS
10
1.16319
20
0.455899
11
1.16244
21
0.459665
0
LINE
8
BLACK
6
CONTINUOUS
10
1.16244
20
0.459665
11
1.16244
21
0.480335
0
LINE
8
BLACK
6
CONTINUOUS
10
1.16244
20
0.480335
11
1.16319
21
0.484101
0
LINE
8
BLACK
6
CONTINUOUS
10
1.16319
20
0.484101
11
1.16532
21
0.487294
0
LINE
8
BLACK
6
CONTINUOUS
10
1.16532
20
0.487294
11
1.16852
21
0.489428
0
LINE
8
BLACK
6
CONTINUOUS
10
1.16852
20
0.489428
11
1.17228
21
0.490177
0
LINE
8
BLACK
6
CONTINUOUS
10
1.17228
20
0.490177
11
1.20772
21
0.490177
0
LINE
8
BLACK
6
CONTINUOUS
10
1.20772
20
0.490177
11
1.21148
21
0.489428
0
LINE
8
BLACK
6
CONTINUOUS
10
1.11247
20
0.488936
11
1.11566
21
0.486802
0
LINE
8
BLACK
6
CONTINUOUS
10
1.11566
20
0.486802
11
1.11779
21
0.483609
0
LINE
8
BLACK
6
CONTINUOUS
10
1.11779
20
0.483609
11
1.11854
21
0.479843
0
LINE
8
BLACK
6
CONTINUOUS
10
1.11854
20
0.479843
11
1.11854
21
0.460157
0
LINE
8
BLACK
6
CONTINUOUS
10
1.11854
20
0.460157
11
1.11779
21
0.456391
0
LINE
8
BLACK
6
CONTINUOUS
10
1.11779
20
0.456391
11
1.11566
21
0.453198
0
LINE
8
BLACK
6
CONTINUOUS
10
1.11566
20
0.453198
11
1.11247
21
0.451064
0
LINE
8
BLACK
6
CONTINUOUS
10
1.11247
20
0.451064
11
1.1087
21
0.450315
0
LINE
8
BLACK
6
CONTINUOUS
10
1.1087
20
0.450315
11
1.0713
21
0.450315
0
LINE
8
BLACK
6
CONTINUOUS
10
1.0713
20
0.450315
11
1.06753
21
0.451064
0
LINE
8
BLACK
6
CONTINUOUS
10
1.06753
20
0.451064
11
1.06434
21
0.453198
0
LINE
8
BLACK
6
CONTINUOUS
10
1.06434
20
0.453198
11
1.06221
21
0.456391
0
LINE
8
BLACK
6
CONTINUOUS
10
1.06221
20
0.456391
11
1.06146
21
0.460157
0
LINE
8
BLACK
6
CONTINUOUS
10
1.06146
20
0.460157
11
1.06146
21
0.479843
0
LINE
8
BLACK
6
CONTINUOUS
10
1.06146
20
0.479843
11
1.06221
21
0.483609
0
LINE
8
BLACK
6
CONTINUOUS
10
1.06221
20
0.483609
11
1.06434
21
0.486802
0
LINE
8
BLACK
6
CONTINUOUS
10
1.06434
20
0.486802
11
1.06753
21
0.488936
0
LINE
8
BLACK
6
CONTINUOUS
10
1.06753
20
0.488936
11
1.0713
21
0.489685
0
LINE
8
BLACK
6
CONTINUOUS
10
1.0713
20
0.489685
11
1.1087
21
0.489685
0
LINE
8
BLACK
6
CONTINUOUS
10
1.1087
20
0.489685
11
1.11247
21
0.488936
0
LINE
8
BLACK
6
CONTINUOUS
10
0.993829
20
0.521039
11
0.995107
21
0.520185
0
LINE
8
BLACK
6
CONTINUOUS
10
0.995107
20
0.520185
11
0.99596
21
0.518908
0
LINE
8
BLACK
6
CONTINUOUS
10
0.99596
20
0.518908
11
0.99626
21
0.517402
0
LINE
8
BLACK
6
CONTINUOUS
10
0.99626
20
0.517402
11
0.99626
21
0.467205
0
LINE
8
BLACK
6
CONTINUOUS
10
0.99626
20
0.467205
11
0.99596
21
0.465698
0
LINE
8
BLACK
6
CONTINUOUS
10
0.99596
20
0.465698
11
0.995107
21
0.464421
0
LINE
8
BLACK
6
CONTINUOUS
10
0.995107
20
0.464421
11
0.993829
21
0.463567
0
LINE
8
BLACK
6
CONTINUOUS
10
0.993829
20
0.463567
11
0.992323
21
0.463268
0
LINE
8
BLACK
6
CONTINUOUS
10
0.992323
20
0.463268
11
0.984449
21
0.463268
0
LINE
8
BLACK
6
CONTINUOUS
10
0.984449
20
0.463268
11
0.982942
21
0.463567
0
LINE
8
BLACK
6
CONTINUOUS
10
0.982942
20
0.463567
11
0.981665
21
0.464421
0
LINE
8
BLACK
6
CONTINUOUS
10
0.981665
20
0.464421
11
0.980811
21
0.465698
0
LINE
8
BLACK
6
CONTINUOUS
10
0.980811
20
0.465698
11
0.980512
21
0.467205
0
LINE
8
BLACK
6
CONTINUOUS
10
0.980512
20
0.467205
11
0.980512
21
0.517402
0
LINE
8
BLACK
6
CONTINUOUS
10
0.980512
20
0.517402
11
0.980811
21
0.518908
0
LINE
8
BLACK
6
CONTINUOUS
10
0.980811
20
0.518908
11
0.981665
21
0.520185
0
LINE
8
BLACK
6
CONTINUOUS
10
0.981665
20
0.520185
11
0.982942
21
0.521039
0
LINE
8
BLACK
6
CONTINUOUS
10
0.982942
20
0.521039
11
0.984449
21
0.521339
0
LINE
8
BLACK
6
CONTINUOUS
10
0.984449
20
0.521339
11
0.992323
21
0.521339
0
LINE
8
BLACK
6
CONTINUOUS
10
0.992323
20
0.521339
11
0.993829
21
0.521039
0
LINE
8
BLACK
6
CONTINUOUS
10
0.968239
20
0.521039
11
0.969516
21
0.520185
0
LINE
8
BLACK
6
CONTINUOUS
10
0.969516
20
0.520185
11
0.97037
21
0.518908
0
LINE
8
BLACK
6
CONTINUOUS
10
0.97037
20
0.518908
11
0.970669
21
0.517402
0
LINE
8
BLACK
6
CONTINUOUS
10
0.970669
20
0.517402
11
0.970669
21
0.467205
0
LINE
8
BLACK
6
CONTINUOUS
10
0.970669
20
0.467205
11
0.97037
21
0.465698
0
LINE
8
BLACK
6
CONTINUOUS
10
0.97037
20
0.465698
11
0.969516
21
0.464421
0
LINE
8
BLACK
6
CONTINUOUS
10
0.969516
20
0.464421
11
0.968239
21
0.463567
0
LINE
8
BLACK
6
CONTINUOUS
10
0.968239
20
0.463567
11
0.966732
21
0.463268
0
LINE
8
BLACK
6
CONTINUOUS
10
0.966732
20
0.463268
11
0.958858
21
0.463268
0
LINE
8
BLACK
6
CONTINUOUS
10
0.958858
20
0.463268
11
0.957352
21
0.463567
0
LINE
8
BLACK
6
CONTINUOUS
10
0.957352
20
0.463567
11
0.956074
21
0.464421
0
LINE
8
BLACK
6
CONTINUOUS
10
0.956074
20
0.464421
11
0.955221
21
0.465698
0
LINE
8
BLACK
6
CONTINUOUS
10
0.955221
20
0.465698
11
0.954921
21
0.467205
0
LINE
8
BLACK
6
CONTINUOUS
10
0.954921
20
0.467205
11
0.954921
21
0.517402
0
LINE
8
BLACK
6
CONTINUOUS
10
0.954921
20
0.517402
11
0.955221
21
0.518908
0
LINE
8
BLACK
6
CONTINUOUS
10
0.955221
20
0.518908
11
0.956074
21
0.520185
0
LINE
8
BLACK
6
CONTINUOUS
10
0.956074
20
0.520185
11
0.957352
21
0.521039
0
LINE
8
BLACK
6
CONTINUOUS
10
0.957352
20
0.521039
11
0.958858
21
0.521339
0
LINE
8
BLACK
6
CONTINUOUS
10
0.958858
20
0.521339
11
0.966732
21
0.521339
0
LINE
8
BLACK
6
CONTINUOUS
10
0.966732
20
0.521339
11
0.968239
21
0.521039
0
LINE
8
BLACK
6
CONTINUOUS
10
0.942648
20
0.521039
11
0.943926
21
0.520185
0
LINE
8
BLACK
6
CONTINUOUS
10
0.943926
20
0.520185
11
0.944779
21
0.518908
0
LINE
8
BLACK
6
CONTINUOUS
10
0.944779
20
0.518908
11
0.945079
21
0.517402
0
LINE
8
BLACK
6
CONTINUOUS
10
0.945079
20
0.517402
11
0.945079
21
0.467205
0
LINE
8
BLACK
6
CONTINUOUS
10
0.945079
20
0.467205
11
0.944779
21
0.465698
0
LINE
8
BLACK
6
CONTINUOUS
10
0.944779
20
0.465698
11
0.943926
21
0.464421
0
LINE
8
BLACK
6
CONTINUOUS
10
0.943926
20
0.464421
11
0.942648
21
0.463567
0
LINE
8
BLACK
6
CONTINUOUS
10
0.942648
20
0.463567
11
0.941142
21
0.463268
0
LINE
8
BLACK
6
CONTINUOUS
10
0.941142
20
0.463268
11
0.933268
21
0.463268
0
LINE
8
BLACK
6
CONTINUOUS
10
0.933268
20
0.463268
11
0.931761
21
0.463567
0
LINE
8
BLACK
6
CONTINUOUS
10
0.931761
20
0.463567
11
0.930484
21
0.464421
0
LINE
8
BLACK
6
CONTINUOUS
10
0.930484
20
0.464421
11
0.92963
21
0.465698
0
LINE
8
BLACK
6
CONTINUOUS
10
0.92963
20
0.465698
11
0.929331
21
0.467205
0
LINE
8
BLACK
6
CONTINUOUS
10
0.929331
20
0.467205
11
0.929331
21
0.517402
0
LINE
8
BLACK
6
CONTINUOUS
10
0.929331
20
0.517402
11
0.92963
21
0.518908
0
LINE
8
BLACK
6
CONTINUOUS
10
0.92963
20
0.518908
11
0.930484
21
0.520185
0
LINE
8
BLACK
6
CONTINUOUS
10
0.930484
20
0.520185
11
0.931761
21
0.521039
0
LINE
8
BLACK
6
CONTINUOUS
10
0.931761
20
0.521039
11
0.933268
21
0.521339
0
LINE
8
BLACK
6
CONTINUOUS
10
0.933268
20
0.521339
11
0.941142
21
0.521339
0
LINE
8
BLACK
6
CONTINUOUS
10
0.941142
20
0.521339
11
0.942648
21
0.521039
0
LINE
8
BLACK
6
CONTINUOUS
10
0.917058
20
0.521039
11
0.918335
21
0.520185
0
LINE
8
BLACK
6
CONTINUOUS
10
0.918335
20
0.520185
11
0.919189
21
0.518908
0
LINE
8
BLACK
6
CONTINUOUS
10
0.919189
20
0.518908
11
0.919488
21
0.517402
0
LINE
8
BLACK
6
CONTINUOUS
10
0.919488
20
0.517402
11
0.919488
21
0.467205
0
LINE
8
BLACK
6
CONTINUOUS
10
0.919488
20
0.467205
11
0.919189
21
0.465698
0
LINE
8
BLACK
6
CONTINUOUS
10
0.919189
20
0.465698
11
0.918335
21
0.464421
0
LINE
8
BLACK
6
CONTINUOUS
10
0.918335
20
0.464421
11
0.917058
21
0.463567
0
LINE
8
BLACK
6
CONTINUOUS
10
0.917058
20
0.463567
11
0.915551
21
0.463268
0
LINE
8
BLACK
6
CONTINUOUS
10
0.915551
20
0.463268
11
0.907677
21
0.463268
0
LINE
8
BLACK
6
CONTINUOUS
10
0.907677
20
0.463268
11
0.906171
21
0.463567
0
LINE
8
BLACK
6
CONTINUOUS
10
0.906171
20
0.463567
11
0.904893
21
0.464421
0
LINE
8
BLACK
6
CONTINUOUS
10
0.904893
20
0.464421
11
0.90404
21
0.465698
0
LINE
8
BLACK
6
CONTINUOUS
10
0.90404
20
0.465698
11
0.90374
21
0.467205
0
LINE
8
BLACK
6
CONTINUOUS
10
0.90374
20
0.467205
11
0.90374
21
0.517402
0
LINE
8
BLACK
6
CONTINUOUS
10
0.90374
20
0.517402
11
0.90404
21
0.518908
0
LINE
8
BLACK
6
CONTINUOUS
10
0.90404
20
0.518908
11
0.904893
21
0.520185
0
LINE
8
BLACK
6
CONTINUOUS
10
0.904893
20
0.520185
11
0.906171
21
0.521039
0
LINE
8
BLACK
6
CONTINUOUS
10
0.906171
20
0.521039
11
0.907677
21
0.521339
0
LINE
8
BLACK
6
CONTINUOUS
10
0.907677
20
0.521339
11
0.915551
21
0.521339
0
LINE
8
BLACK
6
CONTINUOUS
10
0.915551
20
0.521339
11
0.917058
21
0.521039
0
LINE
8
BLACK
6
CONTINUOUS
10
0.806483
20
0.506278
11
0.809676
21
0.504145
0
LINE
8
BLACK
6
CONTINUOUS
10
0.809676
20
0.504145
11
0.81181
21
0.500952
0
LINE
8
BLACK
6
CONTINUOUS
10
0.81181
20
0.500952
11
0.812559
21
0.497185
0
LINE
8
BLACK
6
CONTINUOUS
10
0.812559
20
0.497185
11
0.812559
21
0.476516
0
LINE
8
BLACK
6
CONTINUOUS
10
0.812559
20
0.476516
11
0.81181
21
0.472749
0
LINE
8
BLACK
6
CONTINUOUS
10
0.81181
20
0.472749
11
0.809676
21
0.469556
0
LINE
8
BLACK
6
CONTINUOUS
10
0.809676
20
0.469556
11
0.806483
21
0.467422
0
LINE
8
BLACK
6
CONTINUOUS
10
0.806483
20
0.467422
11
0.802717
21
0.466673
0
LINE
8
BLACK
6
CONTINUOUS
10
0.802717
20
0.466673
11
0.767283
21
0.466673
0
LINE
8
BLACK
6
CONTINUOUS
10
0.767283
20
0.466673
11
0.763517
21
0.467422
0
LINE
8
BLACK
6
CONTINUOUS
10
0.763517
20
0.467422
11
0.760324
21
0.469556
0
LINE
8
BLACK
6
CONTINUOUS
10
0.760324
20
0.469556
11
0.75819
21
0.472749
0
LINE
8
BLACK
6
CONTINUOUS
10
0.75819
20
0.472749
11
0.757441
21
0.476516
0
LINE
8
BLACK
6
CONTINUOUS
10
0.757441
20
0.476516
11
0.757441
21
0.497185
0
LINE
8
BLACK
6
CONTINUOUS
10
0.757441
20
0.497185
11
0.75819
21
0.500952
0
LINE
8
BLACK
6
CONTINUOUS
10
0.75819
20
0.500952
11
0.760324
21
0.504145
0
LINE
8
BLACK
6
CONTINUOUS
10
0.760324
20
0.504145
11
0.763517
21
0.506278
0
LINE
8
BLACK
6
CONTINUOUS
10
0.763517
20
0.506278
11
0.767283
21
0.507028
0
LINE
8
BLACK
6
CONTINUOUS
10
0.767283
20
0.507028
11
0.802717
21
0.507028
0
LINE
8
BLACK
6
CONTINUOUS
10
0.802717
20
0.507028
11
0.806483
21
0.506278
0
LINE
8
BLACK
6
CONTINUOUS
10
1.21148
20
0.561278
11
1.21468
21
0.559145
0
LINE
8
BLACK
6
CONTINUOUS
10
1.21468
20
0.559145
11
1.21681
21
0.555952
0
LINE
8
BLACK
6
CONTINUOUS
10
1.21681
20
0.555952
11
1.21756
21
0.552185
0
LINE
8
BLACK
6
CONTINUOUS
10
1.21756
20
0.552185
11
1.21756
21
0.531516
0
LINE
8
BLACK
6
CONTINUOUS
10
1.21756
20
0.531516
11
1.21681
21
0.527749
0
LINE
8
BLACK
6
CONTINUOUS
10
1.21681
20
0.527749
11
1.21468
21
0.524556
0
LINE
8
BLACK
6
CONTINUOUS
10
1.21468
20
0.524556
11
1.21148
21
0.522422
0
LINE
8
BLACK
6
CONTINUOUS
10
1.21148
20
0.522422
11
1.20772
21
0.521673
0
LINE
8
BLACK
6
CONTINUOUS
10
1.20772
20
0.521673
11
1.17228
21
0.521673
0
LINE
8
BLACK
6
CONTINUOUS
10
1.17228
20
0.521673
11
1.16852
21
0.522422
0
LINE
8
BLACK
6
CONTINUOUS
10
1.16852
20
0.522422
11
1.16532
21
0.524556
0
LINE
8
BLACK
6
CONTINUOUS
10
1.16532
20
0.524556
11
1.16319
21
0.527749
0
LINE
8
BLACK
6
CONTINUOUS
10
1.16319
20
0.527749
11
1.16244
21
0.531516
0
LINE
8
BLACK
6
CONTINUOUS
10
1.16244
20
0.531516
11
1.16244
21
0.552185
0
LINE
8
BLACK
6
CONTINUOUS
10
1.16244
20
0.552185
11
1.16319
21
0.555952
0
LINE
8
BLACK
6
CONTINUOUS
10
1.16319
20
0.555952
11
1.16532
21
0.559145
0
LINE
8
BLACK
6
CONTINUOUS
10
1.16532
20
0.559145
11
1.16852
21
0.561278
0
LINE
8
BLACK
6
CONTINUOUS
10
1.16852
20
0.561278
11
1.17228
21
0.562028
0
LINE
8
BLACK
6
CONTINUOUS
10
1.17228
20
0.562028
11
1.20772
21
0.562028
0
LINE
8
BLACK
6
CONTINUOUS
10
1.20772
20
0.562028
11
1.21148
21
0.561278
0
LINE
8
BLACK
6
CONTINUOUS
10
1.11247
20
0.563739
11
1.11566
21
0.561605
0
LINE
8
BLACK
6
CONTINUOUS
10
1.11566
20
0.561605
11
1.11779
21
0.558412
0
LINE
8
BLACK
6
CONTINUOUS
10
1.11779
20
0.558412
11
1.11854
21
0.554646
0
LINE
8
BLACK
6
CONTINUOUS
10
1.11854
20
0.554646
11
1.11854
21
0.534961
0
LINE
8
BLACK
6
CONTINUOUS
10
1.11854
20
0.534961
11
1.11779
21
0.531194
0
LINE
8
BLACK
6
CONTINUOUS
10
1.11779
20
0.531194
11
1.11566
21
0.528001
0
LINE
8
BLACK
6
CONTINUOUS
10
1.11566
20
0.528001
11
1.11247
21
0.525867
0
LINE
8
BLACK
6
CONTINUOUS
10
1.11247
20
0.525867
11
1.1087
21
0.525118
0
LINE
8
BLACK
6
CONTINUOUS
10
1.1087
20
0.525118
11
1.0713
21
0.525118
0
LINE
8
BLACK
6
CONTINUOUS
10
1.0713
20
0.525118
11
1.06753
21
0.525867
0
LINE
8
BLACK
6
CONTINUOUS
10
1.06753
20
0.525867
11
1.06434
21
0.528001
0
LINE
8
BLACK
6
CONTINUOUS
10
1.06434
20
0.528001
11
1.06221
21
0.531194
0
LINE
8
BLACK
6
CONTINUOUS
10
1.06221
20
0.531194
11
1.06146
21
0.534961
0
LINE
8
BLACK
6
CONTINUOUS
10
1.06146
20
0.534961
11
1.06146
21
0.554646
0
LINE
8
BLACK
6
CONTINUOUS
10
1.06146
20
0.554646
11
1.06221
21
0.558412
0
LINE
8
BLACK
6
CONTINUOUS
10
1.06221
20
0.558412
11
1.06434
21
0.561605
0
LINE
8
BLACK
6
CONTINUOUS
10
1.06434
20
0.561605
11
1.06753
21
0.563739
0
LINE
8
BLACK
6
CONTINUOUS
10
1.06753
20
0.563739
11
1.0713
21
0.564488
0
LINE
8
BLACK
6
CONTINUOUS
10
1.0713
20
0.564488
11
1.1087
21
0.564488
0
LINE
8
BLACK
6
CONTINUOUS
10
1.1087
20
0.564488
11
1.11247
21
0.563739
0
LINE
8
BLACK
6
CONTINUOUS
10
1.3792
20
0.5692
11
1.2808
21
0.5692
0
LINE
8
BLACK
6
CONTINUOUS
10
1.2808
20
0.5692
11
1.2808
21
0.6696
0
LINE
8
BLACK
6
CONTINUOUS
10
1.2808
20
0.6696
11
1.3792
21
0.6696
0
LINE
8
BLACK
6
CONTINUOUS
10
1.3792
20
0.6696
11
1.3792
21
0.5692
0
LINE
8
BLACK
6
CONTINUOUS
10
0.751483
20
0.637578
11
0.754676
21
0.635444
0
LINE
8
BLACK
6
CONTINUOUS
10
0.754676
20
0.635444
11
0.75681
21
0.632251
0
LINE
8
BLACK
6
CONTINUOUS
10
0.75681
20
0.632251
11
0.757559
21
0.628484
0
LINE
8
BLACK
6
CONTINUOUS
10
0.757559
20
0.628484
11
0.757559
21
0.607815
0
LINE
8
BLACK
6
CONTINUOUS
10
0.757559
20
0.607815
11
0.75681
21
0.604048
0
LINE
8
BLACK
6
CONTINUOUS
10
0.75681
20
0.604048
11
0.754676
21
0.600855
0
LINE
8
BLACK
6
CONTINUOUS
10
0.754676
20
0.600855
11
0.751483
21
0.598722
0
LINE
8
BLACK
6
CONTINUOUS
10
0.751483
20
0.598722
11
0.747717
21
0.597972
0
LINE
8
BLACK
6
CONTINUOUS
10
0.747717
20
0.597972
11
0.712283
21
0.597972
0
LINE
8
BLACK
6
CONTINUOUS
10
0.712283
20
0.597972
11
0.708517
21
0.598722
0
LINE
8
BLACK
6
CONTINUOUS
10
0.708517
20
0.598722
11
0.705324
21
0.600855
0
LINE
8
BLACK
6
CONTINUOUS
10
0.705324
20
0.600855
11
0.70319
21
0.604048
0
LINE
8
BLACK
6
CONTINUOUS
10
0.70319
20
0.604048
11
0.702441
21
0.607815
0
LINE
8
BLACK
6
CONTINUOUS
10
0.702441
20
0.607815
11
0.702441
21
0.628484
0
LINE
8
BLACK
6
CONTINUOUS
10
0.702441
20
0.628484
11
0.70319
21
0.632251
0
LINE
8
BLACK
6
CONTINUOUS
10
0.70319
20
0.632251
11
0.705324
21
0.635444
0
LINE
8
BLACK
6
CONTINUOUS
10
0.705324
20
0.635444
11
0.708517
21
0.637578
0
LINE
8
BLACK
6
CONTINUOUS
10
0.708517
20
0.637578
11
0.712283
21
0.638327
0
LINE
8
BLACK
6
CONTINUOUS
10
0.712283
20
0.638327
11
0.747717
21
0.638327
0
LINE
8
BLACK
6
CONTINUOUS
10
0.747717
20
0.638327
11
0.751483
21
0.637578
0
LINE
8
BLACK
6
CONTINUOUS
10
1.20747
20
0.661534
11
1.21066
21
0.659401
0
LINE
8
BLACK
6
CONTINUOUS
10
1.21066
20
0.659401
11
1.21279
21
0.656208
0
LINE
8
BLACK
6
CONTINUOUS
10
1.21279
20
0.656208
11
1.21354
21
0.652441
0
LINE
8
BLACK
6
CONTINUOUS
10
1.21354
20
0.652441
11
1.21354
21
0.632756
0
LINE
8
BLACK
6
CONTINUOUS
10
1.21354
20
0.632756
11
1.21279
21
0.628989
0
LINE
8
BLACK
6
CONTINUOUS
10
1.21279
20
0.628989
11
1.21066
21
0.625796
0
LINE
8
BLACK
6
CONTINUOUS
10
1.21066
20
0.625796
11
1.20747
21
0.623663
0
LINE
8
BLACK
6
CONTINUOUS
10
1.20747
20
0.623663
11
1.2037
21
0.622913
0
LINE
8
BLACK
6
CONTINUOUS
10
1.2037
20
0.622913
11
1.1663
21
0.622913
0
LINE
8
BLACK
6
CONTINUOUS
10
1.1663
20
0.622913
11
1.16253
21
0.623663
0
LINE
8
BLACK
6
CONTINUOUS
10
1.16253
20
0.623663
11
1.15934
21
0.625796
0
LINE
8
BLACK
6
CONTINUOUS
10
1.15934
20
0.625796
11
1.15721
21
0.628989
0
LINE
8
BLACK
6
CONTINUOUS
10
1.15721
20
0.628989
11
1.15646
21
0.632756
0
LINE
8
BLACK
6
CONTINUOUS
10
1.15646
20
0.632756
11
1.15646
21
0.652441
0
LINE
8
BLACK
6
CONTINUOUS
10
1.15646
20
0.652441
11
1.15721
21
0.656208
0
LINE
8
BLACK
6
CONTINUOUS
10
1.15721
20
0.656208
11
1.15934
21
0.659401
0
LINE
8
BLACK
6
CONTINUOUS
10
1.15934
20
0.659401
11
1.16253
21
0.661534
0
LINE
8
BLACK
6
CONTINUOUS
10
1.16253
20
0.661534
11
1.1663
21
0.662283
0
LINE
8
BLACK
6
CONTINUOUS
10
1.1663
20
0.662283
11
1.2037
21
0.662283
0
LINE
8
BLACK
6
CONTINUOUS
10
1.2037
20
0.662283
11
1.20747
21
0.661534
0
LINE
8
BLACK
6
CONTINUOUS
10
1.11247
20
0.663936
11
1.11566
21
0.661802
0
LINE
8
BLACK
6
CONTINUOUS
10
1.11566
20
0.661802
11
1.11779
21
0.658609
0
LINE
8
BLACK
6
CONTINUOUS
10
1.11779
20
0.658609
11
1.11854
21
0.654843
0
LINE
8
BLACK
6
CONTINUOUS
10
1.11854
20
0.654843
11
1.11854
21
0.635157
0
LINE
8
BLACK
6
CONTINUOUS
10
1.11854
20
0.635157
11
1.11779
21
0.631391
0
LINE
8
BLACK
6
CONTINUOUS
10
1.11779
20
0.631391
11
1.11566
21
0.628198
0
LINE
8
BLACK
6
CONTINUOUS
10
1.11566
20
0.628198
11
1.11247
21
0.626064
0
LINE
8
BLACK
6
CONTINUOUS
10
1.11247
20
0.626064
11
1.1087
21
0.625315
0
LINE
8
BLACK
6
CONTINUOUS
10
1.1087
20
0.625315
11
1.0713
21
0.625315
0
LINE
8
BLACK
6
CONTINUOUS
10
1.0713
20
0.625315
11
1.06753
21
0.626064
0
LINE
8
BLACK
6
CONTINUOUS
10
1.06753
20
0.626064
11
1.06434
21
0.628198
0
LINE
8
BLACK
6
CONTINUOUS
10
1.06434
20
0.628198
11
1.06221
21
0.631391
0
LINE
8
BLACK
6
CONTINUOUS
10
1.06221
20
0.631391
11
1.06146
21
0.635157
0
LINE
8
BLACK
6
CONTINUOUS
10
1.06146
20
0.635157
11
1.06146
21
0.654843
0
LINE
8
BLACK
6
CONTINUOUS
10
1.06146
20
0.654843
11
1.06221
21
0.658609
0
LINE
8
BLACK
6
CONTINUOUS
10
1.06221
20
0.658609
11
1.06434
21
0.661802
0
LINE
8
BLACK
6
CONTINUOUS
10
1.06434
20
0.661802
11
1.06753
21
0.663936
0
LINE
8
BLACK
6
CONTINUOUS
10
1.06753
20
0.663936
11
1.0713
21
0.664685
0
LINE
8
BLACK
6
CONTINUOUS
10
1.0713
20
0.664685
11
1.1087
21
0.664685
0
LINE
8
BLACK
6
CONTINUOUS
10
1.1087
20
0.664685
11
1.11247
21
0.663936
0
LINE
8
BLACK
6
CONTINUOUS
10
0.6392
20
0.6504
11
0.5408
21
0.6504
0
LINE
8
BLACK
6
CONTINUOUS
10
0.5408
20
0.6504
11
0.5408
21
0.7508
0
LINE
8
BLACK
6
CONTINUOUS
10
0.5408
20
0.7508
11
0.6392
21
0.7508
0
LINE
8
BLACK
6
CONTINUOUS
10
0.6392
20
0.7508
11
0.6392
21
0.6504
0
LINE
8
BLACK
6
CONTINUOUS
10
0.842467
20
0.691534
11
0.845661
21
0.689401
0
LINE
8
BLACK
6
CONTINUOUS
10
0.845661
20
0.689401
11
0.847794
21
0.686208
0
LINE
8
BLACK
6
CONTINUOUS
10
0.847794
20
0.686208
11
0.848543
21
0.682441
0
LINE
8
BLACK
6
CONTINUOUS
10
0.848543
20
0.682441
11
0.848543
21
0.662756
0
LINE
8
BLACK
6
CONTINUOUS
10
0.848543
20
0.662756
11
0.847794
21
0.658989
0
LINE
8
BLACK
6
CONTINUOUS
10
0.847794
20
0.658989
11
0.845661
21
0.655796
0
LINE
8
BLACK
6
CONTINUOUS
10
0.845661
20
0.655796
11
0.842467
21
0.653663
0
LINE
8
BLACK
6
CONTINUOUS
10
0.842467
20
0.653663
11
0.838701
21
0.652913
0
LINE
8
BLACK
6
CONTINUOUS
10
0.838701
20
0.652913
11
0.801299
21
0.652913
0
LINE
8
BLACK
6
CONTINUOUS
10
0.801299
20
0.652913
11
0.797533
21
0.653663
0
LINE
8
BLACK
6
CONTINUOUS
10
0.797533
20
0.653663
11
0.794339
21
0.655796
0
LINE
8
BLACK
6
CONTINUOUS
10
0.794339
20
0.655796
11
0.792206
21
0.658989
0
LINE
8
BLACK
6
CONTINUOUS
10
0.792206
20
0.658989
11
0.791457
21
0.662756
0
LINE
8
BLACK
6
CONTINUOUS
10
0.791457
20
0.662756
11
0.791457
21
0.682441
0
LINE
8
BLACK
6
CONTINUOUS
10
0.791457
20
0.682441
11
0.792206
21
0.686208
0
LINE
8
BLACK
6
CONTINUOUS
10
0.792206
20
0.686208
11
0.794339
21
0.689401
0
LINE
8
BLACK
6
CONTINUOUS
10
0.794339
20
0.689401
11
0.797533
21
0.691534
0
LINE
8
BLACK
6
CONTINUOUS
10
0.797533
20
0.691534
11
0.801299
21
0.692283
0
LINE
8
BLACK
6
CONTINUOUS
10
0.801299
20
0.692283
11
0.838701
21
0.692283
0
LINE
8
BLACK
6
CONTINUOUS
10
0.838701
20
0.692283
11
0.842467
21
0.691534
0
LINE
8
BLACK
6
CONTINUOUS
10
0.751483
20
0.709428
11
0.754676
21
0.707294
0
LINE
8
BLACK
6
CONTINUOUS
10
0.754676
20
0.707294
11
0.75681
21
0.704101
0
LINE
8
BLACK
6
CONTINUOUS
10
0.75681
20
0.704101
11
0.757559
21
0.700335
0
LINE
8
BLACK
6
CONTINUOUS
10
0.757559
20
0.700335
11
0.757559
21
0.679665
0
LINE
8
BLACK
6
CONTINUOUS
10
0.757559
20
0.679665
11
0.75681
21
0.675899
0
LINE
8
BLACK
6
CONTINUOUS
10
0.75681
20
0.675899
11
0.754676
21
0.672706
0
LINE
8
BLACK
6
CONTINUOUS
10
0.754676
20
0.672706
11
0.751483
21
0.670572
0
LINE
8
BLACK
6
CONTINUOUS
10
0.751483
20
0.670572
11
0.747717
21
0.669823
0
LINE
8
BLACK
6
CONTINUOUS
10
0.747717
20
0.669823
11
0.712283
21
0.669823
0
LINE
8
BLACK
6
CONTINUOUS
10
0.712283
20
0.669823
11
0.708517
21
0.670572
0
LINE
8
BLACK
6
CONTINUOUS
10
0.708517
20
0.670572
11
0.705324
21
0.672706
0
LINE
8
BLACK
6
CONTINUOUS
10
0.705324
20
0.672706
11
0.70319
21
0.675899
0
LINE
8
BLACK
6
CONTINUOUS
10
0.70319
20
0.675899
11
0.702441
21
0.679665
0
LINE
8
BLACK
6
CONTINUOUS
10
0.702441
20
0.679665
11
0.702441
21
0.700335
0
LINE
8
BLACK
6
CONTINUOUS
10
0.702441
20
0.700335
11
0.70319
21
0.704101
0
LINE
8
BLACK
6
CONTINUOUS
10
0.70319
20
0.704101
11
0.705324
21
0.707294
0
LINE
8
BLACK
6
CONTINUOUS
10
0.705324
20
0.707294
11
0.708517
21
0.709428
0
LINE
8
BLACK
6
CONTINUOUS
10
0.708517
20
0.709428
11
0.712283
21
0.710177
0
LINE
8
BLACK
6
CONTINUOUS
10
0.712283
20
0.710177
11
0.747717
21
0.710177
0
LINE
8
BLACK
6
CONTINUOUS
10
0.747717
20
0.710177
11
0.751483
21
0.709428
0
LINE
8
BLACK
6
CONTINUOUS
10
0.993829
20
0.746433
11
0.995107
21
0.745579
0
LINE
8
BLACK
6
CONTINUOUS
10
0.995107
20
0.745579
11
0.99596
21
0.744302
0
LINE
8
BLACK
6
CONTINUOUS
10
0.99596
20
0.744302
11
0.99626
21
0.742795
0
LINE
8
BLACK
6
CONTINUOUS
10
0.99626
20
0.742795
11
0.99626
21
0.692598
0
LINE
8
BLACK
6
CONTINUOUS
10
0.99626
20
0.692598
11
0.99596
21
0.691092
0
LINE
8
BLACK
6
CONTINUOUS
10
0.99596
20
0.691092
11
0.995107
21
0.689815
0
LINE
8
BLACK
6
CONTINUOUS
10
0.995107
20
0.689815
11
0.993829
21
0.688961
0
LINE
8
BLACK
6
CONTINUOUS
10
0.993829
20
0.688961
11
0.992323
21
0.688661
0
LINE
8
BLACK
6
CONTINUOUS
10
0.992323
20
0.688661
11
0.984449
21
0.688661
0
LINE
8
BLACK
6
CONTINUOUS
10
0.984449
20
0.688661
11
0.982942
21
0.688961
0
LINE
8
BLACK
6
CONTINUOUS
10
0.982942
20
0.688961
11
0.981665
21
0.689815
0
LINE
8
BLACK
6
CONTINUOUS
10
0.981665
20
0.689815
11
0.980811
21
0.691092
0
LINE
8
BLACK
6
CONTINUOUS
10
0.980811
20
0.691092
11
0.980512
21
0.692598
0
LINE
8
BLACK
6
CONTINUOUS
10
0.980512
20
0.692598
11
0.980512
21
0.742795
0
LINE
8
BLACK
6
CONTINUOUS
10
0.980512
20
0.742795
11
0.980811
21
0.744302
0
LINE
8
BLACK
6
CONTINUOUS
10
0.980811
20
0.744302
11
0.981665
21
0.745579
0
LINE
8
BLACK
6
CONTINUOUS
10
0.981665
20
0.745579
11
0.982942
21
0.746433
0
LINE
8
BLACK
6
CONTINUOUS
10
0.982942
20
0.746433
11
0.984449
21
0.746732
0
LINE
8
BLACK
6
CONTINUOUS
10
0.984449
20
0.746732
11
0.992323
21
0.746732
0
LINE
8
BLACK
6
CONTINUOUS
10
0.992323
20
0.746732
11
0.993829
21
0.746433
0
LINE
8
BLACK
6
CONTINUOUS
10
0.968239
20
0.746433
11
0.969516
21
0.745579
0
LINE
8
BLACK
6
CONTINUOUS
10
0.969516
20
0.745579
11
0.97037
21
0.744302
0
LINE
8
BLACK
6
CONTINUOUS
10
0.97037
20
0.744302
11
0.970669
21
0.742795
0
LINE
8
BLACK
6
CONTINUOUS
10
0.970669
20
0.742795
11
0.970669
21
0.692598
0
LINE
8
BLACK
6
CONTINUOUS
10
0.970669
20
0.692598
11
0.97037
21
0.691092
0
LINE
8
BLACK
6
CONTINUOUS
10
0.97037
20
0.691092
11
0.969516
21
0.689815
0
LINE
8
BLACK
6
CONTINUOUS
10
0.969516
20
0.689815
11
0.968239
21
0.688961
0
LINE
8
BLACK
6
CONTINUOUS
10
0.968239
20
0.688961
11
0.966732
21
0.688661
0
LINE
8
BLACK
6
CONTINUOUS
10
0.966732
20
0.688661
11
0.958858
21
0.688661
0
LINE
8
BLACK
6
CONTINUOUS
10
0.958858
20
0.688661
11
0.957352
21
0.688961
0
LINE
8
BLACK
6
CONTINUOUS
10
0.957352
20
0.688961
11
0.956074
21
0.689815
0
LINE
8
BLACK
6
CONTINUOUS
10
0.956074
20
0.689815
11
0.955221
21
0.691092
0
LINE
8
BLACK
6
CONTINUOUS
10
0.955221
20
0.691092
11
0.954921
21
0.692598
0
LINE
8
BLACK
6
CONTINUOUS
10
0.954921
20
0.692598
11
0.954921
21
0.742795
0
LINE
8
BLACK
6
CONTINUOUS
10
0.954921
20
0.742795
11
0.955221
21
0.744302
0
LINE
8
BLACK
6
CONTINUOUS
10
0.955221
20
0.744302
11
0.956074
21
0.745579
0
LINE
8
BLACK
6
CONTINUOUS
10
0.956074
20
0.745579
11
0.957352
21
0.746433
0
LINE
8
BLACK
6
CONTINUOUS
10
0.957352
20
0.746433
11
0.958858
21
0.746732
0
LINE
8
BLACK
6
CONTINUOUS
10
0.958858
20
0.746732
11
0.966732
21
0.746732
0
LINE
8
BLACK
6
CONTINUOUS
10
0.966732
20
0.746732
11
0.968239
21
0.746433
0
LINE
8
BLACK
6
CONTINUOUS
10
0.942648
20
0.746433
11
0.943926
21
0.745579
0
LINE
8
BLACK
6
CONTINUOUS
10
0.943926
20
0.745579
11
0.944779
21
0.744302
0
LINE
8
BLACK
6
CONTINUOUS
10
0.944779
20
0.744302
11
0.945079
21
0.742795
0
LINE
8
BLACK
6
CONTINUOUS
10
0.945079
20
0.742795
11
0.945079
21
0.692598
0
LINE
8
BLACK
6
CONTINUOUS
10
0.945079
20
0.692598
11
0.944779
21
0.691092
0
LINE
8
BLACK
6
CONTINUOUS
10
0.944779
20
0.691092
11
0.943926
21
0.689815
0
LINE
8
BLACK
6
CONTINUOUS
10
0.943926
20
0.689815
11
0.942648
21
0.688961
0
LINE
8
BLACK
6
CONTINUOUS
10
0.942648
20
0.688961
11
0.941142
21
0.688661
0
LINE
8
BLACK
6
CONTINUOUS
10
0.941142
20
0.688661
11
0.933268
21
0.688661
0
LINE
8
BLACK
6
CONTINUOUS
10
0.933268
20
0.688661
11
0.931761
21
0.688961
0
LINE
8
BLACK
6
CONTINUOUS
10
0.931761
20
0.688961
11
0.930484
21
0.689815
0
LINE
8
BLACK
6
CONTINUOUS
10
0.930484
20
0.689815
11
0.92963
21
0.691092
0
LINE
8
BLACK
6
CONTINUOUS
10
0.92963
20
0.691092
11
0.929331
21
0.692598
0
LINE
8
BLACK
6
CONTINUOUS
10
0.929331
20
0.692598
11
0.929331
21
0.742795
0
LINE
8
BLACK
6
CONTINUOUS
10
0.929331
20
0.742795
11
0.92963
21
0.744302
0
LINE
8
BLACK
6
CONTINUOUS
10
0.92963
20
0.744302
11
0.930484
21
0.745579
0
LINE
8
BLACK
6
CONTINUOUS
10
0.930484
20
0.745579
11
0.931761
21
0.746433
0
LINE
8
BLACK
6
CONTINUOUS
10
0.931761
20
0.746433
11
0.933268
21
0.746732
0
LINE
8
BLACK
6
CONTINUOUS
10
0.933268
20
0.746732
11
0.941142
21
0.746732
0
LINE
8
BLACK
6
CONTINUOUS
10
0.941142
20
0.746732
11
0.942648
21
0.746433
0
LINE
8
BLACK
6
CONTINUOUS
10
0.917058
20
0.746433
11
0.918335
21
0.745579
0
LINE
8
BLACK
6
CONTINUOUS
10
0.918335
20
0.745579
11
0.919189
21
0.744302
0
LINE
8
BLACK
6
CONTINUOUS
10
0.919189
20
0.744302
11
0.919488
21
0.742795
0
LINE
8
BLACK
6
CONTINUOUS
10
0.919488
20
0.742795
11
0.919488
21
0.692598
0
LINE
8
BLACK
6
CONTINUOUS
10
0.919488
20
0.692598
11
0.919189
21
0.691092
0
LINE
8
BLACK
6
CONTINUOUS
10
0.919189
20
0.691092
11
0.918335
21
0.689815
0
LINE
8
BLACK
6
CONTINUOUS
10
0.918335
20
0.689815
11
0.917058
21
0.688961
0
LINE
8
BLACK
6
CONTINUOUS
10
0.917058
20
0.688961
11
0.915551
21
0.688661
0
LINE
8
BLACK
6
CONTINUOUS
10
0.915551
20
0.688661
11
0.907677
21
0.688661
0
LINE
8
BLACK
6
CONTINUOUS
10
0.907677
20
0.688661
11
0.906171
21
0.688961
0
LINE
8
BLACK
6
CONTINUOUS
10
0.906171
20
0.688961
11
0.904893
21
0.689815
0
LINE
8
BLACK
6
CONTINUOUS
10
0.904893
20
0.689815
11
0.90404
21
0.691092
0
LINE
8
BLACK
6
CONTINUOUS
10
0.90404
20
0.691092
11
0.90374
21
0.692598
0
LINE
8
BLACK
6
CONTINUOUS
10
0.90374
20
0.692598
11
0.90374
21
0.742795
0
LINE
8
BLACK
6
CONTINUOUS
10
0.90374
20
0.742795
11
0.90404
21
0.744302
0
LINE
8
BLACK
6
CONTINUOUS
10
0.90404
20
0.744302
11
0.904893
21
0.745579
0
LINE
8
BLACK
6
CONTINUOUS
10
0.904893
20
0.745579
11
0.906171
21
0.746433
0
LINE
8
BLACK
6
CONTINUOUS
10
0.906171
20
0.746433
11
0.907677
21
0.746732
0
LINE
8
BLACK
6
CONTINUOUS
10
0.907677
20
0.746732
11
0.915551
21
0.746732
0
LINE
8
BLACK
6
CONTINUOUS
10
0.915551
20
0.746732
11
0.917058
21
0.746433
0
LINE
8
BLACK
6
CONTINUOUS
10
1.20747
20
0.736337
11
1.21066
21
0.734204
0
LINE
8
BLACK
6
CONTINUOUS
10
1.21066
20
0.734204
11
1.21279
21
0.731011
0
LINE
8
BLACK
6
CONTINUOUS
10
1.21279
20
0.731011
11
1.21354
21
0.727244
0
LINE
8
BLACK
6
CONTINUOUS
10
1.21354
20
0.727244
11
1.21354
21
0.707559
0
LINE
8
BLACK
6
CONTINUOUS
10
1.21354
20
0.707559
11
1.21279
21
0.703792
0
LINE
8
BLACK
6
CONTINUOUS
10
1.21279
20
0.703792
11
1.21066
21
0.700599
0
LINE
8
BLACK
6
CONTINUOUS
10
1.21066
20
0.700599
11
1.20747
21
0.698466
0
LINE
8
BLACK
6
CONTINUOUS
10
1.20747
20
0.698466
11
1.2037
21
0.697717
0
LINE
8
BLACK
6
CONTINUOUS
10
1.2037
20
0.697717
11
1.1663
21
0.697717
0
LINE
8
BLACK
6
CONTINUOUS
10
1.1663
20
0.697717
11
1.16253
21
0.698466
0
LINE
8
BLACK
6
CONTINUOUS
10
1.16253
20
0.698466
11
1.15934
21
0.700599
0
LINE
8
BLACK
6
CONTINUOUS
10
1.15934
20
0.700599
11
1.15721
21
0.703792
0
LINE
8
BLACK
6
CONTINUOUS
10
1.15721
20
0.703792
11
1.15646
21
0.707559
0
LINE
8
BLACK
6
CONTINUOUS
10
1.15646
20
0.707559
11
1.15646
21
0.727244
0
LINE
8
BLACK
6
CONTINUOUS
10
1.15646
20
0.727244
11
1.15721
21
0.731011
0
LINE
8
BLACK
6
CONTINUOUS
10
1.15721
20
0.731011
11
1.15934
21
0.734204
0
LINE
8
BLACK
6
CONTINUOUS
10
1.15934
20
0.734204
11
1.16253
21
0.736337
0
LINE
8
BLACK
6
CONTINUOUS
10
1.16253
20
0.736337
11
1.1663
21
0.737087
0
LINE
8
BLACK
6
CONTINUOUS
10
1.1663
20
0.737087
11
1.2037
21
0.737087
0
LINE
8
BLACK
6
CONTINUOUS
10
1.2037
20
0.737087
11
1.20747
21
0.736337
0
LINE
8
BLACK
6
CONTINUOUS
10
1.11247
20
0.738739
11
1.11566
21
0.736605
0
LINE
8
BLACK
6
CONTINUOUS
10
1.11566
20
0.736605
11
1.11779
21
0.733412
0
LINE
8
BLACK
6
CONTINUOUS
10
1.11779
20
0.733412
11
1.11854
21
0.729646
0
LINE
8
BLACK
6
CONTINUOUS
10
1.11854
20
0.729646
11
1.11854
21
0.709961
0
LINE
8
BLACK
6
CONTINUOUS
10
1.11854
20
0.709961
11
1.11779
21
0.706194
0
LINE
8
BLACK
6
CONTINUOUS
10
1.11779
20
0.706194
11
1.11566
21
0.703001
0
LINE
8
BLACK
6
CONTINUOUS
10
1.11566
20
0.703001
11
1.11247
21
0.700867
0
LINE
8
BLACK
6
CONTINUOUS
10
1.11247
20
0.700867
11
1.1087
21
0.700118
0
LINE
8
BLACK
6
CONTINUOUS
10
1.1087
20
0.700118
11
1.0713
21
0.700118
0
LINE
8
BLACK
6
CONTINUOUS
10
1.0713
20
0.700118
11
1.06753
21
0.700867
0
LINE
8
BLACK
6
CONTINUOUS
10
1.06753
20
0.700867
11
1.06434
21
0.703001
0
LINE
8
BLACK
6
CONTINUOUS
10
1.06434
20
0.703001
11
1.06221
21
0.706194
0
LINE
8
BLACK
6
CONTINUOUS
10
1.06221
20
0.706194
11
1.06146
21
0.709961
0
LINE
8
BLACK
6
CONTINUOUS
10
1.06146
20
0.709961
11
1.06146
21
0.729646
0
LINE
8
BLACK
6
CONTINUOUS
10
1.06146
20
0.729646
11
1.06221
21
0.733412
0
LINE
8
BLACK
6
CONTINUOUS
10
1.06221
20
0.733412
11
1.06434
21
0.736605
0
LINE
8
BLACK
6
CONTINUOUS
10
1.06434
20
0.736605
11
1.06753
21
0.738739
0
LINE
8
BLACK
6
CONTINUOUS
10
1.06753
20
0.738739
11
1.0713
21
0.739488
0
LINE
8
BLACK
6
CONTINUOUS
10
1.0713
20
0.739488
11
1.1087
21
0.739488
0
LINE
8
BLACK
6
CONTINUOUS
10
1.1087
20
0.739488
11
1.11247
21
0.738739
0
LINE
8
BLACK
6
CONTINUOUS
10
0.842467
20
0.766337
11
0.845661
21
0.764204
0
LINE
8
BLACK
6
CONTINUOUS
10
0.845661
20
0.764204
11
0.847794
21
0.761011
0
LINE
8
BLACK
6
CONTINUOUS
10
0.847794
20
0.761011
11
0.848543
21
0.757244
0
LINE
8
BLACK
6
CONTINUOUS
10
0.848543
20
0.757244
11
0.848543
21
0.737559
0
LINE
8
BLACK
6
CONTINUOUS
10
0.848543
20
0.737559
11
0.847794
21
0.733792
0
LINE
8
BLACK
6
CONTINUOUS
10
0.847794
20
0.733792
11
0.845661
21
0.730599
0
LINE
8
BLACK
6
CONTINUOUS
10
0.845661
20
0.730599
11
0.842467
21
0.728466
0
LINE
8
BLACK
6
CONTINUOUS
10
0.842467
20
0.728466
11
0.838701
21
0.727717
0
LINE
8
BLACK
6
CONTINUOUS
10
0.838701
20
0.727717
11
0.801299
21
0.727717
0
LINE
8
BLACK
6
CONTINUOUS
10
0.801299
20
0.727717
11
0.797533
21
0.728466
0
LINE
8
BLACK
6
CONTINUOUS
10
0.797533
20
0.728466
11
0.794339
21
0.730599
0
LINE
8
BLACK
6
CONTINUOUS
10
0.794339
20
0.730599
11
0.792206
21
0.733792
0
LINE
8
BLACK
6
CONTINUOUS
10
0.792206
20
0.733792
11
0.791457
21
0.737559
0
LINE
8
BLACK
6
CONTINUOUS
10
0.791457
20
0.737559
11
0.791457
21
0.757244
0
LINE
8
BLACK
6
CONTINUOUS
10
0.791457
20
0.757244
11
0.792206
21
0.761011
0
LINE
8
BLACK
6
CONTINUOUS
10
0.792206
20
0.761011
11
0.794339
21
0.764204
0
LINE
8
BLACK
6
CONTINUOUS
10
0.794339
20
0.764204
11
0.797533
21
0.766337
0
LINE
8
BLACK
6
CONTINUOUS
10
0.797533
20
0.766337
11
0.801299
21
0.767087
0
LINE
8
BLACK
6
CONTINUOUS
10
0.801299
20
0.767087
11
0.838701
21
0.767087
0
LINE
8
BLACK
6
CONTINUOUS
10
0.838701
20
0.767087
11
0.842467
21
0.766337
0
LINE
8
BLACK
6
CONTINUOUS
10
0.751483
20
0.788503
11
0.754676
21
0.786369
0
LINE
8
BLACK
6
CONTINUOUS
10
0.754676
20
0.786369
11
0.75681
21
0.783176
0
LINE
8
BLACK
6
CONTINUOUS
10
0.75681
20
0.783176
11
0.757559
21
0.779409
0
LINE
8
BLACK
6
CONTINUOUS
10
0.757559
20
0.779409
11
0.757559
21
0.75874
0
LINE
8
BLACK
6
CONTINUOUS
10
0.757559
20
0.75874
11
0.75681
21
0.754974
0
LINE
8
BLACK
6
CONTINUOUS
10
0.75681
20
0.754974
11
0.754676
21
0.75178
0
LINE
8
BLACK
6
CONTINUOUS
10
0.754676
20
0.75178
11
0.751483
21
0.749647
0
LINE
8
BLACK
6
CONTINUOUS
10
0.751483
20
0.749647
11
0.747717
21
0.748898
0
LINE
8
BLACK
6
CONTINUOUS
10
0.747717
20
0.748898
11
0.712283
21
0.748898
0
LINE
8
BLACK
6
CONTINUOUS
10
0.712283
20
0.748898
11
0.708517
21
0.749647
0
LINE
8
BLACK
6
CONTINUOUS
10
0.708517
20
0.749647
11
0.705324
21
0.75178
0
LINE
8
BLACK
6
CONTINUOUS
10
0.705324
20
0.75178
11
0.70319
21
0.754974
0
LINE
8
BLACK
6
CONTINUOUS
10
0.70319
20
0.754974
11
0.702441
21
0.75874
0
LINE
8
BLACK
6
CONTINUOUS
10
0.702441
20
0.75874
11
0.702441
21
0.779409
0
LINE
8
BLACK
6
CONTINUOUS
10
0.702441
20
0.779409
11
0.70319
21
0.783176
0
LINE
8
BLACK
6
CONTINUOUS
10
0.70319
20
0.783176
11
0.705324
21
0.786369
0
LINE
8
BLACK
6
CONTINUOUS
10
0.705324
20
0.786369
11
0.708517
21
0.788503
0
LINE
8
BLACK
6
CONTINUOUS
10
0.708517
20
0.788503
11
0.712283
21
0.789252
0
LINE
8
BLACK
6
CONTINUOUS
10
0.712283
20
0.789252
11
0.747717
21
0.789252
0
LINE
8
BLACK
6
CONTINUOUS
10
0.747717
20
0.789252
11
0.751483
21
0.788503
0
LINE
8
BLACK
6
CONTINUOUS
10
1.52795
20
0.749567
11
1.42953
21
0.749567
0
LINE
8
BLACK
6
CONTINUOUS
10
1.42953
20
0.749567
11
1.42953
21
0.820433
0
LINE
8
BLACK
6
CONTINUOUS
10
1.42953
20
0.820433
11
1.52795
21
0.820433
0
LINE
8
BLACK
6
CONTINUOUS
10
1.52795
20
0.820433
11
1.52795
21
0.749567
0
LINE
8
BLACK
6
CONTINUOUS
10
1.37047
20
0.749567
11
1.27205
21
0.749567
0
LINE
8
BLACK
6
CONTINUOUS
10
1.27205
20
0.749567
11
1.27205
21
0.820433
0
LINE
8
BLACK
6
CONTINUOUS
10
1.27205
20
0.820433
11
1.37047
21
0.820433
0
LINE
8
BLACK
6
CONTINUOUS
10
1.37047
20
0.820433
11
1.37047
21
0.749567
0
LINE
8
BLACK
6
CONTINUOUS
10
0.751483
20
0.860353
11
0.754676
21
0.85822
0
LINE
8
BLACK
6
CONTINUOUS
10
0.754676
20
0.85822
11
0.75681
21
0.855026
0
LINE
8
BLACK
6
CONTINUOUS
10
0.75681
20
0.855026
11
0.757559
21
0.85126
0
LINE
8
BLACK
6
CONTINUOUS
10
0.757559
20
0.85126
11
0.757559
21
0.830591
0
LINE
8
BLACK
6
CONTINUOUS
10
0.757559
20
0.830591
11
0.75681
21
0.826824
0
LINE
8
BLACK
6
CONTINUOUS
10
0.75681
20
0.826824
11
0.754676
21
0.823631
0
LINE
8
BLACK
6
CONTINUOUS
10
0.754676
20
0.823631
11
0.751483
21
0.821497
0
LINE
8
BLACK
6
CONTINUOUS
10
0.751483
20
0.821497
11
0.747717
21
0.820748
0
LINE
8
BLACK
6
CONTINUOUS
10
0.747717
20
0.820748
11
0.712283
21
0.820748
0
LINE
8
BLACK
6
CONTINUOUS
10
0.712283
20
0.820748
11
0.708517
21
0.821497
0
LINE
8
BLACK
6
CONTINUOUS
10
0.708517
20
0.821497
11
0.705324
21
0.823631
0
LINE
8
BLACK
6
CONTINUOUS
10
0.705324
20
0.823631
11
0.70319
21
0.826824
0
LINE
8
BLACK
6
CONTINUOUS
10
0.70319
20
0.826824
11
0.702441
21
0.830591
0
LINE
8
BLACK
6
CONTINUOUS
10
0.702441
20
0.830591
11
0.702441
21
0.85126
0
LINE
8
BLACK
6
CONTINUOUS
10
0.702441
20
0.85126
11
0.70319
21
0.855026
0
LINE
8
BLACK
6
CONTINUOUS
10
0.70319
20
0.855026
11
0.705324
21
0.85822
0
LINE
8
BLACK
6
CONTINUOUS
10
0.705324
20
0.85822
11
0.708517
21
0.860353
0
LINE
8
BLACK
6
CONTINUOUS
10
0.708517
20
0.860353
11
0.712283
21
0.861102
0
LINE
8
BLACK
6
CONTINUOUS
10
0.712283
20
0.861102
11
0.747717
21
0.861102
0
LINE
8
BLACK
6
CONTINUOUS
10
0.747717
20
0.861102
11
0.751483
21
0.860353
0
LINE
8
BLACK
6
CONTINUOUS
10
1.22337
20
0.886396
11
1.22657
21
0.884263
0
LINE
8
BLACK
6
CONTINUOUS
10
1.22657
20
0.884263
11
1.2287
21
0.88107
0
LINE
8
BLACK
6
CONTINUOUS
10
1.2287
20
0.88107
11
1.22945
21
0.877303
0
LINE
8
BLACK
6
CONTINUOUS
10
1.22945
20
0.877303
11
1.22945
21
0.852697
0
LINE
8
BLACK
6
CONTINUOUS
10
1.22945
20
0.852697
11
1.2287
21
0.84893
0
LINE
8
BLACK
6
CONTINUOUS
10
1.2287
20
0.84893
11
1.22657
21
0.845737
0
LINE
8
BLACK
6
CONTINUOUS
10
1.22657
20
0.845737
11
1.22337
21
0.843604
0
LINE
8
BLACK
6
CONTINUOUS
10
1.22337
20
0.843604
11
1.21961
21
0.842854
0
LINE
8
BLACK
6
CONTINUOUS
10
1.21961
20
0.842854
11
1.17039
21
0.842854
0
LINE
8
BLACK
6
CONTINUOUS
10
1.17039
20
0.842854
11
1.16663
21
0.843604
0
LINE
8
BLACK
6
CONTINUOUS
10
1.16663
20
0.843604
11
1.16343
21
0.845737
0
LINE
8
BLACK
6
CONTINUOUS
10
1.16343
20
0.845737
11
1.1613
21
0.84893
0
LINE
8
BLACK
6
CONTINUOUS
10
1.1613
20
0.84893
11
1.16055
21
0.852697
0
LINE
8
BLACK
6
CONTINUOUS
10
1.16055
20
0.852697
11
1.16055
21
0.877303
0
LINE
8
BLACK
6
CONTINUOUS
10
1.16055
20
0.877303
11
1.1613
21
0.88107
0
LINE
8
BLACK
6
CONTINUOUS
10
1.1613
20
0.88107
11
1.16343
21
0.884263
0
LINE
8
BLACK
6
CONTINUOUS
10
1.16343
20
0.884263
11
1.16663
21
0.886396
0
LINE
8
BLACK
6
CONTINUOUS
10
1.16663
20
0.886396
11
1.17039
21
0.887146
0
LINE
8
BLACK
6
CONTINUOUS
10
1.17039
20
0.887146
11
1.21961
21
0.887146
0
LINE
8
BLACK
6
CONTINUOUS
10
1.21961
20
0.887146
11
1.22337
21
0.886396
0
LINE
8
BLACK
6
CONTINUOUS
10
0.6392
20
0.8492
11
0.5408
21
0.8492
0
LINE
8
BLACK
6
CONTINUOUS
10
0.5408
20
0.8492
11
0.5408
21
0.9496
0
LINE
8
BLACK
6
CONTINUOUS
10
0.5408
20
0.9496
11
0.6392
21
0.9496
0
LINE
8
BLACK
6
CONTINUOUS
10
0.6392
20
0.9496
11
0.6392
21
0.8492
0
LINE
8
BLACK
6
CONTINUOUS
10
0.945472
20
0.869567
11
0.847047
21
0.869567
0
LINE
8
BLACK
6
CONTINUOUS
10
0.847047
20
0.869567
11
0.847047
21
0.940433
0
LINE
8
BLACK
6
CONTINUOUS
10
0.847047
20
0.940433
11
0.945472
21
0.940433
0
LINE
8
BLACK
6
CONTINUOUS
10
0.945472
20
0.940433
11
0.945472
21
0.869567
0
LINE
8
BLACK
6
CONTINUOUS
10
1.10295
20
0.869567
11
1.00453
21
0.869567
0
LINE
8
BLACK
6
CONTINUOUS
10
1.00453
20
0.869567
11
1.00453
21
0.940433
0
LINE
8
BLACK
6
CONTINUOUS
10
1.00453
20
0.940433
11
1.10295
21
0.940433
0
LINE
8
BLACK
6
CONTINUOUS
10
1.10295
20
0.940433
11
1.10295
21
0.869567
0
LINE
8
BLACK
6
CONTINUOUS
10
1.22337
20
1.00155
11
1.22657
21
0.99942
0
LINE
8
BLACK
6
CONTINUOUS
10
1.22657
20
0.99942
11
1.2287
21
0.996227
0
LINE
8
BLACK
6
CONTINUOUS
10
1.2287
20
0.996227
11
1.22945
21
0.992461
0
LINE
8
BLACK
6
CONTINUOUS
10
1.22945
20
0.992461
11
1.22945
21
0.967854
0
LINE
8
BLACK
6
CONTINUOUS
10
1.22945
20
0.967854
11
1.2287
21
0.964088
0
LINE
8
BLACK
6
CONTINUOUS
10
1.2287
20
0.964088
11
1.22657
21
0.960895
0
LINE
8
BLACK
6
CONTINUOUS
10
1.22657
20
0.960895
11
1.22337
21
0.958761
0
LINE
8
BLACK
6
CONTINUOUS
10
1.22337
20
0.958761
11
1.21961
21
0.958012
0
LINE
8
BLACK
6
CONTINUOUS
10
1.21961
20
0.958012
11
1.17039
21
0.958012
0
LINE
8
BLACK
6
CONTINUOUS
10
1.17039
20
0.958012
11
1.16663
21
0.958761
0
LINE
8
BLACK
6
CONTINUOUS
10
1.16663
20
0.958761
11
1.16343
21
0.960895
0
LINE
8
BLACK
6
CONTINUOUS
10
1.16343
20
0.960895
11
1.1613
21
0.964088
0
LINE
8
BLACK
6
CONTINUOUS
10
1.1613
20
0.964088
11
1.16055
21
0.967854
0
LINE
8
BLACK
6
CONTINUOUS
10
1.16055
20
0.967854
11
1.16055
21
0.992461
0
LINE
8
BLACK
6
CONTINUOUS
10
1.16055
20
0.992461
11
1.1613
21
0.996227
0
LINE
8
BLACK
6
CONTINUOUS
10
1.1613
20
0.996227
11
1.16343
21
0.99942
0
LINE
8
BLACK
6
CONTINUOUS
10
1.16343
20
0.99942
11
1.16663
21
1.00155
0
LINE
8
BLACK
6
CONTINUOUS
10
1.16663
20
1.00155
11
1.17039
21
1.0023
0
LINE
8
BLACK
6
CONTINUOUS
10
1.17039
20
1.0023
11
1.21961
21
1.0023
0
LINE
8
BLACK
6
CONTINUOUS
10
1.21961
20
1.0023
11
1.22337
21
1.00155
0
LINE
8
BLACK
6
CONTINUOUS
10
1.0914
20
1.0958
11
0.991
21
1.0958
0
LINE
8
BLACK
6
CONTINUOUS
10
0.991
20
1.0958
11
0.991
21
1.1942
0
LINE
8
BLACK
6
CONTINUOUS
10
0.991
20
1.1942
11
1.0914
21
1.1942
0
LINE
8
BLACK
6
CONTINUOUS
10
1.0914
20
1.1942
11
1.0914
21
1.0958
0
LINE
8
BLACK
6
CONTINUOUS
10
1.2902
20
1.0958
11
1.1898
21
1.0958
0
LINE
8
BLACK
6
CONTINUOUS
10
1.1898
20
1.0958
11
1.1898
21
1.1942
0
LINE
8
BLACK
6
CONTINUOUS
10
1.1898
20
1.1942
11
1.2902
21
1.1942
0
LINE
8
BLACK
6
CONTINUOUS
10
1.2902
20
1.1942
11
1.2902
21
1.0958
0
LINE
8
BLACK
6
CONTINUOUS
10
0.537205
20
1.17173
11
0.419094
21
1.17173
0
LINE
8
BLACK
6
CONTINUOUS
10
0.419094
20
1.17173
11
0.419094
21
1.38827
0
LINE
8
BLACK
6
CONTINUOUS
10
0.419094
20
1.38827
11
0.537205
21
1.38827
0
LINE
8
BLACK
6
CONTINUOUS
10
0.537205
20
1.38827
11
0.537205
21
1.17173
0
LINE
8
BLACK
6
CONTINUOUS
10
0.930906
20
1.17173
11
0.812795
21
1.17173
0
LINE
8
BLACK
6
CONTINUOUS
10
0.812795
20
1.17173
11
0.812795
21
1.38827
0
LINE
8
BLACK
6
CONTINUOUS
10
0.812795
20
1.38827
11
0.930906
21
1.38827
0
LINE
8
BLACK
6
CONTINUOUS
10
0.930906
20
1.38827
11
0.930906
21
1.17173
  0
ENDSEC
  0
EOF
