  0
SECTION
  2
HEADER
  9
$ANGBASE
  50
0.0
  9
$ANGDIR
  70
1
  9
$MEASUREMENT
  70
0
  0
ENDSEC
  0
SECTION
  2
TABLES
  0
TABLE
  2
LTYPE
  70
4
  0
LTYPE
  5
40F
  2
CONTINUOUS
  70
0
  3
Solid line
  72
65
  73
0
  40
0.0
  0
LTYPE
  5
410
  2
DASHDOT
 70
0
  3
Dash Dot ____ _ ____ _
 72
65
 73
4
 40
2.0
 49
1.25
 49
-0.25
 49
0.25
 49
-0.25
  0
LTYPE
  5
411
  2
DASHED
 70
0
  3
Dashed __ __ __ __ __
 72
65
 73
2
 40
0.75
 49
0.5
 49
-0.25
  0
LTYPE
  5
43B
  2
DOTTED
 70
0
  3
Dotted .  .  .  .
 72
65
 73
2
 40
0.2
 49
0.0
 49
-0.2
  0
ENDTAB
  0
TABLE
  2
STYLE
  70
4
  0
STYLE
  2
KICAD
  70
0
  40
0
  41
1
  42
1
  50
0
  71
0
  3
isocp.shx
  0
STYLE
  2
KICADB
  70
0
  40
0
  41
1
  42
1
  50
0
  71
0
  3
isocp.shx
  0
STYLE
  2
KICADI
  70
0
  40
0
  41
1
  42
1
  50
15
  71
0
  3
isocp.shx
  0
STYLE
  2
KICADBI
  70
0
  40
0
  41
1
  42
1
  50
15
  71
0
  3
isocp.shx
  0
ENDTAB
  0
TABLE
  2
LAYER
  70
1
  0
LAYER
  2
BLACK
  70
0
  62
7
  6
CONTINUOUS
  0
ENDTAB
  0
ENDSEC
  0
SECTION
  2
ENTITIES
0
LINE
8
BLACK
6
CONTINUOUS
10
0.841902
20
0.133162
11
0.841614
21
0.133858
0
LINE
8
BLACK
6
CONTINUOUS
10
0.841614
20
0.133858
11
0.841614
21
0.266142
0
LINE
8
BLACK
6
CONTINUOUS
10
0.841614
20
0.266142
11
0.841902
21
0.266838
0
LINE
8
BLACK
6
CONTINUOUS
10
0.841902
20
0.266838
11
0.842598
21
0.267126
0
LINE
8
BLACK
6
CONTINUOUS
10
0.842598
20
0.267126
11
0.917402
21
0.267126
0
LINE
8
BLACK
6
CONTINUOUS
10
0.917402
20
0.267126
11
0.918098
21
0.266838
0
LINE
8
BLACK
6
CONTINUOUS
10
0.918098
20
0.266838
11
0.918386
21
0.266142
0
LINE
8
BLACK
6
CONTINUOUS
10
0.918386
20
0.266142
11
0.918386
21
0.133858
0
LINE
8
BLACK
6
CONTINUOUS
10
0.918386
20
0.133858
11
0.918098
21
0.133162
0
LINE
8
BLACK
6
CONTINUOUS
10
0.918098
20
0.133162
11
0.917402
21
0.132874
0
LINE
8
BLACK
6
CONTINUOUS
10
0.917402
20
0.132874
11
0.842598
21
0.132874
0
LINE
8
BLACK
6
CONTINUOUS
10
0.842598
20
0.132874
11
0.841902
21
0.133162
0
LINE
8
BLACK
6
CONTINUOUS
10
0.843583
20
0.265157
11
0.843583
21
0.134843
0
LINE
8
BLACK
6
CONTINUOUS
10
0.843583
20
0.134843
11
0.916417
21
0.134843
0
LINE
8
BLACK
6
CONTINUOUS
10
0.916417
20
0.134843
11
0.916417
21
0.265157
0
LINE
8
BLACK
6
CONTINUOUS
10
0.916417
20
0.265157
11
0.843583
21
0.265157
0
LINE
8
BLACK
6
CONTINUOUS
10
0.946902
20
0.133162
11
0.946614
21
0.133858
0
LINE
8
BLACK
6
CONTINUOUS
10
0.946614
20
0.133858
11
0.946614
21
0.266142
0
LINE
8
BLACK
6
CONTINUOUS
10
0.946614
20
0.266142
11
0.946902
21
0.266838
0
LINE
8
BLACK
6
CONTINUOUS
10
0.946902
20
0.266838
11
0.947598
21
0.267126
0
LINE
8
BLACK
6
CONTINUOUS
10
0.947598
20
0.267126
11
1.0224
21
0.267126
0
LINE
8
BLACK
6
CONTINUOUS
10
1.0224
20
0.267126
11
1.0231
21
0.266838
0
LINE
8
BLACK
6
CONTINUOUS
10
1.0231
20
0.266838
11
1.02339
21
0.266142
0
LINE
8
BLACK
6
CONTINUOUS
10
1.02339
20
0.266142
11
1.02339
21
0.133858
0
LINE
8
BLACK
6
CONTINUOUS
10
1.02339
20
0.133858
11
1.0231
21
0.133162
0
LINE
8
BLACK
6
CONTINUOUS
10
1.0231
20
0.133162
11
1.0224
21
0.132874
0
LINE
8
BLACK
6
CONTINUOUS
10
1.0224
20
0.132874
11
0.947598
21
0.132874
0
LINE
8
BLACK
6
CONTINUOUS
10
0.947598
20
0.132874
11
0.946902
21
0.133162
0
LINE
8
BLACK
6
CONTINUOUS
10
0.948583
20
0.265157
11
0.948583
21
0.134843
0
LINE
8
BLACK
6
CONTINUOUS
10
0.948583
20
0.134843
11
1.02142
21
0.134843
0
LINE
8
BLACK
6
CONTINUOUS
10
1.02142
20
0.134843
11
1.02142
21
0.265157
0
LINE
8
BLACK
6
CONTINUOUS
10
1.02142
20
0.265157
11
0.948583
21
0.265157
0
LINE
8
BLACK
6
CONTINUOUS
10
0.874973
20
0.280721
11
0.874685
21
0.281417
0
LINE
8
BLACK
6
CONTINUOUS
10
0.874685
20
0.281417
11
0.874685
21
0.358583
0
LINE
8
BLACK
6
CONTINUOUS
10
0.874685
20
0.358583
11
0.874973
21
0.359279
0
LINE
8
BLACK
6
CONTINUOUS
10
0.874973
20
0.359279
11
0.875669
21
0.359567
0
LINE
8
BLACK
6
CONTINUOUS
10
0.875669
20
0.359567
11
1.00953
21
0.359567
0
LINE
8
BLACK
6
CONTINUOUS
10
1.00953
20
0.359567
11
1.01022
21
0.359279
0
LINE
8
BLACK
6
CONTINUOUS
10
1.01022
20
0.359279
11
1.01051
21
0.358583
0
LINE
8
BLACK
6
CONTINUOUS
10
1.01051
20
0.358583
11
1.01051
21
0.281417
0
LINE
8
BLACK
6
CONTINUOUS
10
1.01051
20
0.281417
11
1.01022
21
0.280721
0
LINE
8
BLACK
6
CONTINUOUS
10
1.01022
20
0.280721
11
1.00953
21
0.280433
0
LINE
8
BLACK
6
CONTINUOUS
10
1.00953
20
0.280433
11
0.875669
21
0.280433
0
LINE
8
BLACK
6
CONTINUOUS
10
0.875669
20
0.280433
11
0.874973
21
0.280721
0
LINE
8
BLACK
6
CONTINUOUS
10
0.876654
20
0.357598
11
0.876654
21
0.282402
0
LINE
8
BLACK
6
CONTINUOUS
10
0.876654
20
0.282402
11
1.00854
21
0.282402
0
LINE
8
BLACK
6
CONTINUOUS
10
1.00854
20
0.282402
11
1.00854
21
0.357598
0
LINE
8
BLACK
6
CONTINUOUS
10
1.00854
20
0.357598
11
0.876654
21
0.357598
0
LINE
8
BLACK
6
CONTINUOUS
10
1.03909
20
0.321902
11
1.0388
21
0.322598
0
LINE
8
BLACK
6
CONTINUOUS
10
1.0388
20
0.322598
11
1.0388
21
0.397402
0
LINE
8
BLACK
6
CONTINUOUS
10
1.0388
20
0.397402
11
1.03909
21
0.398098
0
LINE
8
BLACK
6
CONTINUOUS
10
1.03909
20
0.398098
11
1.03978
21
0.398386
0
LINE
8
BLACK
6
CONTINUOUS
10
1.03978
20
0.398386
11
1.17207
21
0.398386
0
LINE
8
BLACK
6
CONTINUOUS
10
1.17207
20
0.398386
11
1.17276
21
0.398098
0
LINE
8
BLACK
6
CONTINUOUS
10
1.17276
20
0.398098
11
1.17305
21
0.397402
0
LINE
8
BLACK
6
CONTINUOUS
10
1.17305
20
0.397402
11
1.17305
21
0.322598
0
LINE
8
BLACK
6
CONTINUOUS
10
1.17305
20
0.322598
11
1.17276
21
0.321902
0
LINE
8
BLACK
6
CONTINUOUS
10
1.17276
20
0.321902
11
1.17207
21
0.321614
0
LINE
8
BLACK
6
CONTINUOUS
10
1.17207
20
0.321614
11
1.03978
21
0.321614
0
LINE
8
BLACK
6
CONTINUOUS
10
1.03978
20
0.321614
11
1.03909
21
0.321902
0
LINE
8
BLACK
6
CONTINUOUS
10
1.04077
20
0.396417
11
1.04077
21
0.323583
0
LINE
8
BLACK
6
CONTINUOUS
10
1.04077
20
0.323583
11
1.17108
21
0.323583
0
LINE
8
BLACK
6
CONTINUOUS
10
1.17108
20
0.323583
11
1.17108
21
0.396417
0
LINE
8
BLACK
6
CONTINUOUS
10
1.17108
20
0.396417
11
1.04077
21
0.396417
0
LINE
8
BLACK
6
CONTINUOUS
10
0.746902
20
0.384087
11
0.746614
21
0.384783
0
LINE
8
BLACK
6
CONTINUOUS
10
0.746614
20
0.384783
11
0.746614
21
0.517067
0
LINE
8
BLACK
6
CONTINUOUS
10
0.746614
20
0.517067
11
0.746902
21
0.517763
0
LINE
8
BLACK
6
CONTINUOUS
10
0.746902
20
0.517763
11
0.747598
21
0.518051
0
LINE
8
BLACK
6
CONTINUOUS
10
0.747598
20
0.518051
11
0.822402
21
0.518051
0
LINE
8
BLACK
6
CONTINUOUS
10
0.822402
20
0.518051
11
0.823098
21
0.517763
0
LINE
8
BLACK
6
CONTINUOUS
10
0.823098
20
0.517763
11
0.823386
21
0.517067
0
LINE
8
BLACK
6
CONTINUOUS
10
0.823386
20
0.517067
11
0.823386
21
0.384783
0
LINE
8
BLACK
6
CONTINUOUS
10
0.823386
20
0.384783
11
0.823098
21
0.384087
0
LINE
8
BLACK
6
CONTINUOUS
10
0.823098
20
0.384087
11
0.822402
21
0.383799
0
LINE
8
BLACK
6
CONTINUOUS
10
0.822402
20
0.383799
11
0.747598
21
0.383799
0
LINE
8
BLACK
6
CONTINUOUS
10
0.747598
20
0.383799
11
0.746902
21
0.384087
0
LINE
8
BLACK
6
CONTINUOUS
10
0.748583
20
0.516083
11
0.748583
21
0.385768
0
LINE
8
BLACK
6
CONTINUOUS
10
0.748583
20
0.385768
11
0.821417
21
0.385768
0
LINE
8
BLACK
6
CONTINUOUS
10
0.821417
20
0.385768
11
0.821417
21
0.516083
0
LINE
8
BLACK
6
CONTINUOUS
10
0.821417
20
0.516083
11
0.748583
21
0.516083
0
LINE
8
BLACK
6
CONTINUOUS
10
1.1519
20
0.439087
11
1.15161
21
0.439783
0
LINE
8
BLACK
6
CONTINUOUS
10
1.15161
20
0.439783
11
1.15161
21
0.572067
0
LINE
8
BLACK
6
CONTINUOUS
10
1.15161
20
0.572067
11
1.1519
21
0.572763
0
LINE
8
BLACK
6
CONTINUOUS
10
1.1519
20
0.572763
11
1.1526
21
0.573051
0
LINE
8
BLACK
6
CONTINUOUS
10
1.1526
20
0.573051
11
1.2274
21
0.573051
0
LINE
8
BLACK
6
CONTINUOUS
10
1.2274
20
0.573051
11
1.2281
21
0.572763
0
LINE
8
BLACK
6
CONTINUOUS
10
1.2281
20
0.572763
11
1.22839
21
0.572067
0
LINE
8
BLACK
6
CONTINUOUS
10
1.22839
20
0.572067
11
1.22839
21
0.439783
0
LINE
8
BLACK
6
CONTINUOUS
10
1.22839
20
0.439783
11
1.2281
21
0.439087
0
LINE
8
BLACK
6
CONTINUOUS
10
1.2281
20
0.439087
11
1.2274
21
0.438799
0
LINE
8
BLACK
6
CONTINUOUS
10
1.2274
20
0.438799
11
1.1526
21
0.438799
0
LINE
8
BLACK
6
CONTINUOUS
10
1.1526
20
0.438799
11
1.1519
21
0.439087
0
LINE
8
BLACK
6
CONTINUOUS
10
1.15358
20
0.571083
11
1.15358
21
0.440768
0
LINE
8
BLACK
6
CONTINUOUS
10
1.15358
20
0.440768
11
1.22642
21
0.440768
0
LINE
8
BLACK
6
CONTINUOUS
10
1.22642
20
0.440768
11
1.22642
21
0.571083
0
LINE
8
BLACK
6
CONTINUOUS
10
1.22642
20
0.571083
11
1.15358
21
0.571083
0
LINE
8
BLACK
6
CONTINUOUS
10
1.05072
20
0.439776
11
1.05043
21
0.440472
0
LINE
8
BLACK
6
CONTINUOUS
10
1.05043
20
0.440472
11
1.05043
21
0.574331
0
LINE
8
BLACK
6
CONTINUOUS
10
1.05043
20
0.574331
11
1.05072
21
0.575027
0
LINE
8
BLACK
6
CONTINUOUS
10
1.05072
20
0.575027
11
1.05142
21
0.575315
0
LINE
8
BLACK
6
CONTINUOUS
10
1.05142
20
0.575315
11
1.12858
21
0.575315
0
LINE
8
BLACK
6
CONTINUOUS
10
1.12858
20
0.575315
11
1.12928
21
0.575027
0
LINE
8
BLACK
6
CONTINUOUS
10
1.12928
20
0.575027
11
1.12957
21
0.574331
0
LINE
8
BLACK
6
CONTINUOUS
10
1.12957
20
0.574331
11
1.12957
21
0.440472
0
LINE
8
BLACK
6
CONTINUOUS
10
1.12957
20
0.440472
11
1.12928
21
0.439776
0
LINE
8
BLACK
6
CONTINUOUS
10
1.12928
20
0.439776
11
1.12858
21
0.439488
0
LINE
8
BLACK
6
CONTINUOUS
10
1.12858
20
0.439488
11
1.05142
21
0.439488
0
LINE
8
BLACK
6
CONTINUOUS
10
1.05142
20
0.439488
11
1.05072
21
0.439776
0
LINE
8
BLACK
6
CONTINUOUS
10
1.0524
20
0.573346
11
1.0524
21
0.441457
0
LINE
8
BLACK
6
CONTINUOUS
10
1.0524
20
0.441457
11
1.1276
21
0.441457
0
LINE
8
BLACK
6
CONTINUOUS
10
1.1276
20
0.441457
11
1.1276
21
0.573346
0
LINE
8
BLACK
6
CONTINUOUS
10
1.1276
20
0.573346
11
1.0524
21
0.573346
0
LINE
8
BLACK
6
CONTINUOUS
10
0.880406
20
0.452729
11
0.880118
21
0.453425
0
LINE
8
BLACK
6
CONTINUOUS
10
0.880118
20
0.453425
11
0.880118
21
0.756575
0
LINE
8
BLACK
6
CONTINUOUS
10
0.880118
20
0.756575
11
0.880406
21
0.757271
0
LINE
8
BLACK
6
CONTINUOUS
10
0.880406
20
0.757271
11
0.881102
21
0.757559
0
LINE
8
BLACK
6
CONTINUOUS
10
0.881102
20
0.757559
11
1.0189
21
0.757559
0
LINE
8
BLACK
6
CONTINUOUS
10
1.0189
20
0.757559
11
1.01959
21
0.757271
0
LINE
8
BLACK
6
CONTINUOUS
10
1.01959
20
0.757271
11
1.01988
21
0.756575
0
LINE
8
BLACK
6
CONTINUOUS
10
1.01988
20
0.756575
11
1.01988
21
0.453425
0
LINE
8
BLACK
6
CONTINUOUS
10
1.01988
20
0.453425
11
1.01959
21
0.452729
0
LINE
8
BLACK
6
CONTINUOUS
10
1.01959
20
0.452729
11
1.0189
21
0.452441
0
LINE
8
BLACK
6
CONTINUOUS
10
1.0189
20
0.452441
11
0.881102
21
0.452441
0
LINE
8
BLACK
6
CONTINUOUS
10
0.881102
20
0.452441
11
0.880406
21
0.452729
0
LINE
8
BLACK
6
CONTINUOUS
10
0.882087
20
0.755591
11
0.882087
21
0.454409
0
LINE
8
BLACK
6
CONTINUOUS
10
0.882087
20
0.454409
11
1.01791
21
0.454409
0
LINE
8
BLACK
6
CONTINUOUS
10
1.01791
20
0.454409
11
1.01791
21
0.755591
0
LINE
8
BLACK
6
CONTINUOUS
10
1.01791
20
0.755591
11
0.882087
21
0.755591
0
LINE
8
BLACK
6
CONTINUOUS
10
0.691902
20
0.587237
11
0.691614
21
0.587933
0
LINE
8
BLACK
6
CONTINUOUS
10
0.691614
20
0.587933
11
0.691614
21
0.720217
0
LINE
8
BLACK
6
CONTINUOUS
10
0.691614
20
0.720217
11
0.691902
21
0.720913
0
LINE
8
BLACK
6
CONTINUOUS
10
0.691902
20
0.720913
11
0.692598
21
0.721201
0
LINE
8
BLACK
6
CONTINUOUS
10
0.692598
20
0.721201
11
0.767402
21
0.721201
0
LINE
8
BLACK
6
CONTINUOUS
10
0.767402
20
0.721201
11
0.768098
21
0.720913
0
LINE
8
BLACK
6
CONTINUOUS
10
0.768098
20
0.720913
11
0.768386
21
0.720217
0
LINE
8
BLACK
6
CONTINUOUS
10
0.768386
20
0.720217
11
0.768386
21
0.587933
0
LINE
8
BLACK
6
CONTINUOUS
10
0.768386
20
0.587933
11
0.768098
21
0.587237
0
LINE
8
BLACK
6
CONTINUOUS
10
0.768098
20
0.587237
11
0.767402
21
0.586949
0
LINE
8
BLACK
6
CONTINUOUS
10
0.767402
20
0.586949
11
0.692598
21
0.586949
0
LINE
8
BLACK
6
CONTINUOUS
10
0.692598
20
0.586949
11
0.691902
21
0.587237
0
LINE
8
BLACK
6
CONTINUOUS
10
0.693583
20
0.719232
11
0.693583
21
0.588917
0
LINE
8
BLACK
6
CONTINUOUS
10
0.693583
20
0.588917
11
0.766417
21
0.588917
0
LINE
8
BLACK
6
CONTINUOUS
10
0.766417
20
0.588917
11
0.766417
21
0.719232
0
LINE
8
BLACK
6
CONTINUOUS
10
0.766417
20
0.719232
11
0.693583
21
0.719232
0
LINE
8
BLACK
6
CONTINUOUS
10
1.14572
20
0.612375
11
1.14543
21
0.613071
0
LINE
8
BLACK
6
CONTINUOUS
10
1.14543
20
0.613071
11
1.14543
21
0.746929
0
LINE
8
BLACK
6
CONTINUOUS
10
1.14543
20
0.746929
11
1.14572
21
0.747625
0
LINE
8
BLACK
6
CONTINUOUS
10
1.14572
20
0.747625
11
1.14642
21
0.747913
0
LINE
8
BLACK
6
CONTINUOUS
10
1.14642
20
0.747913
11
1.22358
21
0.747913
0
LINE
8
BLACK
6
CONTINUOUS
10
1.22358
20
0.747913
11
1.22428
21
0.747625
0
LINE
8
BLACK
6
CONTINUOUS
10
1.22428
20
0.747625
11
1.22457
21
0.746929
0
LINE
8
BLACK
6
CONTINUOUS
10
1.22457
20
0.746929
11
1.22457
21
0.613071
0
LINE
8
BLACK
6
CONTINUOUS
10
1.22457
20
0.613071
11
1.22428
21
0.612375
0
LINE
8
BLACK
6
CONTINUOUS
10
1.22428
20
0.612375
11
1.22358
21
0.612087
0
LINE
8
BLACK
6
CONTINUOUS
10
1.22358
20
0.612087
11
1.14642
21
0.612087
0
LINE
8
BLACK
6
CONTINUOUS
10
1.14642
20
0.612087
11
1.14572
21
0.612375
0
LINE
8
BLACK
6
CONTINUOUS
10
1.1474
20
0.745945
11
1.1474
21
0.614055
0
LINE
8
BLACK
6
CONTINUOUS
10
1.1474
20
0.614055
11
1.2226
21
0.614055
0
LINE
8
BLACK
6
CONTINUOUS
10
1.2226
20
0.614055
11
1.2226
21
0.745945
0
LINE
8
BLACK
6
CONTINUOUS
10
1.2226
20
0.745945
11
1.1474
21
0.745945
0
LINE
8
BLACK
6
CONTINUOUS
10
1.05072
20
0.614776
11
1.05043
21
0.615472
0
LINE
8
BLACK
6
CONTINUOUS
10
1.05043
20
0.615472
11
1.05043
21
0.749331
0
LINE
8
BLACK
6
CONTINUOUS
10
1.05043
20
0.749331
11
1.05072
21
0.750027
0
LINE
8
BLACK
6
CONTINUOUS
10
1.05072
20
0.750027
11
1.05142
21
0.750315
0
LINE
8
BLACK
6
CONTINUOUS
10
1.05142
20
0.750315
11
1.12858
21
0.750315
0
LINE
8
BLACK
6
CONTINUOUS
10
1.12858
20
0.750315
11
1.12928
21
0.750027
0
LINE
8
BLACK
6
CONTINUOUS
10
1.12928
20
0.750027
11
1.12957
21
0.749331
0
LINE
8
BLACK
6
CONTINUOUS
10
1.12957
20
0.749331
11
1.12957
21
0.615472
0
LINE
8
BLACK
6
CONTINUOUS
10
1.12957
20
0.615472
11
1.12928
21
0.614776
0
LINE
8
BLACK
6
CONTINUOUS
10
1.12928
20
0.614776
11
1.12858
21
0.614488
0
LINE
8
BLACK
6
CONTINUOUS
10
1.12858
20
0.614488
11
1.05142
21
0.614488
0
LINE
8
BLACK
6
CONTINUOUS
10
1.05142
20
0.614488
11
1.05072
21
0.614776
0
LINE
8
BLACK
6
CONTINUOUS
10
1.0524
20
0.748346
11
1.0524
21
0.616457
0
LINE
8
BLACK
6
CONTINUOUS
10
1.0524
20
0.616457
11
1.1276
21
0.616457
0
LINE
8
BLACK
6
CONTINUOUS
10
1.1276
20
0.616457
11
1.1276
21
0.748346
0
LINE
8
BLACK
6
CONTINUOUS
10
1.1276
20
0.748346
11
1.0524
21
0.748346
0
LINE
8
BLACK
6
CONTINUOUS
10
0.780721
20
0.642375
11
0.780433
21
0.643071
0
LINE
8
BLACK
6
CONTINUOUS
10
0.780433
20
0.643071
11
0.780433
21
0.776929
0
LINE
8
BLACK
6
CONTINUOUS
10
0.780433
20
0.776929
11
0.780721
21
0.777625
0
LINE
8
BLACK
6
CONTINUOUS
10
0.780721
20
0.777625
11
0.781417
21
0.777913
0
LINE
8
BLACK
6
CONTINUOUS
10
0.781417
20
0.777913
11
0.858583
21
0.777913
0
LINE
8
BLACK
6
CONTINUOUS
10
0.858583
20
0.777913
11
0.859279
21
0.777625
0
LINE
8
BLACK
6
CONTINUOUS
10
0.859279
20
0.777625
11
0.859567
21
0.776929
0
LINE
8
BLACK
6
CONTINUOUS
10
0.859567
20
0.776929
11
0.859567
21
0.643071
0
LINE
8
BLACK
6
CONTINUOUS
10
0.859567
20
0.643071
11
0.859279
21
0.642375
0
LINE
8
BLACK
6
CONTINUOUS
10
0.859279
20
0.642375
11
0.858583
21
0.642087
0
LINE
8
BLACK
6
CONTINUOUS
10
0.858583
20
0.642087
11
0.781417
21
0.642087
0
LINE
8
BLACK
6
CONTINUOUS
10
0.781417
20
0.642087
11
0.780721
21
0.642375
0
LINE
8
BLACK
6
CONTINUOUS
10
0.782402
20
0.775945
11
0.782402
21
0.644055
0
LINE
8
BLACK
6
CONTINUOUS
10
0.782402
20
0.644055
11
0.857598
21
0.644055
0
LINE
8
BLACK
6
CONTINUOUS
10
0.857598
20
0.644055
11
0.857598
21
0.775945
0
LINE
8
BLACK
6
CONTINUOUS
10
0.857598
20
0.775945
11
0.782402
21
0.775945
0
LINE
8
BLACK
6
CONTINUOUS
10
1.26151
20
0.715406
11
1.26122
21
0.716102
0
LINE
8
BLACK
6
CONTINUOUS
10
1.26122
20
0.716102
11
1.26122
21
0.853898
0
LINE
8
BLACK
6
CONTINUOUS
10
1.26122
20
0.853898
11
1.26151
21
0.854594
0
LINE
8
BLACK
6
CONTINUOUS
10
1.26151
20
0.854594
11
1.2622
21
0.854882
0
LINE
8
BLACK
6
CONTINUOUS
10
1.2622
20
0.854882
11
1.5378
21
0.854882
0
LINE
8
BLACK
6
CONTINUOUS
10
1.5378
20
0.854882
11
1.53849
21
0.854594
0
LINE
8
BLACK
6
CONTINUOUS
10
1.53849
20
0.854594
11
1.53878
21
0.853898
0
LINE
8
BLACK
6
CONTINUOUS
10
1.53878
20
0.853898
11
1.53878
21
0.716102
0
LINE
8
BLACK
6
CONTINUOUS
10
1.53878
20
0.716102
11
1.53849
21
0.715406
0
LINE
8
BLACK
6
CONTINUOUS
10
1.53849
20
0.715406
11
1.5378
21
0.715118
0
LINE
8
BLACK
6
CONTINUOUS
10
1.5378
20
0.715118
11
1.2622
21
0.715118
0
LINE
8
BLACK
6
CONTINUOUS
10
1.2622
20
0.715118
11
1.26151
21
0.715406
0
LINE
8
BLACK
6
CONTINUOUS
10
1.26319
20
0.852913
11
1.26319
21
0.717087
0
LINE
8
BLACK
6
CONTINUOUS
10
1.26319
20
0.717087
11
1.53681
21
0.717087
0
LINE
8
BLACK
6
CONTINUOUS
10
1.53681
20
0.717087
11
1.53681
21
0.852913
0
LINE
8
BLACK
6
CONTINUOUS
10
1.53681
20
0.852913
11
1.26319
21
0.852913
0
LINE
8
BLACK
6
CONTINUOUS
10
0.691902
20
0.738162
11
0.691614
21
0.738858
0
LINE
8
BLACK
6
CONTINUOUS
10
0.691614
20
0.738858
11
0.691614
21
0.871142
0
LINE
8
BLACK
6
CONTINUOUS
10
0.691614
20
0.871142
11
0.691902
21
0.871838
0
LINE
8
BLACK
6
CONTINUOUS
10
0.691902
20
0.871838
11
0.692598
21
0.872126
0
LINE
8
BLACK
6
CONTINUOUS
10
0.692598
20
0.872126
11
0.767402
21
0.872126
0
LINE
8
BLACK
6
CONTINUOUS
10
0.767402
20
0.872126
11
0.768098
21
0.871838
0
LINE
8
BLACK
6
CONTINUOUS
10
0.768098
20
0.871838
11
0.768386
21
0.871142
0
LINE
8
BLACK
6
CONTINUOUS
10
0.768386
20
0.871142
11
0.768386
21
0.738858
0
LINE
8
BLACK
6
CONTINUOUS
10
0.768386
20
0.738858
11
0.768098
21
0.738162
0
LINE
8
BLACK
6
CONTINUOUS
10
0.768098
20
0.738162
11
0.767402
21
0.737874
0
LINE
8
BLACK
6
CONTINUOUS
10
0.767402
20
0.737874
11
0.692598
21
0.737874
0
LINE
8
BLACK
6
CONTINUOUS
10
0.692598
20
0.737874
11
0.691902
21
0.738162
0
LINE
8
BLACK
6
CONTINUOUS
10
0.693583
20
0.870157
11
0.693583
21
0.739843
0
LINE
8
BLACK
6
CONTINUOUS
10
0.693583
20
0.739843
11
0.766417
21
0.739843
0
LINE
8
BLACK
6
CONTINUOUS
10
0.766417
20
0.739843
11
0.766417
21
0.870157
0
LINE
8
BLACK
6
CONTINUOUS
10
0.766417
20
0.870157
11
0.693583
21
0.870157
0
LINE
8
BLACK
6
CONTINUOUS
10
1.15021
20
0.832119
11
1.14992
21
0.832815
0
LINE
8
BLACK
6
CONTINUOUS
10
1.14992
20
0.832815
11
1.14992
21
1.01234
0
LINE
8
BLACK
6
CONTINUOUS
10
1.14992
20
1.01234
11
1.15021
21
1.01304
0
LINE
8
BLACK
6
CONTINUOUS
10
1.15021
20
1.01304
11
1.15091
21
1.01333
0
LINE
8
BLACK
6
CONTINUOUS
10
1.15091
20
1.01333
11
1.23909
21
1.01333
0
LINE
8
BLACK
6
CONTINUOUS
10
1.23909
20
1.01333
11
1.23979
21
1.01304
0
LINE
8
BLACK
6
CONTINUOUS
10
1.23979
20
1.01304
11
1.24008
21
1.01234
0
LINE
8
BLACK
6
CONTINUOUS
10
1.24008
20
1.01234
11
1.24008
21
0.832815
0
LINE
8
BLACK
6
CONTINUOUS
10
1.24008
20
0.832815
11
1.23979
21
0.832119
0
LINE
8
BLACK
6
CONTINUOUS
10
1.23979
20
0.832119
11
1.23909
21
0.831831
0
LINE
8
BLACK
6
CONTINUOUS
10
1.23909
20
0.831831
11
1.15091
21
0.831831
0
LINE
8
BLACK
6
CONTINUOUS
10
1.15091
20
0.831831
11
1.15021
21
0.832119
0
LINE
8
BLACK
6
CONTINUOUS
10
1.15189
20
1.01136
11
1.15189
21
0.833799
0
LINE
8
BLACK
6
CONTINUOUS
10
1.15189
20
0.833799
11
1.23811
21
0.833799
0
LINE
8
BLACK
6
CONTINUOUS
10
1.23811
20
0.833799
11
1.23811
21
1.01136
0
LINE
8
BLACK
6
CONTINUOUS
10
1.23811
20
1.01136
11
1.15189
21
1.01136
0
LINE
8
BLACK
6
CONTINUOUS
10
0.836509
20
0.835406
11
0.83622
21
0.836102
0
LINE
8
BLACK
6
CONTINUOUS
10
0.83622
20
0.836102
11
0.83622
21
0.973898
0
LINE
8
BLACK
6
CONTINUOUS
10
0.83622
20
0.973898
11
0.836509
21
0.974594
0
LINE
8
BLACK
6
CONTINUOUS
10
0.836509
20
0.974594
11
0.837205
21
0.974882
0
LINE
8
BLACK
6
CONTINUOUS
10
0.837205
20
0.974882
11
1.1128
21
0.974882
0
LINE
8
BLACK
6
CONTINUOUS
10
1.1128
20
0.974882
11
1.11349
21
0.974594
0
LINE
8
BLACK
6
CONTINUOUS
10
1.11349
20
0.974594
11
1.11378
21
0.973898
0
LINE
8
BLACK
6
CONTINUOUS
10
1.11378
20
0.973898
11
1.11378
21
0.836102
0
LINE
8
BLACK
6
CONTINUOUS
10
1.11378
20
0.836102
11
1.11349
21
0.835406
0
LINE
8
BLACK
6
CONTINUOUS
10
1.11349
20
0.835406
11
1.1128
21
0.835118
0
LINE
8
BLACK
6
CONTINUOUS
10
1.1128
20
0.835118
11
0.837205
21
0.835118
0
LINE
8
BLACK
6
CONTINUOUS
10
0.837205
20
0.835118
11
0.836509
21
0.835406
0
LINE
8
BLACK
6
CONTINUOUS
10
0.838189
20
0.972913
11
0.838189
21
0.837087
0
LINE
8
BLACK
6
CONTINUOUS
10
0.838189
20
0.837087
11
1.11181
21
0.837087
0
LINE
8
BLACK
6
CONTINUOUS
10
1.11181
20
0.837087
11
1.11181
21
0.972913
0
LINE
8
BLACK
6
CONTINUOUS
10
1.11181
20
0.972913
11
0.838189
21
0.972913
  0
ENDSEC
  0
EOF
