  0
SECTION
  2
HEADER
  9
$ANGBASE
  50
0.0
  9
$ANGDIR
  70
1
  9
$MEASUREMENT
  70
0
  0
ENDSEC
  0
SECTION
  2
TABLES
  0
TABLE
  2
LTYPE
  70
4
  0
LTYPE
  5
40F
  2
CONTINUOUS
  70
0
  3
Solid line
  72
65
  73
0
  40
0.0
  0
LTYPE
  5
410
  2
DASHDOT
 70
0
  3
Dash Dot ____ _ ____ _
 72
65
 73
4
 40
2.0
 49
1.25
 49
-0.25
 49
0.25
 49
-0.25
  0
LTYPE
  5
411
  2
DASHED
 70
0
  3
Dashed __ __ __ __ __
 72
65
 73
2
 40
0.75
 49
0.5
 49
-0.25
  0
LTYPE
  5
43B
  2
DOTTED
 70
0
  3
Dotted .  .  .  .
 72
65
 73
2
 40
0.2
 49
0.0
 49
-0.2
  0
ENDTAB
  0
TABLE
  2
STYLE
  70
4
  0
STYLE
  2
KICAD
  70
0
  40
0
  41
1
  42
1
  50
0
  71
0
  3
isocp.shx
  0
STYLE
  2
KICADB
  70
0
  40
0
  41
1
  42
1
  50
0
  71
0
  3
isocp.shx
  0
STYLE
  2
KICADI
  70
0
  40
0
  41
1
  42
1
  50
15
  71
0
  3
isocp.shx
  0
STYLE
  2
KICADBI
  70
0
  40
0
  41
1
  42
1
  50
15
  71
0
  3
isocp.shx
  0
ENDTAB
  0
TABLE
  2
LAYER
  70
1
  0
LAYER
  2
BLACK
  70
0
  62
7
  6
CONTINUOUS
  0
ENDTAB
  0
ENDSEC
  0
SECTION
  2
ENTITIES
0
LINE
8
BLACK
6
CONTINUOUS
10
0.705384
20
0.462885
11
0.705513
21
0.462908
0
LINE
8
BLACK
6
CONTINUOUS
10
0.705513
20
0.462908
11
0.705626
21
0.462842
0
LINE
8
BLACK
6
CONTINUOUS
10
0.705626
20
0.462842
11
0.70601
21
0.462775
0
LINE
8
BLACK
6
CONTINUOUS
10
0.70601
20
0.462775
11
0.706598
21
0.462282
0
LINE
8
BLACK
6
CONTINUOUS
10
0.706598
20
0.462282
11
0.707262
21
0.461898
0
LINE
8
BLACK
6
CONTINUOUS
10
0.707262
20
0.461898
11
0.707353
21
0.461648
0
LINE
8
BLACK
6
CONTINUOUS
10
0.707353
20
0.461648
11
0.707557
21
0.461476
0
LINE
8
BLACK
6
CONTINUOUS
10
0.707557
20
0.461476
11
0.70769
21
0.460721
0
LINE
8
BLACK
6
CONTINUOUS
10
0.70769
20
0.460721
11
0.707953
21
0.46
0
LINE
8
BLACK
6
CONTINUOUS
10
0.707953
20
0.46
11
0.707953
21
0.36
0
LINE
8
BLACK
6
CONTINUOUS
10
0.707953
20
0.36
11
0.707885
21
0.359616
0
LINE
8
BLACK
6
CONTINUOUS
10
0.707885
20
0.359616
11
0.707908
21
0.359487
0
LINE
8
BLACK
6
CONTINUOUS
10
0.707908
20
0.359487
11
0.707842
21
0.359374
0
LINE
8
BLACK
6
CONTINUOUS
10
0.707842
20
0.359374
11
0.707775
21
0.35899
0
LINE
8
BLACK
6
CONTINUOUS
10
0.707775
20
0.35899
11
0.707282
21
0.358402
0
LINE
8
BLACK
6
CONTINUOUS
10
0.707282
20
0.358402
11
0.706898
21
0.357738
0
LINE
8
BLACK
6
CONTINUOUS
10
0.706898
20
0.357738
11
0.706648
21
0.357647
0
LINE
8
BLACK
6
CONTINUOUS
10
0.706648
20
0.357647
11
0.706476
21
0.357443
0
LINE
8
BLACK
6
CONTINUOUS
10
0.706476
20
0.357443
11
0.705721
21
0.35731
0
LINE
8
BLACK
6
CONTINUOUS
10
0.705721
20
0.35731
11
0.705
21
0.357047
0
LINE
8
BLACK
6
CONTINUOUS
10
0.705
20
0.357047
11
0.605
21
0.357047
0
LINE
8
BLACK
6
CONTINUOUS
10
0.605
20
0.357047
11
0.604616
21
0.357115
0
LINE
8
BLACK
6
CONTINUOUS
10
0.604616
20
0.357115
11
0.604487
21
0.357092
0
LINE
8
BLACK
6
CONTINUOUS
10
0.604487
20
0.357092
11
0.604374
21
0.357158
0
LINE
8
BLACK
6
CONTINUOUS
10
0.604374
20
0.357158
11
0.60399
21
0.357225
0
LINE
8
BLACK
6
CONTINUOUS
10
0.60399
20
0.357225
11
0.603402
21
0.357718
0
LINE
8
BLACK
6
CONTINUOUS
10
0.603402
20
0.357718
11
0.602738
21
0.358102
0
LINE
8
BLACK
6
CONTINUOUS
10
0.602738
20
0.358102
11
0.602647
21
0.358352
0
LINE
8
BLACK
6
CONTINUOUS
10
0.602647
20
0.358352
11
0.602443
21
0.358524
0
LINE
8
BLACK
6
CONTINUOUS
10
0.602443
20
0.358524
11
0.60231
21
0.359279
0
LINE
8
BLACK
6
CONTINUOUS
10
0.60231
20
0.359279
11
0.602047
21
0.36
0
LINE
8
BLACK
6
CONTINUOUS
10
0.602047
20
0.36
11
0.602047
21
0.46
0
LINE
8
BLACK
6
CONTINUOUS
10
0.602047
20
0.46
11
0.602115
21
0.460384
0
LINE
8
BLACK
6
CONTINUOUS
10
0.602115
20
0.460384
11
0.602092
21
0.460513
0
LINE
8
BLACK
6
CONTINUOUS
10
0.602092
20
0.460513
11
0.602158
21
0.460626
0
LINE
8
BLACK
6
CONTINUOUS
10
0.602158
20
0.460626
11
0.602225
21
0.46101
0
LINE
8
BLACK
6
CONTINUOUS
10
0.602225
20
0.46101
11
0.602718
21
0.461598
0
LINE
8
BLACK
6
CONTINUOUS
10
0.602718
20
0.461598
11
0.603102
21
0.462262
0
LINE
8
BLACK
6
CONTINUOUS
10
0.603102
20
0.462262
11
0.603352
21
0.462353
0
LINE
8
BLACK
6
CONTINUOUS
10
0.603352
20
0.462353
11
0.603524
21
0.462557
0
LINE
8
BLACK
6
CONTINUOUS
10
0.603524
20
0.462557
11
0.604279
21
0.46269
0
LINE
8
BLACK
6
CONTINUOUS
10
0.604279
20
0.46269
11
0.605
21
0.462953
0
LINE
8
BLACK
6
CONTINUOUS
10
0.605
20
0.462953
11
0.705
21
0.462953
0
LINE
8
BLACK
6
CONTINUOUS
10
0.705
20
0.462953
11
0.705384
21
0.462885
0
LINE
8
BLACK
6
CONTINUOUS
10
0.607953
20
0.457047
11
0.607953
21
0.362953
0
LINE
8
BLACK
6
CONTINUOUS
10
0.607953
20
0.362953
11
0.702047
21
0.362953
0
LINE
8
BLACK
6
CONTINUOUS
10
0.702047
20
0.362953
11
0.702047
21
0.457047
0
LINE
8
BLACK
6
CONTINUOUS
10
0.702047
20
0.457047
11
0.607953
21
0.457047
0
LINE
8
BLACK
6
CONTINUOUS
10
1.53538
20
1.20289
11
1.53551
21
1.20291
0
LINE
8
BLACK
6
CONTINUOUS
10
1.53551
20
1.20291
11
1.53563
21
1.20284
0
LINE
8
BLACK
6
CONTINUOUS
10
1.53563
20
1.20284
11
1.53601
21
1.20277
0
LINE
8
BLACK
6
CONTINUOUS
10
1.53601
20
1.20277
11
1.5366
21
1.20228
0
LINE
8
BLACK
6
CONTINUOUS
10
1.5366
20
1.20228
11
1.53726
21
1.2019
0
LINE
8
BLACK
6
CONTINUOUS
10
1.53726
20
1.2019
11
1.53735
21
1.20165
0
LINE
8
BLACK
6
CONTINUOUS
10
1.53735
20
1.20165
11
1.53756
21
1.20148
0
LINE
8
BLACK
6
CONTINUOUS
10
1.53756
20
1.20148
11
1.53769
21
1.20072
0
LINE
8
BLACK
6
CONTINUOUS
10
1.53769
20
1.20072
11
1.53795
21
1.2
0
LINE
8
BLACK
6
CONTINUOUS
10
1.53795
20
1.2
11
1.53795
21
0.9
0
LINE
8
BLACK
6
CONTINUOUS
10
1.53795
20
0.9
11
1.53789
21
0.899616
0
LINE
8
BLACK
6
CONTINUOUS
10
1.53789
20
0.899616
11
1.53791
21
0.899487
0
LINE
8
BLACK
6
CONTINUOUS
10
1.53791
20
0.899487
11
1.53784
21
0.899374
0
LINE
8
BLACK
6
CONTINUOUS
10
1.53784
20
0.899374
11
1.53777
21
0.89899
0
LINE
8
BLACK
6
CONTINUOUS
10
1.53777
20
0.89899
11
1.53728
21
0.898402
0
LINE
8
BLACK
6
CONTINUOUS
10
1.53728
20
0.898402
11
1.5369
21
0.897738
0
LINE
8
BLACK
6
CONTINUOUS
10
1.5369
20
0.897738
11
1.53665
21
0.897647
0
LINE
8
BLACK
6
CONTINUOUS
10
1.53665
20
0.897647
11
1.53648
21
0.897443
0
LINE
8
BLACK
6
CONTINUOUS
10
1.53648
20
0.897443
11
1.53572
21
0.89731
0
LINE
8
BLACK
6
CONTINUOUS
10
1.53572
20
0.89731
11
1.535
21
0.897047
0
LINE
8
BLACK
6
CONTINUOUS
10
1.535
20
0.897047
11
1.335
21
0.897047
0
LINE
8
BLACK
6
CONTINUOUS
10
1.335
20
0.897047
11
1.33462
21
0.897115
0
LINE
8
BLACK
6
CONTINUOUS
10
1.33462
20
0.897115
11
1.33449
21
0.897092
0
LINE
8
BLACK
6
CONTINUOUS
10
1.33449
20
0.897092
11
1.33437
21
0.897158
0
LINE
8
BLACK
6
CONTINUOUS
10
1.33437
20
0.897158
11
1.33399
21
0.897225
0
LINE
8
BLACK
6
CONTINUOUS
10
1.33399
20
0.897225
11
1.3334
21
0.897718
0
LINE
8
BLACK
6
CONTINUOUS
10
1.3334
20
0.897718
11
1.33274
21
0.898102
0
LINE
8
BLACK
6
CONTINUOUS
10
1.33274
20
0.898102
11
1.33265
21
0.898352
0
LINE
8
BLACK
6
CONTINUOUS
10
1.33265
20
0.898352
11
1.33244
21
0.898524
0
LINE
8
BLACK
6
CONTINUOUS
10
1.33244
20
0.898524
11
1.33231
21
0.899279
0
LINE
8
BLACK
6
CONTINUOUS
10
1.33231
20
0.899279
11
1.33205
21
0.9
0
LINE
8
BLACK
6
CONTINUOUS
10
1.33205
20
0.9
11
1.33205
21
1.2
0
LINE
8
BLACK
6
CONTINUOUS
10
1.33205
20
1.2
11
1.33211
21
1.20038
0
LINE
8
BLACK
6
CONTINUOUS
10
1.33211
20
1.20038
11
1.33209
21
1.20051
0
LINE
8
BLACK
6
CONTINUOUS
10
1.33209
20
1.20051
11
1.33216
21
1.20063
0
LINE
8
BLACK
6
CONTINUOUS
10
1.33216
20
1.20063
11
1.33223
21
1.20101
0
LINE
8
BLACK
6
CONTINUOUS
10
1.33223
20
1.20101
11
1.33272
21
1.2016
0
LINE
8
BLACK
6
CONTINUOUS
10
1.33272
20
1.2016
11
1.3331
21
1.20226
0
LINE
8
BLACK
6
CONTINUOUS
10
1.3331
20
1.20226
11
1.33335
21
1.20235
0
LINE
8
BLACK
6
CONTINUOUS
10
1.33335
20
1.20235
11
1.33352
21
1.20256
0
LINE
8
BLACK
6
CONTINUOUS
10
1.33352
20
1.20256
11
1.33428
21
1.20269
0
LINE
8
BLACK
6
CONTINUOUS
10
1.33428
20
1.20269
11
1.335
21
1.20295
0
LINE
8
BLACK
6
CONTINUOUS
10
1.335
20
1.20295
11
1.535
21
1.20295
0
LINE
8
BLACK
6
CONTINUOUS
10
1.535
20
1.20295
11
1.53538
21
1.20289
0
LINE
8
BLACK
6
CONTINUOUS
10
1.33795
20
1.19705
11
1.33795
21
0.902953
0
LINE
8
BLACK
6
CONTINUOUS
10
1.33795
20
0.902953
11
1.53205
21
0.902953
0
LINE
8
BLACK
6
CONTINUOUS
10
1.53205
20
0.902953
11
1.53205
21
1.19705
0
LINE
8
BLACK
6
CONTINUOUS
10
1.53205
20
1.19705
11
1.33795
21
1.19705
0
LINE
8
BLACK
6
CONTINUOUS
10
1.27792
20
0.229534
11
1.28197
21
0.242958
0
LINE
8
BLACK
6
CONTINUOUS
10
1.28197
20
0.242958
11
1.2875
21
0.255846
0
LINE
8
BLACK
6
CONTINUOUS
10
1.2875
20
0.255846
11
1.29442
21
0.268039
0
LINE
8
BLACK
6
CONTINUOUS
10
1.29442
20
0.268039
11
1.30267
21
0.279383
0
LINE
8
BLACK
6
CONTINUOUS
10
1.30267
20
0.279383
11
1.31212
21
0.289738
0
LINE
8
BLACK
6
CONTINUOUS
10
1.31212
20
0.289738
11
1.32267
21
0.298974
0
LINE
8
BLACK
6
CONTINUOUS
10
1.32267
20
0.298974
11
1.33419
21
0.306977
0
LINE
8
BLACK
6
CONTINUOUS
10
1.33419
20
0.306977
11
1.34652
21
0.313646
0
LINE
8
BLACK
6
CONTINUOUS
10
1.34652
20
0.313646
11
1.35952
21
0.318899
0
LINE
8
BLACK
6
CONTINUOUS
10
1.35952
20
0.318899
11
1.37303
21
0.32267
0
LINE
8
BLACK
6
CONTINUOUS
10
1.37303
20
0.32267
11
1.38687
21
0.324912
0
LINE
8
BLACK
6
CONTINUOUS
10
1.38687
20
0.324912
11
1.40088
21
0.325597
0
LINE
8
BLACK
6
CONTINUOUS
10
1.40088
20
0.325597
11
1.41487
21
0.324716
0
LINE
8
BLACK
6
CONTINUOUS
10
1.41487
20
0.324716
11
1.42868
21
0.322281
0
LINE
8
BLACK
6
CONTINUOUS
10
1.42868
20
0.322281
11
1.44213
21
0.318322
0
LINE
8
BLACK
6
CONTINUOUS
10
1.44213
20
0.318322
11
1.45506
21
0.312889
0
LINE
8
BLACK
6
CONTINUOUS
10
1.45506
20
0.312889
11
1.4673
21
0.306048
0
LINE
8
BLACK
6
CONTINUOUS
10
1.4673
20
0.306048
11
1.4787
21
0.297885
0
LINE
8
BLACK
6
CONTINUOUS
10
1.4787
20
0.297885
11
1.48912
21
0.288502
0
LINE
8
BLACK
6
CONTINUOUS
10
1.48912
20
0.288502
11
1.49843
21
0.278016
0
LINE
8
BLACK
6
CONTINUOUS
10
1.49843
20
0.278016
11
1.50651
21
0.266558
0
LINE
8
BLACK
6
CONTINUOUS
10
1.50651
20
0.266558
11
1.51327
21
0.25427
0
LINE
8
BLACK
6
CONTINUOUS
10
1.51327
20
0.25427
11
1.51861
21
0.241306
0
LINE
8
BLACK
6
CONTINUOUS
10
1.51861
20
0.241306
11
1.52248
21
0.227826
0
LINE
8
BLACK
6
CONTINUOUS
10
1.52248
20
0.227826
11
1.52482
21
0.214001
0
LINE
8
BLACK
6
CONTINUOUS
10
1.52482
20
0.214001
11
1.5256
21
0.2
0
LINE
8
BLACK
6
CONTINUOUS
10
1.5256
20
0.2
11
1.52555
21
0.196493
0
LINE
8
BLACK
6
CONTINUOUS
10
1.52555
20
0.196493
11
1.52438
21
0.18252
0
LINE
8
BLACK
6
CONTINUOUS
10
1.52438
20
0.18252
11
1.52165
21
0.168765
0
LINE
8
BLACK
6
CONTINUOUS
10
1.52165
20
0.168765
11
1.51741
21
0.155399
0
LINE
8
BLACK
6
CONTINUOUS
10
1.51741
20
0.155399
11
1.51171
21
0.142589
0
LINE
8
BLACK
6
CONTINUOUS
10
1.51171
20
0.142589
11
1.50461
21
0.130494
0
LINE
8
BLACK
6
CONTINUOUS
10
1.50461
20
0.130494
11
1.49622
21
0.119266
0
LINE
8
BLACK
6
CONTINUOUS
10
1.49622
20
0.119266
11
1.48662
21
0.109044
0
LINE
8
BLACK
6
CONTINUOUS
10
1.48662
20
0.109044
11
1.47594
21
0.0999558
0
LINE
8
BLACK
6
CONTINUOUS
10
1.47594
20
0.0999558
11
1.46431
21
0.0921146
0
LINE
8
BLACK
6
CONTINUOUS
10
1.46431
20
0.0921146
11
1.45189
21
0.0856181
0
LINE
8
BLACK
6
CONTINUOUS
10
1.45189
20
0.0856181
11
1.43881
21
0.0805473
0
LINE
8
BLACK
6
CONTINUOUS
10
1.43881
20
0.0805473
11
1.42526
21
0.0769654
0
LINE
8
BLACK
6
CONTINUOUS
10
1.42526
20
0.0769654
11
1.41138
21
0.0749169
0
LINE
8
BLACK
6
CONTINUOUS
10
1.41138
20
0.0749169
11
1.39737
21
0.0744276
0
LINE
8
BLACK
6
CONTINUOUS
10
1.39737
20
0.0744276
11
1.38339
21
0.0755033
0
LINE
8
BLACK
6
CONTINUOUS
10
1.38339
20
0.0755033
11
1.36961
21
0.0781309
0
LINE
8
BLACK
6
CONTINUOUS
10
1.36961
20
0.0781309
11
1.35622
21
0.0822774
0
LINE
8
BLACK
6
CONTINUOUS
10
1.35622
20
0.0822774
11
1.34337
21
0.0878912
0
LINE
8
BLACK
6
CONTINUOUS
10
1.34337
20
0.0878912
11
1.33123
21
0.0949024
0
LINE
8
BLACK
6
CONTINUOUS
10
1.33123
20
0.0949024
11
1.31994
21
0.103224
0
LINE
8
BLACK
6
CONTINUOUS
10
1.31994
20
0.103224
11
1.30965
21
0.112751
0
LINE
8
BLACK
6
CONTINUOUS
10
1.30965
20
0.112751
11
1.30049
21
0.123366
0
LINE
8
BLACK
6
CONTINUOUS
10
1.30049
20
0.123366
11
1.29257
21
0.134936
0
LINE
8
BLACK
6
CONTINUOUS
10
1.29257
20
0.134936
11
1.28598
21
0.147317
0
LINE
8
BLACK
6
CONTINUOUS
10
1.28598
20
0.147317
11
1.28082
21
0.160354
0
LINE
8
BLACK
6
CONTINUOUS
10
1.28082
20
0.160354
11
1.27714
21
0.173886
0
LINE
8
BLACK
6
CONTINUOUS
10
1.27714
20
0.173886
11
1.275
21
0.187744
0
LINE
8
BLACK
6
CONTINUOUS
10
1.275
20
0.187744
11
1.27441
21
0.201754
0
LINE
8
BLACK
6
CONTINUOUS
10
1.27441
20
0.201754
11
1.27453
21
0.20348
0
LINE
8
BLACK
6
CONTINUOUS
10
1.27453
20
0.20348
11
1.27539
21
0.215742
0
LINE
8
BLACK
6
CONTINUOUS
10
1.27539
20
0.215742
11
1.27792
21
0.229534
0
LINE
8
BLACK
6
CONTINUOUS
10
1.2914
20
0.178102
11
1.29463
21
0.165765
0
LINE
8
BLACK
6
CONTINUOUS
10
1.29463
20
0.165765
11
1.29927
21
0.153881
0
LINE
8
BLACK
6
CONTINUOUS
10
1.29927
20
0.153881
11
1.30524
21
0.142609
0
LINE
8
BLACK
6
CONTINUOUS
10
1.30524
20
0.142609
11
1.31246
21
0.132098
0
LINE
8
BLACK
6
CONTINUOUS
10
1.31246
20
0.132098
11
1.32085
21
0.122486
0
LINE
8
BLACK
6
CONTINUOUS
10
1.32085
20
0.122486
11
1.33028
21
0.113902
0
LINE
8
BLACK
6
CONTINUOUS
10
1.33028
20
0.113902
11
1.34064
21
0.106459
0
LINE
8
BLACK
6
CONTINUOUS
10
1.34064
20
0.106459
11
1.35178
21
0.100256
0
LINE
8
BLACK
6
CONTINUOUS
10
1.35178
20
0.100256
11
1.36357
21
0.095375
0
LINE
8
BLACK
6
CONTINUOUS
10
1.36357
20
0.095375
11
1.37583
21
0.0918807
0
LINE
8
BLACK
6
CONTINUOUS
10
1.37583
20
0.0918807
11
1.38842
21
0.0898194
0
LINE
8
BLACK
6
CONTINUOUS
10
1.38842
20
0.0898194
11
1.40116
21
0.0892186
0
LINE
8
BLACK
6
CONTINUOUS
10
1.40116
20
0.0892186
11
1.41389
21
0.0900861
0
LINE
8
BLACK
6
CONTINUOUS
10
1.41389
20
0.0900861
11
1.42643
21
0.0924105
0
LINE
8
BLACK
6
CONTINUOUS
10
1.42643
20
0.0924105
11
1.43862
21
0.0961609
0
LINE
8
BLACK
6
CONTINUOUS
10
1.43862
20
0.0961609
11
1.4503
21
0.101288
0
LINE
8
BLACK
6
CONTINUOUS
10
1.4503
20
0.101288
11
1.46131
21
0.107723
0
LINE
8
BLACK
6
CONTINUOUS
10
1.46131
20
0.107723
11
1.47151
21
0.115381
0
LINE
8
BLACK
6
CONTINUOUS
10
1.47151
20
0.115381
11
1.48076
21
0.124161
0
LINE
8
BLACK
6
CONTINUOUS
10
1.48076
20
0.124161
11
1.48894
21
0.133946
0
LINE
8
BLACK
6
CONTINUOUS
10
1.48894
20
0.133946
11
1.49594
21
0.144606
0
LINE
8
BLACK
6
CONTINUOUS
10
1.49594
20
0.144606
11
1.50168
21
0.156001
0
LINE
8
BLACK
6
CONTINUOUS
10
1.50168
20
0.156001
11
1.50606
21
0.167979
0
LINE
8
BLACK
6
CONTINUOUS
10
1.50606
20
0.167979
11
1.50904
21
0.180381
0
LINE
8
BLACK
6
CONTINUOUS
10
1.50904
20
0.180381
11
1.51057
21
0.193044
0
LINE
8
BLACK
6
CONTINUOUS
10
1.51057
20
0.193044
11
1.51079
21
0.2
0
LINE
8
BLACK
6
CONTINUOUS
10
1.51079
20
0.2
11
1.51005
21
0.212734
0
LINE
8
BLACK
6
CONTINUOUS
10
1.51005
20
0.212734
11
1.50786
21
0.225298
0
LINE
8
BLACK
6
CONTINUOUS
10
1.50786
20
0.225298
11
1.50424
21
0.237528
0
LINE
8
BLACK
6
CONTINUOUS
10
1.50424
20
0.237528
11
1.49923
21
0.24926
0
LINE
8
BLACK
6
CONTINUOUS
10
1.49923
20
0.24926
11
1.49291
21
0.260339
0
LINE
8
BLACK
6
CONTINUOUS
10
1.49291
20
0.260339
11
1.48536
21
0.270619
0
LINE
8
BLACK
6
CONTINUOUS
10
1.48536
20
0.270619
11
1.47668
21
0.279962
0
LINE
8
BLACK
6
CONTINUOUS
10
1.47668
20
0.279962
11
1.46698
21
0.288246
0
LINE
8
BLACK
6
CONTINUOUS
10
1.46698
20
0.288246
11
1.4564
21
0.295359
0
LINE
8
BLACK
6
CONTINUOUS
10
1.4564
20
0.295359
11
1.44506
21
0.301209
0
LINE
8
BLACK
6
CONTINUOUS
10
1.44506
20
0.301209
11
1.43313
21
0.305718
0
LINE
8
BLACK
6
CONTINUOUS
10
1.43313
20
0.305718
11
1.42076
21
0.308825
0
LINE
8
BLACK
6
CONTINUOUS
10
1.42076
20
0.308825
11
1.40811
21
0.31049
0
LINE
8
BLACK
6
CONTINUOUS
10
1.40811
20
0.31049
11
1.39536
21
0.31069
0
LINE
8
BLACK
6
CONTINUOUS
10
1.39536
20
0.31069
11
1.38267
21
0.309423
0
LINE
8
BLACK
6
CONTINUOUS
10
1.38267
20
0.309423
11
1.37021
21
0.306706
0
LINE
8
BLACK
6
CONTINUOUS
10
1.37021
20
0.306706
11
1.35814
21
0.302575
0
LINE
8
BLACK
6
CONTINUOUS
10
1.35814
20
0.302575
11
1.34663
21
0.297084
0
LINE
8
BLACK
6
CONTINUOUS
10
1.34663
20
0.297084
11
1.33582
21
0.290306
0
LINE
8
BLACK
6
CONTINUOUS
10
1.33582
20
0.290306
11
1.32587
21
0.282331
0
LINE
8
BLACK
6
CONTINUOUS
10
1.32587
20
0.282331
11
1.3169
21
0.273265
0
LINE
8
BLACK
6
CONTINUOUS
10
1.3169
20
0.273265
11
1.30903
21
0.263228
0
LINE
8
BLACK
6
CONTINUOUS
10
1.30903
20
0.263228
11
1.30236
21
0.252353
0
LINE
8
BLACK
6
CONTINUOUS
10
1.30236
20
0.252353
11
1.29699
21
0.240784
0
LINE
8
BLACK
6
CONTINUOUS
10
1.29699
20
0.240784
11
1.29299
21
0.228674
0
LINE
8
BLACK
6
CONTINUOUS
10
1.29299
20
0.228674
11
1.2904
21
0.216184
0
LINE
8
BLACK
6
CONTINUOUS
10
1.2904
20
0.216184
11
1.28927
21
0.20348
0
LINE
8
BLACK
6
CONTINUOUS
10
1.28927
20
0.20348
11
1.2896
21
0.19073
0
LINE
8
BLACK
6
CONTINUOUS
10
1.2896
20
0.19073
11
1.2914
21
0.178102
0
LINE
8
BLACK
6
CONTINUOUS
10
0.0779217
20
0.229534
11
0.0819746
21
0.242958
0
LINE
8
BLACK
6
CONTINUOUS
10
0.0819746
20
0.242958
11
0.0874986
21
0.255846
0
LINE
8
BLACK
6
CONTINUOUS
10
0.0874986
20
0.255846
11
0.0944248
21
0.268039
0
LINE
8
BLACK
6
CONTINUOUS
10
0.0944248
20
0.268039
11
0.102667
21
0.279383
0
LINE
8
BLACK
6
CONTINUOUS
10
0.102667
20
0.279383
11
0.112122
21
0.289738
0
LINE
8
BLACK
6
CONTINUOUS
10
0.112122
20
0.289738
11
0.122673
21
0.298974
0
LINE
8
BLACK
6
CONTINUOUS
10
0.122673
20
0.298974
11
0.134187
21
0.306977
0
LINE
8
BLACK
6
CONTINUOUS
10
0.134187
20
0.306977
11
0.146522
21
0.313646
0
LINE
8
BLACK
6
CONTINUOUS
10
0.146522
20
0.313646
11
0.159523
21
0.318899
0
LINE
8
BLACK
6
CONTINUOUS
10
0.159523
20
0.318899
11
0.173029
21
0.32267
0
LINE
8
BLACK
6
CONTINUOUS
10
0.173029
20
0.32267
11
0.186871
21
0.324912
0
LINE
8
BLACK
6
CONTINUOUS
10
0.186871
20
0.324912
11
0.200877
21
0.325597
0
LINE
8
BLACK
6
CONTINUOUS
10
0.200877
20
0.325597
11
0.214872
21
0.324716
0
LINE
8
BLACK
6
CONTINUOUS
10
0.214872
20
0.324716
11
0.228681
21
0.322281
0
LINE
8
BLACK
6
CONTINUOUS
10
0.228681
20
0.322281
11
0.242133
21
0.318322
0
LINE
8
BLACK
6
CONTINUOUS
10
0.242133
20
0.318322
11
0.255059
21
0.312889
0
LINE
8
BLACK
6
CONTINUOUS
10
0.255059
20
0.312889
11
0.2673
21
0.306048
0
LINE
8
BLACK
6
CONTINUOUS
10
0.2673
20
0.306048
11
0.278701
21
0.297885
0
LINE
8
BLACK
6
CONTINUOUS
10
0.278701
20
0.297885
11
0.289122
21
0.288502
0
LINE
8
BLACK
6
CONTINUOUS
10
0.289122
20
0.288502
11
0.298432
21
0.278016
0
LINE
8
BLACK
6
CONTINUOUS
10
0.298432
20
0.278016
11
0.306515
21
0.266558
0
LINE
8
BLACK
6
CONTINUOUS
10
0.306515
20
0.266558
11
0.31327
21
0.25427
0
LINE
8
BLACK
6
CONTINUOUS
10
0.31327
20
0.25427
11
0.318614
21
0.241306
0
LINE
8
BLACK
6
CONTINUOUS
10
0.318614
20
0.241306
11
0.322479
21
0.227826
0
LINE
8
BLACK
6
CONTINUOUS
10
0.322479
20
0.227826
11
0.324817
21
0.214001
0
LINE
8
BLACK
6
CONTINUOUS
10
0.324817
20
0.214001
11
0.3256
21
0.2
0
LINE
8
BLACK
6
CONTINUOUS
10
0.3256
20
0.2
11
0.325551
21
0.196493
0
LINE
8
BLACK
6
CONTINUOUS
10
0.325551
20
0.196493
11
0.324378
21
0.18252
0
LINE
8
BLACK
6
CONTINUOUS
10
0.324378
20
0.18252
11
0.321654
21
0.168765
0
LINE
8
BLACK
6
CONTINUOUS
10
0.321654
20
0.168765
11
0.317414
21
0.155399
0
LINE
8
BLACK
6
CONTINUOUS
10
0.317414
20
0.155399
11
0.311711
21
0.142589
0
LINE
8
BLACK
6
CONTINUOUS
10
0.311711
20
0.142589
11
0.304615
21
0.130494
0
LINE
8
BLACK
6
CONTINUOUS
10
0.304615
20
0.130494
11
0.296215
21
0.119266
0
LINE
8
BLACK
6
CONTINUOUS
10
0.296215
20
0.119266
11
0.286616
21
0.109044
0
LINE
8
BLACK
6
CONTINUOUS
10
0.286616
20
0.109044
11
0.275938
21
0.0999558
0
LINE
8
BLACK
6
CONTINUOUS
10
0.275938
20
0.0999558
11
0.264313
21
0.0921146
0
LINE
8
BLACK
6
CONTINUOUS
10
0.264313
20
0.0921146
11
0.251886
21
0.0856181
0
LINE
8
BLACK
6
CONTINUOUS
10
0.251886
20
0.0856181
11
0.238813
21
0.0805473
0
LINE
8
BLACK
6
CONTINUOUS
10
0.238813
20
0.0805473
11
0.225255
21
0.0769654
0
LINE
8
BLACK
6
CONTINUOUS
10
0.225255
20
0.0769654
11
0.211383
21
0.0749169
0
LINE
8
BLACK
6
CONTINUOUS
10
0.211383
20
0.0749169
11
0.19737
21
0.0744276
0
LINE
8
BLACK
6
CONTINUOUS
10
0.19737
20
0.0744276
11
0.183389
21
0.0755033
0
LINE
8
BLACK
6
CONTINUOUS
10
0.183389
20
0.0755033
11
0.169615
21
0.0781309
0
LINE
8
BLACK
6
CONTINUOUS
10
0.169615
20
0.0781309
11
0.156219
21
0.0822774
0
LINE
8
BLACK
6
CONTINUOUS
10
0.156219
20
0.0822774
11
0.14337
21
0.0878912
0
LINE
8
BLACK
6
CONTINUOUS
10
0.14337
20
0.0878912
11
0.131226
21
0.0949024
0
LINE
8
BLACK
6
CONTINUOUS
10
0.131226
20
0.0949024
11
0.11994
21
0.103224
0
LINE
8
BLACK
6
CONTINUOUS
10
0.11994
20
0.103224
11
0.109651
21
0.112751
0
LINE
8
BLACK
6
CONTINUOUS
10
0.109651
20
0.112751
11
0.100488
21
0.123366
0
LINE
8
BLACK
6
CONTINUOUS
10
0.100488
20
0.123366
11
0.0925663
21
0.134936
0
LINE
8
BLACK
6
CONTINUOUS
10
0.0925663
20
0.134936
11
0.0859831
21
0.147317
0
LINE
8
BLACK
6
CONTINUOUS
10
0.0859831
20
0.147317
11
0.0808212
21
0.160354
0
LINE
8
BLACK
6
CONTINUOUS
10
0.0808212
20
0.160354
11
0.0771446
21
0.173886
0
LINE
8
BLACK
6
CONTINUOUS
10
0.0771446
20
0.173886
11
0.0749994
21
0.187744
0
LINE
8
BLACK
6
CONTINUOUS
10
0.0749994
20
0.187744
11
0.0744122
21
0.201754
0
LINE
8
BLACK
6
CONTINUOUS
10
0.0744122
20
0.201754
11
0.074533
21
0.20348
0
LINE
8
BLACK
6
CONTINUOUS
10
0.074533
20
0.20348
11
0.0753904
21
0.215742
0
LINE
8
BLACK
6
CONTINUOUS
10
0.0753904
20
0.215742
11
0.0779217
21
0.229534
0
LINE
8
BLACK
6
CONTINUOUS
10
0.0913983
20
0.178102
11
0.0946349
21
0.165765
0
LINE
8
BLACK
6
CONTINUOUS
10
0.0946349
20
0.165765
11
0.0992681
21
0.153881
0
LINE
8
BLACK
6
CONTINUOUS
10
0.0992681
20
0.153881
11
0.105236
21
0.142609
0
LINE
8
BLACK
6
CONTINUOUS
10
0.105236
20
0.142609
11
0.112461
21
0.132098
0
LINE
8
BLACK
6
CONTINUOUS
10
0.112461
20
0.132098
11
0.120845
21
0.122486
0
LINE
8
BLACK
6
CONTINUOUS
10
0.120845
20
0.122486
11
0.130279
21
0.113902
0
LINE
8
BLACK
6
CONTINUOUS
10
0.130279
20
0.113902
11
0.140637
21
0.106459
0
LINE
8
BLACK
6
CONTINUOUS
10
0.140637
20
0.106459
11
0.151782
21
0.100256
0
LINE
8
BLACK
6
CONTINUOUS
10
0.151782
20
0.100256
11
0.163566
21
0.095375
0
LINE
8
BLACK
6
CONTINUOUS
10
0.163566
20
0.095375
11
0.175832
21
0.0918807
0
LINE
8
BLACK
6
CONTINUOUS
10
0.175832
20
0.0918807
11
0.18842
21
0.0898194
0
LINE
8
BLACK
6
CONTINUOUS
10
0.18842
20
0.0898194
11
0.20116
21
0.0892186
0
LINE
8
BLACK
6
CONTINUOUS
10
0.20116
20
0.0892186
11
0.213885
21
0.0900861
0
LINE
8
BLACK
6
CONTINUOUS
10
0.213885
20
0.0900861
11
0.226426
21
0.0924105
0
LINE
8
BLACK
6
CONTINUOUS
10
0.226426
20
0.0924105
11
0.238617
21
0.0961609
0
LINE
8
BLACK
6
CONTINUOUS
10
0.238617
20
0.0961609
11
0.250296
21
0.101288
0
LINE
8
BLACK
6
CONTINUOUS
10
0.250296
20
0.101288
11
0.261309
21
0.107723
0
LINE
8
BLACK
6
CONTINUOUS
10
0.261309
20
0.107723
11
0.271509
21
0.115381
0
LINE
8
BLACK
6
CONTINUOUS
10
0.271509
20
0.115381
11
0.280761
21
0.124161
0
LINE
8
BLACK
6
CONTINUOUS
10
0.280761
20
0.124161
11
0.288942
21
0.133946
0
LINE
8
BLACK
6
CONTINUOUS
10
0.288942
20
0.133946
11
0.295945
21
0.144606
0
LINE
8
BLACK
6
CONTINUOUS
10
0.295945
20
0.144606
11
0.301676
21
0.156001
0
LINE
8
BLACK
6
CONTINUOUS
10
0.301676
20
0.156001
11
0.306059
21
0.167979
0
LINE
8
BLACK
6
CONTINUOUS
10
0.306059
20
0.167979
11
0.309036
21
0.180381
0
LINE
8
BLACK
6
CONTINUOUS
10
0.309036
20
0.180381
11
0.310569
21
0.193044
0
LINE
8
BLACK
6
CONTINUOUS
10
0.310569
20
0.193044
11
0.310787
21
0.2
0
LINE
8
BLACK
6
CONTINUOUS
10
0.310787
20
0.2
11
0.310053
21
0.212734
0
LINE
8
BLACK
6
CONTINUOUS
10
0.310053
20
0.212734
11
0.30786
21
0.225298
0
LINE
8
BLACK
6
CONTINUOUS
10
0.30786
20
0.225298
11
0.304238
21
0.237528
0
LINE
8
BLACK
6
CONTINUOUS
10
0.304238
20
0.237528
11
0.299234
21
0.24926
0
LINE
8
BLACK
6
CONTINUOUS
10
0.299234
20
0.24926
11
0.292914
21
0.260339
0
LINE
8
BLACK
6
CONTINUOUS
10
0.292914
20
0.260339
11
0.285363
21
0.270619
0
LINE
8
BLACK
6
CONTINUOUS
10
0.285363
20
0.270619
11
0.276681
21
0.279962
0
LINE
8
BLACK
6
CONTINUOUS
10
0.276681
20
0.279962
11
0.266982
21
0.288246
0
LINE
8
BLACK
6
CONTINUOUS
10
0.266982
20
0.288246
11
0.256395
21
0.295359
0
LINE
8
BLACK
6
CONTINUOUS
10
0.256395
20
0.295359
11
0.245061
21
0.301209
0
LINE
8
BLACK
6
CONTINUOUS
10
0.245061
20
0.301209
11
0.23313
21
0.305718
0
LINE
8
BLACK
6
CONTINUOUS
10
0.23313
20
0.305718
11
0.220759
21
0.308825
0
LINE
8
BLACK
6
CONTINUOUS
10
0.220759
20
0.308825
11
0.208114
21
0.31049
0
LINE
8
BLACK
6
CONTINUOUS
10
0.208114
20
0.31049
11
0.195361
21
0.31069
0
LINE
8
BLACK
6
CONTINUOUS
10
0.195361
20
0.31069
11
0.182669
21
0.309423
0
LINE
8
BLACK
6
CONTINUOUS
10
0.182669
20
0.309423
11
0.170207
21
0.306706
0
LINE
8
BLACK
6
CONTINUOUS
10
0.170207
20
0.306706
11
0.15814
21
0.302575
0
LINE
8
BLACK
6
CONTINUOUS
10
0.15814
20
0.302575
11
0.146628
21
0.297084
0
LINE
8
BLACK
6
CONTINUOUS
10
0.146628
20
0.297084
11
0.135823
21
0.290306
0
LINE
8
BLACK
6
CONTINUOUS
10
0.135823
20
0.290306
11
0.125869
21
0.282331
0
LINE
8
BLACK
6
CONTINUOUS
10
0.125869
20
0.282331
11
0.116897
21
0.273265
0
LINE
8
BLACK
6
CONTINUOUS
10
0.116897
20
0.273265
11
0.109027
21
0.263228
0
LINE
8
BLACK
6
CONTINUOUS
10
0.109027
20
0.263228
11
0.102363
21
0.252353
0
LINE
8
BLACK
6
CONTINUOUS
10
0.102363
20
0.252353
11
0.0969924
21
0.240784
0
LINE
8
BLACK
6
CONTINUOUS
10
0.0969924
20
0.240784
11
0.0929876
21
0.228674
0
LINE
8
BLACK
6
CONTINUOUS
10
0.0929876
20
0.228674
11
0.0904011
21
0.216184
0
LINE
8
BLACK
6
CONTINUOUS
10
0.0904011
20
0.216184
11
0.0892672
21
0.20348
0
LINE
8
BLACK
6
CONTINUOUS
10
0.0892672
20
0.20348
11
0.0896011
21
0.19073
0
LINE
8
BLACK
6
CONTINUOUS
10
0.0896011
20
0.19073
11
0.0913983
21
0.178102
0
LINE
8
BLACK
6
CONTINUOUS
10
0.0779217
20
1.42953
11
0.0819746
21
1.44296
0
LINE
8
BLACK
6
CONTINUOUS
10
0.0819746
20
1.44296
11
0.0874986
21
1.45585
0
LINE
8
BLACK
6
CONTINUOUS
10
0.0874986
20
1.45585
11
0.0944248
21
1.46804
0
LINE
8
BLACK
6
CONTINUOUS
10
0.0944248
20
1.46804
11
0.102667
21
1.47938
0
LINE
8
BLACK
6
CONTINUOUS
10
0.102667
20
1.47938
11
0.112122
21
1.48974
0
LINE
8
BLACK
6
CONTINUOUS
10
0.112122
20
1.48974
11
0.122673
21
1.49897
0
LINE
8
BLACK
6
CONTINUOUS
10
0.122673
20
1.49897
11
0.134187
21
1.50698
0
LINE
8
BLACK
6
CONTINUOUS
10
0.134187
20
1.50698
11
0.146522
21
1.51365
0
LINE
8
BLACK
6
CONTINUOUS
10
0.146522
20
1.51365
11
0.159523
21
1.5189
0
LINE
8
BLACK
6
CONTINUOUS
10
0.159523
20
1.5189
11
0.173029
21
1.52267
0
LINE
8
BLACK
6
CONTINUOUS
10
0.173029
20
1.52267
11
0.186871
21
1.52491
0
LINE
8
BLACK
6
CONTINUOUS
10
0.186871
20
1.52491
11
0.200877
21
1.5256
0
LINE
8
BLACK
6
CONTINUOUS
10
0.200877
20
1.5256
11
0.214872
21
1.52472
0
LINE
8
BLACK
6
CONTINUOUS
10
0.214872
20
1.52472
11
0.228681
21
1.52228
0
LINE
8
BLACK
6
CONTINUOUS
10
0.228681
20
1.52228
11
0.242133
21
1.51832
0
LINE
8
BLACK
6
CONTINUOUS
10
0.242133
20
1.51832
11
0.255059
21
1.51289
0
LINE
8
BLACK
6
CONTINUOUS
10
0.255059
20
1.51289
11
0.2673
21
1.50605
0
LINE
8
BLACK
6
CONTINUOUS
10
0.2673
20
1.50605
11
0.278701
21
1.49788
0
LINE
8
BLACK
6
CONTINUOUS
10
0.278701
20
1.49788
11
0.289122
21
1.4885
0
LINE
8
BLACK
6
CONTINUOUS
10
0.289122
20
1.4885
11
0.298432
21
1.47802
0
LINE
8
BLACK
6
CONTINUOUS
10
0.298432
20
1.47802
11
0.306515
21
1.46656
0
LINE
8
BLACK
6
CONTINUOUS
10
0.306515
20
1.46656
11
0.31327
21
1.45427
0
LINE
8
BLACK
6
CONTINUOUS
10
0.31327
20
1.45427
11
0.318614
21
1.44131
0
LINE
8
BLACK
6
CONTINUOUS
10
0.318614
20
1.44131
11
0.322479
21
1.42783
0
LINE
8
BLACK
6
CONTINUOUS
10
0.322479
20
1.42783
11
0.324817
21
1.414
0
LINE
8
BLACK
6
CONTINUOUS
10
0.324817
20
1.414
11
0.3256
21
1.4
0
LINE
8
BLACK
6
CONTINUOUS
10
0.3256
20
1.4
11
0.325551
21
1.39649
0
LINE
8
BLACK
6
CONTINUOUS
10
0.325551
20
1.39649
11
0.324378
21
1.38252
0
LINE
8
BLACK
6
CONTINUOUS
10
0.324378
20
1.38252
11
0.321654
21
1.36876
0
LINE
8
BLACK
6
CONTINUOUS
10
0.321654
20
1.36876
11
0.317414
21
1.3554
0
LINE
8
BLACK
6
CONTINUOUS
10
0.317414
20
1.3554
11
0.311711
21
1.34259
0
LINE
8
BLACK
6
CONTINUOUS
10
0.311711
20
1.34259
11
0.304615
21
1.33049
0
LINE
8
BLACK
6
CONTINUOUS
10
0.304615
20
1.33049
11
0.296215
21
1.31927
0
LINE
8
BLACK
6
CONTINUOUS
10
0.296215
20
1.31927
11
0.286616
21
1.30904
0
LINE
8
BLACK
6
CONTINUOUS
10
0.286616
20
1.30904
11
0.275938
21
1.29996
0
LINE
8
BLACK
6
CONTINUOUS
10
0.275938
20
1.29996
11
0.264313
21
1.29211
0
LINE
8
BLACK
6
CONTINUOUS
10
0.264313
20
1.29211
11
0.251886
21
1.28562
0
LINE
8
BLACK
6
CONTINUOUS
10
0.251886
20
1.28562
11
0.238813
21
1.28055
0
LINE
8
BLACK
6
CONTINUOUS
10
0.238813
20
1.28055
11
0.225255
21
1.27697
0
LINE
8
BLACK
6
CONTINUOUS
10
0.225255
20
1.27697
11
0.211383
21
1.27492
0
LINE
8
BLACK
6
CONTINUOUS
10
0.211383
20
1.27492
11
0.19737
21
1.27443
0
LINE
8
BLACK
6
CONTINUOUS
10
0.19737
20
1.27443
11
0.183389
21
1.2755
0
LINE
8
BLACK
6
CONTINUOUS
10
0.183389
20
1.2755
11
0.169615
21
1.27813
0
LINE
8
BLACK
6
CONTINUOUS
10
0.169615
20
1.27813
11
0.156219
21
1.28228
0
LINE
8
BLACK
6
CONTINUOUS
10
0.156219
20
1.28228
11
0.14337
21
1.28789
0
LINE
8
BLACK
6
CONTINUOUS
10
0.14337
20
1.28789
11
0.131226
21
1.2949
0
LINE
8
BLACK
6
CONTINUOUS
10
0.131226
20
1.2949
11
0.11994
21
1.30322
0
LINE
8
BLACK
6
CONTINUOUS
10
0.11994
20
1.30322
11
0.109651
21
1.31275
0
LINE
8
BLACK
6
CONTINUOUS
10
0.109651
20
1.31275
11
0.100488
21
1.32337
0
LINE
8
BLACK
6
CONTINUOUS
10
0.100488
20
1.32337
11
0.0925663
21
1.33494
0
LINE
8
BLACK
6
CONTINUOUS
10
0.0925663
20
1.33494
11
0.0859831
21
1.34732
0
LINE
8
BLACK
6
CONTINUOUS
10
0.0859831
20
1.34732
11
0.0808212
21
1.36035
0
LINE
8
BLACK
6
CONTINUOUS
10
0.0808212
20
1.36035
11
0.0771446
21
1.37389
0
LINE
8
BLACK
6
CONTINUOUS
10
0.0771446
20
1.37389
11
0.0749994
21
1.38774
0
LINE
8
BLACK
6
CONTINUOUS
10
0.0749994
20
1.38774
11
0.0744122
21
1.40175
0
LINE
8
BLACK
6
CONTINUOUS
10
0.0744122
20
1.40175
11
0.074533
21
1.40348
0
LINE
8
BLACK
6
CONTINUOUS
10
0.074533
20
1.40348
11
0.0753904
21
1.41574
0
LINE
8
BLACK
6
CONTINUOUS
10
0.0753904
20
1.41574
11
0.0779217
21
1.42953
0
LINE
8
BLACK
6
CONTINUOUS
10
0.0913983
20
1.3781
11
0.0946349
21
1.36576
0
LINE
8
BLACK
6
CONTINUOUS
10
0.0946349
20
1.36576
11
0.0992681
21
1.35388
0
LINE
8
BLACK
6
CONTINUOUS
10
0.0992681
20
1.35388
11
0.105236
21
1.34261
0
LINE
8
BLACK
6
CONTINUOUS
10
0.105236
20
1.34261
11
0.112461
21
1.3321
0
LINE
8
BLACK
6
CONTINUOUS
10
0.112461
20
1.3321
11
0.120845
21
1.32249
0
LINE
8
BLACK
6
CONTINUOUS
10
0.120845
20
1.32249
11
0.130279
21
1.3139
0
LINE
8
BLACK
6
CONTINUOUS
10
0.130279
20
1.3139
11
0.140637
21
1.30646
0
LINE
8
BLACK
6
CONTINUOUS
10
0.140637
20
1.30646
11
0.151782
21
1.30026
0
LINE
8
BLACK
6
CONTINUOUS
10
0.151782
20
1.30026
11
0.163566
21
1.29537
0
LINE
8
BLACK
6
CONTINUOUS
10
0.163566
20
1.29537
11
0.175832
21
1.29188
0
LINE
8
BLACK
6
CONTINUOUS
10
0.175832
20
1.29188
11
0.18842
21
1.28982
0
LINE
8
BLACK
6
CONTINUOUS
10
0.18842
20
1.28982
11
0.20116
21
1.28922
0
LINE
8
BLACK
6
CONTINUOUS
10
0.20116
20
1.28922
11
0.213885
21
1.29009
0
LINE
8
BLACK
6
CONTINUOUS
10
0.213885
20
1.29009
11
0.226426
21
1.29241
0
LINE
8
BLACK
6
CONTINUOUS
10
0.226426
20
1.29241
11
0.238617
21
1.29616
0
LINE
8
BLACK
6
CONTINUOUS
10
0.238617
20
1.29616
11
0.250296
21
1.30129
0
LINE
8
BLACK
6
CONTINUOUS
10
0.250296
20
1.30129
11
0.261309
21
1.30772
0
LINE
8
BLACK
6
CONTINUOUS
10
0.261309
20
1.30772
11
0.271509
21
1.31538
0
LINE
8
BLACK
6
CONTINUOUS
10
0.271509
20
1.31538
11
0.280761
21
1.32416
0
LINE
8
BLACK
6
CONTINUOUS
10
0.280761
20
1.32416
11
0.288942
21
1.33395
0
LINE
8
BLACK
6
CONTINUOUS
10
0.288942
20
1.33395
11
0.295945
21
1.34461
0
LINE
8
BLACK
6
CONTINUOUS
10
0.295945
20
1.34461
11
0.301676
21
1.356
0
LINE
8
BLACK
6
CONTINUOUS
10
0.301676
20
1.356
11
0.306059
21
1.36798
0
LINE
8
BLACK
6
CONTINUOUS
10
0.306059
20
1.36798
11
0.309036
21
1.38038
0
LINE
8
BLACK
6
CONTINUOUS
10
0.309036
20
1.38038
11
0.310569
21
1.39304
0
LINE
8
BLACK
6
CONTINUOUS
10
0.310569
20
1.39304
11
0.310787
21
1.4
0
LINE
8
BLACK
6
CONTINUOUS
10
0.310787
20
1.4
11
0.310053
21
1.41273
0
LINE
8
BLACK
6
CONTINUOUS
10
0.310053
20
1.41273
11
0.30786
21
1.4253
0
LINE
8
BLACK
6
CONTINUOUS
10
0.30786
20
1.4253
11
0.304238
21
1.43753
0
LINE
8
BLACK
6
CONTINUOUS
10
0.304238
20
1.43753
11
0.299234
21
1.44926
0
LINE
8
BLACK
6
CONTINUOUS
10
0.299234
20
1.44926
11
0.292914
21
1.46034
0
LINE
8
BLACK
6
CONTINUOUS
10
0.292914
20
1.46034
11
0.285363
21
1.47062
0
LINE
8
BLACK
6
CONTINUOUS
10
0.285363
20
1.47062
11
0.276681
21
1.47996
0
LINE
8
BLACK
6
CONTINUOUS
10
0.276681
20
1.47996
11
0.266982
21
1.48825
0
LINE
8
BLACK
6
CONTINUOUS
10
0.266982
20
1.48825
11
0.256395
21
1.49536
0
LINE
8
BLACK
6
CONTINUOUS
10
0.256395
20
1.49536
11
0.245061
21
1.50121
0
LINE
8
BLACK
6
CONTINUOUS
10
0.245061
20
1.50121
11
0.23313
21
1.50572
0
LINE
8
BLACK
6
CONTINUOUS
10
0.23313
20
1.50572
11
0.220759
21
1.50883
0
LINE
8
BLACK
6
CONTINUOUS
10
0.220759
20
1.50883
11
0.208114
21
1.51049
0
LINE
8
BLACK
6
CONTINUOUS
10
0.208114
20
1.51049
11
0.195361
21
1.51069
0
LINE
8
BLACK
6
CONTINUOUS
10
0.195361
20
1.51069
11
0.182669
21
1.50942
0
LINE
8
BLACK
6
CONTINUOUS
10
0.182669
20
1.50942
11
0.170207
21
1.50671
0
LINE
8
BLACK
6
CONTINUOUS
10
0.170207
20
1.50671
11
0.15814
21
1.50257
0
LINE
8
BLACK
6
CONTINUOUS
10
0.15814
20
1.50257
11
0.146628
21
1.49708
0
LINE
8
BLACK
6
CONTINUOUS
10
0.146628
20
1.49708
11
0.135823
21
1.49031
0
LINE
8
BLACK
6
CONTINUOUS
10
0.135823
20
1.49031
11
0.125869
21
1.48233
0
LINE
8
BLACK
6
CONTINUOUS
10
0.125869
20
1.48233
11
0.116897
21
1.47327
0
LINE
8
BLACK
6
CONTINUOUS
10
0.116897
20
1.47327
11
0.109027
21
1.46323
0
LINE
8
BLACK
6
CONTINUOUS
10
0.109027
20
1.46323
11
0.102363
21
1.45235
0
LINE
8
BLACK
6
CONTINUOUS
10
0.102363
20
1.45235
11
0.0969924
21
1.44078
0
LINE
8
BLACK
6
CONTINUOUS
10
0.0969924
20
1.44078
11
0.0929876
21
1.42867
0
LINE
8
BLACK
6
CONTINUOUS
10
0.0929876
20
1.42867
11
0.0904011
21
1.41618
0
LINE
8
BLACK
6
CONTINUOUS
10
0.0904011
20
1.41618
11
0.0892672
21
1.40348
0
LINE
8
BLACK
6
CONTINUOUS
10
0.0892672
20
1.40348
11
0.0896011
21
1.39073
0
LINE
8
BLACK
6
CONTINUOUS
10
0.0896011
20
1.39073
11
0.0913983
21
1.3781
0
LINE
8
BLACK
6
CONTINUOUS
10
1.27792
20
1.42953
11
1.28197
21
1.44296
0
LINE
8
BLACK
6
CONTINUOUS
10
1.28197
20
1.44296
11
1.2875
21
1.45585
0
LINE
8
BLACK
6
CONTINUOUS
10
1.2875
20
1.45585
11
1.29442
21
1.46804
0
LINE
8
BLACK
6
CONTINUOUS
10
1.29442
20
1.46804
11
1.30267
21
1.47938
0
LINE
8
BLACK
6
CONTINUOUS
10
1.30267
20
1.47938
11
1.31212
21
1.48974
0
LINE
8
BLACK
6
CONTINUOUS
10
1.31212
20
1.48974
11
1.32267
21
1.49897
0
LINE
8
BLACK
6
CONTINUOUS
10
1.32267
20
1.49897
11
1.33419
21
1.50698
0
LINE
8
BLACK
6
CONTINUOUS
10
1.33419
20
1.50698
11
1.34652
21
1.51365
0
LINE
8
BLACK
6
CONTINUOUS
10
1.34652
20
1.51365
11
1.35952
21
1.5189
0
LINE
8
BLACK
6
CONTINUOUS
10
1.35952
20
1.5189
11
1.37303
21
1.52267
0
LINE
8
BLACK
6
CONTINUOUS
10
1.37303
20
1.52267
11
1.38687
21
1.52491
0
LINE
8
BLACK
6
CONTINUOUS
10
1.38687
20
1.52491
11
1.40088
21
1.5256
0
LINE
8
BLACK
6
CONTINUOUS
10
1.40088
20
1.5256
11
1.41487
21
1.52472
0
LINE
8
BLACK
6
CONTINUOUS
10
1.41487
20
1.52472
11
1.42868
21
1.52228
0
LINE
8
BLACK
6
CONTINUOUS
10
1.42868
20
1.52228
11
1.44213
21
1.51832
0
LINE
8
BLACK
6
CONTINUOUS
10
1.44213
20
1.51832
11
1.45506
21
1.51289
0
LINE
8
BLACK
6
CONTINUOUS
10
1.45506
20
1.51289
11
1.4673
21
1.50605
0
LINE
8
BLACK
6
CONTINUOUS
10
1.4673
20
1.50605
11
1.4787
21
1.49788
0
LINE
8
BLACK
6
CONTINUOUS
10
1.4787
20
1.49788
11
1.48912
21
1.4885
0
LINE
8
BLACK
6
CONTINUOUS
10
1.48912
20
1.4885
11
1.49843
21
1.47802
0
LINE
8
BLACK
6
CONTINUOUS
10
1.49843
20
1.47802
11
1.50651
21
1.46656
0
LINE
8
BLACK
6
CONTINUOUS
10
1.50651
20
1.46656
11
1.51327
21
1.45427
0
LINE
8
BLACK
6
CONTINUOUS
10
1.51327
20
1.45427
11
1.51861
21
1.44131
0
LINE
8
BLACK
6
CONTINUOUS
10
1.51861
20
1.44131
11
1.52248
21
1.42783
0
LINE
8
BLACK
6
CONTINUOUS
10
1.52248
20
1.42783
11
1.52482
21
1.414
0
LINE
8
BLACK
6
CONTINUOUS
10
1.52482
20
1.414
11
1.5256
21
1.4
0
LINE
8
BLACK
6
CONTINUOUS
10
1.5256
20
1.4
11
1.52555
21
1.39649
0
LINE
8
BLACK
6
CONTINUOUS
10
1.52555
20
1.39649
11
1.52438
21
1.38252
0
LINE
8
BLACK
6
CONTINUOUS
10
1.52438
20
1.38252
11
1.52165
21
1.36876
0
LINE
8
BLACK
6
CONTINUOUS
10
1.52165
20
1.36876
11
1.51741
21
1.3554
0
LINE
8
BLACK
6
CONTINUOUS
10
1.51741
20
1.3554
11
1.51171
21
1.34259
0
LINE
8
BLACK
6
CONTINUOUS
10
1.51171
20
1.34259
11
1.50461
21
1.33049
0
LINE
8
BLACK
6
CONTINUOUS
10
1.50461
20
1.33049
11
1.49622
21
1.31927
0
LINE
8
BLACK
6
CONTINUOUS
10
1.49622
20
1.31927
11
1.48662
21
1.30904
0
LINE
8
BLACK
6
CONTINUOUS
10
1.48662
20
1.30904
11
1.47594
21
1.29996
0
LINE
8
BLACK
6
CONTINUOUS
10
1.47594
20
1.29996
11
1.46431
21
1.29211
0
LINE
8
BLACK
6
CONTINUOUS
10
1.46431
20
1.29211
11
1.45189
21
1.28562
0
LINE
8
BLACK
6
CONTINUOUS
10
1.45189
20
1.28562
11
1.43881
21
1.28055
0
LINE
8
BLACK
6
CONTINUOUS
10
1.43881
20
1.28055
11
1.42526
21
1.27697
0
LINE
8
BLACK
6
CONTINUOUS
10
1.42526
20
1.27697
11
1.41138
21
1.27492
0
LINE
8
BLACK
6
CONTINUOUS
10
1.41138
20
1.27492
11
1.39737
21
1.27443
0
LINE
8
BLACK
6
CONTINUOUS
10
1.39737
20
1.27443
11
1.38339
21
1.2755
0
LINE
8
BLACK
6
CONTINUOUS
10
1.38339
20
1.2755
11
1.36961
21
1.27813
0
LINE
8
BLACK
6
CONTINUOUS
10
1.36961
20
1.27813
11
1.35622
21
1.28228
0
LINE
8
BLACK
6
CONTINUOUS
10
1.35622
20
1.28228
11
1.34337
21
1.28789
0
LINE
8
BLACK
6
CONTINUOUS
10
1.34337
20
1.28789
11
1.33123
21
1.2949
0
LINE
8
BLACK
6
CONTINUOUS
10
1.33123
20
1.2949
11
1.31994
21
1.30322
0
LINE
8
BLACK
6
CONTINUOUS
10
1.31994
20
1.30322
11
1.30965
21
1.31275
0
LINE
8
BLACK
6
CONTINUOUS
10
1.30965
20
1.31275
11
1.30049
21
1.32337
0
LINE
8
BLACK
6
CONTINUOUS
10
1.30049
20
1.32337
11
1.29257
21
1.33494
0
LINE
8
BLACK
6
CONTINUOUS
10
1.29257
20
1.33494
11
1.28598
21
1.34732
0
LINE
8
BLACK
6
CONTINUOUS
10
1.28598
20
1.34732
11
1.28082
21
1.36035
0
LINE
8
BLACK
6
CONTINUOUS
10
1.28082
20
1.36035
11
1.27714
21
1.37389
0
LINE
8
BLACK
6
CONTINUOUS
10
1.27714
20
1.37389
11
1.275
21
1.38774
0
LINE
8
BLACK
6
CONTINUOUS
10
1.275
20
1.38774
11
1.27441
21
1.40175
0
LINE
8
BLACK
6
CONTINUOUS
10
1.27441
20
1.40175
11
1.27453
21
1.40348
0
LINE
8
BLACK
6
CONTINUOUS
10
1.27453
20
1.40348
11
1.27539
21
1.41574
0
LINE
8
BLACK
6
CONTINUOUS
10
1.27539
20
1.41574
11
1.27792
21
1.42953
0
LINE
8
BLACK
6
CONTINUOUS
10
1.2914
20
1.3781
11
1.29463
21
1.36576
0
LINE
8
BLACK
6
CONTINUOUS
10
1.29463
20
1.36576
11
1.29927
21
1.35388
0
LINE
8
BLACK
6
CONTINUOUS
10
1.29927
20
1.35388
11
1.30524
21
1.34261
0
LINE
8
BLACK
6
CONTINUOUS
10
1.30524
20
1.34261
11
1.31246
21
1.3321
0
LINE
8
BLACK
6
CONTINUOUS
10
1.31246
20
1.3321
11
1.32085
21
1.32249
0
LINE
8
BLACK
6
CONTINUOUS
10
1.32085
20
1.32249
11
1.33028
21
1.3139
0
LINE
8
BLACK
6
CONTINUOUS
10
1.33028
20
1.3139
11
1.34064
21
1.30646
0
LINE
8
BLACK
6
CONTINUOUS
10
1.34064
20
1.30646
11
1.35178
21
1.30026
0
LINE
8
BLACK
6
CONTINUOUS
10
1.35178
20
1.30026
11
1.36357
21
1.29537
0
LINE
8
BLACK
6
CONTINUOUS
10
1.36357
20
1.29537
11
1.37583
21
1.29188
0
LINE
8
BLACK
6
CONTINUOUS
10
1.37583
20
1.29188
11
1.38842
21
1.28982
0
LINE
8
BLACK
6
CONTINUOUS
10
1.38842
20
1.28982
11
1.40116
21
1.28922
0
LINE
8
BLACK
6
CONTINUOUS
10
1.40116
20
1.28922
11
1.41389
21
1.29009
0
LINE
8
BLACK
6
CONTINUOUS
10
1.41389
20
1.29009
11
1.42643
21
1.29241
0
LINE
8
BLACK
6
CONTINUOUS
10
1.42643
20
1.29241
11
1.43862
21
1.29616
0
LINE
8
BLACK
6
CONTINUOUS
10
1.43862
20
1.29616
11
1.4503
21
1.30129
0
LINE
8
BLACK
6
CONTINUOUS
10
1.4503
20
1.30129
11
1.46131
21
1.30772
0
LINE
8
BLACK
6
CONTINUOUS
10
1.46131
20
1.30772
11
1.47151
21
1.31538
0
LINE
8
BLACK
6
CONTINUOUS
10
1.47151
20
1.31538
11
1.48076
21
1.32416
0
LINE
8
BLACK
6
CONTINUOUS
10
1.48076
20
1.32416
11
1.48894
21
1.33395
0
LINE
8
BLACK
6
CONTINUOUS
10
1.48894
20
1.33395
11
1.49594
21
1.34461
0
LINE
8
BLACK
6
CONTINUOUS
10
1.49594
20
1.34461
11
1.50168
21
1.356
0
LINE
8
BLACK
6
CONTINUOUS
10
1.50168
20
1.356
11
1.50606
21
1.36798
0
LINE
8
BLACK
6
CONTINUOUS
10
1.50606
20
1.36798
11
1.50904
21
1.38038
0
LINE
8
BLACK
6
CONTINUOUS
10
1.50904
20
1.38038
11
1.51057
21
1.39304
0
LINE
8
BLACK
6
CONTINUOUS
10
1.51057
20
1.39304
11
1.51079
21
1.4
0
LINE
8
BLACK
6
CONTINUOUS
10
1.51079
20
1.4
11
1.51005
21
1.41273
0
LINE
8
BLACK
6
CONTINUOUS
10
1.51005
20
1.41273
11
1.50786
21
1.4253
0
LINE
8
BLACK
6
CONTINUOUS
10
1.50786
20
1.4253
11
1.50424
21
1.43753
0
LINE
8
BLACK
6
CONTINUOUS
10
1.50424
20
1.43753
11
1.49923
21
1.44926
0
LINE
8
BLACK
6
CONTINUOUS
10
1.49923
20
1.44926
11
1.49291
21
1.46034
0
LINE
8
BLACK
6
CONTINUOUS
10
1.49291
20
1.46034
11
1.48536
21
1.47062
0
LINE
8
BLACK
6
CONTINUOUS
10
1.48536
20
1.47062
11
1.47668
21
1.47996
0
LINE
8
BLACK
6
CONTINUOUS
10
1.47668
20
1.47996
11
1.46698
21
1.48825
0
LINE
8
BLACK
6
CONTINUOUS
10
1.46698
20
1.48825
11
1.4564
21
1.49536
0
LINE
8
BLACK
6
CONTINUOUS
10
1.4564
20
1.49536
11
1.44506
21
1.50121
0
LINE
8
BLACK
6
CONTINUOUS
10
1.44506
20
1.50121
11
1.43313
21
1.50572
0
LINE
8
BLACK
6
CONTINUOUS
10
1.43313
20
1.50572
11
1.42076
21
1.50883
0
LINE
8
BLACK
6
CONTINUOUS
10
1.42076
20
1.50883
11
1.40811
21
1.51049
0
LINE
8
BLACK
6
CONTINUOUS
10
1.40811
20
1.51049
11
1.39536
21
1.51069
0
LINE
8
BLACK
6
CONTINUOUS
10
1.39536
20
1.51069
11
1.38267
21
1.50942
0
LINE
8
BLACK
6
CONTINUOUS
10
1.38267
20
1.50942
11
1.37021
21
1.50671
0
LINE
8
BLACK
6
CONTINUOUS
10
1.37021
20
1.50671
11
1.35814
21
1.50257
0
LINE
8
BLACK
6
CONTINUOUS
10
1.35814
20
1.50257
11
1.34663
21
1.49708
0
LINE
8
BLACK
6
CONTINUOUS
10
1.34663
20
1.49708
11
1.33582
21
1.49031
0
LINE
8
BLACK
6
CONTINUOUS
10
1.33582
20
1.49031
11
1.32587
21
1.48233
0
LINE
8
BLACK
6
CONTINUOUS
10
1.32587
20
1.48233
11
1.3169
21
1.47327
0
LINE
8
BLACK
6
CONTINUOUS
10
1.3169
20
1.47327
11
1.30903
21
1.46323
0
LINE
8
BLACK
6
CONTINUOUS
10
1.30903
20
1.46323
11
1.30236
21
1.45235
0
LINE
8
BLACK
6
CONTINUOUS
10
1.30236
20
1.45235
11
1.29699
21
1.44078
0
LINE
8
BLACK
6
CONTINUOUS
10
1.29699
20
1.44078
11
1.29299
21
1.42867
0
LINE
8
BLACK
6
CONTINUOUS
10
1.29299
20
1.42867
11
1.2904
21
1.41618
0
LINE
8
BLACK
6
CONTINUOUS
10
1.2904
20
1.41618
11
1.28927
21
1.40348
0
LINE
8
BLACK
6
CONTINUOUS
10
1.28927
20
1.40348
11
1.2896
21
1.39073
0
LINE
8
BLACK
6
CONTINUOUS
10
1.2896
20
1.39073
11
1.2914
21
1.3781
  0
ENDSEC
  0
EOF
